<?xml version="1.0" encoding="utf-8"?>
<!-- Generator: Adobe Illustrator 24.0.1, SVG Export Plug-In . SVG Version: 6.00 Build 0)  -->
<svg version="1.1" id="Capa_1" xmlns="http://www.w3.org/2000/svg" xmlns:xlink="http://www.w3.org/1999/xlink" x="0px" y="0px"
	 viewBox="0 0 696 644.5" style="enable-background:new 0 0 696 644.5;" xml:space="preserve">
<style type="text/css">
	.st0{fill:#FFFFFF;}
	.st1{fill:none;stroke:#EFEEEE;stroke-dasharray:0;}
	.st2{fill:#1C3761;}
	.st3{font-family:'SourceSansPro-Regular';}
	.st4{font-size:9.62px;}
	.st5{fill:none;stroke:#1C3761;stroke-dasharray:0;}
	.st6{letter-spacing:-1;}
	.st7{fill:none;stroke:#1C3761;stroke-width:4;}
	.st8{fill:none;stroke:#79C9D1;stroke-width:4;}
	.st9{fill:#79C9D1;}
	.st10{fill:none;stroke:#1C3761;stroke-width:0.5;stroke-dasharray:1,1;}
	.st11{font-family:'ArialMT';}
	.st12{font-size:8.24px;}
	.st13{font-size:11.68px;}
	.st14{enable-background:new    ;}
	.st15{fill:#79C8D1;}
	.st16{fill:#1D1D1B;}
	.st17{fill:#878787;}
	.st18{fill:none;stroke:#003366;stroke-width:3.16;stroke-linecap:round;}
</style>
<image style="overflow:visible;enable-background:new    ;" width="267" height="136" id="image" xlink:href="AE61E824.png"  transform="matrix(0.15 0 0 0.14 632.73 391.74)">
</image>
<rect x="5.1" class="st0" width="696" height="644.5"/>
<g id="facets">
	<line class="st1" x1="76.9" y1="529.2" x2="640.9" y2="529.2"/>
	<text transform="matrix(1 0 0 1 50.42 532.34)" class="st2 st3 st4">0%</text>
	<line class="st1" x1="76.9" y1="454.7" x2="640.9" y2="454.7"/>
	<text transform="matrix(1 0 0 1 45.64 457.9)" class="st2 st3 st4">10%</text>
	<line class="st1" x1="77.3" y1="380.4" x2="641.3" y2="380.4"/>
	<text transform="matrix(1 0 0 1 45.64 383.45)" class="st2 st3 st4">20%</text>
	<line class="st1" x1="76.9" y1="305.8" x2="640.9" y2="305.8"/>
	<text transform="matrix(1 0 0 1 45.64 309.01)" class="st2 st3 st4">30%</text>
	<line class="st1" x1="76.9" y1="231.4" x2="640.9" y2="231.4"/>
	<text transform="matrix(1 0 0 1 45.64 234.5701)" class="st2 st3 st4">40%</text>
	<line class="st1" x1="76.9" y1="156.9" x2="640.9" y2="156.9"/>
	<text transform="matrix(1 0 0 1 45.64 160.13)" class="st2 st3 st4">50%</text>
	<path class="st5" d="M77.3,529.2h564"/>
	<line class="st5" x1="77.3" y1="528.8" x2="77.3" y2="532.9"/>
	<text transform="matrix(1 0 0 1 68.09 548.05)" class="st2 st3 st4">Gen.</text>
	<line class="st5" x1="128.5" y1="528.8" x2="128.5" y2="532.9"/>
	<text transform="matrix(1 0 0 1 120.03 548.05)" class="st2 st3 st4">F</text>
	<text transform="matrix(1 0 0 1 124.65 548.05)" class="st2 st3 st4">e</text>
	<text transform="matrix(1 0 0 1 129.42 548.05)" class="st2 st3 st4">b</text>
	<text transform="matrix(1 0 0 1 134.64 548.05)" class="st2 st3 st4">.</text>
	<line class="st5" x1="179.8" y1="528.8" x2="179.8" y2="532.9"/>
	<text transform="matrix(1 0 0 1 169.95 548.05)" class="st2 st3 st4">Ma</text>
	<text transform="matrix(1 0 0 1 181.79 548.05)" class="st2 st3 st4">r</text>
	<text transform="matrix(1 0 0 1 184.58 548.05)" class="st2 st3 st4 st6">.</text>
	<text transform="matrix(1 0 0 1 185.64 548.05)" class="st2 st3 st4">*</text>
	<line class="st5" x1="231.1" y1="528.8" x2="231.1" y2="532.9"/>
	<text transform="matrix(1 0 0 1 223.21 548.05)" class="st2 st3 st4">Ab</text>
	<text transform="matrix(1 0 0 1 233.76 548.05)" class="st2 st3 st4">r</text>
	<text transform="matrix(1 0 0 1 236.55 548.05)" class="st2 st3 st4">.</text>
	<line class="st5" x1="282.3" y1="528.8" x2="282.3" y2="532.9"/>
	<text transform="matrix(1 0 0 1 272.69 548.05)" class="st2 st3 st4">Mai</text>
	<text transform="matrix(1 0 0 1 286.89 548.05)" class="st2 st3 st4 st6">.</text>
	<text transform="matrix(1 0 0 1 287.96 548.05)" class="st2 st3 st4">*</text>
	<line class="st5" x1="333.6" y1="528.8" x2="333.6" y2="532.9"/>
	<text transform="matrix(1 0 0 1 324.86 548.05)" class="st2 st3 st4">Jun.</text>
	<line class="st5" x1="384.9" y1="528.8" x2="384.9" y2="532.9"/>
	<text transform="matrix(1 0 0 1 377.53 548.05)" class="st2 st3 st4">Jul.</text>
	<line class="st5" x1="436.1" y1="528.8" x2="436.1" y2="532.9"/>
	<text transform="matrix(1 0 0 1 427.42 548.05)" class="st2 st3 st4">A</text>
	<text transform="matrix(1 0 0 1 432.65 548.05)" class="st2 st3 st4">g</text>
	<text transform="matrix(1 0 0 1 437.36 548.05)" class="st2 st3 st4">o</text>
	<text transform="matrix(1 0 0 1 442.48 548.05)" class="st2 st3 st4">.</text>
	<line class="st5" x1="487.4" y1="528.8" x2="487.4" y2="532.9"/>
	<text transform="matrix(1 0 0 1 479.65 548.05)" class="st2 st3 st4">S</text>
	<text transform="matrix(1 0 0 1 484.79 548.05)" class="st2 st3 st4">e</text>
	<text transform="matrix(1 0 0 1 489.46 548.05)" class="st2 st3 st4">t</text>
	<text transform="matrix(1 0 0 1 492.78 548.05)" class="st2 st3 st4">.</text>
	<line class="st5" x1="538.7" y1="528.8" x2="538.7" y2="532.9"/>
	<text transform="matrix(1 0 0 1 530.49 548.05)" class="st2 st3 st4">O</text>
	<text transform="matrix(1 0 0 1 536.88 548.05)" class="st2 st3 st4">c</text>
	<text transform="matrix(1 0 0 1 541.16 548.05)" class="st2 st3 st4">t</text>
	<text transform="matrix(1 0 0 1 544.48 548.05)" class="st2 st3 st4">.</text>
	<line class="st5" x1="590" y1="528.8" x2="590" y2="532.9"/>
	<text transform="matrix(1 0 0 1 580.98 548.05)" class="st2 st3 st4">N</text>
	<text transform="matrix(1 0 0 1 587.2 548.05)" class="st2 st3 st4">o</text>
	<text transform="matrix(1 0 0 1 592.38 548.05)" class="st2 st3 st4">v</text>
	<text transform="matrix(1 0 0 1 596.53 548.05)" class="st2 st3 st4">.</text>
	<line class="st5" x1="641.2" y1="528.8" x2="641.2" y2="532.9"/>
	<text transform="matrix(1 0 0 1 632.6699 548.05)" class="st2 st3 st4">Des.</text>
</g>
<path class="st7" d="M74.9,450.7c17.1-6.7,34.1-13.4,51.3-13.4"/>
<path class="st8" d="M74.9,467c17.1-14.5,34.1-28.9,51.3-38s34.2-8.4,51.3-16.4s34.2-31.3,51.3-31.3s34.2,20.1,51.3,20.1
	s34.2-33.4,51.3-50.6s34.2-21.3,51.3-52.9s34.2-136.2,51.3-136.2s34.2,209.8,51.3,225.6s34.2,23.8,51.3,23.8s34.2-16.1,51.3-26.8
	s34.2-23.9,51.3-37.2"/>
<path id="point-0-0" class="st2" d="M74.2,450.7c0-0.4,0.3-0.7,0.6-0.7c0,0,0,0,0,0l0,0c0.4,0,0.7,0.3,0.7,0.7l0,0l0,0
	c0,0.4-0.3,0.7-0.7,0.7c0,0,0,0,0,0l0,0C74.5,451.3,74.2,451.1,74.2,450.7C74.2,450.7,74.2,450.7,74.2,450.7L74.2,450.7L74.2,450.7z
	"/>
<path id="point-0-1" class="st2" d="M125.4,437.3c0-0.4,0.3-0.7,0.7-0.7s0.7,0.3,0.7,0.7c0,0.4-0.3,0.7-0.7,0.7
	S125.4,437.6,125.4,437.3L125.4,437.3z"/>
<path id="point-0-3" class="st2" d="M228,528.8c0-0.4,0.3-0.7,0.7-0.7s0.7,0.3,0.7,0.7c0,0.4-0.3,0.7-0.7,0.7S228,529.2,228,528.8
	L228,528.8z"/>
<path id="point-0-5" class="st2" d="M330.5,383.7c0-0.4,0.3-0.7,0.7-0.7s0.7,0.3,0.7,0.7s-0.3,0.7-0.7,0.7S330.5,384,330.5,383.7
	L330.5,383.7z"/>
<path id="point-1-0" class="st9" d="M74.2,467c0-0.4,0.3-0.7,0.7-0.7c0,0,0,0,0,0l0,0c0.4,0,0.7,0.3,0.7,0.6c0,0,0,0,0,0l0,0
	c0,0.4-0.3,0.7-0.7,0.7c0,0,0,0,0,0l0,0C74.5,467.7,74.2,467.4,74.2,467C74.2,467,74.2,467,74.2,467L74.2,467L74.2,467z"/>
<path id="point-1-1" class="st9" d="M126.1,428.8c0.2,0,0.3,0.1,0.3,0.3s-0.1,0.3-0.3,0.3s-0.3-0.1-0.3-0.3S126,428.8,126.1,428.8
	L126.1,428.8L126.1,428.8"/>
<path id="point-1-2" class="st9" d="M177.1,412.7c0-0.2,0.1-0.3,0.3-0.3c0.2,0,0.3,0.1,0.3,0.3c0,0.2-0.1,0.3-0.3,0.3
	S177.1,412.9,177.1,412.7L177.1,412.7z"/>
<path id="point-1-3" class="st9" d="M228.4,381.4c0-0.2,0.1-0.3,0.3-0.3c0.2,0,0.3,0.1,0.3,0.3c0,0.2-0.1,0.3-0.3,0.3
	S228.4,381.6,228.4,381.4L228.4,381.4z"/>
<path id="point-1-5" class="st9" d="M330.5,350.9c0-0.4,0.3-0.7,0.7-0.7s0.7,0.3,0.7,0.7s-0.3,0.7-0.7,0.7S330.5,351.3,330.5,350.9
	L330.5,350.9z"/>
<path id="point-1-6" class="st9" d="M381.8,298c0-0.4,0.3-0.7,0.6-0.7c0,0,0,0,0,0l0,0c0.4,0,0.7,0.3,0.7,0.7s-0.3,0.7-0.7,0.7l0,0
	l0,0C382.1,298.7,381.8,298.5,381.8,298C381.8,298.1,381.8,298.1,381.8,298L381.8,298L381.8,298z"/>
<path id="point-1-7" class="st9" d="M433.1,161.8c0-0.4,0.3-0.7,0.6-0.7c0,0,0,0,0,0l0,0c0.4,0,0.7,0.3,0.7,0.7s-0.3,0.7-0.7,0.7
	l0,0l0,0C433.3,162.5,433,162.2,433.1,161.8C433,161.9,433,161.9,433.1,161.8L433.1,161.8L433.1,161.8z"/>
<path id="point-1-8" class="st9" d="M484.3,387.4c0-0.4,0.3-0.7,0.7-0.7s0.7,0.3,0.7,0.7s-0.3,0.7-0.7,0.7S484.3,387.8,484.3,387.4
	L484.3,387.4z"/>
<path id="point-1-9" class="st9" d="M535.6,411.2c0-0.4,0.3-0.7,0.7-0.7s0.7,0.3,0.7,0.7l0,0l0,0c0,0.4-0.3,0.7-0.7,0.7
	S535.6,411.6,535.6,411.2z"/>
<path id="point-1-10" class="st9" d="M586.9,384.4c0-0.4,0.3-0.7,0.7-0.7s0.7,0.3,0.7,0.7s-0.3,0.7-0.7,0.7S586.9,384.8,586.9,384.4
	L586.9,384.4z"/>
<path id="point-1-11" class="st9" d="M634.7,347.2c0-2.3,1.8-4.1,4.1-4.1s4.1,1.8,4.1,4.1c0,2.3-1.8,4.1-4.1,4.1l0,0l0,0
	C636.6,351.3,634.7,349.5,634.7,347.2L634.7,347.2L634.7,347.2L634.7,347.2z"/>
<line class="st10" x1="74.9" y1="368" x2="638.8" y2="368"/>
<text transform="matrix(1 0 0 1 533.19 363.91)" class="st2 st11 st12">Mitjana 2019: 21,6%</text>
<path id="point-0-6-2" class="st2" d="M321.8,386.1c0-1.7,1.4-3.1,3.1-3.1c1.7,0,3.1,1.4,3.1,3.1c0,1.7-1.4,3.1-3.1,3.1l0,0
	C323.2,389.2,321.8,387.8,321.8,386.1L321.8,386.1L321.8,386.1L321.8,386.1z"/>
<path id="point-0-6-3" class="st9" d="M328.4,350.9c0-1.7,1.4-3.1,3.1-3.1c1.7,0,3.1,1.4,3.1,3.1c0,1.7-1.4,3.1-3.1,3.1
	C329.8,354,328.4,352.6,328.4,350.9C328.4,350.9,328.4,350.9,328.4,350.9z"/>
<path id="point-0-6-4" class="st9" d="M278.8,401.6c0-1.7,1.4-3.1,3.1-3.1s3.1,1.4,3.1,3.1c0,1.7-1.4,3.1-3.1,3.1l0,0l0,0
	C280.2,404.7,278.8,403.3,278.8,401.6z"/>
<path id="point-0-6-5" class="st9" d="M225.9,381.8c0-1.7,1.4-3.1,3.1-3.1s3.1,1.4,3.1,3.1c0,1.7-1.4,3.1-3.1,3.1l0,0l0,0
	C227.3,384.9,225.9,383.5,225.9,381.8z"/>
<path id="point-0-6-6" class="st9" d="M174,413c0-1.7,1.4-3.1,3.1-3.1s3.1,1.4,3.1,3.1c0,1.7-1.4,3.1-3.1,3.1l0,0l0,0
	C175.4,416.1,174,414.7,174,413z"/>
<path id="point-0-6-7" class="st9" d="M123.3,428.8c0-1.7,1.4-3.1,3.1-3.1s3.1,1.4,3.1,3.1c0,1.7-1.4,3.1-3.1,3.1h0l0,0
	C124.7,431.9,123.3,430.5,123.3,428.8z"/>
<path id="point-0-6-8" class="st9" d="M379.4,298c0-1.7,1.4-3.1,3.1-3.1c1.7,0,3.1,1.4,3.1,3.1c0,1.7-1.4,3.1-3.1,3.1l0,0
	C380.8,301.2,379.4,299.8,379.4,298C379.4,298.1,379.4,298.1,379.4,298L379.4,298L379.4,298z"/>
<path id="point-0-6-8-2" class="st2" d="M377.5,263.6c0-1.7,1.4-3.1,3.1-3.1c1.7,0,3.1,1.4,3.1,3.1c0,1.7-1.4,3.1-3.1,3.1l0,0
	C378.9,266.7,377.5,265.4,377.5,263.6C377.5,263.7,377.5,263.7,377.5,263.6L377.5,263.6L377.5,263.6z"/>
<path id="point-0-6-8-2-2" class="st2" d="M481.2,403.4c0-1.7,1.4-3.1,3.1-3.1c1.7,0,3.1,1.4,3.1,3.1c0,1.7-1.4,3.1-3.1,3.1l0,0
	C482.6,406.5,481.2,405.1,481.2,403.4C481.2,403.4,481.2,403.4,481.2,403.4L481.2,403.4L481.2,403.4z"/>
<path id="point-0-6-8-2-3" class="st2" d="M428.2,140.4c0-1.7,1.4-3.1,3.1-3.1c1.7,0,3.1,1.4,3.1,3.1c0,1.7-1.4,3.1-3.1,3.1l0,0
	C429.6,143.5,428.2,142.1,428.2,140.4C428.2,140.4,428.2,140.4,428.2,140.4L428.2,140.4L428.2,140.4z"/>
<path id="point-0-6-9" class="st9" d="M481.9,387.4c0-1.7,1.4-3.1,3.1-3.1s3.1,1.4,3.1,3.1c0,1.7-1.4,3.1-3.1,3.1l0,0l0,0
	C483.3,390.5,481.9,389.1,481.9,387.4z"/>
<path id="point-0-6-10" class="st9" d="M533.2,411.2c0-1.7,1.4-3.1,3.1-3.1c1.7,0,3.1,1.4,3.1,3.1c0,1.7-1.4,3.1-3.1,3.1
	S533.2,412.9,533.2,411.2L533.2,411.2z"/>
<path id="point-0-6-11" class="st9" d="M584.5,384.4c0-1.7,1.4-3.1,3.1-3.1c1.7,0,3.1,1.4,3.1,3.1c0,1.7-1.4,3.1-3.1,3.1
	S584.5,386.1,584.5,384.4L584.5,384.4z"/>
<path id="point-0-6-12" class="st9" d="M430.6,162c0-1.7,1.4-3.1,3.1-3.1c1.7,0,3.1,1.4,3.1,3.1c0,1.7-1.4,3.1-3.1,3.1l0,0l0,0
	C432,165.1,430.6,163.7,430.6,162z"/>
<path id="point-0-6-13" class="st2" d="M123.3,437.3c0-1.7,1.4-3.1,3.1-3.1s3.1,1.4,3.1,3.1c0,1.7-1.4,3.1-3.1,3.1h0l0,0
	C124.7,440.4,123.3,439,123.3,437.3z"/>
<path id="point-0-6-14" class="st2" d="M224.6,529.2c0-2.3,1.9-4.1,4.1-4.1c2.3,0,4.1,1.9,4.1,4.1c0,2.3-1.8,4.1-4.1,4.1
	C226.4,533.3,224.6,531.5,224.6,529.2C224.5,529.2,224.5,529.2,224.6,529.2z"/>
<text transform="matrix(1 0 0 1 70.35 440.15)" class="st2 st3 st13">10,5</text>
<text transform="matrix(1 0 0 1 135.29 440.25)" class="st2 st3 st13">12,3</text>
<path id="point-0-6-15" class="st2" d="M70.7,450.5c0-2.3,1.8-4.1,4.1-4.1s4.1,1.8,4.1,4.1c0,2.3-1.8,4.1-4.1,4.1l0,0l0,0
	C72.6,454.6,70.8,452.8,70.7,450.5z"/>
<path id="point-0-6-16" class="st9" d="M70.7,467c0-2.3,1.9-4.1,4.1-4.1s4.1,1.9,4.1,4.1c0,2.3-1.8,4.1-4.1,4.1
	C72.6,471.1,70.7,469.3,70.7,467C70.7,467,70.7,467,70.7,467z"/>
<text transform="matrix(1 0 0 1 221.17 518.35)" class="st2 st3 st13">0,0</text>
<text transform="matrix(1 0 0 1 322.98 398.0601)" class="st2 st3 st13">19,5</text>
<g>
	<text transform="matrix(1 0 0 1 338.82 270.41)" class="st2 st3 st13">35,1    </text>
</g>
<g>
	<g class="st14">
		<path class="st2" d="M282.5,33h-3.9v-1.4h9.6V33h-4v11.5h-1.7V33z"/>
		<path class="st2" d="M297.3,42c0,1,0,1.8,0.1,2.5h-1.5l-0.1-1.5h0c-0.4,0.7-1.4,1.7-3.1,1.7c-1.5,0-3.2-0.8-3.2-4.1v-5.4h1.7v5.2
			c0,1.8,0.5,3,2.1,3c1.1,0,1.9-0.8,2.2-1.5c0.1-0.3,0.2-0.6,0.2-0.9v-5.7h1.7V42z"/>
		<path class="st2" d="M300.1,38.1c0-1.1,0-2-0.1-2.9h1.5l0.1,1.8h0.1c0.4-1.3,1.4-2,2.6-2c0.2,0,0.3,0,0.5,0.1v1.6
			c-0.2,0-0.3-0.1-0.6-0.1c-1.2,0-2,0.9-2.3,2.2c0,0.2-0.1,0.5-0.1,0.8v5h-1.7V38.1z"/>
		<path class="st2" d="M308.3,32.6c0,0.6-0.4,1-1.1,1c-0.6,0-1-0.5-1-1c0-0.6,0.4-1.1,1.1-1.1C307.9,31.5,308.3,32,308.3,32.6z
			 M306.4,44.5v-9.3h1.7v9.3H306.4z"/>
		<path class="st2" d="M310.7,42.8c0.5,0.3,1.4,0.7,2.2,0.7c1.2,0,1.8-0.6,1.8-1.4c0-0.8-0.5-1.3-1.7-1.7c-1.7-0.6-2.5-1.5-2.5-2.6
			c0-1.5,1.2-2.7,3.2-2.7c0.9,0,1.8,0.3,2.3,0.6l-0.4,1.2c-0.4-0.2-1-0.5-1.9-0.5c-1,0-1.6,0.6-1.6,1.3c0,0.8,0.6,1.1,1.8,1.6
			c1.6,0.6,2.4,1.4,2.4,2.8c0,1.6-1.3,2.8-3.5,2.8c-1,0-2-0.3-2.6-0.6L310.7,42.8z"/>
		<path class="st2" d="M318.5,37.7c0-1,0-1.7-0.1-2.5h1.5l0.1,1.5h0.1c0.5-0.9,1.4-1.7,2.9-1.7c1.3,0,2.2,0.8,2.6,1.9h0
			c0.3-0.5,0.7-0.9,1-1.2c0.6-0.4,1.2-0.7,2.1-0.7c1.2,0,3.1,0.8,3.1,4v5.5h-1.7v-5.3c0-1.8-0.7-2.9-2-2.9c-1,0-1.7,0.7-2,1.5
			c-0.1,0.2-0.1,0.5-0.1,0.8v5.7h-1.7v-5.6c0-1.5-0.7-2.6-1.9-2.6c-1.1,0-1.8,0.8-2.1,1.7c-0.1,0.3-0.1,0.5-0.1,0.8v5.6h-1.7V37.7z"
			/>
		<path class="st2" d="M335.5,40.2c0,2.3,1.5,3.2,3.2,3.2c1.2,0,1.9-0.2,2.6-0.5l0.3,1.2c-0.6,0.3-1.6,0.6-3.1,0.6
			c-2.9,0-4.6-1.9-4.6-4.7c0-2.8,1.7-5,4.4-5c3,0,3.8,2.7,3.8,4.4c0,0.3,0,0.6-0.1,0.8H335.5z M340.4,39c0-1.1-0.4-2.7-2.3-2.7
			c-1.7,0-2.5,1.6-2.6,2.7H340.4z"/>
		<path class="st2" d="M353.8,31.7c0.8-0.2,2.1-0.3,3.2-0.3c1.8,0,2.9,0.3,3.7,1.1c0.7,0.6,1,1.5,1,2.5c0,1.7-1.1,2.8-2.4,3.3v0.1
			c1,0.3,1.6,1.3,1.9,2.6c0.4,1.8,0.7,3.1,1,3.6h-1.7c-0.2-0.4-0.5-1.5-0.9-3.1c-0.4-1.8-1.1-2.5-2.6-2.5h-1.6v5.6h-1.7V31.7z
			 M355.5,37.6h1.7c1.8,0,2.9-1,2.9-2.5c0-1.7-1.2-2.4-3-2.4c-0.8,0-1.4,0.1-1.7,0.2V37.6z"/>
		<path class="st2" d="M371.9,42c0,1,0,1.8,0.1,2.5h-1.5l-0.1-1.5h0c-0.4,0.7-1.4,1.7-3.1,1.7c-1.5,0-3.2-0.8-3.2-4.1v-5.4h1.7v5.2
			c0,1.8,0.5,3,2.1,3c1.1,0,1.9-0.8,2.2-1.5c0.1-0.3,0.2-0.6,0.2-0.9v-5.7h1.7V42z"/>
		<path class="st2" d="M374.7,38.1c0-1.1,0-2-0.1-2.9h1.5l0.1,1.8h0.1c0.4-1.3,1.4-2,2.6-2c0.2,0,0.3,0,0.5,0.1v1.6
			c-0.2,0-0.3-0.1-0.6-0.1c-1.2,0-2,0.9-2.3,2.2c0,0.2-0.1,0.5-0.1,0.8v5h-1.7V38.1z"/>
		<path class="st2" d="M386.2,44.5l-0.1-1.2H386c-0.5,0.7-1.5,1.4-2.8,1.4c-1.9,0-2.8-1.3-2.8-2.7c0-2.2,2-3.5,5.6-3.5v-0.2
			c0-0.8-0.2-2.2-2.1-2.2c-0.9,0-1.8,0.3-2.4,0.7l-0.4-1.1c0.8-0.5,1.9-0.8,3.1-0.8c2.8,0,3.5,1.9,3.5,3.8v3.5c0,0.8,0,1.6,0.2,2.2
			H386.2z M385.9,39.8c-1.8,0-3.9,0.3-3.9,2.1c0,1.1,0.7,1.6,1.6,1.6c1.2,0,2-0.8,2.3-1.6c0.1-0.2,0.1-0.4,0.1-0.5V39.8z"/>
		<path class="st2" d="M390.3,30.9h1.7v13.7h-1.7V30.9z"/>
	</g>
</g>
<g>
	<g class="st14">
		<path class="st2" d="M234.4,65c0,3.2-1.9,4.9-4.3,4.9c-2.4,0-4.2-1.9-4.2-4.7c0-2.9,1.8-4.9,4.3-4.9
			C232.8,60.3,234.4,62.3,234.4,65z M227.2,65.2c0,2,1.1,3.7,3,3.7c1.9,0,3-1.7,3-3.8c0-1.8-1-3.8-3-3.8
			C228.2,61.3,227.2,63.1,227.2,65.2z"/>
		<path class="st2" d="M240.7,69.5c-0.3,0.2-1,0.4-1.9,0.4c-2,0-3.3-1.4-3.3-3.4c0-2,1.4-3.5,3.6-3.5c0.7,0,1.3,0.2,1.7,0.3
			l-0.3,0.9c-0.3-0.2-0.7-0.3-1.4-0.3c-1.5,0-2.3,1.1-2.3,2.5c0,1.5,1,2.5,2.3,2.5c0.7,0,1.1-0.2,1.5-0.3L240.7,69.5z"/>
		<path class="st2" d="M247.6,67.9c0,0.7,0,1.3,0.1,1.8h-1.1l-0.1-1.1h0c-0.3,0.5-1,1.2-2.2,1.2c-1,0-2.3-0.6-2.3-2.9v-3.9h1.2v3.7
			c0,1.3,0.4,2.1,1.5,2.1c0.8,0,1.4-0.6,1.6-1.1c0.1-0.2,0.1-0.4,0.1-0.6v-4.1h1.2V67.9z"/>
		<path class="st2" d="M249.7,65.3c0-0.9,0-1.5-0.1-2.2h1.1l0.1,1.1h0c0.5-0.8,1.3-1.3,2.4-1.3c1.6,0,2.8,1.4,2.8,3.4
			c0,2.4-1.5,3.6-3,3.6c-0.9,0-1.6-0.4-2-1h0v3.6h-1.2V65.3z M250.9,67c0,0.2,0,0.3,0.1,0.5c0.2,0.8,0.9,1.4,1.8,1.4
			c1.3,0,2-1,2-2.6c0-1.3-0.7-2.5-2-2.5c-0.8,0-1.6,0.6-1.8,1.5c0,0.2-0.1,0.3-0.1,0.5V67z"/>
		<path class="st2" d="M261.2,69.8l-0.1-0.8h0c-0.4,0.5-1.1,1-2,1c-1.3,0-2-0.9-2-1.9c0-1.6,1.4-2.5,4-2.5v-0.1
			c0-0.5-0.2-1.5-1.5-1.5c-0.6,0-1.3,0.2-1.7,0.5l-0.3-0.8c0.5-0.4,1.3-0.6,2.2-0.6c2,0,2.5,1.4,2.5,2.7v2.5c0,0.6,0,1.1,0.1,1.6
			H261.2z M261,66.4c-1.3,0-2.8,0.2-2.8,1.5c0,0.8,0.5,1.2,1.1,1.2c0.9,0,1.4-0.5,1.6-1.1c0-0.1,0.1-0.3,0.1-0.4V66.4z"/>
		<path class="st2" d="M268.8,69.5c-0.3,0.2-1,0.4-1.9,0.4c-2,0-3.3-1.4-3.3-3.4c0-2,1.4-3.5,3.6-3.5c0.7,0,1.3,0.2,1.7,0.3
			l-0.3,0.9c-0.3-0.2-0.7-0.3-1.4-0.3c-1.5,0-2.3,1.1-2.3,2.5c0,1.5,1,2.5,2.3,2.5c0.7,0,1.1-0.2,1.5-0.3L268.8,69.5z"/>
		<path class="st2" d="M271.6,61.2c0,0.4-0.3,0.7-0.8,0.7c-0.4,0-0.7-0.3-0.7-0.7c0-0.4,0.3-0.8,0.8-0.8
			C271.3,60.5,271.6,60.8,271.6,61.2z M270.3,69.8v-6.6h1.2v6.6H270.3z"/>
		<path class="st2" d="M279.5,66.4c0,2.5-1.7,3.5-3.3,3.5c-1.8,0-3.2-1.3-3.2-3.4c0-2.2,1.5-3.5,3.3-3.5
			C278.2,63,279.5,64.3,279.5,66.4z M274.2,66.4c0,1.5,0.8,2.6,2,2.6c1.2,0,2-1.1,2-2.6c0-1.1-0.6-2.6-2-2.6
			C274.8,63.9,274.2,65.2,274.2,66.4z M278,60.2l-1.7,2h-0.9l1.2-2H278z"/>
		<path class="st2" d="M288.6,66.6c0,1.6,1.1,2.3,2.3,2.3c0.9,0,1.4-0.2,1.8-0.3l0.2,0.9c-0.4,0.2-1.2,0.4-2.2,0.4
			c-2,0-3.3-1.3-3.3-3.4s1.2-3.6,3.1-3.6c2.2,0,2.7,1.9,2.7,3.1c0,0.2,0,0.4,0,0.6H288.6z M292.1,65.8c0-0.8-0.3-2-1.7-2
			c-1.2,0-1.8,1.1-1.9,2H292.1z"/>
		<path class="st2" d="M294.8,64.9c0-0.7,0-1.3-0.1-1.8h1.1l0.1,1.1h0c0.3-0.6,1.1-1.3,2.2-1.3c0.9,0,2.3,0.5,2.3,2.8v4h-1.2v-3.8
			c0-1.1-0.4-2-1.5-2c-0.8,0-1.4,0.6-1.6,1.2c-0.1,0.2-0.1,0.4-0.1,0.6v4h-1.2V64.9z"/>
		<path class="st2" d="M309.3,65.3c0-0.9,0-1.5-0.1-2.2h1.1l0.1,1.1h0c0.5-0.8,1.3-1.3,2.4-1.3c1.6,0,2.8,1.4,2.8,3.4
			c0,2.4-1.5,3.6-3,3.6c-0.9,0-1.6-0.4-2-1h0v3.6h-1.2V65.3z M310.5,67c0,0.2,0,0.3,0.1,0.5c0.2,0.8,0.9,1.4,1.8,1.4
			c1.3,0,2-1,2-2.6c0-1.3-0.7-2.5-2-2.5c-0.8,0-1.6,0.6-1.8,1.5c0,0.2-0.1,0.3-0.1,0.5V67z"/>
		<path class="st2" d="M317.7,66.6c0,1.6,1.1,2.3,2.3,2.3c0.9,0,1.4-0.2,1.8-0.3l0.2,0.9c-0.4,0.2-1.2,0.4-2.2,0.4
			c-2,0-3.3-1.3-3.3-3.4s1.2-3.6,3.1-3.6c2.2,0,2.7,1.9,2.7,3.1c0,0.2,0,0.4,0,0.6H317.7z M321.3,65.8c0-0.8-0.3-2-1.7-2
			c-1.2,0-1.8,1.1-1.9,2H321.3z"/>
		<path class="st2" d="M324,65.2c0-0.8,0-1.5-0.1-2.1h1.1l0,1.3h0.1c0.3-0.9,1-1.5,1.8-1.5c0.1,0,0.2,0,0.3,0v1.1
			c-0.1,0-0.2,0-0.4,0c-0.9,0-1.5,0.6-1.6,1.6c0,0.2-0.1,0.4-0.1,0.6v3.5H324V65.2z"/>
		<path class="st2" d="M333.2,69.5c-0.3,0.2-1,0.4-1.9,0.4c-2,0-3.3-1.4-3.3-3.4c0-2,1.4-3.5,3.6-3.5c0.7,0,1.3,0.2,1.7,0.3
			l-0.3,0.9c-0.3-0.2-0.7-0.3-1.4-0.3c-1.5,0-2.3,1.1-2.3,2.5c0,1.5,1,2.5,2.3,2.5c0.7,0,1.1-0.2,1.5-0.3L333.2,69.5z"/>
		<path class="st2" d="M335.3,66.6c0,1.6,1.1,2.3,2.3,2.3c0.9,0,1.4-0.2,1.8-0.3l0.2,0.9c-0.4,0.2-1.2,0.4-2.2,0.4
			c-2,0-3.3-1.3-3.3-3.4s1.2-3.6,3.1-3.6c2.2,0,2.7,1.9,2.7,3.1c0,0.2,0,0.4,0,0.6H335.3z M338.8,65.8c0-0.8-0.3-2-1.7-2
			c-1.2,0-1.8,1.1-1.9,2H338.8z"/>
		<path class="st2" d="M341.5,64.9c0-0.7,0-1.3-0.1-1.8h1.1l0.1,1.1h0c0.3-0.6,1.1-1.3,2.2-1.3c0.9,0,2.3,0.5,2.3,2.8v4h-1.2v-3.8
			c0-1.1-0.4-2-1.5-2c-0.8,0-1.4,0.6-1.6,1.2c-0.1,0.2-0.1,0.4-0.1,0.6v4h-1.2V64.9z"/>
		<path class="st2" d="M350.6,61.2v1.9h1.7V64h-1.7v3.6c0,0.8,0.2,1.3,0.9,1.3c0.3,0,0.5,0,0.7-0.1l0.1,0.9
			c-0.2,0.1-0.6,0.2-1.1,0.2c-0.6,0-1-0.2-1.3-0.5c-0.3-0.4-0.5-0.9-0.5-1.7V64h-1v-0.9h1v-1.6L350.6,61.2z"/>
		<path class="st2" d="M357.3,69.8l-0.1-0.8h0c-0.4,0.5-1.1,1-2,1c-1.3,0-2-0.9-2-1.9c0-1.6,1.4-2.5,4-2.5v-0.1
			c0-0.5-0.2-1.5-1.5-1.5c-0.6,0-1.3,0.2-1.7,0.5l-0.3-0.8c0.5-0.4,1.3-0.6,2.2-0.6c2,0,2.5,1.4,2.5,2.7v2.5c0,0.6,0,1.1,0.1,1.6
			H357.3z M357.2,66.4c-1.3,0-2.8,0.2-2.8,1.5c0,0.8,0.5,1.2,1.1,1.2c0.9,0,1.4-0.5,1.6-1.1c0-0.1,0.1-0.3,0.1-0.4V66.4z"/>
		<path class="st2" d="M361.7,61.2v1.9h1.7V64h-1.7v3.6c0,0.8,0.2,1.3,0.9,1.3c0.3,0,0.5,0,0.7-0.1l0.1,0.9
			c-0.2,0.1-0.6,0.2-1.1,0.2c-0.6,0-1-0.2-1.3-0.5c-0.3-0.4-0.5-0.9-0.5-1.7V64h-1v-0.9h1v-1.6L361.7,61.2z"/>
		<path class="st2" d="M370.6,63.1c0,0.5-0.1,1-0.1,1.8v3.9c0,1.5-0.3,2.5-0.9,3c-0.6,0.6-1.6,0.8-2.4,0.8c-0.8,0-1.7-0.2-2.2-0.5
			l0.3-0.9c0.4,0.3,1.1,0.5,2,0.5c1.2,0,2.1-0.6,2.1-2.3v-0.7h0c-0.4,0.6-1.1,1.1-2.1,1.1c-1.6,0-2.8-1.4-2.8-3.2
			c0-2.3,1.5-3.5,3-3.5c1.2,0,1.8,0.6,2.1,1.2h0l0.1-1H370.6z M369.3,65.7c0-0.2,0-0.4-0.1-0.5c-0.2-0.7-0.8-1.3-1.7-1.3
			c-1.2,0-2,1-2,2.5c0,1.3,0.7,2.4,2,2.4c0.7,0,1.4-0.5,1.7-1.2c0.1-0.2,0.1-0.4,0.1-0.6V65.7z"/>
		<path class="st2" d="M373.2,66.6c0,1.6,1.1,2.3,2.3,2.3c0.9,0,1.4-0.2,1.8-0.3l0.2,0.9c-0.4,0.2-1.2,0.4-2.2,0.4
			c-2,0-3.3-1.3-3.3-3.4s1.2-3.6,3.1-3.6c2.2,0,2.7,1.9,2.7,3.1c0,0.2,0,0.4,0,0.6H373.2z M376.7,65.8c0-0.8-0.3-2-1.7-2
			c-1.2,0-1.8,1.1-1.9,2H376.7z"/>
		<path class="st2" d="M386.3,65.3c0-0.9,0-1.5-0.1-2.2h1.1l0.1,1.1h0c0.5-0.8,1.3-1.3,2.4-1.3c1.6,0,2.8,1.4,2.8,3.4
			c0,2.4-1.5,3.6-3,3.6c-0.9,0-1.6-0.4-2-1h0v3.6h-1.2V65.3z M387.5,67c0,0.2,0,0.3,0.1,0.5c0.2,0.8,0.9,1.4,1.8,1.4
			c1.3,0,2-1,2-2.6c0-1.3-0.7-2.5-2-2.5c-0.8,0-1.6,0.6-1.8,1.5c0,0.2-0.1,0.3-0.1,0.5V67z"/>
		<path class="st2" d="M394.8,66.6c0,1.6,1.1,2.3,2.3,2.3c0.9,0,1.4-0.2,1.8-0.3l0.2,0.9c-0.4,0.2-1.2,0.4-2.2,0.4
			c-2,0-3.3-1.3-3.3-3.4s1.2-3.6,3.1-3.6c2.2,0,2.7,1.9,2.7,3.1c0,0.2,0,0.4,0,0.6H394.8z M398.3,65.8c0-0.8-0.3-2-1.7-2
			c-1.2,0-1.8,1.1-1.9,2H398.3z"/>
		<path class="st2" d="M401,65.2c0-0.8,0-1.5-0.1-2.1h1.1l0,1.3h0.1c0.3-0.9,1-1.5,1.8-1.5c0.1,0,0.2,0,0.3,0v1.1
			c-0.1,0-0.2,0-0.4,0c-0.9,0-1.5,0.6-1.6,1.6c0,0.2-0.1,0.4-0.1,0.6v3.5H401V65.2z"/>
		<path class="st2" d="M412.3,65.3c0-0.9,0-1.5-0.1-2.2h1.1l0.1,1.1h0c0.5-0.8,1.3-1.3,2.4-1.3c1.6,0,2.8,1.4,2.8,3.4
			c0,2.4-1.5,3.6-3,3.6c-0.9,0-1.6-0.4-2-1h0v3.6h-1.2V65.3z M413.5,67c0,0.2,0,0.3,0.1,0.5c0.2,0.8,0.9,1.4,1.8,1.4
			c1.3,0,2-1,2-2.6c0-1.3-0.7-2.5-2-2.5c-0.8,0-1.6,0.6-1.8,1.5c0,0.2-0.1,0.3-0.1,0.5V67z"/>
		<path class="st2" d="M420.2,60h1.2v9.8h-1.2V60z"/>
		<path class="st2" d="M427.1,69.8l-0.1-0.8h0c-0.4,0.5-1.1,1-2,1c-1.3,0-2-0.9-2-1.9c0-1.6,1.4-2.5,4-2.5v-0.1
			c0-0.5-0.2-1.5-1.5-1.5c-0.6,0-1.3,0.2-1.7,0.5l-0.3-0.8c0.5-0.4,1.3-0.6,2.2-0.6c2,0,2.5,1.4,2.5,2.7v2.5c0,0.6,0,1.1,0.1,1.6
			H427.1z M426.9,66.4c-1.3,0-2.8,0.2-2.8,1.5c0,0.8,0.5,1.2,1.1,1.2c0.9,0,1.4-0.5,1.6-1.1c0-0.1,0.1-0.3,0.1-0.4V66.4z"/>
		<path class="st2" d="M434.8,69.5c-0.3,0.2-1,0.4-1.9,0.4c-2,0-3.3-1.4-3.3-3.4c0-2,1.4-3.5,3.6-3.5c0.7,0,1.3,0.2,1.7,0.3
			l-0.3,0.9c-0.3-0.2-0.7-0.3-1.4-0.3c-1.5,0-2.3,1.1-2.3,2.5c0,1.5,1,2.5,2.3,2.5c0.7,0,1.1-0.2,1.5-0.3L434.8,69.5z"/>
		<path class="st2" d="M436.8,66.6c0,1.6,1.1,2.3,2.3,2.3c0.9,0,1.4-0.2,1.8-0.3l0.2,0.9c-0.4,0.2-1.2,0.4-2.2,0.4
			c-2,0-3.3-1.3-3.3-3.4s1.2-3.6,3.1-3.6c2.2,0,2.7,1.9,2.7,3.1c0,0.2,0,0.4,0,0.6H436.8z M440.4,65.8c0-0.8-0.3-2-1.7-2
			c-1.2,0-1.8,1.1-1.9,2H440.4z"/>
		<path class="st2" d="M442.9,68.5c0.4,0.2,1,0.5,1.6,0.5c0.9,0,1.3-0.4,1.3-1c0-0.6-0.3-0.9-1.2-1.2c-1.2-0.4-1.8-1.1-1.8-1.9
			c0-1.1,0.9-2,2.3-2c0.7,0,1.3,0.2,1.6,0.4l-0.3,0.9c-0.3-0.2-0.7-0.4-1.4-0.4c-0.7,0-1.1,0.4-1.1,0.9c0,0.5,0.4,0.8,1.3,1.1
			c1.2,0.4,1.7,1,1.7,2c0,1.2-0.9,2-2.5,2c-0.7,0-1.4-0.2-1.9-0.5L442.9,68.5z"/>
		<path class="st2" d="M448.7,68.7c0.1-0.1,0.3-0.2,0.5-0.2s0.4,0.1,0.5,0.2s0.2,0.3,0.2,0.5c0,0.2-0.1,0.4-0.2,0.5
			c-0.1,0.1-0.3,0.2-0.5,0.2c-0.2,0-0.4-0.1-0.5-0.2c-0.1-0.2-0.2-0.3-0.2-0.5C448.5,69,448.5,68.8,448.7,68.7z"/>
	</g>
</g>
<path class="st2" d="M299.3,86.7h11.2c1.1,0,2,0.9,2,2v4c0,1.1-0.9,2-2,2h-11.2c-1.1,0-2-0.9-2-2v-4
	C297.3,87.6,298.2,86.7,299.3,86.7z"/>
<path class="st15" d="M355,86.7h11.2c1.1,0,2,0.9,2,2v4c0,1.1-0.9,2-2,2H355c-1.1,0-2-0.9-2-2v-4C353,87.6,353.9,86.7,355,86.7z"/>
<g>
	<g class="st14">
		<path class="st16" d="M375.5,93.7h-4.1v-0.7l0.9-0.8c0.6-0.5,1-1,1.3-1.3c0.3-0.3,0.5-0.7,0.6-1c0.1-0.3,0.2-0.7,0.2-1.2
			c0-0.4-0.1-0.8-0.3-1c-0.2-0.2-0.5-0.3-1-0.3c-0.2,0-0.4,0-0.5,0.1s-0.4,0.1-0.5,0.2l-0.2,0.8h-0.3v-1.3c0.6-0.1,1.1-0.2,1.6-0.2
			c0.7,0,1.3,0.2,1.7,0.5c0.4,0.3,0.6,0.7,0.6,1.3c0,0.4-0.1,0.7-0.2,1.1c-0.1,0.3-0.4,0.7-0.7,1s-0.8,0.8-1.5,1.4
			c-0.3,0.3-0.6,0.5-1,0.8h3.5V93.7z"/>
		<path class="st16" d="M380.9,90.3c0,2.3-0.7,3.5-2.2,3.5c-0.7,0-1.2-0.3-1.6-0.9c-0.4-0.6-0.5-1.5-0.5-2.6c0-1.1,0.2-2,0.5-2.6
			c0.4-0.6,0.9-0.9,1.7-0.9c0.7,0,1.3,0.3,1.6,0.9C380.7,88.3,380.9,89.1,380.9,90.3z M379.9,90.3c0-1.1-0.1-1.9-0.3-2.3
			c-0.2-0.5-0.5-0.7-1-0.7c-0.4,0-0.7,0.2-0.9,0.7c-0.2,0.4-0.3,1.2-0.3,2.4c0,1.1,0.1,1.9,0.3,2.4c0.2,0.5,0.5,0.7,0.9,0.7
			c0.4,0,0.8-0.2,1-0.7C379.8,92.1,379.9,91.4,379.9,90.3z"/>
		<path class="st16" d="M384.4,93.3l1.4,0.1v0.3h-3.6v-0.3l1.4-0.1v-5.5l-1.4,0.5V88l2-1.1h0.3V93.3z"/>
		<path class="st16" d="M386.7,89c0-0.7,0.2-1.2,0.6-1.6s0.9-0.6,1.6-0.6c0.8,0,1.3,0.3,1.7,0.8c0.4,0.6,0.5,1.4,0.5,2.6
			c0,1.1-0.2,2-0.7,2.6c-0.5,0.6-1.1,0.9-1.9,0.9c-0.5,0-1-0.1-1.5-0.2v-1.2h0.3l0.2,0.7c0.1,0,0.3,0.1,0.4,0.1s0.4,0.1,0.5,0.1
			c0.5,0,0.9-0.2,1.2-0.7s0.4-1.2,0.5-2.1c-0.5,0.3-1,0.4-1.6,0.4c-0.6,0-1.1-0.2-1.4-0.5C386.9,90.1,386.7,89.6,386.7,89z
			 M388.9,87.2c-0.8,0-1.3,0.6-1.3,1.8c0,0.5,0.1,0.9,0.3,1.1c0.2,0.2,0.5,0.4,0.9,0.4c0.4,0,0.9-0.1,1.3-0.3c0-1-0.1-1.8-0.3-2.3
			C389.7,87.5,389.4,87.2,388.9,87.2z"/>
	</g>
</g>
<g>
	<g class="st14">
		<path class="st16" d="M322,93.7h-4.1v-0.7l0.9-0.8c0.6-0.5,1-1,1.3-1.3c0.3-0.3,0.5-0.7,0.6-1c0.1-0.3,0.2-0.7,0.2-1.2
			c0-0.4-0.1-0.8-0.3-1c-0.2-0.2-0.5-0.3-1-0.3c-0.2,0-0.4,0-0.5,0.1c-0.2,0-0.4,0.1-0.5,0.2l-0.2,0.8h-0.3v-1.3
			c0.6-0.1,1.1-0.2,1.6-0.2c0.7,0,1.3,0.2,1.7,0.5c0.4,0.3,0.6,0.7,0.6,1.3c0,0.4-0.1,0.7-0.2,1.1c-0.1,0.3-0.4,0.7-0.7,1
			s-0.8,0.8-1.5,1.4c-0.3,0.3-0.6,0.5-1,0.8h3.5V93.7z"/>
		<path class="st16" d="M327.4,90.3c0,2.3-0.7,3.5-2.2,3.5c-0.7,0-1.2-0.3-1.6-0.9c-0.4-0.6-0.5-1.5-0.5-2.6c0-1.1,0.2-2,0.5-2.6
			c0.4-0.6,0.9-0.9,1.6-0.9c0.7,0,1.3,0.3,1.6,0.9C327.2,88.3,327.4,89.1,327.4,90.3z M326.4,90.3c0-1.1-0.1-1.9-0.3-2.3
			c-0.2-0.5-0.5-0.7-1-0.7c-0.4,0-0.7,0.2-0.9,0.7c-0.2,0.4-0.3,1.2-0.3,2.4c0,1.1,0.1,1.9,0.3,2.4c0.2,0.5,0.5,0.7,0.9,0.7
			c0.4,0,0.8-0.2,1-0.7C326.3,92.1,326.4,91.4,326.4,90.3z"/>
		<path class="st16" d="M332.3,93.7h-4.1v-0.7l0.9-0.8c0.6-0.5,1-1,1.3-1.3c0.3-0.3,0.5-0.7,0.6-1c0.1-0.3,0.2-0.7,0.2-1.2
			c0-0.4-0.1-0.8-0.3-1c-0.2-0.2-0.5-0.3-1-0.3c-0.2,0-0.4,0-0.5,0.1c-0.2,0-0.4,0.1-0.5,0.2l-0.2,0.8h-0.3v-1.3
			c0.6-0.1,1.1-0.2,1.6-0.2c0.7,0,1.3,0.2,1.7,0.5c0.4,0.3,0.6,0.7,0.6,1.3c0,0.4-0.1,0.7-0.2,1.1c-0.1,0.3-0.4,0.7-0.7,1
			s-0.8,0.8-1.5,1.4c-0.3,0.3-0.6,0.5-1,0.8h3.5V93.7z"/>
		<path class="st16" d="M337.7,90.3c0,2.3-0.7,3.5-2.2,3.5c-0.7,0-1.2-0.3-1.6-0.9c-0.4-0.6-0.5-1.5-0.5-2.6c0-1.1,0.2-2,0.5-2.6
			c0.4-0.6,0.9-0.9,1.6-0.9c0.7,0,1.3,0.3,1.6,0.9C337.5,88.3,337.7,89.1,337.7,90.3z M336.7,90.3c0-1.1-0.1-1.9-0.3-2.3
			c-0.2-0.5-0.5-0.7-1-0.7c-0.4,0-0.7,0.2-0.9,0.7c-0.2,0.4-0.3,1.2-0.3,2.4c0,1.1,0.1,1.9,0.3,2.4c0.2,0.5,0.5,0.7,0.9,0.7
			c0.4,0,0.8-0.2,1-0.7C336.6,92.1,336.7,91.4,336.7,90.3z"/>
	</g>
</g>
<g>
	<g>
		<g class="st14">
			<path class="st17" d="M44.8,618.3h3.7v0.8h-2.8v2.3h2.6v0.7h-2.6v3.1h-0.9V618.3z"/>
			<path class="st17" d="M54.3,622.7c0,1.8-1.3,2.6-2.5,2.6c-1.3,0-2.4-1-2.4-2.6c0-1.7,1.1-2.6,2.5-2.6
				C53.3,620.2,54.3,621.2,54.3,622.7z M50.4,622.8c0,1.1,0.6,1.9,1.5,1.9c0.9,0,1.5-0.8,1.5-1.9c0-0.8-0.4-1.9-1.5-1.9
				S50.4,621.8,50.4,622.8z"/>
			<path class="st17" d="M55.5,621.6c0-0.5,0-0.9,0-1.3h0.8l0.1,0.8h0c0.2-0.5,0.8-0.9,1.6-0.9c0.7,0,1.8,0.4,1.8,2.1v3h-0.9v-2.9
				c0-0.8-0.3-1.5-1.2-1.5c-0.6,0-1.1,0.4-1.2,0.9c0,0.1-0.1,0.3-0.1,0.4v3h-0.9V621.6z"/>
			<path class="st17" d="M62.3,618.8v1.4h1.3v0.7h-1.3v2.7c0,0.6,0.2,1,0.7,1c0.2,0,0.4,0,0.5-0.1l0,0.7c-0.2,0.1-0.5,0.1-0.8,0.1
				c-0.4,0-0.8-0.1-1-0.4c-0.3-0.3-0.4-0.7-0.4-1.3V621h-0.8v-0.7h0.8v-1.2L62.3,618.8z"/>
			<path class="st17" d="M64.9,624.4c0.1-0.1,0.2-0.2,0.4-0.2s0.3,0.1,0.4,0.2c0.1,0.1,0.2,0.2,0.2,0.4c0,0.2-0.1,0.3-0.2,0.4
				c-0.1,0.1-0.2,0.2-0.4,0.2c-0.1,0-0.3-0.1-0.4-0.2c-0.1-0.1-0.2-0.2-0.2-0.4C64.7,624.7,64.8,624.6,64.9,624.4z M65.3,620.5
				c0.2,0,0.3,0.1,0.4,0.2c0.1,0.1,0.2,0.2,0.2,0.4c0,0.1-0.1,0.3-0.2,0.4c-0.1,0.1-0.2,0.2-0.4,0.2s-0.3-0.1-0.4-0.2
				c-0.1-0.1-0.2-0.2-0.2-0.4c0-0.2,0.1-0.3,0.2-0.4C65,620.6,65.1,620.5,65.3,620.5z"/>
			<path class="st17" d="M76.2,622h-2.7v2.5h3v0.8h-3.9v-6.9h3.7v0.8h-2.9v2.2h2.7V622z"/>
			<path class="st17" d="M77.7,617.9h0.9v7.3h-0.9V617.9z"/>
			<path class="st17" d="M82.8,625.3l-0.1-0.6h0c-0.3,0.4-0.8,0.7-1.5,0.7c-1,0-1.5-0.7-1.5-1.4c0-1.2,1.1-1.9,3-1.9V622
				c0-0.4-0.1-1.2-1.1-1.2c-0.5,0-0.9,0.1-1.3,0.4l-0.2-0.6c0.4-0.3,1-0.4,1.6-0.4c1.5,0,1.9,1,1.9,2v1.9c0,0.4,0,0.9,0.1,1.2H82.8z
				 M82.7,622.7c-1,0-2.1,0.2-2.1,1.1c0,0.6,0.4,0.9,0.9,0.9c0.6,0,1.1-0.4,1.2-0.8c0-0.1,0.1-0.2,0.1-0.3V622.7z"/>
			<path class="st17" d="M85,625.3c0-0.3,0-0.8,0-1.3v-6h0.9v3.1h0c0.3-0.6,0.9-0.9,1.7-0.9c1.2,0,2.1,1,2.1,2.5
				c0,1.8-1.1,2.7-2.2,2.7c-0.7,0-1.3-0.3-1.7-0.9h0l0,0.8H85z M85.9,623.3c0,0.1,0,0.2,0,0.3c0.2,0.6,0.7,1.1,1.4,1.1
				c0.9,0,1.5-0.8,1.5-1.9c0-1-0.5-1.9-1.5-1.9c-0.6,0-1.2,0.4-1.4,1.1c0,0.1-0.1,0.2-0.1,0.4V623.3z"/>
			<path class="st17" d="M95.4,622.7c0,1.8-1.3,2.6-2.5,2.6c-1.3,0-2.4-1-2.4-2.6c0-1.7,1.1-2.6,2.5-2.6
				C94.5,620.2,95.4,621.2,95.4,622.7z M91.5,622.8c0,1.1,0.6,1.9,1.5,1.9c0.9,0,1.5-0.8,1.5-1.9c0-0.8-0.4-1.9-1.5-1.9
				S91.5,621.8,91.5,622.8z"/>
			<path class="st17" d="M96.6,621.8c0-0.6,0-1.1,0-1.6h0.8l0,1h0c0.2-0.7,0.8-1.1,1.4-1.1c0.1,0,0.2,0,0.3,0v0.9
				c-0.1,0-0.2,0-0.3,0c-0.6,0-1.1,0.5-1.2,1.2c0,0.1,0,0.3,0,0.4v2.7h-0.9V621.8z"/>
			<path class="st17" d="M102.7,625.3l-0.1-0.6h0c-0.3,0.4-0.8,0.7-1.5,0.7c-1,0-1.5-0.7-1.5-1.4c0-1.2,1.1-1.9,3-1.9V622
				c0-0.4-0.1-1.2-1.1-1.2c-0.5,0-0.9,0.1-1.3,0.4l-0.2-0.6c0.4-0.3,1-0.4,1.6-0.4c1.5,0,1.9,1,1.9,2v1.9c0,0.4,0,0.9,0.1,1.2H102.7
				z M102.6,622.7c-1,0-2.1,0.2-2.1,1.1c0,0.6,0.4,0.9,0.9,0.9c0.6,0,1.1-0.4,1.2-0.8c0-0.1,0.1-0.2,0.1-0.3V622.7z"/>
			<path class="st17" d="M108.5,625.1c-0.2,0.1-0.8,0.3-1.4,0.3c-1.5,0-2.5-1-2.5-2.5c0-1.5,1.1-2.6,2.7-2.6c0.5,0,1,0.1,1.3,0.3
				l-0.2,0.7c-0.2-0.1-0.6-0.2-1.1-0.2c-1.1,0-1.8,0.8-1.8,1.9c0,1.2,0.7,1.9,1.7,1.9c0.5,0,0.9-0.1,1.1-0.2L108.5,625.1z"/>
			<path class="st17" d="M110.5,618.9c0,0.3-0.2,0.6-0.6,0.6c-0.3,0-0.5-0.2-0.5-0.6c0-0.3,0.2-0.6,0.6-0.6
				C110.3,618.3,110.5,618.6,110.5,618.9z M109.5,625.3v-5h0.9v5H109.5z"/>
			<path class="st17" d="M116.4,622.7c0,1.8-1.3,2.6-2.5,2.6c-1.3,0-2.4-1-2.4-2.6c0-1.7,1.1-2.6,2.5-2.6
				C115.5,620.2,116.4,621.2,116.4,622.7z M112.5,622.8c0,1.1,0.6,1.9,1.5,1.9c0.9,0,1.5-0.8,1.5-1.9c0-0.8-0.4-1.9-1.5-1.9
				S112.5,621.8,112.5,622.8z M115.4,618.1l-1.3,1.5h-0.6l0.9-1.5H115.4z"/>
			<path class="st17" d="M122.7,621.9c0-0.6,0-1.2,0-1.6h0.8l0,0.9h0c0.4-0.6,1-1,1.8-1c1.2,0,2.1,1,2.1,2.5c0,1.8-1.1,2.7-2.3,2.7
				c-0.7,0-1.2-0.3-1.5-0.8h0v2.7h-0.9V621.9z M123.6,623.2c0,0.1,0,0.3,0,0.4c0.2,0.6,0.7,1.1,1.4,1.1c1,0,1.5-0.8,1.5-1.9
				c0-1-0.5-1.9-1.5-1.9c-0.6,0-1.2,0.4-1.4,1.1c0,0.1-0.1,0.2-0.1,0.4V623.2z"/>
			<path class="st17" d="M128.6,621.8c0-0.6,0-1.1,0-1.6h0.8l0,1h0c0.2-0.7,0.8-1.1,1.4-1.1c0.1,0,0.2,0,0.3,0v0.9
				c-0.1,0-0.2,0-0.3,0c-0.6,0-1.1,0.5-1.2,1.2c0,0.1,0,0.3,0,0.4v2.7h-0.9V621.8z"/>
			<path class="st17" d="M136.5,622.7c0,1.8-1.3,2.6-2.5,2.6c-1.3,0-2.4-1-2.4-2.6c0-1.7,1.1-2.6,2.5-2.6
				C135.5,620.2,136.5,621.2,136.5,622.7z M132.5,622.8c0,1.1,0.6,1.9,1.5,1.9c0.9,0,1.5-0.8,1.5-1.9c0-0.8-0.4-1.9-1.5-1.9
				S132.5,621.8,132.5,622.8z M133.7,618.1l0.9,1.5H134l-1.3-1.5H133.7z"/>
			<path class="st17" d="M137.6,621.9c0-0.6,0-1.2,0-1.6h0.8l0,0.9h0c0.4-0.6,1-1,1.8-1c1.2,0,2.1,1,2.1,2.5c0,1.8-1.1,2.7-2.3,2.7
				c-0.7,0-1.2-0.3-1.5-0.8h0v2.7h-0.9V621.9z M138.5,623.2c0,0.1,0,0.3,0,0.4c0.2,0.6,0.7,1.1,1.4,1.1c1,0,1.5-0.8,1.5-1.9
				c0-1-0.5-1.9-1.5-1.9c-0.6,0-1.2,0.4-1.4,1.1c0,0.1-0.1,0.2-0.1,0.4V623.2z"/>
			<path class="st17" d="M144.5,618.9c0,0.3-0.2,0.6-0.6,0.6c-0.3,0-0.5-0.2-0.5-0.6c0-0.3,0.2-0.6,0.6-0.6
				C144.3,618.3,144.5,618.6,144.5,618.9z M143.5,625.3v-5h0.9v5H143.5z"/>
			<path class="st17" d="M148.6,625.3l-0.1-0.6h0c-0.3,0.4-0.8,0.7-1.5,0.7c-1,0-1.5-0.7-1.5-1.4c0-1.2,1.1-1.9,3-1.9V622
				c0-0.4-0.1-1.2-1.1-1.2c-0.5,0-0.9,0.1-1.3,0.4l-0.2-0.6c0.4-0.3,1-0.4,1.6-0.4c1.5,0,1.9,1,1.9,2v1.9c0,0.4,0,0.9,0.1,1.2H148.6
				z M148.5,622.7c-1,0-2.1,0.2-2.1,1.1c0,0.6,0.4,0.9,0.9,0.9c0.6,0,1.1-0.4,1.2-0.8c0-0.1,0.1-0.2,0.1-0.3V622.7z"/>
			<path class="st17" d="M160.3,617.9v6c0,0.4,0,0.9,0,1.3h-0.8l0-0.9h0c-0.3,0.6-0.9,1-1.7,1c-1.2,0-2.1-1-2.1-2.5
				c0-1.7,1-2.7,2.2-2.7c0.8,0,1.3,0.4,1.5,0.8h0v-3H160.3z M159.4,622.3c0-0.1,0-0.3,0-0.4c-0.1-0.6-0.6-1.1-1.3-1.1
				c-0.9,0-1.5,0.8-1.5,1.9c0,1,0.5,1.8,1.5,1.8c0.6,0,1.2-0.4,1.3-1.1c0-0.1,0-0.2,0-0.4V622.3z"/>
			<path class="st17" d="M162.3,622.9c0,1.2,0.8,1.7,1.7,1.7c0.6,0,1-0.1,1.4-0.3l0.2,0.6c-0.3,0.1-0.9,0.3-1.7,0.3
				c-1.5,0-2.5-1-2.5-2.5s0.9-2.7,2.3-2.7c1.6,0,2.1,1.4,2.1,2.3c0,0.2,0,0.3,0,0.4H162.3z M165,622.3c0-0.6-0.2-1.5-1.3-1.5
				c-0.9,0-1.3,0.8-1.4,1.5H165z"/>
			<path class="st17" d="M167,617.9h0.9v7.3H167V617.9z"/>
			<path class="st17" d="M174.6,618.3h0.9v6.2h3v0.8h-3.9V618.3z"/>
			<path class="st17" d="M180.6,623.1l-0.7,2.2h-0.9l2.4-6.9h1.1l2.4,6.9h-1l-0.7-2.2H180.6z M182.8,622.4l-0.7-2
				c-0.2-0.5-0.3-0.9-0.4-1.3h0c-0.1,0.4-0.2,0.8-0.4,1.3l-0.7,2H182.8z"/>
			<path class="st17" d="M185.7,618.4c0.4-0.1,1-0.1,1.6-0.1c0.9,0,1.5,0.2,1.9,0.5c0.4,0.3,0.6,0.7,0.6,1.2c0,0.7-0.4,1.3-1.2,1.5
				v0c0.7,0.2,1.4,0.7,1.4,1.7c0,0.6-0.2,1.1-0.6,1.4c-0.5,0.4-1.3,0.6-2.4,0.6c-0.6,0-1.1,0-1.4-0.1V618.4z M186.6,621.3h0.8
				c0.9,0,1.5-0.5,1.5-1.2c0-0.8-0.6-1.1-1.5-1.1c-0.4,0-0.6,0-0.8,0.1V621.3z M186.6,624.6c0.2,0,0.4,0,0.8,0
				c0.9,0,1.8-0.3,1.8-1.3c0-0.9-0.8-1.3-1.8-1.3h-0.7V624.6z"/>
			<path class="st17" d="M192.4,618.8v1.4h1.3v0.7h-1.3v2.7c0,0.6,0.2,1,0.7,1c0.2,0,0.4,0,0.5-0.1l0,0.7c-0.2,0.1-0.5,0.1-0.8,0.1
				c-0.4,0-0.8-0.1-1-0.4c-0.3-0.3-0.4-0.7-0.4-1.3V621h-0.8v-0.7h0.8v-1.2L192.4,618.8z"/>
			<path class="st17" d="M198.9,623.9c0,0.5,0,1,0,1.4h-0.8l-0.1-0.8h0c-0.2,0.4-0.8,0.9-1.6,0.9c-0.8,0-1.7-0.4-1.7-2.2v-2.9h0.9
				v2.8c0,0.9,0.3,1.6,1.1,1.6c0.6,0,1-0.4,1.2-0.8c0.1-0.1,0.1-0.3,0.1-0.5v-3.1h0.9V623.9z"/>
			<path class="st17" d="M200.4,621.8c0-0.6,0-1.1,0-1.6h0.8l0,1h0c0.2-0.7,0.8-1.1,1.4-1.1c0.1,0,0.2,0,0.3,0v0.9
				c-0.1,0-0.2,0-0.3,0c-0.6,0-1.1,0.5-1.2,1.2c0,0.1,0,0.3,0,0.4v2.7h-0.9V621.8z"/>
			<path class="st17" d="M204.8,618.9c0,0.3-0.2,0.6-0.6,0.6c-0.3,0-0.5-0.2-0.5-0.6c0-0.3,0.2-0.6,0.6-0.6
				C204.5,618.3,204.8,618.6,204.8,618.9z M203.7,625.3v-5h0.9v5H203.7z"/>
			<path class="st17" d="M206,624.3c0.3,0.2,0.7,0.4,1.2,0.4c0.7,0,1-0.3,1-0.7c0-0.4-0.3-0.7-0.9-0.9c-0.9-0.3-1.3-0.8-1.3-1.4
				c0-0.8,0.6-1.5,1.7-1.5c0.5,0,0.9,0.1,1.2,0.3l-0.2,0.7c-0.2-0.1-0.6-0.3-1-0.3c-0.5,0-0.8,0.3-0.8,0.7c0,0.4,0.3,0.6,0.9,0.8
				c0.9,0.3,1.3,0.8,1.3,1.5c0,0.9-0.7,1.5-1.9,1.5c-0.5,0-1.1-0.1-1.4-0.3L206,624.3z"/>
			<path class="st17" d="M210.2,621.6c0-0.5,0-0.9,0-1.3h0.8l0,0.8h0c0.3-0.5,0.7-0.9,1.6-0.9c0.7,0,1.2,0.4,1.4,1h0
				c0.2-0.3,0.4-0.5,0.6-0.6c0.3-0.2,0.6-0.4,1.1-0.4c0.7,0,1.6,0.4,1.6,2.2v2.9h-0.9v-2.8c0-1-0.4-1.5-1.1-1.5
				c-0.5,0-0.9,0.4-1.1,0.8c0,0.1-0.1,0.3-0.1,0.5v3.1h-0.9v-3c0-0.8-0.4-1.4-1-1.4c-0.6,0-1,0.5-1.1,0.9c-0.1,0.1-0.1,0.3-0.1,0.4
				v3h-0.9V621.6z"/>
			<path class="st17" d="M219.3,622.9c0,1.2,0.8,1.7,1.7,1.7c0.6,0,1-0.1,1.4-0.3l0.2,0.6c-0.3,0.1-0.9,0.3-1.7,0.3
				c-1.5,0-2.5-1-2.5-2.5s0.9-2.7,2.3-2.7c1.6,0,2.1,1.4,2.1,2.3c0,0.2,0,0.3,0,0.4H219.3z M222,622.3c0-0.6-0.2-1.5-1.3-1.5
				c-0.9,0-1.3,0.8-1.4,1.5H222z"/>
			<path class="st17" d="M229.6,622.9c0,1.2,0.8,1.7,1.7,1.7c0.6,0,1-0.1,1.4-0.3l0.2,0.6c-0.3,0.1-0.9,0.3-1.7,0.3
				c-1.5,0-2.5-1-2.5-2.5s0.9-2.7,2.3-2.7c1.6,0,2.1,1.4,2.1,2.3c0,0.2,0,0.3,0,0.4H229.6z M232.3,622.3c0-0.6-0.2-1.5-1.3-1.5
				c-0.9,0-1.3,0.8-1.4,1.5H232.3z"/>
			<path class="st17" d="M234.3,621.6c0-0.5,0-0.9,0-1.3h0.8l0.1,0.8h0c0.2-0.5,0.8-0.9,1.6-0.9c0.7,0,1.8,0.4,1.8,2.1v3h-0.9v-2.9
				c0-0.8-0.3-1.5-1.2-1.5c-0.6,0-1.1,0.4-1.2,0.9c0,0.1-0.1,0.3-0.1,0.4v3h-0.9V621.6z"/>
			<path class="st17" d="M245.1,625.3c0-0.3,0-0.8,0-1.3v-6h0.9v3.1h0c0.3-0.6,0.9-0.9,1.7-0.9c1.2,0,2.1,1,2.1,2.5
				c0,1.8-1.1,2.7-2.2,2.7c-0.7,0-1.3-0.3-1.7-0.9h0l0,0.8H245.1z M246.1,623.3c0,0.1,0,0.2,0,0.3c0.2,0.6,0.7,1.1,1.4,1.1
				c0.9,0,1.5-0.8,1.5-1.9c0-1-0.5-1.9-1.5-1.9c-0.6,0-1.2,0.4-1.4,1.1c0,0.1-0.1,0.2-0.1,0.4V623.3z"/>
			<path class="st17" d="M253.8,625.3l-0.1-0.6h0c-0.3,0.4-0.8,0.7-1.5,0.7c-1,0-1.5-0.7-1.5-1.4c0-1.2,1.1-1.9,3-1.9V622
				c0-0.4-0.1-1.2-1.1-1.2c-0.5,0-0.9,0.1-1.3,0.4l-0.2-0.6c0.4-0.3,1-0.4,1.6-0.4c1.5,0,1.9,1,1.9,2v1.9c0,0.4,0,0.9,0.1,1.2H253.8
				z M253.7,622.7c-1,0-2.1,0.2-2.1,1.1c0,0.6,0.4,0.9,0.9,0.9c0.6,0,1.1-0.4,1.2-0.8c0-0.1,0.1-0.2,0.1-0.3V622.7z"/>
			<path class="st17" d="M255.9,624.3c0.3,0.2,0.7,0.4,1.2,0.4c0.7,0,1-0.3,1-0.7c0-0.4-0.3-0.7-0.9-0.9c-0.9-0.3-1.3-0.8-1.3-1.4
				c0-0.8,0.6-1.5,1.7-1.5c0.5,0,0.9,0.1,1.2,0.3l-0.2,0.7c-0.2-0.1-0.6-0.3-1-0.3c-0.5,0-0.8,0.3-0.8,0.7c0,0.4,0.3,0.6,0.9,0.8
				c0.9,0.3,1.3,0.8,1.3,1.5c0,0.9-0.7,1.5-1.9,1.5c-0.5,0-1.1-0.1-1.4-0.3L255.9,624.3z"/>
			<path class="st17" d="M260.6,622.9c0,1.2,0.8,1.7,1.7,1.7c0.6,0,1-0.1,1.4-0.3l0.2,0.6c-0.3,0.1-0.9,0.3-1.7,0.3
				c-1.5,0-2.5-1-2.5-2.5s0.9-2.7,2.3-2.7c1.6,0,2.1,1.4,2.1,2.3c0,0.2,0,0.3,0,0.4H260.6z M263.2,622.3c0-0.6-0.2-1.5-1.3-1.5
				c-0.9,0-1.3,0.8-1.4,1.5H263.2z"/>
			<path class="st17" d="M273.1,625.3l-0.1-0.6h0c-0.3,0.4-0.8,0.7-1.5,0.7c-1,0-1.5-0.7-1.5-1.4c0-1.2,1.1-1.9,3-1.9V622
				c0-0.4-0.1-1.2-1.1-1.2c-0.5,0-0.9,0.1-1.3,0.4l-0.2-0.6c0.4-0.3,1-0.4,1.6-0.4c1.5,0,1.9,1,1.9,2v1.9c0,0.4,0,0.9,0.1,1.2H273.1
				z M273,622.7c-1,0-2.1,0.2-2.1,1.1c0,0.6,0.4,0.9,0.9,0.9c0.6,0,1.1-0.4,1.2-0.8c0-0.1,0.1-0.2,0.1-0.3V622.7z"/>
			<path class="st17" d="M284.8,617.9v6c0,0.4,0,0.9,0,1.3H284l0-0.9h0c-0.3,0.6-0.9,1-1.7,1c-1.2,0-2.1-1-2.1-2.5
				c0-1.7,1-2.7,2.2-2.7c0.8,0,1.3,0.4,1.5,0.8h0v-3H284.8z M283.9,622.3c0-0.1,0-0.3,0-0.4c-0.1-0.6-0.6-1.1-1.3-1.1
				c-0.9,0-1.5,0.8-1.5,1.9c0,1,0.5,1.8,1.5,1.8c0.6,0,1.2-0.4,1.3-1.1c0-0.1,0-0.2,0-0.4V622.3z"/>
			<path class="st17" d="M289.1,625.3l-0.1-0.6h0c-0.3,0.4-0.8,0.7-1.5,0.7c-1,0-1.5-0.7-1.5-1.4c0-1.2,1.1-1.9,3-1.9V622
				c0-0.4-0.1-1.2-1.1-1.2c-0.5,0-0.9,0.1-1.3,0.4l-0.2-0.6c0.4-0.3,1-0.4,1.6-0.4c1.5,0,1.9,1,1.9,2v1.9c0,0.4,0,0.9,0.1,1.2H289.1
				z M288.9,622.7c-1,0-2.1,0.2-2.1,1.1c0,0.6,0.4,0.9,0.9,0.9c0.6,0,1.1-0.4,1.2-0.8c0-0.1,0.1-0.2,0.1-0.3V622.7z"/>
			<path class="st17" d="M295.6,617.9v6c0,0.4,0,0.9,0,1.3h-0.8l0-0.9h0c-0.3,0.6-0.9,1-1.7,1c-1.2,0-2.1-1-2.1-2.5
				c0-1.7,1-2.7,2.2-2.7c0.8,0,1.3,0.4,1.5,0.8h0v-3H295.6z M294.7,622.3c0-0.1,0-0.3,0-0.4c-0.1-0.6-0.6-1.1-1.3-1.1
				c-0.9,0-1.5,0.8-1.5,1.9c0,1,0.5,1.8,1.5,1.8c0.6,0,1.2-0.4,1.3-1.1c0-0.1,0-0.2,0-0.4V622.3z"/>
			<path class="st17" d="M297.6,622.9c0,1.2,0.8,1.7,1.7,1.7c0.6,0,1-0.1,1.4-0.3l0.2,0.6c-0.3,0.1-0.9,0.3-1.7,0.3
				c-1.5,0-2.5-1-2.5-2.5s0.9-2.7,2.3-2.7c1.6,0,2.1,1.4,2.1,2.3c0,0.2,0,0.3,0,0.4H297.6z M300.2,622.3c0-0.6-0.2-1.5-1.3-1.5
				c-0.9,0-1.3,0.8-1.4,1.5H300.2z"/>
			<path class="st17" d="M302.1,624.3c0.3,0.2,0.7,0.4,1.2,0.4c0.7,0,1-0.3,1-0.7c0-0.4-0.3-0.7-0.9-0.9c-0.9-0.3-1.3-0.8-1.3-1.4
				c0-0.8,0.6-1.5,1.7-1.5c0.5,0,0.9,0.1,1.2,0.3l-0.2,0.7c-0.2-0.1-0.6-0.3-1-0.3c-0.5,0-0.8,0.3-0.8,0.7c0,0.4,0.3,0.6,0.9,0.8
				c0.9,0.3,1.3,0.8,1.3,1.5c0,0.9-0.7,1.5-1.9,1.5c-0.5,0-1.1-0.1-1.4-0.3L302.1,624.3z"/>
			<path class="st17" d="M315.8,617.9v6c0,0.4,0,0.9,0,1.3H315l0-0.9h0c-0.3,0.6-0.9,1-1.7,1c-1.2,0-2.1-1-2.1-2.5
				c0-1.7,1-2.7,2.2-2.7c0.8,0,1.3,0.4,1.5,0.8h0v-3H315.8z M314.9,622.3c0-0.1,0-0.3,0-0.4c-0.1-0.6-0.6-1.1-1.3-1.1
				c-0.9,0-1.5,0.8-1.5,1.9c0,1,0.5,1.8,1.5,1.8c0.6,0,1.2-0.4,1.3-1.1c0-0.1,0-0.2,0-0.4V622.3z"/>
			<path class="st17" d="M317.8,622.9c0,1.2,0.8,1.7,1.7,1.7c0.6,0,1-0.1,1.4-0.3l0.2,0.6c-0.3,0.1-0.9,0.3-1.7,0.3
				c-1.5,0-2.5-1-2.5-2.5s0.9-2.7,2.3-2.7c1.6,0,2.1,1.4,2.1,2.3c0,0.2,0,0.3,0,0.4H317.8z M320.4,622.3c0-0.6-0.2-1.5-1.3-1.5
				c-0.9,0-1.3,0.8-1.4,1.5H320.4z"/>
			<path class="st17" d="M327.6,617.9h0.9v7.3h-0.9V617.9z"/>
			<path class="st17" d="M330.7,618.2l-0.2,2.5H330l-0.2-2.5H330.7z"/>
			<path class="st17" d="M335.6,622h-2.7v2.5h3v0.8H332v-6.9h3.7v0.8h-2.9v2.2h2.7V622z"/>
			<path class="st17" d="M337,621.6c0-0.5,0-0.9,0-1.3h0.8l0.1,0.8h0c0.2-0.5,0.8-0.9,1.6-0.9c0.7,0,1.8,0.4,1.8,2.1v3h-0.9v-2.9
				c0-0.8-0.3-1.5-1.2-1.5c-0.6,0-1.1,0.4-1.2,0.9c0,0.1-0.1,0.3-0.1,0.4v3H337V621.6z"/>
			<path class="st17" d="M346.1,624.5L346.1,624.5c-0.3,0.5-0.8,0.9-1.6,0.9c-1.2,0-2.1-1-2.1-2.5c0-1.9,1.2-2.7,2.3-2.7
				c0.8,0,1.3,0.4,1.5,0.9h0l0-0.8h0.9c0,0.4,0,0.9,0,1.4v5.7h-0.9V624.5z M346.1,622.3c0-0.1,0-0.3,0-0.4c-0.1-0.6-0.6-1-1.3-1
				c-0.9,0-1.5,0.8-1.5,1.9c0,1,0.5,1.9,1.5,1.9c0.6,0,1.1-0.4,1.3-1c0-0.1,0.1-0.3,0.1-0.4V622.3z"/>
			<path class="st17" d="M352.7,623.9c0,0.5,0,1,0,1.4h-0.8l-0.1-0.8h0c-0.2,0.4-0.8,0.9-1.6,0.9c-0.8,0-1.7-0.4-1.7-2.2v-2.9h0.9
				v2.8c0,0.9,0.3,1.6,1.1,1.6c0.6,0,1-0.4,1.2-0.8c0.1-0.1,0.1-0.3,0.1-0.5v-3.1h0.9V623.9z"/>
			<path class="st17" d="M354.7,622.9c0,1.2,0.8,1.7,1.7,1.7c0.6,0,1-0.1,1.4-0.3l0.2,0.6c-0.3,0.1-0.9,0.3-1.7,0.3
				c-1.5,0-2.5-1-2.5-2.5s0.9-2.7,2.3-2.7c1.6,0,2.1,1.4,2.1,2.3c0,0.2,0,0.3,0,0.4H354.7z M357.4,622.3c0-0.6-0.2-1.5-1.3-1.5
				c-0.9,0-1.3,0.8-1.4,1.5H357.4z"/>
			<path class="st17" d="M359.2,624.3c0.3,0.2,0.7,0.4,1.2,0.4c0.7,0,1-0.3,1-0.7c0-0.4-0.3-0.7-0.9-0.9c-0.9-0.3-1.3-0.8-1.3-1.4
				c0-0.8,0.6-1.5,1.7-1.5c0.5,0,0.9,0.1,1.2,0.3l-0.2,0.7c-0.2-0.1-0.6-0.3-1-0.3c-0.5,0-0.8,0.3-0.8,0.7c0,0.4,0.3,0.6,0.9,0.8
				c0.9,0.3,1.3,0.8,1.3,1.5c0,0.9-0.7,1.5-1.9,1.5c-0.5,0-1-0.1-1.4-0.3L359.2,624.3z"/>
			<path class="st17" d="M364.5,618.8v1.4h1.3v0.7h-1.3v2.7c0,0.6,0.2,1,0.7,1c0.2,0,0.4,0,0.5-0.1l0,0.7c-0.2,0.1-0.5,0.1-0.8,0.1
				c-0.4,0-0.8-0.1-1-0.4c-0.3-0.3-0.3-0.7-0.3-1.3V621h-0.8v-0.7h0.8v-1.2L364.5,618.8z"/>
			<path class="st17" d="M369.6,625.3l-0.1-0.6h0c-0.3,0.4-0.8,0.7-1.5,0.7c-1,0-1.5-0.7-1.5-1.4c0-1.2,1.1-1.9,3-1.9V622
				c0-0.4-0.1-1.2-1.1-1.2c-0.5,0-0.9,0.1-1.3,0.4l-0.2-0.6c0.4-0.3,1-0.4,1.6-0.4c1.5,0,1.9,1,1.9,2v1.9c0,0.4,0,0.9,0.1,1.2H369.6
				z M369.5,622.7c-1,0-2.1,0.2-2.1,1.1c0,0.6,0.4,0.9,0.9,0.9c0.6,0,1.1-0.4,1.2-0.8c0-0.1,0.1-0.2,0.1-0.3V622.7z"/>
			<path class="st17" d="M381.3,617.9v6c0,0.4,0,0.9,0,1.3h-0.8l0-0.9h0c-0.3,0.6-0.9,1-1.7,1c-1.2,0-2.1-1-2.1-2.5
				c0-1.7,1-2.7,2.2-2.7c0.8,0,1.3,0.4,1.5,0.8h0v-3H381.3z M380.4,622.3c0-0.1,0-0.3,0-0.4c-0.1-0.6-0.6-1.1-1.3-1.1
				c-0.9,0-1.5,0.8-1.5,1.9c0,1,0.5,1.8,1.5,1.8c0.6,0,1.2-0.4,1.3-1.1c0-0.1,0-0.2,0-0.4V622.3z"/>
			<path class="st17" d="M383.5,618.2l-0.2,2.5h-0.6l-0.2-2.5H383.5z"/>
			<path class="st17" d="M389.2,622.7c0,1.8-1.3,2.6-2.5,2.6c-1.3,0-2.4-1-2.4-2.6c0-1.7,1.1-2.6,2.5-2.6
				C388.3,620.2,389.2,621.2,389.2,622.7z M385.3,622.8c0,1.1,0.6,1.9,1.5,1.9c0.9,0,1.5-0.8,1.5-1.9c0-0.8-0.4-1.9-1.5-1.9
				S385.3,621.8,385.3,622.8z"/>
			<path class="st17" d="M393.9,625.1c-0.2,0.1-0.8,0.3-1.4,0.3c-1.5,0-2.5-1-2.5-2.5c0-1.5,1-2.6,2.7-2.6c0.5,0,1,0.1,1.3,0.3
				l-0.2,0.7c-0.2-0.1-0.6-0.2-1.1-0.2c-1.1,0-1.8,0.8-1.8,1.9c0,1.2,0.7,1.9,1.7,1.9c0.5,0,0.9-0.1,1.1-0.2L393.9,625.1z"/>
			<path class="st17" d="M399.2,623.9c0,0.5,0,1,0,1.4h-0.8l-0.1-0.8h0c-0.2,0.4-0.8,0.9-1.6,0.9c-0.8,0-1.7-0.4-1.7-2.2v-2.9h0.9
				v2.8c0,0.9,0.3,1.6,1.1,1.6c0.6,0,1-0.4,1.2-0.8c0.1-0.1,0.1-0.3,0.1-0.5v-3.1h0.9V623.9z"/>
			<path class="st17" d="M400.7,621.9c0-0.6,0-1.2,0-1.6h0.8l0,0.9h0c0.4-0.6,1-1,1.8-1c1.2,0,2.1,1,2.1,2.5c0,1.8-1.1,2.7-2.3,2.7
				c-0.7,0-1.2-0.3-1.5-0.8h0v2.7h-0.9V621.9z M401.6,623.2c0,0.1,0,0.3,0,0.4c0.2,0.6,0.7,1.1,1.4,1.1c1,0,1.5-0.8,1.5-1.9
				c0-1-0.5-1.9-1.5-1.9c-0.6,0-1.2,0.4-1.4,1.1c0,0.1-0.1,0.2-0.1,0.4V623.2z"/>
			<path class="st17" d="M409.3,625.3l-0.1-0.6h0c-0.3,0.4-0.8,0.7-1.5,0.7c-1,0-1.5-0.7-1.5-1.4c0-1.2,1.1-1.9,3-1.9V622
				c0-0.4-0.1-1.2-1.1-1.2c-0.5,0-0.9,0.1-1.3,0.4l-0.2-0.6c0.4-0.3,1-0.4,1.6-0.4c1.5,0,1.9,1,1.9,2v1.9c0,0.4,0,0.9,0.1,1.2H409.3
				z M409.1,622.7c-1,0-2.1,0.2-2.1,1.1c0,0.6,0.4,0.9,0.9,0.9c0.6,0,1.1-0.4,1.2-0.8c0-0.1,0.1-0.2,0.1-0.3V622.7z"/>
			<path class="st17" d="M415,625.1c-0.2,0.1-0.8,0.3-1.4,0.3c-1.5,0-2.5-1-2.5-2.5c0-1.5,1-2.6,2.7-2.6c0.5,0,1,0.1,1.3,0.3
				l-0.2,0.7c-0.2-0.1-0.6-0.2-1.1-0.2c-1.1,0-1.8,0.8-1.8,1.9c0,1.2,0.7,1.9,1.7,1.9c0.5,0,0.9-0.1,1.1-0.2L415,625.1z"/>
			<path class="st17" d="M417.1,618.9c0,0.3-0.2,0.6-0.6,0.6c-0.3,0-0.5-0.2-0.5-0.6c0-0.3,0.2-0.6,0.6-0.6
				C416.9,618.3,417.1,618.6,417.1,618.9z M416.1,625.3v-5h0.9v5H416.1z"/>
			<path class="st17" d="M423,622.7c0,1.8-1.3,2.6-2.5,2.6c-1.3,0-2.4-1-2.4-2.6c0-1.7,1.1-2.6,2.5-2.6
				C422.1,620.2,423,621.2,423,622.7z M419.1,622.8c0,1.1,0.6,1.9,1.5,1.9c0.9,0,1.5-0.8,1.5-1.9c0-0.8-0.4-1.9-1.5-1.9
				S419.1,621.8,419.1,622.8z M421.9,618.1l-1.3,1.5H420l0.9-1.5H421.9z"/>
			<path class="st17" d="M429.8,622.9c0,1.2,0.8,1.7,1.7,1.7c0.6,0,1-0.1,1.4-0.3l0.2,0.6c-0.3,0.1-0.9,0.3-1.7,0.3
				c-1.5,0-2.5-1-2.5-2.5s0.9-2.7,2.3-2.7c1.6,0,2.1,1.4,2.1,2.3c0,0.2,0,0.3,0,0.4H429.8z M432.5,622.3c0-0.6-0.2-1.5-1.3-1.5
				c-0.9,0-1.3,0.8-1.4,1.5H432.5z"/>
			<path class="st17" d="M434.5,621.6c0-0.5,0-0.9,0-1.3h0.8l0.1,0.8h0c0.2-0.5,0.8-0.9,1.6-0.9c0.7,0,1.8,0.4,1.8,2.1v3h-0.9v-2.9
				c0-0.8-0.3-1.5-1.2-1.5c-0.6,0-1.1,0.4-1.2,0.9c0,0.1-0.1,0.3-0.1,0.4v3h-0.9V621.6z"/>
			<path class="st17" d="M448.1,625.3l-0.1-0.6h0c-0.3,0.4-0.8,0.7-1.5,0.7c-1,0-1.5-0.7-1.5-1.4c0-1.2,1.1-1.9,3-1.9V622
				c0-0.4-0.1-1.2-1.1-1.2c-0.5,0-0.9,0.1-1.3,0.4l-0.2-0.6c0.4-0.3,1-0.4,1.6-0.4c1.5,0,1.9,1,1.9,2v1.9c0,0.4,0,0.9,0.1,1.2H448.1
				z M448,622.7c-1,0-2.1,0.2-2.1,1.1c0,0.6,0.4,0.9,0.9,0.9c0.6,0,1.1-0.4,1.2-0.8c0-0.1,0.1-0.2,0.1-0.3V622.7z"/>
			<path class="st17" d="M450.3,617.9h0.9v7.3h-0.9V617.9z"/>
			<path class="st17" d="M452.7,617.9h0.9v7.3h-0.9V617.9z"/>
			<path class="st17" d="M459.7,622.7c0,1.8-1.3,2.6-2.5,2.6c-1.3,0-2.4-1-2.4-2.6c0-1.7,1.1-2.6,2.5-2.6
				C458.7,620.2,459.7,621.2,459.7,622.7z M455.7,622.8c0,1.1,0.6,1.9,1.5,1.9c0.9,0,1.5-0.8,1.5-1.9c0-0.8-0.4-1.9-1.5-1.9
				S455.7,621.8,455.7,622.8z"/>
			<path class="st17" d="M461.9,618.8v1.4h1.3v0.7h-1.3v2.7c0,0.6,0.2,1,0.7,1c0.2,0,0.4,0,0.5-0.1l0,0.7c-0.2,0.1-0.5,0.1-0.8,0.1
				c-0.4,0-0.8-0.1-1-0.4c-0.3-0.3-0.4-0.7-0.4-1.3V621h-0.8v-0.7h0.8v-1.2L461.9,618.8z"/>
			<path class="st17" d="M463,626.7c0.4,0,0.8-0.1,1-0.4c0.2-0.3,0.3-0.7,0.3-1.9v-4.2h0.9v4.5c0,1-0.2,1.6-0.6,2
				c-0.4,0.4-1.1,0.6-1.5,0.6L463,626.7z M465.4,618.9c0,0.3-0.2,0.6-0.6,0.6c-0.3,0-0.6-0.3-0.6-0.6c0-0.3,0.2-0.6,0.6-0.6
				C465.1,618.3,465.4,618.6,465.4,618.9z"/>
			<path class="st17" d="M469.5,625.3l-0.1-0.6h0c-0.3,0.4-0.8,0.7-1.5,0.7c-1,0-1.5-0.7-1.5-1.4c0-1.2,1.1-1.9,3-1.9V622
				c0-0.4-0.1-1.2-1.1-1.2c-0.5,0-0.9,0.1-1.3,0.4l-0.2-0.6c0.4-0.3,1-0.4,1.6-0.4c1.5,0,1.9,1,1.9,2v1.9c0,0.4,0,0.9,0.1,1.2H469.5
				z M469.4,622.7c-1,0-2.1,0.2-2.1,1.1c0,0.6,0.4,0.9,0.9,0.9c0.6,0,1.1-0.4,1.2-0.8c0-0.1,0.1-0.2,0.1-0.3V622.7z"/>
			<path class="st17" d="M471.7,621.6c0-0.5,0-0.9,0-1.3h0.8l0,0.8h0c0.3-0.5,0.7-0.9,1.6-0.9c0.7,0,1.2,0.4,1.4,1h0
				c0.2-0.3,0.4-0.5,0.6-0.6c0.3-0.2,0.6-0.4,1.1-0.4c0.7,0,1.6,0.4,1.6,2.2v2.9h-0.9v-2.8c0-1-0.4-1.5-1.1-1.5
				c-0.5,0-0.9,0.4-1.1,0.8c0,0.1-0.1,0.3-0.1,0.5v3.1h-0.9v-3c0-0.8-0.4-1.4-1-1.4c-0.6,0-1,0.5-1.1,0.9c-0.1,0.1-0.1,0.3-0.1,0.4
				v3h-0.9V621.6z"/>
			<path class="st17" d="M480.8,622.9c0,1.2,0.8,1.7,1.7,1.7c0.6,0,1-0.1,1.4-0.3l0.2,0.6c-0.3,0.1-0.9,0.3-1.7,0.3
				c-1.5,0-2.5-1-2.5-2.5s0.9-2.7,2.3-2.7c1.6,0,2.1,1.4,2.1,2.3c0,0.2,0,0.3,0,0.4H480.8z M483.5,622.3c0-0.6-0.2-1.5-1.3-1.5
				c-0.9,0-1.3,0.8-1.4,1.5H483.5z"/>
			<path class="st17" d="M485.5,621.6c0-0.5,0-0.9,0-1.3h0.8l0.1,0.8h0c0.2-0.5,0.8-0.9,1.6-0.9c0.7,0,1.8,0.4,1.8,2.1v3h-0.9v-2.9
				c0-0.8-0.3-1.5-1.2-1.5c-0.6,0-1.1,0.4-1.2,0.9c0,0.1-0.1,0.3-0.1,0.4v3h-0.9V621.6z"/>
			<path class="st17" d="M492.3,618.8v1.4h1.3v0.7h-1.3v2.7c0,0.6,0.2,1,0.7,1c0.2,0,0.4,0,0.5-0.1l0,0.7c-0.2,0.1-0.5,0.1-0.8,0.1
				c-0.4,0-0.8-0.1-1-0.4c-0.3-0.3-0.4-0.7-0.4-1.3V621h-0.8v-0.7h0.8v-1.2L492.3,618.8z"/>
			<path class="st17" d="M494.5,624.3c0.3,0.2,0.7,0.4,1.2,0.4c0.7,0,1-0.3,1-0.7c0-0.4-0.3-0.7-0.9-0.9c-0.9-0.3-1.3-0.8-1.3-1.4
				c0-0.8,0.6-1.5,1.7-1.5c0.5,0,0.9,0.1,1.2,0.3l-0.2,0.7c-0.2-0.1-0.6-0.3-1-0.3c-0.5,0-0.8,0.3-0.8,0.7c0,0.4,0.3,0.6,0.9,0.8
				c0.9,0.3,1.3,0.8,1.3,1.5c0,0.9-0.7,1.5-1.9,1.5c-0.5,0-1.1-0.1-1.4-0.3L494.5,624.3z"/>
			<path class="st17" d="M508.1,617.9v6c0,0.4,0,0.9,0,1.3h-0.8l0-0.9h0c-0.3,0.6-0.9,1-1.7,1c-1.2,0-2.1-1-2.1-2.5
				c0-1.7,1-2.7,2.2-2.7c0.8,0,1.3,0.4,1.5,0.8h0v-3H508.1z M507.2,622.3c0-0.1,0-0.3,0-0.4c-0.1-0.6-0.6-1.1-1.3-1.1
				c-0.9,0-1.5,0.8-1.5,1.9c0,1,0.5,1.8,1.5,1.8c0.6,0,1.2-0.4,1.3-1.1c0-0.1,0-0.2,0-0.4V622.3z"/>
			<path class="st17" d="M510.1,622.9c0,1.2,0.8,1.7,1.7,1.7c0.6,0,1-0.1,1.4-0.3l0.2,0.6c-0.3,0.1-0.9,0.3-1.7,0.3
				c-1.5,0-2.5-1-2.5-2.5s0.9-2.7,2.3-2.7c1.6,0,2.1,1.4,2.1,2.3c0,0.2,0,0.3,0,0.4H510.1z M512.8,622.3c0-0.6-0.2-1.5-1.3-1.5
				c-0.9,0-1.3,0.8-1.4,1.5H512.8z"/>
			<path class="st17" d="M519.9,617.9h0.9v7.3h-0.9V617.9z"/>
			<path class="st17" d="M523,618.2l-0.2,2.5h-0.6l-0.2-2.5H523z"/>
			<path class="st17" d="M525.2,618.3v6.9h-0.9v-6.9H525.2z"/>
			<path class="st17" d="M526.8,625.3v-6.9h1l2.2,3.5c0.5,0.8,0.9,1.5,1.2,2.3l0,0c-0.1-0.9-0.1-1.8-0.1-2.9v-2.9h0.8v6.9h-0.9
				l-2.2-3.5c-0.5-0.8-0.9-1.6-1.3-2.3l0,0c0.1,0.9,0.1,1.7,0.1,2.9v3H526.8z"/>
			<path class="st17" d="M537.2,622h-2.7v2.5h3v0.8h-3.9v-6.9h3.7v0.8h-2.9v2.2h2.7V622z"/>
			<path class="st17" d="M538.7,624.4c0.1-0.1,0.2-0.2,0.4-0.2c0.2,0,0.3,0.1,0.4,0.2c0.1,0.1,0.2,0.2,0.2,0.4
				c0,0.2-0.1,0.3-0.2,0.4c-0.1,0.1-0.2,0.2-0.4,0.2c-0.1,0-0.3-0.1-0.4-0.2c-0.1-0.1-0.2-0.2-0.2-0.4
				C538.6,624.7,538.6,624.6,538.7,624.4z"/>
		</g>
	</g>
</g>
<text transform="matrix(1 0 0 1 73.19 480.72)" class="st2 st3 st13">8,3</text>
<text transform="matrix(1 0 0 1 113.78 418.61)" class="st2 st3 st13">13,4</text>
<text transform="matrix(1 0 0 1 158.49 404.62)" class="st2 st3 st13">15,6</text>
<text transform="matrix(1 0 0 1 218.53 397.03)" class="st2 st3 st13">19,8</text>
<text transform="matrix(1 0 0 1 271.5 391.0601)" class="st2 st3 st13">17,1</text>
<text transform="matrix(1 0 0 1 302.31 350.22)" class="st2 st3 st13">23,9</text>
<text transform="matrix(1 0 0 1 389.38 301.14)" class="st2 st3 st13">31,0</text>
<text transform="matrix(1 0 0 1 420.21 185.39)" class="st2 st3 st13">49,3</text>
<text transform="matrix(1 0 0 1 490.78 385.09)" class="st2 st3 st13">19,0</text>
<text transform="matrix(1 0 0 1 527.18 403.37)" class="st2 st3 st13">15,8</text>
<text transform="matrix(1 0 0 1 453.49 408.11)" class="st2 st3 st13">18,2</text>
<text transform="matrix(1 0 0 1 538.13 474.71)" class="st2 st3 st13">7,3</text>
<text transform="matrix(1 0 0 1 627.54 335.76)" class="st2 st3 st13">24,4</text>
<text transform="matrix(1 0 0 1 586.86 398.4399)" class="st2 st3 st13">19,4</text>
<g>
	<g class="st14">
		<path class="st17" d="M44.6,585.1l0.2-0.7c0.3,0.1,0.7,0.3,1.2,0.5c0-0.2,0-0.7-0.1-1.3h0.7c0,0.3,0,0.7-0.1,1.2
			c0.3-0.2,0.7-0.3,1.2-0.5l0.2,0.7c-0.4,0.1-0.8,0.2-1.3,0.3c0.2,0.2,0.5,0.5,0.9,1l-0.6,0.4c-0.3-0.4-0.5-0.7-0.7-1.1
			c-0.2,0.3-0.4,0.7-0.7,1.1l-0.6-0.4c0.2-0.3,0.5-0.6,0.8-1C45.5,585.3,45.1,585.2,44.6,585.1z"/>
		<path class="st17" d="M54.2,584.2h0.9v6.2h3v0.8h-3.9V584.2z"/>
		<path class="st17" d="M59.5,588.8c0,1.2,0.8,1.7,1.7,1.7c0.6,0,1-0.1,1.4-0.3l0.2,0.6c-0.3,0.1-0.9,0.3-1.7,0.3
			c-1.5,0-2.5-1-2.5-2.5s0.9-2.7,2.3-2.7c1.6,0,2.1,1.4,2.1,2.3c0,0.2,0,0.3,0,0.4H59.5z M62.2,588.1c0-0.6-0.2-1.5-1.3-1.5
			c-0.9,0-1.3,0.8-1.4,1.5H62.2z"/>
		<path class="st17" d="M64.1,590.2c0.3,0.2,0.7,0.4,1.2,0.4c0.7,0,1-0.3,1-0.7c0-0.4-0.3-0.7-0.9-0.9c-0.9-0.3-1.3-0.8-1.3-1.4
			c0-0.8,0.6-1.5,1.7-1.5c0.5,0,0.9,0.1,1.2,0.3l-0.2,0.7c-0.2-0.1-0.6-0.3-1-0.3c-0.5,0-0.8,0.3-0.8,0.7c0,0.4,0.3,0.6,0.9,0.8
			c0.9,0.3,1.3,0.8,1.3,1.5c0,0.9-0.7,1.5-1.9,1.5c-0.5,0-1.1-0.1-1.4-0.3L64.1,590.2z"/>
		<path class="st17" d="M77.7,583.8v6c0,0.4,0,0.9,0,1.3H77l0-0.9h0c-0.3,0.6-0.9,1-1.7,1c-1.2,0-2.1-1-2.1-2.5c0-1.7,1-2.7,2.2-2.7
			c0.8,0,1.3,0.4,1.5,0.8h0v-3H77.7z M76.8,588.2c0-0.1,0-0.3,0-0.4c-0.1-0.6-0.6-1.1-1.3-1.1c-0.9,0-1.5,0.8-1.5,1.9
			c0,1,0.5,1.8,1.5,1.8c0.6,0,1.2-0.4,1.3-1.1c0-0.1,0-0.2,0-0.4V588.2z"/>
		<path class="st17" d="M82,591.1l-0.1-0.6h0c-0.3,0.4-0.8,0.7-1.5,0.7c-1,0-1.5-0.7-1.5-1.4c0-1.2,1.1-1.9,3-1.9v-0.1
			c0-0.4-0.1-1.2-1.1-1.2c-0.5,0-0.9,0.1-1.3,0.4l-0.2-0.6c0.4-0.3,1-0.4,1.6-0.4c1.5,0,1.9,1,1.9,2v1.9c0,0.4,0,0.9,0.1,1.2H82z
			 M81.9,588.6c-1,0-2.1,0.2-2.1,1.1c0,0.6,0.4,0.9,0.9,0.9c0.6,0,1.1-0.4,1.2-0.8c0-0.1,0.1-0.2,0.1-0.3V588.6z"/>
		<path class="st17" d="M88.5,583.8v6c0,0.4,0,0.9,0,1.3h-0.8l0-0.9h0c-0.3,0.6-0.9,1-1.7,1c-1.2,0-2.1-1-2.1-2.5
			c0-1.7,1-2.7,2.2-2.7c0.8,0,1.3,0.4,1.5,0.8h0v-3H88.5z M87.6,588.2c0-0.1,0-0.3,0-0.4c-0.1-0.6-0.6-1.1-1.3-1.1
			c-0.9,0-1.5,0.8-1.5,1.9c0,1,0.5,1.8,1.5,1.8c0.6,0,1.2-0.4,1.3-1.1c0-0.1,0-0.2,0-0.4V588.2z"/>
		<path class="st17" d="M90.5,588.8c0,1.2,0.8,1.7,1.7,1.7c0.6,0,1-0.1,1.4-0.3l0.2,0.6c-0.3,0.1-0.9,0.3-1.7,0.3
			c-1.5,0-2.5-1-2.5-2.5s0.9-2.7,2.3-2.7c1.6,0,2.1,1.4,2.1,2.3c0,0.2,0,0.3,0,0.4H90.5z M93.2,588.1c0-0.6-0.2-1.5-1.3-1.5
			c-0.9,0-1.3,0.8-1.4,1.5H93.2z"/>
		<path class="st17" d="M95,590.2c0.3,0.2,0.7,0.4,1.2,0.4c0.7,0,1-0.3,1-0.7c0-0.4-0.3-0.7-0.9-0.9c-0.9-0.3-1.3-0.8-1.3-1.4
			c0-0.8,0.6-1.5,1.7-1.5c0.5,0,0.9,0.1,1.2,0.3l-0.2,0.7c-0.2-0.1-0.6-0.3-1-0.3c-0.5,0-0.8,0.3-0.8,0.7c0,0.4,0.3,0.6,0.9,0.8
			c0.9,0.3,1.3,0.8,1.3,1.5c0,0.9-0.7,1.5-1.9,1.5c-0.5,0-1.1-0.1-1.4-0.3L95,590.2z"/>
		<path class="st17" d="M108.7,583.8v6c0,0.4,0,0.9,0,1.3h-0.8l0-0.9h0c-0.3,0.6-0.9,1-1.7,1c-1.2,0-2.1-1-2.1-2.5
			c0-1.7,1-2.7,2.2-2.7c0.8,0,1.3,0.4,1.5,0.8h0v-3H108.7z M107.8,588.2c0-0.1,0-0.3,0-0.4c-0.1-0.6-0.6-1.1-1.3-1.1
			c-0.9,0-1.5,0.8-1.5,1.9c0,1,0.5,1.8,1.5,1.8c0.6,0,1.2-0.4,1.3-1.1c0-0.1,0-0.2,0-0.4V588.2z"/>
		<path class="st17" d="M110.7,588.8c0,1.2,0.8,1.7,1.7,1.7c0.6,0,1-0.1,1.4-0.3l0.2,0.6c-0.3,0.1-0.9,0.3-1.7,0.3
			c-1.5,0-2.5-1-2.5-2.5s0.9-2.7,2.3-2.7c1.6,0,2.1,1.4,2.1,2.3c0,0.2,0,0.3,0,0.4H110.7z M113.4,588.1c0-0.6-0.2-1.5-1.3-1.5
			c-0.9,0-1.3,0.8-1.4,1.5H113.4z"/>
		<path class="st17" d="M115.4,583.8h0.9v7.3h-0.9V583.8z"/>
		<path class="st17" d="M117.7,590.2c0.3,0.2,0.7,0.4,1.2,0.4c0.7,0,1-0.3,1-0.7c0-0.4-0.3-0.7-0.9-0.9c-0.9-0.3-1.3-0.8-1.3-1.4
			c0-0.8,0.6-1.5,1.7-1.5c0.5,0,0.9,0.1,1.2,0.3l-0.2,0.7c-0.2-0.1-0.6-0.3-1-0.3c-0.5,0-0.8,0.3-0.8,0.7c0,0.4,0.3,0.6,0.9,0.8
			c0.9,0.3,1.3,0.8,1.3,1.5c0,0.9-0.7,1.5-1.9,1.5c-0.5,0-1.1-0.1-1.4-0.3L117.7,590.2z"/>
		<path class="st17" d="M127,587.5c0-0.5,0-0.9,0-1.3h0.8l0,0.8h0c0.3-0.5,0.7-0.9,1.6-0.9c0.7,0,1.2,0.4,1.4,1h0
			c0.2-0.3,0.4-0.5,0.6-0.6c0.3-0.2,0.6-0.4,1.1-0.4c0.7,0,1.6,0.4,1.6,2.2v2.9h-0.9v-2.8c0-1-0.4-1.5-1.1-1.5
			c-0.5,0-0.9,0.4-1.1,0.8c0,0.1-0.1,0.3-0.1,0.5v3.1h-0.9v-3c0-0.8-0.4-1.4-1-1.4c-0.6,0-1,0.5-1.1,0.9c-0.1,0.1-0.1,0.3-0.1,0.4v3
			H127V587.5z"/>
		<path class="st17" d="M136.1,588.8c0,1.2,0.8,1.7,1.7,1.7c0.6,0,1-0.1,1.4-0.3l0.2,0.6c-0.3,0.1-0.9,0.3-1.7,0.3
			c-1.5,0-2.5-1-2.5-2.5s0.9-2.7,2.3-2.7c1.6,0,2.1,1.4,2.1,2.3c0,0.2,0,0.3,0,0.4H136.1z M138.8,588.1c0-0.6-0.2-1.5-1.3-1.5
			c-0.9,0-1.3,0.8-1.4,1.5H138.8z"/>
		<path class="st17" d="M140.7,590.2c0.3,0.2,0.7,0.4,1.2,0.4c0.7,0,1-0.3,1-0.7c0-0.4-0.3-0.7-0.9-0.9c-0.9-0.3-1.3-0.8-1.3-1.4
			c0-0.8,0.6-1.5,1.7-1.5c0.5,0,0.9,0.1,1.2,0.3l-0.2,0.7c-0.2-0.1-0.6-0.3-1-0.3c-0.5,0-0.8,0.3-0.8,0.7c0,0.4,0.3,0.6,0.9,0.8
			c0.9,0.3,1.3,0.8,1.3,1.5c0,0.9-0.7,1.5-1.9,1.5c-0.5,0-1.1-0.1-1.4-0.3L140.7,590.2z"/>
		<path class="st17" d="M149.4,588.6c0,1.8-1.3,2.6-2.5,2.6c-1.3,0-2.4-1-2.4-2.6c0-1.7,1.1-2.6,2.5-2.6
			C148.4,586,149.4,587.1,149.4,588.6z M145.4,588.6c0,1.1,0.6,1.9,1.5,1.9c0.9,0,1.5-0.8,1.5-1.9c0-0.8-0.4-1.9-1.5-1.9
			S145.4,587.7,145.4,588.6z"/>
		<path class="st17" d="M150.4,590.2c0.3,0.2,0.7,0.4,1.2,0.4c0.7,0,1-0.3,1-0.7c0-0.4-0.3-0.7-0.9-0.9c-0.9-0.3-1.3-0.8-1.3-1.4
			c0-0.8,0.6-1.5,1.7-1.5c0.5,0,0.9,0.1,1.2,0.3L153,587c-0.2-0.1-0.6-0.3-1-0.3c-0.5,0-0.8,0.3-0.8,0.7c0,0.4,0.3,0.6,0.9,0.8
			c0.9,0.3,1.3,0.8,1.3,1.5c0,0.9-0.7,1.5-1.9,1.5c-0.5,0-1.1-0.1-1.4-0.3L150.4,590.2z"/>
		<path class="st17" d="M164,583.8v6c0,0.4,0,0.9,0,1.3h-0.8l0-0.9h0c-0.3,0.6-0.9,1-1.7,1c-1.2,0-2.1-1-2.1-2.5
			c0-1.7,1-2.7,2.2-2.7c0.8,0,1.3,0.4,1.5,0.8h0v-3H164z M163.1,588.2c0-0.1,0-0.3,0-0.4c-0.1-0.6-0.6-1.1-1.3-1.1
			c-0.9,0-1.5,0.8-1.5,1.9c0,1,0.5,1.8,1.5,1.8c0.6,0,1.2-0.4,1.3-1.1c0-0.1,0-0.2,0-0.4V588.2z"/>
		<path class="st17" d="M166.1,588.8c0,1.2,0.8,1.7,1.7,1.7c0.6,0,1-0.1,1.4-0.3l0.2,0.6c-0.3,0.1-0.9,0.3-1.7,0.3
			c-1.5,0-2.5-1-2.5-2.5s0.9-2.7,2.3-2.7c1.6,0,2.1,1.4,2.1,2.3c0,0.2,0,0.3,0,0.4H166.1z M168.7,588.1c0-0.6-0.2-1.5-1.3-1.5
			c-0.9,0-1.3,0.8-1.4,1.5H168.7z"/>
		<path class="st17" d="M175.9,587.5c0-0.5,0-0.9,0-1.3h0.8l0,0.8h0c0.3-0.5,0.7-0.9,1.6-0.9c0.7,0,1.2,0.4,1.4,1h0
			c0.2-0.3,0.4-0.5,0.6-0.6c0.3-0.2,0.6-0.4,1.1-0.4c0.7,0,1.6,0.4,1.6,2.2v2.9h-0.9v-2.8c0-1-0.4-1.5-1.1-1.5
			c-0.5,0-0.9,0.4-1.1,0.8c0,0.1-0.1,0.3-0.1,0.5v3.1H179v-3c0-0.8-0.4-1.4-1-1.4c-0.6,0-1,0.5-1.1,0.9c-0.1,0.1-0.1,0.3-0.1,0.4v3
			h-0.9V587.5z"/>
		<path class="st17" d="M187.2,591.1l-0.1-0.6h0c-0.3,0.4-0.8,0.7-1.5,0.7c-1,0-1.5-0.7-1.5-1.4c0-1.2,1.1-1.9,3-1.9v-0.1
			c0-0.4-0.1-1.2-1.1-1.2c-0.5,0-0.9,0.1-1.3,0.4l-0.2-0.6c0.4-0.3,1-0.4,1.6-0.4c1.5,0,1.9,1,1.9,2v1.9c0,0.4,0,0.9,0.1,1.2H187.2z
			 M187.1,588.6c-1,0-2.1,0.2-2.1,1.1c0,0.6,0.4,0.9,0.9,0.9c0.6,0,1.1-0.4,1.2-0.8c0-0.1,0.1-0.2,0.1-0.3V588.6z"/>
		<path class="st17" d="M189.4,587.7c0-0.6,0-1.1,0-1.6h0.8l0,1h0c0.2-0.7,0.8-1.1,1.4-1.1c0.1,0,0.2,0,0.3,0v0.9
			c-0.1,0-0.2,0-0.3,0c-0.6,0-1.1,0.5-1.2,1.2c0,0.1,0,0.3,0,0.4v2.7h-0.9V587.7z"/>
		<path class="st17" d="M196.3,590.9c-0.2,0.1-0.7,0.3-1.3,0.3l-0.3,0.4c0.4,0.1,0.7,0.3,0.7,0.7c0,0.6-0.5,0.8-1.1,0.8
			c-0.3,0-0.5-0.1-0.7-0.2l0.2-0.4c0.2,0.1,0.4,0.2,0.6,0.2c0.2,0,0.4-0.1,0.4-0.3c0-0.3-0.3-0.4-0.8-0.4l0.4-0.8
			c-1.3-0.2-2.1-1.1-2.1-2.5c0-1.5,1.1-2.6,2.7-2.6c0.5,0,1,0.1,1.3,0.3l-0.2,0.7c-0.2-0.1-0.6-0.2-1.1-0.2c-1.1,0-1.8,0.8-1.8,1.9
			c0,1.2,0.7,1.9,1.7,1.9c0.5,0,0.9-0.1,1.1-0.2L196.3,590.9z"/>
		<path class="st17" d="M203.6,584.7c0,0.3-0.2,0.6-0.6,0.6c-0.3,0-0.5-0.2-0.5-0.6c0-0.3,0.2-0.6,0.6-0.6
			C203.3,584.2,203.6,584.4,203.6,584.7z M202.5,591.1v-5h0.9v5H202.5z"/>
		<path class="st17" d="M210.1,587.5c0-0.5,0-0.9,0-1.3h0.8l0,0.8h0c0.3-0.5,0.7-0.9,1.6-0.9c0.7,0,1.2,0.4,1.4,1h0
			c0.2-0.3,0.4-0.5,0.6-0.6c0.3-0.2,0.6-0.4,1.1-0.4c0.7,0,1.6,0.4,1.6,2.2v2.9h-0.9v-2.8c0-1-0.4-1.5-1.1-1.5
			c-0.5,0-0.9,0.4-1.1,0.8c0,0.1-0.1,0.3-0.1,0.5v3.1h-0.9v-3c0-0.8-0.4-1.4-1-1.4c-0.6,0-1,0.5-1.1,0.9c-0.1,0.1-0.1,0.3-0.1,0.4v3
			h-0.9V587.5z"/>
		<path class="st17" d="M221.5,591.1l-0.1-0.6h0c-0.3,0.4-0.8,0.7-1.5,0.7c-1,0-1.5-0.7-1.5-1.4c0-1.2,1.1-1.9,3-1.9v-0.1
			c0-0.4-0.1-1.2-1.1-1.2c-0.5,0-0.9,0.1-1.3,0.4l-0.2-0.6c0.4-0.3,1-0.4,1.6-0.4c1.5,0,1.9,1,1.9,2v1.9c0,0.4,0,0.9,0.1,1.2H221.5z
			 M221.3,588.6c-1,0-2.1,0.2-2.1,1.1c0,0.6,0.4,0.9,0.9,0.9c0.6,0,1.1-0.4,1.2-0.8c0-0.1,0.1-0.2,0.1-0.3V588.6z"/>
		<path class="st17" d="M224.7,584.7c0,0.3-0.2,0.6-0.6,0.6c-0.3,0-0.5-0.2-0.5-0.6c0-0.3,0.2-0.6,0.6-0.6
			C224.5,584.2,224.7,584.4,224.7,584.7z M223.7,591.1v-5h0.9v5H223.7z"/>
		<path class="st17" d="M230.4,586.1c0,0.4,0,0.8,0,1.4v2.9c0,1.1-0.2,1.8-0.7,2.3c-0.5,0.5-1.2,0.6-1.8,0.6c-0.6,0-1.3-0.1-1.7-0.4
			l0.2-0.7c0.3,0.2,0.8,0.4,1.5,0.4c0.9,0,1.6-0.5,1.6-1.7v-0.6h0c-0.3,0.5-0.8,0.8-1.6,0.8c-1.2,0-2.1-1.1-2.1-2.4
			c0-1.7,1.1-2.6,2.2-2.6c0.9,0,1.3,0.5,1.6,0.9h0l0-0.8H230.4z M229.4,588.1c0-0.2,0-0.3-0.1-0.4c-0.2-0.5-0.6-1-1.3-1
			c-0.9,0-1.5,0.7-1.5,1.9c0,1,0.5,1.8,1.5,1.8c0.6,0,1.1-0.3,1.3-0.9c0.1-0.2,0.1-0.3,0.1-0.5V588.1z"/>
		<path class="st17" d="M237,587.5c0-0.5,0-0.9,0-1.3h0.8l0.1,0.8h0c0.2-0.5,0.8-0.9,1.6-0.9c0.7,0,1.8,0.4,1.8,2.1v3h-0.9v-2.9
			c0-0.8-0.3-1.5-1.2-1.5c-0.6,0-1.1,0.4-1.2,0.9c0,0.1-0.1,0.3-0.1,0.4v3H237V587.5z"/>
		<path class="st17" d="M247.2,588.6c0,1.8-1.3,2.6-2.5,2.6c-1.3,0-2.4-1-2.4-2.6c0-1.7,1.1-2.6,2.5-2.6
			C246.2,586,247.2,587.1,247.2,588.6z M243.3,588.6c0,1.1,0.6,1.9,1.5,1.9c0.9,0,1.5-0.8,1.5-1.9c0-0.8-0.4-1.9-1.5-1.9
			S243.3,587.7,243.3,588.6z"/>
		<path class="st17" d="M254,588.8c0,1.2,0.8,1.7,1.7,1.7c0.6,0,1-0.1,1.4-0.3l0.2,0.6c-0.3,0.1-0.9,0.3-1.7,0.3
			c-1.5,0-2.5-1-2.5-2.5s0.9-2.7,2.3-2.7c1.6,0,2.1,1.4,2.1,2.3c0,0.2,0,0.3,0,0.4H254z M256.7,588.1c0-0.6-0.2-1.5-1.3-1.5
			c-0.9,0-1.3,0.8-1.4,1.5H256.7z"/>
		<path class="st17" d="M258.5,590.2c0.3,0.2,0.7,0.4,1.2,0.4c0.7,0,1-0.3,1-0.7c0-0.4-0.3-0.7-0.9-0.9c-0.9-0.3-1.3-0.8-1.3-1.4
			c0-0.8,0.6-1.5,1.7-1.5c0.5,0,0.9,0.1,1.2,0.3l-0.2,0.7c-0.2-0.1-0.6-0.3-1-0.3c-0.5,0-0.8,0.3-0.8,0.7c0,0.4,0.3,0.6,0.9,0.8
			c0.9,0.3,1.3,0.8,1.3,1.5c0,0.9-0.7,1.5-1.9,1.5c-0.5,0-1.1-0.1-1.4-0.3L258.5,590.2z"/>
		<path class="st17" d="M263.8,584.7v1.4h1.3v0.7h-1.3v2.7c0,0.6,0.2,1,0.7,1c0.2,0,0.4,0,0.5-0.1l0,0.7c-0.2,0.1-0.5,0.1-0.8,0.1
			c-0.4,0-0.8-0.1-1-0.4c-0.3-0.3-0.4-0.7-0.4-1.3v-2.7h-0.8v-0.7h0.8v-1.2L263.8,584.7z"/>
		<path class="st17" d="M268.9,591.1l-0.1-0.6h0c-0.3,0.4-0.8,0.7-1.5,0.7c-1,0-1.5-0.7-1.5-1.4c0-1.2,1.1-1.9,3-1.9v-0.1
			c0-0.4-0.1-1.2-1.1-1.2c-0.5,0-0.9,0.1-1.3,0.4l-0.2-0.6c0.4-0.3,1-0.4,1.6-0.4c1.5,0,1.9,1,1.9,2v1.9c0,0.4,0,0.9,0.1,1.2H268.9z
			 M268.8,588.6c-1,0-2.1,0.2-2.1,1.1c0,0.6,0.4,0.9,0.9,0.9c0.6,0,1.1-0.4,1.2-0.8c0-0.1,0.1-0.2,0.1-0.3V588.6z"/>
		<path class="st17" d="M271.1,587.5c0-0.5,0-0.9,0-1.3h0.8l0.1,0.8h0c0.2-0.5,0.8-0.9,1.6-0.9c0.7,0,1.8,0.4,1.8,2.1v3h-0.9v-2.9
			c0-0.8-0.3-1.5-1.2-1.5c-0.6,0-1.1,0.4-1.2,0.9c0,0.1-0.1,0.3-0.1,0.4v3h-0.9V587.5z"/>
		<path class="st17" d="M286.3,583.8v6c0,0.4,0,0.9,0,1.3h-0.8l0-0.9h0c-0.3,0.6-0.9,1-1.7,1c-1.2,0-2.1-1-2.1-2.5
			c0-1.7,1-2.7,2.2-2.7c0.8,0,1.3,0.4,1.5,0.8h0v-3H286.3z M285.4,588.2c0-0.1,0-0.3,0-0.4c-0.1-0.6-0.6-1.1-1.3-1.1
			c-0.9,0-1.5,0.8-1.5,1.9c0,1,0.5,1.8,1.5,1.8c0.6,0,1.2-0.4,1.3-1.1c0-0.1,0-0.2,0-0.4V588.2z"/>
		<path class="st17" d="M288.8,584.7c0,0.3-0.2,0.6-0.6,0.6c-0.3,0-0.5-0.2-0.5-0.6c0-0.3,0.2-0.6,0.6-0.6
			C288.6,584.2,288.8,584.4,288.8,584.7z M287.8,591.1v-5h0.9v5H287.8z"/>
		<path class="st17" d="M290.1,590.2c0.3,0.2,0.7,0.4,1.2,0.4c0.7,0,1-0.3,1-0.7c0-0.4-0.3-0.7-0.9-0.9c-0.9-0.3-1.3-0.8-1.3-1.4
			c0-0.8,0.6-1.5,1.7-1.5c0.5,0,0.9,0.1,1.2,0.3l-0.2,0.7c-0.2-0.1-0.6-0.3-1-0.3c-0.5,0-0.8,0.3-0.8,0.7c0,0.4,0.3,0.6,0.9,0.8
			c0.9,0.3,1.3,0.8,1.3,1.5c0,0.9-0.7,1.5-1.9,1.5c-0.5,0-1.1-0.1-1.4-0.3L290.1,590.2z"/>
		<path class="st17" d="M294.3,587.8c0-0.6,0-1.2,0-1.6h0.8l0,0.9h0c0.4-0.6,1-1,1.8-1c1.2,0,2.1,1,2.1,2.5c0,1.8-1.1,2.7-2.3,2.7
			c-0.7,0-1.2-0.3-1.5-0.8h0v2.7h-0.9V587.8z M295.2,589.1c0,0.1,0,0.3,0,0.4c0.2,0.6,0.7,1.1,1.4,1.1c1,0,1.5-0.8,1.5-1.9
			c0-1-0.5-1.9-1.5-1.9c-0.6,0-1.2,0.4-1.4,1.1c0,0.1-0.1,0.2-0.1,0.4V589.1z"/>
		<path class="st17" d="M304.6,588.6c0,1.8-1.3,2.6-2.5,2.6c-1.3,0-2.4-1-2.4-2.6c0-1.7,1.1-2.6,2.5-2.6
			C303.7,586,304.6,587.1,304.6,588.6z M300.7,588.6c0,1.1,0.6,1.9,1.5,1.9c0.9,0,1.5-0.8,1.5-1.9c0-0.8-0.4-1.9-1.5-1.9
			S300.7,587.7,300.7,588.6z"/>
		<path class="st17" d="M305.8,587.5c0-0.5,0-0.9,0-1.3h0.8l0.1,0.8h0c0.2-0.5,0.8-0.9,1.6-0.9c0.7,0,1.8,0.4,1.8,2.1v3h-0.9v-2.9
			c0-0.8-0.3-1.5-1.2-1.5c-0.6,0-1.1,0.4-1.2,0.9c0,0.1-0.1,0.3-0.1,0.4v3h-0.9V587.5z"/>
		<path class="st17" d="M312.5,584.7c0,0.3-0.2,0.6-0.6,0.6c-0.3,0-0.5-0.2-0.5-0.6c0-0.3,0.2-0.6,0.6-0.6
			C312.3,584.2,312.5,584.4,312.5,584.7z M311.5,591.1v-5h0.9v5H311.5z"/>
		<path class="st17" d="M313.9,591.1c0-0.3,0-0.8,0-1.3v-6h0.9v3.1h0c0.3-0.6,0.9-0.9,1.7-0.9c1.2,0,2.1,1,2.1,2.5
			c0,1.8-1.1,2.7-2.2,2.7c-0.7,0-1.3-0.3-1.7-0.9h0l0,0.8H313.9z M314.8,589.1c0,0.1,0,0.2,0,0.3c0.2,0.6,0.7,1.1,1.4,1.1
			c0.9,0,1.5-0.8,1.5-1.9c0-1-0.5-1.9-1.5-1.9c-0.6,0-1.2,0.4-1.4,1.1c0,0.1-0.1,0.2-0.1,0.4V589.1z"/>
		<path class="st17" d="M319.8,583.8h0.9v7.3h-0.9V583.8z"/>
		<path class="st17" d="M322.7,588.8c0,1.2,0.8,1.7,1.7,1.7c0.6,0,1-0.1,1.4-0.3l0.2,0.6c-0.3,0.1-0.9,0.3-1.7,0.3
			c-1.5,0-2.5-1-2.5-2.5s0.9-2.7,2.3-2.7c1.6,0,2.1,1.4,2.1,2.3c0,0.2,0,0.3,0,0.4H322.7z M325.4,588.1c0-0.6-0.2-1.5-1.3-1.5
			c-0.9,0-1.3,0.8-1.4,1.5H325.4z"/>
		<path class="st17" d="M327.2,590.2c0.3,0.2,0.7,0.4,1.2,0.4c0.7,0,1-0.3,1-0.7c0-0.4-0.3-0.7-0.9-0.9c-0.9-0.3-1.3-0.8-1.3-1.4
			c0-0.8,0.6-1.5,1.7-1.5c0.5,0,0.9,0.1,1.2,0.3l-0.2,0.7c-0.2-0.1-0.6-0.3-1-0.3c-0.5,0-0.8,0.3-0.8,0.7c0,0.4,0.3,0.6,0.9,0.8
			c0.9,0.3,1.3,0.8,1.3,1.5c0,0.9-0.7,1.5-1.9,1.5c-0.5,0-1.1-0.1-1.4-0.3L327.2,590.2z"/>
		<path class="st17" d="M331.3,592.8v-0.2c0.3-0.1,0.6-0.3,0.7-0.5c0.2-0.2,0.3-0.5,0.3-0.8l0-0.2l-0.1,0l-0.4,0.1
			c-0.4,0-0.5-0.2-0.5-0.6c0-0.2,0.1-0.3,0.2-0.4c0.1-0.1,0.3-0.2,0.5-0.2c0.3,0,0.5,0.1,0.6,0.4c0.1,0.2,0.2,0.4,0.2,0.7
			C332.7,591.9,332.3,592.5,331.3,592.8z"/>
		<path class="st17" d="M343.5,583.8v6c0,0.4,0,0.9,0,1.3h-0.8l0-0.9h0c-0.3,0.6-0.9,1-1.7,1c-1.2,0-2.1-1-2.1-2.5
			c0-1.7,1-2.7,2.2-2.7c0.8,0,1.3,0.4,1.5,0.8h0v-3H343.5z M342.6,588.2c0-0.1,0-0.3,0-0.4c-0.1-0.6-0.6-1.1-1.3-1.1
			c-0.9,0-1.5,0.8-1.5,1.9c0,1,0.5,1.8,1.5,1.8c0.6,0,1.2-0.4,1.3-1.1c0-0.1,0-0.2,0-0.4V588.2z"/>
		<path class="st17" d="M345.5,588.8c0,1.2,0.8,1.7,1.7,1.7c0.6,0,1-0.1,1.4-0.3l0.2,0.6c-0.3,0.1-0.9,0.3-1.7,0.3
			c-1.5,0-2.5-1-2.5-2.5s0.9-2.7,2.3-2.7c1.6,0,2.1,1.4,2.1,2.3c0,0.2,0,0.3,0,0.4H345.5z M348.1,588.1c0-0.6-0.2-1.5-1.3-1.5
			c-0.9,0-1.3,0.8-1.4,1.5H348.1z"/>
		<path class="st17" d="M354.4,586.1c0,0.4,0,0.8,0,1.4v2.9c0,1.1-0.2,1.8-0.7,2.3c-0.5,0.5-1.2,0.6-1.8,0.6c-0.6,0-1.3-0.1-1.7-0.4
			l0.2-0.7c0.3,0.2,0.8,0.4,1.5,0.4c0.9,0,1.6-0.5,1.6-1.7v-0.6h0c-0.3,0.5-0.8,0.8-1.6,0.8c-1.2,0-2.1-1.1-2.1-2.4
			c0-1.7,1.1-2.6,2.2-2.6c0.9,0,1.3,0.5,1.6,0.9h0l0-0.8H354.4z M353.5,588.1c0-0.2,0-0.3-0.1-0.4c-0.2-0.5-0.6-1-1.3-1
			c-0.9,0-1.5,0.7-1.5,1.9c0,1,0.5,1.8,1.5,1.8c0.6,0,1.1-0.3,1.3-0.9c0.1-0.2,0.1-0.3,0.1-0.5V588.1z"/>
		<path class="st17" d="M360.1,589.8c0,0.5,0,1,0,1.4h-0.8l-0.1-0.8h0c-0.2,0.4-0.8,0.9-1.6,0.9c-0.8,0-1.7-0.4-1.7-2.2v-2.9h0.9
			v2.8c0,0.9,0.3,1.6,1.1,1.6c0.6,0,1-0.4,1.2-0.8c0.1-0.1,0.1-0.3,0.1-0.5v-3.1h0.9V589.8z"/>
		<path class="st17" d="M362.7,584.7v1.4h1.3v0.7h-1.3v2.7c0,0.6,0.2,1,0.7,1c0.2,0,0.4,0,0.5-0.1l0,0.7c-0.2,0.1-0.5,0.1-0.8,0.1
			c-0.4,0-0.8-0.1-1-0.4c-0.3-0.3-0.3-0.7-0.3-1.3v-2.7H361v-0.7h0.8v-1.2L362.7,584.7z"/>
		<path class="st17" d="M372.9,591.1l-0.1-0.6h0c-0.3,0.4-0.8,0.7-1.5,0.7c-1,0-1.5-0.7-1.5-1.4c0-1.2,1.1-1.9,3-1.9v-0.1
			c0-0.4-0.1-1.2-1.1-1.2c-0.5,0-0.9,0.1-1.3,0.4l-0.2-0.6c0.4-0.3,1-0.4,1.6-0.4c1.5,0,1.9,1,1.9,2v1.9c0,0.4,0,0.9,0.1,1.2H372.9z
			 M372.8,588.6c-1,0-2.1,0.2-2.1,1.1c0,0.6,0.4,0.9,0.9,0.9c0.6,0,1.1-0.4,1.2-0.8c0-0.1,0.1-0.2,0.1-0.3V588.6z"/>
		<path class="st17" d="M375.1,583.8h0.9v7.3h-0.9V583.8z"/>
		<path class="st17" d="M383.8,584.7v1.4h1.3v0.7h-1.3v2.7c0,0.6,0.2,1,0.7,1c0.2,0,0.4,0,0.5-0.1l0,0.7c-0.2,0.1-0.5,0.1-0.8,0.1
			c-0.4,0-0.8-0.1-1-0.4c-0.3-0.3-0.3-0.7-0.3-1.3v-2.7h-0.8v-0.7h0.8v-1.2L383.8,584.7z"/>
		<path class="st17" d="M388.8,591.1l-0.1-0.6h0c-0.3,0.4-0.8,0.7-1.5,0.7c-1,0-1.5-0.7-1.5-1.4c0-1.2,1.1-1.9,3-1.9v-0.1
			c0-0.4-0.1-1.2-1.1-1.2c-0.5,0-0.9,0.1-1.3,0.4l-0.2-0.6c0.4-0.3,1-0.4,1.6-0.4c1.5,0,1.9,1,1.9,2v1.9c0,0.4,0,0.9,0.1,1.2H388.8z
			 M388.7,588.6c-1,0-2.1,0.2-2.1,1.1c0,0.6,0.4,0.9,0.9,0.9c0.6,0,1.1-0.4,1.2-0.8c0-0.1,0.1-0.2,0.1-0.3V588.6z"/>
		<path class="st17" d="M391.1,587.5c0-0.5,0-0.9,0-1.3h0.8l0.1,0.8h0c0.2-0.5,0.8-0.9,1.6-0.9c0.7,0,1.8,0.4,1.8,2.1v3h-0.9v-2.9
			c0-0.8-0.3-1.5-1.2-1.5c-0.6,0-1.1,0.4-1.2,0.9c0,0.1-0.1,0.3-0.1,0.4v3h-0.9V587.5z"/>
		<path class="st17" d="M400.3,590.9c-0.2,0.1-0.8,0.3-1.4,0.3c-1.5,0-2.5-1-2.5-2.5c0-1.5,1.1-2.6,2.7-2.6c0.5,0,1,0.1,1.3,0.3
			l-0.2,0.7c-0.2-0.1-0.6-0.2-1.1-0.2c-1.1,0-1.8,0.8-1.8,1.9c0,1.2,0.7,1.9,1.7,1.9c0.5,0,0.9-0.1,1.1-0.2L400.3,590.9z"/>
		<path class="st17" d="M404.1,591.1l-0.1-0.6h0c-0.3,0.4-0.8,0.7-1.5,0.7c-1,0-1.5-0.7-1.5-1.4c0-1.2,1.1-1.9,3-1.9v-0.1
			c0-0.4-0.1-1.2-1.1-1.2c-0.5,0-0.9,0.1-1.3,0.4l-0.2-0.6c0.4-0.3,1-0.4,1.6-0.4c1.5,0,1.9,1,1.9,2v1.9c0,0.4,0,0.9,0.1,1.2H404.1z
			 M404,588.6c-1,0-2.1,0.2-2.1,1.1c0,0.6,0.4,0.9,0.9,0.9c0.6,0,1.1-0.4,1.2-0.8c0-0.1,0.1-0.2,0.1-0.3V588.6z"/>
		<path class="st17" d="M406.3,587.5c0-0.5,0-0.9,0-1.3h0.8l0,0.8h0c0.3-0.5,0.7-0.9,1.6-0.9c0.7,0,1.2,0.4,1.4,1h0
			c0.2-0.3,0.3-0.5,0.6-0.6c0.3-0.2,0.6-0.4,1.1-0.4c0.7,0,1.6,0.4,1.6,2.2v2.9h-0.9v-2.8c0-1-0.4-1.5-1.1-1.5
			c-0.5,0-0.9,0.4-1.1,0.8c0,0.1-0.1,0.3-0.1,0.5v3.1h-0.9v-3c0-0.8-0.3-1.4-1-1.4c-0.6,0-1,0.5-1.1,0.9c-0.1,0.1-0.1,0.3-0.1,0.4v3
			h-0.9V587.5z"/>
		<path class="st17" d="M415.4,588.8c0,1.2,0.8,1.7,1.7,1.7c0.6,0,1-0.1,1.4-0.3l0.2,0.6c-0.3,0.1-0.9,0.3-1.7,0.3
			c-1.5,0-2.5-1-2.5-2.5s0.9-2.7,2.3-2.7c1.6,0,2.1,1.4,2.1,2.3c0,0.2,0,0.3,0,0.4H415.4z M418.1,588.1c0-0.6-0.2-1.5-1.3-1.5
			c-0.9,0-1.3,0.8-1.4,1.5H418.1z"/>
		<path class="st17" d="M420.1,587.5c0-0.5,0-0.9,0-1.3h0.8l0.1,0.8h0c0.2-0.5,0.8-0.9,1.6-0.9c0.7,0,1.8,0.4,1.8,2.1v3h-0.9v-2.9
			c0-0.8-0.3-1.5-1.2-1.5c-0.6,0-1.1,0.4-1.2,0.9c0,0.1-0.1,0.3-0.1,0.4v3h-0.9V587.5z"/>
		<path class="st17" d="M426.9,584.7v1.4h1.3v0.7h-1.3v2.7c0,0.6,0.2,1,0.7,1c0.2,0,0.4,0,0.5-0.1l0,0.7c-0.2,0.1-0.5,0.1-0.8,0.1
			c-0.4,0-0.8-0.1-1-0.4c-0.3-0.3-0.4-0.7-0.4-1.3v-2.7h-0.8v-0.7h0.8v-1.2L426.9,584.7z"/>
		<path class="st17" d="M438.7,583.8v6c0,0.4,0,0.9,0,1.3h-0.8l0-0.9h0c-0.3,0.6-0.9,1-1.7,1c-1.2,0-2.1-1-2.1-2.5
			c0-1.7,1-2.7,2.2-2.7c0.8,0,1.3,0.4,1.5,0.8h0v-3H438.7z M437.8,588.2c0-0.1,0-0.3,0-0.4c-0.1-0.6-0.6-1.1-1.3-1.1
			c-0.9,0-1.5,0.8-1.5,1.9c0,1,0.5,1.8,1.5,1.8c0.6,0,1.2-0.4,1.3-1.1c0-0.1,0-0.2,0-0.4V588.2z"/>
		<path class="st17" d="M439.9,584.3c0-0.2,0.1-0.3,0.2-0.4c0.1-0.1,0.3-0.2,0.4-0.2c0.3,0,0.5,0.1,0.7,0.4c0.2,0.2,0.3,0.5,0.3,0.8
			c0,0.4-0.2,0.8-0.5,1.1c-0.3,0.4-0.7,0.5-1,0.5l-0.1-0.1c0.1-0.1,0.2-0.2,0.4-0.4c0.2-0.1,0.4-0.2,0.4-0.3
			c0.1-0.2,0.2-0.4,0.2-0.6c0-0.1,0-0.3-0.1-0.5c-0.1,0.1-0.2,0.1-0.3,0.1c-0.2,0-0.3-0.1-0.4-0.2
			C440,584.6,439.9,584.4,439.9,584.3z"/>
		<path class="st17" d="M443.1,588.8c0,1.2,0.8,1.7,1.7,1.7c0.6,0,1-0.1,1.4-0.3l0.2,0.6c-0.3,0.1-0.9,0.3-1.7,0.3
			c-1.5,0-2.5-1-2.5-2.5s0.9-2.7,2.3-2.7c1.6,0,2.1,1.4,2.1,2.3c0,0.2,0,0.3,0,0.4H443.1z M445.8,588.1c0-0.6-0.2-1.5-1.3-1.5
			c-0.9,0-1.3,0.8-1.4,1.5H445.8z"/>
		<path class="st17" d="M447.6,590.2c0.3,0.2,0.7,0.4,1.2,0.4c0.7,0,1-0.3,1-0.7c0-0.4-0.3-0.7-0.9-0.9c-0.9-0.3-1.3-0.8-1.3-1.4
			c0-0.8,0.6-1.5,1.7-1.5c0.5,0,0.9,0.1,1.2,0.3l-0.2,0.7c-0.2-0.1-0.6-0.3-1-0.3c-0.5,0-0.8,0.3-0.8,0.7c0,0.4,0.3,0.6,0.9,0.8
			c0.9,0.3,1.3,0.8,1.3,1.5c0,0.9-0.7,1.5-1.9,1.5c-0.5,0-1.1-0.1-1.4-0.3L447.6,590.2z"/>
		<path class="st17" d="M452.9,584.7v1.4h1.3v0.7h-1.3v2.7c0,0.6,0.2,1,0.7,1c0.2,0,0.4,0,0.5-0.1l0,0.7c-0.2,0.1-0.5,0.1-0.8,0.1
			c-0.4,0-0.8-0.1-1-0.4c-0.3-0.3-0.4-0.7-0.4-1.3v-2.7h-0.8v-0.7h0.8v-1.2L452.9,584.7z"/>
		<path class="st17" d="M458,591.1l-0.1-0.6h0c-0.3,0.4-0.8,0.7-1.5,0.7c-1,0-1.5-0.7-1.5-1.4c0-1.2,1.1-1.9,3-1.9v-0.1
			c0-0.4-0.1-1.2-1.1-1.2c-0.5,0-0.9,0.1-1.3,0.4l-0.2-0.6c0.4-0.3,1-0.4,1.6-0.4c1.5,0,1.9,1,1.9,2v1.9c0,0.4,0,0.9,0.1,1.2H458z
			 M457.9,588.6c-1,0-2.1,0.2-2.1,1.1c0,0.6,0.4,0.9,0.9,0.9c0.6,0,1.1-0.4,1.2-0.8c0-0.1,0.1-0.2,0.1-0.3V588.6z"/>
		<path class="st17" d="M460.2,591.1c0-0.3,0-0.8,0-1.3v-6h0.9v3.1h0c0.3-0.6,0.9-0.9,1.7-0.9c1.2,0,2.1,1,2.1,2.5
			c0,1.8-1.1,2.7-2.2,2.7c-0.7,0-1.3-0.3-1.7-0.9h0l0,0.8H460.2z M461.1,589.1c0,0.1,0,0.2,0,0.3c0.2,0.6,0.7,1.1,1.4,1.1
			c0.9,0,1.5-0.8,1.5-1.9c0-1-0.5-1.9-1.5-1.9c-0.6,0-1.2,0.4-1.4,1.1c0,0.1-0.1,0.2-0.1,0.4V589.1z"/>
		<path class="st17" d="M466.1,583.8h0.9v7.3h-0.9V583.8z"/>
		<path class="st17" d="M469.5,584.7c0,0.3-0.2,0.6-0.6,0.6c-0.3,0-0.5-0.2-0.5-0.6c0-0.3,0.2-0.6,0.6-0.6
			C469.3,584.2,469.5,584.4,469.5,584.7z M468.5,591.1v-5h0.9v5H468.5z"/>
		<path class="st17" d="M470.9,587.5c0-0.5,0-0.9,0-1.3h0.8l0,0.8h0c0.3-0.5,0.7-0.9,1.6-0.9c0.7,0,1.2,0.4,1.4,1h0
			c0.2-0.3,0.4-0.5,0.6-0.6c0.3-0.2,0.6-0.4,1.1-0.4c0.7,0,1.6,0.4,1.6,2.2v2.9h-0.9v-2.8c0-1-0.4-1.5-1.1-1.5
			c-0.5,0-0.9,0.4-1.1,0.8c0,0.1-0.1,0.3-0.1,0.5v3.1H474v-3c0-0.8-0.4-1.4-1-1.4c-0.6,0-1,0.5-1.1,0.9c-0.1,0.1-0.1,0.3-0.1,0.4v3
			h-0.9V587.5z"/>
		<path class="st17" d="M480,588.8c0,1.2,0.8,1.7,1.7,1.7c0.6,0,1-0.1,1.4-0.3l0.2,0.6c-0.3,0.1-0.9,0.3-1.7,0.3
			c-1.5,0-2.5-1-2.5-2.5s0.9-2.7,2.3-2.7c1.6,0,2.1,1.4,2.1,2.3c0,0.2,0,0.3,0,0.4H480z M482.7,588.1c0-0.6-0.2-1.5-1.3-1.5
			c-0.9,0-1.3,0.8-1.4,1.5H482.7z"/>
		<path class="st17" d="M484.7,587.5c0-0.5,0-0.9,0-1.3h0.8l0.1,0.8h0c0.2-0.5,0.8-0.9,1.6-0.9c0.7,0,1.8,0.4,1.8,2.1v3H488v-2.9
			c0-0.8-0.3-1.5-1.2-1.5c-0.6,0-1.1,0.4-1.2,0.9c0,0.1-0.1,0.3-0.1,0.4v3h-0.9V587.5z"/>
		<path class="st17" d="M491.5,584.7v1.4h1.3v0.7h-1.3v2.7c0,0.6,0.2,1,0.7,1c0.2,0,0.4,0,0.5-0.1l0,0.7c-0.2,0.1-0.5,0.1-0.8,0.1
			c-0.4,0-0.8-0.1-1-0.4c-0.3-0.3-0.4-0.7-0.4-1.3v-2.7h-0.8v-0.7h0.8v-1.2L491.5,584.7z"/>
		<path class="st17" d="M493.7,590.2c0.3,0.2,0.7,0.4,1.2,0.4c0.7,0,1-0.3,1-0.7c0-0.4-0.3-0.7-0.9-0.9c-0.9-0.3-1.3-0.8-1.3-1.4
			c0-0.8,0.6-1.5,1.7-1.5c0.5,0,0.9,0.1,1.2,0.3l-0.2,0.7c-0.2-0.1-0.6-0.3-1-0.3c-0.5,0-0.8,0.3-0.8,0.7c0,0.4,0.3,0.6,0.9,0.8
			c0.9,0.3,1.3,0.8,1.3,1.5c0,0.9-0.7,1.5-1.9,1.5c-0.5,0-1.1-0.1-1.4-0.3L493.7,590.2z"/>
		<path class="st17" d="M503,587.8c0-0.6,0-1.2,0-1.6h0.8l0,0.9h0c0.4-0.6,1-1,1.8-1c1.2,0,2.1,1,2.1,2.5c0,1.8-1.1,2.7-2.3,2.7
			c-0.7,0-1.2-0.3-1.5-0.8h0v2.7H503V587.8z M503.9,589.1c0,0.1,0,0.3,0,0.4c0.2,0.6,0.7,1.1,1.4,1.1c1,0,1.5-0.8,1.5-1.9
			c0-1-0.5-1.9-1.5-1.9c-0.6,0-1.2,0.4-1.4,1.1c0,0.1-0.1,0.2-0.1,0.4V589.1z"/>
		<path class="st17" d="M509.4,588.8c0,1.2,0.8,1.7,1.7,1.7c0.6,0,1-0.1,1.4-0.3l0.2,0.6c-0.3,0.1-0.9,0.3-1.7,0.3
			c-1.5,0-2.5-1-2.5-2.5s0.9-2.7,2.3-2.7c1.6,0,2.1,1.4,2.1,2.3c0,0.2,0,0.3,0,0.4H509.4z M512,588.1c0-0.6-0.2-1.5-1.3-1.5
			c-0.9,0-1.3,0.8-1.4,1.5H512z"/>
		<path class="st17" d="M514,587.7c0-0.6,0-1.1,0-1.6h0.8l0,1h0c0.2-0.7,0.8-1.1,1.4-1.1c0.1,0,0.2,0,0.3,0v0.9c-0.1,0-0.2,0-0.3,0
			c-0.6,0-1.1,0.5-1.2,1.2c0,0.1,0,0.3,0,0.4v2.7H514V587.7z"/>
		<path class="st17" d="M522.6,583.8h0.9v7.3h-0.9V583.8z"/>
		<path class="st17" d="M527.8,591.1l-0.1-0.6h0c-0.3,0.4-0.8,0.7-1.5,0.7c-1,0-1.5-0.7-1.5-1.4c0-1.2,1.1-1.9,3-1.9v-0.1
			c0-0.4-0.1-1.2-1.1-1.2c-0.5,0-0.9,0.1-1.3,0.4l-0.2-0.6c0.4-0.3,1-0.4,1.6-0.4c1.5,0,1.9,1,1.9,2v1.9c0,0.4,0,0.9,0.1,1.2H527.8z
			 M527.6,588.6c-1,0-2.1,0.2-2.1,1.1c0,0.6,0.4,0.9,0.9,0.9c0.6,0,1.1-0.4,1.2-0.8c0-0.1,0.1-0.2,0.1-0.3V588.6z"/>
		<path class="st17" d="M539.4,586.1c0,0.4,0,0.8,0,1.4v2.9c0,1.1-0.2,1.8-0.7,2.3c-0.5,0.5-1.2,0.6-1.8,0.6c-0.6,0-1.3-0.1-1.7-0.4
			l0.2-0.7c0.3,0.2,0.8,0.4,1.5,0.4c0.9,0,1.6-0.5,1.6-1.7v-0.6h0c-0.3,0.5-0.8,0.8-1.6,0.8c-1.2,0-2.1-1.1-2.1-2.4
			c0-1.7,1.1-2.6,2.2-2.6c0.9,0,1.3,0.5,1.6,0.9h0l0-0.8H539.4z M538.5,588.1c0-0.2,0-0.3-0.1-0.4c-0.2-0.5-0.6-1-1.3-1
			c-0.9,0-1.5,0.7-1.5,1.9c0,1,0.5,1.8,1.5,1.8c0.6,0,1.1-0.3,1.3-0.9c0.1-0.2,0.1-0.3,0.1-0.5V588.1z"/>
		<path class="st17" d="M541.4,588.8c0,1.2,0.8,1.7,1.7,1.7c0.6,0,1-0.1,1.4-0.3l0.2,0.6c-0.3,0.1-0.9,0.3-1.7,0.3
			c-1.5,0-2.5-1-2.5-2.5s0.9-2.7,2.3-2.7c1.6,0,2.1,1.4,2.1,2.3c0,0.2,0,0.3,0,0.4H541.4z M544,588.1c0-0.6-0.2-1.5-1.3-1.5
			c-0.9,0-1.3,0.8-1.4,1.5H544z"/>
		<path class="st17" d="M545.9,590.2c0.3,0.2,0.7,0.4,1.2,0.4c0.7,0,1-0.3,1-0.7c0-0.4-0.3-0.7-0.9-0.9c-0.9-0.3-1.3-0.8-1.3-1.4
			c0-0.8,0.6-1.5,1.7-1.5c0.5,0,0.9,0.1,1.2,0.3l-0.2,0.7c-0.2-0.1-0.6-0.3-1-0.3c-0.5,0-0.8,0.3-0.8,0.7c0,0.4,0.3,0.6,0.9,0.8
			c0.9,0.3,1.3,0.8,1.3,1.5c0,0.9-0.7,1.5-1.9,1.5c-0.5,0-1.1-0.1-1.4-0.3L545.9,590.2z"/>
		<path class="st17" d="M551.2,584.7v1.4h1.3v0.7h-1.3v2.7c0,0.6,0.2,1,0.7,1c0.2,0,0.4,0,0.5-0.1l0,0.7c-0.2,0.1-0.5,0.1-0.8,0.1
			c-0.4,0-0.8-0.1-1-0.4c-0.3-0.3-0.3-0.7-0.3-1.3v-2.7h-0.8v-0.7h0.8v-1.2L551.2,584.7z"/>
		<path class="st17" d="M554.5,584.7c0,0.3-0.2,0.6-0.6,0.6c-0.3,0-0.5-0.2-0.5-0.6c0-0.3,0.2-0.6,0.6-0.6
			C554.3,584.2,554.5,584.4,554.5,584.7z M553.5,591.1v-5h0.9v5H553.5z"/>
		<path class="st17" d="M560.4,588.6c0,1.8-1.3,2.6-2.5,2.6c-1.3,0-2.4-1-2.4-2.6c0-1.7,1.1-2.6,2.5-2.6
			C559.5,586,560.4,587.1,560.4,588.6z M556.5,588.6c0,1.1,0.6,1.9,1.5,1.9c0.9,0,1.5-0.8,1.5-1.9c0-0.8-0.4-1.9-1.5-1.9
			S556.5,587.7,556.5,588.6z M559.4,584l-1.3,1.5h-0.6l0.9-1.5H559.4z"/>
		<path class="st17" d="M571,583.8v6c0,0.4,0,0.9,0,1.3h-0.8l0-0.9h0c-0.3,0.6-0.9,1-1.7,1c-1.2,0-2.1-1-2.1-2.5
			c0-1.7,1-2.7,2.2-2.7c0.8,0,1.3,0.4,1.5,0.8h0v-3H571z M570.1,588.2c0-0.1,0-0.3,0-0.4c-0.1-0.6-0.6-1.1-1.3-1.1
			c-0.9,0-1.5,0.8-1.5,1.9c0,1,0.5,1.8,1.5,1.8c0.6,0,1.2-0.4,1.3-1.1c0-0.1,0-0.2,0-0.4V588.2z"/>
		<path class="st17" d="M573,588.8c0,1.2,0.8,1.7,1.7,1.7c0.6,0,1-0.1,1.4-0.3l0.2,0.6c-0.3,0.1-0.9,0.3-1.7,0.3
			c-1.5,0-2.5-1-2.5-2.5s0.9-2.7,2.3-2.7c1.6,0,2.1,1.4,2.1,2.3c0,0.2,0,0.3,0,0.4H573z M575.7,588.1c0-0.6-0.2-1.5-1.3-1.5
			c-0.9,0-1.3,0.8-1.4,1.5H575.7z"/>
		<path class="st17" d="M582.8,583.8h0.9v7.3h-0.9V583.8z"/>
		<path class="st17" d="M588,591.1l-0.1-0.6h0c-0.3,0.4-0.8,0.7-1.5,0.7c-1,0-1.5-0.7-1.5-1.4c0-1.2,1.1-1.9,3-1.9v-0.1
			c0-0.4-0.1-1.2-1.1-1.2c-0.5,0-0.9,0.1-1.3,0.4l-0.2-0.6c0.4-0.3,1-0.4,1.6-0.4c1.5,0,1.9,1,1.9,2v1.9c0,0.4,0,0.9,0.1,1.2H588z
			 M587.9,588.6c-1,0-2.1,0.2-2.1,1.1c0,0.6,0.4,0.9,0.9,0.9c0.6,0,1.1-0.4,1.2-0.8c0-0.1,0.1-0.2,0.1-0.3V588.6z"/>
		<path class="st17" d="M598.9,590.9c-0.2,0.1-0.8,0.3-1.4,0.3c-1.5,0-2.5-1-2.5-2.5c0-1.5,1.1-2.6,2.7-2.6c0.5,0,1,0.1,1.3,0.3
			l-0.2,0.7c-0.2-0.1-0.6-0.2-1.1-0.2c-1.1,0-1.8,0.8-1.8,1.9c0,1.2,0.7,1.9,1.7,1.9c0.5,0,0.9-0.1,1.1-0.2L598.9,590.9z"/>
		<path class="st17" d="M600,587.7c0-0.6,0-1.1,0-1.6h0.8l0,1h0c0.2-0.7,0.8-1.1,1.4-1.1c0.1,0,0.2,0,0.3,0v0.9c-0.1,0-0.2,0-0.3,0
			c-0.6,0-1.1,0.5-1.2,1.2c0,0.1,0,0.3,0,0.4v2.7H600V587.7z"/>
		<path class="st17" d="M604.4,584.7c0,0.3-0.2,0.6-0.6,0.6c-0.3,0-0.5-0.2-0.5-0.6c0-0.3,0.2-0.6,0.6-0.6
			C604.2,584.2,604.4,584.4,604.4,584.7z M603.4,591.1v-5h0.9v5H603.4z"/>
		<path class="st17" d="M605.7,590.2c0.3,0.2,0.7,0.4,1.2,0.4c0.7,0,1-0.3,1-0.7c0-0.4-0.3-0.7-0.9-0.9c-0.9-0.3-1.3-0.8-1.3-1.4
			c0-0.8,0.6-1.5,1.7-1.5c0.5,0,0.9,0.1,1.2,0.3l-0.2,0.7c-0.2-0.1-0.6-0.3-1-0.3c-0.5,0-0.8,0.3-0.8,0.7c0,0.4,0.3,0.6,0.9,0.8
			c0.9,0.3,1.3,0.8,1.3,1.5c0,0.9-0.7,1.5-1.9,1.5c-0.5,0-1.1-0.1-1.4-0.3L605.7,590.2z"/>
		<path class="st17" d="M610.9,584.7c0,0.3-0.2,0.6-0.6,0.6c-0.3,0-0.5-0.2-0.5-0.6c0-0.3,0.2-0.6,0.6-0.6
			C610.7,584.2,610.9,584.4,610.9,584.7z M609.9,591.1v-5h0.9v5H609.9z"/>
	</g>
</g>
<g>
	<g class="st14">
		<path class="st17" d="M44.9,602.5c0.3,0.2,0.7,0.4,1.2,0.4c0.7,0,1-0.3,1-0.7c0-0.4-0.3-0.7-0.9-0.9c-0.9-0.3-1.3-0.8-1.3-1.4
			c0-0.8,0.6-1.5,1.7-1.5c0.5,0,0.9,0.1,1.2,0.3l-0.2,0.7c-0.2-0.1-0.6-0.3-1-0.3c-0.5,0-0.8,0.3-0.8,0.7c0,0.4,0.3,0.6,0.9,0.8
			c0.9,0.3,1.3,0.8,1.3,1.5c0,0.9-0.7,1.5-1.9,1.5c-0.5,0-1.1-0.1-1.4-0.3L44.9,602.5z"/>
		<path class="st17" d="M51.9,603.5l-0.1-0.6h0c-0.3,0.4-0.8,0.7-1.5,0.7c-1,0-1.5-0.7-1.5-1.4c0-1.2,1.1-1.9,3-1.9v-0.1
			c0-0.4-0.1-1.2-1.1-1.2c-0.5,0-0.9,0.1-1.3,0.4l-0.2-0.6c0.4-0.3,1-0.4,1.6-0.4c1.5,0,1.9,1,1.9,2v1.9c0,0.4,0,0.9,0.1,1.2H51.9z
			 M51.7,600.9c-1,0-2.1,0.2-2.1,1.1c0,0.6,0.4,0.9,0.9,0.9c0.6,0,1.1-0.4,1.2-0.8c0-0.1,0.1-0.2,0.1-0.3V600.9z"/>
		<path class="st17" d="M54.1,599.8c0-0.5,0-0.9,0-1.3h0.8l0.1,0.8h0c0.2-0.5,0.8-0.9,1.6-0.9c0.7,0,1.8,0.4,1.8,2.1v3h-0.9v-2.9
			c0-0.8-0.3-1.5-1.2-1.5c-0.6,0-1.1,0.4-1.2,0.9c0,0.1-0.1,0.3-0.1,0.4v3h-0.9V599.8z"/>
		<path class="st17" d="M60.8,597.1c0,0.3-0.2,0.6-0.6,0.6c-0.3,0-0.5-0.2-0.5-0.6c0-0.3,0.2-0.6,0.6-0.6
			C60.6,596.5,60.8,596.8,60.8,597.1z M59.8,603.5v-5h0.9v5H59.8z"/>
		<path class="st17" d="M63.3,597.1v1.4h1.3v0.7h-1.3v2.7c0,0.6,0.2,1,0.7,1c0.2,0,0.4,0,0.5-0.1l0,0.7c-0.2,0.1-0.5,0.1-0.8,0.1
			c-0.4,0-0.8-0.1-1-0.4c-0.3-0.3-0.4-0.7-0.4-1.3v-2.7h-0.8v-0.7h0.8v-1.2L63.3,597.1z"/>
		<path class="st17" d="M68.4,603.5l-0.1-0.6h0c-0.3,0.4-0.8,0.7-1.5,0.7c-1,0-1.5-0.7-1.5-1.4c0-1.2,1.1-1.9,3-1.9v-0.1
			c0-0.4-0.1-1.2-1.1-1.2c-0.5,0-0.9,0.1-1.3,0.4l-0.2-0.6c0.4-0.3,1-0.4,1.6-0.4c1.5,0,1.9,1,1.9,2v1.9c0,0.4,0,0.9,0.1,1.2H68.4z
			 M66.8,596.3l0.9,1.5h-0.6l-1.3-1.5H66.8z M68.2,600.9c-1,0-2.1,0.2-2.1,1.1c0,0.6,0.4,0.9,0.9,0.9c0.6,0,1.1-0.4,1.2-0.8
			c0-0.1,0.1-0.2,0.1-0.3V600.9z"/>
		<path class="st17" d="M70.6,600c0-0.6,0-1.1,0-1.6h0.8l0,1h0c0.2-0.7,0.8-1.1,1.4-1.1c0.1,0,0.2,0,0.3,0v0.9c-0.1,0-0.2,0-0.3,0
			c-0.6,0-1.1,0.5-1.2,1.2c0,0.1,0,0.3,0,0.4v2.7h-0.9V600z"/>
		<path class="st17" d="M74.9,597.1c0,0.3-0.2,0.6-0.6,0.6c-0.3,0-0.5-0.2-0.5-0.6c0-0.3,0.2-0.6,0.6-0.6
			C74.7,596.5,74.9,596.8,74.9,597.1z M73.9,603.5v-5h0.9v5H73.9z"/>
		<path class="st17" d="M79.1,603.5l-0.1-0.6h0c-0.3,0.4-0.8,0.7-1.5,0.7c-1,0-1.5-0.7-1.5-1.4c0-1.2,1.1-1.9,3-1.9v-0.1
			c0-0.4-0.1-1.2-1.1-1.2c-0.5,0-0.9,0.1-1.3,0.4l-0.2-0.6c0.4-0.3,1-0.4,1.6-0.4c1.5,0,1.9,1,1.9,2v1.9c0,0.4,0,0.9,0.1,1.2H79.1z
			 M79,600.9c-1,0-2.1,0.2-2.1,1.1c0,0.6,0.4,0.9,0.9,0.9c0.6,0,1.1-0.4,1.2-0.8c0-0.1,0.1-0.2,0.1-0.3V600.9z"/>
		<path class="st17" d="M91,600.9c0,1.8-1.3,2.6-2.5,2.6c-1.3,0-2.4-1-2.4-2.6c0-1.7,1.1-2.6,2.5-2.6C90,598.4,91,599.4,91,600.9z
			 M87,601c0,1.1,0.6,1.9,1.5,1.9c0.9,0,1.5-0.8,1.5-1.9c0-0.8-0.4-1.9-1.5-1.9S87,600,87,601z"/>
		<path class="st17" d="M95.7,603.3c-0.2,0.1-0.8,0.3-1.4,0.3c-1.5,0-2.5-1-2.5-2.5c0-1.5,1.1-2.6,2.7-2.6c0.5,0,1,0.1,1.3,0.3
			l-0.2,0.7c-0.2-0.1-0.6-0.2-1.1-0.2c-1.1,0-1.8,0.8-1.8,1.9c0,1.2,0.7,1.9,1.7,1.9c0.5,0,0.9-0.1,1.1-0.2L95.7,603.3z"/>
		<path class="st17" d="M99.5,603.5l-0.1-0.6h0c-0.3,0.4-0.8,0.7-1.5,0.7c-1,0-1.5-0.7-1.5-1.4c0-1.2,1.1-1.9,3-1.9v-0.1
			c0-0.4-0.1-1.2-1.1-1.2c-0.5,0-0.9,0.1-1.3,0.4l-0.2-0.6c0.4-0.3,1-0.4,1.6-0.4c1.5,0,1.9,1,1.9,2v1.9c0,0.4,0,0.9,0.1,1.2H99.5z
			 M99.4,600.9c-1,0-2.1,0.2-2.1,1.1c0,0.6,0.4,0.9,0.9,0.9c0.6,0,1.1-0.4,1.2-0.8c0-0.1,0.1-0.2,0.1-0.3V600.9z"/>
		<path class="st17" d="M101.6,602.5c0.3,0.2,0.7,0.4,1.2,0.4c0.7,0,1-0.3,1-0.7c0-0.4-0.3-0.7-0.9-0.9c-0.9-0.3-1.3-0.8-1.3-1.4
			c0-0.8,0.6-1.5,1.7-1.5c0.5,0,0.9,0.1,1.2,0.3l-0.2,0.7c-0.2-0.1-0.6-0.3-1-0.3c-0.5,0-0.8,0.3-0.8,0.7c0,0.4,0.3,0.6,0.9,0.8
			c0.9,0.3,1.3,0.8,1.3,1.5c0,0.9-0.7,1.5-1.9,1.5c-0.5,0-1.1-0.1-1.4-0.3L101.6,602.5z"/>
		<path class="st17" d="M106.8,597.1c0,0.3-0.2,0.6-0.6,0.6c-0.3,0-0.5-0.2-0.5-0.6c0-0.3,0.2-0.6,0.6-0.6
			C106.6,596.5,106.8,596.8,106.8,597.1z M105.8,603.5v-5h0.9v5H105.8z"/>
		<path class="st17" d="M112.7,600.9c0,1.8-1.3,2.6-2.5,2.6c-1.3,0-2.4-1-2.4-2.6c0-1.7,1.1-2.6,2.5-2.6
			C111.7,598.4,112.7,599.4,112.7,600.9z M108.7,601c0,1.1,0.6,1.9,1.5,1.9c0.9,0,1.5-0.8,1.5-1.9c0-0.8-0.4-1.9-1.5-1.9
			S108.7,600,108.7,601z"/>
		<path class="st17" d="M113.8,599.8c0-0.5,0-0.9,0-1.3h0.8l0.1,0.8h0c0.2-0.5,0.8-0.9,1.6-0.9c0.7,0,1.8,0.4,1.8,2.1v3h-0.9v-2.9
			c0-0.8-0.3-1.5-1.2-1.5c-0.6,0-1.1,0.4-1.2,0.9c0,0.1-0.1,0.3-0.1,0.4v3h-0.9V599.8z"/>
		<path class="st17" d="M122.3,603.5l-0.1-0.6h0c-0.3,0.4-0.8,0.7-1.5,0.7c-1,0-1.5-0.7-1.5-1.4c0-1.2,1.1-1.9,3-1.9v-0.1
			c0-0.4-0.1-1.2-1.1-1.2c-0.5,0-0.9,0.1-1.3,0.4l-0.2-0.6c0.4-0.3,1-0.4,1.6-0.4c1.5,0,1.9,1,1.9,2v1.9c0,0.4,0,0.9,0.1,1.2H122.3z
			 M122.2,600.9c-1,0-2.1,0.2-2.1,1.1c0,0.6,0.4,0.9,0.9,0.9c0.6,0,1.1-0.4,1.2-0.8c0-0.1,0.1-0.2,0.1-0.3V600.9z"/>
		<path class="st17" d="M128.8,596.2v6c0,0.4,0,0.9,0,1.3H128l0-0.9h0c-0.3,0.6-0.9,1-1.7,1c-1.2,0-2.1-1-2.1-2.5
			c0-1.7,1-2.7,2.2-2.7c0.8,0,1.3,0.4,1.5,0.8h0v-3H128.8z M127.9,600.5c0-0.1,0-0.3,0-0.4c-0.1-0.6-0.6-1.1-1.3-1.1
			c-0.9,0-1.5,0.8-1.5,1.9c0,1,0.5,1.8,1.5,1.8c0.6,0,1.2-0.4,1.3-1.1c0-0.1,0-0.2,0-0.4V600.5z"/>
		<path class="st17" d="M133.1,603.5l-0.1-0.6h0c-0.3,0.4-0.8,0.7-1.5,0.7c-1,0-1.5-0.7-1.5-1.4c0-1.2,1.1-1.9,3-1.9v-0.1
			c0-0.4-0.1-1.2-1.1-1.2c-0.5,0-0.9,0.1-1.3,0.4l-0.2-0.6c0.4-0.3,1-0.4,1.6-0.4c1.5,0,1.9,1,1.9,2v1.9c0,0.4,0,0.9,0.1,1.2H133.1z
			 M133,600.9c-1,0-2.1,0.2-2.1,1.1c0,0.6,0.4,0.9,0.9,0.9c0.6,0,1.1-0.4,1.2-0.8c0-0.1,0.1-0.2,0.1-0.3V600.9z"/>
		<path class="st17" d="M140.4,600.1c0-0.6,0-1.2,0-1.6h0.8l0,0.9h0c0.4-0.6,1-1,1.8-1c1.2,0,2.1,1,2.1,2.5c0,1.8-1.1,2.7-2.3,2.7
			c-0.7,0-1.2-0.3-1.5-0.8h0v2.7h-0.9V600.1z M141.3,601.4c0,0.1,0,0.3,0,0.4c0.2,0.6,0.7,1.1,1.4,1.1c1,0,1.5-0.8,1.5-1.9
			c0-1-0.5-1.9-1.5-1.9c-0.6,0-1.2,0.4-1.4,1.1c0,0.1-0.1,0.2-0.1,0.4V601.4z"/>
		<path class="st17" d="M146.8,601.1c0,1.2,0.8,1.7,1.7,1.7c0.6,0,1-0.1,1.4-0.3l0.2,0.6c-0.3,0.1-0.9,0.3-1.7,0.3
			c-1.5,0-2.5-1-2.5-2.5s0.9-2.7,2.3-2.7c1.6,0,2.1,1.4,2.1,2.3c0,0.2,0,0.3,0,0.4H146.8z M149.5,600.5c0-0.6-0.2-1.5-1.3-1.5
			c-0.9,0-1.3,0.8-1.4,1.5H149.5z"/>
		<path class="st17" d="M151.5,600c0-0.6,0-1.1,0-1.6h0.8l0,1h0c0.2-0.7,0.8-1.1,1.4-1.1c0.1,0,0.2,0,0.3,0v0.9c-0.1,0-0.2,0-0.3,0
			c-0.6,0-1.1,0.5-1.2,1.2c0,0.1,0,0.3,0,0.4v2.7h-0.9V600z"/>
		<path class="st17" d="M160,596.2h0.9v7.3H160V596.2z"/>
		<path class="st17" d="M165.2,603.5l-0.1-0.6h0c-0.3,0.4-0.8,0.7-1.5,0.7c-1,0-1.5-0.7-1.5-1.4c0-1.2,1.1-1.9,3-1.9v-0.1
			c0-0.4-0.1-1.2-1.1-1.2c-0.5,0-0.9,0.1-1.3,0.4l-0.2-0.6c0.4-0.3,1-0.4,1.6-0.4c1.5,0,1.9,1,1.9,2v1.9c0,0.4,0,0.9,0.1,1.2H165.2z
			 M165,600.9c-1,0-2.1,0.2-2.1,1.1c0,0.6,0.4,0.9,0.9,0.9c0.6,0,1.1-0.4,1.2-0.8c0-0.1,0.1-0.2,0.1-0.3V600.9z"/>
		<path class="st17" d="M177.4,603.2c-0.3,0.2-1,0.3-1.8,0.3c-2,0-3.4-1.2-3.4-3.5c0-2.2,1.5-3.6,3.6-3.6c0.9,0,1.4,0.2,1.6,0.3
			l-0.2,0.7c-0.3-0.2-0.8-0.3-1.4-0.3c-1.6,0-2.7,1-2.7,2.9c0,1.7,1,2.8,2.7,2.8c0.5,0,1.1-0.1,1.5-0.3L177.4,603.2z"/>
		<path class="st17" d="M183,600.9c0,1.8-1.3,2.6-2.5,2.6c-1.3,0-2.4-1-2.4-2.6c0-1.7,1.1-2.6,2.5-2.6
			C182,598.4,183,599.4,183,600.9z M179.1,601c0,1.1,0.6,1.9,1.5,1.9c0.9,0,1.5-0.8,1.5-1.9c0-0.8-0.4-1.9-1.5-1.9
			S179.1,600,179.1,601z"/>
		<path class="st17" d="M184.5,598.5l1,2.8c0.2,0.5,0.3,0.9,0.4,1.3h0c0.1-0.4,0.3-0.8,0.4-1.3l1-2.8h0.9l-2,5h-0.9l-1.9-5H184.5z"
			/>
		<path class="st17" d="M190.1,597.1c0,0.3-0.2,0.6-0.6,0.6c-0.3,0-0.5-0.2-0.5-0.6c0-0.3,0.2-0.6,0.6-0.6
			C189.9,596.5,190.1,596.8,190.1,597.1z M189.1,603.5v-5h0.9v5H189.1z"/>
		<path class="st17" d="M195.8,596.2v6c0,0.4,0,0.9,0,1.3H195l0-0.9h0c-0.3,0.6-0.9,1-1.7,1c-1.2,0-2.1-1-2.1-2.5
			c0-1.7,1-2.7,2.2-2.7c0.8,0,1.3,0.4,1.5,0.8h0v-3H195.8z M194.9,600.5c0-0.1,0-0.3,0-0.4c-0.1-0.6-0.6-1.1-1.3-1.1
			c-0.9,0-1.5,0.8-1.5,1.9c0,1,0.5,1.8,1.5,1.8c0.6,0,1.2-0.4,1.3-1.1c0-0.1,0-0.2,0-0.4V600.5z"/>
		<path class="st17" d="M196.9,600.9V600h2.8v0.9H196.9z"/>
		<path class="st17" d="M203.2,603.1l1.4,0.1v0.3h-3.6v-0.3l1.4-0.1v-5.5l-1.4,0.5v-0.3l2-1.1h0.3V603.1z"/>
		<path class="st17" d="M205.5,598.8c0-0.7,0.2-1.2,0.6-1.6s0.9-0.6,1.6-0.6c0.8,0,1.3,0.3,1.7,0.8c0.4,0.6,0.5,1.4,0.5,2.6
			c0,1.1-0.2,2-0.7,2.6s-1.1,0.9-1.9,0.9c-0.5,0-1-0.1-1.5-0.2v-1.2h0.3l0.2,0.7c0.1,0,0.3,0.1,0.4,0.1c0.2,0,0.4,0.1,0.5,0.1
			c0.5,0,0.9-0.2,1.2-0.7c0.3-0.5,0.4-1.2,0.5-2.1c-0.5,0.3-1,0.4-1.6,0.4c-0.6,0-1.1-0.2-1.4-0.5S205.5,599.4,205.5,598.8z
			 M207.7,597.1c-0.8,0-1.3,0.6-1.3,1.8c0,0.5,0.1,0.9,0.3,1.1c0.2,0.2,0.5,0.4,0.9,0.4c0.4,0,0.9-0.1,1.3-0.3c0-1-0.1-1.8-0.3-2.3
			C208.4,597.3,208.1,597.1,207.7,597.1z"/>
		<path class="st17" d="M211.2,602.7c0.1-0.1,0.2-0.2,0.4-0.2s0.3,0.1,0.4,0.2c0.1,0.1,0.2,0.2,0.2,0.4c0,0.2-0.1,0.3-0.2,0.4
			c-0.1,0.1-0.2,0.2-0.4,0.2c-0.1,0-0.3-0.1-0.4-0.2c-0.1-0.1-0.2-0.2-0.2-0.4C211,602.9,211.1,602.8,211.2,602.7z"/>
	</g>
</g>
<text transform="matrix(1 0 0 1 427.42 129.03)" class="st2 st3 st13">53,4</text>
<path class="st18" d="M588,523c-8.1-2.9-19.4-8-31-17c-14.3-11.1-23-23.3-27.9-31.4c-12.4-16.4-31.1-43.6-47.3-80.1
	c-52.9-120.1-39.5-253.9-50.4-254c-0.5,0-1,0.3-1.4,0.8c-19.4,22.4-35.4,86.8-52.6,128.5s-34.3,81.7-51.5,115.4
	c-0.4,0.9-0.3,0.5-0.4,0.7c0,0-0.1,0.2-0.3,0.6"/>
<path id="point-0-6-8-2-2_1_" class="st2" d="M526.2,474.3c0-1.7,1.4-3.1,3.1-3.1c1.7,0,3.1,1.4,3.1,3.1c0,1.7-1.4,3.1-3.1,3.1l0,0
	C527.7,477.4,526.3,476,526.2,474.3C526.2,474.3,526.2,474.3,526.2,474.3L526.2,474.3L526.2,474.3z"/>
<path id="point-0-6-14_1_" class="st2" d="M583.4,523.2c0-2.3,1.9-4.1,4.1-4.1c2.3,0,4.1,1.9,4.1,4.1c0,2.3-1.8,4.1-4.1,4.1
	C585.2,527.3,583.4,525.5,583.4,523.2C583.4,523.2,583.4,523.2,583.4,523.2z"/>
<text transform="matrix(1 0 0 1 592.3802 518.3499)" class="st2 st3 st13">0,8</text>
</svg>
