<?xml version="1.0" encoding="utf-8"?>
<!-- Generator: Adobe Illustrator 24.0.1, SVG Export Plug-In . SVG Version: 6.00 Build 0)  -->
<svg version="1.1" id="Capa_1" xmlns="http://www.w3.org/2000/svg" xmlns:xlink="http://www.w3.org/1999/xlink" x="0px" y="0px"
	 viewBox="0 0 702.5 644.5" style="enable-background:new 0 0 702.5 644.5;" xml:space="preserve">
<style type="text/css">
	.st0{fill:#FFFFFF;}
	.st1{fill:none;stroke:#EFEFEF;stroke-dasharray:0;}
	.st2{fill:#1C3761;}
	.st3{font-family:'SourceSansPro-Regular';}
	.st4{font-size:9.62px;}
	.st5{fill:none;stroke:#1C3761;stroke-dasharray:0;}
	.st6{fill:none;stroke:#79C9D1;stroke-width:4;}
	.st7{fill:#79C9D1;}
	.st8{fill:none;stroke:#1C3761;stroke-dasharray:1,1;}
	.st9{font-family:'ArialMT';}
	.st10{font-size:8.24px;}
	.st11{enable-background:new    ;}
	.st12{fill:#878787;}
	.st13{letter-spacing:-1;}
	.st14{fill:#79C8D1;}
	.st15{fill:#1D1D1B;}
	.st16{fill:none;stroke:#1C3761;stroke-width:4;}
	.st17{font-size:11.68px;}
	.st18{fill:#003366;}
	.st19{fill:none;stroke:#1C3761;stroke-width:4;stroke-linejoin:round;}
</style>
<rect x="0.4" y="1.2" class="st0" width="702.5" height="644.5"/>
<g id="facets">
	<line class="st1" x1="86.4" y1="530.6" x2="650.4" y2="530.6"/>
	<text transform="matrix(1 0 0 1 59.71 533.77)" class="st2 st3 st4">0%</text>
	<line class="st1" x1="86.4" y1="456.2" x2="650.4" y2="456.2"/>
	<text transform="matrix(1 0 0 1 54.93 459.33)" class="st2 st3 st4">20%</text>
	<line class="st1" x1="86.4" y1="381.7" x2="650.4" y2="381.7"/>
	<text transform="matrix(1 0 0 1 54.93 384.89)" class="st2 st3 st4">40%</text>
	<line class="st1" x1="86.4" y1="307.3" x2="650.4" y2="307.3"/>
	<text transform="matrix(1 0 0 1 54.93 310.45)" class="st2 st3 st4">60%</text>
	<line class="st1" x1="86.4" y1="232.8" x2="650.4" y2="232.8"/>
	<text transform="matrix(1 0 0 1 54.93 236)" class="st2 st3 st4">80%</text>
	<line class="st1" x1="86.4" y1="158.4" x2="650.4" y2="158.4"/>
	<text transform="matrix(1 0 0 1 50.16 161.5601)" class="st2 st3 st4">100%</text>
	<path class="st5" d="M86.8,530.6h564"/>
	<line class="st5" x1="86.8" y1="530.3" x2="86.8" y2="534.4"/>
	<line class="st5" x1="138" y1="530.3" x2="138" y2="534.4"/>
	<line class="st5" x1="189.3" y1="530.3" x2="189.3" y2="534.4"/>
	<line class="st5" x1="240.6" y1="530.3" x2="240.6" y2="534.4"/>
	<line class="st5" x1="291.9" y1="530.3" x2="291.9" y2="534.4"/>
	<line class="st5" x1="343.1" y1="530.3" x2="343.1" y2="534.4"/>
	<line class="st5" x1="394.4" y1="530.3" x2="394.4" y2="534.4"/>
	<line class="st5" x1="445.7" y1="530.3" x2="445.7" y2="534.4"/>
	<line class="st5" x1="496.9" y1="530.3" x2="496.9" y2="534.4"/>
	<line class="st5" x1="548.2" y1="530.3" x2="548.2" y2="534.4"/>
	<line class="st5" x1="599.5" y1="530.3" x2="599.5" y2="534.4"/>
	<line class="st5" x1="650.7" y1="530.3" x2="650.7" y2="534.4"/>
</g>
<g id="lines">
	<path class="st6" d="M86.4,350.5c17.1-9.5,34.2-19,51.3-26.4s34.2-9.7,51.3-17.9s34.2-31.3,51.3-31.3s34.2,8.9,51.3,8.9
		s34.2-20.1,51.3-27.2s34.2-10.4,51.2-15.3s34.2-13.8,51.3-13.8s34.2,27.7,51.3,37.2c17.1,9.5,34.2,10.3,51.3,19.7
		s34.2,25.7,51.3,36.8s34.2,20.5,51.3,29.8"/>
</g>
<path id="point-0-0" class="st2" d="M85.8,349.7c0-0.4,0.3-0.7,0.7-0.7c0,0,0,0,0,0l0,0c0.4,0,0.7,0.3,0.7,0.6c0,0,0,0,0,0l0,0
	c0,0.4-0.3,0.7-0.7,0.7c0,0,0,0,0,0l0,0C86,350.4,85.7,350.1,85.8,349.7C85.7,349.7,85.7,349.7,85.8,349.7L85.8,349.7L85.8,349.7z"
	/>
<path id="point-0-1" class="st2" d="M135,343.8c0-1.5,1.2-2.8,2.8-2.8s2.8,1.2,2.8,2.8s-1.2,2.8-2.8,2.8l0,0l0,0
	C136.2,346.5,135,345.3,135,343.8z"/>
<path id="point-0-3" class="st2" d="M239.6,530.3c0-0.4,0.3-0.7,0.7-0.7s0.7,0.3,0.7,0.7c0,0.4-0.3,0.7-0.7,0.7
	S239.6,530.6,239.6,530.3L239.6,530.3z"/>
<path id="point-0-5" class="st2" d="M340,471.8c0-1.5,1.2-2.8,2.8-2.8s2.8,1.2,2.8,2.8s-1.2,2.8-2.8,2.8l0,0l0,0
	C341.2,474.6,340,473.3,340,471.8z"/>
<path id="point-0-5-2" class="st2" d="M391.4,431.2c0-1.5,1.2-2.8,2.8-2.8s2.8,1.2,2.8,2.8s-1.2,2.8-2.8,2.8l0,0l0,0
	C392.6,434,391.4,432.7,391.4,431.2z"/>
<path id="point-0-5-2-2" class="st2" d="M444,425.8c0-1.5,1.2-2.8,2.8-2.8s2.8,1.2,2.8,2.8s-1.2,2.8-2.8,2.8l0,0l0,0
	C445.2,428.5,444,427.3,444,425.8z"/>
<path id="point-0-5-2-2-2" class="st2" d="M494.9,461.8c0-1.5,1.2-2.8,2.8-2.8s2.8,1.2,2.8,2.8s-1.2,2.8-2.8,2.8l0,0
	C496.2,464.5,494.9,463.3,494.9,461.8L494.9,461.8z"/>
<path id="point-1-0" class="st7" d="M85.8,350.5c0-0.4,0.3-0.7,0.6-0.7c0,0,0,0,0,0l0,0c0.4,0,0.7,0.3,0.7,0.7l0,0l0,0
	c0,0.4-0.3,0.7-0.7,0.7c0,0,0,0,0,0l0,0C86.1,351.2,85.8,350.9,85.8,350.5C85.8,350.5,85.8,350.5,85.8,350.5L85.8,350.5L85.8,350.5z
	"/>
<path id="point-1-1" class="st7" d="M135,324c0-1.5,1.2-2.8,2.8-2.8s2.8,1.2,2.8,2.8s-1.2,2.8-2.8,2.8l0,0l0,0
	C136.2,326.8,135,325.6,135,324z"/>
<path id="point-1-2" class="st7" d="M186.2,306.2c0-1.5,1.2-2.8,2.8-2.8s2.8,1.2,2.8,2.8s-1.2,2.8-2.8,2.8l0,0l0,0
	C187.5,308.9,186.2,307.7,186.2,306.2z"/>
<path id="point-1-3" class="st7" d="M237.5,274.9c0-1.5,1.2-2.8,2.8-2.8s2.8,1.2,2.8,2.8s-1.2,2.8-2.8,2.8l0,0l0,0
	C238.7,277.7,237.5,276.4,237.5,274.9z"/>
<path id="point-1-4" class="st7" d="M288.8,283.9c0-1.5,1.2-2.8,2.8-2.8s2.8,1.2,2.8,2.8s-1.2,2.8-2.8,2.8l0,0l0,0
	C290,286.6,288.8,285.4,288.8,283.9z"/>
<path id="point-1-5" class="st7" d="M340,256.7c0-1.5,1.2-2.8,2.8-2.8s2.8,1.2,2.8,2.8c0,1.5-1.2,2.8-2.8,2.8S340,258.2,340,256.7
	L340,256.7z"/>
<path id="point-1-6" class="st7" d="M391.3,241.4c0-1.5,1.2-2.8,2.8-2.8s2.8,1.2,2.8,2.8s-1.2,2.8-2.8,2.8l0,0
	C392.5,244.2,391.3,242.9,391.3,241.4z"/>
<path id="point-1-7" class="st7" d="M442.6,227.6c0-1.5,1.2-2.8,2.8-2.8s2.8,1.2,2.8,2.8s-1.2,2.8-2.8,2.8l0,0
	C443.8,230.4,442.6,229.2,442.6,227.6z"/>
<path id="point-1-8" class="st7" d="M493.8,264.9c0-1.5,1.2-2.8,2.8-2.8s2.8,1.2,2.8,2.8s-1.2,2.8-2.8,2.8S493.8,266.4,493.8,264.9
	L493.8,264.9z"/>
<path id="point-1-9" class="st7" d="M545.1,284.6c0-1.5,1.2-2.8,2.7-2.8s2.8,1.2,2.8,2.7c0,1.5-1.2,2.8-2.7,2.8l0,0
	C546.3,287.3,545.1,286.1,545.1,284.6L545.1,284.6z"/>
<path id="point-1-10" class="st7" d="M596.4,321.4c0-1.5,1.2-2.8,2.8-2.8s2.8,1.2,2.8,2.8s-1.2,2.8-2.8,2.8l0,0l0,0
	C597.6,324.2,596.4,323,596.4,321.4z"/>
<path id="point-1-11" class="st7" d="M646.3,351.2c0-2.3,1.8-4.1,4.1-4.1s4.1,1.8,4.1,4.1c0,2.3-1.8,4.1-4.1,4.1l0,0l0,0
	C648.1,355.3,646.3,353.5,646.3,351.2L646.3,351.2L646.3,351.2L646.3,351.2z"/>
<line class="st8" x1="86.4" y1="286.5" x2="650.4" y2="286.5"/>
<text transform="matrix(1 0 0 1 571.11 282.34)" class="st2 st9 st10">Mitjana 2019: 65,5%</text>
<g>
	<g>
		<g class="st11">
			<path class="st12" d="M51.8,618.3h3.7v0.8h-2.8v2.3h2.6v0.7h-2.6v3.1h-0.9V618.3z"/>
			<path class="st12" d="M61.3,622.7c0,1.8-1.3,2.6-2.5,2.6c-1.3,0-2.4-1-2.4-2.6c0-1.7,1.1-2.6,2.5-2.6
				C60.3,620.2,61.3,621.2,61.3,622.7z M57.4,622.8c0,1.1,0.6,1.9,1.5,1.9c0.9,0,1.5-0.8,1.5-1.9c0-0.8-0.4-1.9-1.5-1.9
				S57.4,621.8,57.4,622.8z"/>
			<path class="st12" d="M62.5,621.6c0-0.5,0-0.9,0-1.3h0.8l0.1,0.8h0c0.2-0.5,0.8-0.9,1.6-0.9c0.7,0,1.8,0.4,1.8,2.1v3h-0.9v-2.9
				c0-0.8-0.3-1.5-1.2-1.5c-0.6,0-1.1,0.4-1.2,0.9c0,0.1-0.1,0.3-0.1,0.4v3h-0.9V621.6z"/>
			<path class="st12" d="M69.3,618.8v1.4h1.3v0.7h-1.3v2.7c0,0.6,0.2,1,0.7,1c0.2,0,0.4,0,0.5-0.1l0,0.7c-0.2,0.1-0.5,0.1-0.8,0.1
				c-0.4,0-0.8-0.1-1-0.4c-0.3-0.3-0.4-0.7-0.4-1.3V621h-0.8v-0.7h0.8v-1.2L69.3,618.8z"/>
			<path class="st12" d="M71.9,624.4c0.1-0.1,0.2-0.2,0.4-0.2s0.3,0.1,0.4,0.2c0.1,0.1,0.2,0.2,0.2,0.4c0,0.2-0.1,0.3-0.2,0.4
				c-0.1,0.1-0.2,0.2-0.4,0.2c-0.1,0-0.3-0.1-0.4-0.2c-0.1-0.1-0.2-0.2-0.2-0.4C71.7,624.7,71.8,624.6,71.9,624.4z M72.3,620.5
				c0.2,0,0.3,0.1,0.4,0.2c0.1,0.1,0.2,0.2,0.2,0.4c0,0.1-0.1,0.3-0.2,0.4c-0.1,0.1-0.2,0.2-0.4,0.2s-0.3-0.1-0.4-0.2
				c-0.1-0.1-0.2-0.2-0.2-0.4c0-0.2,0.1-0.3,0.2-0.4C72,620.6,72.1,620.5,72.3,620.5z"/>
			<path class="st12" d="M83.2,622h-2.7v2.5h3v0.8h-3.9v-6.9h3.7v0.8h-2.9v2.2h2.7V622z"/>
			<path class="st12" d="M84.7,617.9h0.9v7.3h-0.9V617.9z"/>
			<path class="st12" d="M89.8,625.3l-0.1-0.6h0c-0.3,0.4-0.8,0.7-1.5,0.7c-1,0-1.5-0.7-1.5-1.4c0-1.2,1.1-1.9,3-1.9V622
				c0-0.4-0.1-1.2-1.1-1.2c-0.5,0-0.9,0.1-1.3,0.4l-0.2-0.6c0.4-0.3,1-0.4,1.6-0.4c1.5,0,1.9,1,1.9,2v1.9c0,0.4,0,0.9,0.1,1.2H89.8z
				 M89.7,622.7c-1,0-2.1,0.2-2.1,1.1c0,0.6,0.4,0.9,0.9,0.9c0.6,0,1.1-0.4,1.2-0.8c0-0.1,0.1-0.2,0.1-0.3V622.7z"/>
			<path class="st12" d="M92,625.3c0-0.3,0-0.8,0-1.3v-6h0.9v3.1h0c0.3-0.6,0.9-0.9,1.7-0.9c1.2,0,2.1,1,2.1,2.5
				c0,1.8-1.1,2.7-2.2,2.7c-0.7,0-1.3-0.3-1.7-0.9h0l0,0.8H92z M92.9,623.3c0,0.1,0,0.2,0,0.3c0.2,0.6,0.7,1.1,1.4,1.1
				c0.9,0,1.5-0.8,1.5-1.9c0-1-0.5-1.9-1.5-1.9c-0.6,0-1.2,0.4-1.4,1.1c0,0.1-0.1,0.2-0.1,0.4V623.3z"/>
			<path class="st12" d="M102.4,622.7c0,1.8-1.3,2.6-2.5,2.6c-1.3,0-2.4-1-2.4-2.6c0-1.7,1.1-2.6,2.5-2.6
				C101.5,620.2,102.4,621.2,102.4,622.7z M98.5,622.8c0,1.1,0.6,1.9,1.5,1.9c0.9,0,1.5-0.8,1.5-1.9c0-0.8-0.4-1.9-1.5-1.9
				S98.5,621.8,98.5,622.8z"/>
			<path class="st12" d="M103.6,621.8c0-0.6,0-1.1,0-1.6h0.8l0,1h0c0.2-0.7,0.8-1.1,1.4-1.1c0.1,0,0.2,0,0.3,0v0.9
				c-0.1,0-0.2,0-0.3,0c-0.6,0-1.1,0.5-1.2,1.2c0,0.1,0,0.3,0,0.4v2.7h-0.9V621.8z"/>
			<path class="st12" d="M109.7,625.3l-0.1-0.6h0c-0.3,0.4-0.8,0.7-1.5,0.7c-1,0-1.5-0.7-1.5-1.4c0-1.2,1.1-1.9,3-1.9V622
				c0-0.4-0.1-1.2-1.1-1.2c-0.5,0-0.9,0.1-1.3,0.4l-0.2-0.6c0.4-0.3,1-0.4,1.6-0.4c1.5,0,1.9,1,1.9,2v1.9c0,0.4,0,0.9,0.1,1.2H109.7
				z M109.6,622.7c-1,0-2.1,0.2-2.1,1.1c0,0.6,0.4,0.9,0.9,0.9c0.6,0,1.1-0.4,1.2-0.8c0-0.1,0.1-0.2,0.1-0.3V622.7z"/>
			<path class="st12" d="M115.5,625.1c-0.2,0.1-0.8,0.3-1.4,0.3c-1.5,0-2.5-1-2.5-2.5c0-1.5,1.1-2.6,2.7-2.6c0.5,0,1,0.1,1.3,0.3
				l-0.2,0.7c-0.2-0.1-0.6-0.2-1.1-0.2c-1.1,0-1.8,0.8-1.8,1.9c0,1.2,0.7,1.9,1.7,1.9c0.5,0,0.9-0.1,1.1-0.2L115.5,625.1z"/>
			<path class="st12" d="M117.5,618.9c0,0.3-0.2,0.6-0.6,0.6c-0.3,0-0.5-0.2-0.5-0.6c0-0.3,0.2-0.6,0.6-0.6
				C117.3,618.3,117.5,618.6,117.5,618.9z M116.5,625.3v-5h0.9v5H116.5z"/>
			<path class="st12" d="M123.4,622.7c0,1.8-1.3,2.6-2.5,2.6c-1.3,0-2.4-1-2.4-2.6c0-1.7,1.1-2.6,2.5-2.6
				C122.5,620.2,123.4,621.2,123.4,622.7z M119.5,622.8c0,1.1,0.6,1.9,1.5,1.9c0.9,0,1.5-0.8,1.5-1.9c0-0.8-0.4-1.9-1.5-1.9
				S119.5,621.8,119.5,622.8z M122.4,618.1l-1.3,1.5h-0.6l0.9-1.5H122.4z"/>
			<path class="st12" d="M129.7,621.9c0-0.6,0-1.2,0-1.6h0.8l0,0.9h0c0.4-0.6,1-1,1.8-1c1.2,0,2.1,1,2.1,2.5c0,1.8-1.1,2.7-2.3,2.7
				c-0.7,0-1.2-0.3-1.5-0.8h0v2.7h-0.9V621.9z M130.6,623.2c0,0.1,0,0.3,0,0.4c0.2,0.6,0.7,1.1,1.4,1.1c1,0,1.5-0.8,1.5-1.9
				c0-1-0.5-1.9-1.5-1.9c-0.6,0-1.2,0.4-1.4,1.1c0,0.1-0.1,0.2-0.1,0.4V623.2z"/>
			<path class="st12" d="M135.6,621.8c0-0.6,0-1.1,0-1.6h0.8l0,1h0c0.2-0.7,0.8-1.1,1.4-1.1c0.1,0,0.2,0,0.3,0v0.9
				c-0.1,0-0.2,0-0.3,0c-0.6,0-1.1,0.5-1.2,1.2c0,0.1,0,0.3,0,0.4v2.7h-0.9V621.8z"/>
			<path class="st12" d="M143.5,622.7c0,1.8-1.3,2.6-2.5,2.6c-1.3,0-2.4-1-2.4-2.6c0-1.7,1.1-2.6,2.5-2.6
				C142.5,620.2,143.5,621.2,143.5,622.7z M139.5,622.8c0,1.1,0.6,1.9,1.5,1.9c0.9,0,1.5-0.8,1.5-1.9c0-0.8-0.4-1.9-1.5-1.9
				S139.5,621.8,139.5,622.8z M140.7,618.1l0.9,1.5H141l-1.3-1.5H140.7z"/>
			<path class="st12" d="M144.6,621.9c0-0.6,0-1.2,0-1.6h0.8l0,0.9h0c0.4-0.6,1-1,1.8-1c1.2,0,2.1,1,2.1,2.5c0,1.8-1.1,2.7-2.3,2.7
				c-0.7,0-1.2-0.3-1.5-0.8h0v2.7h-0.9V621.9z M145.5,623.2c0,0.1,0,0.3,0,0.4c0.2,0.6,0.7,1.1,1.4,1.1c1,0,1.5-0.8,1.5-1.9
				c0-1-0.5-1.9-1.5-1.9c-0.6,0-1.2,0.4-1.4,1.1c0,0.1-0.1,0.2-0.1,0.4V623.2z"/>
			<path class="st12" d="M151.5,618.9c0,0.3-0.2,0.6-0.6,0.6c-0.3,0-0.5-0.2-0.5-0.6c0-0.3,0.2-0.6,0.6-0.6
				C151.3,618.3,151.5,618.6,151.5,618.9z M150.5,625.3v-5h0.9v5H150.5z"/>
			<path class="st12" d="M155.6,625.3l-0.1-0.6h0c-0.3,0.4-0.8,0.7-1.5,0.7c-1,0-1.5-0.7-1.5-1.4c0-1.2,1.1-1.9,3-1.9V622
				c0-0.4-0.1-1.2-1.1-1.2c-0.5,0-0.9,0.1-1.3,0.4l-0.2-0.6c0.4-0.3,1-0.4,1.6-0.4c1.5,0,1.9,1,1.9,2v1.9c0,0.4,0,0.9,0.1,1.2H155.6
				z M155.5,622.7c-1,0-2.1,0.2-2.1,1.1c0,0.6,0.4,0.9,0.9,0.9c0.6,0,1.1-0.4,1.2-0.8c0-0.1,0.1-0.2,0.1-0.3V622.7z"/>
			<path class="st12" d="M167.3,617.9v6c0,0.4,0,0.9,0,1.3h-0.8l0-0.9h0c-0.3,0.6-0.9,1-1.7,1c-1.2,0-2.1-1-2.1-2.5
				c0-1.7,1-2.7,2.2-2.7c0.8,0,1.3,0.4,1.5,0.8h0v-3H167.3z M166.4,622.3c0-0.1,0-0.3,0-0.4c-0.1-0.6-0.6-1.1-1.3-1.1
				c-0.9,0-1.5,0.8-1.5,1.9c0,1,0.5,1.8,1.5,1.8c0.6,0,1.2-0.4,1.3-1.1c0-0.1,0-0.2,0-0.4V622.3z"/>
			<path class="st12" d="M169.3,622.9c0,1.2,0.8,1.7,1.7,1.7c0.6,0,1-0.1,1.4-0.3l0.2,0.6c-0.3,0.1-0.9,0.3-1.7,0.3
				c-1.5,0-2.5-1-2.5-2.5s0.9-2.7,2.3-2.7c1.6,0,2.1,1.4,2.1,2.3c0,0.2,0,0.3,0,0.4H169.3z M172,622.3c0-0.6-0.2-1.5-1.3-1.5
				c-0.9,0-1.3,0.8-1.4,1.5H172z"/>
			<path class="st12" d="M174,617.9h0.9v7.3H174V617.9z"/>
			<path class="st12" d="M181.6,618.3h0.9v6.2h3v0.8h-3.9V618.3z"/>
			<path class="st12" d="M187.6,623.1l-0.7,2.2h-0.9l2.4-6.9h1.1l2.4,6.9h-1l-0.7-2.2H187.6z M189.8,622.4l-0.7-2
				c-0.2-0.5-0.3-0.9-0.4-1.3h0c-0.1,0.4-0.2,0.8-0.4,1.3l-0.7,2H189.8z"/>
			<path class="st12" d="M192.7,618.4c0.4-0.1,1-0.1,1.6-0.1c0.9,0,1.5,0.2,1.9,0.5c0.4,0.3,0.6,0.7,0.6,1.2c0,0.7-0.4,1.3-1.2,1.5
				v0c0.7,0.2,1.4,0.7,1.4,1.7c0,0.6-0.2,1.1-0.6,1.4c-0.5,0.4-1.3,0.6-2.4,0.6c-0.6,0-1.1,0-1.4-0.1V618.4z M193.6,621.3h0.8
				c0.9,0,1.5-0.5,1.5-1.2c0-0.8-0.6-1.1-1.5-1.1c-0.4,0-0.6,0-0.8,0.1V621.3z M193.6,624.6c0.2,0,0.4,0,0.8,0
				c0.9,0,1.8-0.3,1.8-1.3c0-0.9-0.8-1.3-1.8-1.3h-0.7V624.6z"/>
			<path class="st12" d="M199.4,618.8v1.4h1.3v0.7h-1.3v2.7c0,0.6,0.2,1,0.7,1c0.2,0,0.4,0,0.5-0.1l0,0.7c-0.2,0.1-0.5,0.1-0.8,0.1
				c-0.4,0-0.8-0.1-1-0.4c-0.3-0.3-0.4-0.7-0.4-1.3V621h-0.8v-0.7h0.8v-1.2L199.4,618.8z"/>
			<path class="st12" d="M205.9,623.9c0,0.5,0,1,0,1.4h-0.8l-0.1-0.8h0c-0.2,0.4-0.8,0.9-1.6,0.9c-0.8,0-1.7-0.4-1.7-2.2v-2.9h0.9
				v2.8c0,0.9,0.3,1.6,1.1,1.6c0.6,0,1-0.4,1.2-0.8c0.1-0.1,0.1-0.3,0.1-0.5v-3.1h0.9V623.9z"/>
			<path class="st12" d="M207.4,621.8c0-0.6,0-1.1,0-1.6h0.8l0,1h0c0.2-0.7,0.8-1.1,1.4-1.1c0.1,0,0.2,0,0.3,0v0.9
				c-0.1,0-0.2,0-0.3,0c-0.6,0-1.1,0.5-1.2,1.2c0,0.1,0,0.3,0,0.4v2.7h-0.9V621.8z"/>
			<path class="st12" d="M211.8,618.9c0,0.3-0.2,0.6-0.6,0.6c-0.3,0-0.5-0.2-0.5-0.6c0-0.3,0.2-0.6,0.6-0.6
				C211.5,618.3,211.8,618.6,211.8,618.9z M210.7,625.3v-5h0.9v5H210.7z"/>
			<path class="st12" d="M213,624.3c0.3,0.2,0.7,0.4,1.2,0.4c0.7,0,1-0.3,1-0.7c0-0.4-0.3-0.7-0.9-0.9c-0.9-0.3-1.3-0.8-1.3-1.4
				c0-0.8,0.6-1.5,1.7-1.5c0.5,0,0.9,0.1,1.2,0.3l-0.2,0.7c-0.2-0.1-0.6-0.3-1-0.3c-0.5,0-0.8,0.3-0.8,0.7c0,0.4,0.3,0.6,0.9,0.8
				c0.9,0.3,1.3,0.8,1.3,1.5c0,0.9-0.7,1.5-1.9,1.5c-0.5,0-1.1-0.1-1.4-0.3L213,624.3z"/>
			<path class="st12" d="M217.2,621.6c0-0.5,0-0.9,0-1.3h0.8l0,0.8h0c0.3-0.5,0.7-0.9,1.6-0.9c0.7,0,1.2,0.4,1.4,1h0
				c0.2-0.3,0.4-0.5,0.6-0.6c0.3-0.2,0.6-0.4,1.1-0.4c0.7,0,1.6,0.4,1.6,2.2v2.9h-0.9v-2.8c0-1-0.4-1.5-1.1-1.5
				c-0.5,0-0.9,0.4-1.1,0.8c0,0.1-0.1,0.3-0.1,0.5v3.1h-0.9v-3c0-0.8-0.4-1.4-1-1.4c-0.6,0-1,0.5-1.1,0.9c-0.1,0.1-0.1,0.3-0.1,0.4
				v3h-0.9V621.6z"/>
			<path class="st12" d="M226.3,622.9c0,1.2,0.8,1.7,1.7,1.7c0.6,0,1-0.1,1.4-0.3l0.2,0.6c-0.3,0.1-0.9,0.3-1.7,0.3
				c-1.5,0-2.5-1-2.5-2.5s0.9-2.7,2.3-2.7c1.6,0,2.1,1.4,2.1,2.3c0,0.2,0,0.3,0,0.4H226.3z M229,622.3c0-0.6-0.2-1.5-1.3-1.5
				c-0.9,0-1.3,0.8-1.4,1.5H229z"/>
			<path class="st12" d="M236.6,622.9c0,1.2,0.8,1.7,1.7,1.7c0.6,0,1-0.1,1.4-0.3l0.2,0.6c-0.3,0.1-0.9,0.3-1.7,0.3
				c-1.5,0-2.5-1-2.5-2.5s0.9-2.7,2.3-2.7c1.6,0,2.1,1.4,2.1,2.3c0,0.2,0,0.3,0,0.4H236.6z M239.3,622.3c0-0.6-0.2-1.5-1.3-1.5
				c-0.9,0-1.3,0.8-1.4,1.5H239.3z"/>
			<path class="st12" d="M241.3,621.6c0-0.5,0-0.9,0-1.3h0.8l0.1,0.8h0c0.2-0.5,0.8-0.9,1.6-0.9c0.7,0,1.8,0.4,1.8,2.1v3h-0.9v-2.9
				c0-0.8-0.3-1.5-1.2-1.5c-0.6,0-1.1,0.4-1.2,0.9c0,0.1-0.1,0.3-0.1,0.4v3h-0.9V621.6z"/>
			<path class="st12" d="M252.1,625.3c0-0.3,0-0.8,0-1.3v-6h0.9v3.1h0c0.3-0.6,0.9-0.9,1.7-0.9c1.2,0,2.1,1,2.1,2.5
				c0,1.8-1.1,2.7-2.2,2.7c-0.7,0-1.3-0.3-1.7-0.9h0l0,0.8H252.1z M253.1,623.3c0,0.1,0,0.2,0,0.3c0.2,0.6,0.7,1.1,1.4,1.1
				c0.9,0,1.5-0.8,1.5-1.9c0-1-0.5-1.9-1.5-1.9c-0.6,0-1.2,0.4-1.4,1.1c0,0.1-0.1,0.2-0.1,0.4V623.3z"/>
			<path class="st12" d="M260.8,625.3l-0.1-0.6h0c-0.3,0.4-0.8,0.7-1.5,0.7c-1,0-1.5-0.7-1.5-1.4c0-1.2,1.1-1.9,3-1.9V622
				c0-0.4-0.1-1.2-1.1-1.2c-0.5,0-0.9,0.1-1.3,0.4l-0.2-0.6c0.4-0.3,1-0.4,1.6-0.4c1.5,0,1.9,1,1.9,2v1.9c0,0.4,0,0.9,0.1,1.2H260.8
				z M260.7,622.7c-1,0-2.1,0.2-2.1,1.1c0,0.6,0.4,0.9,0.9,0.9c0.6,0,1.1-0.4,1.2-0.8c0-0.1,0.1-0.2,0.1-0.3V622.7z"/>
			<path class="st12" d="M262.9,624.3c0.3,0.2,0.7,0.4,1.2,0.4c0.7,0,1-0.3,1-0.7c0-0.4-0.3-0.7-0.9-0.9c-0.9-0.3-1.3-0.8-1.3-1.4
				c0-0.8,0.6-1.5,1.7-1.5c0.5,0,0.9,0.1,1.2,0.3l-0.2,0.7c-0.2-0.1-0.6-0.3-1-0.3c-0.5,0-0.8,0.3-0.8,0.7c0,0.4,0.3,0.6,0.9,0.8
				c0.9,0.3,1.3,0.8,1.3,1.5c0,0.9-0.7,1.5-1.9,1.5c-0.5,0-1.1-0.1-1.4-0.3L262.9,624.3z"/>
			<path class="st12" d="M267.6,622.9c0,1.2,0.8,1.7,1.7,1.7c0.6,0,1-0.1,1.4-0.3l0.2,0.6c-0.3,0.1-0.9,0.3-1.7,0.3
				c-1.5,0-2.5-1-2.5-2.5s0.9-2.7,2.3-2.7c1.6,0,2.1,1.4,2.1,2.3c0,0.2,0,0.3,0,0.4H267.6z M270.2,622.3c0-0.6-0.2-1.5-1.3-1.5
				c-0.9,0-1.3,0.8-1.4,1.5H270.2z"/>
			<path class="st12" d="M280.1,625.3l-0.1-0.6h0c-0.3,0.4-0.8,0.7-1.5,0.7c-1,0-1.5-0.7-1.5-1.4c0-1.2,1.1-1.9,3-1.9V622
				c0-0.4-0.1-1.2-1.1-1.2c-0.5,0-0.9,0.1-1.3,0.4l-0.2-0.6c0.4-0.3,1-0.4,1.6-0.4c1.5,0,1.9,1,1.9,2v1.9c0,0.4,0,0.9,0.1,1.2H280.1
				z M280,622.7c-1,0-2.1,0.2-2.1,1.1c0,0.6,0.4,0.9,0.9,0.9c0.6,0,1.1-0.4,1.2-0.8c0-0.1,0.1-0.2,0.1-0.3V622.7z"/>
			<path class="st12" d="M291.8,617.9v6c0,0.4,0,0.9,0,1.3H291l0-0.9h0c-0.3,0.6-0.9,1-1.7,1c-1.2,0-2.1-1-2.1-2.5
				c0-1.7,1-2.7,2.2-2.7c0.8,0,1.3,0.4,1.5,0.8h0v-3H291.8z M290.9,622.3c0-0.1,0-0.3,0-0.4c-0.1-0.6-0.6-1.1-1.3-1.1
				c-0.9,0-1.5,0.8-1.5,1.9c0,1,0.5,1.8,1.5,1.8c0.6,0,1.2-0.4,1.3-1.1c0-0.1,0-0.2,0-0.4V622.3z"/>
			<path class="st12" d="M296.1,625.3l-0.1-0.6h0c-0.3,0.4-0.8,0.7-1.5,0.7c-1,0-1.5-0.7-1.5-1.4c0-1.2,1.1-1.9,3-1.9V622
				c0-0.4-0.1-1.2-1.1-1.2c-0.5,0-0.9,0.1-1.3,0.4l-0.2-0.6c0.4-0.3,1-0.4,1.6-0.4c1.5,0,1.9,1,1.9,2v1.9c0,0.4,0,0.9,0.1,1.2H296.1
				z M295.9,622.7c-1,0-2.1,0.2-2.1,1.1c0,0.6,0.4,0.9,0.9,0.9c0.6,0,1.1-0.4,1.2-0.8c0-0.1,0.1-0.2,0.1-0.3V622.7z"/>
			<path class="st12" d="M302.6,617.9v6c0,0.4,0,0.9,0,1.3h-0.8l0-0.9h0c-0.3,0.6-0.9,1-1.7,1c-1.2,0-2.1-1-2.1-2.5
				c0-1.7,1-2.7,2.2-2.7c0.8,0,1.3,0.4,1.5,0.8h0v-3H302.6z M301.7,622.3c0-0.1,0-0.3,0-0.4c-0.1-0.6-0.6-1.1-1.3-1.1
				c-0.9,0-1.5,0.8-1.5,1.9c0,1,0.5,1.8,1.5,1.8c0.6,0,1.2-0.4,1.3-1.1c0-0.1,0-0.2,0-0.4V622.3z"/>
			<path class="st12" d="M304.6,622.9c0,1.2,0.8,1.7,1.7,1.7c0.6,0,1-0.1,1.4-0.3l0.2,0.6c-0.3,0.1-0.9,0.3-1.7,0.3
				c-1.5,0-2.5-1-2.5-2.5s0.9-2.7,2.3-2.7c1.6,0,2.1,1.4,2.1,2.3c0,0.2,0,0.3,0,0.4H304.6z M307.2,622.3c0-0.6-0.2-1.5-1.3-1.5
				c-0.9,0-1.3,0.8-1.4,1.5H307.2z"/>
			<path class="st12" d="M309.1,624.3c0.3,0.2,0.7,0.4,1.2,0.4c0.7,0,1-0.3,1-0.7c0-0.4-0.3-0.7-0.9-0.9c-0.9-0.3-1.3-0.8-1.3-1.4
				c0-0.8,0.6-1.5,1.7-1.5c0.5,0,0.9,0.1,1.2,0.3l-0.2,0.7c-0.2-0.1-0.6-0.3-1-0.3c-0.5,0-0.8,0.3-0.8,0.7c0,0.4,0.3,0.6,0.9,0.8
				c0.9,0.3,1.3,0.8,1.3,1.5c0,0.9-0.7,1.5-1.9,1.5c-0.5,0-1.1-0.1-1.4-0.3L309.1,624.3z"/>
			<path class="st12" d="M322.8,617.9v6c0,0.4,0,0.9,0,1.3H322l0-0.9h0c-0.3,0.6-0.9,1-1.7,1c-1.2,0-2.1-1-2.1-2.5
				c0-1.7,1-2.7,2.2-2.7c0.8,0,1.3,0.4,1.5,0.8h0v-3H322.8z M321.9,622.3c0-0.1,0-0.3,0-0.4c-0.1-0.6-0.6-1.1-1.3-1.1
				c-0.9,0-1.5,0.8-1.5,1.9c0,1,0.5,1.8,1.5,1.8c0.6,0,1.2-0.4,1.3-1.1c0-0.1,0-0.2,0-0.4V622.3z"/>
			<path class="st12" d="M324.8,622.9c0,1.2,0.8,1.7,1.7,1.7c0.6,0,1-0.1,1.4-0.3l0.2,0.6c-0.3,0.1-0.9,0.3-1.7,0.3
				c-1.5,0-2.5-1-2.5-2.5s0.9-2.7,2.3-2.7c1.6,0,2.1,1.4,2.1,2.3c0,0.2,0,0.3,0,0.4H324.8z M327.4,622.3c0-0.6-0.2-1.5-1.3-1.5
				c-0.9,0-1.3,0.8-1.4,1.5H327.4z"/>
			<path class="st12" d="M334.6,617.9h0.9v7.3h-0.9V617.9z"/>
			<path class="st12" d="M337.7,618.2l-0.2,2.5H337l-0.2-2.5H337.7z"/>
			<path class="st12" d="M342.6,622h-2.7v2.5h3v0.8H339v-6.9h3.7v0.8h-2.9v2.2h2.7V622z"/>
			<path class="st12" d="M344,621.6c0-0.5,0-0.9,0-1.3h0.8l0.1,0.8h0c0.2-0.5,0.8-0.9,1.6-0.9c0.7,0,1.8,0.4,1.8,2.1v3h-0.9v-2.9
				c0-0.8-0.3-1.5-1.2-1.5c-0.6,0-1.1,0.4-1.2,0.9c0,0.1-0.1,0.3-0.1,0.4v3H344V621.6z"/>
			<path class="st12" d="M353.1,624.5L353.1,624.5c-0.3,0.5-0.8,0.9-1.6,0.9c-1.2,0-2.1-1-2.1-2.5c0-1.9,1.2-2.7,2.3-2.7
				c0.8,0,1.3,0.4,1.5,0.9h0l0-0.8h0.9c0,0.4,0,0.9,0,1.4v5.7h-0.9V624.5z M353.1,622.3c0-0.1,0-0.3,0-0.4c-0.1-0.6-0.6-1-1.3-1
				c-0.9,0-1.5,0.8-1.5,1.9c0,1,0.5,1.9,1.5,1.9c0.6,0,1.1-0.4,1.3-1c0-0.1,0.1-0.3,0.1-0.4V622.3z"/>
			<path class="st12" d="M359.7,623.9c0,0.5,0,1,0,1.4h-0.8l-0.1-0.8h0c-0.2,0.4-0.8,0.9-1.6,0.9c-0.8,0-1.7-0.4-1.7-2.2v-2.9h0.9
				v2.8c0,0.9,0.3,1.6,1.1,1.6c0.6,0,1-0.4,1.2-0.8c0.1-0.1,0.1-0.3,0.1-0.5v-3.1h0.9V623.9z"/>
			<path class="st12" d="M361.7,622.9c0,1.2,0.8,1.7,1.7,1.7c0.6,0,1-0.1,1.4-0.3l0.2,0.6c-0.3,0.1-0.9,0.3-1.7,0.3
				c-1.5,0-2.5-1-2.5-2.5s0.9-2.7,2.3-2.7c1.6,0,2.1,1.4,2.1,2.3c0,0.2,0,0.3,0,0.4H361.7z M364.4,622.3c0-0.6-0.2-1.5-1.3-1.5
				c-0.9,0-1.3,0.8-1.4,1.5H364.4z"/>
			<path class="st12" d="M366.2,624.3c0.3,0.2,0.7,0.4,1.2,0.4c0.7,0,1-0.3,1-0.7c0-0.4-0.3-0.7-0.9-0.9c-0.9-0.3-1.3-0.8-1.3-1.4
				c0-0.8,0.6-1.5,1.7-1.5c0.5,0,0.9,0.1,1.2,0.3l-0.2,0.7c-0.2-0.1-0.6-0.3-1-0.3c-0.5,0-0.8,0.3-0.8,0.7c0,0.4,0.3,0.6,0.9,0.8
				c0.9,0.3,1.3,0.8,1.3,1.5c0,0.9-0.7,1.5-1.9,1.5c-0.5,0-1-0.1-1.4-0.3L366.2,624.3z"/>
			<path class="st12" d="M371.5,618.8v1.4h1.3v0.7h-1.3v2.7c0,0.6,0.2,1,0.7,1c0.2,0,0.4,0,0.5-0.1l0,0.7c-0.2,0.1-0.5,0.1-0.8,0.1
				c-0.4,0-0.8-0.1-1-0.4c-0.3-0.3-0.3-0.7-0.3-1.3V621h-0.8v-0.7h0.8v-1.2L371.5,618.8z"/>
			<path class="st12" d="M376.6,625.3l-0.1-0.6h0c-0.3,0.4-0.8,0.7-1.5,0.7c-1,0-1.5-0.7-1.5-1.4c0-1.2,1.1-1.9,3-1.9V622
				c0-0.4-0.1-1.2-1.1-1.2c-0.5,0-0.9,0.1-1.3,0.4l-0.2-0.6c0.4-0.3,1-0.4,1.6-0.4c1.5,0,1.9,1,1.9,2v1.9c0,0.4,0,0.9,0.1,1.2H376.6
				z M376.5,622.7c-1,0-2.1,0.2-2.1,1.1c0,0.6,0.4,0.9,0.9,0.9c0.6,0,1.1-0.4,1.2-0.8c0-0.1,0.1-0.2,0.1-0.3V622.7z"/>
			<path class="st12" d="M388.3,617.9v6c0,0.4,0,0.9,0,1.3h-0.8l0-0.9h0c-0.3,0.6-0.9,1-1.7,1c-1.2,0-2.1-1-2.1-2.5
				c0-1.7,1-2.7,2.2-2.7c0.8,0,1.3,0.4,1.5,0.8h0v-3H388.3z M387.4,622.3c0-0.1,0-0.3,0-0.4c-0.1-0.6-0.6-1.1-1.3-1.1
				c-0.9,0-1.5,0.8-1.5,1.9c0,1,0.5,1.8,1.5,1.8c0.6,0,1.2-0.4,1.3-1.1c0-0.1,0-0.2,0-0.4V622.3z"/>
			<path class="st12" d="M390.5,618.2l-0.2,2.5h-0.6l-0.2-2.5H390.5z"/>
			<path class="st12" d="M396.2,622.7c0,1.8-1.3,2.6-2.5,2.6c-1.3,0-2.4-1-2.4-2.6c0-1.7,1.1-2.6,2.5-2.6
				C395.3,620.2,396.2,621.2,396.2,622.7z M392.3,622.8c0,1.1,0.6,1.9,1.5,1.9c0.9,0,1.5-0.8,1.5-1.9c0-0.8-0.4-1.9-1.5-1.9
				S392.3,621.8,392.3,622.8z"/>
			<path class="st12" d="M400.9,625.1c-0.2,0.1-0.8,0.3-1.4,0.3c-1.5,0-2.5-1-2.5-2.5c0-1.5,1-2.6,2.7-2.6c0.5,0,1,0.1,1.3,0.3
				l-0.2,0.7c-0.2-0.1-0.6-0.2-1.1-0.2c-1.1,0-1.8,0.8-1.8,1.9c0,1.2,0.7,1.9,1.7,1.9c0.5,0,0.9-0.1,1.1-0.2L400.9,625.1z"/>
			<path class="st12" d="M406.2,623.9c0,0.5,0,1,0,1.4h-0.8l-0.1-0.8h0c-0.2,0.4-0.8,0.9-1.6,0.9c-0.8,0-1.7-0.4-1.7-2.2v-2.9h0.9
				v2.8c0,0.9,0.3,1.6,1.1,1.6c0.6,0,1-0.4,1.2-0.8c0.1-0.1,0.1-0.3,0.1-0.5v-3.1h0.9V623.9z"/>
			<path class="st12" d="M407.7,621.9c0-0.6,0-1.2,0-1.6h0.8l0,0.9h0c0.4-0.6,1-1,1.8-1c1.2,0,2.1,1,2.1,2.5c0,1.8-1.1,2.7-2.3,2.7
				c-0.7,0-1.2-0.3-1.5-0.8h0v2.7h-0.9V621.9z M408.6,623.2c0,0.1,0,0.3,0,0.4c0.2,0.6,0.7,1.1,1.4,1.1c1,0,1.5-0.8,1.5-1.9
				c0-1-0.5-1.9-1.5-1.9c-0.6,0-1.2,0.4-1.4,1.1c0,0.1-0.1,0.2-0.1,0.4V623.2z"/>
			<path class="st12" d="M416.3,625.3l-0.1-0.6h0c-0.3,0.4-0.8,0.7-1.5,0.7c-1,0-1.5-0.7-1.5-1.4c0-1.2,1.1-1.9,3-1.9V622
				c0-0.4-0.1-1.2-1.1-1.2c-0.5,0-0.9,0.1-1.3,0.4l-0.2-0.6c0.4-0.3,1-0.4,1.6-0.4c1.5,0,1.9,1,1.9,2v1.9c0,0.4,0,0.9,0.1,1.2H416.3
				z M416.1,622.7c-1,0-2.1,0.2-2.1,1.1c0,0.6,0.4,0.9,0.9,0.9c0.6,0,1.1-0.4,1.2-0.8c0-0.1,0.1-0.2,0.1-0.3V622.7z"/>
			<path class="st12" d="M422,625.1c-0.2,0.1-0.8,0.3-1.4,0.3c-1.5,0-2.5-1-2.5-2.5c0-1.5,1-2.6,2.7-2.6c0.5,0,1,0.1,1.3,0.3
				l-0.2,0.7c-0.2-0.1-0.6-0.2-1.1-0.2c-1.1,0-1.8,0.8-1.8,1.9c0,1.2,0.7,1.9,1.7,1.9c0.5,0,0.9-0.1,1.1-0.2L422,625.1z"/>
			<path class="st12" d="M424.1,618.9c0,0.3-0.2,0.6-0.6,0.6c-0.3,0-0.5-0.2-0.5-0.6c0-0.3,0.2-0.6,0.6-0.6
				C423.9,618.3,424.1,618.6,424.1,618.9z M423.1,625.3v-5h0.9v5H423.1z"/>
			<path class="st12" d="M430,622.7c0,1.8-1.3,2.6-2.5,2.6c-1.3,0-2.4-1-2.4-2.6c0-1.7,1.1-2.6,2.5-2.6
				C429.1,620.2,430,621.2,430,622.7z M426.1,622.8c0,1.1,0.6,1.9,1.5,1.9c0.9,0,1.5-0.8,1.5-1.9c0-0.8-0.4-1.9-1.5-1.9
				S426.1,621.8,426.1,622.8z M428.9,618.1l-1.3,1.5H427l0.9-1.5H428.9z"/>
			<path class="st12" d="M436.8,622.9c0,1.2,0.8,1.7,1.7,1.7c0.6,0,1-0.1,1.4-0.3l0.2,0.6c-0.3,0.1-0.9,0.3-1.7,0.3
				c-1.5,0-2.5-1-2.5-2.5s0.9-2.7,2.3-2.7c1.6,0,2.1,1.4,2.1,2.3c0,0.2,0,0.3,0,0.4H436.8z M439.5,622.3c0-0.6-0.2-1.5-1.3-1.5
				c-0.9,0-1.3,0.8-1.4,1.5H439.5z"/>
			<path class="st12" d="M441.5,621.6c0-0.5,0-0.9,0-1.3h0.8l0.1,0.8h0c0.2-0.5,0.8-0.9,1.6-0.9c0.7,0,1.8,0.4,1.8,2.1v3h-0.9v-2.9
				c0-0.8-0.3-1.5-1.2-1.5c-0.6,0-1.1,0.4-1.2,0.9c0,0.1-0.1,0.3-0.1,0.4v3h-0.9V621.6z"/>
			<path class="st12" d="M455.1,625.3l-0.1-0.6h0c-0.3,0.4-0.8,0.7-1.5,0.7c-1,0-1.5-0.7-1.5-1.4c0-1.2,1.1-1.9,3-1.9V622
				c0-0.4-0.1-1.2-1.1-1.2c-0.5,0-0.9,0.1-1.3,0.4l-0.2-0.6c0.4-0.3,1-0.4,1.6-0.4c1.5,0,1.9,1,1.9,2v1.9c0,0.4,0,0.9,0.1,1.2H455.1
				z M455,622.7c-1,0-2.1,0.2-2.1,1.1c0,0.6,0.4,0.9,0.9,0.9c0.6,0,1.1-0.4,1.2-0.8c0-0.1,0.1-0.2,0.1-0.3V622.7z"/>
			<path class="st12" d="M457.3,617.9h0.9v7.3h-0.9V617.9z"/>
			<path class="st12" d="M459.7,617.9h0.9v7.3h-0.9V617.9z"/>
			<path class="st12" d="M466.7,622.7c0,1.8-1.3,2.6-2.5,2.6c-1.3,0-2.4-1-2.4-2.6c0-1.7,1.1-2.6,2.5-2.6
				C465.7,620.2,466.7,621.2,466.7,622.7z M462.7,622.8c0,1.1,0.6,1.9,1.5,1.9c0.9,0,1.5-0.8,1.5-1.9c0-0.8-0.4-1.9-1.5-1.9
				S462.7,621.8,462.7,622.8z"/>
			<path class="st12" d="M468.9,618.8v1.4h1.3v0.7h-1.3v2.7c0,0.6,0.2,1,0.7,1c0.2,0,0.4,0,0.5-0.1l0,0.7c-0.2,0.1-0.5,0.1-0.8,0.1
				c-0.4,0-0.8-0.1-1-0.4c-0.3-0.3-0.4-0.7-0.4-1.3V621h-0.8v-0.7h0.8v-1.2L468.9,618.8z"/>
			<path class="st12" d="M470,626.7c0.4,0,0.8-0.1,1-0.4c0.2-0.3,0.3-0.7,0.3-1.9v-4.2h0.9v4.5c0,1-0.2,1.6-0.6,2
				c-0.4,0.4-1.1,0.6-1.5,0.6L470,626.7z M472.4,618.9c0,0.3-0.2,0.6-0.6,0.6c-0.3,0-0.6-0.3-0.6-0.6c0-0.3,0.2-0.6,0.6-0.6
				C472.1,618.3,472.4,618.6,472.4,618.9z"/>
			<path class="st12" d="M476.5,625.3l-0.1-0.6h0c-0.3,0.4-0.8,0.7-1.5,0.7c-1,0-1.5-0.7-1.5-1.4c0-1.2,1.1-1.9,3-1.9V622
				c0-0.4-0.1-1.2-1.1-1.2c-0.5,0-0.9,0.1-1.3,0.4l-0.2-0.6c0.4-0.3,1-0.4,1.6-0.4c1.5,0,1.9,1,1.9,2v1.9c0,0.4,0,0.9,0.1,1.2H476.5
				z M476.4,622.7c-1,0-2.1,0.2-2.1,1.1c0,0.6,0.4,0.9,0.9,0.9c0.6,0,1.1-0.4,1.2-0.8c0-0.1,0.1-0.2,0.1-0.3V622.7z"/>
			<path class="st12" d="M478.7,621.6c0-0.5,0-0.9,0-1.3h0.8l0,0.8h0c0.3-0.5,0.7-0.9,1.6-0.9c0.7,0,1.2,0.4,1.4,1h0
				c0.2-0.3,0.4-0.5,0.6-0.6c0.3-0.2,0.6-0.4,1.1-0.4c0.7,0,1.6,0.4,1.6,2.2v2.9h-0.9v-2.8c0-1-0.4-1.5-1.1-1.5
				c-0.5,0-0.9,0.4-1.1,0.8c0,0.1-0.1,0.3-0.1,0.5v3.1h-0.9v-3c0-0.8-0.4-1.4-1-1.4c-0.6,0-1,0.5-1.1,0.9c-0.1,0.1-0.1,0.3-0.1,0.4
				v3h-0.9V621.6z"/>
			<path class="st12" d="M487.8,622.9c0,1.2,0.8,1.7,1.7,1.7c0.6,0,1-0.1,1.4-0.3l0.2,0.6c-0.3,0.1-0.9,0.3-1.7,0.3
				c-1.5,0-2.5-1-2.5-2.5s0.9-2.7,2.3-2.7c1.6,0,2.1,1.4,2.1,2.3c0,0.2,0,0.3,0,0.4H487.8z M490.5,622.3c0-0.6-0.2-1.5-1.3-1.5
				c-0.9,0-1.3,0.8-1.4,1.5H490.5z"/>
			<path class="st12" d="M492.5,621.6c0-0.5,0-0.9,0-1.3h0.8l0.1,0.8h0c0.2-0.5,0.8-0.9,1.6-0.9c0.7,0,1.8,0.4,1.8,2.1v3h-0.9v-2.9
				c0-0.8-0.3-1.5-1.2-1.5c-0.6,0-1.1,0.4-1.2,0.9c0,0.1-0.1,0.3-0.1,0.4v3h-0.9V621.6z"/>
			<path class="st12" d="M499.3,618.8v1.4h1.3v0.7h-1.3v2.7c0,0.6,0.2,1,0.7,1c0.2,0,0.4,0,0.5-0.1l0,0.7c-0.2,0.1-0.5,0.1-0.8,0.1
				c-0.4,0-0.8-0.1-1-0.4c-0.3-0.3-0.4-0.7-0.4-1.3V621h-0.8v-0.7h0.8v-1.2L499.3,618.8z"/>
			<path class="st12" d="M501.5,624.3c0.3,0.2,0.7,0.4,1.2,0.4c0.7,0,1-0.3,1-0.7c0-0.4-0.3-0.7-0.9-0.9c-0.9-0.3-1.3-0.8-1.3-1.4
				c0-0.8,0.6-1.5,1.7-1.5c0.5,0,0.9,0.1,1.2,0.3l-0.2,0.7c-0.2-0.1-0.6-0.3-1-0.3c-0.5,0-0.8,0.3-0.8,0.7c0,0.4,0.3,0.6,0.9,0.8
				c0.9,0.3,1.3,0.8,1.3,1.5c0,0.9-0.7,1.5-1.9,1.5c-0.5,0-1.1-0.1-1.4-0.3L501.5,624.3z"/>
			<path class="st12" d="M515.1,617.9v6c0,0.4,0,0.9,0,1.3h-0.8l0-0.9h0c-0.3,0.6-0.9,1-1.7,1c-1.2,0-2.1-1-2.1-2.5
				c0-1.7,1-2.7,2.2-2.7c0.8,0,1.3,0.4,1.5,0.8h0v-3H515.1z M514.2,622.3c0-0.1,0-0.3,0-0.4c-0.1-0.6-0.6-1.1-1.3-1.1
				c-0.9,0-1.5,0.8-1.5,1.9c0,1,0.5,1.8,1.5,1.8c0.6,0,1.2-0.4,1.3-1.1c0-0.1,0-0.2,0-0.4V622.3z"/>
			<path class="st12" d="M517.1,622.9c0,1.2,0.8,1.7,1.7,1.7c0.6,0,1-0.1,1.4-0.3l0.2,0.6c-0.3,0.1-0.9,0.3-1.7,0.3
				c-1.5,0-2.5-1-2.5-2.5s0.9-2.7,2.3-2.7c1.6,0,2.1,1.4,2.1,2.3c0,0.2,0,0.3,0,0.4H517.1z M519.8,622.3c0-0.6-0.2-1.5-1.3-1.5
				c-0.9,0-1.3,0.8-1.4,1.5H519.8z"/>
			<path class="st12" d="M526.9,617.9h0.9v7.3h-0.9V617.9z"/>
			<path class="st12" d="M530,618.2l-0.2,2.5h-0.6l-0.2-2.5H530z"/>
			<path class="st12" d="M532.2,618.3v6.9h-0.9v-6.9H532.2z"/>
			<path class="st12" d="M533.8,625.3v-6.9h1l2.2,3.5c0.5,0.8,0.9,1.5,1.2,2.3l0,0c-0.1-0.9-0.1-1.8-0.1-2.9v-2.9h0.8v6.9h-0.9
				l-2.2-3.5c-0.5-0.8-0.9-1.6-1.3-2.3l0,0c0.1,0.9,0.1,1.7,0.1,2.9v3H533.8z"/>
			<path class="st12" d="M544.2,622h-2.7v2.5h3v0.8h-3.9v-6.9h3.7v0.8h-2.9v2.2h2.7V622z"/>
			<path class="st12" d="M545.7,624.4c0.1-0.1,0.2-0.2,0.4-0.2c0.2,0,0.3,0.1,0.4,0.2c0.1,0.1,0.2,0.2,0.2,0.4
				c0,0.2-0.1,0.3-0.2,0.4c-0.1,0.1-0.2,0.2-0.4,0.2c-0.1,0-0.3-0.1-0.4-0.2c-0.1-0.1-0.2-0.2-0.2-0.4
				C545.6,624.7,545.6,624.6,545.7,624.4z"/>
		</g>
	</g>
</g>
<g>
	<g class="st11">
		<path class="st12" d="M51.6,585.1l0.2-0.7c0.3,0.1,0.7,0.3,1.2,0.5c0-0.2,0-0.7-0.1-1.3h0.7c0,0.3,0,0.7-0.1,1.2
			c0.3-0.2,0.7-0.3,1.2-0.5l0.2,0.7c-0.4,0.1-0.8,0.2-1.3,0.3c0.2,0.2,0.5,0.5,0.9,1l-0.6,0.4c-0.3-0.4-0.5-0.7-0.7-1.1
			c-0.2,0.3-0.4,0.7-0.7,1.1l-0.6-0.4c0.2-0.3,0.5-0.6,0.8-1C52.5,585.3,52.1,585.2,51.6,585.1z"/>
		<path class="st12" d="M61.2,584.2h0.9v6.2h3v0.8h-3.9V584.2z"/>
		<path class="st12" d="M66.5,588.8c0,1.2,0.8,1.7,1.7,1.7c0.6,0,1-0.1,1.4-0.3l0.2,0.6c-0.3,0.1-0.9,0.3-1.7,0.3
			c-1.5,0-2.5-1-2.5-2.5s0.9-2.7,2.3-2.7c1.6,0,2.1,1.4,2.1,2.3c0,0.2,0,0.3,0,0.4H66.5z M69.2,588.1c0-0.6-0.2-1.5-1.3-1.5
			c-0.9,0-1.3,0.8-1.4,1.5H69.2z"/>
		<path class="st12" d="M71.1,590.2c0.3,0.2,0.7,0.4,1.2,0.4c0.7,0,1-0.3,1-0.7c0-0.4-0.3-0.7-0.9-0.9c-0.9-0.3-1.3-0.8-1.3-1.4
			c0-0.8,0.6-1.5,1.7-1.5c0.5,0,0.9,0.1,1.2,0.3l-0.2,0.7c-0.2-0.1-0.6-0.3-1-0.3c-0.5,0-0.8,0.3-0.8,0.7c0,0.4,0.3,0.6,0.9,0.8
			c0.9,0.3,1.3,0.8,1.3,1.5c0,0.9-0.7,1.5-1.9,1.5c-0.5,0-1.1-0.1-1.4-0.3L71.1,590.2z"/>
		<path class="st12" d="M84.7,583.8v6c0,0.4,0,0.9,0,1.3H84l0-0.9h0c-0.3,0.6-0.9,1-1.7,1c-1.2,0-2.1-1-2.1-2.5c0-1.7,1-2.7,2.2-2.7
			c0.8,0,1.3,0.4,1.5,0.8h0v-3H84.7z M83.8,588.2c0-0.1,0-0.3,0-0.4c-0.1-0.6-0.6-1.1-1.3-1.1c-0.9,0-1.5,0.8-1.5,1.9
			c0,1,0.5,1.8,1.5,1.8c0.6,0,1.2-0.4,1.3-1.1c0-0.1,0-0.2,0-0.4V588.2z"/>
		<path class="st12" d="M89,591.1l-0.1-0.6h0c-0.3,0.4-0.8,0.7-1.5,0.7c-1,0-1.5-0.7-1.5-1.4c0-1.2,1.1-1.9,3-1.9v-0.1
			c0-0.4-0.1-1.2-1.1-1.2c-0.5,0-0.9,0.1-1.3,0.4l-0.2-0.6c0.4-0.3,1-0.4,1.6-0.4c1.5,0,1.9,1,1.9,2v1.9c0,0.4,0,0.9,0.1,1.2H89z
			 M88.9,588.6c-1,0-2.1,0.2-2.1,1.1c0,0.6,0.4,0.9,0.9,0.9c0.6,0,1.1-0.4,1.2-0.8c0-0.1,0.1-0.2,0.1-0.3V588.6z"/>
		<path class="st12" d="M95.5,583.8v6c0,0.4,0,0.9,0,1.3h-0.8l0-0.9h0c-0.3,0.6-0.9,1-1.7,1c-1.2,0-2.1-1-2.1-2.5
			c0-1.7,1-2.7,2.2-2.7c0.8,0,1.3,0.4,1.5,0.8h0v-3H95.5z M94.6,588.2c0-0.1,0-0.3,0-0.4c-0.1-0.6-0.6-1.1-1.3-1.1
			c-0.9,0-1.5,0.8-1.5,1.9c0,1,0.5,1.8,1.5,1.8c0.6,0,1.2-0.4,1.3-1.1c0-0.1,0-0.2,0-0.4V588.2z"/>
		<path class="st12" d="M97.5,588.8c0,1.2,0.8,1.7,1.7,1.7c0.6,0,1-0.1,1.4-0.3l0.2,0.6c-0.3,0.1-0.9,0.3-1.7,0.3
			c-1.5,0-2.5-1-2.5-2.5s0.9-2.7,2.3-2.7c1.6,0,2.1,1.4,2.1,2.3c0,0.2,0,0.3,0,0.4H97.5z M100.2,588.1c0-0.6-0.2-1.5-1.3-1.5
			c-0.9,0-1.3,0.8-1.4,1.5H100.2z"/>
		<path class="st12" d="M102,590.2c0.3,0.2,0.7,0.4,1.2,0.4c0.7,0,1-0.3,1-0.7c0-0.4-0.3-0.7-0.9-0.9c-0.9-0.3-1.3-0.8-1.3-1.4
			c0-0.8,0.6-1.5,1.7-1.5c0.5,0,0.9,0.1,1.2,0.3l-0.2,0.7c-0.2-0.1-0.6-0.3-1-0.3c-0.5,0-0.8,0.3-0.8,0.7c0,0.4,0.3,0.6,0.9,0.8
			c0.9,0.3,1.3,0.8,1.3,1.5c0,0.9-0.7,1.5-1.9,1.5c-0.5,0-1.1-0.1-1.4-0.3L102,590.2z"/>
		<path class="st12" d="M115.7,583.8v6c0,0.4,0,0.9,0,1.3h-0.8l0-0.9h0c-0.3,0.6-0.9,1-1.7,1c-1.2,0-2.1-1-2.1-2.5
			c0-1.7,1-2.7,2.2-2.7c0.8,0,1.3,0.4,1.5,0.8h0v-3H115.7z M114.8,588.2c0-0.1,0-0.3,0-0.4c-0.1-0.6-0.6-1.1-1.3-1.1
			c-0.9,0-1.5,0.8-1.5,1.9c0,1,0.5,1.8,1.5,1.8c0.6,0,1.2-0.4,1.3-1.1c0-0.1,0-0.2,0-0.4V588.2z"/>
		<path class="st12" d="M117.7,588.8c0,1.2,0.8,1.7,1.7,1.7c0.6,0,1-0.1,1.4-0.3l0.2,0.6c-0.3,0.1-0.9,0.3-1.7,0.3
			c-1.5,0-2.5-1-2.5-2.5s0.9-2.7,2.3-2.7c1.6,0,2.1,1.4,2.1,2.3c0,0.2,0,0.3,0,0.4H117.7z M120.4,588.1c0-0.6-0.2-1.5-1.3-1.5
			c-0.9,0-1.3,0.8-1.4,1.5H120.4z"/>
		<path class="st12" d="M122.4,583.8h0.9v7.3h-0.9V583.8z"/>
		<path class="st12" d="M124.7,590.2c0.3,0.2,0.7,0.4,1.2,0.4c0.7,0,1-0.3,1-0.7c0-0.4-0.3-0.7-0.9-0.9c-0.9-0.3-1.3-0.8-1.3-1.4
			c0-0.8,0.6-1.5,1.7-1.5c0.5,0,0.9,0.1,1.2,0.3l-0.2,0.7c-0.2-0.1-0.6-0.3-1-0.3c-0.5,0-0.8,0.3-0.8,0.7c0,0.4,0.3,0.6,0.9,0.8
			c0.9,0.3,1.3,0.8,1.3,1.5c0,0.9-0.7,1.5-1.9,1.5c-0.5,0-1.1-0.1-1.4-0.3L124.7,590.2z"/>
		<path class="st12" d="M134,587.5c0-0.5,0-0.9,0-1.3h0.8l0,0.8h0c0.3-0.5,0.7-0.9,1.6-0.9c0.7,0,1.2,0.4,1.4,1h0
			c0.2-0.3,0.4-0.5,0.6-0.6c0.3-0.2,0.6-0.4,1.1-0.4c0.7,0,1.6,0.4,1.6,2.2v2.9h-0.9v-2.8c0-1-0.4-1.5-1.1-1.5
			c-0.5,0-0.9,0.4-1.1,0.8c0,0.1-0.1,0.3-0.1,0.5v3.1h-0.9v-3c0-0.8-0.4-1.4-1-1.4c-0.6,0-1,0.5-1.1,0.9c-0.1,0.1-0.1,0.3-0.1,0.4v3
			H134V587.5z"/>
		<path class="st12" d="M143.1,588.8c0,1.2,0.8,1.7,1.7,1.7c0.6,0,1-0.1,1.4-0.3l0.2,0.6c-0.3,0.1-0.9,0.3-1.7,0.3
			c-1.5,0-2.5-1-2.5-2.5s0.9-2.7,2.3-2.7c1.6,0,2.1,1.4,2.1,2.3c0,0.2,0,0.3,0,0.4H143.1z M145.8,588.1c0-0.6-0.2-1.5-1.3-1.5
			c-0.9,0-1.3,0.8-1.4,1.5H145.8z"/>
		<path class="st12" d="M147.7,590.2c0.3,0.2,0.7,0.4,1.2,0.4c0.7,0,1-0.3,1-0.7c0-0.4-0.3-0.7-0.9-0.9c-0.9-0.3-1.3-0.8-1.3-1.4
			c0-0.8,0.6-1.5,1.7-1.5c0.5,0,0.9,0.1,1.2,0.3l-0.2,0.7c-0.2-0.1-0.6-0.3-1-0.3c-0.5,0-0.8,0.3-0.8,0.7c0,0.4,0.3,0.6,0.9,0.8
			c0.9,0.3,1.3,0.8,1.3,1.5c0,0.9-0.7,1.5-1.9,1.5c-0.5,0-1.1-0.1-1.4-0.3L147.7,590.2z"/>
		<path class="st12" d="M156.4,588.6c0,1.8-1.3,2.6-2.5,2.6c-1.3,0-2.4-1-2.4-2.6c0-1.7,1.1-2.6,2.5-2.6
			C155.4,586,156.4,587.1,156.4,588.6z M152.4,588.6c0,1.1,0.6,1.9,1.5,1.9c0.9,0,1.5-0.8,1.5-1.9c0-0.8-0.4-1.9-1.5-1.9
			S152.4,587.7,152.4,588.6z"/>
		<path class="st12" d="M157.4,590.2c0.3,0.2,0.7,0.4,1.2,0.4c0.7,0,1-0.3,1-0.7c0-0.4-0.3-0.7-0.9-0.9c-0.9-0.3-1.3-0.8-1.3-1.4
			c0-0.8,0.6-1.5,1.7-1.5c0.5,0,0.9,0.1,1.2,0.3L160,587c-0.2-0.1-0.6-0.3-1-0.3c-0.5,0-0.8,0.3-0.8,0.7c0,0.4,0.3,0.6,0.9,0.8
			c0.9,0.3,1.3,0.8,1.3,1.5c0,0.9-0.7,1.5-1.9,1.5c-0.5,0-1.1-0.1-1.4-0.3L157.4,590.2z"/>
		<path class="st12" d="M171,583.8v6c0,0.4,0,0.9,0,1.3h-0.8l0-0.9h0c-0.3,0.6-0.9,1-1.7,1c-1.2,0-2.1-1-2.1-2.5
			c0-1.7,1-2.7,2.2-2.7c0.8,0,1.3,0.4,1.5,0.8h0v-3H171z M170.1,588.2c0-0.1,0-0.3,0-0.4c-0.1-0.6-0.6-1.1-1.3-1.1
			c-0.9,0-1.5,0.8-1.5,1.9c0,1,0.5,1.8,1.5,1.8c0.6,0,1.2-0.4,1.3-1.1c0-0.1,0-0.2,0-0.4V588.2z"/>
		<path class="st12" d="M173.1,588.8c0,1.2,0.8,1.7,1.7,1.7c0.6,0,1-0.1,1.4-0.3l0.2,0.6c-0.3,0.1-0.9,0.3-1.7,0.3
			c-1.5,0-2.5-1-2.5-2.5s0.9-2.7,2.3-2.7c1.6,0,2.1,1.4,2.1,2.3c0,0.2,0,0.3,0,0.4H173.1z M175.7,588.1c0-0.6-0.2-1.5-1.3-1.5
			c-0.9,0-1.3,0.8-1.4,1.5H175.7z"/>
		<path class="st12" d="M182.9,587.5c0-0.5,0-0.9,0-1.3h0.8l0,0.8h0c0.3-0.5,0.7-0.9,1.6-0.9c0.7,0,1.2,0.4,1.4,1h0
			c0.2-0.3,0.4-0.5,0.6-0.6c0.3-0.2,0.6-0.4,1.1-0.4c0.7,0,1.6,0.4,1.6,2.2v2.9h-0.9v-2.8c0-1-0.4-1.5-1.1-1.5
			c-0.5,0-0.9,0.4-1.1,0.8c0,0.1-0.1,0.3-0.1,0.5v3.1H186v-3c0-0.8-0.4-1.4-1-1.4c-0.6,0-1,0.5-1.1,0.9c-0.1,0.1-0.1,0.3-0.1,0.4v3
			h-0.9V587.5z"/>
		<path class="st12" d="M194.2,591.1l-0.1-0.6h0c-0.3,0.4-0.8,0.7-1.5,0.7c-1,0-1.5-0.7-1.5-1.4c0-1.2,1.1-1.9,3-1.9v-0.1
			c0-0.4-0.1-1.2-1.1-1.2c-0.5,0-0.9,0.1-1.3,0.4l-0.2-0.6c0.4-0.3,1-0.4,1.6-0.4c1.5,0,1.9,1,1.9,2v1.9c0,0.4,0,0.9,0.1,1.2H194.2z
			 M194.1,588.6c-1,0-2.1,0.2-2.1,1.1c0,0.6,0.4,0.9,0.9,0.9c0.6,0,1.1-0.4,1.2-0.8c0-0.1,0.1-0.2,0.1-0.3V588.6z"/>
		<path class="st12" d="M196.4,587.7c0-0.6,0-1.1,0-1.6h0.8l0,1h0c0.2-0.7,0.8-1.1,1.4-1.1c0.1,0,0.2,0,0.3,0v0.9
			c-0.1,0-0.2,0-0.3,0c-0.6,0-1.1,0.5-1.2,1.2c0,0.1,0,0.3,0,0.4v2.7h-0.9V587.7z"/>
		<path class="st12" d="M203.3,590.9c-0.2,0.1-0.7,0.3-1.3,0.3l-0.3,0.4c0.4,0.1,0.7,0.3,0.7,0.7c0,0.6-0.5,0.8-1.1,0.8
			c-0.3,0-0.5-0.1-0.7-0.2l0.2-0.4c0.2,0.1,0.4,0.2,0.6,0.2c0.2,0,0.4-0.1,0.4-0.3c0-0.3-0.3-0.4-0.8-0.4l0.4-0.8
			c-1.3-0.2-2.1-1.1-2.1-2.5c0-1.5,1.1-2.6,2.7-2.6c0.5,0,1,0.1,1.3,0.3l-0.2,0.7c-0.2-0.1-0.6-0.2-1.1-0.2c-1.1,0-1.8,0.8-1.8,1.9
			c0,1.2,0.7,1.9,1.7,1.9c0.5,0,0.9-0.1,1.1-0.2L203.3,590.9z"/>
		<path class="st12" d="M210.6,584.7c0,0.3-0.2,0.6-0.6,0.6c-0.3,0-0.5-0.2-0.5-0.6c0-0.3,0.2-0.6,0.6-0.6
			C210.3,584.2,210.6,584.4,210.6,584.7z M209.5,591.1v-5h0.9v5H209.5z"/>
		<path class="st12" d="M217.1,587.5c0-0.5,0-0.9,0-1.3h0.8l0,0.8h0c0.3-0.5,0.7-0.9,1.6-0.9c0.7,0,1.2,0.4,1.4,1h0
			c0.2-0.3,0.4-0.5,0.6-0.6c0.3-0.2,0.6-0.4,1.1-0.4c0.7,0,1.6,0.4,1.6,2.2v2.9h-0.9v-2.8c0-1-0.4-1.5-1.1-1.5
			c-0.5,0-0.9,0.4-1.1,0.8c0,0.1-0.1,0.3-0.1,0.5v3.1h-0.9v-3c0-0.8-0.4-1.4-1-1.4c-0.6,0-1,0.5-1.1,0.9c-0.1,0.1-0.1,0.3-0.1,0.4v3
			h-0.9V587.5z"/>
		<path class="st12" d="M228.5,591.1l-0.1-0.6h0c-0.3,0.4-0.8,0.7-1.5,0.7c-1,0-1.5-0.7-1.5-1.4c0-1.2,1.1-1.9,3-1.9v-0.1
			c0-0.4-0.1-1.2-1.1-1.2c-0.5,0-0.9,0.1-1.3,0.4l-0.2-0.6c0.4-0.3,1-0.4,1.6-0.4c1.5,0,1.9,1,1.9,2v1.9c0,0.4,0,0.9,0.1,1.2H228.5z
			 M228.3,588.6c-1,0-2.1,0.2-2.1,1.1c0,0.6,0.4,0.9,0.9,0.9c0.6,0,1.1-0.4,1.2-0.8c0-0.1,0.1-0.2,0.1-0.3V588.6z"/>
		<path class="st12" d="M231.7,584.7c0,0.3-0.2,0.6-0.6,0.6c-0.3,0-0.5-0.2-0.5-0.6c0-0.3,0.2-0.6,0.6-0.6
			C231.5,584.2,231.7,584.4,231.7,584.7z M230.7,591.1v-5h0.9v5H230.7z"/>
		<path class="st12" d="M237.4,586.1c0,0.4,0,0.8,0,1.4v2.9c0,1.1-0.2,1.8-0.7,2.3c-0.5,0.5-1.2,0.6-1.8,0.6c-0.6,0-1.3-0.1-1.7-0.4
			l0.2-0.7c0.3,0.2,0.8,0.4,1.5,0.4c0.9,0,1.6-0.5,1.6-1.7v-0.6h0c-0.3,0.5-0.8,0.8-1.6,0.8c-1.2,0-2.1-1.1-2.1-2.4
			c0-1.7,1.1-2.6,2.2-2.6c0.9,0,1.3,0.5,1.6,0.9h0l0-0.8H237.4z M236.4,588.1c0-0.2,0-0.3-0.1-0.4c-0.2-0.5-0.6-1-1.3-1
			c-0.9,0-1.5,0.7-1.5,1.9c0,1,0.5,1.8,1.5,1.8c0.6,0,1.1-0.3,1.3-0.9c0.1-0.2,0.1-0.3,0.1-0.5V588.1z"/>
		<path class="st12" d="M244,587.5c0-0.5,0-0.9,0-1.3h0.8l0.1,0.8h0c0.2-0.5,0.8-0.9,1.6-0.9c0.7,0,1.8,0.4,1.8,2.1v3h-0.9v-2.9
			c0-0.8-0.3-1.5-1.2-1.5c-0.6,0-1.1,0.4-1.2,0.9c0,0.1-0.1,0.3-0.1,0.4v3H244V587.5z"/>
		<path class="st12" d="M254.2,588.6c0,1.8-1.3,2.6-2.5,2.6c-1.3,0-2.4-1-2.4-2.6c0-1.7,1.1-2.6,2.5-2.6
			C253.2,586,254.2,587.1,254.2,588.6z M250.3,588.6c0,1.1,0.6,1.9,1.5,1.9c0.9,0,1.5-0.8,1.5-1.9c0-0.8-0.4-1.9-1.5-1.9
			S250.3,587.7,250.3,588.6z"/>
		<path class="st12" d="M261,588.8c0,1.2,0.8,1.7,1.7,1.7c0.6,0,1-0.1,1.4-0.3l0.2,0.6c-0.3,0.1-0.9,0.3-1.7,0.3
			c-1.5,0-2.5-1-2.5-2.5s0.9-2.7,2.3-2.7c1.6,0,2.1,1.4,2.1,2.3c0,0.2,0,0.3,0,0.4H261z M263.7,588.1c0-0.6-0.2-1.5-1.3-1.5
			c-0.9,0-1.3,0.8-1.4,1.5H263.7z"/>
		<path class="st12" d="M265.5,590.2c0.3,0.2,0.7,0.4,1.2,0.4c0.7,0,1-0.3,1-0.7c0-0.4-0.3-0.7-0.9-0.9c-0.9-0.3-1.3-0.8-1.3-1.4
			c0-0.8,0.6-1.5,1.7-1.5c0.5,0,0.9,0.1,1.2,0.3l-0.2,0.7c-0.2-0.1-0.6-0.3-1-0.3c-0.5,0-0.8,0.3-0.8,0.7c0,0.4,0.3,0.6,0.9,0.8
			c0.9,0.3,1.3,0.8,1.3,1.5c0,0.9-0.7,1.5-1.9,1.5c-0.5,0-1.1-0.1-1.4-0.3L265.5,590.2z"/>
		<path class="st12" d="M270.8,584.7v1.4h1.3v0.7h-1.3v2.7c0,0.6,0.2,1,0.7,1c0.2,0,0.4,0,0.5-0.1l0,0.7c-0.2,0.1-0.5,0.1-0.8,0.1
			c-0.4,0-0.8-0.1-1-0.4c-0.3-0.3-0.4-0.7-0.4-1.3v-2.7h-0.8v-0.7h0.8v-1.2L270.8,584.7z"/>
		<path class="st12" d="M275.9,591.1l-0.1-0.6h0c-0.3,0.4-0.8,0.7-1.5,0.7c-1,0-1.5-0.7-1.5-1.4c0-1.2,1.1-1.9,3-1.9v-0.1
			c0-0.4-0.1-1.2-1.1-1.2c-0.5,0-0.9,0.1-1.3,0.4l-0.2-0.6c0.4-0.3,1-0.4,1.6-0.4c1.5,0,1.9,1,1.9,2v1.9c0,0.4,0,0.9,0.1,1.2H275.9z
			 M275.8,588.6c-1,0-2.1,0.2-2.1,1.1c0,0.6,0.4,0.9,0.9,0.9c0.6,0,1.1-0.4,1.2-0.8c0-0.1,0.1-0.2,0.1-0.3V588.6z"/>
		<path class="st12" d="M278.1,587.5c0-0.5,0-0.9,0-1.3h0.8l0.1,0.8h0c0.2-0.5,0.8-0.9,1.6-0.9c0.7,0,1.8,0.4,1.8,2.1v3h-0.9v-2.9
			c0-0.8-0.3-1.5-1.2-1.5c-0.6,0-1.1,0.4-1.2,0.9c0,0.1-0.1,0.3-0.1,0.4v3h-0.9V587.5z"/>
		<path class="st12" d="M293.3,583.8v6c0,0.4,0,0.9,0,1.3h-0.8l0-0.9h0c-0.3,0.6-0.9,1-1.7,1c-1.2,0-2.1-1-2.1-2.5
			c0-1.7,1-2.7,2.2-2.7c0.8,0,1.3,0.4,1.5,0.8h0v-3H293.3z M292.4,588.2c0-0.1,0-0.3,0-0.4c-0.1-0.6-0.6-1.1-1.3-1.1
			c-0.9,0-1.5,0.8-1.5,1.9c0,1,0.5,1.8,1.5,1.8c0.6,0,1.2-0.4,1.3-1.1c0-0.1,0-0.2,0-0.4V588.2z"/>
		<path class="st12" d="M295.8,584.7c0,0.3-0.2,0.6-0.6,0.6c-0.3,0-0.5-0.2-0.5-0.6c0-0.3,0.2-0.6,0.6-0.6
			C295.6,584.2,295.8,584.4,295.8,584.7z M294.8,591.1v-5h0.9v5H294.8z"/>
		<path class="st12" d="M297.1,590.2c0.3,0.2,0.7,0.4,1.2,0.4c0.7,0,1-0.3,1-0.7c0-0.4-0.3-0.7-0.9-0.9c-0.9-0.3-1.3-0.8-1.3-1.4
			c0-0.8,0.6-1.5,1.7-1.5c0.5,0,0.9,0.1,1.2,0.3l-0.2,0.7c-0.2-0.1-0.6-0.3-1-0.3c-0.5,0-0.8,0.3-0.8,0.7c0,0.4,0.3,0.6,0.9,0.8
			c0.9,0.3,1.3,0.8,1.3,1.5c0,0.9-0.7,1.5-1.9,1.5c-0.5,0-1.1-0.1-1.4-0.3L297.1,590.2z"/>
		<path class="st12" d="M301.3,587.8c0-0.6,0-1.2,0-1.6h0.8l0,0.9h0c0.4-0.6,1-1,1.8-1c1.2,0,2.1,1,2.1,2.5c0,1.8-1.1,2.7-2.3,2.7
			c-0.7,0-1.2-0.3-1.5-0.8h0v2.7h-0.9V587.8z M302.2,589.1c0,0.1,0,0.3,0,0.4c0.2,0.6,0.7,1.1,1.4,1.1c1,0,1.5-0.8,1.5-1.9
			c0-1-0.5-1.9-1.5-1.9c-0.6,0-1.2,0.4-1.4,1.1c0,0.1-0.1,0.2-0.1,0.4V589.1z"/>
		<path class="st12" d="M311.6,588.6c0,1.8-1.3,2.6-2.5,2.6c-1.3,0-2.4-1-2.4-2.6c0-1.7,1.1-2.6,2.5-2.6
			C310.7,586,311.6,587.1,311.6,588.6z M307.7,588.6c0,1.1,0.6,1.9,1.5,1.9c0.9,0,1.5-0.8,1.5-1.9c0-0.8-0.4-1.9-1.5-1.9
			S307.7,587.7,307.7,588.6z"/>
		<path class="st12" d="M312.8,587.5c0-0.5,0-0.9,0-1.3h0.8l0.1,0.8h0c0.2-0.5,0.8-0.9,1.6-0.9c0.7,0,1.8,0.4,1.8,2.1v3h-0.9v-2.9
			c0-0.8-0.3-1.5-1.2-1.5c-0.6,0-1.1,0.4-1.2,0.9c0,0.1-0.1,0.3-0.1,0.4v3h-0.9V587.5z"/>
		<path class="st12" d="M319.5,584.7c0,0.3-0.2,0.6-0.6,0.6c-0.3,0-0.5-0.2-0.5-0.6c0-0.3,0.2-0.6,0.6-0.6
			C319.3,584.2,319.5,584.4,319.5,584.7z M318.5,591.1v-5h0.9v5H318.5z"/>
		<path class="st12" d="M320.9,591.1c0-0.3,0-0.8,0-1.3v-6h0.9v3.1h0c0.3-0.6,0.9-0.9,1.7-0.9c1.2,0,2.1,1,2.1,2.5
			c0,1.8-1.1,2.7-2.2,2.7c-0.7,0-1.3-0.3-1.7-0.9h0l0,0.8H320.9z M321.8,589.1c0,0.1,0,0.2,0,0.3c0.2,0.6,0.7,1.1,1.4,1.1
			c0.9,0,1.5-0.8,1.5-1.9c0-1-0.5-1.9-1.5-1.9c-0.6,0-1.2,0.4-1.4,1.1c0,0.1-0.1,0.2-0.1,0.4V589.1z"/>
		<path class="st12" d="M326.8,583.8h0.9v7.3h-0.9V583.8z"/>
		<path class="st12" d="M329.7,588.8c0,1.2,0.8,1.7,1.7,1.7c0.6,0,1-0.1,1.4-0.3l0.2,0.6c-0.3,0.1-0.9,0.3-1.7,0.3
			c-1.5,0-2.5-1-2.5-2.5s0.9-2.7,2.3-2.7c1.6,0,2.1,1.4,2.1,2.3c0,0.2,0,0.3,0,0.4H329.7z M332.4,588.1c0-0.6-0.2-1.5-1.3-1.5
			c-0.9,0-1.3,0.8-1.4,1.5H332.4z"/>
		<path class="st12" d="M334.2,590.2c0.3,0.2,0.7,0.4,1.2,0.4c0.7,0,1-0.3,1-0.7c0-0.4-0.3-0.7-0.9-0.9c-0.9-0.3-1.3-0.8-1.3-1.4
			c0-0.8,0.6-1.5,1.7-1.5c0.5,0,0.9,0.1,1.2,0.3l-0.2,0.7c-0.2-0.1-0.6-0.3-1-0.3c-0.5,0-0.8,0.3-0.8,0.7c0,0.4,0.3,0.6,0.9,0.8
			c0.9,0.3,1.3,0.8,1.3,1.5c0,0.9-0.7,1.5-1.9,1.5c-0.5,0-1.1-0.1-1.4-0.3L334.2,590.2z"/>
		<path class="st12" d="M338.3,592.8v-0.2c0.3-0.1,0.6-0.3,0.7-0.5c0.2-0.2,0.3-0.5,0.3-0.8l0-0.2l-0.1,0l-0.4,0.1
			c-0.4,0-0.5-0.2-0.5-0.6c0-0.2,0.1-0.3,0.2-0.4c0.1-0.1,0.3-0.2,0.5-0.2c0.3,0,0.5,0.1,0.6,0.4c0.1,0.2,0.2,0.4,0.2,0.7
			C339.7,591.9,339.3,592.5,338.3,592.8z"/>
		<path class="st12" d="M350.5,583.8v6c0,0.4,0,0.9,0,1.3h-0.8l0-0.9h0c-0.3,0.6-0.9,1-1.7,1c-1.2,0-2.1-1-2.1-2.5
			c0-1.7,1-2.7,2.2-2.7c0.8,0,1.3,0.4,1.5,0.8h0v-3H350.5z M349.6,588.2c0-0.1,0-0.3,0-0.4c-0.1-0.6-0.6-1.1-1.3-1.1
			c-0.9,0-1.5,0.8-1.5,1.9c0,1,0.5,1.8,1.5,1.8c0.6,0,1.2-0.4,1.3-1.1c0-0.1,0-0.2,0-0.4V588.2z"/>
		<path class="st12" d="M352.5,588.8c0,1.2,0.8,1.7,1.7,1.7c0.6,0,1-0.1,1.4-0.3l0.2,0.6c-0.3,0.1-0.9,0.3-1.7,0.3
			c-1.5,0-2.5-1-2.5-2.5s0.9-2.7,2.3-2.7c1.6,0,2.1,1.4,2.1,2.3c0,0.2,0,0.3,0,0.4H352.5z M355.1,588.1c0-0.6-0.2-1.5-1.3-1.5
			c-0.9,0-1.3,0.8-1.4,1.5H355.1z"/>
		<path class="st12" d="M361.4,586.1c0,0.4,0,0.8,0,1.4v2.9c0,1.1-0.2,1.8-0.7,2.3c-0.5,0.5-1.2,0.6-1.8,0.6c-0.6,0-1.3-0.1-1.7-0.4
			l0.2-0.7c0.3,0.2,0.8,0.4,1.5,0.4c0.9,0,1.6-0.5,1.6-1.7v-0.6h0c-0.3,0.5-0.8,0.8-1.6,0.8c-1.2,0-2.1-1.1-2.1-2.4
			c0-1.7,1.1-2.6,2.2-2.6c0.9,0,1.3,0.5,1.6,0.9h0l0-0.8H361.4z M360.5,588.1c0-0.2,0-0.3-0.1-0.4c-0.2-0.5-0.6-1-1.3-1
			c-0.9,0-1.5,0.7-1.5,1.9c0,1,0.5,1.8,1.5,1.8c0.6,0,1.1-0.3,1.3-0.9c0.1-0.2,0.1-0.3,0.1-0.5V588.1z"/>
		<path class="st12" d="M367.1,589.8c0,0.5,0,1,0,1.4h-0.8l-0.1-0.8h0c-0.2,0.4-0.8,0.9-1.6,0.9c-0.8,0-1.7-0.4-1.7-2.2v-2.9h0.9
			v2.8c0,0.9,0.3,1.6,1.1,1.6c0.6,0,1-0.4,1.2-0.8c0.1-0.1,0.1-0.3,0.1-0.5v-3.1h0.9V589.8z"/>
		<path class="st12" d="M369.7,584.7v1.4h1.3v0.7h-1.3v2.7c0,0.6,0.2,1,0.7,1c0.2,0,0.4,0,0.5-0.1l0,0.7c-0.2,0.1-0.5,0.1-0.8,0.1
			c-0.4,0-0.8-0.1-1-0.4c-0.3-0.3-0.3-0.7-0.3-1.3v-2.7H368v-0.7h0.8v-1.2L369.7,584.7z"/>
		<path class="st12" d="M379.9,591.1l-0.1-0.6h0c-0.3,0.4-0.8,0.7-1.5,0.7c-1,0-1.5-0.7-1.5-1.4c0-1.2,1.1-1.9,3-1.9v-0.1
			c0-0.4-0.1-1.2-1.1-1.2c-0.5,0-0.9,0.1-1.3,0.4l-0.2-0.6c0.4-0.3,1-0.4,1.6-0.4c1.5,0,1.9,1,1.9,2v1.9c0,0.4,0,0.9,0.1,1.2H379.9z
			 M379.8,588.6c-1,0-2.1,0.2-2.1,1.1c0,0.6,0.4,0.9,0.9,0.9c0.6,0,1.1-0.4,1.2-0.8c0-0.1,0.1-0.2,0.1-0.3V588.6z"/>
		<path class="st12" d="M382.1,583.8h0.9v7.3h-0.9V583.8z"/>
		<path class="st12" d="M390.8,584.7v1.4h1.3v0.7h-1.3v2.7c0,0.6,0.2,1,0.7,1c0.2,0,0.4,0,0.5-0.1l0,0.7c-0.2,0.1-0.5,0.1-0.8,0.1
			c-0.4,0-0.8-0.1-1-0.4c-0.3-0.3-0.3-0.7-0.3-1.3v-2.7h-0.8v-0.7h0.8v-1.2L390.8,584.7z"/>
		<path class="st12" d="M395.8,591.1l-0.1-0.6h0c-0.3,0.4-0.8,0.7-1.5,0.7c-1,0-1.5-0.7-1.5-1.4c0-1.2,1.1-1.9,3-1.9v-0.1
			c0-0.4-0.1-1.2-1.1-1.2c-0.5,0-0.9,0.1-1.3,0.4l-0.2-0.6c0.4-0.3,1-0.4,1.6-0.4c1.5,0,1.9,1,1.9,2v1.9c0,0.4,0,0.9,0.1,1.2H395.8z
			 M395.7,588.6c-1,0-2.1,0.2-2.1,1.1c0,0.6,0.4,0.9,0.9,0.9c0.6,0,1.1-0.4,1.2-0.8c0-0.1,0.1-0.2,0.1-0.3V588.6z"/>
		<path class="st12" d="M398.1,587.5c0-0.5,0-0.9,0-1.3h0.8l0.1,0.8h0c0.2-0.5,0.8-0.9,1.6-0.9c0.7,0,1.8,0.4,1.8,2.1v3h-0.9v-2.9
			c0-0.8-0.3-1.5-1.2-1.5c-0.6,0-1.1,0.4-1.2,0.9c0,0.1-0.1,0.3-0.1,0.4v3h-0.9V587.5z"/>
		<path class="st12" d="M407.3,590.9c-0.2,0.1-0.8,0.3-1.4,0.3c-1.5,0-2.5-1-2.5-2.5c0-1.5,1.1-2.6,2.7-2.6c0.5,0,1,0.1,1.3,0.3
			l-0.2,0.7c-0.2-0.1-0.6-0.2-1.1-0.2c-1.1,0-1.8,0.8-1.8,1.9c0,1.2,0.7,1.9,1.7,1.9c0.5,0,0.9-0.1,1.1-0.2L407.3,590.9z"/>
		<path class="st12" d="M411.1,591.1l-0.1-0.6h0c-0.3,0.4-0.8,0.7-1.5,0.7c-1,0-1.5-0.7-1.5-1.4c0-1.2,1.1-1.9,3-1.9v-0.1
			c0-0.4-0.1-1.2-1.1-1.2c-0.5,0-0.9,0.1-1.3,0.4l-0.2-0.6c0.4-0.3,1-0.4,1.6-0.4c1.5,0,1.9,1,1.9,2v1.9c0,0.4,0,0.9,0.1,1.2H411.1z
			 M411,588.6c-1,0-2.1,0.2-2.1,1.1c0,0.6,0.4,0.9,0.9,0.9c0.6,0,1.1-0.4,1.2-0.8c0-0.1,0.1-0.2,0.1-0.3V588.6z"/>
		<path class="st12" d="M413.3,587.5c0-0.5,0-0.9,0-1.3h0.8l0,0.8h0c0.3-0.5,0.7-0.9,1.6-0.9c0.7,0,1.2,0.4,1.4,1h0
			c0.2-0.3,0.3-0.5,0.6-0.6c0.3-0.2,0.6-0.4,1.1-0.4c0.7,0,1.6,0.4,1.6,2.2v2.9h-0.9v-2.8c0-1-0.4-1.5-1.1-1.5
			c-0.5,0-0.9,0.4-1.1,0.8c0,0.1-0.1,0.3-0.1,0.5v3.1h-0.9v-3c0-0.8-0.3-1.4-1-1.4c-0.6,0-1,0.5-1.1,0.9c-0.1,0.1-0.1,0.3-0.1,0.4v3
			h-0.9V587.5z"/>
		<path class="st12" d="M422.4,588.8c0,1.2,0.8,1.7,1.7,1.7c0.6,0,1-0.1,1.4-0.3l0.2,0.6c-0.3,0.1-0.9,0.3-1.7,0.3
			c-1.5,0-2.5-1-2.5-2.5s0.9-2.7,2.3-2.7c1.6,0,2.1,1.4,2.1,2.3c0,0.2,0,0.3,0,0.4H422.4z M425.1,588.1c0-0.6-0.2-1.5-1.3-1.5
			c-0.9,0-1.3,0.8-1.4,1.5H425.1z"/>
		<path class="st12" d="M427.1,587.5c0-0.5,0-0.9,0-1.3h0.8l0.1,0.8h0c0.2-0.5,0.8-0.9,1.6-0.9c0.7,0,1.8,0.4,1.8,2.1v3h-0.9v-2.9
			c0-0.8-0.3-1.5-1.2-1.5c-0.6,0-1.1,0.4-1.2,0.9c0,0.1-0.1,0.3-0.1,0.4v3h-0.9V587.5z"/>
		<path class="st12" d="M433.9,584.7v1.4h1.3v0.7h-1.3v2.7c0,0.6,0.2,1,0.7,1c0.2,0,0.4,0,0.5-0.1l0,0.7c-0.2,0.1-0.5,0.1-0.8,0.1
			c-0.4,0-0.8-0.1-1-0.4c-0.3-0.3-0.4-0.7-0.4-1.3v-2.7h-0.8v-0.7h0.8v-1.2L433.9,584.7z"/>
		<path class="st12" d="M445.7,583.8v6c0,0.4,0,0.9,0,1.3h-0.8l0-0.9h0c-0.3,0.6-0.9,1-1.7,1c-1.2,0-2.1-1-2.1-2.5
			c0-1.7,1-2.7,2.2-2.7c0.8,0,1.3,0.4,1.5,0.8h0v-3H445.7z M444.8,588.2c0-0.1,0-0.3,0-0.4c-0.1-0.6-0.6-1.1-1.3-1.1
			c-0.9,0-1.5,0.8-1.5,1.9c0,1,0.5,1.8,1.5,1.8c0.6,0,1.2-0.4,1.3-1.1c0-0.1,0-0.2,0-0.4V588.2z"/>
		<path class="st12" d="M446.9,584.3c0-0.2,0.1-0.3,0.2-0.4c0.1-0.1,0.3-0.2,0.4-0.2c0.3,0,0.5,0.1,0.7,0.4c0.2,0.2,0.3,0.5,0.3,0.8
			c0,0.4-0.2,0.8-0.5,1.1c-0.3,0.4-0.7,0.5-1,0.5l-0.1-0.1c0.1-0.1,0.2-0.2,0.4-0.4c0.2-0.1,0.4-0.2,0.4-0.3
			c0.1-0.2,0.2-0.4,0.2-0.6c0-0.1,0-0.3-0.1-0.5c-0.1,0.1-0.2,0.1-0.3,0.1c-0.2,0-0.3-0.1-0.4-0.2
			C447,584.6,446.9,584.4,446.9,584.3z"/>
		<path class="st12" d="M450.1,588.8c0,1.2,0.8,1.7,1.7,1.7c0.6,0,1-0.1,1.4-0.3l0.2,0.6c-0.3,0.1-0.9,0.3-1.7,0.3
			c-1.5,0-2.5-1-2.5-2.5s0.9-2.7,2.3-2.7c1.6,0,2.1,1.4,2.1,2.3c0,0.2,0,0.3,0,0.4H450.1z M452.8,588.1c0-0.6-0.2-1.5-1.3-1.5
			c-0.9,0-1.3,0.8-1.4,1.5H452.8z"/>
		<path class="st12" d="M454.6,590.2c0.3,0.2,0.7,0.4,1.2,0.4c0.7,0,1-0.3,1-0.7c0-0.4-0.3-0.7-0.9-0.9c-0.9-0.3-1.3-0.8-1.3-1.4
			c0-0.8,0.6-1.5,1.7-1.5c0.5,0,0.9,0.1,1.2,0.3l-0.2,0.7c-0.2-0.1-0.6-0.3-1-0.3c-0.5,0-0.8,0.3-0.8,0.7c0,0.4,0.3,0.6,0.9,0.8
			c0.9,0.3,1.3,0.8,1.3,1.5c0,0.9-0.7,1.5-1.9,1.5c-0.5,0-1.1-0.1-1.4-0.3L454.6,590.2z"/>
		<path class="st12" d="M459.9,584.7v1.4h1.3v0.7h-1.3v2.7c0,0.6,0.2,1,0.7,1c0.2,0,0.4,0,0.5-0.1l0,0.7c-0.2,0.1-0.5,0.1-0.8,0.1
			c-0.4,0-0.8-0.1-1-0.4c-0.3-0.3-0.4-0.7-0.4-1.3v-2.7h-0.8v-0.7h0.8v-1.2L459.9,584.7z"/>
		<path class="st12" d="M465,591.1l-0.1-0.6h0c-0.3,0.4-0.8,0.7-1.5,0.7c-1,0-1.5-0.7-1.5-1.4c0-1.2,1.1-1.9,3-1.9v-0.1
			c0-0.4-0.1-1.2-1.1-1.2c-0.5,0-0.9,0.1-1.3,0.4l-0.2-0.6c0.4-0.3,1-0.4,1.6-0.4c1.5,0,1.9,1,1.9,2v1.9c0,0.4,0,0.9,0.1,1.2H465z
			 M464.9,588.6c-1,0-2.1,0.2-2.1,1.1c0,0.6,0.4,0.9,0.9,0.9c0.6,0,1.1-0.4,1.2-0.8c0-0.1,0.1-0.2,0.1-0.3V588.6z"/>
		<path class="st12" d="M467.2,591.1c0-0.3,0-0.8,0-1.3v-6h0.9v3.1h0c0.3-0.6,0.9-0.9,1.7-0.9c1.2,0,2.1,1,2.1,2.5
			c0,1.8-1.1,2.7-2.2,2.7c-0.7,0-1.3-0.3-1.7-0.9h0l0,0.8H467.2z M468.1,589.1c0,0.1,0,0.2,0,0.3c0.2,0.6,0.7,1.1,1.4,1.1
			c0.9,0,1.5-0.8,1.5-1.9c0-1-0.5-1.9-1.5-1.9c-0.6,0-1.2,0.4-1.4,1.1c0,0.1-0.1,0.2-0.1,0.4V589.1z"/>
		<path class="st12" d="M473.1,583.8h0.9v7.3h-0.9V583.8z"/>
		<path class="st12" d="M476.5,584.7c0,0.3-0.2,0.6-0.6,0.6c-0.3,0-0.5-0.2-0.5-0.6c0-0.3,0.2-0.6,0.6-0.6
			C476.3,584.2,476.5,584.4,476.5,584.7z M475.5,591.1v-5h0.9v5H475.5z"/>
		<path class="st12" d="M477.9,587.5c0-0.5,0-0.9,0-1.3h0.8l0,0.8h0c0.3-0.5,0.7-0.9,1.6-0.9c0.7,0,1.2,0.4,1.4,1h0
			c0.2-0.3,0.4-0.5,0.6-0.6c0.3-0.2,0.6-0.4,1.1-0.4c0.7,0,1.6,0.4,1.6,2.2v2.9h-0.9v-2.8c0-1-0.4-1.5-1.1-1.5
			c-0.5,0-0.9,0.4-1.1,0.8c0,0.1-0.1,0.3-0.1,0.5v3.1H481v-3c0-0.8-0.4-1.4-1-1.4c-0.6,0-1,0.5-1.1,0.9c-0.1,0.1-0.1,0.3-0.1,0.4v3
			h-0.9V587.5z"/>
		<path class="st12" d="M487,588.8c0,1.2,0.8,1.7,1.7,1.7c0.6,0,1-0.1,1.4-0.3l0.2,0.6c-0.3,0.1-0.9,0.3-1.7,0.3
			c-1.5,0-2.5-1-2.5-2.5s0.9-2.7,2.3-2.7c1.6,0,2.1,1.4,2.1,2.3c0,0.2,0,0.3,0,0.4H487z M489.7,588.1c0-0.6-0.2-1.5-1.3-1.5
			c-0.9,0-1.3,0.8-1.4,1.5H489.7z"/>
		<path class="st12" d="M491.7,587.5c0-0.5,0-0.9,0-1.3h0.8l0.1,0.8h0c0.2-0.5,0.8-0.9,1.6-0.9c0.7,0,1.8,0.4,1.8,2.1v3H495v-2.9
			c0-0.8-0.3-1.5-1.2-1.5c-0.6,0-1.1,0.4-1.2,0.9c0,0.1-0.1,0.3-0.1,0.4v3h-0.9V587.5z"/>
		<path class="st12" d="M498.5,584.7v1.4h1.3v0.7h-1.3v2.7c0,0.6,0.2,1,0.7,1c0.2,0,0.4,0,0.5-0.1l0,0.7c-0.2,0.1-0.5,0.1-0.8,0.1
			c-0.4,0-0.8-0.1-1-0.4c-0.3-0.3-0.4-0.7-0.4-1.3v-2.7h-0.8v-0.7h0.8v-1.2L498.5,584.7z"/>
		<path class="st12" d="M500.7,590.2c0.3,0.2,0.7,0.4,1.2,0.4c0.7,0,1-0.3,1-0.7c0-0.4-0.3-0.7-0.9-0.9c-0.9-0.3-1.3-0.8-1.3-1.4
			c0-0.8,0.6-1.5,1.7-1.5c0.5,0,0.9,0.1,1.2,0.3l-0.2,0.7c-0.2-0.1-0.6-0.3-1-0.3c-0.5,0-0.8,0.3-0.8,0.7c0,0.4,0.3,0.6,0.9,0.8
			c0.9,0.3,1.3,0.8,1.3,1.5c0,0.9-0.7,1.5-1.9,1.5c-0.5,0-1.1-0.1-1.4-0.3L500.7,590.2z"/>
		<path class="st12" d="M510,587.8c0-0.6,0-1.2,0-1.6h0.8l0,0.9h0c0.4-0.6,1-1,1.8-1c1.2,0,2.1,1,2.1,2.5c0,1.8-1.1,2.7-2.3,2.7
			c-0.7,0-1.2-0.3-1.5-0.8h0v2.7H510V587.8z M510.9,589.1c0,0.1,0,0.3,0,0.4c0.2,0.6,0.7,1.1,1.4,1.1c1,0,1.5-0.8,1.5-1.9
			c0-1-0.5-1.9-1.5-1.9c-0.6,0-1.2,0.4-1.4,1.1c0,0.1-0.1,0.2-0.1,0.4V589.1z"/>
		<path class="st12" d="M516.4,588.8c0,1.2,0.8,1.7,1.7,1.7c0.6,0,1-0.1,1.4-0.3l0.2,0.6c-0.3,0.1-0.9,0.3-1.7,0.3
			c-1.5,0-2.5-1-2.5-2.5s0.9-2.7,2.3-2.7c1.6,0,2.1,1.4,2.1,2.3c0,0.2,0,0.3,0,0.4H516.4z M519,588.1c0-0.6-0.2-1.5-1.3-1.5
			c-0.9,0-1.3,0.8-1.4,1.5H519z"/>
		<path class="st12" d="M521,587.7c0-0.6,0-1.1,0-1.6h0.8l0,1h0c0.2-0.7,0.8-1.1,1.4-1.1c0.1,0,0.2,0,0.3,0v0.9c-0.1,0-0.2,0-0.3,0
			c-0.6,0-1.1,0.5-1.2,1.2c0,0.1,0,0.3,0,0.4v2.7H521V587.7z"/>
		<path class="st12" d="M529.6,583.8h0.9v7.3h-0.9V583.8z"/>
		<path class="st12" d="M534.8,591.1l-0.1-0.6h0c-0.3,0.4-0.8,0.7-1.5,0.7c-1,0-1.5-0.7-1.5-1.4c0-1.2,1.1-1.9,3-1.9v-0.1
			c0-0.4-0.1-1.2-1.1-1.2c-0.5,0-0.9,0.1-1.3,0.4l-0.2-0.6c0.4-0.3,1-0.4,1.6-0.4c1.5,0,1.9,1,1.9,2v1.9c0,0.4,0,0.9,0.1,1.2H534.8z
			 M534.6,588.6c-1,0-2.1,0.2-2.1,1.1c0,0.6,0.4,0.9,0.9,0.9c0.6,0,1.1-0.4,1.2-0.8c0-0.1,0.1-0.2,0.1-0.3V588.6z"/>
		<path class="st12" d="M546.4,586.1c0,0.4,0,0.8,0,1.4v2.9c0,1.1-0.2,1.8-0.7,2.3c-0.5,0.5-1.2,0.6-1.8,0.6c-0.6,0-1.3-0.1-1.7-0.4
			l0.2-0.7c0.3,0.2,0.8,0.4,1.5,0.4c0.9,0,1.6-0.5,1.6-1.7v-0.6h0c-0.3,0.5-0.8,0.8-1.6,0.8c-1.2,0-2.1-1.1-2.1-2.4
			c0-1.7,1.1-2.6,2.2-2.6c0.9,0,1.3,0.5,1.6,0.9h0l0-0.8H546.4z M545.5,588.1c0-0.2,0-0.3-0.1-0.4c-0.2-0.5-0.6-1-1.3-1
			c-0.9,0-1.5,0.7-1.5,1.9c0,1,0.5,1.8,1.5,1.8c0.6,0,1.1-0.3,1.3-0.9c0.1-0.2,0.1-0.3,0.1-0.5V588.1z"/>
		<path class="st12" d="M548.4,588.8c0,1.2,0.8,1.7,1.7,1.7c0.6,0,1-0.1,1.4-0.3l0.2,0.6c-0.3,0.1-0.9,0.3-1.7,0.3
			c-1.5,0-2.5-1-2.5-2.5s0.9-2.7,2.3-2.7c1.6,0,2.1,1.4,2.1,2.3c0,0.2,0,0.3,0,0.4H548.4z M551,588.1c0-0.6-0.2-1.5-1.3-1.5
			c-0.9,0-1.3,0.8-1.4,1.5H551z"/>
		<path class="st12" d="M552.9,590.2c0.3,0.2,0.7,0.4,1.2,0.4c0.7,0,1-0.3,1-0.7c0-0.4-0.3-0.7-0.9-0.9c-0.9-0.3-1.3-0.8-1.3-1.4
			c0-0.8,0.6-1.5,1.7-1.5c0.5,0,0.9,0.1,1.2,0.3l-0.2,0.7c-0.2-0.1-0.6-0.3-1-0.3c-0.5,0-0.8,0.3-0.8,0.7c0,0.4,0.3,0.6,0.9,0.8
			c0.9,0.3,1.3,0.8,1.3,1.5c0,0.9-0.7,1.5-1.9,1.5c-0.5,0-1.1-0.1-1.4-0.3L552.9,590.2z"/>
		<path class="st12" d="M558.2,584.7v1.4h1.3v0.7h-1.3v2.7c0,0.6,0.2,1,0.7,1c0.2,0,0.4,0,0.5-0.1l0,0.7c-0.2,0.1-0.5,0.1-0.8,0.1
			c-0.4,0-0.8-0.1-1-0.4c-0.3-0.3-0.3-0.7-0.3-1.3v-2.7h-0.8v-0.7h0.8v-1.2L558.2,584.7z"/>
		<path class="st12" d="M561.5,584.7c0,0.3-0.2,0.6-0.6,0.6c-0.3,0-0.5-0.2-0.5-0.6c0-0.3,0.2-0.6,0.6-0.6
			C561.3,584.2,561.5,584.4,561.5,584.7z M560.5,591.1v-5h0.9v5H560.5z"/>
		<path class="st12" d="M567.4,588.6c0,1.8-1.3,2.6-2.5,2.6c-1.3,0-2.4-1-2.4-2.6c0-1.7,1.1-2.6,2.5-2.6
			C566.5,586,567.4,587.1,567.4,588.6z M563.5,588.6c0,1.1,0.6,1.9,1.5,1.9c0.9,0,1.5-0.8,1.5-1.9c0-0.8-0.4-1.9-1.5-1.9
			S563.5,587.7,563.5,588.6z M566.4,584l-1.3,1.5h-0.6l0.9-1.5H566.4z"/>
		<path class="st12" d="M578,583.8v6c0,0.4,0,0.9,0,1.3h-0.8l0-0.9h0c-0.3,0.6-0.9,1-1.7,1c-1.2,0-2.1-1-2.1-2.5
			c0-1.7,1-2.7,2.2-2.7c0.8,0,1.3,0.4,1.5,0.8h0v-3H578z M577.1,588.2c0-0.1,0-0.3,0-0.4c-0.1-0.6-0.6-1.1-1.3-1.1
			c-0.9,0-1.5,0.8-1.5,1.9c0,1,0.5,1.8,1.5,1.8c0.6,0,1.2-0.4,1.3-1.1c0-0.1,0-0.2,0-0.4V588.2z"/>
		<path class="st12" d="M580,588.8c0,1.2,0.8,1.7,1.7,1.7c0.6,0,1-0.1,1.4-0.3l0.2,0.6c-0.3,0.1-0.9,0.3-1.7,0.3
			c-1.5,0-2.5-1-2.5-2.5s0.9-2.7,2.3-2.7c1.6,0,2.1,1.4,2.1,2.3c0,0.2,0,0.3,0,0.4H580z M582.7,588.1c0-0.6-0.2-1.5-1.3-1.5
			c-0.9,0-1.3,0.8-1.4,1.5H582.7z"/>
		<path class="st12" d="M589.8,583.8h0.9v7.3h-0.9V583.8z"/>
		<path class="st12" d="M595,591.1l-0.1-0.6h0c-0.3,0.4-0.8,0.7-1.5,0.7c-1,0-1.5-0.7-1.5-1.4c0-1.2,1.1-1.9,3-1.9v-0.1
			c0-0.4-0.1-1.2-1.1-1.2c-0.5,0-0.9,0.1-1.3,0.4l-0.2-0.6c0.4-0.3,1-0.4,1.6-0.4c1.5,0,1.9,1,1.9,2v1.9c0,0.4,0,0.9,0.1,1.2H595z
			 M594.9,588.6c-1,0-2.1,0.2-2.1,1.1c0,0.6,0.4,0.9,0.9,0.9c0.6,0,1.1-0.4,1.2-0.8c0-0.1,0.1-0.2,0.1-0.3V588.6z"/>
		<path class="st12" d="M605.9,590.9c-0.2,0.1-0.8,0.3-1.4,0.3c-1.5,0-2.5-1-2.5-2.5c0-1.5,1.1-2.6,2.7-2.6c0.5,0,1,0.1,1.3,0.3
			l-0.2,0.7c-0.2-0.1-0.6-0.2-1.1-0.2c-1.1,0-1.8,0.8-1.8,1.9c0,1.2,0.7,1.9,1.7,1.9c0.5,0,0.9-0.1,1.1-0.2L605.9,590.9z"/>
		<path class="st12" d="M607,587.7c0-0.6,0-1.1,0-1.6h0.8l0,1h0c0.2-0.7,0.8-1.1,1.4-1.1c0.1,0,0.2,0,0.3,0v0.9c-0.1,0-0.2,0-0.3,0
			c-0.6,0-1.1,0.5-1.2,1.2c0,0.1,0,0.3,0,0.4v2.7H607V587.7z"/>
		<path class="st12" d="M611.4,584.7c0,0.3-0.2,0.6-0.6,0.6c-0.3,0-0.5-0.2-0.5-0.6c0-0.3,0.2-0.6,0.6-0.6
			C611.2,584.2,611.4,584.4,611.4,584.7z M610.4,591.1v-5h0.9v5H610.4z"/>
		<path class="st12" d="M612.7,590.2c0.3,0.2,0.7,0.4,1.2,0.4c0.7,0,1-0.3,1-0.7c0-0.4-0.3-0.7-0.9-0.9c-0.9-0.3-1.3-0.8-1.3-1.4
			c0-0.8,0.6-1.5,1.7-1.5c0.5,0,0.9,0.1,1.2,0.3l-0.2,0.7c-0.2-0.1-0.6-0.3-1-0.3c-0.5,0-0.8,0.3-0.8,0.7c0,0.4,0.3,0.6,0.9,0.8
			c0.9,0.3,1.3,0.8,1.3,1.5c0,0.9-0.7,1.5-1.9,1.5c-0.5,0-1.1-0.1-1.4-0.3L612.7,590.2z"/>
		<path class="st12" d="M617.9,584.7c0,0.3-0.2,0.6-0.6,0.6c-0.3,0-0.5-0.2-0.5-0.6c0-0.3,0.2-0.6,0.6-0.6
			C617.7,584.2,617.9,584.4,617.9,584.7z M616.9,591.1v-5h0.9v5H616.9z"/>
	</g>
</g>
<g>
	<g class="st11">
		<path class="st12" d="M51.9,602.5c0.3,0.2,0.7,0.4,1.2,0.4c0.7,0,1-0.3,1-0.7c0-0.4-0.3-0.7-0.9-0.9c-0.9-0.3-1.3-0.8-1.3-1.4
			c0-0.8,0.6-1.5,1.7-1.5c0.5,0,0.9,0.1,1.2,0.3l-0.2,0.7c-0.2-0.1-0.6-0.3-1-0.3c-0.5,0-0.8,0.3-0.8,0.7c0,0.4,0.3,0.6,0.9,0.8
			c0.9,0.3,1.3,0.8,1.3,1.5c0,0.9-0.7,1.5-1.9,1.5c-0.5,0-1.1-0.1-1.4-0.3L51.9,602.5z"/>
		<path class="st12" d="M58.9,603.5l-0.1-0.6h0c-0.3,0.4-0.8,0.7-1.5,0.7c-1,0-1.5-0.7-1.5-1.4c0-1.2,1.1-1.9,3-1.9v-0.1
			c0-0.4-0.1-1.2-1.1-1.2c-0.5,0-0.9,0.1-1.3,0.4l-0.2-0.6c0.4-0.3,1-0.4,1.6-0.4c1.5,0,1.9,1,1.9,2v1.9c0,0.4,0,0.9,0.1,1.2H58.9z
			 M58.7,600.9c-1,0-2.1,0.2-2.1,1.1c0,0.6,0.4,0.9,0.9,0.9c0.6,0,1.1-0.4,1.2-0.8c0-0.1,0.1-0.2,0.1-0.3V600.9z"/>
		<path class="st12" d="M61.1,599.8c0-0.5,0-0.9,0-1.3h0.8l0.1,0.8h0c0.2-0.5,0.8-0.9,1.6-0.9c0.7,0,1.8,0.4,1.8,2.1v3h-0.9v-2.9
			c0-0.8-0.3-1.5-1.2-1.5c-0.6,0-1.1,0.4-1.2,0.9c0,0.1-0.1,0.3-0.1,0.4v3h-0.9V599.8z"/>
		<path class="st12" d="M67.8,597.1c0,0.3-0.2,0.6-0.6,0.6c-0.3,0-0.5-0.2-0.5-0.6c0-0.3,0.2-0.6,0.6-0.6
			C67.6,596.5,67.8,596.8,67.8,597.1z M66.8,603.5v-5h0.9v5H66.8z"/>
		<path class="st12" d="M70.3,597.1v1.4h1.3v0.7h-1.3v2.7c0,0.6,0.2,1,0.7,1c0.2,0,0.4,0,0.5-0.1l0,0.7c-0.2,0.1-0.5,0.1-0.8,0.1
			c-0.4,0-0.8-0.1-1-0.4c-0.3-0.3-0.4-0.7-0.4-1.3v-2.7h-0.8v-0.7h0.8v-1.2L70.3,597.1z"/>
		<path class="st12" d="M75.4,603.5l-0.1-0.6h0c-0.3,0.4-0.8,0.7-1.5,0.7c-1,0-1.5-0.7-1.5-1.4c0-1.2,1.1-1.9,3-1.9v-0.1
			c0-0.4-0.1-1.2-1.1-1.2c-0.5,0-0.9,0.1-1.3,0.4l-0.2-0.6c0.4-0.3,1-0.4,1.6-0.4c1.5,0,1.9,1,1.9,2v1.9c0,0.4,0,0.9,0.1,1.2H75.4z
			 M73.8,596.3l0.9,1.5h-0.6l-1.3-1.5H73.8z M75.2,600.9c-1,0-2.1,0.2-2.1,1.1c0,0.6,0.4,0.9,0.9,0.9c0.6,0,1.1-0.4,1.2-0.8
			c0-0.1,0.1-0.2,0.1-0.3V600.9z"/>
		<path class="st12" d="M77.6,600c0-0.6,0-1.1,0-1.6h0.8l0,1h0c0.2-0.7,0.8-1.1,1.4-1.1c0.1,0,0.2,0,0.3,0v0.9c-0.1,0-0.2,0-0.3,0
			c-0.6,0-1.1,0.5-1.2,1.2c0,0.1,0,0.3,0,0.4v2.7h-0.9V600z"/>
		<path class="st12" d="M81.9,597.1c0,0.3-0.2,0.6-0.6,0.6c-0.3,0-0.5-0.2-0.5-0.6c0-0.3,0.2-0.6,0.6-0.6
			C81.7,596.5,81.9,596.8,81.9,597.1z M80.9,603.5v-5h0.9v5H80.9z"/>
		<path class="st12" d="M86.1,603.5l-0.1-0.6h0c-0.3,0.4-0.8,0.7-1.5,0.7c-1,0-1.5-0.7-1.5-1.4c0-1.2,1.1-1.9,3-1.9v-0.1
			c0-0.4-0.1-1.2-1.1-1.2c-0.5,0-0.9,0.1-1.3,0.4l-0.2-0.6c0.4-0.3,1-0.4,1.6-0.4c1.5,0,1.9,1,1.9,2v1.9c0,0.4,0,0.9,0.1,1.2H86.1z
			 M86,600.9c-1,0-2.1,0.2-2.1,1.1c0,0.6,0.4,0.9,0.9,0.9c0.6,0,1.1-0.4,1.2-0.8c0-0.1,0.1-0.2,0.1-0.3V600.9z"/>
		<path class="st12" d="M98,600.9c0,1.8-1.3,2.6-2.5,2.6c-1.3,0-2.4-1-2.4-2.6c0-1.7,1.1-2.6,2.5-2.6C97,598.4,98,599.4,98,600.9z
			 M94,601c0,1.1,0.6,1.9,1.5,1.9c0.9,0,1.5-0.8,1.5-1.9c0-0.8-0.4-1.9-1.5-1.9S94,600,94,601z"/>
		<path class="st12" d="M102.7,603.3c-0.2,0.1-0.8,0.3-1.4,0.3c-1.5,0-2.5-1-2.5-2.5c0-1.5,1.1-2.6,2.7-2.6c0.5,0,1,0.1,1.3,0.3
			l-0.2,0.7c-0.2-0.1-0.6-0.2-1.1-0.2c-1.1,0-1.8,0.8-1.8,1.9c0,1.2,0.7,1.9,1.7,1.9c0.5,0,0.9-0.1,1.1-0.2L102.7,603.3z"/>
		<path class="st12" d="M106.5,603.5l-0.1-0.6h0c-0.3,0.4-0.8,0.7-1.5,0.7c-1,0-1.5-0.7-1.5-1.4c0-1.2,1.1-1.9,3-1.9v-0.1
			c0-0.4-0.1-1.2-1.1-1.2c-0.5,0-0.9,0.1-1.3,0.4l-0.2-0.6c0.4-0.3,1-0.4,1.6-0.4c1.5,0,1.9,1,1.9,2v1.9c0,0.4,0,0.9,0.1,1.2H106.5z
			 M106.4,600.9c-1,0-2.1,0.2-2.1,1.1c0,0.6,0.4,0.9,0.9,0.9c0.6,0,1.1-0.4,1.2-0.8c0-0.1,0.1-0.2,0.1-0.3V600.9z"/>
		<path class="st12" d="M108.6,602.5c0.3,0.2,0.7,0.4,1.2,0.4c0.7,0,1-0.3,1-0.7c0-0.4-0.3-0.7-0.9-0.9c-0.9-0.3-1.3-0.8-1.3-1.4
			c0-0.8,0.6-1.5,1.7-1.5c0.5,0,0.9,0.1,1.2,0.3l-0.2,0.7c-0.2-0.1-0.6-0.3-1-0.3c-0.5,0-0.8,0.3-0.8,0.7c0,0.4,0.3,0.6,0.9,0.8
			c0.9,0.3,1.3,0.8,1.3,1.5c0,0.9-0.7,1.5-1.9,1.5c-0.5,0-1.1-0.1-1.4-0.3L108.6,602.5z"/>
		<path class="st12" d="M113.8,597.1c0,0.3-0.2,0.6-0.6,0.6c-0.3,0-0.5-0.2-0.5-0.6c0-0.3,0.2-0.6,0.6-0.6
			C113.6,596.5,113.8,596.8,113.8,597.1z M112.8,603.5v-5h0.9v5H112.8z"/>
		<path class="st12" d="M119.7,600.9c0,1.8-1.3,2.6-2.5,2.6c-1.3,0-2.4-1-2.4-2.6c0-1.7,1.1-2.6,2.5-2.6
			C118.7,598.4,119.7,599.4,119.7,600.9z M115.7,601c0,1.1,0.6,1.9,1.5,1.9c0.9,0,1.5-0.8,1.5-1.9c0-0.8-0.4-1.9-1.5-1.9
			S115.7,600,115.7,601z"/>
		<path class="st12" d="M120.8,599.8c0-0.5,0-0.9,0-1.3h0.8l0.1,0.8h0c0.2-0.5,0.8-0.9,1.6-0.9c0.7,0,1.8,0.4,1.8,2.1v3h-0.9v-2.9
			c0-0.8-0.3-1.5-1.2-1.5c-0.6,0-1.1,0.4-1.2,0.9c0,0.1-0.1,0.3-0.1,0.4v3h-0.9V599.8z"/>
		<path class="st12" d="M129.3,603.5l-0.1-0.6h0c-0.3,0.4-0.8,0.7-1.5,0.7c-1,0-1.5-0.7-1.5-1.4c0-1.2,1.1-1.9,3-1.9v-0.1
			c0-0.4-0.1-1.2-1.1-1.2c-0.5,0-0.9,0.1-1.3,0.4l-0.2-0.6c0.4-0.3,1-0.4,1.6-0.4c1.5,0,1.9,1,1.9,2v1.9c0,0.4,0,0.9,0.1,1.2H129.3z
			 M129.2,600.9c-1,0-2.1,0.2-2.1,1.1c0,0.6,0.4,0.9,0.9,0.9c0.6,0,1.1-0.4,1.2-0.8c0-0.1,0.1-0.2,0.1-0.3V600.9z"/>
		<path class="st12" d="M135.8,596.2v6c0,0.4,0,0.9,0,1.3H135l0-0.9h0c-0.3,0.6-0.9,1-1.7,1c-1.2,0-2.1-1-2.1-2.5
			c0-1.7,1-2.7,2.2-2.7c0.8,0,1.3,0.4,1.5,0.8h0v-3H135.8z M134.9,600.5c0-0.1,0-0.3,0-0.4c-0.1-0.6-0.6-1.1-1.3-1.1
			c-0.9,0-1.5,0.8-1.5,1.9c0,1,0.5,1.8,1.5,1.8c0.6,0,1.2-0.4,1.3-1.1c0-0.1,0-0.2,0-0.4V600.5z"/>
		<path class="st12" d="M140.1,603.5l-0.1-0.6h0c-0.3,0.4-0.8,0.7-1.5,0.7c-1,0-1.5-0.7-1.5-1.4c0-1.2,1.1-1.9,3-1.9v-0.1
			c0-0.4-0.1-1.2-1.1-1.2c-0.5,0-0.9,0.1-1.3,0.4l-0.2-0.6c0.4-0.3,1-0.4,1.6-0.4c1.5,0,1.9,1,1.9,2v1.9c0,0.4,0,0.9,0.1,1.2H140.1z
			 M140,600.9c-1,0-2.1,0.2-2.1,1.1c0,0.6,0.4,0.9,0.9,0.9c0.6,0,1.1-0.4,1.2-0.8c0-0.1,0.1-0.2,0.1-0.3V600.9z"/>
		<path class="st12" d="M147.4,600.1c0-0.6,0-1.2,0-1.6h0.8l0,0.9h0c0.4-0.6,1-1,1.8-1c1.2,0,2.1,1,2.1,2.5c0,1.8-1.1,2.7-2.3,2.7
			c-0.7,0-1.2-0.3-1.5-0.8h0v2.7h-0.9V600.1z M148.3,601.4c0,0.1,0,0.3,0,0.4c0.2,0.6,0.7,1.1,1.4,1.1c1,0,1.5-0.8,1.5-1.9
			c0-1-0.5-1.9-1.5-1.9c-0.6,0-1.2,0.4-1.4,1.1c0,0.1-0.1,0.2-0.1,0.4V601.4z"/>
		<path class="st12" d="M153.8,601.1c0,1.2,0.8,1.7,1.7,1.7c0.6,0,1-0.1,1.4-0.3l0.2,0.6c-0.3,0.1-0.9,0.3-1.7,0.3
			c-1.5,0-2.5-1-2.5-2.5s0.9-2.7,2.3-2.7c1.6,0,2.1,1.4,2.1,2.3c0,0.2,0,0.3,0,0.4H153.8z M156.5,600.5c0-0.6-0.2-1.5-1.3-1.5
			c-0.9,0-1.3,0.8-1.4,1.5H156.5z"/>
		<path class="st12" d="M158.5,600c0-0.6,0-1.1,0-1.6h0.8l0,1h0c0.2-0.7,0.8-1.1,1.4-1.1c0.1,0,0.2,0,0.3,0v0.9c-0.1,0-0.2,0-0.3,0
			c-0.6,0-1.1,0.5-1.2,1.2c0,0.1,0,0.3,0,0.4v2.7h-0.9V600z"/>
		<path class="st12" d="M167,596.2h0.9v7.3H167V596.2z"/>
		<path class="st12" d="M172.2,603.5l-0.1-0.6h0c-0.3,0.4-0.8,0.7-1.5,0.7c-1,0-1.5-0.7-1.5-1.4c0-1.2,1.1-1.9,3-1.9v-0.1
			c0-0.4-0.1-1.2-1.1-1.2c-0.5,0-0.9,0.1-1.3,0.4l-0.2-0.6c0.4-0.3,1-0.4,1.6-0.4c1.5,0,1.9,1,1.9,2v1.9c0,0.4,0,0.9,0.1,1.2H172.2z
			 M172,600.9c-1,0-2.1,0.2-2.1,1.1c0,0.6,0.4,0.9,0.9,0.9c0.6,0,1.1-0.4,1.2-0.8c0-0.1,0.1-0.2,0.1-0.3V600.9z"/>
		<path class="st12" d="M184.4,603.2c-0.3,0.2-1,0.3-1.8,0.3c-2,0-3.4-1.2-3.4-3.5c0-2.2,1.5-3.6,3.6-3.6c0.9,0,1.4,0.2,1.6,0.3
			l-0.2,0.7c-0.3-0.2-0.8-0.3-1.4-0.3c-1.6,0-2.7,1-2.7,2.9c0,1.7,1,2.8,2.7,2.8c0.5,0,1.1-0.1,1.5-0.3L184.4,603.2z"/>
		<path class="st12" d="M190,600.9c0,1.8-1.3,2.6-2.5,2.6c-1.3,0-2.4-1-2.4-2.6c0-1.7,1.1-2.6,2.5-2.6
			C189,598.4,190,599.4,190,600.9z M186.1,601c0,1.1,0.6,1.9,1.5,1.9c0.9,0,1.5-0.8,1.5-1.9c0-0.8-0.4-1.9-1.5-1.9
			S186.1,600,186.1,601z"/>
		<path class="st12" d="M191.5,598.5l1,2.8c0.2,0.5,0.3,0.9,0.4,1.3h0c0.1-0.4,0.3-0.8,0.4-1.3l1-2.8h0.9l-2,5h-0.9l-1.9-5H191.5z"
			/>
		<path class="st12" d="M197.1,597.1c0,0.3-0.2,0.6-0.6,0.6c-0.3,0-0.5-0.2-0.5-0.6c0-0.3,0.2-0.6,0.6-0.6
			C196.9,596.5,197.1,596.8,197.1,597.1z M196.1,603.5v-5h0.9v5H196.1z"/>
		<path class="st12" d="M202.8,596.2v6c0,0.4,0,0.9,0,1.3H202l0-0.9h0c-0.3,0.6-0.9,1-1.7,1c-1.2,0-2.1-1-2.1-2.5
			c0-1.7,1-2.7,2.2-2.7c0.8,0,1.3,0.4,1.5,0.8h0v-3H202.8z M201.9,600.5c0-0.1,0-0.3,0-0.4c-0.1-0.6-0.6-1.1-1.3-1.1
			c-0.9,0-1.5,0.8-1.5,1.9c0,1,0.5,1.8,1.5,1.8c0.6,0,1.2-0.4,1.3-1.1c0-0.1,0-0.2,0-0.4V600.5z"/>
		<path class="st12" d="M203.9,600.9V600h2.8v0.9H203.9z"/>
		<path class="st12" d="M210.2,603.1l1.4,0.1v0.3h-3.6v-0.3l1.4-0.1v-5.5l-1.4,0.5v-0.3l2-1.1h0.3V603.1z"/>
		<path class="st12" d="M212.5,598.8c0-0.7,0.2-1.2,0.6-1.6s0.9-0.6,1.6-0.6c0.8,0,1.3,0.3,1.7,0.8c0.4,0.6,0.5,1.4,0.5,2.6
			c0,1.1-0.2,2-0.7,2.6s-1.1,0.9-1.9,0.9c-0.5,0-1-0.1-1.5-0.2v-1.2h0.3l0.2,0.7c0.1,0,0.3,0.1,0.4,0.1c0.2,0,0.4,0.1,0.5,0.1
			c0.5,0,0.9-0.2,1.2-0.7c0.3-0.5,0.4-1.2,0.5-2.1c-0.5,0.3-1,0.4-1.6,0.4c-0.6,0-1.1-0.2-1.4-0.5S212.5,599.4,212.5,598.8z
			 M214.7,597.1c-0.8,0-1.3,0.6-1.3,1.8c0,0.5,0.1,0.9,0.3,1.1c0.2,0.2,0.5,0.4,0.9,0.4c0.4,0,0.9-0.1,1.3-0.3c0-1-0.1-1.8-0.3-2.3
			C215.4,597.3,215.1,597.1,214.7,597.1z"/>
		<path class="st12" d="M218.2,602.7c0.1-0.1,0.2-0.2,0.4-0.2s0.3,0.1,0.4,0.2c0.1,0.1,0.2,0.2,0.2,0.4c0,0.2-0.1,0.3-0.2,0.4
			c-0.1,0.1-0.2,0.2-0.4,0.2c-0.1,0-0.3-0.1-0.4-0.2c-0.1-0.1-0.2-0.2-0.2-0.4C218,602.9,218.1,602.8,218.2,602.7z"/>
	</g>
</g>
<text transform="matrix(1 0 0 1 78.54 548.05)" class="st2 st3 st4">Gen.</text>
<text transform="matrix(1 0 0 1 130.49 548.05)" class="st2 st3 st4">F</text>
<text transform="matrix(1 0 0 1 135.11 548.05)" class="st2 st3 st4">e</text>
<text transform="matrix(1 0 0 1 139.88 548.05)" class="st2 st3 st4">b</text>
<text transform="matrix(1 0 0 1 145.1 548.05)" class="st2 st3 st4">.</text>
<text transform="matrix(1 0 0 1 180.4 548.05)" class="st2 st3 st4">Ma</text>
<text transform="matrix(1 0 0 1 192.24 548.05)" class="st2 st3 st4">r</text>
<text transform="matrix(1 0 0 1 195.03 548.05)" class="st2 st3 st4 st13">.</text>
<text transform="matrix(1 0 0 1 196.09 548.05)" class="st2 st3 st4">*</text>
<text transform="matrix(1 0 0 1 233.66 548.05)" class="st2 st3 st4">Ab</text>
<text transform="matrix(1 0 0 1 244.21 548.05)" class="st2 st3 st4">r</text>
<text transform="matrix(1 0 0 1 247 548.05)" class="st2 st3 st4">.</text>
<text transform="matrix(1 0 0 1 283.15 548.05)" class="st2 st3 st4">Mai</text>
<text transform="matrix(1 0 0 1 297.35 548.05)" class="st2 st3 st4 st13">.</text>
<text transform="matrix(1 0 0 1 298.42 548.05)" class="st2 st3 st4">*</text>
<text transform="matrix(1 0 0 1 335.31 548.05)" class="st2 st3 st4">Jun.</text>
<text transform="matrix(1 0 0 1 387.99 548.05)" class="st2 st3 st4">Jul.</text>
<text transform="matrix(1 0 0 1 437.88 548.05)" class="st2 st3 st4">A</text>
<text transform="matrix(1 0 0 1 443.11 548.05)" class="st2 st3 st4">g</text>
<text transform="matrix(1 0 0 1 447.82 548.05)" class="st2 st3 st4">o</text>
<text transform="matrix(1 0 0 1 452.94 548.05)" class="st2 st3 st4">.</text>
<text transform="matrix(1 0 0 1 490.11 548.05)" class="st2 st3 st4">S</text>
<text transform="matrix(1 0 0 1 495.25 548.05)" class="st2 st3 st4">e</text>
<text transform="matrix(1 0 0 1 499.92 548.05)" class="st2 st3 st4">t</text>
<text transform="matrix(1 0 0 1 503.24 548.05)" class="st2 st3 st4">.</text>
<text transform="matrix(1 0 0 1 540.95 548.05)" class="st2 st3 st4">O</text>
<text transform="matrix(1 0 0 1 547.34 548.05)" class="st2 st3 st4">c</text>
<text transform="matrix(1 0 0 1 551.62 548.05)" class="st2 st3 st4">t</text>
<text transform="matrix(1 0 0 1 554.94 548.05)" class="st2 st3 st4">.</text>
<text transform="matrix(1 0 0 1 591.43 548.05)" class="st2 st3 st4">N</text>
<text transform="matrix(1 0 0 1 597.65 548.05)" class="st2 st3 st4">o</text>
<text transform="matrix(1 0 0 1 602.83 548.05)" class="st2 st3 st4">v</text>
<text transform="matrix(1 0 0 1 606.98 548.05)" class="st2 st3 st4">.</text>
<text transform="matrix(1 0 0 1 643.12 548.05)" class="st2 st3 st4">Des.</text>
<g>
	<g class="st11">
		<path class="st2" d="M256.7,38.4h-5v4.7h5.6v1.4H250v-13h7V33h-5.3v4.1h5V38.4z"/>
		<path class="st2" d="M259.2,42.8c0.5,0.3,1.4,0.7,2.2,0.7c1.2,0,1.8-0.6,1.8-1.4c0-0.8-0.5-1.3-1.7-1.7c-1.7-0.6-2.5-1.5-2.5-2.6
			c0-1.5,1.2-2.7,3.2-2.7c0.9,0,1.8,0.3,2.3,0.6l-0.4,1.2c-0.4-0.2-1-0.5-1.9-0.5c-1,0-1.6,0.6-1.6,1.3c0,0.8,0.6,1.1,1.8,1.6
			c1.6,0.6,2.4,1.4,2.4,2.8c0,1.6-1.3,2.8-3.5,2.8c-1,0-2-0.3-2.6-0.6L259.2,42.8z"/>
		<path class="st2" d="M269.1,32.5v2.7h2.4v1.3h-2.4v5c0,1.2,0.3,1.8,1.3,1.8c0.4,0,0.8-0.1,1-0.1l0.1,1.3c-0.3,0.1-0.8,0.2-1.5,0.2
			c-0.8,0-1.4-0.3-1.8-0.7c-0.5-0.5-0.7-1.3-0.7-2.4v-5.1H266v-1.3h1.4V33L269.1,32.5z"/>
		<path class="st2" d="M278.6,44.5l-0.1-1.2h-0.1c-0.5,0.7-1.5,1.4-2.8,1.4c-1.9,0-2.8-1.3-2.8-2.7c0-2.2,2-3.5,5.6-3.5v-0.2
			c0-0.8-0.2-2.2-2.1-2.2c-0.9,0-1.8,0.3-2.4,0.7l-0.4-1.1c0.8-0.5,1.9-0.8,3.1-0.8c2.8,0,3.5,1.9,3.5,3.8v3.5c0,0.8,0,1.6,0.2,2.2
			H278.6z M278.3,39.8c-1.8,0-3.9,0.3-3.9,2.1c0,1.1,0.7,1.6,1.6,1.6c1.2,0,2-0.8,2.2-1.6c0.1-0.2,0.1-0.4,0.1-0.5V39.8z"/>
		<path class="st2" d="M282.6,44.5c0-0.6,0.1-1.6,0.1-2.4V30.9h1.7v5.8h0c0.6-1,1.7-1.7,3.2-1.7c2.3,0,3.9,1.9,3.9,4.7
			c0,3.3-2.1,5-4.2,5c-1.3,0-2.4-0.5-3.1-1.8h-0.1l-0.1,1.5H282.6z M284.4,40.8c0,0.2,0,0.4,0.1,0.6c0.3,1.2,1.3,2,2.5,2
			c1.8,0,2.8-1.4,2.8-3.6c0-1.9-1-3.5-2.8-3.5c-1.2,0-2.2,0.8-2.6,2.1c0,0.2-0.1,0.4-0.1,0.7V40.8z"/>
		<path class="st2" d="M293.6,30.9h1.7v13.7h-1.7V30.9z"/>
		<path class="st2" d="M300,32.6c0,0.6-0.4,1-1.1,1c-0.6,0-1-0.5-1-1c0-0.6,0.4-1.1,1.1-1.1C299.6,31.5,300,32,300,32.6z
			 M298.2,44.5v-9.3h1.7v9.3H298.2z"/>
		<path class="st2" d="M302.7,37.7c0-1,0-1.7-0.1-2.5h1.5l0.1,1.5h0.1c0.5-0.9,1.4-1.7,2.9-1.7c1.3,0,2.2,0.8,2.6,1.9h0
			c0.3-0.5,0.7-0.9,1-1.2c0.6-0.4,1.2-0.7,2.1-0.7c1.2,0,3.1,0.8,3.1,4v5.5h-1.7v-5.3c0-1.8-0.7-2.9-2-2.9c-1,0-1.7,0.7-2,1.5
			c-0.1,0.2-0.1,0.5-0.1,0.8v5.7h-1.7v-5.6c0-1.5-0.7-2.6-1.9-2.6c-1.1,0-1.8,0.8-2.1,1.7c-0.1,0.3-0.1,0.5-0.1,0.8v5.6h-1.7V37.7z"
			/>
		<path class="st2" d="M319.6,40.2c0,2.3,1.5,3.2,3.2,3.2c1.2,0,1.9-0.2,2.6-0.5l0.3,1.2c-0.6,0.3-1.6,0.6-3.1,0.6
			c-2.9,0-4.6-1.9-4.6-4.7c0-2.8,1.7-5,4.4-5c3,0,3.8,2.7,3.8,4.4c0,0.3,0,0.6-0.1,0.8H319.6z M324.6,39c0-1.1-0.4-2.7-2.3-2.7
			c-1.7,0-2.5,1.6-2.6,2.7H324.6z"/>
		<path class="st2" d="M328.3,37.7c0-1,0-1.7-0.1-2.5h1.5l0.1,1.5h0c0.5-0.9,1.5-1.7,3.1-1.7c1.3,0,3.3,0.8,3.3,4v5.6h-1.7v-5.4
			c0-1.5-0.6-2.7-2.2-2.7c-1.1,0-2,0.8-2.3,1.7c-0.1,0.2-0.1,0.5-0.1,0.8v5.6h-1.7V37.7z"/>
		<path class="st2" d="M341,32.5v2.7h2.4v1.3H341v5c0,1.2,0.3,1.8,1.3,1.8c0.4,0,0.8-0.1,1-0.1l0.1,1.3c-0.3,0.1-0.8,0.2-1.5,0.2
			c-0.8,0-1.4-0.3-1.8-0.7c-0.5-0.5-0.7-1.3-0.7-2.4v-5.1h-1.4v-1.3h1.4V33L341,32.5z"/>
		<path class="st2" d="M345.1,42.8c0.5,0.3,1.4,0.7,2.2,0.7c1.2,0,1.8-0.6,1.8-1.4c0-0.8-0.5-1.3-1.7-1.7c-1.7-0.6-2.5-1.5-2.5-2.6
			c0-1.5,1.2-2.7,3.2-2.7c0.9,0,1.8,0.3,2.3,0.6l-0.4,1.2c-0.4-0.2-1-0.5-1.9-0.5c-1,0-1.6,0.6-1.6,1.3c0,0.8,0.6,1.1,1.8,1.6
			c1.6,0.6,2.4,1.4,2.4,2.8c0,1.6-1.3,2.8-3.5,2.8c-1,0-2-0.3-2.6-0.6L345.1,42.8z"/>
		<path class="st2" d="M362.6,30.9h1.7v5.8h0c0.3-0.5,0.7-0.9,1.2-1.2c0.5-0.3,1.1-0.5,1.7-0.5c1.2,0,3.2,0.8,3.2,4v5.5h-1.7v-5.3
			c0-1.5-0.6-2.8-2.2-2.8c-1.1,0-2,0.8-2.3,1.7c-0.1,0.2-0.1,0.5-0.1,0.8v5.6h-1.7V30.9z"/>
		<path class="st2" d="M381.7,39.8c0,3.4-2.4,4.9-4.6,4.9c-2.5,0-4.5-1.8-4.5-4.8c0-3.1,2-4.9,4.6-4.9
			C379.9,35,381.7,36.9,381.7,39.8z M374.3,39.9c0,2,1.2,3.6,2.8,3.6c1.6,0,2.8-1.5,2.8-3.6c0-1.6-0.8-3.6-2.8-3.6
			C375.2,36.3,374.3,38.1,374.3,39.9z"/>
		<path class="st2" d="M385.9,32.5v2.7h2.4v1.3h-2.4v5c0,1.2,0.3,1.8,1.3,1.8c0.4,0,0.8-0.1,1-0.1l0.1,1.3c-0.3,0.1-0.8,0.2-1.5,0.2
			c-0.8,0-1.4-0.3-1.8-0.7c-0.5-0.5-0.7-1.3-0.7-2.4v-5.1h-1.4v-1.3h1.4V33L385.9,32.5z"/>
		<path class="st2" d="M391.1,40.2c0,2.3,1.5,3.2,3.2,3.2c1.2,0,1.9-0.2,2.6-0.5l0.3,1.2c-0.6,0.3-1.6,0.6-3.1,0.6
			c-2.9,0-4.6-1.9-4.6-4.7c0-2.8,1.7-5,4.4-5c3,0,3.8,2.7,3.8,4.4c0,0.3,0,0.6-0.1,0.8H391.1z M396.1,39c0-1.1-0.4-2.7-2.3-2.7
			c-1.7,0-2.5,1.6-2.6,2.7H396.1z"/>
		<path class="st2" d="M399.8,30.9h1.7v13.7h-1.7V30.9z"/>
		<path class="st2" d="M405.3,40.2c0,2.3,1.5,3.2,3.2,3.2c1.2,0,1.9-0.2,2.6-0.5l0.3,1.2c-0.6,0.3-1.6,0.6-3.1,0.6
			c-2.9,0-4.6-1.9-4.6-4.7c0-2.8,1.7-5,4.4-5c3,0,3.8,2.7,3.8,4.4c0,0.3,0,0.6-0.1,0.8H405.3z M410.3,39c0-1.1-0.4-2.7-2.3-2.7
			c-1.7,0-2.5,1.6-2.6,2.7H410.3z"/>
		<path class="st2" d="M414,38.1c0-1.1,0-2-0.1-2.9h1.5l0.1,1.8h0.1c0.4-1.3,1.4-2,2.6-2c0.2,0,0.3,0,0.5,0.1v1.6
			c-0.2,0-0.3-0.1-0.6-0.1c-1.2,0-2,0.9-2.3,2.2c0,0.2-0.1,0.5-0.1,0.8v5H414V38.1z"/>
		<path class="st2" d="M420.1,42.8c0.5,0.3,1.4,0.7,2.2,0.7c1.2,0,1.8-0.6,1.8-1.4c0-0.8-0.5-1.3-1.7-1.7c-1.7-0.6-2.5-1.5-2.5-2.6
			c0-1.5,1.2-2.7,3.2-2.7c0.9,0,1.8,0.3,2.3,0.6l-0.4,1.2c-0.4-0.2-1-0.5-1.9-0.5c-1,0-1.6,0.6-1.6,1.3c0,0.8,0.6,1.1,1.8,1.6
			c1.6,0.6,2.4,1.4,2.4,2.8c0,1.6-1.3,2.8-3.5,2.8c-1,0-2-0.3-2.6-0.6L420.1,42.8z"/>
	</g>
</g>
<g>
	<g class="st11">
		<path class="st2" d="M242,65c0,3.2-1.9,4.9-4.3,4.9c-2.4,0-4.2-1.9-4.2-4.7c0-2.9,1.8-4.9,4.3-4.9C240.3,60.3,242,62.3,242,65z
			 M234.8,65.2c0,2,1.1,3.7,3,3.7c1.9,0,3-1.7,3-3.8c0-1.8-1-3.8-3-3.8C235.8,61.3,234.8,63.1,234.8,65.2z"/>
		<path class="st2" d="M248.2,69.5c-0.3,0.2-1,0.4-1.9,0.4c-2,0-3.3-1.4-3.3-3.4c0-2,1.4-3.5,3.6-3.5c0.7,0,1.3,0.2,1.7,0.3
			l-0.3,0.9c-0.3-0.2-0.7-0.3-1.4-0.3c-1.5,0-2.3,1.1-2.3,2.5c0,1.5,1,2.5,2.3,2.5c0.7,0,1.1-0.2,1.5-0.3L248.2,69.5z"/>
		<path class="st2" d="M255.2,67.9c0,0.7,0,1.3,0.1,1.8h-1.1l-0.1-1.1h0c-0.3,0.5-1,1.2-2.2,1.2c-1,0-2.3-0.6-2.3-2.9v-3.9h1.2v3.7
			c0,1.3,0.4,2.1,1.5,2.1c0.8,0,1.4-0.6,1.6-1.1c0.1-0.2,0.1-0.4,0.1-0.6v-4.1h1.2V67.9z"/>
		<path class="st2" d="M257.2,65.3c0-0.9,0-1.5-0.1-2.2h1.1l0.1,1.1h0c0.5-0.8,1.3-1.3,2.4-1.3c1.6,0,2.8,1.4,2.8,3.4
			c0,2.4-1.5,3.6-3,3.6c-0.9,0-1.6-0.4-2-1h0v3.6h-1.2V65.3z M258.4,67c0,0.2,0,0.3,0.1,0.5c0.2,0.8,0.9,1.4,1.8,1.4
			c1.3,0,2-1,2-2.6c0-1.3-0.7-2.5-2-2.5c-0.8,0-1.6,0.6-1.8,1.5c0,0.2-0.1,0.3-0.1,0.5V67z"/>
		<path class="st2" d="M268.7,69.8l-0.1-0.8h0c-0.4,0.5-1.1,1-2,1c-1.3,0-2-0.9-2-1.9c0-1.6,1.4-2.5,4-2.5v-0.1
			c0-0.5-0.2-1.5-1.5-1.5c-0.6,0-1.3,0.2-1.7,0.5l-0.3-0.8c0.5-0.4,1.3-0.6,2.2-0.6c2,0,2.5,1.4,2.5,2.7v2.5c0,0.6,0,1.1,0.1,1.6
			H268.7z M268.5,66.4c-1.3,0-2.8,0.2-2.8,1.5c0,0.8,0.5,1.2,1.1,1.2c0.9,0,1.4-0.5,1.6-1.1c0-0.1,0.1-0.3,0.1-0.4V66.4z"/>
		<path class="st2" d="M276.4,69.5c-0.3,0.2-1,0.4-1.9,0.4c-2,0-3.3-1.4-3.3-3.4c0-2,1.4-3.5,3.6-3.5c0.7,0,1.3,0.2,1.7,0.3
			l-0.3,0.9c-0.3-0.2-0.7-0.3-1.4-0.3c-1.5,0-2.3,1.1-2.3,2.5c0,1.5,1,2.5,2.3,2.5c0.7,0,1.1-0.2,1.5-0.3L276.4,69.5z"/>
		<path class="st2" d="M279.1,61.2c0,0.4-0.3,0.7-0.8,0.7c-0.4,0-0.7-0.3-0.7-0.7c0-0.4,0.3-0.8,0.8-0.8
			C278.9,60.5,279.1,60.8,279.1,61.2z M277.8,69.8v-6.6h1.2v6.6H277.8z"/>
		<path class="st2" d="M287,66.4c0,2.5-1.7,3.5-3.3,3.5c-1.8,0-3.2-1.3-3.2-3.4c0-2.2,1.5-3.5,3.3-3.5C285.7,63,287,64.3,287,66.4z
			 M281.8,66.4c0,1.5,0.8,2.6,2,2.6c1.2,0,2-1.1,2-2.6c0-1.1-0.6-2.6-2-2.6C282.4,63.9,281.8,65.2,281.8,66.4z M285.6,60.2l-1.7,2
			H283l1.2-2H285.6z"/>
		<path class="st2" d="M296.1,66.6c0,1.6,1.1,2.3,2.3,2.3c0.9,0,1.4-0.2,1.8-0.3l0.2,0.9c-0.4,0.2-1.2,0.4-2.2,0.4
			c-2,0-3.3-1.3-3.3-3.4s1.2-3.6,3.1-3.6c2.2,0,2.7,1.9,2.7,3.1c0,0.2,0,0.4,0,0.6H296.1z M299.6,65.8c0-0.8-0.3-2-1.7-2
			c-1.2,0-1.8,1.1-1.9,2H299.6z"/>
		<path class="st2" d="M302.3,64.9c0-0.7,0-1.3-0.1-1.8h1.1l0.1,1.1h0c0.3-0.6,1.1-1.3,2.2-1.3c0.9,0,2.3,0.5,2.3,2.8v4h-1.2v-3.8
			c0-1.1-0.4-2-1.5-2c-0.8,0-1.4,0.6-1.6,1.2c-0.1,0.2-0.1,0.4-0.1,0.6v4h-1.2V64.9z"/>
		<path class="st2" d="M316.8,65.3c0-0.9,0-1.5-0.1-2.2h1.1l0.1,1.1h0c0.5-0.8,1.3-1.3,2.4-1.3c1.6,0,2.8,1.4,2.8,3.4
			c0,2.4-1.5,3.6-3,3.6c-0.9,0-1.6-0.4-2-1h0v3.6h-1.2V65.3z M318,67c0,0.2,0,0.3,0.1,0.5c0.2,0.8,0.9,1.4,1.8,1.4c1.3,0,2-1,2-2.6
			c0-1.3-0.7-2.5-2-2.5c-0.8,0-1.6,0.6-1.8,1.5c0,0.2-0.1,0.3-0.1,0.5V67z"/>
		<path class="st2" d="M325.3,66.6c0,1.6,1.1,2.3,2.3,2.3c0.9,0,1.4-0.2,1.8-0.3l0.2,0.9c-0.4,0.2-1.2,0.4-2.2,0.4
			c-2,0-3.3-1.3-3.3-3.4s1.2-3.6,3.1-3.6c2.2,0,2.7,1.9,2.7,3.1c0,0.2,0,0.4,0,0.6H325.3z M328.8,65.8c0-0.8-0.3-2-1.7-2
			c-1.2,0-1.8,1.1-1.9,2H328.8z"/>
		<path class="st2" d="M331.5,65.2c0-0.8,0-1.5-0.1-2.1h1.1l0,1.3h0.1c0.3-0.9,1-1.5,1.8-1.5c0.1,0,0.2,0,0.3,0v1.1
			c-0.1,0-0.2,0-0.4,0c-0.9,0-1.5,0.6-1.6,1.6c0,0.2-0.1,0.4-0.1,0.6v3.5h-1.2V65.2z"/>
		<path class="st2" d="M340.7,69.5c-0.3,0.2-1,0.4-1.9,0.4c-2,0-3.3-1.4-3.3-3.4c0-2,1.4-3.5,3.6-3.5c0.7,0,1.3,0.2,1.7,0.3
			l-0.3,0.9c-0.3-0.2-0.7-0.3-1.4-0.3c-1.5,0-2.3,1.1-2.3,2.5c0,1.5,1,2.5,2.3,2.5c0.7,0,1.1-0.2,1.5-0.3L340.7,69.5z"/>
		<path class="st2" d="M342.8,66.6c0,1.6,1.1,2.3,2.3,2.3c0.9,0,1.4-0.2,1.8-0.3l0.2,0.9c-0.4,0.2-1.2,0.4-2.2,0.4
			c-2,0-3.3-1.3-3.3-3.4s1.2-3.6,3.1-3.6c2.2,0,2.7,1.9,2.7,3.1c0,0.2,0,0.4,0,0.6H342.8z M346.4,65.8c0-0.8-0.3-2-1.7-2
			c-1.2,0-1.8,1.1-1.9,2H346.4z"/>
		<path class="st2" d="M349,64.9c0-0.7,0-1.3-0.1-1.8h1.1l0.1,1.1h0c0.3-0.6,1.1-1.3,2.2-1.3c0.9,0,2.3,0.5,2.3,2.8v4h-1.2v-3.8
			c0-1.1-0.4-2-1.5-2c-0.8,0-1.4,0.6-1.6,1.2c-0.1,0.2-0.1,0.4-0.1,0.6v4H349V64.9z"/>
		<path class="st2" d="M358.1,61.2v1.9h1.7V64h-1.7v3.6c0,0.8,0.2,1.3,0.9,1.3c0.3,0,0.5,0,0.7-0.1l0.1,0.9
			c-0.2,0.1-0.6,0.2-1.1,0.2c-0.6,0-1-0.2-1.3-0.5c-0.3-0.4-0.5-0.9-0.5-1.7V64h-1v-0.9h1v-1.6L358.1,61.2z"/>
		<path class="st2" d="M364.9,69.8l-0.1-0.8h0c-0.4,0.5-1.1,1-2,1c-1.3,0-2-0.9-2-1.9c0-1.6,1.4-2.5,4-2.5v-0.1
			c0-0.5-0.2-1.5-1.5-1.5c-0.6,0-1.3,0.2-1.7,0.5l-0.3-0.8c0.5-0.4,1.3-0.6,2.2-0.6c2,0,2.5,1.4,2.5,2.7v2.5c0,0.6,0,1.1,0.1,1.6
			H364.9z M364.7,66.4c-1.3,0-2.8,0.2-2.8,1.5c0,0.8,0.5,1.2,1.1,1.2c0.9,0,1.4-0.5,1.6-1.1c0-0.1,0.1-0.3,0.1-0.4V66.4z"/>
		<path class="st2" d="M369.3,61.2v1.9h1.7V64h-1.7v3.6c0,0.8,0.2,1.3,0.9,1.3c0.3,0,0.5,0,0.7-0.1l0.1,0.9
			c-0.2,0.1-0.6,0.2-1.1,0.2c-0.6,0-1-0.2-1.3-0.5c-0.3-0.4-0.5-0.9-0.5-1.7V64h-1v-0.9h1v-1.6L369.3,61.2z"/>
		<path class="st2" d="M378.1,63.1c0,0.5-0.1,1-0.1,1.8v3.9c0,1.5-0.3,2.5-0.9,3c-0.6,0.6-1.6,0.8-2.4,0.8c-0.8,0-1.7-0.2-2.2-0.5
			l0.3-0.9c0.4,0.3,1.1,0.5,2,0.5c1.2,0,2.1-0.6,2.1-2.3v-0.7h0c-0.4,0.6-1.1,1.1-2.1,1.1c-1.6,0-2.8-1.4-2.8-3.2
			c0-2.3,1.5-3.5,3-3.5c1.2,0,1.8,0.6,2.1,1.2h0l0.1-1H378.1z M376.9,65.7c0-0.2,0-0.4-0.1-0.5c-0.2-0.7-0.8-1.3-1.7-1.3
			c-1.2,0-2,1-2,2.5c0,1.3,0.7,2.4,2,2.4c0.7,0,1.4-0.5,1.7-1.2c0.1-0.2,0.1-0.4,0.1-0.6V65.7z"/>
		<path class="st2" d="M380.7,66.6c0,1.6,1.1,2.3,2.3,2.3c0.9,0,1.4-0.2,1.8-0.3l0.2,0.9c-0.4,0.2-1.2,0.4-2.2,0.4
			c-2,0-3.3-1.3-3.3-3.4s1.2-3.6,3.1-3.6c2.2,0,2.7,1.9,2.7,3.1c0,0.2,0,0.4,0,0.6H380.7z M384.3,65.8c0-0.8-0.3-2-1.7-2
			c-1.2,0-1.8,1.1-1.9,2H384.3z"/>
		<path class="st2" d="M393.8,65.3c0-0.9,0-1.5-0.1-2.2h1.1l0.1,1.1h0c0.5-0.8,1.3-1.3,2.4-1.3c1.6,0,2.8,1.4,2.8,3.4
			c0,2.4-1.5,3.6-3,3.6c-0.9,0-1.6-0.4-2-1h0v3.6h-1.2V65.3z M395,67c0,0.2,0,0.3,0.1,0.5c0.2,0.8,0.9,1.4,1.8,1.4c1.3,0,2-1,2-2.6
			c0-1.3-0.7-2.5-2-2.5c-0.8,0-1.6,0.6-1.8,1.5c0,0.2-0.1,0.3-0.1,0.5V67z"/>
		<path class="st2" d="M402.3,66.6c0,1.6,1.1,2.3,2.3,2.3c0.9,0,1.4-0.2,1.8-0.3l0.2,0.9c-0.4,0.2-1.2,0.4-2.2,0.4
			c-2,0-3.3-1.3-3.3-3.4s1.2-3.6,3.1-3.6c2.2,0,2.7,1.9,2.7,3.1c0,0.2,0,0.4,0,0.6H402.3z M405.9,65.8c0-0.8-0.3-2-1.7-2
			c-1.2,0-1.8,1.1-1.9,2H405.9z"/>
		<path class="st2" d="M408.5,65.2c0-0.8,0-1.5-0.1-2.1h1.1l0,1.3h0.1c0.3-0.9,1-1.5,1.8-1.5c0.1,0,0.2,0,0.3,0v1.1
			c-0.1,0-0.2,0-0.4,0c-0.9,0-1.5,0.6-1.6,1.6c0,0.2-0.1,0.4-0.1,0.6v3.5h-1.2V65.2z"/>
		<path class="st2" d="M419.9,65.3c0-0.9,0-1.5-0.1-2.2h1.1l0.1,1.1h0c0.5-0.8,1.3-1.3,2.4-1.3c1.6,0,2.8,1.4,2.8,3.4
			c0,2.4-1.5,3.6-3,3.6c-0.9,0-1.6-0.4-2-1h0v3.6h-1.2V65.3z M421.1,67c0,0.2,0,0.3,0.1,0.5c0.2,0.8,0.9,1.4,1.8,1.4
			c1.3,0,2-1,2-2.6c0-1.3-0.7-2.5-2-2.5c-0.8,0-1.6,0.6-1.8,1.5c0,0.2-0.1,0.3-0.1,0.5V67z"/>
		<path class="st2" d="M427.7,60h1.2v9.8h-1.2V60z"/>
		<path class="st2" d="M434.6,69.8l-0.1-0.8h0c-0.4,0.5-1.1,1-2,1c-1.3,0-2-0.9-2-1.9c0-1.6,1.4-2.5,4-2.5v-0.1
			c0-0.5-0.2-1.5-1.5-1.5c-0.6,0-1.3,0.2-1.7,0.5l-0.3-0.8c0.5-0.4,1.3-0.6,2.2-0.6c2,0,2.5,1.4,2.5,2.7v2.5c0,0.6,0,1.1,0.1,1.6
			H434.6z M434.4,66.4c-1.3,0-2.8,0.2-2.8,1.5c0,0.8,0.5,1.2,1.1,1.2c0.9,0,1.4-0.5,1.6-1.1c0-0.1,0.1-0.3,0.1-0.4V66.4z"/>
		<path class="st2" d="M442.3,69.5c-0.3,0.2-1,0.4-1.9,0.4c-2,0-3.3-1.4-3.3-3.4c0-2,1.4-3.5,3.6-3.5c0.7,0,1.3,0.2,1.7,0.3
			l-0.3,0.9c-0.3-0.2-0.7-0.3-1.4-0.3c-1.5,0-2.3,1.1-2.3,2.5c0,1.5,1,2.5,2.3,2.5c0.7,0,1.1-0.2,1.5-0.3L442.3,69.5z"/>
		<path class="st2" d="M444.4,66.6c0,1.6,1.1,2.3,2.3,2.3c0.9,0,1.4-0.2,1.8-0.3l0.2,0.9c-0.4,0.2-1.2,0.4-2.2,0.4
			c-2,0-3.3-1.3-3.3-3.4s1.2-3.6,3.1-3.6c2.2,0,2.7,1.9,2.7,3.1c0,0.2,0,0.4,0,0.6H444.4z M447.9,65.8c0-0.8-0.3-2-1.7-2
			c-1.2,0-1.8,1.1-1.9,2H447.9z"/>
		<path class="st2" d="M450.4,68.5c0.4,0.2,1,0.5,1.6,0.5c0.9,0,1.3-0.4,1.3-1c0-0.6-0.3-0.9-1.2-1.2c-1.2-0.4-1.8-1.1-1.8-1.9
			c0-1.1,0.9-2,2.3-2c0.7,0,1.3,0.2,1.6,0.4l-0.3,0.9c-0.3-0.2-0.7-0.4-1.4-0.4c-0.7,0-1.1,0.4-1.1,0.9c0,0.5,0.4,0.8,1.3,1.1
			c1.2,0.4,1.7,1,1.7,2c0,1.2-0.9,2-2.5,2c-0.7,0-1.4-0.2-1.9-0.5L450.4,68.5z"/>
		<path class="st2" d="M456.2,68.7c0.1-0.1,0.3-0.2,0.5-0.2s0.4,0.1,0.5,0.2s0.2,0.3,0.2,0.5c0,0.2-0.1,0.4-0.2,0.5
			c-0.1,0.1-0.3,0.2-0.5,0.2c-0.2,0-0.4-0.1-0.5-0.2c-0.1-0.2-0.2-0.3-0.2-0.5C456,69,456.1,68.8,456.2,68.7z"/>
	</g>
</g>
<path class="st2" d="M306.9,86.7h11.2c1.1,0,2,0.9,2,2v4c0,1.1-0.9,2-2,2h-11.2c-1.1,0-2-0.9-2-2v-4
	C304.9,87.6,305.8,86.7,306.9,86.7z"/>
<path class="st14" d="M362.6,86.7h11.2c1.1,0,2,0.9,2,2v4c0,1.1-0.9,2-2,2h-11.2c-1.1,0-2-0.9-2-2v-4
	C360.6,87.6,361.5,86.7,362.6,86.7z"/>
<g>
	<g class="st11">
		<path class="st15" d="M383.1,93.7H379v-0.7l0.9-0.8c0.6-0.5,1-1,1.3-1.3c0.3-0.3,0.5-0.7,0.6-1c0.1-0.3,0.2-0.7,0.2-1.2
			c0-0.4-0.1-0.8-0.3-1c-0.2-0.2-0.5-0.3-1-0.3c-0.2,0-0.4,0-0.5,0.1c-0.2,0-0.4,0.1-0.5,0.2l-0.2,0.8h-0.3v-1.3
			c0.6-0.1,1.1-0.2,1.6-0.2c0.7,0,1.3,0.2,1.7,0.5s0.6,0.7,0.6,1.3c0,0.4-0.1,0.7-0.2,1.1c-0.1,0.3-0.4,0.7-0.7,1s-0.8,0.8-1.5,1.4
			c-0.3,0.3-0.6,0.5-1,0.8h3.5V93.7z"/>
		<path class="st15" d="M388.4,90.3c0,2.3-0.7,3.5-2.2,3.5c-0.7,0-1.2-0.3-1.6-0.9c-0.4-0.6-0.5-1.5-0.5-2.6c0-1.1,0.2-2,0.5-2.6
			c0.4-0.6,0.9-0.9,1.6-0.9c0.7,0,1.3,0.3,1.6,0.9C388.2,88.3,388.4,89.1,388.4,90.3z M387.5,90.3c0-1.1-0.1-1.9-0.3-2.3
			c-0.2-0.5-0.5-0.7-1-0.7c-0.4,0-0.8,0.2-0.9,0.7c-0.2,0.4-0.3,1.2-0.3,2.4c0,1.1,0.1,1.9,0.3,2.4c0.2,0.5,0.5,0.7,0.9,0.7
			c0.4,0,0.8-0.2,1-0.7C387.4,92.1,387.5,91.4,387.5,90.3z"/>
		<path class="st15" d="M392,93.3l1.4,0.1v0.3h-3.6v-0.3l1.4-0.1v-5.5l-1.4,0.5V88l2-1.1h0.3V93.3z"/>
		<path class="st15" d="M394.3,89c0-0.7,0.2-1.2,0.6-1.6s0.9-0.6,1.6-0.6c0.8,0,1.3,0.3,1.7,0.8c0.4,0.6,0.5,1.4,0.5,2.6
			c0,1.1-0.2,2-0.7,2.6c-0.5,0.6-1.1,0.9-1.9,0.9c-0.5,0-1-0.1-1.5-0.2v-1.2h0.3l0.2,0.7c0.1,0,0.3,0.1,0.4,0.1s0.4,0.1,0.5,0.1
			c0.5,0,0.9-0.2,1.2-0.7s0.4-1.2,0.5-2.1c-0.5,0.3-1,0.4-1.6,0.4c-0.6,0-1.1-0.2-1.4-0.5C394.5,90.1,394.3,89.6,394.3,89z
			 M396.5,87.2c-0.8,0-1.3,0.6-1.3,1.8c0,0.5,0.1,0.9,0.3,1.1c0.2,0.2,0.5,0.4,0.9,0.4c0.4,0,0.9-0.1,1.3-0.3c0-1-0.1-1.8-0.3-2.3
			C397.3,87.5,396.9,87.2,396.5,87.2z"/>
	</g>
</g>
<g>
	<g class="st11">
		<path class="st15" d="M329.6,93.7h-4.1v-0.7l0.9-0.8c0.6-0.5,1-1,1.3-1.3c0.3-0.3,0.5-0.7,0.6-1c0.1-0.3,0.2-0.7,0.2-1.2
			c0-0.4-0.1-0.8-0.3-1c-0.2-0.2-0.5-0.3-1-0.3c-0.2,0-0.4,0-0.5,0.1c-0.2,0-0.4,0.1-0.5,0.2l-0.2,0.8h-0.3v-1.3
			c0.6-0.1,1.1-0.2,1.6-0.2c0.7,0,1.3,0.2,1.7,0.5s0.6,0.7,0.6,1.3c0,0.4-0.1,0.7-0.2,1.1c-0.1,0.3-0.4,0.7-0.7,1s-0.8,0.8-1.5,1.4
			c-0.3,0.3-0.6,0.5-1,0.8h3.5V93.7z"/>
		<path class="st15" d="M334.9,90.3c0,2.3-0.7,3.5-2.2,3.5c-0.7,0-1.2-0.3-1.6-0.9c-0.4-0.6-0.5-1.5-0.5-2.6c0-1.1,0.2-2,0.5-2.6
			c0.4-0.6,0.9-0.9,1.6-0.9c0.7,0,1.3,0.3,1.6,0.9C334.7,88.3,334.9,89.1,334.9,90.3z M334,90.3c0-1.1-0.1-1.9-0.3-2.3
			c-0.2-0.5-0.5-0.7-1-0.7c-0.4,0-0.8,0.2-0.9,0.7c-0.2,0.4-0.3,1.2-0.3,2.4c0,1.1,0.1,1.9,0.3,2.4c0.2,0.5,0.5,0.7,0.9,0.7
			c0.4,0,0.8-0.2,1-0.7C333.9,92.1,334,91.4,334,90.3z"/>
		<path class="st15" d="M339.9,93.7h-4.1v-0.7l0.9-0.8c0.6-0.5,1-1,1.3-1.3c0.3-0.3,0.5-0.7,0.6-1c0.1-0.3,0.2-0.7,0.2-1.2
			c0-0.4-0.1-0.8-0.3-1c-0.2-0.2-0.5-0.3-1-0.3c-0.2,0-0.4,0-0.5,0.1c-0.2,0-0.4,0.1-0.5,0.2l-0.2,0.8H336v-1.3
			c0.6-0.1,1.1-0.2,1.6-0.2c0.7,0,1.3,0.2,1.7,0.5s0.6,0.7,0.6,1.3c0,0.4-0.1,0.7-0.2,1.1c-0.1,0.3-0.4,0.7-0.7,1s-0.8,0.8-1.5,1.4
			c-0.3,0.3-0.6,0.5-1,0.8h3.5V93.7z"/>
		<path class="st15" d="M345.2,90.3c0,2.3-0.7,3.5-2.2,3.5c-0.7,0-1.2-0.3-1.6-0.9s-0.5-1.5-0.5-2.6c0-1.1,0.2-2,0.5-2.6
			s0.9-0.9,1.6-0.9c0.7,0,1.3,0.3,1.6,0.9C345,88.3,345.2,89.1,345.2,90.3z M344.3,90.3c0-1.1-0.1-1.9-0.3-2.3
			c-0.2-0.5-0.5-0.7-1-0.7c-0.4,0-0.7,0.2-0.9,0.7s-0.3,1.2-0.3,2.4c0,1.1,0.1,1.9,0.3,2.4c0.2,0.5,0.5,0.7,0.9,0.7
			c0.4,0,0.8-0.2,1-0.7C344.2,92.1,344.3,91.4,344.3,90.3z"/>
	</g>
</g>
<path class="st16" d="M86.4,349.7c17.1-3,34.2-6,51.3-6h0.7"/>
<path id="point-0-6-2" class="st2" d="M82.3,350.3c0-2.3,1.8-4.1,4.1-4.1s4.1,1.8,4.1,4.1c0,2.3-1.8,4.1-4.1,4.1l0,0l0,0
	C84.1,354.4,82.3,352.6,82.3,350.3L82.3,350.3L82.3,350.3L82.3,350.3z"/>
<text transform="matrix(1 0 0 1 61.16 341.89)" class="st2 st3 st17">48,5</text>
<text transform="matrix(1 0 0 1 140.45 353.91)" class="st2 st3 st17">50,1</text>
<text transform="matrix(1 0 0 1 344.97 482.69)" class="st2 st3 st17">15,7</text>
<text transform="matrix(1 0 0 1 385.85 422.91)" class="st2 st3 st17">26,8</text>
<text transform="matrix(1 0 0 1 81.46 372.48)" class="st2 st3 st17">48,3</text>
<text transform="matrix(1 0 0 1 112.41 323.24)" class="st2 st3 st17">55,4</text>
<text transform="matrix(1 0 0 1 196.41 315.79)" class="st2 st3 st17">60,2</text>
<text transform="matrix(1 0 0 1 233.13 268.3101)" class="st2 st3 st17">68,6</text>
<text transform="matrix(1 0 0 1 283.15 299.65)" class="st2 st3 st17">66,2</text>
<text transform="matrix(1 0 0 1 329.67 251.1899)" class="st2 st3 st17">73,5</text>
<text transform="matrix(1 0 0 1 376.76 234.5701)" class="st2 st3 st17">77,6</text>
<text transform="matrix(1 0 0 1 437.88 220.14)" class="st2 st3 st17">80,9</text>
<text transform="matrix(1 0 0 1 496.58 260.72)" class="st2 st3 st17">70,8</text>
<text transform="matrix(1 0 0 1 530.27 299.65)" class="st2 st3 st17">65,7</text>
<text transform="matrix(1 0 0 1 577.76 333.66)" class="st2 st3 st17">55,6</text>
<text transform="matrix(1 0 0 1 629.55 365.28)" class="st2 st3 st17">48,1</text>
<path id="point-0-6-3" class="st2" d="M237.1,530.4c0-2.3,1.8-4.1,4.1-4.1s4.1,1.8,4.1,4.1c0,2.3-1.8,4.1-4.1,4.1c0,0,0,0,0,0l0,0
	C239,534.6,237.1,532.7,237.1,530.4L237.1,530.4z"/>
<text transform="matrix(1 0 0 1 233.74 519.61)" class="st2 st3 st17">0,0</text>
<path class="st16" d="M341.6,472.5c17.6-12.5,35.1-38,52.7-41.5"/>
<path id="point-0-7" class="st18" d="M595,487.4c0-2.4,1.8-4.3,4.2-4.3s4.3,1.8,4.3,4.2c0,2.4-1.8,4.3-4.2,4.3h-0.1
	C597,491.6,595,489.7,595,487.4z"/>
<text transform="matrix(1 0 0 1 439.33 418.63)" class="st2 st3 st17">28,2</text>
<text transform="matrix(1 0 0 1 499.4099 456.1603)" class="st2 st3 st17">18,5</text>
<text transform="matrix(1 0 0 1 551.6199 472.4896)" class="st2 st3 st17">15,1</text>
<path class="st19" d="M597.2,488.4c-19.1-2.8-35.6-5.8-49.1-8.5c-31.5-6.3-41.5-10.1-50.5-18.1c-6.9-6.2-6.7-8.7-14.5-16.2
	c-12.3-11.8-26.4-17.1-36.7-19.8c0.3,0,0.4,0,0.4,0c0,0.1-17.5,1.9-52.7,5.2"/>
<path id="point-0-5-2-2-2_1_" class="st2" d="M544.6,479.9c0-1.5,1.2-2.8,2.8-2.8s2.8,1.2,2.8,2.8s-1.2,2.8-2.8,2.8
	S544.6,481.4,544.6,479.9z"/>
<text transform="matrix(1 0 0 1 606.9799 488.4118)" class="st2 st3 st17">12,8</text>
</svg>
