<svg id="Capa_1" data-name="Capa 1" xmlns="http://www.w3.org/2000/svg" viewBox="0 0 41.1 28.71"><defs><style>.cls-1{fill:#fff;}.cls-2{fill:none;stroke:#fff;stroke-miterlimit:10;}.cls-3{fill:#003467;opacity:0.34;isolation:isolate;}</style></defs><title>icones_peuMesa de trabajo 1</title><path class="cls-1" d="M10.48,4.21a7.44,7.44,0,1,0,7.43,7.43v0A7.43,7.43,0,0,0,10.48,4.21Zm6.34,7.37s.05,0,0,.05h0Zm-.3-.11s.06,0,0,.07H16.5ZM16,9.78v0h0Zm-.87,1.69h-.06C15.07,11.4,15.14,11.41,15.14,11.47Zm-9,1.77H4.63V10.11H6.09c.54,0,1.13.13,1.13.78a.72.72,0,0,1-.41.63.73.73,0,0,1,.53.74c0,.73-.53,1-1.19,1Zm2.94-.64a.58.58,0,0,0,.63-.53v0h.81a1.31,1.31,0,0,1-1.37,1.25h0a1.54,1.54,0,0,1-1.56-1.52v-.1A1.53,1.53,0,0,1,9,10h.11a1.34,1.34,0,0,1,1.42,1.18H9.72a.57.57,0,0,0-.63-.48c-.52,0-.73.46-.73.91s.21.94.73.94Zm4.4.64h-.81l-1.09-2h0v2H10.8V10.11h.83L12.72,12h0V10.11h.76Zm1.48.3h0a.42.42,0,0,1,0-.1l.07.05s-.08,0-.06,0Zm0-.14s.05-.06.07-.06,0,.05-.05,0Zm.08,0v0h0Zm.09.06Zm0-.21v0h0l-.06,0s0,.06,0,.08,0,0-.05,0h0v-.09h0s0,.07.05,0l0-.06.06.11,0,0v-.06c-.08,0,0,.06-.07.06Zm-.1-.39,0,0v0H15Zm0,0v0s0,0,0,0Zm0,.2h0v0Zm.15.35h0l0-.06v.06Zm.07-.09h0s0-.06.06,0Zm.1-.22v0h0Zm0-.24h0c0,.06-.06,0-.1.05h0l0,0,0,.07,0,0-.06,0,0-.07h0l0-.09h0s0-.1-.06-.1v-.1l0,.06h0l0,0,0,0c.07,0,0,.08,0,.1l0,0c0,.06.06.12,0,.18l0,0c-.06-.08-.08,0-.14,0a.12.12,0,0,1,.08-.09S15,12.9,15,12.84s-.07-.08,0-.16v0s.11,0,.13,0l.06,0a.24.24,0,0,0,.14-.05v0c0,.06-.09,0-.13,0s-.09.08-.15,0l0,0h0s-.06-.18.07-.14,0,.05.05.07h0v-.06c.06.06.13,0,.18.06l.06,0c0,.12-.12.15-.12.32v0l0,0s.06.07.1,0Zm-.1-.26v0c-.08,0,0-.05,0-.06Zm.08-.17h0v0h0Zm.16.11c0-.06,0-.07,0,0Zm.1-.34h0v0h0Zm1.44-.37s-.07,0-.09,0l.07,0,0,0L17,12H17l0-.06h-.08c0-.12-.09-.14-.07,0h0v-.06c-.06,0-.1,0-.08.09h.12s0,.1.05.07h-.07l0,0s-.08,0-.1,0-.16,0-.23.08-.12,0-.12-.06l0,0s-.09,0-.1-.06.13,0,.2,0h.05c-.1,0,0-.13-.05-.2s-.09,0-.11,0l0,0s0,.11,0,.11-.09.07-.12,0v-.06l-.06.13s0,0,0,0l.05,0v0h.08v.06c-.06,0-.13,0-.19,0,0-.1-.13.06-.15,0l-.06,0,0-.09h-.05l0,.07-.06,0c0,.06-.08,0-.11,0s-.11,0-.13.08v0c-.08.14-.24,0-.3.14h-.06c0,.08.09,0,.13,0s.06,0,.12,0h0s.11,0,.12,0h-.08l0,.05,0,0v0h-.09c0,.05-.06-.06-.1,0s.08,0,.05.07h-.1l0,0s-.17,0-.17-.08l.08,0v-.1l.1-.09a.06.06,0,0,0-.08,0c0-.09-.12-.08-.18-.07s-.12,0-.16.05l0-.07H14.7v0l0,0c-.05.05-.12,0-.16,0v0s-.14.06-.15,0-.08,0-.08,0v0c-.08,0-.16,0-.24.05s-.13,0-.26-.15h0c0-.07.13-.09.05-.16s.12-.19,0-.25.13,0,.18-.06.15.11.23.05h0v0c.1,0,.31,0,.3-.08s.09,0,.12.07,0-.05,0-.05.13-.08.17,0c.06-.08.1.11.14,0s0,.19.07.12l.06,0v-.13h0a.08.08,0,0,1,.09,0c.06,0,.1-.11.18-.14v0l0,0c.05,0,0-.13.06-.12V11c-.14-.18.13-.18.07-.29v0h0s0-.11,0-.14l0,0,0,0c0-.05-.08-.09,0-.15l.06,0c0-.07-.09-.25.09-.3l0-.06c.16,0-.06-.18.09-.22,0-.08.13-.12.1,0h0c0,.1.14,0,.17.08h0s-.06.07,0,.09,0-.09.07-.06-.08.14,0,.19c-.1,0-.1.2-.06.28l0,0c0-.11-.05-.09-.13-.11v0c.18,0,.07.22.12.27s-.12.23-.17.07v0l-.08,0v.07h0s-.07.08,0,.11v0h0c0-.1.07-.1.12-.13l0,.06s-.09,0-.09.08-.17.07-.24,0,.14.09.14.14l-.08.07.09,0c-.07,0-.09.18-.17.17a.09.09,0,0,0,0,.1h.07l0,.07c.09,0,0-.09.09,0l0,0c0,.07.08,0,.11,0H16v.05h0c0-.08.08-.1.12,0s-.06.07,0,.08l.06-.1,0-.05h.08v.05a.26.26,0,0,0,.15-.12l0,0,0,0s0,.08.08,0,.13,0,.13.06,0-.1.08-.07,0-.1.06-.07l0,0c-.08,0,0,.08,0,.14s0-.14-.08-.06,0,.09,0,.14l0,0s.12,0,.13-.09.14-.18.19,0c-.07,0-.1,0-.13.1l.05,0s0-.1.07-.09l.07.08Zm-1.55.42h0v0Zm-.38-.11v0Zm.82-1.34h0v0Zm0,.35v0h0Zm0,.07h0v0Zm0-.13v0c0-.05.06-.05.09,0s-.09,0-.1,0Zm-.05.27s-.06,0-.08,0,.05-.06.07-.06Zm1.22.35,0,0s0,0,0,0Zm.08.19h-.05c-.06-.08.05-.06.05-.11l.05,0v0h-.06Z"/><polygon class="cls-1" points="16.16 11.79 16.09 11.86 16.19 11.82 16.14 11.78 16.16 11.79"/><path class="cls-1" d="M6.11,11.84H5.46v.72h.65c.26,0,.45-.09.45-.35S6.36,11.84,6.11,11.84Z"/><path class="cls-1" d="M6.42,11a.29.29,0,0,0-.33-.3H5.46v.6h.63A.3.3,0,0,0,6.42,11Z"/><path class="cls-1" d="M16.54,11.82c.06,0,0,.1,0,.16s0-.07.09-.07v-.1Z"/><path class="cls-1" d="M16.45,12s0,0,0-.08A.06.06,0,0,0,16.45,12Z"/><path class="cls-1" d="M16.83,11.55v0h0S16.86,11.56,16.83,11.55Z"/><path class="cls-1" d="M17.19,11.81l-.05,0c0,.05-.11,0-.05.11h.06v-.06h0Z"/><path class="cls-1" d="M17,11.66l0,0v0S17,11.62,17,11.66Z"/><path class="cls-1" d="M16.52,11.47v.07h.06A.07.07,0,0,0,16.52,11.47Z"/><path class="cls-1" d="M16.09,11.85l.07-.06h0l0,0Zm.36.15a.06.06,0,0,1,0-.08C16.5,12,16.5,12,16.45,12Zm.11,0c0-.06,0-.13,0-.16h.09v.11S16.58,11.92,16.56,12Zm0-.27c0-.11.07,0,.11,0h-.11Z"/><path class="cls-1" d="M16.54,11.71h.11S16.53,11.6,16.54,11.71Z"/><path class="cls-1" d="M5.46,10.72h.63a.29.29,0,0,1,.33.3.3.3,0,0,1-.31.3H5.46Zm.65,1.84H5.46v-.72h.65c.25,0,.45.1.45.37S6.37,12.56,6.11,12.56Z"/><path class="cls-1" d="M1.91,25.44a.38.38,0,0,0,0,.15.41.41,0,0,0,.42.41h0a.51.51,0,0,0,.5-.33h.28a.76.76,0,0,1-.78.58.65.65,0,0,1-.72-.58.41.41,0,0,1,0-.11,1,1,0,0,1,.87-1.1h0c.5,0,.72.27.72.75a1.79,1.79,0,0,1,0,.23Zm1-.25a.39.39,0,0,0-.3-.47h-.1a.62.62,0,0,0-.6.48Zm-.16-1.4h.38l-.46.45H2.47Z"/><path class="cls-1" d="M4.53,25c0-.19-.16-.29-.35-.29s-.36,0-.36.21.22.23.45.32.45.21.45.48-.36.53-.69.53-.68-.14-.68-.58h.28c0,.25.21.33.45.33s.39-.07.39-.26-.22-.24-.45-.33-.45-.2-.45-.45.32-.49.63-.49.65.14.65.54Z"/><path class="cls-1" d="M6.22,24.5h.26l-.06.25h0a.76.76,0,0,1,.59-.3.39.39,0,0,1,.43.31A.73.73,0,0,1,8,24.45c.25,0,.48.1.48.38a1.27,1.27,0,0,1-.05.34l-.21,1H8l.23-1.09a.57.57,0,0,0,0-.18A.24.24,0,0,0,8,24.7H8a.6.6,0,0,0-.45.23.68.68,0,0,0-.16.38l-.19.89H6.88l.2-1a1.59,1.59,0,0,0,.06-.3.21.21,0,0,0-.2-.22h0a.59.59,0,0,0-.42.21.64.64,0,0,0-.18.39l-.2.91H5.82Z"/><path class="cls-1" d="M9.7,24.46a.64.64,0,0,1,.71.57v.13a1,1,0,0,1-.91,1.09h0a.69.69,0,0,1-.72-.63.34.34,0,0,1,0-.1,1,1,0,0,1,.92-1.06ZM9.49,26c.41,0,.64-.45.64-.81a.46.46,0,0,0-.43-.48h0c-.43,0-.65.45-.65.82a.46.46,0,0,0,.44.47h0Z"/><path class="cls-1" d="M11.06,23.84h.28l-.5,2.37h-.28Z"/><path class="cls-1" d="M12.06,24.5h.36l-.06.25H12l-.21,1v.11s.09.12.17.12a.41.41,0,0,0,.16,0l-.05.26-.19,0c-.21,0-.39-.06-.39-.28a.33.33,0,0,1,0-.14l.22-1.06h-.28l.05-.25h.29l.1-.51h.28Z"/><path class="cls-1" d="M13.63,24.5h.27l-.07.25h0a.8.8,0,0,1,.6-.3.39.39,0,0,1,.43.31.73.73,0,0,1,.59-.31c.24,0,.47.1.47.38a1.27,1.27,0,0,1-.05.34l-.21,1h-.29l.24-1.09a.57.57,0,0,0,0-.18.24.24,0,0,0-.26-.23h0a.6.6,0,0,0-.43.23.8.8,0,0,0-.16.38l-.19.89h-.28l.21-1c0-.1,0-.2.05-.3a.21.21,0,0,0-.2-.22h0a.61.61,0,0,0-.42.21.67.67,0,0,0-.18.39l-.19.91h-.28Z"/><path class="cls-1" d="M16.43,25.44v.15a.41.41,0,0,0,.42.41h0a.5.5,0,0,0,.5-.33h.28a.76.76,0,0,1-.8.58.65.65,0,0,1-.72-.58.21.21,0,0,1,0-.11,1,1,0,0,1,.87-1.1h0c.5,0,.72.27.72.75a1.79,1.79,0,0,1,0,.23Zm1-.25a.39.39,0,0,0-.3-.47h-.1a.6.6,0,0,0-.59.48Zm-.15-1.4h.37l-.45.45H17Z"/><path class="cls-1" d="M19.06,25c0-.19-.16-.29-.36-.29s-.36,0-.36.21.22.23.45.32.46.21.46.48-.37.53-.7.53-.69-.14-.69-.58h.28c0,.25.2.33.46.33s.39-.07.39-.26-.23-.24-.46-.33-.45-.2-.45-.45.32-.49.64-.49.64.14.64.54Z"/><path class="cls-1" d="M2.44,20.5H3.6c.45,0,.78.15.78.61a.53.53,0,0,1-.33.51.6.6,0,0,1,.45.62c0,.5-.42.72-.86.72H2.44Zm.54,1h.55c.19,0,.33-.09.33-.3s-.18-.28-.37-.28H3Zm0,1h.58c.22,0,.4-.06.4-.32s-.16-.35-.39-.35H3Z"/><path class="cls-1" d="M4.79,21.73c0-.46.45-.6.83-.6s.78.08.78.51v.9a.79.79,0,0,0,.07.4H6a.74.74,0,0,1,0-.14.81.81,0,0,1-.59.22c-.34,0-.61-.17-.61-.53S5,22,5.34,22s.57,0,.57-.24a.26.26,0,0,0-.29-.27.3.3,0,0,0-.33.27Zm1.12.36a.91.91,0,0,1-.4.1c-.15,0-.29.08-.29.26s.14.23.3.23a.37.37,0,0,0,.39-.33.11.11,0,0,0,0-.08Z"/><path class="cls-1" d="M6.76,21.18h.45v.33h0a.64.64,0,0,1,.57-.38h.1v.45H7.71c-.36,0-.48.26-.48.57V23H6.76Z"/><path class="cls-1" d="M9.22,21.8a.33.33,0,0,0-.36-.3h0c-.31,0-.41.31-.41.58s.1.55.41.55a.36.36,0,0,0,.38-.34h.45a.77.77,0,0,1-.83.72h0a.86.86,0,0,1-.91-.8v-.11a.91.91,0,0,1,.85-1h.06a.75.75,0,0,1,.86.64v0Z"/><path class="cls-1" d="M10.36,22.19a.4.4,0,0,0,.45.45.39.39,0,0,0,.38-.23h.45a.8.8,0,0,1-.83.6.88.88,0,0,1-.91-.83.45.45,0,0,1,0-.11.9.9,0,1,1,1.79-.26.82.82,0,0,1,0,.38Zm.79-.29c-.05-.25-.15-.39-.39-.39a.39.39,0,0,0-.4.38h.79Z"/><path class="cls-1" d="M11.91,20.5h.51V23h-.51Z"/><path class="cls-1" d="M13.63,21.13a.94.94,0,1,1-.91,1v0a.89.89,0,0,1,.81-.94Zm0,1.5c.33,0,.43-.28.43-.56s-.1-.57-.43-.57-.45.28-.45.57S13.3,22.63,13.63,22.63Z"/><path class="cls-1" d="M14.84,21.18h.45v.26h0a.65.65,0,0,1,.55-.3c.51,0,.64.3.64.74V23H16V22c0-.29-.09-.45-.32-.45s-.37.15-.37.51v.93h-.49Z"/><path class="cls-1" d="M16.83,21.73c0-.46.46-.6.84-.6s.78.08.78.51v.9a.91.91,0,0,0,.06.4H18a1.36,1.36,0,0,1,0-.17.78.78,0,0,1-.6.21c-.33,0-.6-.16-.6-.53s.3-.5.6-.54.58,0,.58-.23-.14-.24-.31-.24-.31.07-.33.27Zm1.13.36a1,1,0,0,1-.41.1c-.14,0-.29.08-.29.26s.15.23.3.23a.38.38,0,0,0,.4-.33v-.26Z"/><path class="cls-1" d="M36.84,22.09h-.29c0-.28.26-.36.5-.36s.45.05.45.31v.54a.47.47,0,0,0,0,.24h-.29a.17.17,0,0,1,0-.1.49.49,0,0,1-.36.13c-.2,0-.36-.1-.36-.32s.18-.29.36-.32.34,0,.34-.14-.08-.14-.18-.14a.17.17,0,0,0-.21.12Zm.38.32V22.3a.53.53,0,0,1-.24.06.15.15,0,0,0-.17.16c0,.11.08.13.18.13a.21.21,0,0,0,.23-.19Zm-1.91.41V21.76h.28v.14a.38.38,0,0,1,.32-.18c.31,0,.39.18.39.45v.63H36v-.58c0-.17-.05-.26-.18-.26s-.23.09-.23.31v.53Zm-1.05-.53c0,.17.06.34.25.34s.26-.17.26-.34-.06-.34-.26-.34S34.26,22.12,34.26,22.29Zm-.29,0a.55.55,0,0,1,.55-.54.54.54,0,0,1,.54.55.55.55,0,0,1-.55.55.52.52,0,0,1-.54-.49Zm-.52.51V21.36h.28V22.8Zm-1-.64h.45c0-.15-.09-.22-.23-.22a.22.22,0,0,0-.22.23h0Zm.76.18h-.76c0,.19.09.27.26.27a.26.26,0,0,0,.23-.13h.25a.45.45,0,0,1-.49.35.51.51,0,0,1-.54-.48v-.07a.52.52,0,0,1,.5-.56.54.54,0,0,1,.56.5A.49.49,0,0,1,33.21,22.34ZM32,22.12h-.29a.19.19,0,0,0-.21-.18c-.19,0-.25.18-.25.34s.06.33.24.33a.22.22,0,0,0,.23-.21H32a.46.46,0,0,1-.45.46h-.05a.51.51,0,0,1-.54-.49v-.05a.53.53,0,0,1,.47-.58h.07a.47.47,0,0,1,.5.41h0Zm-1.81.68v-1h.27V22a.38.38,0,0,1,.34-.23h.07V22h-.11c-.21,0-.28.15-.28.34v.45Zm-1-.73h-.31c0-.27.25-.36.49-.36s.45.05.45.31v.55a.59.59,0,0,0,0,.23h-.3v-.1a.45.45,0,0,1-.35.13c-.2,0-.36-.1-.36-.32s.18-.29.36-.32.35,0,.35-.14-.09-.14-.19-.14a.19.19,0,0,0-.2.18Zm.38.32V22.3a.54.54,0,0,1-.25.06.15.15,0,0,0-.16.16c0,.11.08.13.17.13a.21.21,0,0,0,.22-.21v0Zm-1.81-.8v.34h.32c.11,0,.2-.05.2-.17s-.11-.17-.22-.17Zm-.34,1.21V21.36h.68c.28,0,.45.09.45.36a.33.33,0,0,1-.19.31.36.36,0,0,1,.27.37c0,.29-.26.42-.52.42Zm.32-.65v.4h.34c.12,0,.24,0,.24-.19s-.1-.21-.23-.21Zm9-2.06c0,.17.06.34.26.34s.26-.17.26-.34-.06-.34-.26-.34-.26.19-.26.36Zm-.29,0a.55.55,0,1,1,1.1,0,.55.55,0,0,1-.55.54.52.52,0,0,1-.56-.48v-.08Zm.89-.91-.31.29h-.18l.19-.29Zm-1.22,0v.24h-.27v-.24Zm-.29,1.46V19.58h.29v1.06Zm-.3-.69h-.28a.2.2,0,0,0-.22-.18c-.18,0-.24.19-.24.34s.06.34.24.34a.23.23,0,0,0,.23-.21h.27a.46.46,0,0,1-.45.46H35a.51.51,0,0,1-.53-.49v-.05a.52.52,0,0,1,.47-.57H35A.45.45,0,0,1,35.54,20Zm-2,0h-.29c0-.28.26-.36.5-.36s.45.05.45.3v.55a.51.51,0,0,0,0,.24h-.3v-.1a.53.53,0,0,1-.36.13c-.2,0-.36-.1-.36-.32s.19-.3.36-.32.35,0,.35-.14-.09-.14-.19-.14-.19,0-.2.16Zm.38.32v-.11a.7.7,0,0,1-.24.06c-.09,0-.17.05-.17.16s.08.13.17.13a.21.21,0,0,0,.24-.19,0,0,0,0,0,0-.05Zm-1.16-1v.32H33v.19h-.21v.53c0,.09,0,.12.12.12H33v.23h-.17c-.18,0-.33,0-.33-.25v-.63h-.18v-.19h.18v-.32Zm-.71.32v1.06h-.27v-.15a.4.4,0,0,1-.33.18c-.31,0-.38-.18-.38-.46v-.63h.29v.6c0,.17,0,.26.18.26s.22-.09.22-.3v-.56Zm-1.84.87c.19,0,.26-.17.26-.34s-.07-.34-.26-.34-.25.17-.25.34.07.34.26.34Zm-.53.56V19.58H30v.13a.39.39,0,0,1,.32-.16c.33,0,.48.27.48.57a.48.48,0,0,1-.42.54h0a.38.38,0,0,1-.31-.16V21Zm-.35-1.81v.24H29v-.26ZM29,20.66V19.58h.29v1.06Zm-1.3-1.21v.9H28c.19,0,.37-.11.37-.45s-.1-.45-.43-.45Zm-.31,1.19V19.18h.63a.63.63,0,0,1,.66.62v.1a.65.65,0,0,1-.56.73h-.73Z"/><path class="cls-1" d="M32.48,11.92l-.34.34v1.3h-1.3l-.34.35.34.34h1.3v1.3l.34.34.34-.34V14.23h1.3l.34-.34-.34-.34h-1.3v-1.3Zm0-4.17A5.24,5.24,0,1,0,37.73,13v0a5.25,5.25,0,0,0-5.25-5.24Zm1.92,2a.2.2,0,0,1,.2.2.2.2,0,0,1-.2.21h0a.21.21,0,0,1-.21-.21.2.2,0,0,1,.21-.2ZM30.5,11v-.14h4V11Zm3.22.27v1.23l-.62-.62v-.62Zm-1.85,0v.61l-.61.62V11.23Zm-1.09,0V13l-.62.61V11.23Zm-.28-.62v-.27h4v.27Zm3.68.61h.62v2.32l-.62-.62ZM34,9.93a.19.19,0,0,1-.2.21.2.2,0,0,1-.21-.2.2.2,0,0,1,.2-.21h0a.21.21,0,0,1,.22.19h0Zm-.45-.68a.2.2,0,0,1,.2.2.2.2,0,0,1-.2.21.21.21,0,0,1-.21-.21.2.2,0,0,1,.2-.2Zm-.27.48a.2.2,0,0,1,.2.21.19.19,0,0,1-.21.19.2.2,0,0,1,0-.4Zm-.35.2a.2.2,0,1,1-.2-.2h0a.2.2,0,0,1,.2.2Zm-.49-.68a.2.2,0,0,1,.21.2.21.21,0,0,1-.21.21.2.2,0,0,1-.2-.21A.2.2,0,0,1,32.48,9.25Zm-.27.48a.2.2,0,1,1,0,.4.2.2,0,0,1,0-.4Zm-.34.2a.2.2,0,0,1-.21.2.2.2,0,1,1,0-.4h0A.2.2,0,0,1,31.87,9.93Zm-.48-.68a.2.2,0,0,1,.21.2.21.21,0,0,1-.21.21.2.2,0,0,1-.2-.21A.2.2,0,0,1,31.39,9.25Zm-.27.48a.2.2,0,1,1-.2.2h0A.2.2,0,0,1,31.12,9.73Zm-.34.2a.21.21,0,0,1-.21.2.2.2,0,1,1,0-.4h0A.21.21,0,0,1,30.78,9.93Zm-.48-.68a.2.2,0,0,1,.2.2.2.2,0,1,1-.4,0A.2.2,0,0,1,30.3,9.25Zm.45,7.45h-.59V14.24l.62.61Zm1.1,0h-.59V15.33l.61.62Zm1.85,0h-.6V16l.63-.62Zm1.09,0h-.61V14.85l.62-.61Zm-2.33-.46L30.1,13.89l2.37-2.36,2.36,2.36Zm2.21-6.59a.2.2,0,0,1-.2-.2.21.21,0,1,1,.41,0A.2.2,0,0,1,34.67,9.65Z"/><line class="cls-2" x1="22.71" y1="26.21" x2="22.71" y2="4.81"/><path class="cls-3" d="M10.41,17.86A7.27,7.27,0,0,1,3,11.63v.6c0,3.78,3.32,6.84,7.43,6.84s7.47-3.07,7.47-6.84a5.63,5.63,0,0,0,0-.58C17.54,15.14,14.29,17.86,10.41,17.86Z"/><path class="cls-3" d="M10.52,5.39A7.23,7.23,0,0,1,18,11.62c0-.2,0-.4,0-.61,0-3.77-3.35-6.84-7.49-6.84S3,7.24,3,11c0,.21,0,.41,0,.61A7.26,7.26,0,0,1,10.52,5.39Z"/></svg>