<?xml version="1.0" encoding="UTF-8" standalone="no"?>
<!DOCTYPE svg PUBLIC "-//W3C//DTD SVG 1.1//EN" "http://www.w3.org/Graphics/SVG/1.1/DTD/svg11.dtd">
<svg width="100%" height="100%" viewBox="0 0 112 34" version="1.1" xmlns="http://www.w3.org/2000/svg" xmlns:xlink="http://www.w3.org/1999/xlink" xml:space="preserve" xmlns:serif="http://www.serif.com/" style="fill-rule:evenodd;clip-rule:evenodd;stroke-linejoin:round;stroke-miterlimit:1.41421;">
    <g transform="matrix(4.16667,0,0,4.16667,105.029,0)">
        <path d="M0,8.044L-23.598,8.044C-24.486,8.044 -25.207,7.324 -25.207,6.435L-25.207,0L1.608,0L1.608,6.435C1.608,7.324 0.888,8.044 0,8.044" style="fill:rgb(0,51,102);fill-rule:nonzero;"/>
    </g>
    <g transform="matrix(4.16667,0,0,4.16667,20.345,20.7692)">
        <path d="M0,-2.297L0.219,-2.297L0.219,-0.186L1.506,-0.186L1.506,0L0,0L0,-2.297Z" style="fill:white;fill-rule:nonzero;"/>
    </g>
    <g transform="matrix(4.16667,0,0,4.16667,28.8979,14.9546)">
        <path d="M0,0.495L0.904,0.495L0.46,-0.683L0,0.495ZM0.348,-0.901L0.592,-0.901L1.493,1.396L1.258,1.396L0.978,0.682L-0.067,0.682L-0.345,1.396L-0.579,1.396L0.348,-0.901Z" style="fill:white;fill-rule:nonzero;"/>
    </g>
    <g transform="matrix(4.16667,0,0,4.16667,36.9017,11.9767)">
        <path d="M0,1.924L0.753,1.924C1.078,1.924 1.357,1.824 1.357,1.451C1.357,1.155 1.139,1.007 0.753,1.007L0,1.007L0,1.924ZM0,0.82L0.753,0.82C1.101,0.82 1.271,0.647 1.271,0.431C1.271,0.145 1.097,0 0.753,0L0,0L0,0.82ZM-0.219,-0.187L0.753,-0.187C1.139,-0.187 1.489,-0.052 1.489,0.376C1.489,0.617 1.329,0.84 1.091,0.891L1.091,0.898C1.387,0.936 1.576,1.158 1.576,1.457C1.576,1.676 1.499,2.111 0.753,2.111L-0.219,2.111L-0.219,-0.187Z" style="fill:white;fill-rule:nonzero;"/>
    </g>
    <g transform="matrix(4.16667,0,0,4.16667,47.1029,18.7725)">
        <path d="M0,-1.184L0.335,-1.184L0.335,-0.878L0,-0.878L0,-0.055C0,0.1 0.039,0.139 0.193,0.139C0.245,0.139 0.293,0.135 0.335,0.126L0.335,0.483C0.258,0.496 0.158,0.499 0.068,0.499C-0.215,0.499 -0.457,0.438 -0.457,0.103L-0.457,-0.878L-0.733,-0.878L-0.733,-1.184L-0.457,-1.184L-0.457,-1.683L0,-1.683L0,-1.184Z" style="fill:white;fill-rule:nonzero;"/>
    </g>
    <g transform="matrix(4.16667,0,0,4.16667,55.9121,14.025)">
        <path d="M0,1.619L-0.435,1.619L-0.435,1.388L-0.444,1.388C-0.56,1.577 -0.759,1.664 -0.952,1.664C-1.438,1.664 -1.561,1.39 -1.561,0.979L-1.561,-0.045L-1.104,-0.045L-1.104,0.895C-1.104,1.168 -1.026,1.304 -0.811,1.304C-0.562,1.304 -0.457,1.165 -0.457,0.827L-0.457,-0.045L0,-0.045L0,1.619Z" style="fill:white;fill-rule:nonzero;"/>
    </g>
    <g transform="matrix(4.16667,0,0,4.16667,57.3608,20.585)">
        <path d="M0,-1.619L0.435,-1.619L0.435,-1.31L0.44,-1.31C0.527,-1.519 0.743,-1.664 0.972,-1.664C1.007,-1.664 1.039,-1.658 1.071,-1.648L1.071,-1.223C1.029,-1.233 0.962,-1.239 0.907,-1.239C0.569,-1.239 0.457,-1.001 0.457,-0.705L0.457,0.045L0,0.045L0,-1.619Z" style="fill:white;fill-rule:nonzero;"/>
    </g>
    <g transform="matrix(4.16667,0,0,4.16667,-1698.07,-4765.85)">
        <path d="M422.568,1147.13L423.025,1147.13L423.025,1148.79L422.568,1148.79L422.568,1147.13ZM423.025,1146.87L422.568,1146.87L422.568,1146.49L423.025,1146.49L423.025,1146.87Z" style="fill:white;fill-rule:nonzero;"/>
    </g>
    <g transform="matrix(4.16667,0,0,4.16667,67.5087,16.0892)">
        <path d="M0,0.583C0,0.779 0.174,0.863 0.352,0.863C0.479,0.863 0.65,0.812 0.65,0.65C0.65,0.512 0.457,0.461 0.132,0.393C-0.135,0.332 -0.396,0.245 -0.396,-0.051C-0.396,-0.476 -0.028,-0.585 0.328,-0.585C0.689,-0.585 1.026,-0.463 1.062,-0.054L0.628,-0.054C0.615,-0.231 0.479,-0.279 0.315,-0.279C0.213,-0.279 0.062,-0.263 0.062,-0.125C0.062,0.039 0.322,0.062 0.579,0.123C0.847,0.184 1.107,0.28 1.107,0.589C1.107,1.027 0.725,1.168 0.348,1.168C-0.038,1.168 -0.418,1.024 -0.434,0.583L0,0.583Z" style="fill:white;fill-rule:nonzero;"/>
    </g>
    <g transform="matrix(4.16667,0,0,4.16667,73.2908,20.585)">
        <path d="M0,-1.619L0.431,-1.619L0.431,-1.394L0.437,-1.394C0.557,-1.564 0.727,-1.664 0.945,-1.664C1.154,-1.664 1.341,-1.59 1.432,-1.387C1.531,-1.532 1.702,-1.664 1.934,-1.664C2.287,-1.664 2.541,-1.5 2.541,-1.069L2.541,0.045L2.085,0.045L2.085,-0.898C2.085,-1.12 2.065,-1.304 1.805,-1.304C1.547,-1.304 1.499,-1.088 1.499,-0.882L1.499,0.045L1.042,0.045L1.042,-0.889C1.042,-1.081 1.055,-1.304 0.766,-1.304C0.676,-1.304 0.456,-1.245 0.456,-0.921L0.456,0.045L0,0.045L0,-1.619Z" style="fill:white;fill-rule:nonzero;"/>
    </g>
    <g transform="matrix(4.16667,0,0,4.16667,90.0471,18.0488)">
        <path d="M0,-0.357C-0.041,-0.589 -0.142,-0.711 -0.363,-0.711C-0.659,-0.711 -0.733,-0.486 -0.743,-0.357L0,-0.357ZM-0.743,-0.067C-0.73,0.226 -0.592,0.354 -0.334,0.354C-0.151,0.354 -0.003,0.242 0.026,0.139L0.429,0.139C0.3,0.534 0.026,0.698 -0.351,0.698C-0.875,0.698 -1.2,0.338 -1.2,-0.177C-1.2,-0.676 -0.855,-1.055 -0.351,-1.055C0.216,-1.055 0.492,-0.579 0.457,-0.067L-0.743,-0.067Z" style="fill:white;fill-rule:nonzero;"/>
    </g>
</svg>
