<?xml version="1.0" encoding="UTF-8" standalone="no"?>
<!DOCTYPE svg PUBLIC "-//W3C//DTD SVG 1.1//EN" "http://www.w3.org/Graphics/SVG/1.1/DTD/svg11.dtd">
<svg width="100%" height="100%" viewBox="0 0 10 10" version="1.1" xmlns="http://www.w3.org/2000/svg" xmlns:xlink="http://www.w3.org/1999/xlink" xml:space="preserve" xmlns:serif="http://www.serif.com/" style="fill-rule:evenodd;clip-rule:evenodd;stroke-miterlimit:10;">
    <g transform="matrix(1,0,0,1,-3.97234,-3.97142)">
        <g transform="matrix(4.16667,0,0,4.16667,10.9598,4.50151)">
            <path d="M0,2.145L-0.953,2.145C-1.281,2.145 -1.55,1.877 -1.55,1.549L-1.55,0.596C-1.55,0.268 -1.281,0 -0.953,0L0,0C0.327,0 0.596,0.268 0.596,0.596L0.596,1.549C0.596,1.877 0.327,2.145 0,2.145Z" style="fill:none;stroke:rgb(0,51,102);stroke-width:0.22px;"/>
        </g>
        <g transform="matrix(-4.16667,0,0,4.16667,1931.62,-4234.16)">
            <rect x="461.713" y="1018.16" width="0.212" height="0.682" style="fill:rgb(0,51,102);"/>
        </g>
        <g transform="matrix(4.16667,0,0,4.16667,7.36692,6.93442)">
            <path d="M0,0.212C-0.067,0.212 -0.11,0.165 -0.11,0.106C-0.11,0.046 -0.065,0 0.003,0C0.071,0 0.113,0.046 0.114,0.106C0.114,0.165 0.071,0.212 0,0.212" style="fill:rgb(0,51,102);fill-rule:nonzero;"/>
        </g>
        <g transform="matrix(4.16667,0,0,4.16667,11.0369,8.10359)">
            <path d="M0,0.697L-0.212,0.697L-0.212,0.319C-0.212,0.231 -0.242,0.171 -0.319,0.171C-0.378,0.171 -0.412,0.212 -0.428,0.251C-0.434,0.264 -0.435,0.284 -0.435,0.303L-0.435,0.697L-0.646,0.697L-0.646,0.233C-0.646,0.147 -0.649,0.076 -0.652,0.015L-0.469,0.015L-0.458,0.11L-0.454,0.11C-0.427,0.065 -0.358,0 -0.244,0C-0.104,0 0,0.093 0,0.294L0,0.697Z" style="fill:rgb(0,51,102);fill-rule:nonzero;"/>
        </g>
    </g>
</svg>
