<?xml version="1.0" encoding="UTF-8" standalone="no"?>
<!DOCTYPE svg PUBLIC "-//W3C//DTD SVG 1.1//EN" "http://www.w3.org/Graphics/SVG/1.1/DTD/svg11.dtd">
<svg width="100%" height="100%" viewBox="0 0 10 10" version="1.1" xmlns="http://www.w3.org/2000/svg" xmlns:xlink="http://www.w3.org/1999/xlink" xml:space="preserve" xmlns:serif="http://www.serif.com/" style="fill-rule:evenodd;clip-rule:evenodd;stroke-miterlimit:10;">
    <g transform="matrix(1,0,0,1,-3.97234,-3.97142)">
        <g transform="matrix(4.16667,0,0,4.16667,11.1319,10.4557)">
            <path d="M0,-0.694C0.076,-0.704 0.137,-0.732 0.137,-0.732C0.106,-0.673 0.013,-0.607 0.013,-0.607C0.019,-0.483 -0.009,-0.374 -0.049,-0.287C-0.055,-0.275 -0.061,-0.262 -0.067,-0.251C-0.157,-0.072 -0.322,0.052 -0.514,0.11C-0.528,0.114 -0.543,0.118 -0.558,0.12C-0.857,0.184 -1.077,0.022 -1.077,0.022C-0.868,0.052 -0.707,-0.082 -0.707,-0.082C-0.885,-0.086 -0.939,-0.248 -0.939,-0.248C-0.874,-0.241 -0.824,-0.258 -0.824,-0.258C-1.035,-0.307 -1.025,-0.503 -1.025,-0.503C-1.005,-0.479 -0.912,-0.473 -0.912,-0.473C-1.104,-0.617 -0.994,-0.804 -0.994,-0.804C-0.765,-0.544 -0.482,-0.548 -0.482,-0.548C-0.502,-0.62 -0.469,-0.801 -0.307,-0.839C-0.145,-0.878 -0.058,-0.771 -0.058,-0.771C0.036,-0.785 0.099,-0.831 0.099,-0.831C0.093,-0.769 0,-0.694 0,-0.694" style="fill:rgb(0,51,102);fill-rule:nonzero;"/>
        </g>
        <g transform="matrix(4.16667,0,0,4.16667,13.4432,6.73484)">
            <path d="M0,1.073L0,0.001C0,-0.296 -0.24,-0.536 -0.536,-0.536L-1.609,-0.536C-1.905,-0.536 -2.146,-0.296 -2.146,0.001L-2.146,1.073C-2.146,1.369 -1.905,1.609 -1.609,1.609L-0.536,1.609C-0.24,1.609 0,1.369 0,1.073" style="fill:none;stroke:rgb(0,51,102);stroke-width:0.22px;"/>
        </g>
    </g>
</svg>
