<?xml version="1.0" encoding="UTF-8" standalone="no"?>
<!DOCTYPE svg PUBLIC "-//W3C//DTD SVG 1.1//EN" "http://www.w3.org/Graphics/SVG/1.1/DTD/svg11.dtd">
<svg width="100%" height="100%" viewBox="0 0 10 10" version="1.1" xmlns="http://www.w3.org/2000/svg" xmlns:xlink="http://www.w3.org/1999/xlink" xml:space="preserve" xmlns:serif="http://www.serif.com/" style="fill-rule:evenodd;clip-rule:evenodd;stroke-miterlimit:10;">
    <g transform="matrix(1,0,0,1,-3.97234,-3.97142)">
        <g transform="matrix(4.16667,0,0,4.16667,13.4432,6.73484)">
            <path d="M0,1.073L0,0C0,-0.296 -0.24,-0.536 -0.536,-0.536L-1.609,-0.536C-1.905,-0.536 -2.146,-0.296 -2.146,0L-2.146,1.073C-2.146,1.369 -1.905,1.609 -1.609,1.609L-0.536,1.609C-0.24,1.609 0,1.369 0,1.073" style="fill:none;stroke:white;stroke-width:0.22px;"/>
        </g>
        <g transform="matrix(4.16667,0,0,4.16667,9.21567,10.1803)">
            <path d="M0,-0.581L0,-0.467L0.227,-0.469L0.196,-0.29L0,-0.29L0,0.246L-0.231,0.246L-0.231,-0.29L-0.343,-0.29L-0.343,-0.465L-0.231,-0.466L-0.231,-0.612C-0.231,-0.612 -0.227,-0.827 -0.031,-0.827L0.227,-0.827L0.227,-0.635L0.055,-0.635C0.055,-0.635 0,-0.645 0,-0.581" style="fill:white;fill-rule:nonzero;"/>
        </g>
    </g>
</svg>
