<?xml version="1.0" encoding="UTF-8" standalone="no"?>
<!DOCTYPE svg PUBLIC "-//W3C//DTD SVG 1.1//EN" "http://www.w3.org/Graphics/SVG/1.1/DTD/svg11.dtd">
<svg width="100%" height="100%" viewBox="0 0 32 32" version="1.1" xmlns="http://www.w3.org/2000/svg" xmlns:xlink="http://www.w3.org/1999/xlink" xml:space="preserve" xmlns:serif="http://www.serif.com/" style="fill-rule:evenodd;clip-rule:evenodd;stroke-linejoin:round;stroke-miterlimit:1.41421;">
    <path d="M26.313,18.421C25.886,18.001 24.941,17.778 23.501,17.759C22.527,17.748 21.354,17.834 20.121,18.007C19.569,17.688 18.999,17.342 18.553,16.924C17.351,15.802 16.348,14.244 15.722,12.53C15.763,12.37 15.797,12.229 15.83,12.086C15.83,12.086 16.507,8.24 16.328,6.94C16.303,6.762 16.288,6.71 16.24,6.571L16.181,6.42C15.997,5.995 15.636,5.545 15.07,5.57L14.729,5.559C14.098,5.559 13.583,5.882 13.448,6.364C13.037,7.878 13.461,10.142 14.229,13.075L14.032,13.553C13.482,14.893 12.794,16.242 12.186,17.433L12.107,17.588C11.468,18.839 10.887,19.901 10.362,20.801L9.819,21.088C9.779,21.109 8.849,21.601 8.631,21.733C6.779,22.839 5.552,24.094 5.349,25.09C5.284,25.408 5.332,25.815 5.662,26.003L6.187,26.267C6.415,26.381 6.655,26.439 6.901,26.439C8.22,26.439 9.751,24.796 11.86,21.115C14.295,20.322 17.068,19.663 19.498,19.3C21.35,20.343 23.627,21.067 25.065,21.067C25.32,21.067 25.54,21.043 25.719,20.995C25.995,20.922 26.227,20.765 26.369,20.551C26.648,20.131 26.704,19.553 26.629,18.961C26.606,18.785 26.466,18.568 26.314,18.42L26.313,18.421ZM6.614,25.439C6.855,24.781 7.806,23.481 9.214,22.328C9.302,22.256 9.52,22.052 9.72,21.862C8.248,24.21 7.262,25.145 6.614,25.439ZM14.951,6.24C15.375,6.24 15.616,7.309 15.636,8.31C15.656,9.311 15.422,10.015 15.131,10.535C14.89,9.765 14.774,8.551 14.774,7.757C14.774,7.757 14.756,6.24 14.951,6.24ZM12.464,19.922C12.759,19.393 13.067,18.836 13.381,18.245C14.146,16.798 14.63,15.665 14.99,14.734C15.706,16.037 16.598,17.144 17.646,18.031C17.777,18.142 17.915,18.253 18.061,18.364C15.929,18.786 14.087,19.299 12.465,19.922L12.464,19.922ZM25.903,19.802C25.773,19.883 25.401,19.93 25.162,19.93C24.39,19.93 23.435,19.577 22.096,19.003C22.611,18.965 23.082,18.946 23.505,18.946C24.279,18.946 24.509,18.943 25.266,19.136C26.023,19.329 26.033,19.721 25.903,19.803L25.903,19.802Z" style="fill:rgb(0,51,102);fill-rule:nonzero;"/>
    <path d="M28.681,7.159C27.987,6.212 27.019,5.106 25.957,4.043C24.895,2.98 23.788,2.013 22.841,1.319C21.229,0.137 20.448,0 20,0L4.5,0C3.122,0 2,1.121 2,2.5L2,29.5C2,30.878 3.121,32 4.5,32L27.5,32C28.878,32 30,30.878 30,29.5L30,10C30,9.552 29.863,8.77 28.681,7.159ZM24.543,5.457C25.502,6.416 26.255,7.282 26.811,8L22,8L22,3.189C22.718,3.745 23.584,4.498 24.543,5.457ZM28,29.5C28,29.771 27.771,30 27.5,30L4.5,30C4.229,30 4,29.771 4,29.5L4,2.5C4,2.229 4.229,2 4.5,2C4.5,2 19.999,2 20,2L20,9C20,9.552 20.448,10 21,10L28,10L28,29.5Z" style="fill:rgb(0,51,102);fill-rule:nonzero;"/>
</svg>
