<?xml version="1.0" encoding="UTF-8" standalone="no"?>
<!DOCTYPE svg PUBLIC "-//W3C//DTD SVG 1.1//EN" "http://www.w3.org/Graphics/SVG/1.1/DTD/svg11.dtd">
<svg width="100%" height="100%" viewBox="0 0 10 10" version="1.1" xmlns="http://www.w3.org/2000/svg" xmlns:xlink="http://www.w3.org/1999/xlink" xml:space="preserve" xmlns:serif="http://www.serif.com/" style="fill-rule:evenodd;clip-rule:evenodd;stroke-miterlimit:10;">
    <g transform="matrix(1,0,0,1,-3.97234,-3.97142)">
        <g transform="matrix(4.16667,0,0,4.16667,13.4432,6.73901)">
            <path d="M0,1.071L0,-0.001C0,-0.297 -0.24,-0.537 -0.537,-0.537L-1.609,-0.537C-1.906,-0.537 -2.146,-0.297 -2.146,-0.001L-2.146,1.071C-2.146,1.367 -1.906,1.608 -1.609,1.608L-0.537,1.608C-0.24,1.608 0,1.367 0,1.071" style="fill:none;stroke:white;stroke-width:0.22px;"/>
        </g>
        <g transform="matrix(4.16667,0,0,4.16667,10.9611,8.96942)">
            <path d="M0,0C0,0.264 -0.214,0.478 -0.478,0.478C-0.741,0.478 -0.954,0.264 -0.954,0C-0.954,-0.264 -0.741,-0.478 -0.478,-0.478C-0.214,-0.478 0,-0.264 0,0" style="fill:white;fill-rule:nonzero;"/>
        </g>
        <g transform="matrix(4.16667,0,0,4.16667,12.0153,6.42651)">
            <path d="M0,-0.001C0,0.065 -0.053,0.119 -0.119,0.119C-0.186,0.119 -0.239,0.065 -0.239,-0.001C-0.239,-0.066 -0.186,-0.12 -0.119,-0.12C-0.053,-0.12 0,-0.066 0,-0.001" style="fill:white;fill-rule:nonzero;"/>
        </g>
    </g>
</svg>
