<?xml version="1.0" encoding="UTF-8" standalone="no"?>
<!DOCTYPE svg PUBLIC "-//W3C//DTD SVG 1.1//EN" "http://www.w3.org/Graphics/SVG/1.1/DTD/svg11.dtd">
<svg width="100%" height="100%" viewBox="0 0 10 10" version="1.1" xmlns="http://www.w3.org/2000/svg" xmlns:xlink="http://www.w3.org/1999/xlink" xml:space="preserve" xmlns:serif="http://www.serif.com/" style="fill-rule:evenodd;clip-rule:evenodd;stroke-miterlimit:10;">
    <g>
        <g transform="matrix(4.16667,0,0,4.16667,6.98542,0.530089)">
            <path d="M0,2.145L-0.953,2.145C-1.281,2.145 -1.549,1.877 -1.549,1.549L-1.549,0.596C-1.549,0.268 -1.281,0 -0.953,0L0,0C0.328,0 0.596,0.268 0.596,0.596L0.596,1.549C0.596,1.877 0.328,2.145 0,2.145Z" style="fill:none;stroke:rgb(0,51,102);stroke-width:0.22px;"/>
        </g>
        <g transform="matrix(4.16667,0,0,4.16667,4.04333,4.76926)">
            <path d="M0,0.11L0.083,0.384L0.102,0.211C0.102,0.211 0.424,-0.079 0.607,-0.245C0.612,-0.25 0.613,-0.258 0.608,-0.264C0.604,-0.269 0.597,-0.271 0.59,-0.267C0.378,-0.131 0,0.11 0,0.11M0.546,0.54C0.562,0.551 0.583,0.554 0.602,0.547C0.619,0.541 0.633,0.525 0.637,0.506C0.681,0.303 0.785,-0.21 0.824,-0.394C0.827,-0.408 0.822,-0.422 0.812,-0.432C0.8,-0.441 0.785,-0.444 0.771,-0.438C0.563,-0.362 -0.077,-0.121 -0.339,-0.024C-0.355,-0.018 -0.366,-0.002 -0.366,0.015C-0.365,0.033 -0.354,0.048 -0.336,0.053C-0.219,0.089 -0.064,0.137 -0.064,0.137C-0.064,0.137 0.007,0.355 0.045,0.465C0.05,0.48 0.061,0.49 0.075,0.494C0.089,0.498 0.104,0.494 0.115,0.484C0.176,0.427 0.269,0.339 0.269,0.339C0.269,0.339 0.445,0.469 0.546,0.54" style="fill:rgb(0,51,102);"/>
        </g>
    </g>
</svg>
