<?xml version="1.0" encoding="UTF-8" standalone="no"?>
<!DOCTYPE svg PUBLIC "-//W3C//DTD SVG 1.1//EN" "http://www.w3.org/Graphics/SVG/1.1/DTD/svg11.dtd">
<svg width="100%" height="100%" viewBox="0 0 10 10" version="1.1" xmlns="http://www.w3.org/2000/svg" xmlns:xlink="http://www.w3.org/1999/xlink" xml:space="preserve" xmlns:serif="http://www.serif.com/" style="fill-rule:evenodd;clip-rule:evenodd;stroke-miterlimit:10;">
    <g transform="matrix(1,0,0,1,-3.97234,-3.97142)">
        <g transform="matrix(4.16667,0,0,4.16667,4.64734,4.62651)">
            <path d="M0,2.085L0.146,1.549C0.057,1.393 0.009,1.215 0.009,1.033C0.009,0.463 0.473,0 1.042,0C1.318,0 1.578,0.107 1.773,0.302C1.969,0.498 2.076,0.757 2.076,1.034C2.075,1.604 1.612,2.067 1.042,2.067C0.869,2.067 0.699,2.023 0.548,1.941L0,2.085Z" style="fill:none;stroke:rgb(0,51,102);stroke-width:0.22px;"/>
        </g>
        <g transform="matrix(4.16667,0,0,4.16667,8.67984,8.57192)">
            <path d="M0,0.166C-0.091,0.075 -0.178,-0.03 -0.137,-0.072C-0.077,-0.131 -0.025,-0.168 -0.13,-0.299C-0.236,-0.43 -0.306,-0.33 -0.364,-0.272C-0.431,-0.206 -0.367,0.042 -0.122,0.288C0.123,0.533 0.371,0.596 0.437,0.529C0.495,0.472 0.596,0.401 0.465,0.296C0.334,0.19 0.297,0.242 0.237,0.302C0.195,0.343 0.091,0.257 0,0.166" style="fill:rgb(0,51,102);fill-rule:nonzero;"/>
        </g>
    </g>
</svg>
