<?xml version="1.0" encoding="UTF-8" standalone="no"?>
<!DOCTYPE svg PUBLIC "-//W3C//DTD SVG 1.1//EN" "http://www.w3.org/Graphics/SVG/1.1/DTD/svg11.dtd">
<svg width="100%" height="100%" viewBox="0 0 10 10" version="1.1" xmlns="http://www.w3.org/2000/svg" xmlns:xlink="http://www.w3.org/1999/xlink" xml:space="preserve" xmlns:serif="http://www.serif.com/" style="fill-rule:evenodd;clip-rule:evenodd;stroke-miterlimit:10;">
    <g transform="matrix(1,0,0,1,-3.97234,-3.97142)">
        <g transform="matrix(4.16667,0,0,4.16667,13.4432,6.73484)">
            <path d="M0,1.073L0,0C0,-0.296 -0.24,-0.536 -0.536,-0.536L-1.609,-0.536C-1.905,-0.536 -2.146,-0.296 -2.146,0L-2.146,1.073C-2.146,1.369 -1.905,1.609 -1.609,1.609L-0.536,1.609C-0.24,1.609 0,1.369 0,1.073" style="fill:none;stroke:white;stroke-width:0.22px;"/>
        </g>
        <g transform="matrix(0.15625,0,0,0.15625,6.4714,6.47189)">
            <path d="M31.681,9.6C31.681,9.6 31.368,7.394 30.406,6.425C29.187,5.15 27.825,5.144 27.2,5.069C22.725,4.744 16.006,4.744 16.006,4.744L15.994,4.744C15.994,4.744 9.275,4.744 4.8,5.069C4.175,5.144 2.813,5.15 1.594,6.425C0.631,7.394 0.325,9.6 0.325,9.6C0.325,9.6 0.006,12.188 0.006,14.781L0.006,17.206C0.006,19.793 0.325,22.387 0.325,22.387C0.325,22.387 0.638,24.593 1.594,25.562C2.813,26.837 4.413,26.793 5.125,26.931C7.688,27.175 16.006,27.25 16.006,27.25C16.006,27.25 22.731,27.238 27.206,26.919C27.831,26.844 29.194,26.838 30.412,25.563C31.374,24.594 31.687,22.388 31.687,22.388C31.687,22.388 32.006,19.801 32.006,17.207L32.006,14.782C32,12.194 31.681,9.601 31.681,9.601L31.681,9.6ZM12.694,20.15L12.694,11.156L21.338,15.669L12.694,20.15Z" style="fill:white;fill-rule:nonzero;"/>
        </g>
    </g>
</svg>
