<?xml version="1.0" encoding="utf-8"?>
<!-- Generator: Adobe Illustrator 24.0.1, SVG Export Plug-In . SVG Version: 6.00 Build 0)  -->
<svg version="1.1" id="Capa_1" xmlns="http://www.w3.org/2000/svg" xmlns:xlink="http://www.w3.org/1999/xlink" x="0px" y="0px"
	 viewBox="0 0 702.5 644.5" style="enable-background:new 0 0 702.5 644.5;" xml:space="preserve">
<style type="text/css">
	.st0{fill:#FFFFFF;}
	.st1{fill:none;stroke:#EFEEEE;stroke-dasharray:0;}
	.st2{fill:#1C3761;}
	.st3{font-family:'SourceSansPro-Regular';}
	.st4{font-size:9.62px;}
	.st5{fill:none;stroke:#1C3761;stroke-dasharray:0;}
	.st6{fill:none;stroke:#1C3761;stroke-dasharray:1,1;}
	.st7{font-family:'ArialMT';}
	.st8{font-size:8.24px;}
	.st9{fill:none;stroke:#1C3761;stroke-width:4;}
	.st10{fill:none;stroke:#79C9D1;stroke-width:4;}
	.st11{font-size:19.23px;}
	.st12{enable-background:new    ;}
	.st13{fill:#79C8D1;}
	.st14{fill:#1D1D1B;}
	.st15{fill:#878787;}
	.st16{fill:#79C9D1;}
	.st17{font-size:11.68px;}
	.st18{fill:#003366;}
	.st19{fill:none;stroke:#003366;stroke-width:4.56;}
</style>
<rect x="-7.4" y="0.6" class="st0" width="702.5" height="644.5"/>
<g id="facets">
	<line class="st1" x1="78.6" y1="529.7" x2="642.6" y2="529.7"/>
	<text transform="matrix(1 0 0 1 56.31 532.83)" class="st2 st3 st4">0%</text>
	<line class="st1" x1="78.6" y1="436.6" x2="642.6" y2="436.6"/>
	<text transform="matrix(1 0 0 1 51.54 439.78)" class="st2 st3 st4">20%</text>
	<line class="st1" x1="78.6" y1="343.5" x2="642.6" y2="343.5"/>
	<text transform="matrix(1 0 0 1 51.54 346.73)" class="st2 st3 st4">40%</text>
	<line class="st1" x1="78.6" y1="250.5" x2="642.6" y2="250.5"/>
	<text transform="matrix(1 0 0 1 51.54 253.67)" class="st2 st3 st4">60%</text>
	<line class="st1" x1="78.6" y1="157.4" x2="642.6" y2="157.4"/>
	<text transform="matrix(1 0 0 1 51.54 160.62)" class="st2 st3 st4">80%</text>
	<path class="st5" d="M79,529.7h563.9"/>
	<line class="st5" x1="79" y1="529.3" x2="79" y2="533.4"/>
	<line class="st5" x1="130.2" y1="529.3" x2="130.2" y2="533.4"/>
	<line class="st5" x1="181.5" y1="529.3" x2="181.5" y2="533.4"/>
	<line class="st5" x1="232.8" y1="529.3" x2="232.8" y2="533.4"/>
	<line class="st5" x1="284" y1="529.3" x2="284" y2="533.4"/>
	<line class="st5" x1="335.3" y1="529.3" x2="335.3" y2="533.4"/>
	<line class="st5" x1="386.6" y1="529.3" x2="386.6" y2="533.4"/>
	<line class="st5" x1="437.9" y1="529.3" x2="437.9" y2="533.4"/>
	<line class="st5" x1="489.1" y1="529.3" x2="489.1" y2="533.4"/>
	<line class="st5" x1="540.4" y1="529.3" x2="540.4" y2="533.4"/>
	<line class="st5" x1="591.7" y1="529.3" x2="591.7" y2="533.4"/>
	<line class="st5" x1="642.9" y1="529.3" x2="642.9" y2="533.4"/>
</g>
<line class="st6" x1="78.6" y1="315.3" x2="642.6" y2="315.3"/>
<text transform="matrix(1 0 0 1 563.32 311.17)" class="st2 st7 st8">Mitjana 2019: 46,5%</text>
<g id="lines">
	<path class="st9" d="M335,333c17.1-10.2,34.2-12.8,51.3-15.4"/>
	<path class="st9" d="M78.6,405.1c17.1-24.2,34.2-48.4,51.3-48.4"/>
	<path class="st10" d="M78.6,400c17.1-0.4,34.2-0.8,51.3-2.3s34.2-33.6,51.3-45.6s34.2-21.7,51.3-26.1s34.2-2.2,51.3-6.5
		s34.2-21.3,51.3-30.7s34.2-17,51.3-25.6c40-20.1,41-27.7,51.3-26.1c21.4,3.3,19.3,31.9,54.7,62.2c3.6,3.1,6.7,5.4,9.6,7.3
		c4.3,2.9,10.8,7,22.2,12.3c9.9,4.6,17.4,7.3,19.5,8c21,7.8,33.8,26.4,53.5,46.2c10,10.1,25,23.6,45.7,37.6"/>
</g>
<text transform="matrix(1 0 0 1 306.23 44.52)" class="st2 st7 st11">Càmpings</text>
<g>
	<g class="st12">
		<path class="st2" d="M241.7,65c0,3.2-1.9,4.9-4.3,4.9c-2.4,0-4.2-1.9-4.2-4.7c0-2.9,1.8-4.9,4.3-4.9C240,60.3,241.7,62.3,241.7,65
			z M234.5,65.2c0,2,1.1,3.7,3,3.7s3-1.7,3-3.8c0-1.8-1-3.8-3-3.8C235.5,61.3,234.5,63.1,234.5,65.2z"/>
		<path class="st2" d="M247.9,69.5c-0.3,0.2-1,0.4-1.9,0.4c-2,0-3.3-1.4-3.3-3.4s1.4-3.5,3.6-3.5c0.7,0,1.3,0.2,1.7,0.3l-0.3,0.9
			c-0.3-0.2-0.7-0.3-1.4-0.3c-1.5,0-2.3,1.1-2.3,2.5c0,1.5,1,2.5,2.3,2.5c0.7,0,1.1-0.2,1.5-0.3L247.9,69.5z"/>
		<path class="st2" d="M254.9,67.9c0,0.7,0,1.3,0.1,1.8h-1.1l-0.1-1.1l0,0c-0.3,0.5-1,1.2-2.2,1.2c-1,0-2.3-0.6-2.3-2.9V63h1.2v3.7
			c0,1.3,0.4,2.1,1.5,2.1c0.8,0,1.4-0.6,1.6-1.1c0.1-0.2,0.1-0.4,0.1-0.6V63h1.2V67.9z"/>
		<path class="st2" d="M256.9,65.3c0-0.9,0-1.5-0.1-2.2h1.1l0.1,1.1l0,0c0.5-0.8,1.3-1.3,2.4-1.3c1.6,0,2.8,1.4,2.8,3.4
			c0,2.4-1.5,3.6-3,3.6c-0.9,0-1.6-0.4-2-1l0,0v3.6H257L256.9,65.3L256.9,65.3z M258.1,67c0,0.2,0,0.3,0.1,0.5
			c0.2,0.8,0.9,1.4,1.8,1.4c1.3,0,2-1,2-2.6c0-1.3-0.7-2.5-2-2.5c-0.8,0-1.6,0.6-1.8,1.5c0,0.2-0.1,0.3-0.1,0.5V67z"/>
		<path class="st2" d="M268.4,69.8l-0.1-0.8l0,0c-0.4,0.5-1.1,1-2,1c-1.3,0-2-0.9-2-1.9c0-1.6,1.4-2.5,4-2.5v-0.1
			c0-0.5-0.2-1.5-1.5-1.5c-0.6,0-1.3,0.2-1.7,0.5l-0.3-0.8c0.5-0.4,1.3-0.6,2.2-0.6c2,0,2.5,1.4,2.5,2.7v2.5c0,0.6,0,1.1,0.1,1.6
			L268.4,69.8L268.4,69.8z M268.2,66.4c-1.3,0-2.8,0.2-2.8,1.5c0,0.8,0.5,1.2,1.1,1.2c0.9,0,1.4-0.5,1.6-1.1c0-0.1,0.1-0.3,0.1-0.4
			L268.2,66.4L268.2,66.4z"/>
		<path class="st2" d="M276.1,69.5c-0.3,0.2-1,0.4-1.9,0.4c-2,0-3.3-1.4-3.3-3.4s1.4-3.5,3.6-3.5c0.7,0,1.3,0.2,1.7,0.3l-0.3,0.9
			c-0.3-0.2-0.7-0.3-1.4-0.3c-1.5,0-2.3,1.1-2.3,2.5c0,1.5,1,2.5,2.3,2.5c0.7,0,1.1-0.2,1.5-0.3L276.1,69.5z"/>
		<path class="st2" d="M278.9,61.2c0,0.4-0.3,0.7-0.8,0.7c-0.4,0-0.7-0.3-0.7-0.7s0.3-0.8,0.8-0.8C278.6,60.5,278.9,60.8,278.9,61.2
			z M277.5,69.8v-6.6h1.2v6.6H277.5z"/>
		<path class="st2" d="M286.7,66.4c0,2.5-1.7,3.5-3.3,3.5c-1.8,0-3.2-1.3-3.2-3.4c0-2.2,1.5-3.5,3.3-3.5
			C285.5,63,286.7,64.3,286.7,66.4z M281.5,66.4c0,1.5,0.8,2.6,2,2.6s2-1.1,2-2.6c0-1.1-0.6-2.6-2-2.6
			C282.1,63.9,281.5,65.2,281.5,66.4z M285.3,60.2l-1.7,2h-0.9l1.2-2H285.3z"/>
		<path class="st2" d="M295.8,66.6c0,1.6,1.1,2.3,2.3,2.3c0.9,0,1.4-0.2,1.8-0.3l0.2,0.9c-0.4,0.2-1.2,0.4-2.2,0.4
			c-2,0-3.3-1.3-3.3-3.4s1.2-3.6,3.1-3.6c2.2,0,2.7,1.9,2.7,3.1c0,0.2,0,0.4,0,0.6H295.8z M299.4,65.8c0-0.8-0.3-2-1.7-2
			c-1.2,0-1.8,1.1-1.9,2H299.4z"/>
		<path class="st2" d="M302,64.9c0-0.7,0-1.3-0.1-1.8h1.1l0.1,1.1l0,0c0.3-0.6,1.1-1.3,2.2-1.3c0.9,0,2.3,0.5,2.3,2.8v4h-1.2v-3.8
			c0-1.1-0.4-2-1.5-2c-0.8,0-1.4,0.6-1.6,1.2c-0.1,0.2-0.1,0.4-0.1,0.6v4H302V64.9z"/>
		<path class="st2" d="M316.5,65.3c0-0.9,0-1.5-0.1-2.2h1.1l0.1,1.1l0,0c0.5-0.8,1.3-1.3,2.4-1.3c1.6,0,2.8,1.4,2.8,3.4
			c0,2.4-1.5,3.6-3,3.6c-0.9,0-1.6-0.4-2-1l0,0v3.6h-1.2L316.5,65.3L316.5,65.3z M317.7,67c0,0.2,0,0.3,0.1,0.5
			c0.2,0.8,0.9,1.4,1.8,1.4c1.3,0,2-1,2-2.6c0-1.3-0.7-2.5-2-2.5c-0.8,0-1.6,0.6-1.8,1.5c0,0.2-0.1,0.3-0.1,0.5V67z"/>
		<path class="st2" d="M325,66.6c0,1.6,1.1,2.3,2.3,2.3c0.9,0,1.4-0.2,1.8-0.3l0.2,0.9c-0.4,0.2-1.2,0.4-2.2,0.4
			c-2,0-3.3-1.3-3.3-3.4S325,63,327,63c2.2,0,2.7,1.9,2.7,3.1c0,0.2,0,0.4,0,0.6L325,66.6L325,66.6z M328.6,65.8c0-0.8-0.3-2-1.7-2
			c-1.2,0-1.8,1.1-1.9,2H328.6z"/>
		<path class="st2" d="M331.2,65.2c0-0.8,0-1.5-0.1-2.1h1.1v1.3h0.1c0.3-0.9,1-1.5,1.8-1.5c0.1,0,0.2,0,0.3,0V64c-0.1,0-0.2,0-0.4,0
			c-0.9,0-1.5,0.6-1.6,1.6c0,0.2-0.1,0.4-0.1,0.6v3.5h-1.2v-4.5H331.2z"/>
		<path class="st2" d="M340.5,69.5c-0.3,0.2-1,0.4-1.9,0.4c-2,0-3.3-1.4-3.3-3.4s1.4-3.5,3.6-3.5c0.7,0,1.3,0.2,1.7,0.3l-0.3,0.9
			c-0.3-0.2-0.7-0.3-1.4-0.3c-1.5,0-2.3,1.1-2.3,2.5c0,1.5,1,2.5,2.3,2.5c0.7,0,1.1-0.2,1.5-0.3L340.5,69.5z"/>
		<path class="st2" d="M342.5,66.6c0,1.6,1.1,2.3,2.3,2.3c0.9,0,1.4-0.2,1.8-0.3l0.2,0.9c-0.4,0.2-1.2,0.4-2.2,0.4
			c-2,0-3.3-1.3-3.3-3.4s1.2-3.6,3.1-3.6c2.2,0,2.7,1.9,2.7,3.1c0,0.2,0,0.4,0,0.6H342.5z M346.1,65.8c0-0.8-0.3-2-1.7-2
			c-1.2,0-1.8,1.1-1.9,2H346.1z"/>
		<path class="st2" d="M348.8,64.9c0-0.7,0-1.3-0.1-1.8h1.1l0.1,1.1l0,0c0.3-0.6,1.1-1.3,2.2-1.3c0.9,0,2.3,0.5,2.3,2.8v4h-1.2v-3.8
			c0-1.1-0.4-2-1.5-2c-0.8,0-1.4,0.6-1.6,1.2c-0.1,0.2-0.1,0.4-0.1,0.6v4h-1.2L348.8,64.9L348.8,64.9z"/>
		<path class="st2" d="M357.8,61.2v1.9h1.7V64h-1.7v3.6c0,0.8,0.2,1.3,0.9,1.3c0.3,0,0.5,0,0.7-0.1l0.1,0.9
			c-0.2,0.1-0.6,0.2-1.1,0.2c-0.6,0-1-0.2-1.3-0.5c-0.3-0.4-0.5-0.9-0.5-1.7V64h-1v-0.9h1v-1.6L357.8,61.2z"/>
		<path class="st2" d="M364.6,69.8l-0.1-0.8l0,0c-0.4,0.5-1.1,1-2,1c-1.3,0-2-0.9-2-1.9c0-1.6,1.4-2.5,4-2.5v-0.1
			c0-0.5-0.2-1.5-1.5-1.5c-0.6,0-1.3,0.2-1.7,0.5l-0.3-0.8c0.5-0.4,1.3-0.6,2.2-0.6c2,0,2.5,1.4,2.5,2.7v2.5c0,0.6,0,1.1,0.1,1.6
			L364.6,69.8L364.6,69.8z M364.4,66.4c-1.3,0-2.8,0.2-2.8,1.5c0,0.8,0.5,1.2,1.1,1.2c0.9,0,1.4-0.5,1.6-1.1c0-0.1,0.1-0.3,0.1-0.4
			L364.4,66.4L364.4,66.4z"/>
		<path class="st2" d="M369,61.2v1.9h1.7V64H369v3.6c0,0.8,0.2,1.3,0.9,1.3c0.3,0,0.5,0,0.7-0.1l0.1,0.9c-0.2,0.1-0.6,0.2-1.1,0.2
			c-0.6,0-1-0.2-1.3-0.5c-0.3-0.4-0.5-0.9-0.5-1.7V64h-1v-0.9h1v-1.6L369,61.2z"/>
		<path class="st2" d="M377.8,63.1c0,0.5-0.1,1-0.1,1.8v3.9c0,1.5-0.3,2.5-0.9,3c-0.6,0.6-1.6,0.8-2.4,0.8s-1.7-0.2-2.2-0.5l0.3-0.9
			c0.4,0.3,1.1,0.5,2,0.5c1.2,0,2.1-0.6,2.1-2.3v-0.7l0,0c-0.4,0.6-1.1,1.1-2.1,1.1c-1.6,0-2.8-1.4-2.8-3.2c0-2.3,1.5-3.5,3-3.5
			c1.2,0,1.8,0.6,2.1,1.2l0,0l0.1-1h0.9V63.1z M376.6,65.7c0-0.2,0-0.4-0.1-0.5c-0.2-0.7-0.8-1.3-1.7-1.3c-1.2,0-2,1-2,2.5
			c0,1.3,0.7,2.4,2,2.4c0.7,0,1.4-0.5,1.7-1.2c0.1-0.2,0.1-0.4,0.1-0.6V65.7z"/>
		<path class="st2" d="M380.4,66.6c0,1.6,1.1,2.3,2.3,2.3c0.9,0,1.4-0.2,1.8-0.3l0.2,0.9c-0.4,0.2-1.2,0.4-2.2,0.4
			c-2,0-3.3-1.3-3.3-3.4s1.2-3.6,3.1-3.6c2.2,0,2.7,1.9,2.7,3.1c0,0.2,0,0.4,0,0.6H380.4z M384,65.8c0-0.8-0.3-2-1.7-2
			c-1.2,0-1.8,1.1-1.9,2H384z"/>
		<path class="st2" d="M393.5,65.3c0-0.9,0-1.5-0.1-2.2h1.1l0.1,1.1l0,0c0.5-0.8,1.3-1.3,2.4-1.3c1.6,0,2.8,1.4,2.8,3.4
			c0,2.4-1.5,3.6-3,3.6c-0.9,0-1.6-0.4-2-1l0,0v3.6h-1.2L393.5,65.3L393.5,65.3z M394.7,67c0,0.2,0,0.3,0.1,0.5
			c0.2,0.8,0.9,1.4,1.8,1.4c1.3,0,2-1,2-2.6c0-1.3-0.7-2.5-2-2.5c-0.8,0-1.6,0.6-1.8,1.5c0,0.2-0.1,0.3-0.1,0.5V67z"/>
		<path class="st2" d="M402,66.6c0,1.6,1.1,2.3,2.3,2.3c0.9,0,1.4-0.2,1.8-0.3l0.2,0.9c-0.4,0.2-1.2,0.4-2.2,0.4
			c-2,0-3.3-1.3-3.3-3.4S402,63,404,63c2.2,0,2.7,1.9,2.7,3.1c0,0.2,0,0.4,0,0.6L402,66.6L402,66.6z M405.6,65.8c0-0.8-0.3-2-1.7-2
			c-1.2,0-1.8,1.1-1.9,2H405.6z"/>
		<path class="st2" d="M408.2,65.2c0-0.8,0-1.5-0.1-2.1h1.1v1.3h0.1c0.3-0.9,1-1.5,1.8-1.5c0.1,0,0.2,0,0.3,0V64c-0.1,0-0.2,0-0.4,0
			c-0.9,0-1.5,0.6-1.6,1.6c0,0.2-0.1,0.4-0.1,0.6v3.5h-1.2v-4.5H408.2z"/>
		<path class="st2" d="M419.6,65.3c0-0.9,0-1.5-0.1-2.2h1.1l0.1,1.1l0,0c0.5-0.8,1.3-1.3,2.4-1.3c1.6,0,2.8,1.4,2.8,3.4
			c0,2.4-1.5,3.6-3,3.6c-0.9,0-1.6-0.4-2-1l0,0v3.6h-1.2L419.6,65.3L419.6,65.3z M420.8,67c0,0.2,0,0.3,0.1,0.5
			c0.2,0.8,0.9,1.4,1.8,1.4c1.3,0,2-1,2-2.6c0-1.3-0.7-2.5-2-2.5c-0.8,0-1.6,0.6-1.8,1.5c0,0.2-0.1,0.3-0.1,0.5V67z"/>
		<path class="st2" d="M427.4,60h1.2v9.8h-1.2V60z"/>
		<path class="st2" d="M434.3,69.8l-0.1-0.8l0,0c-0.4,0.5-1.1,1-2,1c-1.3,0-2-0.9-2-1.9c0-1.6,1.4-2.5,4-2.5v-0.1
			c0-0.5-0.2-1.5-1.5-1.5c-0.6,0-1.3,0.2-1.7,0.5l-0.3-0.8c0.5-0.4,1.3-0.6,2.2-0.6c2,0,2.5,1.4,2.5,2.7v2.5c0,0.6,0,1.1,0.1,1.6
			L434.3,69.8L434.3,69.8z M434.2,66.4c-1.3,0-2.8,0.2-2.8,1.5c0,0.8,0.5,1.2,1.1,1.2c0.9,0,1.4-0.5,1.6-1.1c0-0.1,0.1-0.3,0.1-0.4
			L434.2,66.4L434.2,66.4z"/>
		<path class="st2" d="M442,69.5c-0.3,0.2-1,0.4-1.9,0.4c-2,0-3.3-1.4-3.3-3.4s1.4-3.5,3.6-3.5c0.7,0,1.3,0.2,1.7,0.3l-0.3,0.9
			c-0.3-0.2-0.7-0.3-1.4-0.3c-1.5,0-2.3,1.1-2.3,2.5c0,1.5,1,2.5,2.3,2.5c0.7,0,1.1-0.2,1.5-0.3L442,69.5z"/>
		<path class="st2" d="M444.1,66.6c0,1.6,1.1,2.3,2.3,2.3c0.9,0,1.4-0.2,1.8-0.3l0.2,0.9c-0.4,0.2-1.2,0.4-2.2,0.4
			c-2,0-3.3-1.3-3.3-3.4s1.2-3.6,3.1-3.6c2.2,0,2.7,1.9,2.7,3.1c0,0.2,0,0.4,0,0.6H444.1z M447.6,65.8c0-0.8-0.3-2-1.7-2
			c-1.2,0-1.8,1.1-1.9,2H447.6z"/>
		<path class="st2" d="M450.2,68.5c0.4,0.2,1,0.5,1.6,0.5c0.9,0,1.3-0.4,1.3-1s-0.3-0.9-1.2-1.2c-1.2-0.4-1.8-1.1-1.8-1.9
			c0-1.1,0.9-2,2.3-2c0.7,0,1.3,0.2,1.6,0.4l-0.3,0.9c-0.3-0.2-0.7-0.4-1.4-0.4c-0.7,0-1.1,0.4-1.1,0.9s0.4,0.8,1.3,1.1
			c1.2,0.4,1.7,1,1.7,2c0,1.2-0.9,2-2.5,2c-0.7,0-1.4-0.2-1.9-0.5L450.2,68.5z"/>
		<path class="st2" d="M455.9,68.7c0.1-0.1,0.3-0.2,0.5-0.2s0.4,0.1,0.5,0.2s0.2,0.3,0.2,0.5s-0.1,0.4-0.2,0.5s-0.3,0.2-0.5,0.2
			s-0.4-0.1-0.5-0.2c-0.1-0.2-0.2-0.3-0.2-0.5C455.7,69,455.8,68.8,455.9,68.7z"/>
	</g>
</g>
<path class="st2" d="M306.6,86.7h11.2c1.1,0,2,0.9,2,2v4c0,1.1-0.9,2-2,2h-11.2c-1.1,0-2-0.9-2-2v-4
	C304.6,87.6,305.5,86.7,306.6,86.7z"/>
<path class="st13" d="M362.3,86.7h11.2c1.1,0,2,0.9,2,2v4c0,1.1-0.9,2-2,2h-11.2c-1.1,0-2-0.9-2-2v-4
	C360.3,87.6,361.2,86.7,362.3,86.7z"/>
<g>
	<g class="st12">
		<path class="st14" d="M382.8,93.7h-4.1V93l0.9-0.8c0.6-0.5,1-1,1.3-1.3s0.5-0.7,0.6-1s0.2-0.7,0.2-1.2c0-0.4-0.1-0.8-0.3-1
			c-0.2-0.2-0.5-0.3-1-0.3c-0.2,0-0.4,0-0.5,0.1c-0.2,0-0.4,0.1-0.5,0.2l-0.2,0.8h-0.3v-1.3c0.6-0.1,1.1-0.2,1.6-0.2
			c0.7,0,1.3,0.2,1.7,0.5s0.6,0.7,0.6,1.3c0,0.4-0.1,0.7-0.2,1.1c-0.1,0.3-0.4,0.7-0.7,1s-0.8,0.8-1.5,1.4c-0.3,0.3-0.6,0.5-1,0.8
			h3.5v0.6H382.8z"/>
		<path class="st14" d="M388.1,90.3c0,2.3-0.7,3.5-2.2,3.5c-0.7,0-1.2-0.3-1.6-0.9s-0.5-1.5-0.5-2.6s0.2-2,0.5-2.6
			c0.4-0.6,0.9-0.9,1.6-0.9s1.3,0.3,1.6,0.9C387.9,88.3,388.1,89.1,388.1,90.3z M387.2,90.3c0-1.1-0.1-1.9-0.3-2.3
			c-0.2-0.5-0.5-0.7-1-0.7c-0.4,0-0.8,0.2-0.9,0.7c-0.2,0.4-0.3,1.2-0.3,2.4c0,1.1,0.1,1.9,0.3,2.4c0.2,0.5,0.5,0.7,0.9,0.7
			s0.8-0.2,1-0.7C387.1,92.1,387.2,91.4,387.2,90.3z"/>
		<path class="st14" d="M391.7,93.3l1.4,0.1v0.3h-3.6v-0.3l1.4-0.1v-5.5l-1.4,0.5V88l2-1.1h0.3L391.7,93.3L391.7,93.3z"/>
		<path class="st14" d="M394,89c0-0.7,0.2-1.2,0.6-1.6s0.9-0.6,1.6-0.6c0.8,0,1.3,0.3,1.7,0.8c0.4,0.6,0.5,1.4,0.5,2.6
			c0,1.1-0.2,2-0.7,2.6s-1.1,0.9-1.9,0.9c-0.5,0-1-0.1-1.5-0.2v-1.2h0.3l0.2,0.7c0.1,0,0.3,0.1,0.4,0.1s0.4,0.1,0.5,0.1
			c0.5,0,0.9-0.2,1.2-0.7s0.4-1.2,0.5-2.1c-0.5,0.3-1,0.4-1.6,0.4s-1.1-0.2-1.4-0.5C394.2,90.1,394,89.6,394,89z M396.2,87.2
			c-0.8,0-1.3,0.6-1.3,1.8c0,0.5,0.1,0.9,0.3,1.1c0.2,0.2,0.5,0.4,0.9,0.4s0.9-0.1,1.3-0.3c0-1-0.1-1.8-0.3-2.3
			C397,87.5,396.6,87.2,396.2,87.2z"/>
	</g>
</g>
<g>
	<g class="st12">
		<path class="st14" d="M329.3,93.7h-4.1V93l0.9-0.8c0.6-0.5,1-1,1.3-1.3s0.5-0.7,0.6-1s0.2-0.7,0.2-1.2c0-0.4-0.1-0.8-0.3-1
			c-0.2-0.2-0.5-0.3-1-0.3c-0.2,0-0.4,0-0.5,0.1c-0.2,0-0.4,0.1-0.5,0.2l-0.2,0.8h-0.3v-1.3c0.6-0.1,1.1-0.2,1.6-0.2
			c0.7,0,1.3,0.2,1.7,0.5c0.4,0.3,0.6,0.7,0.6,1.3c0,0.4-0.1,0.7-0.2,1.1c-0.1,0.3-0.4,0.7-0.7,1s-0.8,0.8-1.5,1.4
			c-0.3,0.3-0.6,0.5-1,0.8h3.5v0.6H329.3z"/>
		<path class="st14" d="M334.6,90.3c0,2.3-0.7,3.5-2.2,3.5c-0.7,0-1.2-0.3-1.6-0.9s-0.5-1.5-0.5-2.6s0.2-2,0.5-2.6
			c0.4-0.6,0.9-0.9,1.6-0.9s1.3,0.3,1.6,0.9C334.4,88.3,334.6,89.1,334.6,90.3z M333.7,90.3c0-1.1-0.1-1.9-0.3-2.3
			c-0.2-0.5-0.5-0.7-1-0.7c-0.4,0-0.7,0.2-0.9,0.7c-0.2,0.4-0.3,1.2-0.3,2.4c0,1.1,0.1,1.9,0.3,2.4c0.2,0.5,0.5,0.7,0.9,0.7
			s0.8-0.2,1-0.7C333.6,92.1,333.7,91.4,333.7,90.3z"/>
		<path class="st14" d="M339.6,93.7h-4.1V93l0.9-0.8c0.6-0.5,1-1,1.3-1.3s0.5-0.7,0.6-1s0.2-0.7,0.2-1.2c0-0.4-0.1-0.8-0.3-1
			c-0.2-0.2-0.5-0.3-1-0.3c-0.2,0-0.4,0-0.5,0.1c-0.2,0-0.4,0.1-0.5,0.2l-0.2,0.8h-0.3v-1.3c0.6-0.1,1.1-0.2,1.6-0.2
			c0.7,0,1.3,0.2,1.7,0.5c0.4,0.3,0.6,0.7,0.6,1.3c0,0.4-0.1,0.7-0.2,1.1c-0.1,0.3-0.4,0.7-0.7,1s-0.8,0.8-1.5,1.4
			c-0.3,0.3-0.6,0.5-1,0.8h3.5v0.6H339.6z"/>
		<path class="st14" d="M344.9,90.3c0,2.3-0.7,3.5-2.2,3.5c-0.7,0-1.2-0.3-1.6-0.9s-0.5-1.5-0.5-2.6s0.2-2,0.5-2.6
			c0.4-0.6,0.9-0.9,1.6-0.9s1.3,0.3,1.6,0.9C344.7,88.3,344.9,89.1,344.9,90.3z M344,90.3c0-1.1-0.1-1.9-0.3-2.3
			c-0.2-0.5-0.5-0.7-1-0.7c-0.4,0-0.7,0.2-0.9,0.7c-0.2,0.4-0.3,1.2-0.3,2.4c0,1.1,0.1,1.9,0.3,2.4c0.2,0.5,0.5,0.7,0.9,0.7
			s0.8-0.2,1-0.7C343.9,92.1,344,91.4,344,90.3z"/>
	</g>
</g>
<g>
	<g>
		<g class="st12">
			<path class="st15" d="M51.4,618.3h3.7v0.8h-2.8v2.3h2.6v0.7h-2.6v3.1h-0.9V618.3z"/>
			<path class="st15" d="M60.9,622.7c0,1.8-1.3,2.6-2.5,2.6c-1.3,0-2.4-1-2.4-2.6c0-1.7,1.1-2.6,2.5-2.6
				C60,620.2,60.9,621.2,60.9,622.7z M57,622.8c0,1.1,0.6,1.9,1.5,1.9s1.5-0.8,1.5-1.9c0-0.8-0.4-1.9-1.5-1.9S57,621.8,57,622.8z"/>
			<path class="st15" d="M62.1,621.6c0-0.5,0-0.9,0-1.3h0.8l0.1,0.8l0,0c0.2-0.5,0.8-0.9,1.6-0.9c0.7,0,1.8,0.4,1.8,2.1v3h-0.9v-2.9
				c0-0.8-0.3-1.5-1.2-1.5c-0.6,0-1.1,0.4-1.2,0.9c0,0.1-0.1,0.3-0.1,0.4v3h-0.9C62.1,625.2,62.1,621.6,62.1,621.6z"/>
			<path class="st15" d="M68.9,618.8v1.4h1.3v0.7h-1.3v2.7c0,0.6,0.2,1,0.7,1c0.2,0,0.4,0,0.5-0.1v0.7c-0.2,0.1-0.5,0.1-0.8,0.1
				c-0.4,0-0.8-0.1-1-0.4c-0.3-0.3-0.4-0.7-0.4-1.3V621h-0.8v-0.7H68v-1.2L68.9,618.8z"/>
			<path class="st15" d="M71.5,624.4c0.1-0.1,0.2-0.2,0.4-0.2s0.3,0.1,0.4,0.2c0.1,0.1,0.2,0.2,0.2,0.4s-0.1,0.3-0.2,0.4
				c-0.1,0.1-0.2,0.2-0.4,0.2c-0.1,0-0.3-0.1-0.4-0.2c-0.1-0.1-0.2-0.2-0.2-0.4C71.3,624.7,71.4,624.6,71.5,624.4z M71.9,620.5
				c0.2,0,0.3,0.1,0.4,0.2c0.1,0.1,0.2,0.2,0.2,0.4c0,0.1-0.1,0.3-0.2,0.4c-0.1,0.1-0.2,0.2-0.4,0.2s-0.3-0.1-0.4-0.2
				c-0.1-0.1-0.2-0.2-0.2-0.4s0.1-0.3,0.2-0.4S71.7,620.5,71.9,620.5z"/>
			<path class="st15" d="M82.8,622h-2.7v2.5h3v0.8h-3.9v-6.9H83v0.8h-2.9v2.2h2.7C82.8,621.4,82.8,622,82.8,622z"/>
			<path class="st15" d="M84.3,617.9h0.9v7.3h-0.9V617.9z"/>
			<path class="st15" d="M89.5,625.3l-0.1-0.6l0,0c-0.3,0.4-0.8,0.7-1.5,0.7c-1,0-1.5-0.7-1.5-1.4c0-1.2,1.1-1.9,3-1.9V622
				c0-0.4-0.1-1.2-1.1-1.2c-0.5,0-0.9,0.1-1.3,0.4l-0.2-0.6c0.4-0.3,1-0.4,1.6-0.4c1.5,0,1.9,1,1.9,2v1.9c0,0.4,0,0.9,0.1,1.2
				L89.5,625.3L89.5,625.3z M89.3,622.7c-1,0-2.1,0.2-2.1,1.1c0,0.6,0.4,0.9,0.9,0.9c0.6,0,1.1-0.4,1.2-0.8c0-0.1,0.1-0.2,0.1-0.3
				L89.3,622.7L89.3,622.7z"/>
			<path class="st15" d="M91.6,625.3c0-0.3,0-0.8,0-1.3v-6h0.9v3.1l0,0c0.3-0.6,0.9-0.9,1.7-0.9c1.2,0,2.1,1,2.1,2.5
				c0,1.8-1.1,2.7-2.2,2.7c-0.7,0-1.3-0.3-1.7-0.9l0,0v0.8L91.6,625.3L91.6,625.3z M92.6,623.3c0,0.1,0,0.2,0,0.3
				c0.2,0.6,0.7,1.1,1.4,1.1c0.9,0,1.5-0.8,1.5-1.9c0-1-0.5-1.9-1.5-1.9c-0.6,0-1.2,0.4-1.4,1.1c0,0.1-0.1,0.2-0.1,0.4L92.6,623.3
				L92.6,623.3z"/>
			<path class="st15" d="M102,622.7c0,1.8-1.3,2.6-2.5,2.6c-1.3,0-2.4-1-2.4-2.6c0-1.7,1.1-2.6,2.5-2.6
				C101.1,620.2,102,621.2,102,622.7z M98.1,622.8c0,1.1,0.6,1.9,1.5,1.9s1.5-0.8,1.5-1.9c0-0.8-0.4-1.9-1.5-1.9
				S98.1,621.8,98.1,622.8z"/>
			<path class="st15" d="M103.2,621.8c0-0.6,0-1.1,0-1.6h0.8v1l0,0c0.2-0.7,0.8-1.1,1.4-1.1c0.1,0,0.2,0,0.3,0v0.9
				c-0.1,0-0.2,0-0.3,0c-0.6,0-1.1,0.5-1.2,1.2c0,0.1,0,0.3,0,0.4v2.7h-0.9v-3.5H103.2z"/>
			<path class="st15" d="M109.3,625.3l-0.1-0.6l0,0c-0.3,0.4-0.8,0.7-1.5,0.7c-1,0-1.5-0.7-1.5-1.4c0-1.2,1.1-1.9,3-1.9V622
				c0-0.4-0.1-1.2-1.1-1.2c-0.5,0-0.9,0.1-1.3,0.4l-0.2-0.6c0.4-0.3,1-0.4,1.6-0.4c1.5,0,1.9,1,1.9,2v1.9c0,0.4,0,0.9,0.1,1.2
				L109.3,625.3L109.3,625.3z M109.2,622.7c-1,0-2.1,0.2-2.1,1.1c0,0.6,0.4,0.9,0.9,0.9c0.6,0,1.1-0.4,1.2-0.8
				c0-0.1,0.1-0.2,0.1-0.3L109.2,622.7L109.2,622.7z"/>
			<path class="st15" d="M115.1,625.1c-0.2,0.1-0.8,0.3-1.4,0.3c-1.5,0-2.5-1-2.5-2.5s1.1-2.6,2.7-2.6c0.5,0,1,0.1,1.3,0.3l-0.2,0.7
				c-0.2-0.1-0.6-0.2-1.1-0.2c-1.1,0-1.8,0.8-1.8,1.9c0,1.2,0.7,1.9,1.7,1.9c0.5,0,0.9-0.1,1.1-0.2L115.1,625.1z"/>
			<path class="st15" d="M117.1,618.9c0,0.3-0.2,0.6-0.6,0.6c-0.3,0-0.5-0.2-0.5-0.6c0-0.3,0.2-0.6,0.6-0.6
				C116.9,618.3,117.1,618.6,117.1,618.9z M116.1,625.3v-5h0.9v5H116.1z"/>
			<path class="st15" d="M123,622.7c0,1.8-1.3,2.6-2.5,2.6c-1.3,0-2.4-1-2.4-2.6c0-1.7,1.1-2.6,2.5-2.6
				C122.1,620.2,123,621.2,123,622.7z M119.1,622.8c0,1.1,0.6,1.9,1.5,1.9s1.5-0.8,1.5-1.9c0-0.8-0.4-1.9-1.5-1.9
				S119.1,621.8,119.1,622.8z M122,618.1l-1.3,1.5h-0.6l0.9-1.5H122z"/>
			<path class="st15" d="M129.3,621.9c0-0.6,0-1.2,0-1.6h0.8v0.9l0,0c0.4-0.6,1-1,1.8-1c1.2,0,2.1,1,2.1,2.5c0,1.8-1.1,2.7-2.3,2.7
				c-0.7,0-1.2-0.3-1.5-0.8l0,0v2.7h-0.9L129.3,621.9L129.3,621.9z M130.2,623.2c0,0.1,0,0.3,0,0.4c0.2,0.6,0.7,1.1,1.4,1.1
				c1,0,1.5-0.8,1.5-1.9c0-1-0.5-1.9-1.5-1.9c-0.6,0-1.2,0.4-1.4,1.1c0,0.1-0.1,0.2-0.1,0.4v0.8H130.2z"/>
			<path class="st15" d="M135.2,621.8c0-0.6,0-1.1,0-1.6h0.8v1l0,0c0.2-0.7,0.8-1.1,1.4-1.1c0.1,0,0.2,0,0.3,0v0.9
				c-0.1,0-0.2,0-0.3,0c-0.6,0-1.1,0.5-1.2,1.2c0,0.1,0,0.3,0,0.4v2.7h-0.9v-3.5H135.2z"/>
			<path class="st15" d="M143.1,622.7c0,1.8-1.3,2.6-2.5,2.6c-1.3,0-2.4-1-2.4-2.6c0-1.7,1.1-2.6,2.5-2.6
				C142.1,620.2,143.1,621.2,143.1,622.7z M139.1,622.8c0,1.1,0.6,1.9,1.5,1.9s1.5-0.8,1.5-1.9c0-0.8-0.4-1.9-1.5-1.9
				S139.1,621.8,139.1,622.8z M140.3,618.1l0.9,1.5h-0.6l-1.3-1.5H140.3z"/>
			<path class="st15" d="M144.2,621.9c0-0.6,0-1.2,0-1.6h0.8v0.9l0,0c0.4-0.6,1-1,1.8-1c1.2,0,2.1,1,2.1,2.5c0,1.8-1.1,2.7-2.3,2.7
				c-0.7,0-1.2-0.3-1.5-0.8l0,0v2.7h-0.9L144.2,621.9L144.2,621.9z M145.1,623.2c0,0.1,0,0.3,0,0.4c0.2,0.6,0.7,1.1,1.4,1.1
				c1,0,1.5-0.8,1.5-1.9c0-1-0.5-1.9-1.5-1.9c-0.6,0-1.2,0.4-1.4,1.1c0,0.1-0.1,0.2-0.1,0.4v0.8H145.1z"/>
			<path class="st15" d="M151.1,618.9c0,0.3-0.2,0.6-0.6,0.6c-0.3,0-0.5-0.2-0.5-0.6c0-0.3,0.2-0.6,0.6-0.6
				C150.9,618.3,151.1,618.6,151.1,618.9z M150.1,625.3v-5h0.9v5H150.1z"/>
			<path class="st15" d="M155.3,625.3l-0.1-0.6l0,0c-0.3,0.4-0.8,0.7-1.5,0.7c-1,0-1.5-0.7-1.5-1.4c0-1.2,1.1-1.9,3-1.9V622
				c0-0.4-0.1-1.2-1.1-1.2c-0.5,0-0.9,0.1-1.3,0.4l-0.2-0.6c0.4-0.3,1-0.4,1.6-0.4c1.5,0,1.9,1,1.9,2v1.9c0,0.4,0,0.9,0.1,1.2
				L155.3,625.3L155.3,625.3z M155.1,622.7c-1,0-2.1,0.2-2.1,1.1c0,0.6,0.4,0.9,0.9,0.9c0.6,0,1.1-0.4,1.2-0.8
				c0-0.1,0.1-0.2,0.1-0.3L155.1,622.7L155.1,622.7z"/>
			<path class="st15" d="M166.9,617.9v6c0,0.4,0,0.9,0,1.3h-0.8v-0.9l0,0c-0.3,0.6-0.9,1-1.7,1c-1.2,0-2.1-1-2.1-2.5
				c0-1.7,1-2.7,2.2-2.7c0.8,0,1.3,0.4,1.5,0.8l0,0v-3L166.9,617.9L166.9,617.9z M166,622.3c0-0.1,0-0.3,0-0.4
				c-0.1-0.6-0.6-1.1-1.3-1.1c-0.9,0-1.5,0.8-1.5,1.9c0,1,0.5,1.8,1.5,1.8c0.6,0,1.2-0.4,1.3-1.1c0-0.1,0-0.2,0-0.4V622.3z"/>
			<path class="st15" d="M168.9,622.9c0,1.2,0.8,1.7,1.7,1.7c0.6,0,1-0.1,1.4-0.3l0.2,0.6c-0.3,0.1-0.9,0.3-1.7,0.3
				c-1.5,0-2.5-1-2.5-2.5s0.9-2.7,2.3-2.7c1.6,0,2.1,1.4,2.1,2.3c0,0.2,0,0.3,0,0.4h-3.5V622.9z M171.6,622.3c0-0.6-0.2-1.5-1.3-1.5
				c-0.9,0-1.3,0.8-1.4,1.5H171.6z"/>
			<path class="st15" d="M173.6,617.9h0.9v7.3h-0.9V617.9z"/>
			<path class="st15" d="M181.2,618.3h0.9v6.2h3v0.8h-3.9V618.3z"/>
			<path class="st15" d="M187.2,623.1l-0.7,2.2h-0.9l2.4-6.9h1.1l2.4,6.9h-1l-0.7-2.2H187.2z M189.4,622.4l-0.7-2
				c-0.2-0.5-0.3-0.9-0.4-1.3l0,0c-0.1,0.4-0.2,0.8-0.4,1.3l-0.7,2H189.4z"/>
			<path class="st15" d="M192.4,618.4c0.4-0.1,1-0.1,1.6-0.1c0.9,0,1.5,0.2,1.9,0.5s0.6,0.7,0.6,1.2c0,0.7-0.4,1.3-1.2,1.5l0,0
				c0.7,0.2,1.4,0.7,1.4,1.7c0,0.6-0.2,1.1-0.6,1.4c-0.5,0.4-1.3,0.6-2.4,0.6c-0.6,0-1.1,0-1.4-0.1L192.4,618.4L192.4,618.4z
				 M193.3,621.3h0.8c0.9,0,1.5-0.5,1.5-1.2c0-0.8-0.6-1.1-1.5-1.1c-0.4,0-0.6,0-0.8,0.1V621.3z M193.3,624.6c0.2,0,0.4,0,0.8,0
				c0.9,0,1.8-0.3,1.8-1.3c0-0.9-0.8-1.3-1.8-1.3h-0.7v2.6H193.3z"/>
			<path class="st15" d="M199,618.8v1.4h1.3v0.7H199v2.7c0,0.6,0.2,1,0.7,1c0.2,0,0.4,0,0.5-0.1v0.7c-0.2,0.1-0.5,0.1-0.8,0.1
				c-0.4,0-0.8-0.1-1-0.4c-0.3-0.3-0.4-0.7-0.4-1.3V621h-0.8v-0.7h0.8v-1.2L199,618.8z"/>
			<path class="st15" d="M205.5,623.9c0,0.5,0,1,0,1.4h-0.8l-0.1-0.8l0,0c-0.2,0.4-0.8,0.9-1.6,0.9s-1.7-0.4-1.7-2.2v-2.9h0.9v2.8
				c0,0.9,0.3,1.6,1.1,1.6c0.6,0,1-0.4,1.2-0.8c0.1-0.1,0.1-0.3,0.1-0.5v-3.1h0.9L205.5,623.9L205.5,623.9z"/>
			<path class="st15" d="M207,621.8c0-0.6,0-1.1,0-1.6h0.8v1l0,0c0.2-0.7,0.8-1.1,1.4-1.1c0.1,0,0.2,0,0.3,0v0.9c-0.1,0-0.2,0-0.3,0
				c-0.6,0-1.1,0.5-1.2,1.2c0,0.1,0,0.3,0,0.4v2.7h-1V621.8z"/>
			<path class="st15" d="M211.4,618.9c0,0.3-0.2,0.6-0.6,0.6c-0.3,0-0.5-0.2-0.5-0.6c0-0.3,0.2-0.6,0.6-0.6
				C211.2,618.3,211.4,618.6,211.4,618.9z M210.4,625.3v-5h0.9v5H210.4z"/>
			<path class="st15" d="M212.6,624.3c0.3,0.2,0.7,0.4,1.2,0.4c0.7,0,1-0.3,1-0.7s-0.3-0.7-0.9-0.9c-0.9-0.3-1.3-0.8-1.3-1.4
				c0-0.8,0.6-1.5,1.7-1.5c0.5,0,0.9,0.1,1.2,0.3l-0.2,0.7c-0.2-0.1-0.6-0.3-1-0.3c-0.5,0-0.8,0.3-0.8,0.7s0.3,0.6,0.9,0.8
				c0.9,0.3,1.3,0.8,1.3,1.5c0,0.9-0.7,1.5-1.9,1.5c-0.5,0-1.1-0.1-1.4-0.3L212.6,624.3z"/>
			<path class="st15" d="M216.8,621.6c0-0.5,0-0.9,0-1.3h0.8v0.8l0,0c0.3-0.5,0.7-0.9,1.6-0.9c0.7,0,1.2,0.4,1.4,1l0,0
				c0.2-0.3,0.4-0.5,0.6-0.6c0.3-0.2,0.6-0.4,1.1-0.4c0.7,0,1.6,0.4,1.6,2.2v2.9H223v-2.8c0-1-0.4-1.5-1.1-1.5
				c-0.5,0-0.9,0.4-1.1,0.8c0,0.1-0.1,0.3-0.1,0.5v3.1H220v-3c0-0.8-0.4-1.4-1-1.4s-1,0.5-1.1,0.9c-0.1,0.1-0.1,0.3-0.1,0.4v3h-0.9
				L216.8,621.6L216.8,621.6z"/>
			<path class="st15" d="M225.9,622.9c0,1.2,0.8,1.7,1.7,1.7c0.6,0,1-0.1,1.4-0.3l0.2,0.6c-0.3,0.1-0.9,0.3-1.7,0.3
				c-1.5,0-2.5-1-2.5-2.5s0.9-2.7,2.3-2.7c1.6,0,2.1,1.4,2.1,2.3c0,0.2,0,0.3,0,0.4h-3.5V622.9z M228.6,622.3c0-0.6-0.2-1.5-1.3-1.5
				c-0.9,0-1.3,0.8-1.4,1.5H228.6z"/>
			<path class="st15" d="M236.3,622.9c0,1.2,0.8,1.7,1.7,1.7c0.6,0,1-0.1,1.4-0.3l0.2,0.6c-0.3,0.1-0.9,0.3-1.7,0.3
				c-1.5,0-2.5-1-2.5-2.5s0.9-2.7,2.3-2.7c1.6,0,2.1,1.4,2.1,2.3c0,0.2,0,0.3,0,0.4h-3.5V622.9z M238.9,622.3c0-0.6-0.2-1.5-1.3-1.5
				c-0.9,0-1.3,0.8-1.4,1.5H238.9z"/>
			<path class="st15" d="M240.9,621.6c0-0.5,0-0.9,0-1.3h0.8l0.1,0.8l0,0c0.2-0.5,0.8-0.9,1.6-0.9c0.7,0,1.8,0.4,1.8,2.1v3h-0.9
				v-2.9c0-0.8-0.3-1.5-1.2-1.5c-0.6,0-1.1,0.4-1.2,0.9c0,0.1-0.1,0.3-0.1,0.4v3h-0.9L240.9,621.6L240.9,621.6z"/>
			<path class="st15" d="M251.7,625.3c0-0.3,0-0.8,0-1.3v-6h0.9v3.1l0,0c0.3-0.6,0.9-0.9,1.7-0.9c1.2,0,2.1,1,2.1,2.5
				c0,1.8-1.1,2.7-2.2,2.7c-0.7,0-1.3-0.3-1.7-0.9l0,0v0.8L251.7,625.3L251.7,625.3z M252.7,623.3c0,0.1,0,0.2,0,0.3
				c0.2,0.6,0.7,1.1,1.4,1.1c0.9,0,1.5-0.8,1.5-1.9c0-1-0.5-1.9-1.5-1.9c-0.6,0-1.2,0.4-1.4,1.1c0,0.1-0.1,0.2-0.1,0.4v0.9H252.7z"
				/>
			<path class="st15" d="M260.4,625.3l-0.1-0.6l0,0c-0.3,0.4-0.8,0.7-1.5,0.7c-1,0-1.5-0.7-1.5-1.4c0-1.2,1.1-1.9,3-1.9V622
				c0-0.4-0.1-1.2-1.1-1.2c-0.5,0-0.9,0.1-1.3,0.4l-0.2-0.6c0.4-0.3,1-0.4,1.6-0.4c1.5,0,1.9,1,1.9,2v1.9c0,0.4,0,0.9,0.1,1.2
				L260.4,625.3L260.4,625.3z M260.3,622.7c-1,0-2.1,0.2-2.1,1.1c0,0.6,0.4,0.9,0.9,0.9c0.6,0,1.1-0.4,1.2-0.8
				c0-0.1,0.1-0.2,0.1-0.3v-0.9H260.3z"/>
			<path class="st15" d="M262.5,624.3c0.3,0.2,0.7,0.4,1.2,0.4c0.7,0,1-0.3,1-0.7s-0.3-0.7-0.9-0.9c-0.9-0.3-1.3-0.8-1.3-1.4
				c0-0.8,0.6-1.5,1.7-1.5c0.5,0,0.9,0.1,1.2,0.3l-0.2,0.7c-0.2-0.1-0.6-0.3-1-0.3c-0.5,0-0.8,0.3-0.8,0.7s0.3,0.6,0.9,0.8
				c0.9,0.3,1.3,0.8,1.3,1.5c0,0.9-0.7,1.5-1.9,1.5c-0.5,0-1.1-0.1-1.4-0.3L262.5,624.3z"/>
			<path class="st15" d="M267.2,622.9c0,1.2,0.8,1.7,1.7,1.7c0.6,0,1-0.1,1.4-0.3l0.2,0.6c-0.3,0.1-0.9,0.3-1.7,0.3
				c-1.5,0-2.5-1-2.5-2.5s0.9-2.7,2.3-2.7c1.6,0,2.1,1.4,2.1,2.3c0,0.2,0,0.3,0,0.4h-3.5V622.9z M269.8,622.3c0-0.6-0.2-1.5-1.3-1.5
				c-0.9,0-1.3,0.8-1.4,1.5H269.8z"/>
			<path class="st15" d="M279.7,625.3l-0.1-0.6l0,0c-0.3,0.4-0.8,0.7-1.5,0.7c-1,0-1.5-0.7-1.5-1.4c0-1.2,1.1-1.9,3-1.9V622
				c0-0.4-0.1-1.2-1.1-1.2c-0.5,0-0.9,0.1-1.3,0.4l-0.2-0.6c0.4-0.3,1-0.4,1.6-0.4c1.5,0,1.9,1,1.9,2v1.9c0,0.4,0,0.9,0.1,1.2
				L279.7,625.3L279.7,625.3z M279.6,622.7c-1,0-2.1,0.2-2.1,1.1c0,0.6,0.4,0.9,0.9,0.9c0.6,0,1.1-0.4,1.2-0.8
				c0-0.1,0.1-0.2,0.1-0.3v-0.9H279.6z"/>
			<path class="st15" d="M291.4,617.9v6c0,0.4,0,0.9,0,1.3h-0.8v-0.9l0,0c-0.3,0.6-0.9,1-1.7,1c-1.2,0-2.1-1-2.1-2.5
				c0-1.7,1-2.7,2.2-2.7c0.8,0,1.3,0.4,1.5,0.8l0,0v-3L291.4,617.9L291.4,617.9z M290.5,622.3c0-0.1,0-0.3,0-0.4
				c-0.1-0.6-0.6-1.1-1.3-1.1c-0.9,0-1.5,0.8-1.5,1.9c0,1,0.5,1.8,1.5,1.8c0.6,0,1.2-0.4,1.3-1.1c0-0.1,0-0.2,0-0.4V622.3z"/>
			<path class="st15" d="M295.7,625.3l-0.1-0.6l0,0c-0.3,0.4-0.8,0.7-1.5,0.7c-1,0-1.5-0.7-1.5-1.4c0-1.2,1.1-1.9,3-1.9V622
				c0-0.4-0.1-1.2-1.1-1.2c-0.5,0-0.9,0.1-1.3,0.4l-0.2-0.6c0.4-0.3,1-0.4,1.6-0.4c1.5,0,1.9,1,1.9,2v1.9c0,0.4,0,0.9,0.1,1.2
				L295.7,625.3L295.7,625.3z M295.5,622.7c-1,0-2.1,0.2-2.1,1.1c0,0.6,0.4,0.9,0.9,0.9c0.6,0,1.1-0.4,1.2-0.8
				c0-0.1,0.1-0.2,0.1-0.3v-0.9H295.5z"/>
			<path class="st15" d="M302.2,617.9v6c0,0.4,0,0.9,0,1.3h-0.8v-0.9l0,0c-0.3,0.6-0.9,1-1.7,1c-1.2,0-2.1-1-2.1-2.5
				c0-1.7,1-2.7,2.2-2.7c0.8,0,1.3,0.4,1.5,0.8l0,0v-3L302.2,617.9L302.2,617.9z M301.3,622.3c0-0.1,0-0.3,0-0.4
				c-0.1-0.6-0.6-1.1-1.3-1.1c-0.9,0-1.5,0.8-1.5,1.9c0,1,0.5,1.8,1.5,1.8c0.6,0,1.2-0.4,1.3-1.1c0-0.1,0-0.2,0-0.4V622.3z"/>
			<path class="st15" d="M304.2,622.9c0,1.2,0.8,1.7,1.7,1.7c0.6,0,1-0.1,1.4-0.3l0.2,0.6c-0.3,0.1-0.9,0.3-1.7,0.3
				c-1.5,0-2.5-1-2.5-2.5s0.9-2.7,2.3-2.7c1.6,0,2.1,1.4,2.1,2.3c0,0.2,0,0.3,0,0.4h-3.5V622.9z M306.8,622.3c0-0.6-0.2-1.5-1.3-1.5
				c-0.9,0-1.3,0.8-1.4,1.5H306.8z"/>
			<path class="st15" d="M308.7,624.3c0.3,0.2,0.7,0.4,1.2,0.4c0.7,0,1-0.3,1-0.7s-0.3-0.7-0.9-0.9c-0.9-0.3-1.3-0.8-1.3-1.4
				c0-0.8,0.6-1.5,1.7-1.5c0.5,0,0.9,0.1,1.2,0.3l-0.2,0.7c-0.2-0.1-0.6-0.3-1-0.3c-0.5,0-0.8,0.3-0.8,0.7s0.3,0.6,0.9,0.8
				c0.9,0.3,1.3,0.8,1.3,1.5c0,0.9-0.7,1.5-1.9,1.5c-0.5,0-1.1-0.1-1.4-0.3L308.7,624.3z"/>
			<path class="st15" d="M322.4,617.9v6c0,0.4,0,0.9,0,1.3h-0.8v-0.9l0,0c-0.3,0.6-0.9,1-1.7,1c-1.2,0-2.1-1-2.1-2.5
				c0-1.7,1-2.7,2.2-2.7c0.8,0,1.3,0.4,1.5,0.8l0,0v-3L322.4,617.9L322.4,617.9z M321.5,622.3c0-0.1,0-0.3,0-0.4
				c-0.1-0.6-0.6-1.1-1.3-1.1c-0.9,0-1.5,0.8-1.5,1.9c0,1,0.5,1.8,1.5,1.8c0.6,0,1.2-0.4,1.3-1.1c0-0.1,0-0.2,0-0.4V622.3z"/>
			<path class="st15" d="M324.4,622.9c0,1.2,0.8,1.7,1.7,1.7c0.6,0,1-0.1,1.4-0.3l0.2,0.6c-0.3,0.1-0.9,0.3-1.7,0.3
				c-1.5,0-2.5-1-2.5-2.5s0.9-2.7,2.3-2.7c1.6,0,2.1,1.4,2.1,2.3c0,0.2,0,0.3,0,0.4h-3.5V622.9z M327,622.3c0-0.6-0.2-1.5-1.3-1.5
				c-0.9,0-1.3,0.8-1.4,1.5H327z"/>
			<path class="st15" d="M334.2,617.9h0.9v7.3h-0.9V617.9z"/>
			<path class="st15" d="M337.3,618.2l-0.2,2.5h-0.6l-0.2-2.5H337.3z"/>
			<path class="st15" d="M342.2,622h-2.7v2.5h3v0.8h-3.9v-6.9h3.7v0.8h-2.9v2.2h2.7L342.2,622L342.2,622z"/>
			<path class="st15" d="M343.6,621.6c0-0.5,0-0.9,0-1.3h0.8l0.1,0.8l0,0c0.2-0.5,0.8-0.9,1.6-0.9c0.7,0,1.8,0.4,1.8,2.1v3H347v-2.9
				c0-0.8-0.3-1.5-1.2-1.5c-0.6,0-1.1,0.4-1.2,0.9c0,0.1-0.1,0.3-0.1,0.4v3h-0.9L343.6,621.6L343.6,621.6z"/>
			<path class="st15" d="M352.7,624.5L352.7,624.5c-0.3,0.5-0.8,0.9-1.6,0.9c-1.2,0-2.1-1-2.1-2.5c0-1.9,1.2-2.7,2.3-2.7
				c0.8,0,1.3,0.4,1.5,0.9l0,0v-0.8h0.9c0,0.4,0,0.9,0,1.4v5.7h-0.9L352.7,624.5L352.7,624.5z M352.7,622.3c0-0.1,0-0.3,0-0.4
				c-0.1-0.6-0.6-1-1.3-1c-0.9,0-1.5,0.8-1.5,1.9c0,1,0.5,1.9,1.5,1.9c0.6,0,1.1-0.4,1.3-1c0-0.1,0.1-0.3,0.1-0.4v-1H352.7z"/>
			<path class="st15" d="M359.3,623.9c0,0.5,0,1,0,1.4h-0.8l-0.1-0.8l0,0c-0.2,0.4-0.8,0.9-1.6,0.9c-0.8,0-1.7-0.4-1.7-2.2v-2.9h0.9
				v2.8c0,0.9,0.3,1.6,1.1,1.6c0.6,0,1-0.4,1.2-0.8c0.1-0.1,0.1-0.3,0.1-0.5v-3.1h0.9V623.9z"/>
			<path class="st15" d="M361.3,622.9c0,1.2,0.8,1.7,1.7,1.7c0.6,0,1-0.1,1.4-0.3l0.2,0.6c-0.3,0.1-0.9,0.3-1.7,0.3
				c-1.5,0-2.5-1-2.5-2.5s0.9-2.7,2.3-2.7c1.6,0,2.1,1.4,2.1,2.3c0,0.2,0,0.3,0,0.4h-3.5V622.9z M364,622.3c0-0.6-0.2-1.5-1.3-1.5
				c-0.9,0-1.3,0.8-1.4,1.5H364z"/>
			<path class="st15" d="M365.9,624.3c0.3,0.2,0.7,0.4,1.2,0.4c0.7,0,1-0.3,1-0.7s-0.3-0.7-0.9-0.9c-0.9-0.3-1.3-0.8-1.3-1.4
				c0-0.8,0.6-1.5,1.7-1.5c0.5,0,0.9,0.1,1.2,0.3l-0.2,0.7c-0.2-0.1-0.6-0.3-1-0.3c-0.5,0-0.8,0.3-0.8,0.7s0.3,0.6,0.9,0.8
				c0.9,0.3,1.3,0.8,1.3,1.5c0,0.9-0.7,1.5-1.9,1.5c-0.5,0-1.1-0.1-1.4-0.3L365.9,624.3z"/>
			<path class="st15" d="M371.1,618.8v1.4h1.3v0.7h-1.3v2.7c0,0.6,0.2,1,0.7,1c0.2,0,0.4,0,0.5-0.1v0.7c-0.2,0.1-0.5,0.1-0.8,0.1
				c-0.4,0-0.8-0.1-1-0.4c-0.3-0.3-0.4-0.7-0.4-1.3V621h-0.8v-0.7h0.8v-1.2L371.1,618.8z"/>
			<path class="st15" d="M376.2,625.3l-0.1-0.6l0,0c-0.3,0.4-0.8,0.7-1.5,0.7c-1,0-1.5-0.7-1.5-1.4c0-1.2,1.1-1.9,3-1.9V622
				c0-0.4-0.1-1.2-1.1-1.2c-0.5,0-0.9,0.1-1.3,0.4l-0.2-0.6c0.4-0.3,1-0.4,1.6-0.4c1.5,0,1.9,1,1.9,2v1.9c0,0.4,0,0.9,0.1,1.2
				L376.2,625.3L376.2,625.3z M376.1,622.7c-1,0-2.1,0.2-2.1,1.1c0,0.6,0.4,0.9,0.9,0.9c0.6,0,1.1-0.4,1.2-0.8
				c0-0.1,0.1-0.2,0.1-0.3v-0.9H376.1z"/>
			<path class="st15" d="M387.9,617.9v6c0,0.4,0,0.9,0,1.3h-0.8v-0.9l0,0c-0.3,0.6-0.9,1-1.7,1c-1.2,0-2.1-1-2.1-2.5
				c0-1.7,1-2.7,2.2-2.7c0.8,0,1.3,0.4,1.5,0.8l0,0v-3L387.9,617.9L387.9,617.9z M387,622.3c0-0.1,0-0.3,0-0.4
				c-0.1-0.6-0.6-1.1-1.3-1.1c-0.9,0-1.5,0.8-1.5,1.9c0,1,0.5,1.8,1.5,1.8c0.6,0,1.2-0.4,1.3-1.1c0-0.1,0-0.2,0-0.4V622.3z"/>
			<path class="st15" d="M390.1,618.2l-0.2,2.5h-0.6l-0.2-2.5H390.1z"/>
			<path class="st15" d="M395.8,622.7c0,1.8-1.3,2.6-2.5,2.6c-1.3,0-2.4-1-2.4-2.6c0-1.7,1.1-2.6,2.5-2.6
				C394.9,620.2,395.8,621.2,395.8,622.7z M391.9,622.8c0,1.1,0.6,1.9,1.5,1.9s1.5-0.8,1.5-1.9c0-0.8-0.4-1.9-1.5-1.9
				S391.9,621.8,391.9,622.8z"/>
			<path class="st15" d="M400.5,625.1c-0.2,0.1-0.8,0.3-1.4,0.3c-1.5,0-2.5-1-2.5-2.5s1.1-2.6,2.7-2.6c0.5,0,1,0.1,1.3,0.3l-0.2,0.7
				c-0.2-0.1-0.6-0.2-1.1-0.2c-1.1,0-1.8,0.8-1.8,1.9c0,1.2,0.7,1.9,1.7,1.9c0.5,0,0.9-0.1,1.1-0.2L400.5,625.1z"/>
			<path class="st15" d="M405.8,623.9c0,0.5,0,1,0,1.4H405l-0.1-0.8l0,0c-0.2,0.4-0.8,0.9-1.6,0.9c-0.8,0-1.7-0.4-1.7-2.2v-2.9h0.9
				v2.8c0,0.9,0.3,1.6,1.1,1.6c0.6,0,1-0.4,1.2-0.8c0.1-0.1,0.1-0.3,0.1-0.5v-3.1h0.9V623.9z"/>
			<path class="st15" d="M407.3,621.9c0-0.6,0-1.2,0-1.6h0.8v0.9l0,0c0.4-0.6,1-1,1.8-1c1.2,0,2.1,1,2.1,2.5c0,1.8-1.1,2.7-2.3,2.7
				c-0.7,0-1.2-0.3-1.5-0.8l0,0v2.7h-0.9V621.9z M408.2,623.2c0,0.1,0,0.3,0,0.4c0.2,0.6,0.7,1.1,1.4,1.1c1,0,1.5-0.8,1.5-1.9
				c0-1-0.5-1.9-1.5-1.9c-0.6,0-1.2,0.4-1.4,1.1c0,0.1-0.1,0.2-0.1,0.4v0.8H408.2z"/>
			<path class="st15" d="M415.9,625.3l-0.1-0.6l0,0c-0.3,0.4-0.8,0.7-1.5,0.7c-1,0-1.5-0.7-1.5-1.4c0-1.2,1.1-1.9,3-1.9V622
				c0-0.4-0.1-1.2-1.1-1.2c-0.5,0-0.9,0.1-1.3,0.4l-0.2-0.6c0.4-0.3,1-0.4,1.6-0.4c1.5,0,1.9,1,1.9,2v1.9c0,0.4,0,0.9,0.1,1.2
				L415.9,625.3L415.9,625.3z M415.8,622.7c-1,0-2.1,0.2-2.1,1.1c0,0.6,0.4,0.9,0.9,0.9c0.6,0,1.1-0.4,1.2-0.8
				c0-0.1,0.1-0.2,0.1-0.3v-0.9H415.8z"/>
			<path class="st15" d="M421.6,625.1c-0.2,0.1-0.8,0.3-1.4,0.3c-1.5,0-2.5-1-2.5-2.5s1.1-2.6,2.7-2.6c0.5,0,1,0.1,1.3,0.3l-0.2,0.7
				c-0.2-0.1-0.6-0.2-1.1-0.2c-1.1,0-1.8,0.8-1.8,1.9c0,1.2,0.7,1.9,1.7,1.9c0.5,0,0.9-0.1,1.1-0.2L421.6,625.1z"/>
			<path class="st15" d="M423.7,618.9c0,0.3-0.2,0.6-0.6,0.6c-0.3,0-0.5-0.2-0.5-0.6c0-0.3,0.2-0.6,0.6-0.6
				C423.5,618.3,423.7,618.6,423.7,618.9z M422.7,625.3v-5h0.9v5H422.7z"/>
			<path class="st15" d="M429.6,622.7c0,1.8-1.3,2.6-2.5,2.6c-1.3,0-2.4-1-2.4-2.6c0-1.7,1.1-2.6,2.5-2.6
				C428.7,620.2,429.6,621.2,429.6,622.7z M425.7,622.8c0,1.1,0.6,1.9,1.5,1.9s1.5-0.8,1.5-1.9c0-0.8-0.4-1.9-1.5-1.9
				S425.7,621.8,425.7,622.8z M428.6,618.1l-1.3,1.5h-0.6l0.9-1.5H428.6z"/>
			<path class="st15" d="M436.4,622.9c0,1.2,0.8,1.7,1.7,1.7c0.6,0,1-0.1,1.4-0.3l0.2,0.6c-0.3,0.1-0.9,0.3-1.7,0.3
				c-1.5,0-2.5-1-2.5-2.5s0.9-2.7,2.3-2.7c1.6,0,2.1,1.4,2.1,2.3c0,0.2,0,0.3,0,0.4h-3.5V622.9z M439.1,622.3c0-0.6-0.2-1.5-1.3-1.5
				c-0.9,0-1.3,0.8-1.4,1.5H439.1z"/>
			<path class="st15" d="M441.1,621.6c0-0.5,0-0.9,0-1.3h0.8l0.1,0.8l0,0c0.2-0.5,0.8-0.9,1.6-0.9c0.7,0,1.8,0.4,1.8,2.1v3h-0.9
				v-2.9c0-0.8-0.3-1.5-1.2-1.5c-0.6,0-1.1,0.4-1.2,0.9c0,0.1-0.1,0.3-0.1,0.4v3h-0.9L441.1,621.6L441.1,621.6z"/>
			<path class="st15" d="M454.7,625.3l-0.1-0.6l0,0c-0.3,0.4-0.8,0.7-1.5,0.7c-1,0-1.5-0.7-1.5-1.4c0-1.2,1.1-1.9,3-1.9V622
				c0-0.4-0.1-1.2-1.1-1.2c-0.5,0-0.9,0.1-1.3,0.4l-0.2-0.6c0.4-0.3,1-0.4,1.6-0.4c1.5,0,1.9,1,1.9,2v1.9c0,0.4,0,0.9,0.1,1.2
				L454.7,625.3L454.7,625.3z M454.6,622.7c-1,0-2.1,0.2-2.1,1.1c0,0.6,0.4,0.9,0.9,0.9c0.6,0,1.1-0.4,1.2-0.8
				c0-0.1,0.1-0.2,0.1-0.3v-0.9H454.6z"/>
			<path class="st15" d="M456.9,617.9h0.9v7.3h-0.9V617.9z"/>
			<path class="st15" d="M459.3,617.9h0.9v7.3h-0.9V617.9z"/>
			<path class="st15" d="M466.3,622.7c0,1.8-1.3,2.6-2.5,2.6c-1.3,0-2.4-1-2.4-2.6c0-1.7,1.1-2.6,2.5-2.6
				C465.3,620.2,466.3,621.2,466.3,622.7z M462.3,622.8c0,1.1,0.6,1.9,1.5,1.9s1.5-0.8,1.5-1.9c0-0.8-0.4-1.9-1.5-1.9
				S462.3,621.8,462.3,622.8z"/>
			<path class="st15" d="M468.5,618.8v1.4h1.3v0.7h-1.3v2.7c0,0.6,0.2,1,0.7,1c0.2,0,0.4,0,0.5-0.1v0.7c-0.2,0.1-0.5,0.1-0.8,0.1
				c-0.4,0-0.8-0.1-1-0.4c-0.3-0.3-0.3-0.7-0.3-1.3V621h-0.8v-0.7h0.8v-1.2L468.5,618.8z"/>
			<path class="st15" d="M469.6,626.7c0.4,0,0.8-0.1,1-0.4c0.2-0.3,0.3-0.7,0.3-1.9v-4.2h0.9v4.5c0,1-0.2,1.6-0.6,2
				s-1.1,0.6-1.5,0.6L469.6,626.7z M472,618.9c0,0.3-0.2,0.6-0.6,0.6c-0.3,0-0.6-0.3-0.6-0.6s0.2-0.6,0.6-0.6
				C471.7,618.3,472,618.6,472,618.9z"/>
			<path class="st15" d="M476.1,625.3l-0.1-0.6l0,0c-0.3,0.4-0.8,0.7-1.5,0.7c-1,0-1.5-0.7-1.5-1.4c0-1.2,1.1-1.9,3-1.9V622
				c0-0.4-0.1-1.2-1.1-1.2c-0.5,0-0.9,0.1-1.3,0.4l-0.2-0.6c0.4-0.3,1-0.4,1.6-0.4c1.5,0,1.9,1,1.9,2v1.9c0,0.4,0,0.9,0.1,1.2
				L476.1,625.3L476.1,625.3z M476,622.7c-1,0-2.1,0.2-2.1,1.1c0,0.6,0.4,0.9,0.9,0.9c0.6,0,1.1-0.4,1.2-0.8c0-0.1,0.1-0.2,0.1-0.3
				v-0.9H476z"/>
			<path class="st15" d="M478.3,621.6c0-0.5,0-0.9,0-1.3h0.8v0.8l0,0c0.3-0.5,0.7-0.9,1.6-0.9c0.7,0,1.2,0.4,1.4,1l0,0
				c0.2-0.3,0.3-0.5,0.6-0.6c0.3-0.2,0.6-0.4,1.1-0.4c0.7,0,1.6,0.4,1.6,2.2v2.9h-0.9v-2.8c0-1-0.4-1.5-1.1-1.5
				c-0.5,0-0.9,0.4-1.1,0.8c0,0.1-0.1,0.3-0.1,0.5v3.1h-0.9v-3c0-0.8-0.3-1.4-1-1.4c-0.6,0-1,0.5-1.1,0.9c-0.1,0.1-0.1,0.3-0.1,0.4
				v3h-0.9v-3.7H478.3z"/>
			<path class="st15" d="M487.4,622.9c0,1.2,0.8,1.7,1.7,1.7c0.6,0,1-0.1,1.4-0.3l0.2,0.6c-0.3,0.1-0.9,0.3-1.7,0.3
				c-1.5,0-2.5-1-2.5-2.5s0.9-2.7,2.3-2.7c1.6,0,2.1,1.4,2.1,2.3c0,0.2,0,0.3,0,0.4h-3.5V622.9z M490.1,622.3c0-0.6-0.2-1.5-1.3-1.5
				c-0.9,0-1.3,0.8-1.4,1.5H490.1z"/>
			<path class="st15" d="M492.1,621.6c0-0.5,0-0.9,0-1.3h0.8l0.1,0.8l0,0c0.2-0.5,0.8-0.9,1.6-0.9c0.7,0,1.8,0.4,1.8,2.1v3h-0.9
				v-2.9c0-0.8-0.3-1.5-1.2-1.5c-0.6,0-1.1,0.4-1.2,0.9c0,0.1-0.1,0.3-0.1,0.4v3h-0.9L492.1,621.6L492.1,621.6z"/>
			<path class="st15" d="M498.9,618.8v1.4h1.3v0.7h-1.3v2.7c0,0.6,0.2,1,0.7,1c0.2,0,0.4,0,0.5-0.1v0.7c-0.2,0.1-0.5,0.1-0.8,0.1
				c-0.4,0-0.8-0.1-1-0.4c-0.3-0.3-0.3-0.7-0.3-1.3V621h-0.8v-0.7h0.8v-1.2L498.9,618.8z"/>
			<path class="st15" d="M501.1,624.3c0.3,0.2,0.7,0.4,1.2,0.4c0.7,0,1-0.3,1-0.7s-0.3-0.7-0.9-0.9c-0.9-0.3-1.3-0.8-1.3-1.4
				c0-0.8,0.6-1.5,1.7-1.5c0.5,0,0.9,0.1,1.2,0.3l-0.2,0.7c-0.2-0.1-0.6-0.3-1-0.3c-0.5,0-0.8,0.3-0.8,0.7s0.3,0.6,0.9,0.8
				c0.9,0.3,1.3,0.8,1.3,1.5c0,0.9-0.7,1.5-1.9,1.5c-0.5,0-1-0.1-1.4-0.3L501.1,624.3z"/>
			<path class="st15" d="M514.7,617.9v6c0,0.4,0,0.9,0,1.3h-0.8v-0.9l0,0c-0.3,0.6-0.9,1-1.7,1c-1.2,0-2.1-1-2.1-2.5
				c0-1.7,1-2.7,2.2-2.7c0.8,0,1.3,0.4,1.5,0.8l0,0v-3L514.7,617.9L514.7,617.9z M513.8,622.3c0-0.1,0-0.3,0-0.4
				c-0.1-0.6-0.6-1.1-1.3-1.1c-0.9,0-1.5,0.8-1.5,1.9c0,1,0.5,1.8,1.5,1.8c0.6,0,1.2-0.4,1.3-1.1c0-0.1,0-0.2,0-0.4V622.3z"/>
			<path class="st15" d="M516.7,622.9c0,1.2,0.8,1.7,1.7,1.7c0.6,0,1-0.1,1.4-0.3l0.2,0.6c-0.3,0.1-0.9,0.3-1.7,0.3
				c-1.5,0-2.5-1-2.5-2.5s0.9-2.7,2.3-2.7c1.6,0,2.1,1.4,2.1,2.3c0,0.2,0,0.3,0,0.4h-3.5V622.9z M519.4,622.3c0-0.6-0.2-1.5-1.3-1.5
				c-0.9,0-1.3,0.8-1.4,1.5H519.4z"/>
			<path class="st15" d="M526.5,617.9h0.9v7.3h-0.9V617.9z"/>
			<path class="st15" d="M529.6,618.2l-0.2,2.5h-0.6l-0.2-2.5H529.6z"/>
			<path class="st15" d="M531.8,618.3v6.9h-0.9v-6.9H531.8z"/>
			<path class="st15" d="M533.4,625.3v-6.9h1l2.2,3.5c0.5,0.8,0.9,1.5,1.2,2.3l0,0c-0.1-0.9-0.1-1.8-0.1-2.9v-2.9h0.8v6.9h-0.9
				l-2.2-3.5c-0.5-0.8-0.9-1.6-1.3-2.3l0,0c0.1,0.9,0.1,1.7,0.1,2.9v3L533.4,625.3L533.4,625.3z"/>
			<path class="st15" d="M543.8,622h-2.7v2.5h3v0.8h-3.9v-6.9h3.7v0.8H541v2.2h2.7v0.6H543.8z"/>
			<path class="st15" d="M545.3,624.4c0.1-0.1,0.2-0.2,0.4-0.2s0.3,0.1,0.4,0.2c0.1,0.1,0.2,0.2,0.2,0.4s-0.1,0.3-0.2,0.4
				c-0.1,0.1-0.2,0.2-0.4,0.2c-0.1,0-0.3-0.1-0.4-0.2c-0.1-0.1-0.2-0.2-0.2-0.4C545.2,624.7,545.2,624.6,545.3,624.4z"/>
		</g>
	</g>
</g>
<g>
	<g class="st12">
		<path class="st15" d="M51.2,585.1l0.2-0.7c0.3,0.1,0.7,0.3,1.2,0.5c0-0.2,0-0.7-0.1-1.3h0.7c0,0.3,0,0.7-0.1,1.2
			c0.3-0.2,0.7-0.3,1.2-0.5l0.2,0.7c-0.4,0.1-0.8,0.2-1.3,0.3c0.2,0.2,0.5,0.5,0.9,1l-0.6,0.4c-0.3-0.4-0.5-0.7-0.7-1.1
			c-0.2,0.3-0.4,0.7-0.7,1.1l-0.6-0.4c0.2-0.3,0.5-0.6,0.8-1C52.1,585.3,51.7,585.2,51.2,585.1z"/>
		<path class="st15" d="M60.8,584.2h0.9v6.2h3v0.8h-3.9C60.8,591.2,60.8,584.2,60.8,584.2z"/>
		<path class="st15" d="M66.2,588.8c0,1.2,0.8,1.7,1.7,1.7c0.6,0,1-0.1,1.4-0.3l0.2,0.6c-0.3,0.1-0.9,0.3-1.7,0.3
			c-1.5,0-2.5-1-2.5-2.5s0.9-2.7,2.3-2.7c1.6,0,2.1,1.4,2.1,2.3c0,0.2,0,0.3,0,0.4h-3.5V588.8z M68.8,588.1c0-0.6-0.2-1.5-1.3-1.5
			c-0.9,0-1.3,0.8-1.4,1.5H68.8z"/>
		<path class="st15" d="M70.7,590.2c0.3,0.2,0.7,0.4,1.2,0.4c0.7,0,1-0.3,1-0.7s-0.3-0.7-0.9-0.9c-0.9-0.3-1.3-0.8-1.3-1.4
			c0-0.8,0.6-1.5,1.7-1.5c0.5,0,0.9,0.1,1.2,0.3l-0.2,0.7c-0.2-0.1-0.6-0.3-1-0.3c-0.5,0-0.8,0.3-0.8,0.7s0.3,0.6,0.9,0.8
			c0.9,0.3,1.3,0.8,1.3,1.5c0,0.9-0.7,1.5-1.9,1.5c-0.5,0-1.1-0.1-1.4-0.3L70.7,590.2z"/>
		<path class="st15" d="M84.3,583.8v6c0,0.4,0,0.9,0,1.3h-0.8v-0.9l0,0c-0.3,0.6-0.9,1-1.7,1c-1.2,0-2.1-1-2.1-2.5
			c0-1.7,1-2.7,2.2-2.7c0.8,0,1.3,0.4,1.5,0.8l0,0v-3L84.3,583.8L84.3,583.8z M83.4,588.2c0-0.1,0-0.3,0-0.4
			c-0.1-0.6-0.6-1.1-1.3-1.1c-0.9,0-1.5,0.8-1.5,1.9c0,1,0.5,1.8,1.5,1.8c0.6,0,1.2-0.4,1.3-1.1c0-0.1,0-0.2,0-0.4V588.2z"/>
		<path class="st15" d="M88.6,591.1l-0.1-0.6l0,0c-0.3,0.4-0.8,0.7-1.5,0.7c-1,0-1.5-0.7-1.5-1.4c0-1.2,1.1-1.9,3-1.9v-0.1
			c0-0.4-0.1-1.2-1.1-1.2c-0.5,0-0.9,0.1-1.3,0.4l-0.2-0.6c0.4-0.3,1-0.4,1.6-0.4c1.5,0,1.9,1,1.9,2v1.9c0,0.4,0,0.9,0.1,1.2
			L88.6,591.1L88.6,591.1z M88.5,588.6c-1,0-2.1,0.2-2.1,1.1c0,0.6,0.4,0.9,0.9,0.9c0.6,0,1.1-0.4,1.2-0.8c0-0.1,0.1-0.2,0.1-0.3
			L88.5,588.6L88.5,588.6z"/>
		<path class="st15" d="M95.1,583.8v6c0,0.4,0,0.9,0,1.3h-0.8v-0.9l0,0c-0.3,0.6-0.9,1-1.7,1c-1.2,0-2.1-1-2.1-2.5
			c0-1.7,1-2.7,2.2-2.7c0.8,0,1.3,0.4,1.5,0.8l0,0v-3L95.1,583.8L95.1,583.8z M94.2,588.2c0-0.1,0-0.3,0-0.4
			c-0.1-0.6-0.6-1.1-1.3-1.1c-0.9,0-1.5,0.8-1.5,1.9c0,1,0.5,1.8,1.5,1.8c0.6,0,1.2-0.4,1.3-1.1c0-0.1,0-0.2,0-0.4V588.2z"/>
		<path class="st15" d="M97.1,588.8c0,1.2,0.8,1.7,1.7,1.7c0.6,0,1-0.1,1.4-0.3l0.2,0.6c-0.3,0.1-0.9,0.3-1.7,0.3
			c-1.5,0-2.5-1-2.5-2.5s0.9-2.7,2.3-2.7c1.6,0,2.1,1.4,2.1,2.3c0,0.2,0,0.3,0,0.4h-3.5V588.8z M99.8,588.1c0-0.6-0.2-1.5-1.3-1.5
			c-0.9,0-1.3,0.8-1.4,1.5H99.8z"/>
		<path class="st15" d="M101.7,590.2c0.3,0.2,0.7,0.4,1.2,0.4c0.7,0,1-0.3,1-0.7s-0.3-0.7-0.9-0.9c-0.9-0.3-1.3-0.8-1.3-1.4
			c0-0.8,0.6-1.5,1.7-1.5c0.5,0,0.9,0.1,1.2,0.3l-0.2,0.7c-0.2-0.1-0.6-0.3-1-0.3c-0.5,0-0.8,0.3-0.8,0.7s0.3,0.6,0.9,0.8
			c0.9,0.3,1.3,0.8,1.3,1.5c0,0.9-0.7,1.5-1.9,1.5c-0.5,0-1.1-0.1-1.4-0.3L101.7,590.2z"/>
		<path class="st15" d="M115.3,583.8v6c0,0.4,0,0.9,0,1.3h-0.8v-0.9l0,0c-0.3,0.6-0.9,1-1.7,1c-1.2,0-2.1-1-2.1-2.5
			c0-1.7,1-2.7,2.2-2.7c0.8,0,1.3,0.4,1.5,0.8l0,0v-3L115.3,583.8L115.3,583.8z M114.4,588.2c0-0.1,0-0.3,0-0.4
			c-0.1-0.6-0.6-1.1-1.3-1.1c-0.9,0-1.5,0.8-1.5,1.9c0,1,0.5,1.8,1.5,1.8c0.6,0,1.2-0.4,1.3-1.1c0-0.1,0-0.2,0-0.4V588.2z"/>
		<path class="st15" d="M117.3,588.8c0,1.2,0.8,1.7,1.7,1.7c0.6,0,1-0.1,1.4-0.3l0.2,0.6c-0.3,0.1-0.9,0.3-1.7,0.3
			c-1.5,0-2.5-1-2.5-2.5s0.9-2.7,2.3-2.7c1.6,0,2.1,1.4,2.1,2.3c0,0.2,0,0.3,0,0.4h-3.5V588.8z M120,588.1c0-0.6-0.2-1.5-1.3-1.5
			c-0.9,0-1.3,0.8-1.4,1.5H120z"/>
		<path class="st15" d="M122,583.8h0.9v7.3H122V583.8z"/>
		<path class="st15" d="M124.3,590.2c0.3,0.2,0.7,0.4,1.2,0.4c0.7,0,1-0.3,1-0.7s-0.3-0.7-0.9-0.9c-0.9-0.3-1.3-0.8-1.3-1.4
			c0-0.8,0.6-1.5,1.7-1.5c0.5,0,0.9,0.1,1.2,0.3l-0.2,0.7c-0.2-0.1-0.6-0.3-1-0.3c-0.5,0-0.8,0.3-0.8,0.7s0.3,0.6,0.9,0.8
			c0.9,0.3,1.3,0.8,1.3,1.5c0,0.9-0.7,1.5-1.9,1.5c-0.5,0-1.1-0.1-1.4-0.3L124.3,590.2z"/>
		<path class="st15" d="M133.6,587.5c0-0.5,0-0.9,0-1.3h0.8v0.8l0,0c0.3-0.5,0.7-0.9,1.6-0.9c0.7,0,1.2,0.4,1.4,1l0,0
			c0.2-0.3,0.4-0.5,0.6-0.6c0.3-0.2,0.6-0.4,1.1-0.4c0.7,0,1.6,0.4,1.6,2.2v2.9h-0.9v-2.8c0-1-0.4-1.5-1.1-1.5
			c-0.5,0-0.9,0.4-1.1,0.8c0,0.1-0.1,0.3-0.1,0.5v3.1h-0.9v-3c0-0.8-0.4-1.4-1-1.4s-1,0.5-1.1,0.9c-0.1,0.1-0.1,0.3-0.1,0.4v3h-0.9
			L133.6,587.5L133.6,587.5z"/>
		<path class="st15" d="M142.7,588.8c0,1.2,0.8,1.7,1.7,1.7c0.6,0,1-0.1,1.4-0.3l0.2,0.6c-0.3,0.1-0.9,0.3-1.7,0.3
			c-1.5,0-2.5-1-2.5-2.5s0.9-2.7,2.3-2.7c1.6,0,2.1,1.4,2.1,2.3c0,0.2,0,0.3,0,0.4h-3.5V588.8z M145.4,588.1c0-0.6-0.2-1.5-1.3-1.5
			c-0.9,0-1.3,0.8-1.4,1.5H145.4z"/>
		<path class="st15" d="M147.3,590.2c0.3,0.2,0.7,0.4,1.2,0.4c0.7,0,1-0.3,1-0.7s-0.3-0.7-0.9-0.9c-0.9-0.3-1.3-0.8-1.3-1.4
			c0-0.8,0.6-1.5,1.7-1.5c0.5,0,0.9,0.1,1.2,0.3l-0.2,0.7c-0.2-0.1-0.6-0.3-1-0.3c-0.5,0-0.8,0.3-0.8,0.7s0.3,0.6,0.9,0.8
			c0.9,0.3,1.3,0.8,1.3,1.5c0,0.9-0.7,1.5-1.9,1.5c-0.5,0-1.1-0.1-1.4-0.3L147.3,590.2z"/>
		<path class="st15" d="M156,588.6c0,1.8-1.3,2.6-2.5,2.6c-1.3,0-2.4-1-2.4-2.6c0-1.7,1.1-2.6,2.5-2.6S156,587.1,156,588.6z
			 M152,588.6c0,1.1,0.6,1.9,1.5,1.9s1.5-0.8,1.5-1.9c0-0.8-0.4-1.9-1.5-1.9S152,587.7,152,588.6z"/>
		<path class="st15" d="M157,590.2c0.3,0.2,0.7,0.4,1.2,0.4c0.7,0,1-0.3,1-0.7s-0.3-0.7-0.9-0.9c-0.9-0.3-1.3-0.8-1.3-1.4
			c0-0.8,0.6-1.5,1.7-1.5c0.5,0,0.9,0.1,1.2,0.3l-0.2,0.7c-0.2-0.1-0.6-0.3-1-0.3c-0.5,0-0.8,0.3-0.8,0.7s0.3,0.6,0.9,0.8
			c0.9,0.3,1.3,0.8,1.3,1.5c0,0.9-0.7,1.5-1.9,1.5c-0.5,0-1.1-0.1-1.4-0.3L157,590.2z"/>
		<path class="st15" d="M170.7,583.8v6c0,0.4,0,0.9,0,1.3h-0.8v-0.9l0,0c-0.3,0.6-0.9,1-1.7,1c-1.2,0-2.1-1-2.1-2.5
			c0-1.7,1-2.7,2.2-2.7c0.8,0,1.3,0.4,1.5,0.8l0,0v-3L170.7,583.8L170.7,583.8z M169.7,588.2c0-0.1,0-0.3,0-0.4
			c-0.1-0.6-0.6-1.1-1.3-1.1c-0.9,0-1.5,0.8-1.5,1.9c0,1,0.5,1.8,1.5,1.8c0.6,0,1.2-0.4,1.3-1.1c0-0.1,0-0.2,0-0.4V588.2z"/>
		<path class="st15" d="M172.7,588.8c0,1.2,0.8,1.7,1.7,1.7c0.6,0,1-0.1,1.4-0.3l0.2,0.6c-0.3,0.1-0.9,0.3-1.7,0.3
			c-1.5,0-2.5-1-2.5-2.5s0.9-2.7,2.3-2.7c1.6,0,2.1,1.4,2.1,2.3c0,0.2,0,0.3,0,0.4h-3.5V588.8z M175.3,588.1c0-0.6-0.2-1.5-1.3-1.5
			c-0.9,0-1.3,0.8-1.4,1.5H175.3z"/>
		<path class="st15" d="M182.5,587.5c0-0.5,0-0.9,0-1.3h0.8v0.8l0,0c0.3-0.5,0.7-0.9,1.6-0.9c0.7,0,1.2,0.4,1.4,1l0,0
			c0.2-0.3,0.4-0.5,0.6-0.6c0.3-0.2,0.6-0.4,1.1-0.4c0.7,0,1.6,0.4,1.6,2.2v2.9h-0.9v-2.8c0-1-0.4-1.5-1.1-1.5
			c-0.5,0-0.9,0.4-1.1,0.8c0,0.1-0.1,0.3-0.1,0.5v3.1h-0.9v-3c0-0.8-0.4-1.4-1-1.4s-1,0.5-1.1,0.9c-0.1,0.1-0.1,0.3-0.1,0.4v3h-0.9
			L182.5,587.5L182.5,587.5z"/>
		<path class="st15" d="M193.8,591.1l-0.1-0.6l0,0c-0.3,0.4-0.8,0.7-1.5,0.7c-1,0-1.5-0.7-1.5-1.4c0-1.2,1.1-1.9,3-1.9v-0.1
			c0-0.4-0.1-1.2-1.1-1.2c-0.5,0-0.9,0.1-1.3,0.4l-0.2-0.6c0.4-0.3,1-0.4,1.6-0.4c1.5,0,1.9,1,1.9,2v1.9c0,0.4,0,0.9,0.1,1.2
			L193.8,591.1L193.8,591.1z M193.7,588.6c-1,0-2.1,0.2-2.1,1.1c0,0.6,0.4,0.9,0.9,0.9c0.6,0,1.1-0.4,1.2-0.8c0-0.1,0.1-0.2,0.1-0.3
			L193.7,588.6L193.7,588.6z"/>
		<path class="st15" d="M196,587.7c0-0.6,0-1.1,0-1.6h0.8v1l0,0c0.2-0.7,0.8-1.1,1.4-1.1c0.1,0,0.2,0,0.3,0v0.9c-0.1,0-0.2,0-0.3,0
			c-0.6,0-1.1,0.5-1.2,1.2c0,0.1,0,0.3,0,0.4v2.7h-1V587.7z"/>
		<path class="st15" d="M202.9,590.9c-0.2,0.1-0.7,0.3-1.3,0.3l-0.3,0.4c0.4,0.1,0.7,0.3,0.7,0.7c0,0.6-0.5,0.8-1.1,0.8
			c-0.3,0-0.5-0.1-0.7-0.2l0.2-0.4c0.2,0.1,0.4,0.2,0.6,0.2c0.2,0,0.4-0.1,0.4-0.3c0-0.3-0.3-0.4-0.8-0.4l0.4-0.8
			c-1.3-0.2-2.1-1.1-2.1-2.5c0-1.5,1.1-2.6,2.7-2.6c0.5,0,1,0.1,1.3,0.3l-0.2,0.7c-0.2-0.1-0.6-0.2-1.1-0.2c-1.1,0-1.8,0.8-1.8,1.9
			c0,1.2,0.7,1.9,1.7,1.9c0.5,0,0.9-0.1,1.1-0.2L202.9,590.9z"/>
		<path class="st15" d="M210.2,584.7c0,0.3-0.2,0.6-0.6,0.6c-0.3,0-0.5-0.2-0.5-0.6c0-0.3,0.2-0.6,0.6-0.6
			C209.9,584.2,210.2,584.4,210.2,584.7z M209.2,591.1v-5h0.9v5H209.2z"/>
		<path class="st15" d="M216.7,587.5c0-0.5,0-0.9,0-1.3h0.8v0.8l0,0c0.3-0.5,0.7-0.9,1.6-0.9c0.7,0,1.2,0.4,1.4,1l0,0
			c0.2-0.3,0.4-0.5,0.6-0.6c0.3-0.2,0.6-0.4,1.1-0.4c0.7,0,1.6,0.4,1.6,2.2v2.9h-0.9v-2.8c0-1-0.4-1.5-1.1-1.5
			c-0.5,0-0.9,0.4-1.1,0.8c0,0.1-0.1,0.3-0.1,0.5v3.1h-0.9v-3c0-0.8-0.4-1.4-1-1.4s-1,0.5-1.1,0.9c-0.1,0.1-0.1,0.3-0.1,0.4v3h-0.9
			L216.7,587.5L216.7,587.5z"/>
		<path class="st15" d="M228.1,591.1l-0.1-0.6l0,0c-0.3,0.4-0.8,0.7-1.5,0.7c-1,0-1.5-0.7-1.5-1.4c0-1.2,1.1-1.9,3-1.9v-0.1
			c0-0.4-0.1-1.2-1.1-1.2c-0.5,0-0.9,0.1-1.3,0.4l-0.2-0.6c0.4-0.3,1-0.4,1.6-0.4c1.5,0,1.9,1,1.9,2v1.9c0,0.4,0,0.9,0.1,1.2
			L228.1,591.1L228.1,591.1z M227.9,588.6c-1,0-2.1,0.2-2.1,1.1c0,0.6,0.4,0.9,0.9,0.9c0.6,0,1.1-0.4,1.2-0.8c0-0.1,0.1-0.2,0.1-0.3
			L227.9,588.6L227.9,588.6z"/>
		<path class="st15" d="M231.3,584.7c0,0.3-0.2,0.6-0.6,0.6c-0.3,0-0.5-0.2-0.5-0.6c0-0.3,0.2-0.6,0.6-0.6
			C231.1,584.2,231.3,584.4,231.3,584.7z M230.3,591.1v-5h0.9v5H230.3z"/>
		<path class="st15" d="M237,586.1c0,0.4,0,0.8,0,1.4v2.9c0,1.1-0.2,1.8-0.7,2.3s-1.2,0.6-1.8,0.6s-1.3-0.1-1.7-0.4l0.2-0.7
			c0.3,0.2,0.8,0.4,1.5,0.4c0.9,0,1.6-0.5,1.6-1.7v-0.6l0,0c-0.3,0.5-0.8,0.8-1.6,0.8c-1.2,0-2.1-1.1-2.1-2.4c0-1.7,1.1-2.6,2.2-2.6
			c0.9,0,1.3,0.5,1.6,0.9l0,0v-0.8h0.8V586.1z M236,588.1c0-0.2,0-0.3-0.1-0.4c-0.2-0.5-0.6-1-1.3-1c-0.9,0-1.5,0.7-1.5,1.9
			c0,1,0.5,1.8,1.5,1.8c0.6,0,1.1-0.3,1.3-0.9c0.1-0.2,0.1-0.3,0.1-0.5V588.1z"/>
		<path class="st15" d="M243.6,587.5c0-0.5,0-0.9,0-1.3h0.8l0.1,0.8l0,0c0.2-0.5,0.8-0.9,1.6-0.9c0.7,0,1.8,0.4,1.8,2.1v3H247v-2.9
			c0-0.8-0.3-1.5-1.2-1.5c-0.6,0-1.1,0.4-1.2,0.9c0,0.1-0.1,0.3-0.1,0.4v3h-0.9L243.6,587.5L243.6,587.5z"/>
		<path class="st15" d="M253.8,588.6c0,1.8-1.3,2.6-2.5,2.6c-1.3,0-2.4-1-2.4-2.6c0-1.7,1.1-2.6,2.5-2.6S253.8,587.1,253.8,588.6z
			 M249.9,588.6c0,1.1,0.6,1.9,1.5,1.9s1.5-0.8,1.5-1.9c0-0.8-0.4-1.9-1.5-1.9S249.9,587.7,249.9,588.6z"/>
		<path class="st15" d="M260.6,588.8c0,1.2,0.8,1.7,1.7,1.7c0.6,0,1-0.1,1.4-0.3l0.2,0.6c-0.3,0.1-0.9,0.3-1.7,0.3
			c-1.5,0-2.5-1-2.5-2.5s0.9-2.7,2.3-2.7c1.6,0,2.1,1.4,2.1,2.3c0,0.2,0,0.3,0,0.4h-3.5V588.8z M263.3,588.1c0-0.6-0.2-1.5-1.3-1.5
			c-0.9,0-1.3,0.8-1.4,1.5H263.3z"/>
		<path class="st15" d="M265.1,590.2c0.3,0.2,0.7,0.4,1.2,0.4c0.7,0,1-0.3,1-0.7s-0.3-0.7-0.9-0.9c-0.9-0.3-1.3-0.8-1.3-1.4
			c0-0.8,0.6-1.5,1.7-1.5c0.5,0,0.9,0.1,1.2,0.3l-0.2,0.7c-0.2-0.1-0.6-0.3-1-0.3c-0.5,0-0.8,0.3-0.8,0.7s0.3,0.6,0.9,0.8
			c0.9,0.3,1.3,0.8,1.3,1.5c0,0.9-0.7,1.5-1.9,1.5c-0.5,0-1.1-0.1-1.4-0.3L265.1,590.2z"/>
		<path class="st15" d="M270.4,584.7v1.4h1.3v0.7h-1.3v2.7c0,0.6,0.2,1,0.7,1c0.2,0,0.4,0,0.5-0.1v0.7c-0.2,0.1-0.5,0.1-0.8,0.1
			c-0.4,0-0.8-0.1-1-0.4c-0.3-0.3-0.4-0.7-0.4-1.3v-2.7h-0.8v-0.7h0.8v-1.2L270.4,584.7z"/>
		<path class="st15" d="M275.5,591.1l-0.1-0.6l0,0c-0.3,0.4-0.8,0.7-1.5,0.7c-1,0-1.5-0.7-1.5-1.4c0-1.2,1.1-1.9,3-1.9v-0.1
			c0-0.4-0.1-1.2-1.1-1.2c-0.5,0-0.9,0.1-1.3,0.4l-0.2-0.6c0.4-0.3,1-0.4,1.6-0.4c1.5,0,1.9,1,1.9,2v1.9c0,0.4,0,0.9,0.1,1.2
			L275.5,591.1L275.5,591.1z M275.4,588.6c-1,0-2.1,0.2-2.1,1.1c0,0.6,0.4,0.9,0.9,0.9c0.6,0,1.1-0.4,1.2-0.8c0-0.1,0.1-0.2,0.1-0.3
			v-0.9H275.4z"/>
		<path class="st15" d="M277.7,587.5c0-0.5,0-0.9,0-1.3h0.8l0.1,0.8l0,0c0.2-0.5,0.8-0.9,1.6-0.9c0.7,0,1.8,0.4,1.8,2.1v3h-0.9v-2.9
			c0-0.8-0.3-1.5-1.2-1.5c-0.6,0-1.1,0.4-1.2,0.9c0,0.1-0.1,0.3-0.1,0.4v3h-0.9L277.7,587.5L277.7,587.5z"/>
		<path class="st15" d="M292.9,583.8v6c0,0.4,0,0.9,0,1.3h-0.8v-0.9l0,0c-0.3,0.6-0.9,1-1.7,1c-1.2,0-2.1-1-2.1-2.5
			c0-1.7,1-2.7,2.2-2.7c0.8,0,1.3,0.4,1.5,0.8l0,0v-3L292.9,583.8L292.9,583.8z M292,588.2c0-0.1,0-0.3,0-0.4
			c-0.1-0.6-0.6-1.1-1.3-1.1c-0.9,0-1.5,0.8-1.5,1.9c0,1,0.5,1.8,1.5,1.8c0.6,0,1.2-0.4,1.3-1.1c0-0.1,0-0.2,0-0.4V588.2z"/>
		<path class="st15" d="M295.4,584.7c0,0.3-0.2,0.6-0.6,0.6c-0.3,0-0.5-0.2-0.5-0.6c0-0.3,0.2-0.6,0.6-0.6
			C295.2,584.2,295.4,584.4,295.4,584.7z M294.4,591.1v-5h0.9v5H294.4z"/>
		<path class="st15" d="M296.7,590.2c0.3,0.2,0.7,0.4,1.2,0.4c0.7,0,1-0.3,1-0.7s-0.3-0.7-0.9-0.9c-0.9-0.3-1.3-0.8-1.3-1.4
			c0-0.8,0.6-1.5,1.7-1.5c0.5,0,0.9,0.1,1.2,0.3l-0.2,0.7c-0.2-0.1-0.6-0.3-1-0.3c-0.5,0-0.8,0.3-0.8,0.7s0.3,0.6,0.9,0.8
			c0.9,0.3,1.3,0.8,1.3,1.5c0,0.9-0.7,1.5-1.9,1.5c-0.5,0-1.1-0.1-1.4-0.3L296.7,590.2z"/>
		<path class="st15" d="M300.9,587.8c0-0.6,0-1.2,0-1.6h0.8v0.9l0,0c0.4-0.6,1-1,1.8-1c1.2,0,2.1,1,2.1,2.5c0,1.8-1.1,2.7-2.3,2.7
			c-0.7,0-1.2-0.3-1.5-0.8l0,0v2.7h-0.9V587.8z M301.8,589.1c0,0.1,0,0.3,0,0.4c0.2,0.6,0.7,1.1,1.4,1.1c1,0,1.5-0.8,1.5-1.9
			c0-1-0.5-1.9-1.5-1.9c-0.6,0-1.2,0.4-1.4,1.1c0,0.1-0.1,0.2-0.1,0.4v0.8H301.8z"/>
		<path class="st15" d="M311.3,588.6c0,1.8-1.3,2.6-2.5,2.6c-1.3,0-2.4-1-2.4-2.6c0-1.7,1.1-2.6,2.5-2.6S311.3,587.1,311.3,588.6z
			 M307.3,588.6c0,1.1,0.6,1.9,1.5,1.9s1.5-0.8,1.5-1.9c0-0.8-0.4-1.9-1.5-1.9S307.3,587.7,307.3,588.6z"/>
		<path class="st15" d="M312.4,587.5c0-0.5,0-0.9,0-1.3h0.8l0.1,0.8l0,0c0.2-0.5,0.8-0.9,1.6-0.9c0.7,0,1.8,0.4,1.8,2.1v3h-0.9v-2.9
			c0-0.8-0.3-1.5-1.2-1.5c-0.6,0-1.1,0.4-1.2,0.9c0,0.1-0.1,0.3-0.1,0.4v3h-0.9L312.4,587.5L312.4,587.5z"/>
		<path class="st15" d="M319.1,584.7c0,0.3-0.2,0.6-0.6,0.6c-0.3,0-0.5-0.2-0.5-0.6c0-0.3,0.2-0.6,0.6-0.6
			C318.9,584.2,319.1,584.4,319.1,584.7z M318.1,591.1v-5h0.9v5H318.1z"/>
		<path class="st15" d="M320.5,591.1c0-0.3,0-0.8,0-1.3v-6h0.9v3.1l0,0c0.3-0.6,0.9-0.9,1.7-0.9c1.2,0,2.1,1,2.1,2.5
			c0,1.8-1.1,2.7-2.2,2.7c-0.7,0-1.3-0.3-1.7-0.9l0,0v0.8L320.5,591.1L320.5,591.1z M321.4,589.1c0,0.1,0,0.2,0,0.3
			c0.2,0.6,0.7,1.1,1.4,1.1c0.9,0,1.5-0.8,1.5-1.9c0-1-0.5-1.9-1.5-1.9c-0.6,0-1.2,0.4-1.4,1.1c0,0.1-0.1,0.2-0.1,0.4v0.9H321.4z"/>
		<path class="st15" d="M326.4,583.8h0.9v7.3h-0.9V583.8z"/>
		<path class="st15" d="M329.3,588.8c0,1.2,0.8,1.7,1.7,1.7c0.6,0,1-0.1,1.4-0.3l0.2,0.6c-0.3,0.1-0.9,0.3-1.7,0.3
			c-1.5,0-2.5-1-2.5-2.5s0.9-2.7,2.3-2.7c1.6,0,2.1,1.4,2.1,2.3c0,0.2,0,0.3,0,0.4h-3.5V588.8z M332,588.1c0-0.6-0.2-1.5-1.3-1.5
			c-0.9,0-1.3,0.8-1.4,1.5H332z"/>
		<path class="st15" d="M333.9,590.2c0.3,0.2,0.7,0.4,1.2,0.4c0.7,0,1-0.3,1-0.7s-0.3-0.7-0.9-0.9c-0.9-0.3-1.3-0.8-1.3-1.4
			c0-0.8,0.6-1.5,1.7-1.5c0.5,0,0.9,0.1,1.2,0.3l-0.2,0.7c-0.2-0.1-0.6-0.3-1-0.3c-0.5,0-0.8,0.3-0.8,0.7s0.3,0.6,0.9,0.8
			c0.9,0.3,1.3,0.8,1.3,1.5c0,0.9-0.7,1.5-1.9,1.5c-0.5,0-1.1-0.1-1.4-0.3L333.9,590.2z"/>
		<path class="st15" d="M337.9,592.8v-0.2c0.3-0.1,0.6-0.3,0.7-0.5c0.2-0.2,0.3-0.5,0.3-0.8v-0.2h-0.1l-0.4,0.1
			c-0.4,0-0.5-0.2-0.5-0.6c0-0.2,0.1-0.3,0.2-0.4c0.1-0.1,0.3-0.2,0.5-0.2c0.3,0,0.5,0.1,0.6,0.4c0.1,0.2,0.2,0.4,0.2,0.7
			C339.4,591.9,338.9,592.5,337.9,592.8z"/>
		<path class="st15" d="M350.1,583.8v6c0,0.4,0,0.9,0,1.3h-0.8v-0.9l0,0c-0.3,0.6-0.9,1-1.7,1c-1.2,0-2.1-1-2.1-2.5
			c0-1.7,1-2.7,2.2-2.7c0.8,0,1.3,0.4,1.5,0.8l0,0v-3L350.1,583.8L350.1,583.8z M349.2,588.2c0-0.1,0-0.3,0-0.4
			c-0.1-0.6-0.6-1.1-1.3-1.1c-0.9,0-1.5,0.8-1.5,1.9c0,1,0.5,1.8,1.5,1.8c0.6,0,1.2-0.4,1.3-1.1c0-0.1,0-0.2,0-0.4V588.2z"/>
		<path class="st15" d="M352.1,588.8c0,1.2,0.8,1.7,1.7,1.7c0.6,0,1-0.1,1.4-0.3l0.2,0.6c-0.3,0.1-0.9,0.3-1.7,0.3
			c-1.5,0-2.5-1-2.5-2.5s0.9-2.7,2.3-2.7c1.6,0,2.1,1.4,2.1,2.3c0,0.2,0,0.3,0,0.4h-3.5V588.8z M354.8,588.1c0-0.6-0.2-1.5-1.3-1.5
			c-0.9,0-1.3,0.8-1.4,1.5H354.8z"/>
		<path class="st15" d="M361,586.1c0,0.4,0,0.8,0,1.4v2.9c0,1.1-0.2,1.8-0.7,2.3s-1.2,0.6-1.8,0.6c-0.6,0-1.3-0.1-1.7-0.4l0.2-0.7
			c0.3,0.2,0.8,0.4,1.5,0.4c0.9,0,1.6-0.5,1.6-1.7v-0.6l0,0c-0.3,0.5-0.8,0.8-1.6,0.8c-1.2,0-2.1-1.1-2.1-2.4c0-1.7,1.1-2.6,2.2-2.6
			c0.9,0,1.3,0.5,1.6,0.9l0,0v-0.8h0.8V586.1z M360.1,588.1c0-0.2,0-0.3-0.1-0.4c-0.2-0.5-0.6-1-1.3-1c-0.9,0-1.5,0.7-1.5,1.9
			c0,1,0.5,1.8,1.5,1.8c0.6,0,1.1-0.3,1.3-0.9c0.1-0.2,0.1-0.3,0.1-0.5V588.1z"/>
		<path class="st15" d="M366.7,589.8c0,0.5,0,1,0,1.4h-0.8l-0.1-0.8l0,0c-0.2,0.4-0.8,0.9-1.6,0.9c-0.8,0-1.7-0.4-1.7-2.2v-2.9h0.9
			v2.8c0,0.9,0.3,1.6,1.1,1.6c0.6,0,1-0.4,1.2-0.8c0.1-0.1,0.1-0.3,0.1-0.5v-3.1h0.9V589.8z"/>
		<path class="st15" d="M369.3,584.7v1.4h1.3v0.7h-1.3v2.7c0,0.6,0.2,1,0.7,1c0.2,0,0.4,0,0.5-0.1v0.7c-0.2,0.1-0.5,0.1-0.8,0.1
			c-0.4,0-0.8-0.1-1-0.4c-0.3-0.3-0.3-0.7-0.3-1.3v-2.7h-0.8v-0.7h0.8v-1.2L369.3,584.7z"/>
		<path class="st15" d="M379.5,591.1l-0.1-0.6l0,0c-0.3,0.4-0.8,0.7-1.5,0.7c-1,0-1.5-0.7-1.5-1.4c0-1.2,1.1-1.9,3-1.9v-0.1
			c0-0.4-0.1-1.2-1.1-1.2c-0.5,0-0.9,0.1-1.3,0.4l-0.2-0.6c0.4-0.3,1-0.4,1.6-0.4c1.5,0,1.9,1,1.9,2v1.9c0,0.4,0,0.9,0.1,1.2
			L379.5,591.1L379.5,591.1z M379.4,588.6c-1,0-2.1,0.2-2.1,1.1c0,0.6,0.4,0.9,0.9,0.9c0.6,0,1.1-0.4,1.2-0.8c0-0.1,0.1-0.2,0.1-0.3
			v-0.9H379.4z"/>
		<path class="st15" d="M381.7,583.8h0.9v7.3h-0.9V583.8z"/>
		<path class="st15" d="M390.4,584.7v1.4h1.3v0.7h-1.3v2.7c0,0.6,0.2,1,0.7,1c0.2,0,0.4,0,0.5-0.1v0.7c-0.2,0.1-0.5,0.1-0.8,0.1
			c-0.4,0-0.8-0.1-1-0.4c-0.3-0.3-0.3-0.7-0.3-1.3v-2.7h-0.8v-0.7h0.8v-1.2L390.4,584.7z"/>
		<path class="st15" d="M395.5,591.1l-0.1-0.6l0,0c-0.3,0.4-0.8,0.7-1.5,0.7c-1,0-1.5-0.7-1.5-1.4c0-1.2,1.1-1.9,3-1.9v-0.1
			c0-0.4-0.1-1.2-1.1-1.2c-0.5,0-0.9,0.1-1.3,0.4l-0.2-0.6c0.4-0.3,1-0.4,1.6-0.4c1.5,0,1.9,1,1.9,2v1.9c0,0.4,0,0.9,0.1,1.2
			L395.5,591.1L395.5,591.1z M395.3,588.6c-1,0-2.1,0.2-2.1,1.1c0,0.6,0.4,0.9,0.9,0.9c0.6,0,1.1-0.4,1.2-0.8c0-0.1,0.1-0.2,0.1-0.3
			v-0.9H395.3z"/>
		<path class="st15" d="M397.7,587.5c0-0.5,0-0.9,0-1.3h0.8l0.1,0.8l0,0c0.2-0.5,0.8-0.9,1.6-0.9c0.7,0,1.8,0.4,1.8,2.1v3h-1v-2.9
			c0-0.8-0.3-1.5-1.2-1.5c-0.6,0-1.1,0.4-1.2,0.9c0,0.1-0.1,0.3-0.1,0.4v3h-0.9v-3.6H397.7z"/>
		<path class="st15" d="M406.9,590.9c-0.2,0.1-0.8,0.3-1.4,0.3c-1.5,0-2.5-1-2.5-2.5s1.1-2.6,2.7-2.6c0.5,0,1,0.1,1.3,0.3l-0.2,0.7
			c-0.2-0.1-0.6-0.2-1.1-0.2c-1.1,0-1.8,0.8-1.8,1.9c0,1.2,0.7,1.9,1.7,1.9c0.5,0,0.9-0.1,1.1-0.2L406.9,590.9z"/>
		<path class="st15" d="M410.8,591.1l-0.1-0.6l0,0c-0.3,0.4-0.8,0.7-1.5,0.7c-1,0-1.5-0.7-1.5-1.4c0-1.2,1.1-1.9,3-1.9v-0.1
			c0-0.4-0.1-1.2-1.1-1.2c-0.5,0-0.9,0.1-1.3,0.4l-0.2-0.6c0.4-0.3,1-0.4,1.6-0.4c1.5,0,1.9,1,1.9,2v1.9c0,0.4,0,0.9,0.1,1.2
			L410.8,591.1L410.8,591.1z M410.6,588.6c-1,0-2.1,0.2-2.1,1.1c0,0.6,0.4,0.9,0.9,0.9c0.6,0,1.1-0.4,1.2-0.8c0-0.1,0.1-0.2,0.1-0.3
			v-0.9H410.6z"/>
		<path class="st15" d="M413,587.5c0-0.5,0-0.9,0-1.3h0.8v0.8l0,0c0.3-0.5,0.7-0.9,1.6-0.9c0.7,0,1.2,0.4,1.4,1l0,0
			c0.2-0.3,0.3-0.5,0.6-0.6c0.3-0.2,0.6-0.4,1.1-0.4c0.7,0,1.6,0.4,1.6,2.2v2.9h-0.9v-2.8c0-1-0.4-1.5-1.1-1.5
			c-0.5,0-0.9,0.4-1.1,0.8c0,0.1-0.1,0.3-0.1,0.5v3.1H416v-3c0-0.8-0.3-1.4-1-1.4c-0.6,0-1,0.5-1.1,0.9c-0.1,0.1-0.1,0.3-0.1,0.4v3
			H413V587.5z"/>
		<path class="st15" d="M422.1,588.8c0,1.2,0.8,1.7,1.7,1.7c0.6,0,1-0.1,1.4-0.3l0.2,0.6c-0.3,0.1-0.9,0.3-1.7,0.3
			c-1.5,0-2.5-1-2.5-2.5s0.9-2.7,2.3-2.7c1.6,0,2.1,1.4,2.1,2.3c0,0.2,0,0.3,0,0.4h-3.5V588.8z M424.7,588.1c0-0.6-0.2-1.5-1.3-1.5
			c-0.9,0-1.3,0.8-1.4,1.5H424.7z"/>
		<path class="st15" d="M426.7,587.5c0-0.5,0-0.9,0-1.3h0.8l0.1,0.8l0,0c0.2-0.5,0.8-0.9,1.6-0.9c0.7,0,1.8,0.4,1.8,2.1v3h-1v-2.9
			c0-0.8-0.3-1.5-1.2-1.5c-0.6,0-1.1,0.4-1.2,0.9c0,0.1-0.1,0.3-0.1,0.4v3h-0.9v-3.6H426.7z"/>
		<path class="st15" d="M433.5,584.7v1.4h1.3v0.7h-1.3v2.7c0,0.6,0.2,1,0.7,1c0.2,0,0.4,0,0.5-0.1v0.7c-0.2,0.1-0.5,0.1-0.8,0.1
			c-0.4,0-0.8-0.1-1-0.4c-0.3-0.3-0.4-0.7-0.4-1.3v-2.7h-0.8v-0.7h0.8v-1.2L433.5,584.7z"/>
		<path class="st15" d="M445.3,583.8v6c0,0.4,0,0.9,0,1.3h-0.8v-0.9l0,0c-0.3,0.6-0.9,1-1.7,1c-1.2,0-2.1-1-2.1-2.5
			c0-1.7,1-2.7,2.2-2.7c0.8,0,1.3,0.4,1.5,0.8l0,0v-3L445.3,583.8L445.3,583.8z M444.4,588.2c0-0.1,0-0.3,0-0.4
			c-0.1-0.6-0.6-1.1-1.3-1.1c-0.9,0-1.5,0.8-1.5,1.9c0,1,0.5,1.8,1.5,1.8c0.6,0,1.2-0.4,1.3-1.1c0-0.1,0-0.2,0-0.4V588.2z"/>
		<path class="st15" d="M446.5,584.3c0-0.2,0.1-0.3,0.2-0.4c0.1-0.1,0.3-0.2,0.4-0.2c0.3,0,0.5,0.1,0.7,0.4c0.2,0.2,0.3,0.5,0.3,0.8
			c0,0.4-0.2,0.8-0.5,1.1c-0.3,0.4-0.7,0.5-1,0.5l-0.1-0.1c0.1-0.1,0.2-0.2,0.4-0.4c0.2-0.1,0.4-0.2,0.4-0.3
			c0.1-0.2,0.2-0.4,0.2-0.6c0-0.1,0-0.3-0.1-0.5c-0.1,0.1-0.2,0.1-0.3,0.1c-0.2,0-0.3-0.1-0.4-0.2
			C446.6,584.6,446.5,584.4,446.5,584.3z"/>
		<path class="st15" d="M449.7,588.8c0,1.2,0.8,1.7,1.7,1.7c0.6,0,1-0.1,1.4-0.3l0.2,0.6c-0.3,0.1-0.9,0.3-1.7,0.3
			c-1.5,0-2.5-1-2.5-2.5s0.9-2.7,2.3-2.7c1.6,0,2.1,1.4,2.1,2.3c0,0.2,0,0.3,0,0.4h-3.5V588.8z M452.4,588.1c0-0.6-0.2-1.5-1.3-1.5
			c-0.9,0-1.3,0.8-1.4,1.5H452.4z"/>
		<path class="st15" d="M454.3,590.2c0.3,0.2,0.7,0.4,1.2,0.4c0.7,0,1-0.3,1-0.7s-0.3-0.7-0.9-0.9c-0.9-0.3-1.3-0.8-1.3-1.4
			c0-0.8,0.6-1.5,1.7-1.5c0.5,0,0.9,0.1,1.2,0.3l-0.2,0.7c-0.2-0.1-0.6-0.3-1-0.3c-0.5,0-0.8,0.3-0.8,0.7s0.3,0.6,0.9,0.8
			c0.9,0.3,1.3,0.8,1.3,1.5c0,0.9-0.7,1.5-1.9,1.5c-0.5,0-1.1-0.1-1.4-0.3L454.3,590.2z"/>
		<path class="st15" d="M459.5,584.7v1.4h1.3v0.7h-1.3v2.7c0,0.6,0.2,1,0.7,1c0.2,0,0.4,0,0.5-0.1v0.7c-0.2,0.1-0.5,0.1-0.8,0.1
			c-0.4,0-0.8-0.1-1-0.4c-0.3-0.3-0.4-0.7-0.4-1.3v-2.7h-0.8v-0.7h0.8v-1.2L459.5,584.7z"/>
		<path class="st15" d="M464.6,591.1l-0.1-0.6l0,0c-0.3,0.4-0.8,0.7-1.5,0.7c-1,0-1.5-0.7-1.5-1.4c0-1.2,1.1-1.9,3-1.9v-0.1
			c0-0.4-0.1-1.2-1.1-1.2c-0.5,0-0.9,0.1-1.3,0.4l-0.2-0.6c0.4-0.3,1-0.4,1.6-0.4c1.5,0,1.9,1,1.9,2v1.9c0,0.4,0,0.9,0.1,1.2
			L464.6,591.1L464.6,591.1z M464.5,588.6c-1,0-2.1,0.2-2.1,1.1c0,0.6,0.4,0.9,0.9,0.9c0.6,0,1.1-0.4,1.2-0.8c0-0.1,0.1-0.2,0.1-0.3
			v-0.9H464.5z"/>
		<path class="st15" d="M466.8,591.1c0-0.3,0-0.8,0-1.3v-6h0.9v3.1l0,0c0.3-0.6,0.9-0.9,1.7-0.9c1.2,0,2.1,1,2.1,2.5
			c0,1.8-1.1,2.7-2.2,2.7c-0.7,0-1.3-0.3-1.7-0.9l0,0v0.8L466.8,591.1L466.8,591.1z M467.7,589.1c0,0.1,0,0.2,0,0.3
			c0.2,0.6,0.7,1.1,1.4,1.1c0.9,0,1.5-0.8,1.5-1.9c0-1-0.5-1.9-1.5-1.9c-0.6,0-1.2,0.4-1.4,1.1c0,0.1-0.1,0.2-0.1,0.4v0.9H467.7z"/>
		<path class="st15" d="M472.7,583.8h0.9v7.3h-0.9V583.8z"/>
		<path class="st15" d="M476.1,584.7c0,0.3-0.2,0.6-0.6,0.6c-0.3,0-0.5-0.2-0.5-0.6c0-0.3,0.2-0.6,0.6-0.6
			C475.9,584.2,476.1,584.4,476.1,584.7z M475.1,591.1v-5h0.9v5H475.1z"/>
		<path class="st15" d="M477.5,587.5c0-0.5,0-0.9,0-1.3h0.8v0.8l0,0c0.3-0.5,0.7-0.9,1.6-0.9c0.7,0,1.2,0.4,1.4,1l0,0
			c0.2-0.3,0.4-0.5,0.6-0.6c0.3-0.2,0.6-0.4,1.1-0.4c0.7,0,1.6,0.4,1.6,2.2v2.9h-0.9v-2.8c0-1-0.4-1.5-1.1-1.5
			c-0.5,0-0.9,0.4-1.1,0.8c0,0.1-0.1,0.3-0.1,0.5v3.1h-0.9v-3c0-0.8-0.4-1.4-1-1.4s-1,0.5-1.1,0.9c-0.1,0.1-0.1,0.3-0.1,0.4v3h-0.9
			v-3.7H477.5z"/>
		<path class="st15" d="M486.6,588.8c0,1.2,0.8,1.7,1.7,1.7c0.6,0,1-0.1,1.4-0.3l0.2,0.6c-0.3,0.1-0.9,0.3-1.7,0.3
			c-1.5,0-2.5-1-2.5-2.5s0.9-2.7,2.3-2.7c1.6,0,2.1,1.4,2.1,2.3c0,0.2,0,0.3,0,0.4h-3.5V588.8z M489.3,588.1c0-0.6-0.2-1.5-1.3-1.5
			c-0.9,0-1.3,0.8-1.4,1.5H489.3z"/>
		<path class="st15" d="M491.3,587.5c0-0.5,0-0.9,0-1.3h0.8l0.1,0.8l0,0c0.2-0.5,0.8-0.9,1.6-0.9c0.7,0,1.8,0.4,1.8,2.1v3h-0.9v-2.9
			c0-0.8-0.3-1.5-1.2-1.5c-0.6,0-1.1,0.4-1.2,0.9c0,0.1-0.1,0.3-0.1,0.4v3h-0.9L491.3,587.5L491.3,587.5z"/>
		<path class="st15" d="M498.1,584.7v1.4h1.3v0.7h-1.3v2.7c0,0.6,0.2,1,0.7,1c0.2,0,0.4,0,0.5-0.1v0.7c-0.2,0.1-0.5,0.1-0.8,0.1
			c-0.4,0-0.8-0.1-1-0.4c-0.3-0.3-0.4-0.7-0.4-1.3v-2.7h-0.8v-0.7h0.8v-1.2L498.1,584.7z"/>
		<path class="st15" d="M500.3,590.2c0.3,0.2,0.7,0.4,1.2,0.4c0.7,0,1-0.3,1-0.7s-0.3-0.7-0.9-0.9c-0.9-0.3-1.3-0.8-1.3-1.4
			c0-0.8,0.6-1.5,1.7-1.5c0.5,0,0.9,0.1,1.2,0.3l-0.2,0.7c-0.2-0.1-0.6-0.3-1-0.3c-0.5,0-0.8,0.3-0.8,0.7s0.3,0.6,0.9,0.8
			c0.9,0.3,1.3,0.8,1.3,1.5c0,0.9-0.7,1.5-1.9,1.5c-0.5,0-1.1-0.1-1.4-0.3L500.3,590.2z"/>
		<path class="st15" d="M509.6,587.8c0-0.6,0-1.2,0-1.6h0.8v0.9l0,0c0.4-0.6,1-1,1.8-1c1.2,0,2.1,1,2.1,2.5c0,1.8-1.1,2.7-2.3,2.7
			c-0.7,0-1.2-0.3-1.5-0.8l0,0v2.7h-0.9V587.8z M510.5,589.1c0,0.1,0,0.3,0,0.4c0.2,0.6,0.7,1.1,1.4,1.1c1,0,1.5-0.8,1.5-1.9
			c0-1-0.5-1.9-1.5-1.9c-0.6,0-1.2,0.4-1.4,1.1c0,0.1-0.1,0.2-0.1,0.4L510.5,589.1L510.5,589.1z"/>
		<path class="st15" d="M516,588.8c0,1.2,0.8,1.7,1.7,1.7c0.6,0,1-0.1,1.4-0.3l0.2,0.6c-0.3,0.1-0.9,0.3-1.7,0.3
			c-1.5,0-2.5-1-2.5-2.5s0.9-2.7,2.3-2.7c1.6,0,2.1,1.4,2.1,2.3c0,0.2,0,0.3,0,0.4H516V588.8z M518.7,588.1c0-0.6-0.2-1.5-1.3-1.5
			c-0.9,0-1.3,0.8-1.4,1.5H518.7z"/>
		<path class="st15" d="M520.7,587.7c0-0.6,0-1.1,0-1.6h0.8v1l0,0c0.2-0.7,0.8-1.1,1.4-1.1c0.1,0,0.2,0,0.3,0v0.9
			c-0.1,0-0.2,0-0.3,0c-0.6,0-1.1,0.5-1.2,1.2c0,0.1,0,0.3,0,0.4v2.7h-0.9L520.7,587.7L520.7,587.7z"/>
		<path class="st15" d="M529.2,583.8h0.9v7.3h-0.9V583.8z"/>
		<path class="st15" d="M534.4,591.1l-0.1-0.6l0,0c-0.3,0.4-0.8,0.7-1.5,0.7c-1,0-1.5-0.7-1.5-1.4c0-1.2,1.1-1.9,3-1.9v-0.1
			c0-0.4-0.1-1.2-1.1-1.2c-0.5,0-0.9,0.1-1.3,0.4l-0.2-0.6c0.4-0.3,1-0.4,1.6-0.4c1.5,0,1.9,1,1.9,2v1.9c0,0.4,0,0.9,0.1,1.2
			L534.4,591.1L534.4,591.1z M534.2,588.6c-1,0-2.1,0.2-2.1,1.1c0,0.6,0.4,0.9,0.9,0.9c0.6,0,1.1-0.4,1.2-0.8c0-0.1,0.1-0.2,0.1-0.3
			v-0.9H534.2z"/>
		<path class="st15" d="M546,586.1c0,0.4,0,0.8,0,1.4v2.9c0,1.1-0.2,1.8-0.7,2.3s-1.2,0.6-1.8,0.6s-1.3-0.1-1.7-0.4l0.2-0.7
			c0.3,0.2,0.8,0.4,1.5,0.4c0.9,0,1.6-0.5,1.6-1.7v-0.6l0,0c-0.3,0.5-0.8,0.8-1.6,0.8c-1.2,0-2.1-1.1-2.1-2.4c0-1.7,1.1-2.6,2.2-2.6
			c0.9,0,1.3,0.5,1.6,0.9l0,0v-0.8h0.8V586.1z M545.1,588.1c0-0.2,0-0.3-0.1-0.4c-0.2-0.5-0.6-1-1.3-1c-0.9,0-1.5,0.7-1.5,1.9
			c0,1,0.5,1.8,1.5,1.8c0.6,0,1.1-0.3,1.3-0.9c0.1-0.2,0.1-0.3,0.1-0.5V588.1z"/>
		<path class="st15" d="M548,588.8c0,1.2,0.8,1.7,1.7,1.7c0.6,0,1-0.1,1.4-0.3l0.2,0.6c-0.3,0.1-0.9,0.3-1.7,0.3
			c-1.5,0-2.5-1-2.5-2.5s0.9-2.7,2.3-2.7c1.6,0,2.1,1.4,2.1,2.3c0,0.2,0,0.3,0,0.4H548V588.8z M550.6,588.1c0-0.6-0.2-1.5-1.3-1.5
			c-0.9,0-1.3,0.8-1.4,1.5H550.6z"/>
		<path class="st15" d="M552.5,590.2c0.3,0.2,0.7,0.4,1.2,0.4c0.7,0,1-0.3,1-0.7s-0.3-0.7-0.9-0.9c-0.9-0.3-1.3-0.8-1.3-1.4
			c0-0.8,0.6-1.5,1.7-1.5c0.5,0,0.9,0.1,1.2,0.3l-0.2,0.7c-0.2-0.1-0.6-0.3-1-0.3c-0.5,0-0.8,0.3-0.8,0.7s0.3,0.6,0.9,0.8
			c0.9,0.3,1.3,0.8,1.3,1.5c0,0.9-0.7,1.5-1.9,1.5c-0.5,0-1.1-0.1-1.4-0.3L552.5,590.2z"/>
		<path class="st15" d="M557.8,584.7v1.4h1.3v0.7h-1.3v2.7c0,0.6,0.2,1,0.7,1c0.2,0,0.4,0,0.5-0.1v0.7c-0.2,0.1-0.5,0.1-0.8,0.1
			c-0.4,0-0.8-0.1-1-0.4c-0.3-0.3-0.3-0.7-0.3-1.3v-2.7h-0.8v-0.7h0.8v-1.2L557.8,584.7z"/>
		<path class="st15" d="M561.1,584.7c0,0.3-0.2,0.6-0.6,0.6c-0.3,0-0.5-0.2-0.5-0.6c0-0.3,0.2-0.6,0.6-0.6
			C560.9,584.2,561.1,584.4,561.1,584.7z M560.1,591.1v-5h0.9v5H560.1z"/>
		<path class="st15" d="M567,588.6c0,1.8-1.3,2.6-2.5,2.6c-1.3,0-2.4-1-2.4-2.6c0-1.7,1.1-2.6,2.5-2.6
			C566.1,586,567,587.1,567,588.6z M563.1,588.6c0,1.1,0.6,1.9,1.5,1.9s1.5-0.8,1.5-1.9c0-0.8-0.4-1.9-1.5-1.9
			S563.1,587.7,563.1,588.6z M566,584l-1.3,1.5h-0.6l0.9-1.5H566z"/>
		<path class="st15" d="M577.6,583.8v6c0,0.4,0,0.9,0,1.3h-0.8v-0.9l0,0c-0.3,0.6-0.9,1-1.7,1c-1.2,0-2.1-1-2.1-2.5
			c0-1.7,1-2.7,2.2-2.7c0.8,0,1.3,0.4,1.5,0.8l0,0v-3L577.6,583.8L577.6,583.8z M576.7,588.2c0-0.1,0-0.3,0-0.4
			c-0.1-0.6-0.6-1.1-1.3-1.1c-0.9,0-1.5,0.8-1.5,1.9c0,1,0.5,1.8,1.5,1.8c0.6,0,1.2-0.4,1.3-1.1c0-0.1,0-0.2,0-0.4V588.2z"/>
		<path class="st15" d="M579.7,588.8c0,1.2,0.8,1.7,1.7,1.7c0.6,0,1-0.1,1.4-0.3l0.2,0.6c-0.3,0.1-0.9,0.3-1.7,0.3
			c-1.5,0-2.5-1-2.5-2.5s0.9-2.7,2.3-2.7c1.6,0,2.1,1.4,2.1,2.3c0,0.2,0,0.3,0,0.4h-3.5V588.8z M582.3,588.1c0-0.6-0.2-1.5-1.3-1.5
			c-0.9,0-1.3,0.8-1.4,1.5H582.3z"/>
		<path class="st15" d="M589.5,583.8h0.9v7.3h-0.9V583.8z"/>
		<path class="st15" d="M594.6,591.1l-0.1-0.6l0,0c-0.3,0.4-0.8,0.7-1.5,0.7c-1,0-1.5-0.7-1.5-1.4c0-1.2,1.1-1.9,3-1.9v-0.1
			c0-0.4-0.1-1.2-1.1-1.2c-0.5,0-0.9,0.1-1.3,0.4l-0.2-0.6c0.4-0.3,1-0.4,1.6-0.4c1.5,0,1.9,1,1.9,2v1.9c0,0.4,0,0.9,0.1,1.2
			L594.6,591.1L594.6,591.1z M594.5,588.6c-1,0-2.1,0.2-2.1,1.1c0,0.6,0.4,0.9,0.9,0.9c0.6,0,1.1-0.4,1.2-0.8c0-0.1,0.1-0.2,0.1-0.3
			v-0.9H594.5z"/>
		<path class="st15" d="M605.6,590.9c-0.2,0.1-0.8,0.3-1.4,0.3c-1.5,0-2.5-1-2.5-2.5s1.1-2.6,2.7-2.6c0.5,0,1,0.1,1.3,0.3l-0.2,0.7
			c-0.2-0.1-0.6-0.2-1.1-0.2c-1.1,0-1.8,0.8-1.8,1.9c0,1.2,0.7,1.9,1.7,1.9c0.5,0,0.9-0.1,1.1-0.2L605.6,590.9z"/>
		<path class="st15" d="M606.6,587.7c0-0.6,0-1.1,0-1.6h0.8v1l0,0c0.2-0.7,0.8-1.1,1.4-1.1c0.1,0,0.2,0,0.3,0v0.9
			c-0.1,0-0.2,0-0.3,0c-0.6,0-1.1,0.5-1.2,1.2c0,0.1,0,0.3,0,0.4v2.7h-0.9L606.6,587.7L606.6,587.7z"/>
		<path class="st15" d="M611,584.7c0,0.3-0.2,0.6-0.6,0.6c-0.3,0-0.5-0.2-0.5-0.6c0-0.3,0.2-0.6,0.6-0.6
			C610.8,584.2,611,584.4,611,584.7z M610,591.1v-5h0.9v5H610z"/>
		<path class="st15" d="M612.3,590.2c0.3,0.2,0.7,0.4,1.2,0.4c0.7,0,1-0.3,1-0.7s-0.3-0.7-0.9-0.9c-0.9-0.3-1.3-0.8-1.3-1.4
			c0-0.8,0.6-1.5,1.7-1.5c0.5,0,0.9,0.1,1.2,0.3l-0.2,0.7c-0.2-0.1-0.6-0.3-1-0.3c-0.5,0-0.8,0.3-0.8,0.7s0.3,0.6,0.9,0.8
			c0.9,0.3,1.3,0.8,1.3,1.5c0,0.9-0.7,1.5-1.9,1.5c-0.5,0-1.1-0.1-1.4-0.3L612.3,590.2z"/>
		<path class="st15" d="M617.5,584.7c0,0.3-0.2,0.6-0.6,0.6c-0.3,0-0.5-0.2-0.5-0.6c0-0.3,0.2-0.6,0.6-0.6
			C617.3,584.2,617.5,584.4,617.5,584.7z M616.5,591.1v-5h0.9v5H616.5z"/>
	</g>
</g>
<g>
	<g class="st12">
		<path class="st15" d="M51.5,602.5c0.3,0.2,0.7,0.4,1.2,0.4c0.7,0,1-0.3,1-0.7s-0.3-0.7-0.9-0.9c-0.9-0.3-1.3-0.8-1.3-1.4
			c0-0.8,0.6-1.5,1.7-1.5c0.5,0,0.9,0.1,1.2,0.3l-0.2,0.7c-0.2-0.1-0.6-0.3-1-0.3c-0.5,0-0.8,0.3-0.8,0.7s0.3,0.6,0.9,0.8
			c0.9,0.3,1.3,0.8,1.3,1.5c0,0.9-0.7,1.5-1.9,1.5c-0.5,0-1.1-0.1-1.4-0.3L51.5,602.5z"/>
		<path class="st15" d="M58.5,603.5l-0.1-0.6l0,0c-0.3,0.4-0.8,0.7-1.5,0.7c-1,0-1.5-0.7-1.5-1.4c0-1.2,1.1-1.9,3-1.9v-0.1
			c0-0.4-0.1-1.2-1.1-1.2c-0.5,0-0.9,0.1-1.3,0.4l-0.2-0.6c0.4-0.3,1-0.4,1.6-0.4c1.5,0,1.9,1,1.9,2v1.9c0,0.4,0,0.9,0.1,1.2
			L58.5,603.5L58.5,603.5z M58.3,600.9c-1,0-2.1,0.2-2.1,1.1c0,0.6,0.4,0.9,0.9,0.9c0.6,0,1.1-0.4,1.2-0.8c0-0.1,0.1-0.2,0.1-0.3
			v-0.9H58.3z"/>
		<path class="st15" d="M60.7,599.8c0-0.5,0-0.9,0-1.3h0.8l0.1,0.8l0,0c0.2-0.5,0.8-0.9,1.6-0.9c0.7,0,1.8,0.4,1.8,2.1v3h-1v-2.9
			c0-0.8-0.3-1.5-1.2-1.5c-0.6,0-1.1,0.4-1.2,0.9c0,0.1-0.1,0.3-0.1,0.4v3h-0.9v-3.6H60.7z"/>
		<path class="st15" d="M67.4,597.1c0,0.3-0.2,0.6-0.6,0.6c-0.3,0-0.5-0.2-0.5-0.6c0-0.3,0.2-0.6,0.6-0.6
			C67.2,596.5,67.4,596.8,67.4,597.1z M66.4,603.5v-5h0.9v5H66.4z"/>
		<path class="st15" d="M69.9,597.1v1.4h1.3v0.7h-1.3v2.7c0,0.6,0.2,1,0.7,1c0.2,0,0.4,0,0.5-0.1v0.7c-0.2,0.1-0.5,0.1-0.8,0.1
			c-0.4,0-0.8-0.1-1-0.4c-0.3-0.3-0.4-0.7-0.4-1.3v-2.7h-0.8v-0.7H69v-1.2L69.9,597.1z"/>
		<path class="st15" d="M75,603.5l-0.1-0.6l0,0c-0.3,0.4-0.8,0.7-1.5,0.7c-1,0-1.5-0.7-1.5-1.4c0-1.2,1.1-1.9,3-1.9v-0.1
			c0-0.4-0.1-1.2-1.1-1.2c-0.5,0-0.9,0.1-1.3,0.4l-0.2-0.6c0.4-0.3,1-0.4,1.6-0.4c1.5,0,1.9,1,1.9,2v1.9c0,0.4,0,0.9,0.1,1.2
			L75,603.5L75,603.5z M73.4,596.3l0.9,1.5h-0.6l-1.3-1.5H73.4z M74.8,600.9c-1,0-2.1,0.2-2.1,1.1c0,0.6,0.4,0.9,0.9,0.9
			c0.6,0,1.1-0.4,1.2-0.8c0-0.1,0.1-0.2,0.1-0.3L74.8,600.9L74.8,600.9z"/>
		<path class="st15" d="M77.2,600c0-0.6,0-1.1,0-1.6H78v1l0,0c0.2-0.7,0.8-1.1,1.4-1.1c0.1,0,0.2,0,0.3,0v0.9c-0.1,0-0.2,0-0.3,0
			c-0.6,0-1.1,0.5-1.2,1.2c0,0.1,0,0.3,0,0.4v2.7h-0.9V600H77.2z"/>
		<path class="st15" d="M81.6,597.1c0,0.3-0.2,0.6-0.6,0.6c-0.3,0-0.5-0.2-0.5-0.6c0-0.3,0.2-0.6,0.6-0.6
			C81.3,596.5,81.6,596.8,81.6,597.1z M80.5,603.5v-5h0.9v5H80.5z"/>
		<path class="st15" d="M85.7,603.5l-0.1-0.6l0,0c-0.3,0.4-0.8,0.7-1.5,0.7c-1,0-1.5-0.7-1.5-1.4c0-1.2,1.1-1.9,3-1.9v-0.1
			c0-0.4-0.1-1.2-1.1-1.2c-0.5,0-0.9,0.1-1.3,0.4l-0.2-0.6c0.4-0.3,1-0.4,1.6-0.4c1.5,0,1.9,1,1.9,2v1.9c0,0.4,0,0.9,0.1,1.2
			L85.7,603.5L85.7,603.5z M85.6,600.9c-1,0-2.1,0.2-2.1,1.1c0,0.6,0.4,0.9,0.9,0.9c0.6,0,1.1-0.4,1.2-0.8c0-0.1,0.1-0.2,0.1-0.3
			L85.6,600.9L85.6,600.9z"/>
		<path class="st15" d="M97.6,600.9c0,1.8-1.3,2.6-2.5,2.6c-1.3,0-2.4-1-2.4-2.6c0-1.7,1.1-2.6,2.5-2.6
			C96.6,598.4,97.6,599.4,97.6,600.9z M93.6,601c0,1.1,0.6,1.9,1.5,1.9s1.5-0.8,1.5-1.9c0-0.8-0.4-1.9-1.5-1.9S93.6,600,93.6,601z"
			/>
		<path class="st15" d="M102.3,603.3c-0.2,0.1-0.8,0.3-1.4,0.3c-1.5,0-2.5-1-2.5-2.5s1.1-2.6,2.7-2.6c0.5,0,1,0.1,1.3,0.3l-0.2,0.7
			c-0.2-0.1-0.6-0.2-1.1-0.2c-1.1,0-1.8,0.8-1.8,1.9c0,1.2,0.7,1.9,1.7,1.9c0.5,0,0.9-0.1,1.1-0.2L102.3,603.3z"/>
		<path class="st15" d="M106.1,603.5l-0.1-0.6l0,0c-0.3,0.4-0.8,0.7-1.5,0.7c-1,0-1.5-0.7-1.5-1.4c0-1.2,1.1-1.9,3-1.9v-0.1
			c0-0.4-0.1-1.2-1.1-1.2c-0.5,0-0.9,0.1-1.3,0.4l-0.2-0.6c0.4-0.3,1-0.4,1.6-0.4c1.5,0,1.9,1,1.9,2v1.9c0,0.4,0,0.9,0.1,1.2
			L106.1,603.5L106.1,603.5z M106,600.9c-1,0-2.1,0.2-2.1,1.1c0,0.6,0.4,0.9,0.9,0.9c0.6,0,1.1-0.4,1.2-0.8c0-0.1,0.1-0.2,0.1-0.3
			L106,600.9L106,600.9z"/>
		<path class="st15" d="M108.2,602.5c0.3,0.2,0.7,0.4,1.2,0.4c0.7,0,1-0.3,1-0.7s-0.3-0.7-0.9-0.9c-0.9-0.3-1.3-0.8-1.3-1.4
			c0-0.8,0.6-1.5,1.7-1.5c0.5,0,0.9,0.1,1.2,0.3l-0.2,0.7c-0.2-0.1-0.6-0.3-1-0.3c-0.5,0-0.8,0.3-0.8,0.7s0.3,0.6,0.9,0.8
			c0.9,0.3,1.3,0.8,1.3,1.5c0,0.9-0.7,1.5-1.9,1.5c-0.5,0-1.1-0.1-1.4-0.3L108.2,602.5z"/>
		<path class="st15" d="M113.4,597.1c0,0.3-0.2,0.6-0.6,0.6c-0.3,0-0.5-0.2-0.5-0.6c0-0.3,0.2-0.6,0.6-0.6
			C113.2,596.5,113.4,596.8,113.4,597.1z M112.4,603.5v-5h0.9v5H112.4z"/>
		<path class="st15" d="M119.3,600.9c0,1.8-1.3,2.6-2.5,2.6c-1.3,0-2.4-1-2.4-2.6c0-1.7,1.1-2.6,2.5-2.6
			C118.3,598.4,119.3,599.4,119.3,600.9z M115.3,601c0,1.1,0.6,1.9,1.5,1.9s1.5-0.8,1.5-1.9c0-0.8-0.4-1.9-1.5-1.9
			S115.3,600,115.3,601z"/>
		<path class="st15" d="M120.4,599.8c0-0.5,0-0.9,0-1.3h0.8l0.1,0.8l0,0c0.2-0.5,0.8-0.9,1.6-0.9c0.7,0,1.8,0.4,1.8,2.1v3h-0.9v-2.9
			c0-0.8-0.3-1.5-1.2-1.5c-0.6,0-1.1,0.4-1.2,0.9c0,0.1-0.1,0.3-0.1,0.4v3h-0.9C120.4,603.4,120.4,599.8,120.4,599.8z"/>
		<path class="st15" d="M128.9,603.5l-0.1-0.6l0,0c-0.3,0.4-0.8,0.7-1.5,0.7c-1,0-1.5-0.7-1.5-1.4c0-1.2,1.1-1.9,3-1.9v-0.1
			c0-0.4-0.1-1.2-1.1-1.2c-0.5,0-0.9,0.1-1.3,0.4l-0.2-0.6c0.4-0.3,1-0.4,1.6-0.4c1.5,0,1.9,1,1.9,2v1.9c0,0.4,0,0.9,0.1,1.2
			L128.9,603.5L128.9,603.5z M128.8,600.9c-1,0-2.1,0.2-2.1,1.1c0,0.6,0.4,0.9,0.9,0.9c0.6,0,1.1-0.4,1.2-0.8c0-0.1,0.1-0.2,0.1-0.3
			v-0.9H128.8z"/>
		<path class="st15" d="M135.4,596.2v6c0,0.4,0,0.9,0,1.3h-0.8v-0.9l0,0c-0.3,0.6-0.9,1-1.7,1c-1.2,0-2.1-1-2.1-2.5
			c0-1.7,1-2.7,2.2-2.7c0.8,0,1.3,0.4,1.5,0.8l0,0v-3L135.4,596.2L135.4,596.2z M134.5,600.5c0-0.1,0-0.3,0-0.4
			c-0.1-0.6-0.6-1.1-1.3-1.1c-0.9,0-1.5,0.8-1.5,1.9c0,1,0.5,1.8,1.5,1.8c0.6,0,1.2-0.4,1.3-1.1c0-0.1,0-0.2,0-0.4V600.5z"/>
		<path class="st15" d="M139.7,603.5l-0.1-0.6l0,0c-0.3,0.4-0.8,0.7-1.5,0.7c-1,0-1.5-0.7-1.5-1.4c0-1.2,1.1-1.9,3-1.9v-0.1
			c0-0.4-0.1-1.2-1.1-1.2c-0.5,0-0.9,0.1-1.3,0.4l-0.2-0.6c0.4-0.3,1-0.4,1.6-0.4c1.5,0,1.9,1,1.9,2v1.9c0,0.4,0,0.9,0.1,1.2
			L139.7,603.5L139.7,603.5z M139.6,600.9c-1,0-2.1,0.2-2.1,1.1c0,0.6,0.4,0.9,0.9,0.9c0.6,0,1.1-0.4,1.2-0.8c0-0.1,0.1-0.2,0.1-0.3
			L139.6,600.9L139.6,600.9z"/>
		<path class="st15" d="M147,600.1c0-0.6,0-1.2,0-1.6h0.8v0.9l0,0c0.4-0.6,1-1,1.8-1c1.2,0,2.1,1,2.1,2.5c0,1.8-1.1,2.7-2.3,2.7
			c-0.7,0-1.2-0.3-1.5-0.8l0,0v2.7H147V600.1z M147.9,601.4c0,0.1,0,0.3,0,0.4c0.2,0.6,0.7,1.1,1.4,1.1c1,0,1.5-0.8,1.5-1.9
			c0-1-0.5-1.9-1.5-1.9c-0.6,0-1.2,0.4-1.4,1.1c0,0.1-0.1,0.2-0.1,0.4v0.8H147.9z"/>
		<path class="st15" d="M153.4,601.1c0,1.2,0.8,1.7,1.7,1.7c0.6,0,1-0.1,1.4-0.3l0.2,0.6c-0.3,0.1-0.9,0.3-1.7,0.3
			c-1.5,0-2.5-1-2.5-2.5s0.9-2.7,2.3-2.7c1.6,0,2.1,1.4,2.1,2.3c0,0.2,0,0.3,0,0.4h-3.5V601.1z M156.1,600.5c0-0.6-0.2-1.5-1.3-1.5
			c-0.9,0-1.3,0.8-1.4,1.5H156.1z"/>
		<path class="st15" d="M158.1,600c0-0.6,0-1.1,0-1.6h0.8v1l0,0c0.2-0.7,0.8-1.1,1.4-1.1c0.1,0,0.2,0,0.3,0v0.9c-0.1,0-0.2,0-0.3,0
			c-0.6,0-1.1,0.5-1.2,1.2c0,0.1,0,0.3,0,0.4v2.7h-0.9V600H158.1z"/>
		<path class="st15" d="M166.6,596.2h0.9v7.3h-0.9V596.2z"/>
		<path class="st15" d="M171.8,603.5l-0.1-0.6l0,0c-0.3,0.4-0.8,0.7-1.5,0.7c-1,0-1.5-0.7-1.5-1.4c0-1.2,1.1-1.9,3-1.9v-0.1
			c0-0.4-0.1-1.2-1.1-1.2c-0.5,0-0.9,0.1-1.3,0.4l-0.2-0.6c0.4-0.3,1-0.4,1.6-0.4c1.5,0,1.9,1,1.9,2v1.9c0,0.4,0,0.9,0.1,1.2
			L171.8,603.5L171.8,603.5z M171.6,600.9c-1,0-2.1,0.2-2.1,1.1c0,0.6,0.4,0.9,0.9,0.9c0.6,0,1.1-0.4,1.2-0.8c0-0.1,0.1-0.2,0.1-0.3
			L171.6,600.9L171.6,600.9z"/>
		<path class="st15" d="M184,603.2c-0.3,0.2-1,0.3-1.8,0.3c-2,0-3.4-1.2-3.4-3.5c0-2.2,1.5-3.6,3.6-3.6c0.9,0,1.4,0.2,1.6,0.3
			l-0.2,0.7c-0.3-0.2-0.8-0.3-1.4-0.3c-1.6,0-2.7,1-2.7,2.9c0,1.7,1,2.8,2.7,2.8c0.5,0,1.1-0.1,1.5-0.3L184,603.2z"/>
		<path class="st15" d="M189.6,600.9c0,1.8-1.3,2.6-2.5,2.6c-1.3,0-2.4-1-2.4-2.6c0-1.7,1.1-2.6,2.5-2.6
			C188.7,598.4,189.6,599.4,189.6,600.9z M185.7,601c0,1.1,0.6,1.9,1.5,1.9s1.5-0.8,1.5-1.9c0-0.8-0.4-1.9-1.5-1.9
			S185.7,600,185.7,601z"/>
		<path class="st15" d="M191.1,598.5l1,2.8c0.2,0.5,0.3,0.9,0.4,1.3l0,0c0.1-0.4,0.3-0.8,0.4-1.3l1-2.8h0.9l-2,5H192l-1.9-5H191.1z"
			/>
		<path class="st15" d="M196.7,597.1c0,0.3-0.2,0.6-0.6,0.6c-0.3,0-0.5-0.2-0.5-0.6c0-0.3,0.2-0.6,0.6-0.6
			C196.5,596.5,196.7,596.8,196.7,597.1z M195.7,603.5v-5h0.9v5H195.7z"/>
		<path class="st15" d="M202.4,596.2v6c0,0.4,0,0.9,0,1.3h-0.8v-0.9l0,0c-0.3,0.6-0.9,1-1.7,1c-1.2,0-2.1-1-2.1-2.5
			c0-1.7,1-2.7,2.2-2.7c0.8,0,1.3,0.4,1.5,0.8l0,0v-3L202.4,596.2L202.4,596.2z M201.5,600.5c0-0.1,0-0.3,0-0.4
			c-0.1-0.6-0.6-1.1-1.3-1.1c-0.9,0-1.5,0.8-1.5,1.9c0,1,0.5,1.8,1.5,1.8c0.6,0,1.2-0.4,1.3-1.1c0-0.1,0-0.2,0-0.4V600.5z"/>
		<path class="st15" d="M203.5,600.9V600h2.8v0.9H203.5z"/>
		<path class="st15" d="M209.8,603.1l1.4,0.1v0.3h-3.6v-0.3l1.4-0.1v-5.5l-1.4,0.5v-0.3l2-1.1h0.3L209.8,603.1L209.8,603.1z"/>
		<path class="st15" d="M212.1,598.8c0-0.7,0.2-1.2,0.6-1.6s0.9-0.6,1.6-0.6c0.8,0,1.3,0.3,1.7,0.8c0.4,0.6,0.5,1.4,0.5,2.6
			c0,1.1-0.2,2-0.7,2.6s-1.1,0.9-1.9,0.9c-0.5,0-1-0.1-1.5-0.2v-1.2h0.3l0.2,0.7c0.1,0,0.3,0.1,0.4,0.1c0.2,0,0.4,0.1,0.5,0.1
			c0.5,0,0.9-0.2,1.2-0.7s0.4-1.2,0.5-2.1c-0.5,0.3-1,0.4-1.6,0.4s-1.1-0.2-1.4-0.5S212.1,599.4,212.1,598.8z M214.3,597.1
			c-0.8,0-1.3,0.6-1.3,1.8c0,0.5,0.1,0.9,0.3,1.1c0.2,0.2,0.5,0.4,0.9,0.4s0.9-0.1,1.3-0.3c0-1-0.1-1.8-0.3-2.3
			C215.1,597.3,214.7,597.1,214.3,597.1z"/>
		<path class="st15" d="M217.8,602.7c0.1-0.1,0.2-0.2,0.4-0.2s0.3,0.1,0.4,0.2c0.1,0.1,0.2,0.2,0.2,0.4s-0.1,0.3-0.2,0.4
			c-0.1,0.1-0.2,0.2-0.4,0.2c-0.1,0-0.3-0.1-0.4-0.2c-0.1-0.1-0.2-0.2-0.2-0.4S217.7,602.8,217.8,602.7z"/>
	</g>
</g>
<text transform="matrix(1 0 0 1 69.98 548.05)" class="st2 st3 st4">Gen.</text>
<text transform="matrix(1 0 0 1 121.92 548.05)" class="st2 st3 st4">F</text>
<text transform="matrix(1 0 0 1 126.54 548.05)" class="st2 st3 st4">e</text>
<text transform="matrix(1 0 0 1 131.31 548.05)" class="st2 st3 st4">b</text>
<text transform="matrix(1 0 0 1 136.53 548.05)" class="st2 st3 st4">.</text>
<text transform="matrix(1 0 0 1 171.84 548.05)" class="st2 st3 st4">Ma</text>
<text transform="matrix(1 0 0 1 183.68 548.05)" class="st2 st3 st4">r</text>
<text transform="matrix(1 0 0 1 186.47 548.05)" class="st2 st3 st4">.</text>
<text transform="matrix(1 0 0 1 187.53 548.05)" class="st2 st3 st4">*</text>
<text transform="matrix(1 0 0 1 225.1 548.05)" class="st2 st3 st4">Ab</text>
<text transform="matrix(1 0 0 1 235.65 548.05)" class="st2 st3 st4">r</text>
<text transform="matrix(1 0 0 1 238.44 548.05)" class="st2 st3 st4">.</text>
<text transform="matrix(1 0 0 1 274.59 548.05)" class="st2 st3 st4">Mai</text>
<text transform="matrix(1 0 0 1 288.79 548.05)" class="st2 st3 st4">.</text>
<text transform="matrix(1 0 0 1 289.86 548.05)" class="st2 st3 st4">*</text>
<text transform="matrix(1 0 0 1 326.75 548.05)" class="st2 st3 st4">Jun.</text>
<text transform="matrix(1 0 0 1 379.42 548.05)" class="st2 st3 st4">Jul.</text>
<text transform="matrix(1 0 0 1 429.31 548.05)" class="st2 st3 st4">A</text>
<text transform="matrix(1 0 0 1 434.54 548.05)" class="st2 st3 st4">g</text>
<text transform="matrix(1 0 0 1 439.25 548.05)" class="st2 st3 st4">o</text>
<text transform="matrix(1 0 0 1 444.37 548.05)" class="st2 st3 st4">.</text>
<text transform="matrix(1 0 0 1 481.55 548.05)" class="st2 st3 st4">S</text>
<text transform="matrix(1 0 0 1 486.69 548.05)" class="st2 st3 st4">e</text>
<text transform="matrix(1 0 0 1 491.36 548.05)" class="st2 st3 st4">t</text>
<text transform="matrix(1 0 0 1 494.68 548.05)" class="st2 st3 st4">.</text>
<text transform="matrix(1 0 0 1 532.38 548.05)" class="st2 st3 st4">O</text>
<text transform="matrix(1 0 0 1 538.77 548.05)" class="st2 st3 st4">c</text>
<text transform="matrix(1 0 0 1 543.05 548.05)" class="st2 st3 st4">t</text>
<text transform="matrix(1 0 0 1 546.37 548.05)" class="st2 st3 st4">.</text>
<text transform="matrix(1 0 0 1 582.87 548.05)" class="st2 st3 st4">N</text>
<text transform="matrix(1 0 0 1 589.09 548.05)" class="st2 st3 st4">o</text>
<text transform="matrix(1 0 0 1 594.27 548.05)" class="st2 st3 st4">v</text>
<text transform="matrix(1 0 0 1 598.42 548.05)" class="st2 st3 st4">.</text>
<text transform="matrix(1 0 0 1 634.5601 548.05)" class="st2 st3 st4">Des.</text>
<path id="point-0-5-2" class="st2" d="M78.1,544.9c0-0.4,0.3-0.7,0.7-0.7c0.4,0,0.7,0.3,0.7,0.7s-0.3,0.7-0.7,0.7
	C78.4,545.6,78.1,545.3,78.1,544.9C78.1,545,78.1,545,78.1,544.9L78.1,544.9z"/>
<path id="point-1-11-2" class="st16" d="M73.8,399.3c0-2.3,1.8-4.1,4.1-4.1c2.2,0.1,4,1.9,4.1,4.1c0,2.2-1.8,4.1-4,4.1h-0.1
	C75.7,403.4,73.8,401.5,73.8,399.3z"/>
<path id="point-0-6-2" class="st2" d="M73.8,404.6c0-2.3,1.8-4.1,4.1-4.1c2.3,0,4.1,1.8,4.1,4.1c0,2.3-1.8,4.1-4.1,4.1
	C75.6,408.7,73.8,406.9,73.8,404.6z"/>
<path id="point-0-6-3" class="st16" d="M126.8,397.6c0-1.7,1.4-3.1,3.1-3.1c1.7,0,3.1,1.4,3.1,3.1s-1.4,3.1-3.1,3.1
	S126.8,399.3,126.8,397.6L126.8,397.6z"/>
<path id="point-0-6-4" class="st16" d="M177.5,352.3c0-1.7,1.4-3.1,3.1-3.1c1.7,0,3.1,1.4,3.1,3.1s-1.4,3.1-3.1,3.1l0,0
	C178.9,355.4,177.5,354,177.5,352.3z"/>
<path id="point-0-6-5" class="st2" d="M127.5,356.7c0-1.7,1.4-3.1,3.1-3.1c1.7,0,3.1,1.4,3.1,3.1s-1.4,3.1-3.1,3.1l0,0
	C128.9,359.8,127.5,358.4,127.5,356.7z"/>
<path id="point-0-6-6" class="st2" d="M331.7,333c0-1.7,1.4-3.1,3.1-3.1s3.1,1.4,3.1,3.1s-1.4,3.1-3.1,3.1l0,0
	C333.1,336.1,331.7,334.7,331.7,333z"/>
<path id="point-0-6-6-2" class="st2" d="M383,317.6c0-1.7,1.4-3.1,3.1-3.1s3.1,1.4,3.1,3.1s-1.4,3.1-3.1,3.1l0,0
	C384.4,320.7,383,319.3,383,317.6z"/>
<path id="point-0-6-6-3" class="st2" d="M429.6,313.9c0-1.7,1.4-3.1,3.1-3.1s3.1,1.4,3.1,3.1s-1.4,3.1-3.1,3.1l0,0
	C431,317,429.6,315.6,429.6,313.9z"/>
<path id="point-0-6-6-4" class="st2" d="M486,351.4c0-1.7,1.4-3.1,3.1-3.1s3.1,1.4,3.1,3.1s-1.4,3.1-3.1,3.1l0,0
	C487.4,354.4,486,353.1,486,351.4z"/>
<path id="point-0-6-7" class="st16" d="M229.4,326c0-1.7,1.4-3.1,3.1-3.1c1.7,0,3.1,1.4,3.1,3.1s-1.4,3.1-3.1,3.1
	c-1.7,0.1-3-1.2-3.1-2.9l0,0l0,0V326z"/>
<path id="point-0-6-8" class="st16" d="M280.6,319.5c0-1.7,1.4-3.1,3.1-3.1s3.1,1.4,3.1,3.1s-1.4,3.1-3.1,3.1l0,0
	C282,322.6,280.6,321.2,280.6,319.5z"/>
<path id="point-0-6-9" class="st16" d="M331.7,288.8c0-1.7,1.4-3.1,3.1-3.1s3.1,1.4,3.1,3.1s-1.4,3.1-3.1,3.1l0,0
	C333.1,291.9,331.7,290.5,331.7,288.8z"/>
<path id="point-0-6-10" class="st16" d="M383.2,263.2c0-1.7,1.4-3.1,3.1-3.1s3.1,1.4,3.1,3.1s-1.4,3.1-3.1,3.1l0,0
	c-1.7,0.1-3-1.2-3.1-2.9l0,0V263.2z"/>
<path id="point-0-6-11" class="st16" d="M434.4,237.1c0-1.7,1.4-3.1,3.1-3.1s3.1,1.4,3.1,3.1c0,1.7-1.4,3.1-3.1,3.1l0,0
	C435.8,240.2,434.4,238.8,434.4,237.1z"/>
<path id="point-0-6-12" class="st16" d="M486.3,297.6c0-1.7,1.4-3.1,3.1-3.1s3.1,1.4,3.1,3.1s-1.4,3.1-3.1,3.1l0,0
	C487.7,300.7,486.4,299.3,486.3,297.6z"/>
<path id="point-0-6-13" class="st16" d="M534.8,323.8c0-1.7,1.4-3.1,3.1-3.1c1.7,0,3.1,1.4,3.1,3.1s-1.4,3.1-3.1,3.1
	S534.8,325.5,534.8,323.8z"/>
<path id="point-0-6-14" class="st16" d="M586.1,362.9c0-1.7,1.4-3.1,3.1-3.1c1.7,0,3.1,1.4,3.1,3.1s-1.4,3.1-3.1,3.1l0,0l0,0
	C587.5,366,586.1,364.6,586.1,362.9z"/>
<text transform="matrix(1 0 0 1 55.96 419.26)" class="st2 st3 st17">26,7</text>
<text transform="matrix(1 0 0 1 123.27 373.14)" class="st2 st3 st17">37,1</text>
<text transform="matrix(1 0 0 1 327.51 349.5701)" class="st2 st3 st17">42,2</text>
<text transform="matrix(1 0 0 1 382.02 330.86)" class="st2 st3 st17">45,5</text>
<text transform="matrix(1 0 0 1 421.93 305.85)" class="st2 st3 st17">46,3</text>
<text transform="matrix(1 0 0 1 479.89 370.25)" class="st2 st3 st17">37,9</text>
<text transform="matrix(1 0 0 1 530.11 359.78)" class="st2 st3 st17">40,3</text>
<text transform="matrix(1 0 0 1 54.45 393.54)" class="st2 st3 st17">27,8</text>
<text transform="matrix(1 0 0 1 126.81 416.28)" class="st2 st3 st17">28,3</text>
<text transform="matrix(1 0 0 1 184.99 359.79)" class="st2 st3 st17">38,1</text>
<text transform="matrix(1 0 0 1 237.4 338.37)" class="st2 st3 st17">43,7</text>
<text transform="matrix(1 0 0 1 286.8 333.66)" class="st2 st3 st17">45,1</text>
<text transform="matrix(1 0 0 1 310.62 286.34)" class="st2 st3 st17">51,7</text>
<text transform="matrix(1 0 0 1 359.97 261.6)" class="st2 st3 st17">57,2</text>
<text transform="matrix(1 0 0 1 427.85 230.21)" class="st2 st3 st17">62,8</text>
<text transform="matrix(1 0 0 1 501.218 296.3881)" class="st2 st3 st17">49,3</text>
<text transform="matrix(1 0 0 1 550.2295 326.9011)" class="st2 st3 st17">43,6</text>
<text transform="matrix(1 0 0 1 598.4196 359.7798)" class="st2 st3 st17">33,1</text>
<text transform="matrix(1 0 0 1 634.5598 427.7159)" class="st2 st3 st17">25,5</text>
<path id="point-0-6-15" class="st2" d="M229.3,529.2c0-2.3,1.8-4.1,4.1-4.1s4.1,1.8,4.1,4.1s-1.8,4.1-4.1,4.1l0,0l0,0
	C231.1,533.3,229.3,531.5,229.3,529.2z"/>
<text transform="matrix(1 0 0 1 225.95 518.38)" class="st2 st3 st17">0,0</text>
<path id="point-0-6" class="st18" d="M380.7,316.7c0-0.4,0.3-0.7,0.7-0.7l0,0l0,0c0.4,0,0.7,0.3,0.7,0.7s-0.3,0.7-0.7,0.7
	S380.7,317,380.7,316.7z"/>
<path id="point-0-7-2" class="st18" d="M584.9,387.9c0-2.3,1.8-4.2,4.2-4.2c2.3,0,4.2,1.8,4.2,4.1c0,2.3-1.8,4.2-4.1,4.2l0,0
	C586.8,392.1,585,390.2,584.9,387.9L584.9,387.9L584.9,387.9L584.9,387.9z"/>
<path class="st19" d="M589.2,387.4c-3.1-6.4-21.7-44.6-47.1-43.9c-1.7,0-3.5,0.3-5.3,0.7c-6.8,0.9-17,2.4-29.4,4.6
	c-21.2,3.7-20.1,4.3-23.3,4.1c-22.4-1.2-27-29.1-51.2-39c-9.2-3.8-23.8-6.1-46.6,3.1"/>
<path id="point-0-6-6-4_1_" class="st2" d="M535.7,343.5c0-1.7,1.4-3.1,3.1-3.1c1.7,0,3.1,1.4,3.1,3.1s-1.4,3.1-3.1,3.1l0,0
	C537.1,346.6,535.7,345.2,535.7,343.5z"/>
<text transform="matrix(1 0 0 1 582.8703 406.6002)" class="st2 st3 st17">30,0</text>
<path id="point-1-11-2_1_" class="st16" d="M638.5,410.7c0-2.3,1.8-4.1,4.1-4.1c2.2,0.1,4,1.9,4.1,4.1c0,2.2-1.8,4.1-4,4.1h-0.1
	C640.4,414.8,638.5,412.9,638.5,410.7z"/>
</svg>
