<?xml version="1.0" encoding="utf-8"?>
<!-- Generator: Adobe Illustrator 24.0.1, SVG Export Plug-In . SVG Version: 6.00 Build 0)  -->
<svg version="1.1" id="graphic" xmlns="http://www.w3.org/2000/svg" xmlns:xlink="http://www.w3.org/1999/xlink" x="0px" y="0px"
	 viewBox="0 0 538.4 567.5" style="enable-background:new 0 0 538.4 567.5;" xml:space="preserve">
<style type="text/css">
	.st0{enable-background:new    ;}
	.st1{fill:#6685A3;}
	.st2{fill:#003366;}
	.st3{font-family:'OpenSans-SemiBold';}
	.st4{font-size:9.76px;}
	.st5{fill:#44698E;}
	.st6{fill:#E3F1F3;}
	.st7{fill:#E0F3F4;}
	.st8{fill:#E5F8F8;}
	.st9{fill:#E9F9F9;}
	.st10{fill:#CBF4F4;}
	.st11{fill:#40668C;}
	.st12{fill:#FFFFFF;}
	.st13{font-family:'OpenSans-Light';}
	.st14{font-size:7.81px;}
	.st15{fill:#00CCCC;}
	.st16{fill:#66E0E0;}
	.st17{fill:#0DCECE;}
	.st18{fill:none;}
	.st19{fill:#6684A2;}
	.st20{fill:#11CECE;}
	.st21{fill:#E7EFF3;}
	.st22{fill:#ECF8F9;}
	.st23{fill:#E6F9F9;}
	.st24{font-size:9px;}
</style>
<g>
	<g class="st0">
		<path class="st1" d="M9.4,556.8h3.3v0.7h-2.5v2h2.3v0.6h-2.3v2.7H9.4V556.8z"/>
		<path class="st1" d="M17.7,560.6c0,1.6-1.1,2.3-2.2,2.3c-1.2,0-2.1-0.9-2.1-2.2c0-1.5,1-2.3,2.2-2.3
			C16.9,558.4,17.7,559.3,17.7,560.6z M14.3,560.7c0,1,0.5,1.7,1.3,1.7c0.8,0,1.3-0.7,1.3-1.7c0-0.7-0.4-1.7-1.3-1.7
			C14.7,559,14.3,559.8,14.3,560.7z"/>
		<path class="st1" d="M18.7,559.7c0-0.5,0-0.8,0-1.2h0.7v0.7l0,0c0.2-0.4,0.7-0.8,1.4-0.8c0.6,0,1.5,0.4,1.5,1.9v2.6h-0.8v-2.5
			c0-0.7-0.3-1.3-1-1.3c-0.5,0-0.9,0.4-1.1,0.8c0,0.1-0.1,0.2-0.1,0.4v2.6h-0.8v-3.2H18.7z"/>
		<path class="st1" d="M24.7,557.2v1.3h1.1v0.6h-1.1v2.3c0,0.5,0.2,0.8,0.6,0.8c0.2,0,0.4,0,0.5-0.1v0.6c-0.2,0.1-0.4,0.1-0.7,0.1
			c-0.4,0-0.7-0.1-0.9-0.3c-0.2-0.2-0.3-0.6-0.3-1.1V559h-0.7v-0.6h0.7v-1L24.7,557.2z"/>
		<path class="st1" d="M27,562.1c0.1-0.1,0.2-0.1,0.3-0.1s0.2,0,0.3,0.1c0.1,0.1,0.1,0.2,0.1,0.3s0,0.3-0.1,0.4
			c-0.1,0.1-0.2,0.1-0.3,0.1c-0.1,0-0.2,0-0.3-0.1c-0.1-0.1-0.1-0.2-0.1-0.3C26.8,562.3,26.9,562.2,27,562.1z M27.3,558.7
			c0.1,0,0.2,0,0.3,0.1c0.1,0.1,0.1,0.2,0.1,0.3s0,0.2-0.1,0.3s-0.2,0.1-0.3,0.1s-0.2,0-0.3-0.1s-0.1-0.2-0.1-0.3s0-0.2,0.1-0.3
			S27.2,558.7,27.3,558.7z"/>
		<path class="st1" d="M36.9,560h-2.4v2.2h2.6v0.7h-3.4v-6.1H37v0.7h-2.5v1.9h2.4V560z"/>
		<path class="st1" d="M38.1,556.4h0.8v6.4h-0.8V556.4z"/>
		<path class="st1" d="M42.7,562.8l-0.1-0.5l0,0c-0.2,0.3-0.7,0.6-1.3,0.6c-0.9,0-1.3-0.6-1.3-1.3c0-1.1,0.9-1.6,2.6-1.6l0,0
			c0-0.4-0.1-1-1-1c-0.4,0-0.8,0.1-1.1,0.3l-0.2-0.5c0.4-0.2,0.9-0.4,1.4-0.4c1.3,0,1.7,0.9,1.7,1.8v1.6c0,0.4,0,0.7,0.1,1
			L42.7,562.8L42.7,562.8z M42.6,560.6c-0.9,0-1.8,0.1-1.8,1c0,0.5,0.3,0.8,0.7,0.8c0.6,0,0.9-0.4,1.1-0.7c0-0.1,0-0.2,0-0.3V560.6z
			"/>
		<path class="st1" d="M44.6,562.8c0-0.3,0-0.7,0-1.1v-5.3h0.8v2.7l0,0c0.3-0.5,0.8-0.8,1.5-0.8c1.1,0,1.8,0.9,1.8,2.2
			c0,1.6-1,2.3-2,2.3c-0.6,0-1.1-0.2-1.5-0.8l0,0v0.7L44.6,562.8L44.6,562.8z M45.4,561.1c0,0.1,0,0.2,0,0.3
			c0.2,0.5,0.6,0.9,1.2,0.9c0.8,0,1.3-0.7,1.3-1.7c0-0.9-0.5-1.6-1.3-1.6c-0.5,0-1,0.4-1.2,1c0,0.1,0,0.2,0,0.3V561.1z"/>
		<path class="st1" d="M53.7,560.6c0,1.6-1.1,2.3-2.2,2.3c-1.2,0-2.1-0.9-2.1-2.2c0-1.5,1-2.3,2.2-2.3
			C52.8,558.4,53.7,559.3,53.7,560.6z M50.2,560.7c0,1,0.5,1.7,1.3,1.7s1.3-0.7,1.3-1.7c0-0.7-0.4-1.7-1.3-1.7
			S50.2,559.8,50.2,560.7z"/>
		<path class="st1" d="M54.7,559.8c0-0.5,0-1,0-1.4h0.7v0.9l0,0c0.2-0.6,0.7-1,1.2-1c0.1,0,0.2,0,0.2,0v0.7c-0.1,0-0.2,0-0.3,0
			c-0.6,0-1,0.4-1.1,1c0,0.1,0,0.2,0,0.4v2.3h-0.8L54.7,559.8L54.7,559.8z"/>
		<path class="st1" d="M60,562.8l-0.1-0.5l0,0c-0.2,0.3-0.7,0.6-1.3,0.6c-0.9,0-1.3-0.6-1.3-1.3c0-1.1,0.9-1.6,2.6-1.6l0,0
			c0-0.4-0.1-1-1-1c-0.4,0-0.8,0.1-1.1,0.3l-0.2-0.5c0.4-0.2,0.9-0.4,1.4-0.4c1.3,0,1.7,0.9,1.7,1.8v1.6c0,0.4,0,0.7,0.1,1L60,562.8
			L60,562.8z M59.9,560.6c-0.9,0-1.8,0.1-1.8,1c0,0.5,0.3,0.8,0.7,0.8c0.6,0,0.9-0.4,1.1-0.7c0-0.1,0-0.2,0-0.3V560.6z"/>
		<path class="st1" d="M65.1,562.7c-0.2,0.1-0.7,0.3-1.3,0.3c-1.3,0-2.2-0.9-2.2-2.2s0.9-2.3,2.3-2.3c0.5,0,0.9,0.1,1.1,0.2
			l-0.2,0.6c-0.2-0.1-0.5-0.2-0.9-0.2c-1,0-1.5,0.7-1.5,1.6c0,1,0.6,1.6,1.5,1.6c0.5,0,0.7-0.1,1-0.2L65.1,562.7z"/>
		<path class="st1" d="M66.9,557.2c0,0.3-0.2,0.5-0.5,0.5s-0.5-0.2-0.5-0.5s0.2-0.5,0.5-0.5C66.7,556.8,66.9,557,66.9,557.2z
			 M66,562.8v-4.4h0.8v4.4H66z"/>
		<path class="st1" d="M72,560.6c0,1.6-1.1,2.3-2.2,2.3c-1.2,0-2.1-0.9-2.1-2.2c0-1.5,1-2.3,2.2-2.3C71.2,558.4,72,559.3,72,560.6z
			 M68.6,560.7c0,1,0.5,1.7,1.3,1.7s1.3-0.7,1.3-1.7c0-0.7-0.4-1.7-1.3-1.7S68.6,559.8,68.6,560.7z M71.1,556.6l-1.1,1.3h-0.6
			l0.8-1.3H71.1z"/>
		<path class="st1" d="M77.5,559.9c0-0.6,0-1,0-1.4h0.7v0.7l0,0c0.3-0.5,0.8-0.8,1.5-0.8c1.1,0,1.8,0.9,1.8,2.2c0,1.6-1,2.3-2,2.3
			c-0.6,0-1.1-0.3-1.3-0.7l0,0v2.4h-0.8v-4.7H77.5z M78.3,561.1c0,0.1,0,0.2,0,0.3c0.1,0.5,0.6,0.9,1.2,0.9c0.8,0,1.3-0.7,1.3-1.7
			c0-0.9-0.5-1.6-1.3-1.6c-0.5,0-1,0.4-1.2,1c0,0.1-0.1,0.2-0.1,0.3L78.3,561.1L78.3,561.1z"/>
		<path class="st1" d="M82.6,559.8c0-0.5,0-1,0-1.4h0.7v0.9l0,0c0.2-0.6,0.7-1,1.2-1c0.1,0,0.2,0,0.2,0v0.7c-0.1,0-0.2,0-0.3,0
			c-0.6,0-1,0.4-1.1,1c0,0.1,0,0.2,0,0.4v2.3h-0.8v-2.9H82.6z"/>
		<path class="st1" d="M89.5,560.6c0,1.6-1.1,2.3-2.2,2.3c-1.2,0-2.1-0.9-2.1-2.2c0-1.5,1-2.3,2.2-2.3
			C88.7,558.4,89.5,559.3,89.5,560.6z M86.1,560.7c0,1,0.5,1.7,1.3,1.7s1.3-0.7,1.3-1.7c0-0.7-0.4-1.7-1.3-1.7
			S86.1,559.8,86.1,560.7z M87.1,556.6l0.8,1.3h-0.6l-1.1-1.3H87.1z"/>
		<path class="st1" d="M90.5,559.9c0-0.6,0-1,0-1.4h0.7v0.7l0,0c0.3-0.5,0.8-0.8,1.5-0.8c1.1,0,1.8,0.9,1.8,2.2c0,1.6-1,2.3-2,2.3
			c-0.6,0-1.1-0.3-1.3-0.7l0,0v2.4h-0.8v-4.7H90.5z M91.3,561.1c0,0.1,0,0.2,0,0.3c0.1,0.5,0.6,0.9,1.2,0.9c0.8,0,1.3-0.7,1.3-1.7
			c0-0.9-0.5-1.6-1.3-1.6c-0.5,0-1,0.4-1.2,1c0,0.1-0.1,0.2-0.1,0.3L91.3,561.1L91.3,561.1z"/>
		<path class="st1" d="M96.5,557.2c0,0.3-0.2,0.5-0.5,0.5s-0.5-0.2-0.5-0.5s0.2-0.5,0.5-0.5C96.3,556.8,96.5,557,96.5,557.2z
			 M95.7,562.8v-4.4h0.8v4.4H95.7z"/>
		<path class="st1" d="M100.2,562.8l-0.1-0.5l0,0c-0.2,0.3-0.7,0.6-1.3,0.6c-0.9,0-1.3-0.6-1.3-1.3c0-1.1,0.9-1.6,2.6-1.6l0,0
			c0-0.4-0.1-1-1-1c-0.4,0-0.8,0.1-1.1,0.3l-0.2-0.5c0.4-0.2,0.9-0.4,1.4-0.4c1.3,0,1.7,0.9,1.7,1.8v1.6c0,0.4,0,0.7,0.1,1
			L100.2,562.8L100.2,562.8z M100.1,560.6c-0.9,0-1.8,0.1-1.8,1c0,0.5,0.3,0.8,0.7,0.8c0.6,0,0.9-0.4,1.1-0.7c0-0.1,0-0.2,0-0.3
			C100.1,561.4,100.1,560.6,100.1,560.6z"/>
		<path class="st1" d="M110.4,556.4v5.3c0,0.4,0,0.8,0,1.1h-0.7V562l0,0c-0.2,0.5-0.8,0.9-1.5,0.9c-1.1,0-1.9-0.9-1.9-2.2
			c0-1.5,0.9-2.3,2-2.3c0.7,0,1.1,0.3,1.3,0.7l0,0v-2.6h0.8C110.4,556.5,110.4,556.4,110.4,556.4z M109.6,560.2c0-0.1,0-0.2,0-0.3
			c-0.1-0.5-0.5-0.9-1.1-0.9c-0.8,0-1.3,0.7-1.3,1.7c0,0.9,0.4,1.6,1.3,1.6c0.5,0,1-0.4,1.2-0.9c0-0.1,0-0.2,0-0.3L109.6,560.2
			L109.6,560.2z"/>
		<path class="st1" d="M112.1,560.8c0,1.1,0.7,1.5,1.5,1.5c0.6,0,0.9-0.1,1.2-0.2l0.1,0.6c-0.3,0.1-0.8,0.3-1.4,0.3
			c-1.3,0-2.1-0.9-2.1-2.2s0.8-2.3,2-2.3c1.4,0,1.8,1.3,1.8,2.1c0,0.2,0,0.3,0,0.4h-3.1V560.8z M114.4,560.2c0-0.5-0.2-1.3-1.1-1.3
			c-0.8,0-1.2,0.7-1.2,1.3H114.4z"/>
		<path class="st1" d="M116.2,556.4h0.8v6.4h-0.8V556.4z"/>
		<path class="st1" d="M122.8,556.8h0.8v5.4h2.6v0.7h-3.4V556.8z"/>
		<path class="st1" d="M128.1,560.9l-0.6,1.9h-0.8l2.1-6.1h0.9l2.1,6.1H131l-0.6-1.9H128.1z M130.1,560.3l-0.6-1.7
			c-0.1-0.4-0.2-0.8-0.3-1.1l0,0c-0.1,0.4-0.2,0.7-0.3,1.1l-0.6,1.8L130.1,560.3L130.1,560.3z"/>
		<path class="st1" d="M132.6,556.8c0.3-0.1,0.9-0.1,1.4-0.1c0.8,0,1.3,0.1,1.7,0.4c0.3,0.2,0.5,0.6,0.5,1.1c0,0.6-0.4,1.1-1,1.3
			l0,0c0.6,0.1,1.3,0.6,1.3,1.5c0,0.5-0.2,0.9-0.5,1.2c-0.4,0.4-1.1,0.6-2.1,0.6c-0.5,0-1,0-1.2-0.1L132.6,556.8L132.6,556.8z
			 M133.4,559.3h0.7c0.8,0,1.3-0.4,1.3-1c0-0.7-0.5-1-1.3-1c-0.4,0-0.6,0-0.7,0.1V559.3z M133.4,562.2c0.2,0,0.4,0,0.7,0
			c0.8,0,1.6-0.3,1.6-1.2c0-0.8-0.7-1.2-1.6-1.2h-0.6L133.4,562.2L133.4,562.2z"/>
		<path class="st1" d="M138.4,557.2v1.3h1.1v0.6h-1.1v2.3c0,0.5,0.2,0.8,0.6,0.8c0.2,0,0.4,0,0.5-0.1v0.6c-0.2,0.1-0.4,0.1-0.7,0.1
			c-0.4,0-0.7-0.1-0.9-0.3s-0.3-0.6-0.3-1.1V559h-0.7v-0.6h0.7v-1L138.4,557.2z"/>
		<path class="st1" d="M144.1,561.6c0,0.5,0,0.8,0,1.2h-0.7v-0.7l0,0c-0.2,0.4-0.7,0.8-1.4,0.8s-1.5-0.4-1.5-1.9v-2.5h0.8v2.4
			c0,0.8,0.3,1.4,1,1.4c0.5,0,0.9-0.4,1-0.7c0-0.1,0.1-0.3,0.1-0.4v-2.7h0.8v3.1L144.1,561.6L144.1,561.6z"/>
		<path class="st1" d="M145.4,559.8c0-0.5,0-1,0-1.4h0.7v0.9l0,0c0.2-0.6,0.7-1,1.2-1c0.1,0,0.2,0,0.2,0v0.7c-0.1,0-0.2,0-0.3,0
			c-0.6,0-1,0.4-1.1,1c0,0.1,0,0.2,0,0.4v2.3h-0.8v-2.9H145.4z"/>
		<path class="st1" d="M149.2,557.2c0,0.3-0.2,0.5-0.5,0.5s-0.5-0.2-0.5-0.5s0.2-0.5,0.5-0.5C149,556.8,149.2,557,149.2,557.2z
			 M148.3,562.8v-4.4h0.8v4.4H148.3z"/>
		<path class="st1" d="M150.3,562c0.2,0.2,0.6,0.3,1,0.3c0.6,0,0.8-0.3,0.8-0.6c0-0.4-0.2-0.6-0.8-0.8c-0.8-0.3-1.2-0.7-1.2-1.2
			c0-0.7,0.6-1.3,1.5-1.3c0.4,0,0.8,0.1,1.1,0.3l-0.2,0.6c-0.2-0.1-0.5-0.3-0.9-0.3c-0.5,0-0.7,0.3-0.7,0.6c0,0.4,0.3,0.5,0.8,0.7
			c0.8,0.3,1.1,0.7,1.1,1.3c0,0.8-0.6,1.3-1.6,1.3c-0.5,0-0.9-0.1-1.2-0.3L150.3,562z"/>
		<path class="st1" d="M154,559.7c0-0.5,0-0.8,0-1.2h0.7v0.7l0,0c0.2-0.4,0.6-0.8,1.4-0.8c0.6,0,1,0.4,1.2,0.9l0,0
			c0.1-0.2,0.3-0.4,0.5-0.6c0.3-0.2,0.5-0.3,1-0.3c0.6,0,1.4,0.4,1.4,1.9v2.6h-0.8v-2.5c0-0.8-0.3-1.3-0.9-1.3
			c-0.5,0-0.8,0.3-0.9,0.7c0,0.1-0.1,0.3-0.1,0.4v2.7h-0.8v-2.6c0-0.7-0.3-1.2-0.9-1.2c-0.5,0-0.9,0.4-1,0.8c0,0.1-0.1,0.3-0.1,0.4
			v2.6H154V559.7z"/>
		<path class="st1" d="M161.9,560.8c0,1.1,0.7,1.5,1.5,1.5c0.6,0,0.9-0.1,1.2-0.2l0.1,0.6c-0.3,0.1-0.8,0.3-1.4,0.3
			c-1.3,0-2.1-0.9-2.1-2.2s0.8-2.3,2-2.3c1.4,0,1.8,1.3,1.8,2.1c0,0.2,0,0.3,0,0.4h-3.1V560.8z M164.3,560.2c0-0.5-0.2-1.3-1.1-1.3
			c-0.8,0-1.2,0.7-1.2,1.3H164.3z"/>
		<path class="st1" d="M170.9,560.8c0,1.1,0.7,1.5,1.5,1.5c0.6,0,0.9-0.1,1.2-0.2l0.1,0.6c-0.3,0.1-0.8,0.3-1.4,0.3
			c-1.3,0-2.1-0.9-2.1-2.2s0.8-2.3,2-2.3c1.4,0,1.8,1.3,1.8,2.1c0,0.2,0,0.3,0,0.4h-3.1V560.8z M173.3,560.2c0-0.5-0.2-1.3-1.1-1.3
			c-0.8,0-1.2,0.7-1.2,1.3H173.3z"/>
		<path class="st1" d="M175,559.7c0-0.5,0-0.8,0-1.2h0.7v0.7l0,0c0.2-0.4,0.7-0.8,1.4-0.8c0.6,0,1.5,0.4,1.5,1.9v2.6h-0.8v-2.5
			c0-0.7-0.3-1.3-1-1.3c-0.5,0-0.9,0.4-1.1,0.8c0,0.1-0.1,0.2-0.1,0.4v2.6H175V559.7z"/>
		<path class="st1" d="M184.5,562.8c0-0.3,0-0.7,0-1.1v-5.3h0.8v2.7l0,0c0.3-0.5,0.8-0.8,1.5-0.8c1.1,0,1.8,0.9,1.8,2.2
			c0,1.6-1,2.3-2,2.3c-0.6,0-1.1-0.2-1.5-0.8l0,0v0.7L184.5,562.8L184.5,562.8z M185.3,561.1c0,0.1,0,0.2,0,0.3
			c0.2,0.5,0.6,0.9,1.2,0.9c0.8,0,1.3-0.7,1.3-1.7c0-0.9-0.5-1.6-1.3-1.6c-0.5,0-1,0.4-1.2,1c0,0.1,0,0.2,0,0.3V561.1z"/>
		<path class="st1" d="M192,562.8l-0.1-0.5l0,0c-0.2,0.3-0.7,0.6-1.3,0.6c-0.9,0-1.3-0.6-1.3-1.3c0-1.1,0.9-1.6,2.6-1.6l0,0
			c0-0.4-0.1-1-1-1c-0.4,0-0.8,0.1-1.1,0.3l-0.2-0.5c0.4-0.2,0.9-0.4,1.4-0.4c1.3,0,1.7,0.9,1.7,1.8v1.6c0,0.4,0,0.7,0.1,1
			L192,562.8L192,562.8z M191.9,560.6c-0.9,0-1.8,0.1-1.8,1c0,0.5,0.3,0.8,0.7,0.8c0.6,0,0.9-0.4,1.1-0.7c0-0.1,0-0.2,0-0.3V560.6z"
			/>
		<path class="st1" d="M193.9,562c0.2,0.2,0.6,0.3,1,0.3c0.6,0,0.8-0.3,0.8-0.6c0-0.4-0.2-0.6-0.8-0.8c-0.8-0.3-1.2-0.7-1.2-1.2
			c0-0.7,0.6-1.3,1.5-1.3c0.4,0,0.8,0.1,1.1,0.3l-0.2,0.6c-0.2-0.1-0.5-0.3-0.9-0.3c-0.5,0-0.7,0.3-0.7,0.6c0,0.4,0.3,0.5,0.8,0.7
			c0.8,0.3,1.1,0.7,1.1,1.3c0,0.8-0.6,1.3-1.6,1.3c-0.5,0-0.9-0.1-1.2-0.3L193.9,562z"/>
		<path class="st1" d="M198,560.8c0,1.1,0.7,1.5,1.5,1.5c0.6,0,0.9-0.1,1.2-0.2l0.1,0.6c-0.3,0.1-0.8,0.3-1.4,0.3
			c-1.3,0-2.1-0.9-2.1-2.2s0.8-2.3,2-2.3c1.4,0,1.8,1.3,1.8,2.1c0,0.2,0,0.3,0,0.4H198V560.8z M200.3,560.2c0-0.5-0.2-1.3-1.1-1.3
			c-0.8,0-1.2,0.7-1.2,1.3H200.3z"/>
		<path class="st1" d="M209,562.8l-0.1-0.5l0,0c-0.2,0.3-0.7,0.6-1.3,0.6c-0.9,0-1.3-0.6-1.3-1.3c0-1.1,0.9-1.6,2.6-1.6l0,0
			c0-0.4-0.1-1-1-1c-0.4,0-0.8,0.1-1.1,0.3l-0.2-0.5c0.4-0.2,0.9-0.4,1.4-0.4c1.3,0,1.7,0.9,1.7,1.8v1.6c0,0.4,0,0.7,0.1,1
			L209,562.8L209,562.8z M208.8,560.6c-0.9,0-1.8,0.1-1.8,1c0,0.5,0.3,0.8,0.7,0.8c0.6,0,0.9-0.4,1.1-0.7c0-0.1,0-0.2,0-0.3V560.6z"
			/>
		<path class="st1" d="M219.1,556.4v5.3c0,0.4,0,0.8,0,1.1h-0.7V562l0,0c-0.2,0.5-0.8,0.9-1.5,0.9c-1.1,0-1.9-0.9-1.9-2.2
			c0-1.5,0.9-2.3,2-2.3c0.7,0,1.1,0.3,1.3,0.7l0,0v-2.6h0.8L219.1,556.4L219.1,556.4z M218.3,560.2c0-0.1,0-0.2,0-0.3
			c-0.1-0.5-0.5-0.9-1.1-0.9c-0.8,0-1.3,0.7-1.3,1.7c0,0.9,0.4,1.6,1.3,1.6c0.5,0,1-0.4,1.2-0.9c0-0.1,0-0.2,0-0.3L218.3,560.2
			L218.3,560.2z"/>
		<path class="st1" d="M222.9,562.8l-0.1-0.5l0,0c-0.2,0.3-0.7,0.6-1.3,0.6c-0.9,0-1.3-0.6-1.3-1.3c0-1.1,0.9-1.6,2.6-1.6l0,0
			c0-0.4-0.1-1-1-1c-0.4,0-0.8,0.1-1.1,0.3l-0.2-0.5c0.4-0.2,0.9-0.4,1.4-0.4c1.3,0,1.7,0.9,1.7,1.8v1.6c0,0.4,0,0.7,0.1,1
			L222.9,562.8L222.9,562.8z M222.8,560.6c-0.9,0-1.8,0.1-1.8,1c0,0.5,0.3,0.8,0.7,0.8c0.6,0,0.9-0.4,1.1-0.7c0-0.1,0-0.2,0-0.3
			V560.6z"/>
		<path class="st1" d="M228.6,556.4v5.3c0,0.4,0,0.8,0,1.1h-0.7V562l0,0c-0.2,0.5-0.8,0.9-1.5,0.9c-1.1,0-1.9-0.9-1.9-2.2
			c0-1.5,0.9-2.3,2-2.3c0.7,0,1.1,0.3,1.3,0.7l0,0v-2.6h0.8L228.6,556.4L228.6,556.4z M227.8,560.2c0-0.1,0-0.2,0-0.3
			c-0.1-0.5-0.5-0.9-1.1-0.9c-0.8,0-1.3,0.7-1.3,1.7c0,0.9,0.4,1.6,1.3,1.6c0.5,0,1-0.4,1.2-0.9c0-0.1,0-0.2,0-0.3L227.8,560.2
			L227.8,560.2z"/>
		<path class="st1" d="M230.3,560.8c0,1.1,0.7,1.5,1.5,1.5c0.6,0,0.9-0.1,1.2-0.2l0.1,0.6c-0.3,0.1-0.8,0.3-1.4,0.3
			c-1.3,0-2.1-0.9-2.1-2.2s0.8-2.3,2-2.3c1.4,0,1.8,1.3,1.8,2.1c0,0.2,0,0.3,0,0.4h-3.1V560.8z M232.6,560.2c0-0.5-0.2-1.3-1.1-1.3
			c-0.8,0-1.2,0.7-1.2,1.3H232.6z"/>
		<path class="st1" d="M234.3,562c0.2,0.2,0.6,0.3,1,0.3c0.6,0,0.8-0.3,0.8-0.6c0-0.4-0.2-0.6-0.8-0.8c-0.8-0.3-1.2-0.7-1.2-1.2
			c0-0.7,0.6-1.3,1.5-1.3c0.4,0,0.8,0.1,1.1,0.3l-0.2,0.6c-0.2-0.1-0.5-0.3-0.9-0.3c-0.5,0-0.7,0.3-0.7,0.6c0,0.4,0.3,0.5,0.8,0.7
			c0.8,0.3,1.1,0.7,1.1,1.3c0,0.8-0.6,1.3-1.6,1.3c-0.5,0-0.9-0.1-1.2-0.3L234.3,562z"/>
		<path class="st1" d="M246.2,556.4v5.3c0,0.4,0,0.8,0,1.1h-0.7V562l0,0c-0.2,0.5-0.8,0.9-1.5,0.9c-1.1,0-1.9-0.9-1.9-2.2
			c0-1.5,0.9-2.3,2-2.3c0.7,0,1.1,0.3,1.3,0.7l0,0v-2.6h0.8L246.2,556.4L246.2,556.4z M245.4,560.2c0-0.1,0-0.2,0-0.3
			c-0.1-0.5-0.5-0.9-1.1-0.9c-0.8,0-1.3,0.7-1.3,1.7c0,0.9,0.4,1.6,1.3,1.6c0.5,0,1-0.4,1.2-0.9c0-0.1,0-0.2,0-0.3L245.4,560.2
			L245.4,560.2z"/>
		<path class="st1" d="M248,560.8c0,1.1,0.7,1.5,1.5,1.5c0.6,0,0.9-0.1,1.2-0.2l0.1,0.6c-0.3,0.1-0.8,0.3-1.4,0.3
			c-1.3,0-2.1-0.9-2.1-2.2s0.8-2.3,2-2.3c1.4,0,1.8,1.3,1.8,2.1c0,0.2,0,0.3,0,0.4H248V560.8z M250.3,560.2c0-0.5-0.2-1.3-1.1-1.3
			c-0.8,0-1.2,0.7-1.2,1.3H250.3z"/>
		<path class="st1" d="M256.5,556.4h0.8v6.4h-0.8V556.4z"/>
		<path class="st1" d="M259.2,556.7l-0.2,2.2h-0.5l-0.1-2.2H259.2z"/>
		<path class="st1" d="M263.5,560h-2.4v2.2h2.6v0.7h-3.4v-6.1h3.3v0.7h-2.5v1.9h2.4V560z"/>
		<path class="st1" d="M264.8,559.7c0-0.5,0-0.8,0-1.2h0.7v0.7l0,0c0.2-0.4,0.7-0.8,1.4-0.8c0.6,0,1.5,0.4,1.5,1.9v2.6h-0.8v-2.5
			c0-0.7-0.3-1.3-1-1.3c-0.5,0-0.9,0.4-1.1,0.8c0,0.1-0.1,0.2-0.1,0.4v2.6h-0.8v-3.2H264.8z"/>
		<path class="st1" d="M272.7,562.2L272.7,562.2c-0.3,0.4-0.7,0.8-1.4,0.8c-1,0-1.8-0.9-1.8-2.2c0-1.6,1.1-2.3,2-2.3
			c0.7,0,1.1,0.3,1.3,0.8l0,0v-0.7h0.7c0,0.4,0,0.7,0,1.2v4.9h-0.8L272.7,562.2L272.7,562.2z M272.7,560.2c0-0.1,0-0.2,0-0.3
			c-0.1-0.5-0.5-0.9-1.1-0.9c-0.8,0-1.3,0.7-1.3,1.7c0,0.9,0.4,1.6,1.3,1.6c0.5,0,1-0.3,1.1-0.9c0-0.1,0.1-0.3,0.1-0.4v-0.8
			L272.7,560.2L272.7,560.2z"/>
		<path class="st1" d="M278.5,561.6c0,0.5,0,0.8,0,1.2h-0.7v-0.7l0,0c-0.2,0.4-0.7,0.8-1.4,0.8c-0.7,0-1.5-0.4-1.5-1.9v-2.5h0.8v2.4
			c0,0.8,0.3,1.4,1,1.4c0.5,0,0.9-0.4,1-0.7c0-0.1,0.1-0.3,0.1-0.4v-2.7h0.8L278.5,561.6L278.5,561.6z"/>
		<path class="st1" d="M280.2,560.8c0,1.1,0.7,1.5,1.5,1.5c0.6,0,0.9-0.1,1.2-0.2l0.1,0.6c-0.3,0.1-0.8,0.3-1.4,0.3
			c-1.3,0-2.1-0.9-2.1-2.2s0.8-2.3,2-2.3c1.4,0,1.8,1.3,1.8,2.1c0,0.2,0,0.3,0,0.4h-3.1V560.8z M282.6,560.2c0-0.5-0.2-1.3-1.1-1.3
			c-0.8,0-1.2,0.7-1.2,1.3H282.6z"/>
		<path class="st1" d="M284.2,562c0.2,0.2,0.6,0.3,1,0.3c0.6,0,0.8-0.3,0.8-0.6c0-0.4-0.2-0.6-0.8-0.8c-0.8-0.3-1.2-0.7-1.2-1.2
			c0-0.7,0.6-1.3,1.5-1.3c0.4,0,0.8,0.1,1.1,0.3l-0.2,0.6c-0.2-0.1-0.5-0.3-0.9-0.3c-0.5,0-0.7,0.3-0.7,0.6c0,0.4,0.3,0.5,0.8,0.7
			c0.8,0.3,1.1,0.7,1.1,1.3c0,0.8-0.6,1.3-1.6,1.3c-0.5,0-0.9-0.1-1.2-0.3L284.2,562z"/>
		<path class="st1" d="M288.8,557.2v1.3h1.1v0.6h-1.1v2.3c0,0.5,0.2,0.8,0.6,0.8c0.2,0,0.4,0,0.5-0.1v0.6c-0.2,0.1-0.4,0.1-0.7,0.1
			c-0.4,0-0.7-0.1-0.9-0.3c-0.2-0.2-0.3-0.6-0.3-1.1V559h-0.7v-0.6h0.7v-1L288.8,557.2z"/>
		<path class="st1" d="M293.3,562.8l-0.1-0.5l0,0c-0.2,0.3-0.7,0.6-1.3,0.6c-0.9,0-1.3-0.6-1.3-1.3c0-1.1,0.9-1.6,2.6-1.6l0,0
			c0-0.4-0.1-1-1-1c-0.4,0-0.8,0.1-1.1,0.3l-0.2-0.5c0.4-0.2,0.9-0.4,1.4-0.4c1.3,0,1.7,0.9,1.7,1.8v1.6c0,0.4,0,0.7,0.1,1
			L293.3,562.8L293.3,562.8z M293.1,560.6c-0.9,0-1.8,0.1-1.8,1c0,0.5,0.3,0.8,0.7,0.8c0.6,0,0.9-0.4,1.1-0.7c0-0.1,0-0.2,0-0.3
			L293.1,560.6L293.1,560.6z"/>
		<path class="st1" d="M303.4,556.4v5.3c0,0.4,0,0.8,0,1.1h-0.7V562l0,0c-0.2,0.5-0.8,0.9-1.5,0.9c-1.1,0-1.9-0.9-1.9-2.2
			c0-1.5,0.9-2.3,2-2.3c0.7,0,1.1,0.3,1.3,0.7l0,0v-2.6h0.8L303.4,556.4L303.4,556.4z M302.7,560.2c0-0.1,0-0.2,0-0.3
			c-0.1-0.5-0.5-0.9-1.1-0.9c-0.8,0-1.3,0.7-1.3,1.7c0,0.9,0.4,1.6,1.3,1.6c0.5,0,1-0.4,1.2-0.9c0-0.1,0-0.2,0-0.3v-0.9L302.7,560.2
			L302.7,560.2z"/>
		<path class="st1" d="M305.3,556.7l-0.2,2.2h-0.5l-0.1-2.2H305.3z"/>
		<path class="st1" d="M310.4,560.6c0,1.6-1.1,2.3-2.2,2.3c-1.2,0-2.1-0.9-2.1-2.2c0-1.5,1-2.3,2.2-2.3
			C309.5,558.4,310.4,559.3,310.4,560.6z M306.9,560.7c0,1,0.5,1.7,1.3,1.7s1.3-0.7,1.3-1.7c0-0.7-0.4-1.7-1.3-1.7
			S306.9,559.8,306.9,560.7z"/>
		<path class="st1" d="M314.5,562.7c-0.2,0.1-0.7,0.3-1.3,0.3c-1.3,0-2.2-0.9-2.2-2.2s0.9-2.3,2.3-2.3c0.5,0,0.9,0.1,1.1,0.2
			l-0.2,0.6c-0.2-0.1-0.5-0.2-0.9-0.2c-1,0-1.5,0.7-1.5,1.6c0,1,0.6,1.6,1.5,1.6c0.5,0,0.7-0.1,1-0.2L314.5,562.7z"/>
		<path class="st1" d="M319.1,561.6c0,0.5,0,0.8,0,1.2h-0.7v-0.7l0,0c-0.2,0.4-0.7,0.8-1.4,0.8c-0.7,0-1.5-0.4-1.5-1.9v-2.5h0.8v2.4
			c0,0.8,0.3,1.4,1,1.4c0.5,0,0.9-0.4,1-0.7c0-0.1,0.1-0.3,0.1-0.4v-2.7h0.8L319.1,561.6L319.1,561.6z"/>
		<path class="st1" d="M320.4,559.9c0-0.6,0-1,0-1.4h0.7v0.7l0,0c0.3-0.5,0.8-0.8,1.5-0.8c1.1,0,1.8,0.9,1.8,2.2c0,1.6-1,2.3-2,2.3
			c-0.6,0-1.1-0.3-1.3-0.7l0,0v2.4h-0.8L320.4,559.9L320.4,559.9z M321.2,561.1c0,0.1,0,0.2,0,0.3c0.1,0.5,0.6,0.9,1.2,0.9
			c0.8,0,1.3-0.7,1.3-1.7c0-0.9-0.5-1.6-1.3-1.6c-0.5,0-1,0.4-1.2,1c0,0.1-0.1,0.2-0.1,0.3v0.8H321.2z"/>
		<path class="st1" d="M327.9,562.8l-0.1-0.5l0,0c-0.2,0.3-0.7,0.6-1.3,0.6c-0.9,0-1.3-0.6-1.3-1.3c0-1.1,0.9-1.6,2.6-1.6l0,0
			c0-0.4-0.1-1-1-1c-0.4,0-0.8,0.1-1.1,0.3l-0.2-0.5c0.4-0.2,0.9-0.4,1.4-0.4c1.3,0,1.7,0.9,1.7,1.8v1.6c0,0.4,0,0.7,0.1,1
			L327.9,562.8L327.9,562.8z M327.8,560.6c-0.9,0-1.8,0.1-1.8,1c0,0.5,0.3,0.8,0.7,0.8c0.6,0,0.9-0.4,1.1-0.7c0-0.1,0-0.2,0-0.3
			L327.8,560.6L327.8,560.6z"/>
		<path class="st1" d="M332.9,562.7c-0.2,0.1-0.7,0.3-1.3,0.3c-1.3,0-2.2-0.9-2.2-2.2s0.9-2.3,2.3-2.3c0.5,0,0.9,0.1,1.1,0.2
			l-0.2,0.6c-0.2-0.1-0.5-0.2-0.9-0.2c-1,0-1.5,0.7-1.5,1.6c0,1,0.6,1.6,1.5,1.6c0.5,0,0.7-0.1,1-0.2L332.9,562.7z"/>
		<path class="st1" d="M334.8,557.2c0,0.3-0.2,0.5-0.5,0.5s-0.5-0.2-0.5-0.5s0.2-0.5,0.5-0.5C334.6,556.8,334.8,557,334.8,557.2z
			 M333.9,562.8v-4.4h0.8v4.4H333.9z"/>
		<path class="st1" d="M339.9,560.6c0,1.6-1.1,2.3-2.2,2.3c-1.2,0-2.1-0.9-2.1-2.2c0-1.5,1-2.3,2.2-2.3
			C339.1,558.4,339.9,559.3,339.9,560.6z M336.5,560.7c0,1,0.5,1.7,1.3,1.7s1.3-0.7,1.3-1.7c0-0.7-0.4-1.7-1.3-1.7
			S336.5,559.8,336.5,560.7z M339,556.6l-1.1,1.3h-0.6l0.8-1.3H339z"/>
		<path class="st1" d="M345.9,560.8c0,1.1,0.7,1.5,1.5,1.5c0.6,0,0.9-0.1,1.2-0.2l0.1,0.6c-0.3,0.1-0.8,0.3-1.4,0.3
			c-1.3,0-2.1-0.9-2.1-2.2s0.8-2.3,2-2.3c1.4,0,1.8,1.3,1.8,2.1c0,0.2,0,0.3,0,0.4h-3.1V560.8z M348.2,560.2c0-0.5-0.2-1.3-1.1-1.3
			c-0.8,0-1.2,0.7-1.2,1.3H348.2z"/>
		<path class="st1" d="M349.9,559.7c0-0.5,0-0.8,0-1.2h0.7v0.7l0,0c0.2-0.4,0.7-0.8,1.4-0.8c0.6,0,1.5,0.4,1.5,1.9v2.6h-0.8v-2.5
			c0-0.7-0.3-1.3-1-1.3c-0.5,0-0.9,0.4-1.1,0.8c0,0.1-0.1,0.2-0.1,0.4v2.6h-0.8v-3.2H349.9z"/>
		<path class="st1" d="M361.8,562.8l-0.1-0.5l0,0c-0.2,0.3-0.7,0.6-1.3,0.6c-0.9,0-1.3-0.6-1.3-1.3c0-1.1,0.9-1.6,2.6-1.6l0,0
			c0-0.4-0.1-1-1-1c-0.4,0-0.8,0.1-1.1,0.3l-0.2-0.5c0.4-0.2,0.9-0.4,1.4-0.4c1.3,0,1.7,0.9,1.7,1.8v1.6c0,0.4,0,0.7,0.1,1
			L361.8,562.8L361.8,562.8z M361.7,560.6c-0.9,0-1.8,0.1-1.8,1c0,0.5,0.3,0.8,0.7,0.8c0.6,0,0.9-0.4,1.1-0.7c0-0.1,0-0.2,0-0.3
			L361.7,560.6L361.7,560.6z"/>
		<path class="st1" d="M363.8,556.4h0.8v6.4h-0.8V556.4z"/>
		<path class="st1" d="M365.9,556.4h0.8v6.4h-0.8V556.4z"/>
		<path class="st1" d="M372,560.6c0,1.6-1.1,2.3-2.2,2.3c-1.2,0-2.1-0.9-2.1-2.2c0-1.5,1-2.3,2.2-2.3
			C371.1,558.4,372,559.3,372,560.6z M368.5,560.7c0,1,0.5,1.7,1.3,1.7s1.3-0.7,1.3-1.7c0-0.7-0.4-1.7-1.3-1.7
			S368.5,559.8,368.5,560.7z"/>
		<path class="st1" d="M373.9,557.2v1.3h1.1v0.6h-1.1v2.3c0,0.5,0.2,0.8,0.6,0.8c0.2,0,0.4,0,0.5-0.1v0.6c-0.2,0.1-0.4,0.1-0.7,0.1
			c-0.4,0-0.7-0.1-0.9-0.3c-0.2-0.2-0.3-0.6-0.3-1.1V559h-0.7v-0.6h0.7v-1L373.9,557.2z"/>
		<path class="st1" d="M374.9,564.1c0.4,0,0.7-0.1,0.9-0.3c0.2-0.3,0.3-0.6,0.3-1.6v-3.6h0.8v4c0,0.8-0.1,1.4-0.5,1.8
			c-0.4,0.4-0.9,0.5-1.4,0.5L374.9,564.1z M376.9,557.2c0,0.3-0.2,0.5-0.5,0.5s-0.5-0.2-0.5-0.5s0.2-0.5,0.5-0.5
			C376.7,556.8,376.9,557,376.9,557.2z"/>
		<path class="st1" d="M380.5,562.8l-0.1-0.5l0,0c-0.2,0.3-0.7,0.6-1.3,0.6c-0.9,0-1.3-0.6-1.3-1.3c0-1.1,0.9-1.6,2.6-1.6l0,0
			c0-0.4-0.1-1-1-1c-0.4,0-0.8,0.1-1.1,0.3l-0.2-0.5c0.4-0.2,0.9-0.4,1.4-0.4c1.3,0,1.7,0.9,1.7,1.8v1.6c0,0.4,0,0.7,0.1,1
			L380.5,562.8L380.5,562.8z M380.4,560.6c-0.9,0-1.8,0.1-1.8,1c0,0.5,0.3,0.8,0.7,0.8c0.6,0,0.9-0.4,1.1-0.7c0-0.1,0-0.2,0-0.3
			L380.4,560.6L380.4,560.6z"/>
		<path class="st1" d="M382.5,559.7c0-0.5,0-0.8,0-1.2h0.7v0.7l0,0c0.2-0.4,0.6-0.8,1.4-0.8c0.6,0,1,0.4,1.2,0.9l0,0
			c0.1-0.2,0.3-0.4,0.5-0.6c0.3-0.2,0.5-0.3,1-0.3c0.6,0,1.4,0.4,1.4,1.9v2.6h-0.8v-2.5c0-0.8-0.3-1.3-0.9-1.3
			c-0.5,0-0.8,0.3-0.9,0.7c0,0.1-0.1,0.3-0.1,0.4v2.7h-0.8v-2.6c0-0.7-0.3-1.2-0.9-1.2c-0.5,0-0.9,0.4-1,0.8c0,0.1-0.1,0.3-0.1,0.4
			v2.6h-0.8L382.5,559.7L382.5,559.7z"/>
		<path class="st1" d="M390.4,560.8c0,1.1,0.7,1.5,1.5,1.5c0.6,0,0.9-0.1,1.2-0.2l0.1,0.6c-0.3,0.1-0.8,0.3-1.4,0.3
			c-1.3,0-2.1-0.9-2.1-2.2s0.8-2.3,2-2.3c1.4,0,1.8,1.3,1.8,2.1c0,0.2,0,0.3,0,0.4h-3.1V560.8z M392.7,560.2c0-0.5-0.2-1.3-1.1-1.3
			c-0.8,0-1.2,0.7-1.2,1.3H392.7z"/>
		<path class="st1" d="M394.5,559.7c0-0.5,0-0.8,0-1.2h0.7v0.7l0,0c0.2-0.4,0.7-0.8,1.4-0.8c0.6,0,1.5,0.4,1.5,1.9v2.6h-0.8v-2.5
			c0-0.7-0.3-1.3-1-1.3c-0.5,0-0.9,0.4-1.1,0.8c0,0.1-0.1,0.2-0.1,0.4v2.6h-0.8v-3.2H394.5z"/>
		<path class="st1" d="M400.4,557.2v1.3h1.1v0.6h-1.1v2.3c0,0.5,0.2,0.8,0.6,0.8c0.2,0,0.4,0,0.5-0.1v0.6c-0.2,0.1-0.4,0.1-0.7,0.1
			c-0.4,0-0.7-0.1-0.9-0.3c-0.2-0.2-0.3-0.6-0.3-1.1V559H399v-0.6h0.7v-1L400.4,557.2z"/>
		<path class="st1" d="M402.3,562c0.2,0.2,0.6,0.3,1,0.3c0.6,0,0.8-0.3,0.8-0.6c0-0.4-0.2-0.6-0.8-0.8c-0.8-0.3-1.2-0.7-1.2-1.2
			c0-0.7,0.6-1.3,1.5-1.3c0.4,0,0.8,0.1,1.1,0.3l-0.2,0.6c-0.2-0.1-0.5-0.3-0.9-0.3c-0.5,0-0.7,0.3-0.7,0.6c0,0.4,0.3,0.5,0.8,0.7
			c0.8,0.3,1.1,0.7,1.1,1.3c0,0.8-0.6,1.3-1.6,1.3c-0.5,0-0.9-0.1-1.2-0.3L402.3,562z"/>
		<path class="st1" d="M414.3,556.4v5.3c0,0.4,0,0.8,0,1.1h-0.7V562l0,0c-0.2,0.5-0.8,0.9-1.5,0.9c-1.1,0-1.9-0.9-1.9-2.2
			c0-1.5,0.9-2.3,2-2.3c0.7,0,1.1,0.3,1.3,0.7l0,0v-2.6h0.8L414.3,556.4L414.3,556.4z M413.5,560.2c0-0.1,0-0.2,0-0.3
			c-0.1-0.5-0.5-0.9-1.1-0.9c-0.8,0-1.3,0.7-1.3,1.7c0,0.9,0.4,1.6,1.3,1.6c0.5,0,1-0.4,1.2-0.9c0-0.1,0-0.2,0-0.3v-0.9L413.5,560.2
			L413.5,560.2z"/>
		<path class="st1" d="M416,560.8c0,1.1,0.7,1.5,1.5,1.5c0.6,0,0.9-0.1,1.2-0.2l0.1,0.6c-0.3,0.1-0.8,0.3-1.4,0.3
			c-1.3,0-2.1-0.9-2.1-2.2s0.8-2.3,2-2.3c1.4,0,1.8,1.3,1.8,2.1c0,0.2,0,0.3,0,0.4H416V560.8z M418.3,560.2c0-0.5-0.2-1.3-1.1-1.3
			c-0.8,0-1.2,0.7-1.2,1.3H418.3z"/>
		<path class="st1" d="M424.6,556.4h0.8v6.4h-0.8V556.4z"/>
		<path class="st1" d="M427.3,556.7l-0.2,2.2h-0.5l-0.1-2.2H427.3z"/>
		<path class="st1" d="M429.2,556.8v6.1h-0.8v-6.1H429.2z"/>
		<path class="st1" d="M430.6,562.8v-6.1h0.9l1.9,3.1c0.5,0.7,0.8,1.4,1.1,2l0,0c-0.1-0.8-0.1-1.5-0.1-2.5v-2.5h0.7v6.1h-0.8
			l-1.9-3.1c-0.4-0.7-0.8-1.4-1.1-2l0,0c0,0.8,0.1,1.5,0.1,2.5v2.6L430.6,562.8L430.6,562.8z"/>
		<path class="st1" d="M439.6,560h-2.4v2.2h2.6v0.7h-3.4v-6.1h3.3v0.7h-2.5v1.9h2.4V560z"/>
	</g>
</g>
<text transform="matrix(1 0 0 1 291.8278 89.918)" class="st2 st3 st4">GIRONA</text>
<text transform="matrix(1 0 0 1 291.8278 100.488)" class="st1 st3 st4">Ocupaci贸</text>
<text transform="matrix(1 0 0 1 291.8278 112.198)" class="st1 st3 st4">Viatgers</text>
<text transform="matrix(1 0 0 1 291.8278 123.908)" class="st1 st3 st4">Pernoctacions</text>
<text transform="matrix(1 0 0 1 360 374.67)" class="st2 st3 st4">BARCELONA</text>
<text transform="matrix(1 0 0 1 360 385.24)" class="st1 st3 st4">Ocupaci贸</text>
<text transform="matrix(1 0 0 1 360 396.95)" class="st1 st3 st4">Viatgers</text>
<text transform="matrix(1 0 0 1 360 408.66)" class="st1 st3 st4">Pernoctacions</text>
<text transform="matrix(1 0 0 1 139.04 458.58)" class="st2 st3 st4">TARRAGONA</text>
<text transform="matrix(1 0 0 1 139.04 473.05)" class="st1 st3 st4">Ocupaci贸</text>
<text transform="matrix(1 0 0 1 139.04 484.76)" class="st1 st3 st4">Viatgers</text>
<text transform="matrix(1 0 0 1 139.04 496.46)" class="st1 st3 st4">Pernoctacions</text>
<text transform="matrix(1 0 0 1 12.95 156.21)" class="st2 st3 st4">LLEIDA</text>
<text transform="matrix(1 0 0 1 12.9501 168.6625)" class="st1 st3 st4">Ocupaci贸</text>
<text transform="matrix(1 0 0 1 12.9501 192.7002)" class="st1 st3 st4">Viatgers</text>
<text transform="matrix(1 0 0 1 12.9499 219.5458)" class="st1 st3 st4">Pernoctacions</text>
<path class="st5" d="M143.5,41.8c-0.5-0.8,0.5-1.1,0.9-1.6c0.2-0.3,0.5-0.2,0.7,0"/>
<path class="st6" d="M208.3,311.1c1.4,1.6,0.3,1.8-1,1.9C206.4,311.9,208.2,311.9,208.3,311.1z"/>
<path class="st7" d="M250.9,397.3c-0.1-0.9-0.5-1.8,0.5-2.4c0.5,0.3,0.9-1.6,1.3,0c0.1,0.5,1.1,1.6-0.4,1.6
	C251.5,396.3,251.4,397,250.9,397.3z"/>
<path class="st8" d="M355.8,211.5c0-0.2,0-0.5-0.1-0.7c0.8-1.7,2.2-1,3.5-1.2C358.4,210.8,356.7,210.3,355.8,211.5z"/>
<path class="st9" d="M364.9,209.5c0.9,0.5,1,1.4,1.2,2.2C364.6,211.8,364.4,210.8,364.9,209.5z"/>
<path class="st10" d="M351.1,206.7V206c0.9,0.4,2.1-0.5,2.8,0.7H351.1z"/>
<g>
	<g class="st0">
		<path class="st11" d="M101.9,42.1v-7.2h1l2.3,3.7c0.5,0.8,1,1.6,1.3,2.3l0,0c-0.1-1-0.1-1.8-0.1-3v-3h0.9v7.2h-0.9l-2.3-3.7
			c-0.5-0.8-1-1.6-1.4-2.4l0,0c0.1,0.9,0.1,1.8,0.1,3v3C102.8,42.1,101.9,42.1,101.9,42.1z"/>
		<path class="st11" d="M113.7,39.4c0,1.9-1.3,2.8-2.6,2.8c-1.4,0-2.5-1-2.5-2.7s1.1-2.8,2.6-2.8S113.7,37.8,113.7,39.4z
			 M109.6,39.4c0,1.1,0.7,2,1.6,2s1.6-0.8,1.6-2c0-0.9-0.4-2-1.6-2S109.6,38.4,109.6,39.4z"/>
		<path class="st11" d="M115.2,36.8l1,2.9c0.2,0.5,0.3,0.9,0.4,1.3l0,0c0.1-0.4,0.3-0.9,0.4-1.3l1-2.9h1l-2,5.2h-0.9l-2-5.2H115.2z"
			/>
		<path class="st11" d="M120.6,39.7c0,1.3,0.8,1.8,1.8,1.8c0.7,0,1.1-0.1,1.4-0.3l0.2,0.7c-0.3,0.2-0.9,0.3-1.7,0.3
			c-1.6,0-2.6-1.1-2.6-2.6c0-1.6,0.9-2.8,2.4-2.8c1.7,0,2.1,1.5,2.1,2.4c0,0.2,0,0.3,0,0.4L120.6,39.7L120.6,39.7z M123.3,38.9
			c0-0.6-0.2-1.5-1.3-1.5c-1,0-1.4,0.9-1.4,1.5H123.3z"/>
		<path class="st11" d="M125.4,38.3c0-0.5,0-1,0-1.4h0.8v0.8l0,0c0.3-0.5,0.8-1,1.6-1c0.7,0,1.2,0.4,1.5,1l0,0
			c0.2-0.3,0.4-0.5,0.6-0.7c0.3-0.2,0.7-0.4,1.1-0.4c0.7,0,1.7,0.5,1.7,2.3V42h-0.9v-3c0-1-0.4-1.6-1.1-1.6c-0.5,0-1,0.4-1.1,0.9
			c0,0.1-0.1,0.3-0.1,0.5V42h-0.9v-3.1c0-0.8-0.4-1.4-1.1-1.4c-0.6,0-1,0.5-1.2,0.9c-0.1,0.1-0.1,0.3-0.1,0.5V42h-0.9L125.4,38.3
			L125.4,38.3z"/>
		<path class="st11" d="M134.3,42.1c0-0.4,0-0.9,0-1.3v-6.3h0.9v3.3l0,0c0.3-0.6,0.9-1,1.8-1c1.3,0,2.2,1.1,2.2,2.6
			c0,1.9-1.2,2.8-2.3,2.8c-0.8,0-1.4-0.3-1.7-1l0,0v0.9H134.3z M135.3,39.9c0,0.1,0,0.2,0,0.3c0.2,0.7,0.7,1.1,1.4,1.1
			c1,0,1.6-0.8,1.6-2c0-1-0.5-1.9-1.5-1.9c-0.6,0-1.2,0.4-1.4,1.2c0,0.1-0.1,0.2-0.1,0.4V39.9z"/>
		<path class="st11" d="M140.5,38.4c0-0.6,0-1.1,0-1.6h0.8v1l0,0c0.2-0.7,0.8-1.1,1.4-1.1c0.1,0,0.2,0,0.3,0v0.9c-0.1,0-0.2,0-0.3,0
			c-0.7,0-1.1,0.5-1.3,1.2c0,0.1,0,0.3,0,0.4V42h-0.9V38.4z"/>
		<path class="st11" d="M144.5,39.7c0,1.3,0.8,1.8,1.8,1.8c0.7,0,1.1-0.1,1.4-0.3l0.2,0.7c-0.3,0.2-0.9,0.3-1.7,0.3
			c-1.6,0-2.6-1.1-2.6-2.6c0-1.6,0.9-2.8,2.4-2.8c1.7,0,2.1,1.5,2.1,2.4c0,0.2,0,0.3,0,0.4L144.5,39.7L144.5,39.7z M147.3,38.9
			c0-0.6-0.2-1.5-1.3-1.5c-1,0-1.4,0.9-1.4,1.5H147.3z"/>
		<path class="st11" d="M158.7,42.1h-4.3v-0.8l1-0.9c0.6-0.5,1.1-1,1.4-1.3c0.3-0.3,0.5-0.7,0.6-1c0.1-0.4,0.2-0.8,0.2-1.2
			c0-0.5-0.1-0.8-0.3-1s-0.5-0.4-1-0.4c-0.2,0-0.4,0-0.6,0.1c-0.2,0-0.4,0.1-0.5,0.2l-0.2,0.9h-0.4v-1.4c0.6-0.2,1.2-0.2,1.6-0.2
			c0.8,0,1.3,0.2,1.7,0.5s0.6,0.8,0.6,1.4c0,0.4-0.1,0.8-0.2,1.1c-0.2,0.3-0.4,0.7-0.7,1s-0.8,0.8-1.6,1.4c-0.3,0.3-0.6,0.6-1,0.9
			h3.6L158.7,42.1L158.7,42.1z"/>
		<path class="st11" d="M164.2,38.6c0,2.4-0.8,3.6-2.3,3.6c-0.7,0-1.3-0.3-1.7-0.9s-0.6-1.5-0.6-2.7s0.2-2.1,0.6-2.7
			c0.4-0.6,1-0.9,1.7-0.9s1.3,0.3,1.7,0.9C164.1,36.4,164.2,37.3,164.2,38.6z M163.3,38.6c0-1.1-0.1-1.9-0.3-2.4s-0.6-0.7-1-0.7
			c-0.5,0-0.8,0.2-1,0.7s-0.3,1.3-0.3,2.5s0.1,2,0.3,2.5s0.5,0.7,1,0.7s0.8-0.3,1-0.8C163.2,40.4,163.3,39.7,163.3,38.6z"/>
		<path class="st11" d="M169.4,42.1h-4.3v-0.8l1-0.9c0.6-0.5,1.1-1,1.4-1.3c0.3-0.3,0.5-0.7,0.6-1c0.1-0.4,0.2-0.8,0.2-1.2
			c0-0.5-0.1-0.8-0.3-1s-0.5-0.4-1-0.4c-0.2,0-0.4,0-0.6,0.1c-0.2,0-0.4,0.1-0.5,0.2l-0.2,0.9h-0.3v-1.4C166,35,166.6,35,167,35
			c0.8,0,1.3,0.2,1.7,0.5s0.6,0.8,0.6,1.4c0,0.4-0.1,0.8-0.2,1.1c-0.2,0.3-0.4,0.7-0.7,1s-0.8,0.8-1.6,1.4c-0.3,0.3-0.6,0.6-1,0.9
			h3.6L169.4,42.1L169.4,42.1z"/>
		<path class="st11" d="M175,38.6c0,2.4-0.8,3.6-2.3,3.6c-0.7,0-1.3-0.3-1.7-0.9s-0.6-1.5-0.6-2.7s0.2-2.1,0.6-2.7
			c0.4-0.6,0.9-0.9,1.7-0.9c0.7,0,1.3,0.3,1.7,0.9C174.8,36.4,175,37.3,175,38.6z M174,38.6c0-1.1-0.1-1.9-0.3-2.4s-0.6-0.7-1-0.7
			c-0.5,0-0.8,0.2-1,0.7s-0.3,1.3-0.3,2.5s0.1,2,0.3,2.5s0.5,0.7,1,0.7s0.8-0.3,1-0.8C173.9,40.4,174,39.7,174,38.6z"/>
		<path class="st11" d="M176.3,41.3c0.1-0.1,0.3-0.2,0.4-0.2s0.3,0.1,0.4,0.2c0.1,0.1,0.2,0.3,0.2,0.4c0,0.2-0.1,0.3-0.2,0.4
			c-0.1,0.1-0.3,0.2-0.4,0.2c-0.2,0-0.3-0.1-0.4-0.2c-0.1-0.1-0.2-0.3-0.2-0.4C176.1,41.4,176.2,41.3,176.3,41.3z"/>
		<path class="st11" d="M188,38.7h-2.8v2.6h3.1V42h-4.1v-7.2h3.9v0.8h-3v2.3h2.8v0.7h0.1V38.7z"/>
		<path class="st11" d="M189.5,38.3c0-0.5,0-1,0-1.4h0.8l0.1,0.9l0,0c0.3-0.5,0.9-1,1.7-1c0.7,0,1.8,0.4,1.8,2.2v3H193v-3
			c0-0.8-0.3-1.5-1.2-1.5c-0.6,0-1.1,0.4-1.3,1c0,0.1-0.1,0.3-0.1,0.4V42h-0.9V38.3L189.5,38.3z"/>
		<path class="st11" d="M196.6,35.3v1.5h1.4v0.7h-1.4v2.8c0,0.6,0.2,1,0.7,1c0.2,0,0.4,0,0.5-0.1V42c-0.2,0.1-0.5,0.1-0.8,0.1
			c-0.4,0-0.8-0.1-1-0.4c-0.3-0.3-0.4-0.7-0.4-1.4v-2.8h-0.8v-0.7h0.8v-1.1L196.6,35.3z"/>
		<path class="st11" d="M199,38.4c0-0.6,0-1.1,0-1.6h0.8v1l0,0c0.2-0.7,0.8-1.1,1.4-1.1c0.1,0,0.2,0,0.3,0v0.9c-0.1,0-0.2,0-0.3,0
			c-0.7,0-1.1,0.5-1.3,1.2c0,0.1,0,0.3,0,0.4V42H199V38.4z"/>
		<path class="st11" d="M203,39.7c0,1.3,0.8,1.8,1.8,1.8c0.7,0,1.1-0.1,1.4-0.3l0.2,0.7c-0.3,0.2-0.9,0.3-1.7,0.3
			c-1.6,0-2.6-1.1-2.6-2.6c0-1.6,0.9-2.8,2.4-2.8c1.7,0,2.1,1.5,2.1,2.4c0,0.2,0,0.3,0,0.4L203,39.7L203,39.7z M205.8,38.9
			c0-0.6-0.2-1.5-1.3-1.5c-1,0-1.4,0.9-1.4,1.5H205.8z"/>
		<path class="st11" d="M213.2,38.6c0-0.7,0-1.2,0-1.7h0.8v0.9l0,0c0.4-0.6,1-1,1.8-1c1.3,0,2.2,1.1,2.2,2.6c0,1.9-1.1,2.8-2.4,2.8
			c-0.7,0-1.3-0.3-1.6-0.8l0,0v2.8h-0.9L213.2,38.6L213.2,38.6z M214.2,39.9c0,0.1,0,0.3,0,0.4c0.2,0.7,0.7,1.1,1.4,1.1
			c1,0,1.6-0.8,1.6-2c0-1-0.5-1.9-1.5-1.9c-0.6,0-1.2,0.5-1.4,1.2c0,0.1-0.1,0.3-0.1,0.4V39.9z"/>
		<path class="st11" d="M222.2,42.1l-0.1-0.7l0,0c-0.3,0.4-0.8,0.8-1.6,0.8c-1.1,0-1.6-0.7-1.6-1.5c0-1.3,1.1-1.9,3.1-1.9v-0.1
			c0-0.4-0.1-1.2-1.2-1.2c-0.5,0-1,0.1-1.4,0.4l-0.2-0.6c0.4-0.3,1.1-0.5,1.7-0.5c1.6,0,2,1.1,2,2.1v1.9c0,0.5,0,0.9,0.1,1.2
			L222.2,42.1L222.2,42.1z M222.1,39.4c-1,0-2.2,0.2-2.2,1.2c0,0.6,0.4,0.9,0.9,0.9c0.7,0,1.1-0.4,1.3-0.9c0-0.1,0.1-0.2,0.1-0.3
			v-0.9H222.1z"/>
		<path class="st11" d="M224.5,38.4c0-0.6,0-1.1,0-1.6h0.8v1l0,0c0.2-0.7,0.8-1.1,1.4-1.1c0.1,0,0.2,0,0.3,0v0.9c-0.1,0-0.2,0-0.3,0
			c-0.7,0-1.1,0.5-1.3,1.2c0,0.1,0,0.3,0,0.4V42h-0.9V38.4z"/>
		<path class="st11" d="M228.6,39.7c0,1.3,0.8,1.8,1.8,1.8c0.7,0,1.1-0.1,1.4-0.3l0.2,0.7c-0.3,0.2-0.9,0.3-1.7,0.3
			c-1.6,0-2.6-1.1-2.6-2.6c0-1.6,0.9-2.8,2.4-2.8c1.7,0,2.1,1.5,2.1,2.4c0,0.2,0,0.3,0,0.4L228.6,39.7L228.6,39.7z M231.3,38.9
			c0-0.6-0.2-1.5-1.3-1.5c-1,0-1.4,0.9-1.4,1.5H231.3z M229.7,34.7l0.9,1.5h-0.7l-1.3-1.5H229.7z"/>
		<path class="st11" d="M233.4,38.3c0-0.5,0-1,0-1.4h0.8l0.1,0.9l0,0c0.3-0.5,0.9-1,1.7-1c0.7,0,1.8,0.4,1.8,2.2v3h-0.9v-3
			c0-0.8-0.3-1.5-1.2-1.5c-0.6,0-1.1,0.4-1.3,1c0,0.1-0.1,0.3-0.1,0.4V42h-0.9L233.4,38.3L233.4,38.3z"/>
		<path class="st11" d="M240.5,35.3v1.5h1.4v0.7h-1.4v2.8c0,0.6,0.2,1,0.7,1c0.2,0,0.4,0,0.5-0.1V42c-0.2,0.1-0.5,0.1-0.8,0.1
			c-0.4,0-0.8-0.1-1-0.4c-0.3-0.3-0.4-0.7-0.4-1.4v-2.8h-0.8v-0.7h0.8v-1.1L240.5,35.3z"/>
		<path class="st11" d="M243.4,39.7c0,1.3,0.8,1.8,1.8,1.8c0.7,0,1.1-0.1,1.4-0.3l0.2,0.7c-0.3,0.2-0.9,0.3-1.7,0.3
			c-1.6,0-2.6-1.1-2.6-2.6c0-1.6,0.9-2.8,2.4-2.8c1.7,0,2.1,1.5,2.1,2.4c0,0.2,0,0.3,0,0.4L243.4,39.7L243.4,39.7z M246.2,38.9
			c0-0.6-0.2-1.5-1.3-1.5c-1,0-1.4,0.9-1.4,1.5H246.2z"/>
		<path class="st11" d="M248.2,41.2c0.3,0.2,0.8,0.4,1.2,0.4c0.7,0,1-0.3,1-0.8s-0.3-0.7-1-1c-0.9-0.3-1.4-0.8-1.4-1.5
			c0-0.8,0.7-1.5,1.8-1.5c0.5,0,1,0.2,1.3,0.3l-0.2,0.7c-0.2-0.1-0.6-0.3-1.1-0.3c-0.6,0-0.9,0.3-0.9,0.7s0.3,0.6,1,0.9
			c0.9,0.3,1.4,0.8,1.4,1.6c0,0.9-0.7,1.6-1.9,1.6c-0.6,0-1.1-0.1-1.5-0.4L248.2,41.2z"/>
		<path class="st11" d="M253.6,35.4c0,0.3-0.2,0.6-0.6,0.6c-0.3,0-0.6-0.3-0.6-0.6s0.2-0.6,0.6-0.6S253.6,35.1,253.6,35.4z
			 M252.5,42.1v-5.2h0.9v5.2H252.5z"/>
		<path class="st11" d="M254.8,43.8v-0.2c0.3-0.1,0.6-0.3,0.8-0.5c0.2-0.3,0.3-0.5,0.3-0.8v-0.2h-0.1l-0.5,0.2
			c-0.4,0-0.6-0.2-0.6-0.6c0-0.2,0.1-0.3,0.2-0.4c0.1-0.1,0.3-0.2,0.5-0.2c0.3,0,0.5,0.1,0.7,0.4c0.2,0.2,0.2,0.5,0.2,0.7
			C256.4,42.9,255.9,43.6,254.8,43.8z"/>
		<path class="st11" d="M263.5,36.8l1,2.9c0.2,0.5,0.3,0.9,0.4,1.3l0,0c0.1-0.4,0.3-0.9,0.4-1.3l1-2.9h1l-2,5.2h-0.9l-2-5.2H263.5z"
			/>
		<path class="st11" d="M271.1,42.1l-0.1-0.7l0,0c-0.3,0.4-0.8,0.8-1.6,0.8c-1.1,0-1.6-0.7-1.6-1.5c0-1.3,1.1-1.9,3.1-1.9v-0.1
			c0-0.4-0.1-1.2-1.2-1.2c-0.5,0-1,0.1-1.4,0.4l-0.2-0.6c0.4-0.3,1.1-0.5,1.7-0.5c1.6,0,2,1.1,2,2.1v1.9c0,0.5,0,0.9,0.1,1.2
			L271.1,42.1L271.1,42.1z M271,39.4c-1,0-2.2,0.2-2.2,1.2c0,0.6,0.4,0.9,0.9,0.9c0.7,0,1.1-0.4,1.3-0.9c0-0.1,0.1-0.2,0.1-0.3
			L271,39.4L271,39.4z"/>
		<path class="st11" d="M273.4,38.4c0-0.6,0-1.1,0-1.6h0.8v1l0,0c0.2-0.7,0.8-1.1,1.4-1.1c0.1,0,0.2,0,0.3,0v0.9c-0.1,0-0.2,0-0.3,0
			c-0.7,0-1.1,0.5-1.3,1.2c0,0.1,0,0.3,0,0.4V42h-0.9V38.4z"/>
		<path class="st11" d="M278,35.4c0,0.3-0.2,0.6-0.6,0.6c-0.3,0-0.6-0.3-0.6-0.6s0.2-0.6,0.6-0.6C277.8,34.8,278,35.1,278,35.4z
			 M276.9,42.1v-5.2h0.9v5.2H276.9z"/>
		<path class="st11" d="M282.3,42.1l-0.1-0.7l0,0c-0.3,0.4-0.8,0.8-1.6,0.8c-1.1,0-1.6-0.7-1.6-1.5c0-1.3,1.1-1.9,3.1-1.9v-0.1
			c0-0.4-0.1-1.2-1.2-1.2c-0.5,0-1,0.1-1.4,0.4l-0.2-0.6c0.4-0.3,1.1-0.5,1.7-0.5c1.6,0,2,1.1,2,2.1v1.9c0,0.5,0,0.9,0.1,1.2
			L282.3,42.1L282.3,42.1z M282.2,39.4c-1,0-2.2,0.2-2.2,1.2c0,0.6,0.4,0.9,0.9,0.9c0.7,0,1.1-0.4,1.3-0.9c0-0.1,0.1-0.2,0.1-0.3
			L282.2,39.4L282.2,39.4z"/>
		<path class="st11" d="M288.3,41.8c-0.2,0.1-0.8,0.3-1.5,0.3c-1.6,0-2.6-1.1-2.6-2.6c0-1.6,1.1-2.8,2.8-2.8c0.6,0,1.1,0.1,1.3,0.3
			l-0.2,0.7c-0.2-0.1-0.6-0.2-1.1-0.2c-1.2,0-1.8,0.9-1.8,2c0,1.2,0.8,1.9,1.8,1.9c0.5,0,0.9-0.1,1.2-0.3L288.3,41.8z"/>
		<path class="st11" d="M290.5,35.4c0,0.3-0.2,0.6-0.6,0.6c-0.3,0-0.6-0.3-0.6-0.6s0.2-0.6,0.6-0.6
			C290.3,34.8,290.5,35.1,290.5,35.4z M289.4,42.1v-5.2h0.9v5.2H289.4z"/>
		<path class="st11" d="M296.6,39.4c0,1.9-1.3,2.8-2.6,2.8c-1.4,0-2.5-1-2.5-2.7s1.1-2.8,2.6-2.8S296.6,37.8,296.6,39.4z
			 M292.5,39.4c0,1.1,0.7,2,1.6,2s1.6-0.8,1.6-2c0-0.9-0.4-2-1.6-2S292.5,38.4,292.5,39.4z M295.5,34.7l-1.3,1.5h-0.7l0.9-1.5H295.5
			z"/>
		<path class="st11" d="M304.2,35.4c0,0.3-0.2,0.6-0.6,0.6c-0.3,0-0.6-0.3-0.6-0.6s0.2-0.6,0.6-0.6S304.2,35.1,304.2,35.4z
			 M303.2,42.1v-5.2h0.9v5.2H303.2z"/>
		<path class="st11" d="M305.7,38.3c0-0.5,0-1,0-1.4h0.8l0.1,0.9l0,0c0.3-0.5,0.9-1,1.7-1c0.7,0,1.8,0.4,1.8,2.2v3h-0.9v-3
			c0-0.8-0.3-1.5-1.2-1.5c-0.6,0-1.1,0.4-1.3,1c0,0.1-0.1,0.3-0.1,0.4V42h-0.9V38.3z"/>
		<path class="st11" d="M312.8,35.3v1.5h1.4v0.7h-1.4v2.8c0,0.6,0.2,1,0.7,1c0.2,0,0.4,0,0.5-0.1V42c-0.2,0.1-0.5,0.1-0.8,0.1
			c-0.4,0-0.8-0.1-1-0.4c-0.3-0.3-0.4-0.7-0.4-1.4v-2.8H311v-0.7h0.8v-1.1L312.8,35.3z"/>
		<path class="st11" d="M315.7,39.7c0,1.3,0.8,1.8,1.8,1.8c0.7,0,1.1-0.1,1.4-0.3l0.2,0.7c-0.3,0.2-0.9,0.3-1.7,0.3
			c-1.6,0-2.6-1.1-2.6-2.6c0-1.6,0.9-2.8,2.4-2.8c1.7,0,2.1,1.5,2.1,2.4c0,0.2,0,0.3,0,0.4L315.7,39.7L315.7,39.7z M318.5,38.9
			c0-0.6-0.2-1.5-1.3-1.5c-1,0-1.4,0.9-1.4,1.5H318.5z"/>
		<path class="st11" d="M320.6,38.4c0-0.6,0-1.1,0-1.6h0.8v1l0,0c0.2-0.7,0.8-1.1,1.4-1.1c0.1,0,0.2,0,0.3,0v0.9c-0.1,0-0.2,0-0.3,0
			c-0.7,0-1.1,0.5-1.3,1.2c0,0.1,0,0.3,0,0.4V42h-0.9V38.4z"/>
		<path class="st11" d="M327,42.1l-0.1-0.7l0,0c-0.3,0.4-0.8,0.8-1.6,0.8c-1.1,0-1.6-0.7-1.6-1.5c0-1.3,1.1-1.9,3.1-1.9v-0.1
			c0-0.4-0.1-1.2-1.2-1.2c-0.5,0-1,0.1-1.4,0.4l-0.2-0.6c0.4-0.3,1.1-0.5,1.7-0.5c1.6,0,2,1.1,2,2.1v1.9c0,0.5,0,0.9,0.1,1.2
			L327,42.1L327,42.1z M326.8,39.4c-1,0-2.2,0.2-2.2,1.2c0,0.6,0.4,0.9,0.9,0.9c0.7,0,1.1-0.4,1.3-0.9c0-0.1,0.1-0.2,0.1-0.3
			L326.8,39.4L326.8,39.4z"/>
		<path class="st11" d="M329.3,38.3c0-0.5,0-1,0-1.4h0.8l0.1,0.9l0,0c0.3-0.5,0.9-1,1.7-1c0.7,0,1.8,0.4,1.8,2.2v3h-0.9v-3
			c0-0.8-0.3-1.5-1.2-1.5c-0.6,0-1.1,0.4-1.3,1c0,0.1-0.1,0.3-0.1,0.4V42h-0.9V38.3z"/>
		<path class="st11" d="M339.6,40.7c0,0.5,0,1,0,1.4h-0.8l-0.1-0.8l0,0c-0.2,0.4-0.8,1-1.7,1c-0.8,0-1.8-0.5-1.8-2.3v-3h0.9v2.9
			c0,1,0.3,1.7,1.2,1.7c0.6,0,1.1-0.4,1.2-0.9c0.1-0.1,0.1-0.3,0.1-0.5V37h0.9L339.6,40.7L339.6,40.7z"/>
		<path class="st11" d="M344,42.1l-0.1-0.7l0,0c-0.3,0.4-0.8,0.8-1.6,0.8c-1.1,0-1.6-0.7-1.6-1.5c0-1.3,1.1-1.9,3.1-1.9v-0.1
			c0-0.4-0.1-1.2-1.2-1.2c-0.5,0-1,0.1-1.4,0.4l-0.2-0.6c0.4-0.3,1.1-0.5,1.7-0.5c1.6,0,2,1.1,2,2.1v1.9c0,0.5,0,0.9,0.1,1.2
			L344,42.1L344,42.1z M343.9,39.4c-1,0-2.2,0.2-2.2,1.2c0,0.6,0.4,0.9,0.9,0.9c0.7,0,1.1-0.4,1.3-0.9c0-0.1,0.1-0.2,0.1-0.3
			L343.9,39.4L343.9,39.4z"/>
		<path class="st11" d="M346.3,34.4h0.9V42h-0.9V34.4z"/>
		<path class="st11" d="M354.2,38.4c0-0.6,0-1.1,0-1.6h0.8v1l0,0c0.2-0.7,0.8-1.1,1.4-1.1c0.1,0,0.2,0,0.3,0v0.9c-0.1,0-0.2,0-0.3,0
			c-0.7,0-1.1,0.5-1.3,1.2c0,0.1,0,0.3,0,0.4V42h-0.9V38.4z"/>
		<path class="st11" d="M358.2,39.7c0,1.3,0.8,1.8,1.8,1.8c0.7,0,1.1-0.1,1.4-0.3l0.2,0.7c-0.3,0.2-0.9,0.3-1.7,0.3
			c-1.6,0-2.6-1.1-2.6-2.6c0-1.6,0.9-2.8,2.4-2.8c1.7,0,2.1,1.5,2.1,2.4c0,0.2,0,0.3,0,0.4L358.2,39.7L358.2,39.7z M361,38.9
			c0-0.6-0.2-1.5-1.3-1.5c-1,0-1.4,0.9-1.4,1.5H361z"/>
		<path class="st11" d="M363,41.2c0.3,0.2,0.8,0.4,1.2,0.4c0.7,0,1-0.3,1-0.8s-0.3-0.7-1-1c-0.9-0.3-1.4-0.8-1.4-1.5
			c0-0.8,0.7-1.5,1.8-1.5c0.5,0,1,0.2,1.3,0.3l-0.2,0.7c-0.2-0.1-0.6-0.3-1.1-0.3c-0.6,0-0.9,0.3-0.9,0.7s0.3,0.6,1,0.9
			c0.9,0.3,1.4,0.8,1.4,1.6c0,0.9-0.7,1.6-1.9,1.6c-0.6,0-1.1-0.1-1.5-0.4L363,41.2z"/>
		<path class="st11" d="M367.3,38.6c0-0.7,0-1.2,0-1.7h0.8v0.9l0,0c0.4-0.6,1-1,1.8-1c1.3,0,2.2,1.1,2.2,2.6c0,1.9-1.1,2.8-2.4,2.8
			c-0.7,0-1.3-0.3-1.6-0.8l0,0v2.8h-0.9v-5.6H367.3z M368.3,39.9c0,0.1,0,0.3,0,0.4c0.2,0.7,0.7,1.1,1.4,1.1c1,0,1.6-0.8,1.6-2
			c0-1-0.5-1.9-1.5-1.9c-0.6,0-1.2,0.5-1.4,1.2c0,0.1-0.1,0.3-0.1,0.4V39.9z"/>
		<path class="st11" d="M374,39.7c0,1.3,0.8,1.8,1.8,1.8c0.7,0,1.1-0.1,1.4-0.3l0.2,0.7c-0.3,0.2-0.9,0.3-1.7,0.3
			c-1.6,0-2.6-1.1-2.6-2.6c0-1.6,0.9-2.8,2.4-2.8c1.7,0,2.1,1.5,2.1,2.4c0,0.2,0,0.3,0,0.4L374,39.7L374,39.7z M376.7,38.9
			c0-0.6-0.2-1.5-1.3-1.5c-1,0-1.4,0.9-1.4,1.5H376.7z"/>
		<path class="st11" d="M382.5,41.8c-0.2,0.1-0.8,0.3-1.5,0.3c-1.6,0-2.6-1.1-2.6-2.6c0-1.6,1.1-2.8,2.8-2.8c0.6,0,1.1,0.1,1.3,0.3
			l-0.2,0.7c-0.2-0.1-0.6-0.2-1.1-0.2c-1.2,0-1.8,0.9-1.8,2c0,1.2,0.8,1.9,1.8,1.9c0.5,0,0.9-0.1,1.2-0.3L382.5,41.8z"/>
		<path class="st11" d="M384.8,35.3v1.5h1.4v0.7h-1.4v2.8c0,0.6,0.2,1,0.7,1c0.2,0,0.4,0,0.5-0.1V42c-0.2,0.1-0.5,0.1-0.8,0.1
			c-0.4,0-0.8-0.1-1-0.4c-0.3-0.3-0.4-0.7-0.4-1.4v-2.8H383v-0.7h0.8v-1.1L384.8,35.3z"/>
		<path class="st11" d="M387.7,39.7c0,1.3,0.8,1.8,1.8,1.8c0.7,0,1.1-0.1,1.4-0.3l0.2,0.7c-0.3,0.2-0.9,0.3-1.7,0.3
			c-1.6,0-2.6-1.1-2.6-2.6c0-1.6,0.9-2.8,2.4-2.8c1.7,0,2.1,1.5,2.1,2.4c0,0.2,0,0.3,0,0.4L387.7,39.7L387.7,39.7z M390.5,38.9
			c0-0.6-0.2-1.5-1.3-1.5c-1,0-1.4,0.9-1.4,1.5H390.5z"/>
		<path class="st11" d="M398.4,39.7c0,1.3,0.8,1.8,1.8,1.8c0.7,0,1.1-0.1,1.4-0.3l0.2,0.7c-0.3,0.2-0.9,0.3-1.7,0.3
			c-1.6,0-2.6-1.1-2.6-2.6c0-1.6,0.9-2.8,2.4-2.8c1.7,0,2.1,1.5,2.1,2.4c0,0.2,0,0.3,0,0.4L398.4,39.7L398.4,39.7z M401.2,38.9
			c0-0.6-0.2-1.5-1.3-1.5c-1,0-1.4,0.9-1.4,1.5H401.2z"/>
		<path class="st11" d="M403.3,34.4h0.9V42h-0.9V34.4z"/>
		<path class="st11" d="M415.2,42.1h-4.3v-0.8l1-0.9c0.6-0.5,1.1-1,1.4-1.3s0.5-0.7,0.6-1c0.1-0.4,0.2-0.8,0.2-1.2
			c0-0.5-0.1-0.8-0.3-1c-0.2-0.2-0.5-0.4-1-0.4c-0.2,0-0.4,0-0.6,0.1c-0.2,0-0.4,0.1-0.5,0.2l-0.2,0.9h-0.3v-1.4
			c0.6-0.2,1.2-0.2,1.6-0.2c0.8,0,1.3,0.2,1.7,0.5c0.4,0.3,0.6,0.8,0.6,1.4c0,0.4-0.1,0.8-0.2,1.1c-0.2,0.3-0.4,0.7-0.7,1
			c-0.3,0.3-0.8,0.8-1.6,1.4c-0.3,0.3-0.6,0.6-1,0.9h3.6L415.2,42.1L415.2,42.1z"/>
		<path class="st11" d="M420.7,38.6c0,2.4-0.8,3.6-2.3,3.6c-0.7,0-1.3-0.3-1.7-0.9c-0.4-0.6-0.6-1.5-0.6-2.7s0.2-2.1,0.6-2.7
			c0.4-0.6,1-0.9,1.7-0.9s1.3,0.3,1.7,0.9C420.5,36.4,420.7,37.3,420.7,38.6z M419.8,38.6c0-1.1-0.1-1.9-0.3-2.4s-0.6-0.7-1-0.7
			c-0.5,0-0.8,0.2-1,0.7s-0.3,1.3-0.3,2.5s0.1,2,0.3,2.5c0.2,0.5,0.5,0.7,1,0.7s0.8-0.3,1-0.8C419.7,40.4,419.8,39.7,419.8,38.6z"/>
		<path class="st11" d="M424.4,41.7l1.4,0.1V42H422v-0.3l1.4-0.1v-5.7l-1.4,0.5v-0.3l2-1.2h0.3v6.7L424.4,41.7L424.4,41.7z"/>
		<path class="st11" d="M426.8,37.2c0-0.7,0.2-1.3,0.6-1.6s1-0.6,1.7-0.6c0.8,0,1.4,0.3,1.8,0.9c0.4,0.6,0.6,1.5,0.6,2.7
			s-0.2,2.1-0.7,2.7c-0.5,0.6-1.2,0.9-2,0.9c-0.6,0-1.1-0.1-1.6-0.2v-1.2h0.3l0.2,0.8c0.1,0.1,0.3,0.1,0.5,0.1s0.4,0.1,0.6,0.1
			c0.6,0,1-0.2,1.3-0.7s0.5-1.2,0.5-2.2c-0.5,0.3-1.1,0.4-1.6,0.4c-0.6,0-1.1-0.2-1.5-0.6C427.1,38.3,426.8,37.8,426.8,37.2z
			 M429.1,35.3c-0.9,0-1.3,0.6-1.3,1.8c0,0.5,0.1,0.9,0.3,1.2c0.2,0.3,0.5,0.4,1,0.4s0.9-0.1,1.4-0.3c0-1.1-0.1-1.9-0.3-2.4
			S429.6,35.3,429.1,35.3z"/>
	</g>
</g>
<rect x="174.7" y="51.3" class="st12" width="28.5" height="8.8"/>
<text transform="matrix(1 0 0 1 174.74 57.96)" class="st13 st14">BARCELONA</text>
<text transform="matrix(1 0 0 1 242.74 57.96)" class="st13 st14">LLEIDA</text>
<text transform="matrix(1 0 0 1 293.53 57.96)" class="st13 st14">GIRONA</text>
<text transform="matrix(1 0 0 1 351.36 57.96)" class="st13 st14">TARRAGONA</text>
<rect x="154.4" y="51.7" class="st2" width="16.7" height="8"/>
<rect x="272.9" y="51.7" class="st15" width="16.7" height="8"/>
<rect x="329.8" y="51.7" class="st1" width="16.7" height="8"/>
<rect x="224.3" y="51.7" class="st16" width="16.7" height="8"/>
<g>
	<path class="st16" d="M57,383.2c-1.6-2-3.4-3.9-2.4-6.8c0.2-0.8-0.3-1.7-1.1-1.9l0,0h-0.2c-2.5-0.7-1.6-2-0.4-3.1
		c0.9-0.9,2.6-1.2,2.3-2.7c-0.4-1.8-1.4-3.5-2.8-4.7c-0.3-0.3-0.7-0.4-1-0.7c-3.9-2.9-4-2.9-1.4-6.8c1.8-2.6,1-6,2.3-8.8
		c0.3-0.6-1.2-2.9-1.7-4.7s0.3-2.3,1.8-2c4.7,1.2,7.4-1,9.4-5.1c0.9-2,2.2-3.7,3.8-5.2c1.7-1.5,1.2-2.7,0.3-4.1
		c-1.3-1.6-1.6-3.9-0.8-5.8c0.4-1.2,0.1-2.6-0.9-3.5c-0.9-1-1.8,0.2-2.6,0.6c-3.2,1.4-6.2,0-9.2-0.8c-1.5-0.4-1.4-3.2-0.3-4.7
		c0.9-1.3,0.7-1.9-0.3-2.8c-1.4-1.5-2.1-3.5-3.3-5.3c-1-1.5-0.2-3.2,0.9-4.7c2.4-3,6-5.3,7.1-9.2c0.6-1.9,2.6,1.2,2.7-1.2
		c0.1-1.2,0.4-2.3,0.9-3.4c0.1-0.3,0.8-0.6,1.2-0.7c2.4-0.5,4.8-0.8,7.3-1c1.7,0,2.6-0.6,2.5-2c-0.4-4.6,3.7-6.2,5.8-9.2
		c0.7-1,2-0.8,3.1-0.6c2.9,0.6,3.9-1.3,3.8-3.5c-0.2-2.5,1-2.3,2.9-2.9c2.2-0.6,3.9-3,5.8-4.8c0.1-0.1-0.2-0.7-0.4-1
		c-1.6-2-1.7-4.9-0.2-7.7c0.6-1-0.3-1.2-0.9-1.5c-1.3-0.6-2.6-1.1-3.9-1.5c-2.1-0.5-1.8-1.7-0.9-2.9s1.8-2.2,2.7-3.4
		c0.3-0.4,0.7-0.9,1.2-0.4c2.2,2,2.1-0.6,2.7-1.4c0.5-0.7,0.9-1.5,1.1-2.4c0.1-1,1.1-1.8,2.1-1.7l0,0c1.4,0,0.9,1.3,1.5,2.1
		c0.6-1.7,1.5-3.3,2.6-4.7c0.6-0.6,1.4-1.8,0-2.8s-0.6-3.3,0-3.8c2.9-2.5,1.6-6.6,3.8-9.4c0.7-1,1.3-2.1,1.8-3.2
		c1.3-1.6,1.7-3.8,1-5.8c-0.8-2.4-1.5-5.1,1.5-6.8c0.6-0.4,0.9-1,0.2-1.4c-2.2-1.1-1.4-2.9-0.9-4.3c1.7-4.3,1.9-9.2,4.8-13.1
		c0.5-0.7,0.7-1.6,0.6-2.5c0.3-3.8,1-7.5,3.4-10.6c0.8-1.1,0.7-1.9-0.8-2.1c-0.8-0.1-1.8,0-1.9-1.1c-0.2-1.3,1-1.8,1.8-2.4
		s2.4-0.2,2.2-1.5s-1.7-1.4-2.9-1.4c-1.5,0-2.4-1.1-3.9-1.6c1-1.2,2.6-1.8,2.9-3.2s-0.6-2.8-1.6-3.9c-0.3-0.2-0.4-0.6-0.3-0.9v-0.1
		l0.1-0.1v-0.1c1.2-2-0.4-3.1-1.6-4.2c-0.9-0.8-2-1.5-2-2.7c0-2.6-0.8-5.2-2.2-7.4c-0.8-1.2,0.8-2.4,1.1-2.2
		c3.3,1.2,3.7-2.3,6.2-3.2c-1.6-1.5-3.7-2.4-2.5-4.8c0.8-1.7,2.2-1.6,4.6-0.7c-2.8-2.5-1-4.4-0.2-5.8c1.8-2.9,0.9-6.2,2.2-9.1
		c0.6-1.2-0.5-1.4-1.5-1.6c-2.4-0.3-4.8-0.8-7.1-1.7c-0.9-0.4-1.9-0.8-1.7-1.8c0.9-5.3-3.4-7.9-5.8-11.8c3.2,0.5,1.3-2.8,2.9-3.7
		c-1.7-1.4,0.5-3.6-1.4-5c-1.7-1.3-0.6-4.7-3.8-4.8c0-0.9,0.4-1.8,1.2-2.4c1.3-0.9,2.4-1.4-0.1-2.5c-2.2-1-0.2-2.6,0.5-3.2
		c2.6-2.2,1.7-4.6,0.7-6.9c-0.6-1.4-0.5-2,0.8-2.8c2.6-1.8,5.4-4.4,8.7-2.3c1.9,1.2,3.9,1.8,5.7,3c1.5,1.1,3.4,1.3,5.1,0.6
		c0.5-0.4,1.1-0.4,1.7-0.2c5,2.6,10.6,3.6,14.9,7.5c0.9,0.8,1.8,1.4,2.8,2c1.1,0.7,1.9,0.8,2.9-0.5c2.1-2.5,3.8-2.3,5.6,0.3
		c0.4,0.6,0.8,1.4,1.5,1.2c4.3-1.3,8.3,1.4,12.5,0.9c3.5-0.4,9.5,4.2,9.7,7.8c0.3,3.8,3.4,5.2,5.8,7.1c0.3,0.2,1,0.3,1.1,0.1
		c2.1-2.2,5.4-1.7,7.8-3c0.7-0.5,1.6-0.6,2.4-0.2c5.4,2.1,7,2.1,13.3,0.3c1.6-0.5,2.7,1.5,4.9,0.2c-1.5,3.5-0.7,5.2,2.6,5.5
		c0.9,0.1,2.1,0.7,2,1.5c-0.8,3.3,2,4.5,3.5,6.2c0.6,0.8,0.9,1.7,0.9,2.7c0.3,2.9,1.8,5.4,3.4,7.7c0.8,1.3,0.8,1.8-0.2,2.4
		c-2.2,1.6-1.5,2.9,0.4,4c1.5,0.8,1,1.4-0.1,1.8c-2.7,1-2.6,3.6-3.8,5.6c0.5,0.2,0.7,0.4,0.8,0.3c4.7-1.6,6.3-0.8,7.1,4.1
		c0.4,2.3-2.2,2.8-3.7,3.8c-0.7,0.4-1.6,0.3-2.2,0.7c-0.5,0.4-0.8,0.9-0.9,1.5c-0.2,0.9,0.7,0.7,1.2,0.8c2.9,0.7,2,3.3,2.1,5.1
		c0.2,2.9,0.9,4.6,4.2,4.6s6.5,1.3,10.1,0.9c3-0.3,4.1-1.6,4.4-3.9c0.2-1.9,0.6-1.9,1.8-0.7c1,1.1,1.7,0.7,2-0.6s1.5-2.1,2.8-1.9
		c0.1,0,0.3,0.1,0.4,0.1c1.1,0.2,2.1,0.2,3.2,0.2c4.7-0.1,5.2-0.5,5.8-5.1c0.2-1.4,0.2-2.5,2.4-1.4c2.2,1.1,5,1.9,7-0.9
		c0.8,1.3,0,3,1.1,4.2c0.2,0.7,0.2,1.3,0.1,2c-0.5,1.8-0.7,3.6,0.6,5.2c0.4,0.4,0.8,0.7,1.2,1c1,0.5,2,0.9,3.1,1.2
		c0.7,0.3,1.5,0.3,2.2,0.1c1.1-0.2,2.3,0,3.3,0.7c0.7,0.5,1.3,1.3,1.5,2.2c0.1,1.9,0.1,3.7,0,5.6c-0.1,0.6-0.4,1.1-0.5,1.7
		c-0.3,2,0.6,2.2,2,1.2c0.8-0.6,1.8-0.7,2.7-0.2c0.7,0.3,1.4,0.6,2.1,1c0.5,0.5,0.1,1.2,0.3,1.8c-0.4,0.9-0.9,1.8-1.5,2.6
		c-0.6,1-0.4,2-0.7,3c-0.7,1.9,0.2,3.5,0.4,5.3c-1,2.5-2.8,3.1-5.3,2.4c-1.7-0.1-2.7,1.7-4.4,1.6c-2.1-0.2-4.3,0-6.3,0.8
		c-2.7,1-5.7,0.2-8.8,1c1.6,0.8,2.3,2.7,1.6,4.3c-0.2,1,0.2,2,0.9,2.7c1.2,1.5,1.4,2.9-0.4,4c-1.4,0.8-1.8,2.5-1.1,3.9
		c0.5,1.6,2,2.6,3.6,2.5c2,0,3.9-0.3,4.4,2.2s-0.8,5.5-2.8,6.4c-1.2,0.5-2,1.6-2.4,2.8c-0.5,0.8-0.5,1.8,0.1,2.5
		c1.4,1.9,1.1,4.2,2.4,6.1c0.8,1.1-0.4,2.5-2.1,2.7c-0.8,0.1-1.7-0.7-2.4,0.2c-0.4,2.1-1.6,3.9-2.2,5.9c0,0.6-0.8,1.2,0.5,1.6
		c3,0.8,3.2,1.7,1.3,4.1c-0.8,0.8-1.7,1.3-2.8,1.6c-1.1-0.1-2.1-0.4-2.6,1.1c-0.7,1.7,0,2.8,1.3,3.8c0.1,0.3,0.2,0.5,0.3,0.8v0.9
		c-1.9,2-2.7,4.8-2,7.5c0.3,1.9,0.2,3.8-1.7,5c-1.2,0.9-2.2,2-3.1,3.2c-1.7,1.4-3.5,2.6-5.4,3.6c-0.7,0.4-1.6,0.7-1.2,1.7
		c0.3,0.5,0.9,0.8,1.5,0.6c0.1,0,0.2-0.1,0.3-0.2c2.3-1.4,4.1-1,5.6,1.3c1.4,2.1,1.2,4.9-0.6,6.7c-0.6,0.6-1,1.4-1,2.3
		c0.2,1.4-0.6,2.8-1.9,3.4c-1.5,0.7-1.2,1.9-0.8,3c0.3,0.8,0.3,1.7,0,2.5c-0.6,1.2-1.4,1.9-2.7,1.6c-0.8-0.3-1.8-0.1-2.4,0.6
		c-0.8,1.1-2.2,1.3-2.8,2.5c-1.1,1.1-2,0.5-3-0.1c-2-1-3.6-2.8-4.3-4.9c-1.4-0.9-1.7,0-1.9,1.1c-0.1,0.9-0.9,1.6-1.8,1.6h-0.1
		c-1.5-0.2-1-1.4-0.9-2.3s0.6-2.1-0.8-2.7c-2,0.5-4.1-1.2-6,0.3c-0.7,0.7-0.5,1.8-0.8,2.5c-0.4,0.7-0.7,1.5-0.9,2.3
		c0,1.1-0.2,2.2-0.4,3.3c-0.4,0.9-0.9,1.8,0.2,2.5c1.9,1.4,1.1,2.5-0.1,3.8c-1,0.9-1.9,1.9-2.7,2.9c0.9,1.9,1.6,3.7,3.5,5.1
		c1.4,1,1.4,3.6,2.2,5.5c0.4,0.6,0.9,1.3,1.5,1.8c1.7,1.8,1.4,2.8-1,3.4c-0.4,0.1-0.8,0.2-1.2,0.1c-3.4-1-6,0.8-8.6,2.6
		c-1.2,1.1-1.2,1.1-0.7,1.4c1.7,0.6,2.9,1.9,4.6,2.4s2,1.7,1,3.1c-2,1.5-1.4,2.9,0,4.3c0.3,0.3,0.4,0.8,0.1,1.2
		c-1.1,1-2.8,1-3.9-0.1c-0.6-0.6-1.4-1-2.2-1.1l-2.1-0.3c-1.4-0.4-2.9-0.5-4.3-0.3h-0.8c-1.1-0.2-2.2,0-3.2,0.4
		c-0.4,0.2-0.8,0.3-1.2,0.2c-1.1-0.5-2.3-0.7-3.5-0.7c-1.2-0.2-2.3-0.7-3.5-0.2s-2.3-0.1-3.3,0.8s-1,2-1.4,3.1
		c-0.7,0.7-1.6,1.2-2.5,1.5c-1.2,0.4-2.4,0.1-3.6,0.6c-2,0.9,0,2.5-0.7,3.6c-1.3,1.8-0.1,3.1,0.7,4.5c0.3,0.6,0.4,1.3,0.3,2
		c-0.4,0.7-1.2,1.1-1.7,1.7c-1.1,1.1-2.5,1.2-3.9,1.5c-0.7,0-1.4,0.2-2.1,0.5c-0.8,0.4-1.6,0.7-2.5,0.9c-1,0-1.4-1.1-2.3-1.1
		c-0.6,0.2-1.3,0.1-1.9-0.1c-1-1.2-2.3-2.1-3.7-2.6l-1-0.7c-0.5-0.3-0.8-0.8-1.8-0.8c0.8,1.3-0.7,2.6,0.4,3.9
		c0.7,0.6,1.5,1.1,2.2,1.6c2.3,1.2,1.5,2.6,0.2,4.1c-0.4,0.7-1,1.2-1.7,1.6c-0.4,0.3-0.7,0.7-0.9,1.1c-0.4,1.6-1.6,2.6-2,4.2
		c-0.1,0.8-0.5,1.6-1.2,2.1c-2,0.5-4.2,0.6-5.2,2.8c-2.4,1.6-3.4,4-4.2,6.6c-1,1.2-2.4,2-4,2.2c-2.6,0.2-5.3,0.1-7.7,1.2
		c-1,0.4-2,0.6-3,0.6c-1.8-0.1-2.8-1.2-3.8-2.5c-0.4-0.5-0.7-1.7-1.8-0.7c-0.6,0.8-1,1.8-1.2,2.8c-0.8,1.1-1.2,2.4-2.4,3.1
		c-0.4,0.1-0.8,0.2-1.2,0.1c-0.9-0.2-1.9-0.3-2.8-0.5l-1.9-0.6c-2.1-0.7-2.9,0.5-3.4,2.2c-0.2,0.4-0.6,0.7-1,0.8
		c-1.1,0.3-2.2,0.5-3.3,0.7c-2.2,0.3-4.4,0.1-6.5,0.9c-1.1,0.4-2.4,0.1-3.3,1.1c-0.4,0.4-0.9,0.7-1.4,0.8c-1.4,0.3-2.8,0.8-4.1,1.6
		c-0.3,0.1-0.5,0.2-0.8,0.3c-2.8,0.7-5.7-1-6.4-3.8c-0.7-1.8-2.1-2.1-3.6-2.6s-2,0.1-2.3,1.4c-0.2,0.8-0.5,1.6-0.8,2.4
		c-0.4,0.9-1,1.8-1.8,2.5c-1.8,0.6-3.3,0.7-4.7-0.9c-0.5-1-1.2-1.9-2-2.7c-0.2-0.2-0.4-0.4-0.5-0.7c-1.1-1.3-1.5-3.4-3.7-3.4
		c-0.3,0.2-0.7,0.4-1.1,0.5c-1.1,0.1-2.1,0.8-2.5,1.9c-0.4,2.7,0.4,5.7-0.6,8.3c-1.1,1.1-2.3,0.9-3.6,0.8c-0.3,0-0.6-0.1-0.9-0.2
		C58.9,383.8,57.7,384.2,57,383.2z"/>
	<path class="st2" d="M215.7,320.3c1-1.4,1.3-2.1-1-2.5c-1.8-0.3-3.3-1.7-5.1-2.5c0.4-0.6,1.4-0.9,1-1.9c2.6-2.2,5.3-4.5,9.3-3
		c0.7,0.3,2.4,0,2.8-1c0.5-1.3-1.3-1.2-1.8-2c-0.4-0.5-1-1-1-1.8c0-1.7-1.2-3.1-1-4.8c0-0.3-0.1-0.8-0.3-0.8c-3.5-0.2-2.8-4-4.7-5.6
		c0.7-0.9,1.6-1.7,2.5-2.4c1.7-1.3,3-2.2,0.1-3.8c-1.6-0.8-0.3-1.8,0.4-2.5c1-1.3,0.6-2.6,0.3-4c0.4-0.6,0.7-1.2,1.1-1.8
		c0.7-1,0-2.1,0.5-3.2c0.9-1.5,2.2-1.2,3.4-0.8c1.2,0.3,2.5,0.5,3.8,0.5c1.4,1,1.1,2.4,0.6,3.6c-0.4,0.8-0.8,1.6,0.2,1.9
		s2.5,0.2,2.5-1.3c0-2.2,1.3-2,2.7-2c0.7,2.1,1.8,4,4.1,4.8c0.4,1.2,0.9,2.3,2.3,0.9c0.6-0.8,0.4-2,2-2c0.8,0.1,1.1-0.7,0.6-1.5
		c1-0.6,1.8-1.8,3.1-0.6c0.9,0.8,1.4-0.1,1.9-0.7c0.8-0.6,0.9-1.8,0.3-2.6l0,0l0,0l-0.2-0.2c-1.6-1.7-1.3-2.9,1-3.6
		c0.1,0,0.2-0.1,0.3-0.1c0.8-0.3,1.7-0.8,1.4-1.7c-1.1-3.5,5.3-5.9,1.5-10c-1.4-1.6-2.4-2.5-4.3-0.8c-1,1-1.8,0.8-2.8,0.1
		c-0.6-0.4-1.2-0.8-0.7-1.6c0.5-0.8,0.6-1.8,1.9-2.2c2-0.7,3.6-2.2,5.5-3.4c1.4-0.6,2.4-1.7,2.9-3.1c2.1-1.4,1.8-3.7,1.4-5.5
		c-0.7-2.9-0.2-5,2.3-6.5c2.9-0.8,3.2-0.5,2.7,2.8c0,0.5,0.4,0.6,0.8,0.6s0.3-0.4,0.4-0.6c0.3-0.8,0.9-1.4,1.7-1.7
		c2.6-1,2.6-2.5,1.3-4.6c-0.2-0.6,0.2-1.5-0.9-1.6c-0.2,0.1-0.3,0.3-0.4,0.5c-0.4,1.4,1,3.1-1.1,4c-1.5,0-3,0.4-4.5-0.4v-0.5
		c0-1.9,0.6-3.8,1.7-5.4l2.3-1.8c1.9-0.5,1.9-1.9,1.2-3.1c-0.9-1.7-1.9-0.5-2.7,0.3c-0.9-1-0.5-1.9-0.3-2.8c0.3-2.3,2.4-3.9,2.3-6.3
		c0.5,0.5,0.6,1.3,0.3,1.9c-0.3-1.3,0.8-1.6,2.1-1.6c1.1,0.1,2.1-0.7,2.3-1.8c0.3-1.4-1.1-1.1-1.7-1.6s-1-1-0.5-1.8
		c1-1.5,0-2.3-0.8-3.3c-0.2-0.9-0.2-1.7,0-2.6c0.6-1.7,0.8-3.3,3.2-3.4c1.8-0.1,2.9-5.5,1.6-6.8c-0.5-0.5-1.2-0.8-1.9-0.7
		c-4.2,0.6-6.2-1.4-6.1-5.5c0-1.2,0.4-1.6,1.3-1.9c2.2-0.8,2.1-1.9,0.6-3.3c-1.1-1-1.8-2.2-0.9-3.6c1.3-1.9,0.2-2.4-1.2-3
		c-0.6-0.3-1.6-0.3-1.3-1.3c0.2-0.6,0.9-1,1.5-0.8h0.2c2.1,0.4,4.4-0.8,6.6,0.2c1.2,0.6,1.8-1.1,2.8-1.3c2-0.4,3.8-1,5.8-0.1
		c1.5-0.1,2.9-0.7,3.9-1.8c2.1,0.5,4,0.2,5.3-1.8c-0.1-0.6,0.2-0.8,0.7-1c2.6-1,5.6-1,8.1-2.3c1.3-0.8,3.1-0.3,3.9,1v0.1
		c0.1,0.3-0.1,0.5-0.3,0.7s0.2,0.1,0.2,0c0.9-0.3,1.8-0.5,2.8-0.6c2.3-0.3,4.5,0.8,5.7,2.8c0.3,0.9,1.2,1,1.9,1.1s-0.2-0.5,0.2-0.7
		c2.2-1.9,4.5-3.2,7.4-1.4c0.9,0.9,1.5,2.2,3,2c0.8-0.1,1.6,0.5,1.8,1.3c-0.1,0.8,0.1,1.7,0.5,2.4c-0.9,1.2-2,2.2-3.4,2.9
		c-1.2-0.2-0.7,1.4-1.6,1.6c-1.6,1.7-1.4,4-2.2,6c-0.5,0.9,0.6,2.5,2.1,2.5c2-0.1,2.5,1,2.6,2.7c0,0.5,0,1,0.2,1.5
		c1.1,2.3,1,4-2,4.4c-0.6,0.1-0.6,0.7-0.8,1.2c-0.2,0.9-0.6,1.7-1.7,1.8c-1.3-0.2-2.7,0.1-3.5-1.3c-0.4-0.4-0.8-0.9-1-1.4
		c0-3.1-2.9-2.9-4.6-4.2c0-0.9,0.5-1.1,1.2-0.7c-0.1-0.1-0.1-0.2-0.2-0.2h-0.3c-0.9,0.4-1.4,1.5-1,2.4v0.1c0.1,0.3,0.4,0.6,0.7,0.8
		c2,0.4,3.1,2.3,5,2.9c0.3,0.4,0.6,0.9,0.8,1.4c0.2,0.9,0.9,1.6,1.8,1.9c0.9,0.4,1.8,0.1,2.7,0.2c2.4,1.1,4.7,2,7.4,1.3
		c2-0.5,3.5,0.2,4.1,2.6c0.6,2.7,2,3,4.1,1c2.6-2.6,6.4-3.1,8.5-1.2c-0.7,0.7-1.6,0.3-2,0.3c5.4,1,5.6,1,5.4-1.8
		c1.3-1.6,3-1.5,4.7-1.1c1.1,0.2,2.3,0.4,3.4,0.4c1.5,0.2,2.2,1.6,3.5,2.2c2,0.5,2.9,1.6,2.4,3.7s0.4,2.1,1.8,1
		c0.9-1.5,2.9-0.5,3.8-2c1.8-1.8,3.6-1.7,5.5-0.1c0.2,1,0.6,1.9,1.1,2.8c0.4,0.6,0.4-0.3,0.7-0.2c2.2-0.5,3.6,0.1,3.4,2.7
		c0,0.8,0.2,1.7,0.4,2.5c0.2,1.9,0.7,3.3,3,2.9c0.5-0.9,1.5-1.5,2.6-1.6c3.2-0.2,7,1.8,7.9,4c-0.2,1.4,0.4,2.8,1.6,3.6
		c1.4,1.3,1.8,2.6-0.1,3.8c-1.7,1,0.1,2.5-0.7,3.6c-0.2,0.2-0.4,0.4-0.6,0.5c-0.4,0.1-0.9-0.1-1.3,0c0.2,0.2,0.5,0.3,0.5,0.6
		c-0.1,1.7,0.3,3.3-1,4.9c-1.6,1.9-3.1,2.8-5.6,2c-0.6-0.4-1.1-1.1-1.9-0.5c-0.2,0-0.4,0-0.4,0.2s0.3,0.1,0.5,0.1
		c0.3-0.1,0.5-0.1,0.8-0.1c0.3,0.1,0.5,0.2,0.6,0.5c0.1,1.3,0.9,2.5,2,3.2c0.1,1.6-1.1,0.8-1.7,1c0.8,0.2,1.6,0.1,2.2-0.4
		c1.5-0.1,2.8,0.9,3.2,2.3c0,1.4-0.5,2.7-0.4,4.1c-0.7,2.3-2.6,4.1-5,4.6c-0.3,0.2-0.6-1.4-1,0c-0.1,0.4-0.8,0.6-1.3,0.6
		c-1.5-0.7-3.2-0.5-4.5,0.5l-0.2-0.2c-2.9,2.2-5.8,0.3-8.7-0.2c-0.7-0.2-1.4-0.1-2,0.2c-2,2.1-1.8,6.2,0.6,9l0.6,0.6
		c1,1.1,0.5,2.3,0.5,3.5c0,0.7,0.4,0.5,0.8,0.5c3.1,2,6.7,1.6,10.1,1.9c2,0.2,4,0.2,4.9,2.4c0.2,0.5,0.6,1.1,1,1
		c2.8-0.6,3.9,1.3,4.9,3.3c0.2,0.5,0.7,0.8,1.2,0.9c4.6,0.7,5.7,4.7,7.5,7.8c0.8,1.3,1.6,1.7,2.8,1.2c1.4-0.6,2.9-0.7,4.4-0.4
		c1.2,0.4,2.5,0.4,3.7,0.1c0.8,0.2,1.5,0.2,2.3,0.1c-0.7,0.1-1.4,0-2-0.2c0.4-2,2.8-1.4,3.8-2.8c0.8-0.7,2.1,0.2,2.8-0.9
		c1.2-1,2.4-0.4,3.6,0c1.1,0.8,2.5,1.2,3.9,1.1c1.2,0.1,2.2-0.3,3.3-0.3c0.3,0,0.6,0.1,0.8,0.3c1.1,0.8,2.3,1.4,3.6,1.8
		c1.8,0.3,2.8,1.2,2.1,3.1h0.3c0.1,0,0.2-0.1,0.3-0.1c1.9,1.7,2.2,4.5,0.9,6.7c-1.3,2.3-1,3.9,1.2,5.2c-0.4,1.7-1.9,3-3.7,3
		c-3.4,0.2-5.7,2.9-8.7,4.2c-7.5,2.9-15,6-22.3,9.2c-3,1.4-5.9,3.4-8.9,4.6c-6,2.2-10.4,6.4-15.3,10.3c-4,3.2-8.9,4.5-13.6,6
		c-5.6,1.9-10.1,4.6-12.6,10.2c-1.9,4.2-4.4,8-8.7,10.2c-0.6,0.5-1,1.2-1,2c-0.2,1.9-1.4,3.6-3.1,4.4c-1,0.6-1.6,1.7-1.5,2.9
		c1.3,4.9-2.4,7.1-5.4,8.8c-6,3.2-12.6,5.6-19.6,5.2c-7.2-0.5-13.5,2-19.5,5.6c-2,1.3-4.2,0.1-6.3,0.4c-1.6,0.2-3.2,0.8-4.6,1.6
		c-3.4,2-7.5,2-11.2,3.1c-4.1,1.3-7.9,3.3-12.3,3.6c-0.3-0.3-0.5-0.7-0.4-1.1c0.2-0.6,0.5-1,1-1.4c1.2-0.8,0-0.9-0.3-1.2
		c-0.6-0.6-0.6-1.3-2-1.5c-3.4-0.2-6.5-1.8-8.7-4.3c0.5-3.9,0.7-4,4.4-2.8c2.3,0.7,3-0.1,2.9-3.3c-0.3-0.7-0.2-1.4,0.2-2
		c0.6-0.5,1.1-1.3,1.3-2.1c0.1-0.7-0.4-0.3-0.7-0.2s-0.5,0.2-0.8,0.3c-3.4,1-3.9,0.7-5-2.5c-1.2-1.7-4.1-2-3.6-4.9
		c0.7-1.6-1.1-3.1,0-4.7c1.9-2.7,1.6-3.2-2.2-4c-0.3-0.1-0.5-0.3-0.7-0.5c-0.7-1.8-2.4-3-4.3-3c-0.4-0.1-0.8-0.3-1.1-0.6
		c-1.3-0.8-2.1,0.3-3.2,0.6c-2.1,0.4-1.9-1.2-1.4-2.1c0.6-1.1,0.5-2.5-0.1-3.6c0.3-1.4-2-2.7,0.1-4c-0.5-0.6-1.3-0.4-1.9-0.6
		c-1.5-0.7-1.5-1.7-0.6-2.8c0.6-0.8,1.3-1.6,2.1-2.2c1-0.6,0.7-1.3,0.1-2c-0.8-0.1-1.4-0.6-1.6-1.4c-0.5-2-2.3-1.7-3.7-2.1
		c-2.6-1-5.6-1.2-7.5-3.6c-0.2-1.3-0.6-2.5-0.1-3.8c0.6-1.2,1.8-1.9,3.1-1.9c1.1-0.2,2.1-0.5,3-1.1c1.3-0.6,1.9-1.4,0.5-2.2
		c-1.6-1.1-0.9-1.9,0-2.8c1.1-0.7,1.8-1.4,0-2.1c-1.5-0.7-2.8-1.5-4.7-0.8C216.4,322.3,214.9,322.4,215.7,320.3z"/>
	<path class="st1" d="M233.7,360.4c0,0.2,0.2,0.3,0.4,0.4c2.2,0.3,4.4,0.9,4.9,3.6l0,0c0.5,0.3,1.1,0.5,1.7,0.5
		c1.1,0,2.2,0.7,2.5,1.8c0.5,1.2-0.9,1.6-1.4,2.3c-0.5,0.4-0.7,1-0.4,1.6l0.3,0.3c0.7,0.6,0.8,1.6,0.4,2.4c-0.1,2.8,2.5,3.1,4,4.5
		c-0.1,1.1-1.1,2,0.4,3s2.6,0.5,3.8-0.4c0.2,0,0.3,0.1,0.5,0.1c1.3,1,1,2-0.2,2.8c-0.4,0.4-0.6,0.9,0,1.3c1,1.7,0,2.9-1,3.9
		c-0.7,0.8-1.7,0.6-2.6,0c-3.2-1.6-3.8-1.2-3.5,2.4c0.2,1.6,1.6,1.7,2.6,1.9c0.9,0.1,1.7,0.3,2.4,0.8c2.5,2,2.5,2,5.1-0.1
		c0.1,1.2,0.2,2.2,0.3,3.4c0,0.8-0.1,1.7-0.5,2.4v1.2c-5.9,1.4-11.9,1.6-17.8,2.9c-6.5,1.5-12.8,4.2-18.4,7.8
		c-3.9,2.2-8.4,3.2-12.8,2.7c-2.6-0.3-5.3,0.3-7.5,1.7c-2.9,1.6-6,2.7-9.3,3.3c-3.7,0.9-5.7,4-6.6,7.3c-0.8,2.6-1.4,3.2-3.4,1.1
		c-2.3-2.4-5.3-2.8-8.4-1.4c-1.8,1-3.9,1.4-6,1.1c-1.6-0.1-3.2,0.3-4.5,1.2c-5.4,2.9-11.2,5.2-14.9,10.5c-3.3,4.9-8.7,7.9-12.2,12.6
		c-2,2.5-4,5.3-5.9,8c-3.2,4.8-7.1,9.2-11.5,13c-2.8,2.5-4.6,6.2-8.3,8.2c-0.9,0.5-0.5,1.6-0.1,2.4c1.8,3.6,4.4,6.3,8.5,6.9
		c2,0.3,4.1,0.1,4.2-2.7l0,0c2.2,2,3.8,4.5,5.6,6.8c1.5,1.9,2.8,2.9,5.6,2.2c3.4-0.9,4.8,1,3.7,4.3c-1.3,4.2-4.6,6.2-8.1,8.2
		c-3.8,2-8,3.5-11.3,6.4c-0.7,0.6-1.2,0.3-1.9,0.2c-3.7-0.5-7.3-0.5-10.8,1.4c-2.7,1.4-5.8,2.1-8.9,1.8c-1.5-0.3-3,0.3-3.9,1.6
		c-2.6,3.2-5.6,6.2-8,9.5c-1.5,2.3-2.7,4.7-3.6,7.3c-0.6,1.5-1.2,2-2.7,1.4c-2-0.8-4.1-1.4-6.1-2.2c-4.3-2-4.7-3.4-2.9-8
		c-2.4-0.9-4.5-2.5-6-4.6c-1-1.3-2.6-1.9-4.2-1.6c-4.2,0.5-8.4-0.7-11.7-3.2c-1.3-1-3-0.5-4.1-2.4c-1.6-3-1.7-5,0.6-7.4
		c1-1.1,2.6-2.6,1.5-3.6c-1.6-1.4-2.5-4-5.4-3.6c-3.1,0.4-4.4-0.5-4.5-3.6c-0.1-2.4-1-2.5-2.6-1.5c-2.1,1.4-3.7-0.1-5.6-0.4
		c-0.5-0.1-0.9-1.1-0.6-1.2c1.3-0.5,0.5-2.8,1.8-2.5c1.5,0.3,1.8-0.8,2.6-1.2c1.3-0.6,2-2.1,3.8-1.9c1.3,0.2,1.9-1.6,1.8-2.3
		c-0.2-1.3,0.5-2.6,1.8-3.1c2.2-1.3,2.6-4.1,4.7-5.6c0.9-0.6,0.2-1.2-0.2-1.8c-2.1-2.4-3.1-5.6-2.8-8.8c0-0.3,0.1-0.7,0-0.9
		c-2.9-3.1,0.5-6.1,0.1-9.2c0-0.6,0.2-1.2,0.7-1.6c3.3-2,2.9-6,4.8-9c0.5-0.8-1-2.9-1.9-4.3c-0.6-1-1.6-1.5-0.8-3s-2-0.8-2-2.1
		c0.5-1.7,2.7,0.6,2.7-1.1c0-1.5-1.8-1.2-2.7-1.8c-0.4-0.3-0.8-0.6-1.1-1c-0.8-1.9-1.8-1.6-3-0.3c-0.6-2-0.2-4-2-5.3
		c-0.7-0.5-0.3-1.3-0.3-2c-0.1-1.3,0.6-2.8-2-3.1c-1.7-0.2-1-2.3-0.7-3.5c0.4-1.3,0.6-2.6,0.5-3.9c-0.2-1.9,2.2-2.2,3.4-1.9
		c2.4,0.9,3.7,0.4,4.3-2.1c0.2-0.9,0.9-1.1,1.8-1.3c4.4-1,5.5-2.4,6.2-6.6c0.4-2.6,1.2-5.2,2.2-7.6c0.8-1.6,2.6-2.4,4.3-2
		c1.4,0.4,2.5,0.8,2.6-1.3c0.1-1.4,1.6-0.1,2.1-0.9c-0.7-2.7-0.4-5.6,1-8.1c1-0.4,2-0.4,3,0h-0.1c1.3,0.7,2.6,0.2,3.9,0.3
		c1.3-2,0.9-4.1,0.8-6.1c-0.1-0.9,0-1.9,0.2-2.8c0.6-1.3,1.8-1.5,2.8-2c0.1-0.2,0.2-0.3,0.3-0.5c1.5-0.8,2.2,0.4,2.9,1.2
		s1,1.9,2,2.3c0.1,0.2,0.2,0.3,0.1,0.5c0.4,1.1,1.4,1.8,1.7,2.8c1.3,2.3,3,1.8,4.9,0.8c-0.3-1.1,0.5-1.5,1.1-2
		c0.6-0.6,1.1-1.4,1.3-2.3c0.3-1,0.5-2.2,1.8-2c1.6,0.4,3.2,0.8,4.2,2.4s1.4,3.2,3.1,4.1c1.4,0.6,2.8,0.9,4.1-0.2l0,0
		c1.3-0.9,2.9-0.8,4.2-1.8c0.4-0.2,0.8-0.4,1.3-0.6c1-1.1,2.3-0.8,3.5-1c2.3-1.1,4.9-0.6,7.3-1c0.9-0.6,2-0.2,2.7-1.1
		c0.2-0.2,0.4-0.3,0.6-0.5c0.2-2.3,1.8-2.6,3.6-2.5c0.7,0,1.4-0.4,1.8,0.5c1,0.9,2.2,0,3.3,0.7c0.2,0,0.5-0.1,0.7-0.1
		c2,0,1.6-2.1,2.5-3.1c-1.4-1.3,0.8-1.8,0.7-2.7c1.1-0.7,1.8-0.2,2.4,0.8s1.4,2.4,2.9,2.6c1.4,0.2,2.8-0.1,4-0.8
		c2.5-1.1,5.3-0.7,7.9-1c1.1-0.9,3.4-0.2,3.3-2.5c0.4-2.6,1.1-5.2,4-6.2c1.4-2,3.6-2.3,5.7-3.1c0.2-0.8,0.5-1.5,0.7-2.2
		c1.2-0.6,2-1.8,2.2-3.1c0.1-0.8,0.7-1.5,1.5-1.8c0.6-0.2,0.6-0.8,0.9-1.3l0.6-0.6c1.9-2,1.9-2-0.8-3.3c-1.1,0.2-1.5-1-2.2-1.3
		c-0.3-2,0.2-3.5,2.2-4.1c0.3,0.2,0.5,0.5,0.8,0.7c1.2,1.1,2.8,1.4,3.7,2.9c0.6-0.2,1.1-0.3,1.7-0.5c1,0.3,1.1,1.9,2.3,1.6
		c0.5-0.9,1.6-0.8,2.2-1.3c0.8-0.1,1.6-0.2,2.4-0.5c1.2-0.5,2.3-0.9,3.4-1.4c0.8,0.1,1.4-0.5,2-0.7c0.6-0.9-0.3-1.4-0.6-2
		c-1-1.6-3.6-2.8-0.8-5c0.9-0.8,0.4-1.8,0.1-2.5c-0.2-0.4,0-0.9,0.4-1.2c0.1,0,0.2-0.1,0.3-0.1c1.1-0.9,2.4-0.4,3.6-0.5
		c1.1-0.3,2-0.8,2.8-1.6c-0.8-1.3,0.2-2.2,0.5-3.3c1.4-1,2.8-0.2,4.3-0.5c1.3-0.6,2.4,0.5,3.7,0.1c1.2-0.2,2.5,0.1,3.4,0.9
		c0.3-0.2,0.6-0.5,0.8-0.8c0.9-0.3,1.9-0.3,2.8,0c1.7,0.4,3.4,0.1,5.2,0.3c0.9,0.2,1.8,0.3,2.7,0.3c0.9,0.1,1.7,0.6,2.2,1.3
		c1.4,1.5,2.6,1.3,4,0.1c-0.2-0.2-0.4-0.4-0.7-0.6c-0.3-0.8-1.5-1.8-0.5-2.2c1.3-0.7,2.6-1.7,4.3-1.5c1.3,0.3,2.5,0.9,3.5,1.8
		c1.7,1.3-0.3,1.6-0.9,2.1c-0.9,1-2.1,1.9,0.3,2.5c0.5,0,1,0.5,0.9,1.1l0,0v0.1l0,0v0.4c-0.1,0.7-0.6,0.8-1.3,1
		c-1.6,0.4-2.8,1.6-4.6,1c-0.8-0.2-1.3,0.8-1.7,1.4c-0.5,1.3,0,2.5,0.3,3.7c1.3,1.3,2.9,2.1,4.7,2.3c1,0.2,2,0.7,2.7,1.4
		c1.3,0.7,3.4,0,3.8,2.2c0.3,0.8,1,1,1.6,1.4c0.6,0.6,0.6,1.6,0,2.2c-0.6,0.9-1.3,1.7-2,2.5c-1,1-0.8,1.7,0.3,2.4
		c0.4,1.5,1,2.9,1.6,4.3c0.3,1.3,1.8,2.4,0.3,4c-0.5,0.5-1,1.9-0.3,2.4c1.1,1,1.6-0.8,2.4-1C232,360.8,232.8,359,233.7,360.4z"/>
	<path class="st15" d="M408.5,288.3c-0.4,2.5-2.8,1.4-4.2,2.3c-0.2,0.2-0.4,0.4-0.7,0.5c-1.1,0.4-2.2,0.1-3.3,0.2
		c-1.7-0.2-3.4,0.1-4.9,0.8c-0.8,0.4-2,0.5-2.1-0.1c-0.7-2.2-3-3.7-3.2-5.9c-0.2-1.9-1.1-2-2.3-2.3c-2.3-0.8-5-1.1-5-4.6
		c0-1.1-1.1-0.5-1.6-0.3c-1.5,0.6-2.9,0.2-3.1-1.2c-0.4-2.8-2.3-2.8-4.1-2.4c-2.7,0.6-5.3-1.5-8-0.5c-1.6,0.5-1.8-1.5-2.8-2.1
		c-1.3-1.1,0.7-3.2-1.3-4.1h0.1c-1.7-1-2.7-2.2-1.9-4.3c0.2-0.7,0.1-1.4-0.3-2c-0.7-1.4-0.1-2.4,0.8-3.4c1.9-1.1,3.5,0.1,5,0.8
		c1.9,0.9,3.4,1.3,4.9-0.5c0.3-0.4,1-0.5,1.4-0.2c1.4-2.5,3-1.6,4.8-0.5c0.6-0.2,1.2-0.4,1.9-0.4c1.7-1.6,4-2.4,4.7-4.9
		c0.5-1.2,0-2.4,0.5-3.6c-0.4-1.6-1.8-1.9-2.8-2.5c-0.3,0-0.6-0.1-0.7-0.4c-3.3,0.5-2-2.2-2.4-3.6c-0.1-0.6,0-0.9,0.7-0.7
		c2.9,0.6,5.9-1.1,6.3-3.6c0.1-0.4-0.1-0.8-0.4-1c-2.1-1.3,0.3-1.3,0.5-1.9c0.2-0.3,0.4-0.5,0.8-0.4c0.2,0,0.3,0,0.5-0.1
		c0.5-0.7,0.5-1.6,0-2.3c-0.4-0.5-0.4-1.2,0.1-1.7c0.1-0.1,0.3-0.2,0.5-0.2c1.9-1.2,1.4-2.2-0.1-3.2s-2.5-2-1.2-3.9
		c-0.1-1.4-0.4-2.5-2.1-2.2c-0.6,0.2-1.3-0.1-1.5-0.7c-1.1-1.9-2.5-1.3-4-0.7c-0.9,0.4-1.8,1-2.4,1.8c-1.8,0.1-3.4-1.2-3.5-3
		c-0.8-1.2-1.1-2.6-1-4c0.4-2.5-2-0.9-3.1-1.5c-0.6-0.6-1-1.4-1.2-2.2c-1.9-1.7-3.7-1.6-5.6,0c-1.2,0.6-2.7,0.4-3.6,1.6
		c-2.7-0.1-1.9-2.1-2-3.6c-0.5-1.2-1.7-0.6-2.4-1.1c-1.1-0.7-1.7-2-3.1-2c-1.4,0.4-2.9,0.3-4.2-0.3c-1.4-0.5-3-0.2-4.1,0.8
		c-0.2,0.9-0.6,1.7-1.1,2.4c-0.4,0.7-1.2,1.1-2,0.8c-1.1-0.3-0.8-1.2-0.6-2c-3.5-1.2-6-0.5-8.1,2.2c-0.6,0.7-1.2,1.5-2.1,1.2
		c-1.3-0.4-2.8-1-2.7-2.2c0.2-4.1-2.5-3.5-4.6-2.8c-2.8,0.9-4.6-0.6-6.5-1.8c-0.8-0.1-1.6,0.3-2.2,0c-1.4,0.3-1.8-0.9-2.3-1.7
		c0.9-1,2.3-1.4,3.5-0.9c0.9-0.2,1.2-0.9,1.2-1.8c-0.2-1.3,0.8-1.1,1.5-1.1c3-0.2,3.5-1.1,2-3.8c-0.1-0.2-0.2-0.3-0.3-0.5
		c-0.6-1.3,0.5-2.8-0.9-3.9c-0.3-0.1-0.6-0.1-0.9-0.1c-3.5-0.1-4.2-1.4-2.4-4.6c0.7-0.9,0.4-2,0.6-2.8c0.1-0.4,0.4-0.7,0.7-1
		c0.8-0.4,1-1.2,1.6-1.7l3.5-3c0-0.7-0.1-1.4-0.3-2c-0.4-0.7-1.2-1.1-2-1c-1.5,0.1-1.9-1.4-2.9-1.9c-2.8-2-5-0.1-7.2,1.2
		c-1,0.7-1.6-0.1-2.2-0.6c-1.4-1.6-3.4-2.7-5.5-2.8c-1-0.2-2,0.5-2.8-0.1c-1.7-1.4-3.1-1.4-5.1-0.2s-4.6,1.4-6.9,1.5
		c-1.4-1.1-1.2-2.6-1.1-4.1c0.9-1.3,0-2.8,0.7-4.2c0.7-0.6,0.1-2.1,1.7-2.1c-0.1-0.6,0.7-1.2,0.1-1.8c-0.8-0.5-1.7-0.3-2.4-0.7
		c-1.1-1.2-1.9-0.3-2.7,0.3c-2.5,1-2.4-0.7-2.1-2.3c1-1.9,0.1-3.9,0.4-5.9c0.2-1.3-0.8-2-1.6-2.8c-1.1-0.9-2.5-1.1-3.8-0.5
		c-0.6,0.1-1.2,0.1-1.7-0.2c-1-0.7-2.3-0.1-3.3-0.9c-0.3-0.2-0.6-0.3-1-0.4c-1-1.8-1.7-3.6-0.9-5.7c0.5-0.9,0.5-2.1,0-3
		c-0.3-2.4,0-2.5,3.4-2.1c2.4,1.3,4.8,1.1,7.4,1.1c2.4,0,5.8-0.3,7.1,3.1c0.1,0.2,0.2,0.5,0.3,0.5c4,0.6,6.6,5.9,10.8,4.5
		c3.8-1.3,4.4-0.7,3.7,2.8c3.8,2.4,1.9,7,3.6,10.1s4.7,5.2,7.8,6.9c0.1,0,0.2,0.1,0.3,0.1c3.3-2.3,8-1.1,10.7-3.2
		c2.4-1.8,5.8-3.7,6.4-7.7c0.5-2.9,5-4.9,7.7-3.7c2.3,0.9,4.5,1.2,6.6-0.3c1.9-1.2,4.3-1,6.1-2.7c0.7-0.7,2.7,0.6,3.9,1.6
		s2.1,1.6,3.4,0.5c0.4-0.3,1.2-0.6,1.3-0.3c0.9,2.4,4.1,1.7,5.3,3.7c0.4,0.5,0.9,0.9,1.5,1c3.6,0.4,6.7,2.8,10.4,2.3
		c1.1-0.1,1.9,0.1,1.6,1.4c-0.3,1.9,0.7,2.7,2.1,3.4c1.8,0.7,3.3,2.2,4,4c0.6,1.5,1.4,2.3,3.1,1.7c1-0.4,1.9,0.2,2.7,0.7
		c3.4,2,5.4,1.4,7.1-2.1c0.6-1.5,2.4-2.3,3.9-1.7l0.6,0.3c3.5,2.3,7.6,1.9,11.3,2.9c0.9,0.4,2,0.2,2.7-0.5c0.7-0.8,0.7-2,0.1-2.8
		c-1.6-1.6-1.7-3.9-2.9-5.7c0.7-0.6,2.1,0.3,2.4-1c0.8-5,5.8-4.5,8.7-6.5c1.7-1.2,3.8-1,5.4,1.2c1.1,1.4,5.2,0.2,6.1-1.7
		c0.8-1.3,1.9-2.4,3.2-3.1c2-1.3,2.4-4.7,5.9-3.3c1.7-4,4-0.3,5.9-0.3s3.6,0.7,4.7-2c1.1-2.9,2.7-3,4.8-0.7c1.3,1.4,2.2,1.3,3.5,0.3
		c0.6-0.5,1.2-1.1,1.9-0.7c2,1.4,3.7,0.9,5.7-0.1c1.1-0.6,1.5,0.7,1.8,1.6c1,3.3,3.8,5.2,6,7.5c1.2,1.3,2.7,1.2,4.1-0.3
		c1.8-1.9,7.7-1,8.8,1c0.5,0.6,0.4,1.5-0.1,2.1c-2.6,4.2-1.6,9.7,2.3,12.7c0.5,0.5,0.8,1,1.1,1.6c0.9,1.3,1.8,3.5,3.5,0.6
		c0.6-1,1.9-1,2.9-1.4c1.9-0.6,1.4,1.1,1.9,1.9c0.8,1.3,1.7,2.1,3.2,1.1c0.8-0.8,2.1-0.9,2.9-0.1l0,0l0,0c0.2,0.2,0.4,0.4,0.5,0.7
		c0.4,0.7,1.3,1.1,2.1,0.9c0.9-0.1,1.8,0.5,2,1.4c0.1,0.8-0.5,1.5-1.3,1.7l0,0c-2.5,0.3-1.9,2.2-2,3.8c0.2,0.6,0.1,0.8-0.6,0.6
		c-2.4,0.5-1.1,1.9-0.6,2.8c1.2,2.8,1,3.4-2.1,4.1c-0.9,0.2-2,0-2,1.5c-0.1,1.1-0.4,0.2-0.7,0c-1.5-1.2-2.9-1.9-3.5,0.9
		c-0.3,1.2-1,1.8-2,0.7c-1.6-1.5-4.1-1.6-5.1-4.1c-0.7-1.9-2.6-1.4-4.1-0.4c-3.9,2.8-6.3,7.3-6.5,12.1c-0.3,3.5,0.3,7.1,0.6,10.6
		c0.3,3,2.7,4.6,3.9,7c0.2,0.5,0.9,0.4,1.4,0.2c0.7-0.4,1.6-0.2,2.2,0.3c3.2,2.6,5.7,6,7.3,9.9c0.3,0.5,0.2,1.2-0.1,1.7
		c-2.5,4.1-2.3,13.1,0.3,16.7c0.2,0.3,0.5,0.5,0.9,0.6c2.8,0.2,2.7,3.4,2.1,3.8c-2.4,1.9-1.5,5.1-3,7.1c-0.5,0.7-0.1,1.4-0.3,2
		c-1.3,3.4-4.6,5.4-6.1,8.7c-0.5,1-3.6,1.1-4.5,3.2c-0.4,0.5-1,0.7-1.6,0.5c-2.8-1.1-4.3,0.6-6,2.5c-1.9,2.1-3.4,4.5-4.4,7.1
		c-0.8,2.5-3.4,4-5.6,4.8s-4,2.4-6.2,3.1s-3.4,2.7-4.5,4.6c-3.2,5.3-8.6,6.6-14,7.7c-3.3,0.7-6.4,1.4-8.8,4.1
		c-1.3,1.5-4,1.6-4.1,4.2c-2,1.3-1.9-1.1-2.6-1.6c-0.7-0.3-1-1.1-0.6-1.8l0,0l0,0v-0.2l0,0c0.1-0.1,0.2-0.3,0.3-0.4
		c2.6-2.5,1.9-5.3,0.6-8c0.2-2-0.3-3.1-2.6-2.8c-1.5,0.1-2.8-0.9-3.9-1.8v0.1c-1.2-0.7-2.2,0.8-3.4,0.3c-1.6,0.3-2.8-1.3-4.4-0.9
		c-1.2-0.1-2.3-1.7-3.5,0C410.3,288.5,409.2,287.7,408.5,288.3z"/>
	<path class="st17" d="M311.4,143.6c-3.1,1.7-5.5,0.5-7.8-0.6c-1.5-0.7-0.4-1.9-0.3-2.8c0.1-2.2,2.6-2.6,3.3-4.6
		c0.2-0.6,1.8,0.4,1.4,1.1C305.8,140.4,308.1,142.1,311.4,143.6z"/>
	<path class="st16" d="M270.5,135.8c-1.4,0.4-4.1-0.9-2.9,2.4c-0.2,0.4-0.5,0.4-0.8,0.1c-1.9-1.2,0.2-2.8-0.4-4.1
		C267.2,136,269.4,134.6,270.5,135.8z"/>
	<path class="st2" d="M258.3,241.8c-0.9-1.3,1.5-4.9-2.8-3.6v-1.1c1.9,0.9,3.6-1.6,5.5,0.2c1.6-0.2,1.3-1.1,0.9-2.1
		c-0.3-1-1-2.1,0-3.1l-0.1,0.2c2-0.8,2.3,0.2,2.2,1.8c2.4,1.9,2.3,4.4-0.5,5.7c-1.2,0.5-2.3,1.3-3.3,2.2
		C259.5,242.6,258.9,242.7,258.3,241.8z"/>
	<path class="st2" d="M258.1,232c0.4,2.1-0.8,3.6-1.6,5.4c-1-0.1-2.1,0-2-1.5c0.1-1.8,0-3.5,1.4-4.8
		C256.9,230.1,257.2,231.9,258.1,232z"/>
	<path class="st1" d="M222,327.9c4.3-2.9,0.7-3.5,0.1-5.2c-1.5-3.5-3.9,0.2-6,0c-0.9,0-0.2,2.4-0.7,3.5c-1.4-4.8-1.1-6.6,1.9-8.5
		c-0.2,2,0,3.4,1.7,2.3c3.8-2.4,5.1,2.3,6.2,5c1.1,2.7-1.2,2.7-2.6,3.1C222.3,328.7,222.2,328.3,222,327.9z"/>
	<path class="st18" d="M253.3,212.5c2.4-0.6,4.9-0.7,7.3-0.2c0.7,0.1,1.1,0.5,0.8,1.2s-0.7,1.4-1.7,1.4
		C257.4,214.9,255.1,214,253.3,212.5z"/>
	<path class="st1" d="M90.7,380.9c-1.4,0-1.7-1.3-2.2-2.1c-0.9-1.4-1.6-2.8-3.2-3.7s-2.6-0.7-3.3,1.1c-0.4,0-0.4-0.4-0.6-0.6
		c0.2-2.2,1.4-2.8,3.4-1.9c1.8,0.8,3.7,1.4,4.2,3.7c0.3,1.3,1.2,2.3,2.4,2.7C91.6,380.8,91.5,381.1,90.7,380.9z"/>
	<path class="st2" d="M232,278.9c-1,0.7-2.5,0.7-2.3,2.6c0.1,0.9-0.8,1.3-1.9,1.2c-0.9,0-1.6,0.1-2.2-0.7c-0.9-1.1,0.2-1.3,0.6-1.8
		c0.9-1.2,0.6-2.3-0.1-3.5c0.5-0.3,1.2-0.7,1.2,0.4c-0.1,1.6,0.7,3.2-0.9,4.9c3-0.2,2.6-1.8,2.2-3.4C229.8,278.5,231,278,232,278.9z
		"/>
	<path class="st2" d="M214.1,294.6c1,0.9,2.1,1.7,2.2,3.2c0.1,0.5,0.3,1,0.7,1.3c3.5,1.1,2.8,4.1,3,6.6c-0.2-1.7-2-2.7-1.6-4.9
		c0.1-0.7-2.1-0.4-2.6-2c-0.3-0.9-0.2-3-2.5-2.9C212.7,295.9,213.6,295,214.1,294.6z"/>
	<path class="st1" d="M162.5,339.4c-1.5,1-1.9,2.5-2.2,4.1c-1-0.5-1.7-1.1-0.7-2.1c0.5-0.5,0.7-0.9,0.1-1.5s-1.3-1.3-0.5-2
		c0.9-0.9,1.6,0.2,2.2,0.6C161.8,338.8,162.1,339.1,162.5,339.4z"/>
	<path class="st1" d="M144.8,369.1c-2.8,1.2-6,0-8.9,1.4c-0.2-0.1-0.2-0.3-0.2-0.5s0.1-0.2,0.2-0.2c2.6-1.6,5.5-1.4,8.3-1.3
		C144.4,368.6,144.7,368.6,144.8,369.1z"/>
	<path class="st2" d="M258.6,224.6c0.1,0.7,0.1,1.4,0.2,2.1c0.7-0.4,1-1.7,2.1-1c0.9,0.6,1.4,1.6,1.4,2.7c0,1.3-0.6,1.8-1.8,1.8
		c1-0.5,1.5-1.7,1.1-2.7c-0.2-0.6-0.8-1.4-1.6-0.8c-0.5,0.4-0.7,1.9-1.7,1S257.8,225.6,258.6,224.6z"/>
	<path class="st1" d="M132.5,370.7c-1.1,0.6-1.6,0.2-2.2-0.8c-0.9-1.2-1.3-2.9-3.2-2.7c0.8-1.6,1.6-1.7,2.6-0.2
		c0.9,1.3,1.3,3.1,3.2,3.3C132.9,370.6,132.8,370.7,132.5,370.7z"/>
	<path class="st1" d="M111.6,376.3c-2.4,1.3-5.3,0-7.8,1.1c-0.3-0.2-0.3-0.5,0-0.8c2-1.6,4.4-0.4,6.6-0.9
		C110.8,375.9,111.4,375.6,111.6,376.3z"/>
	<path class="st1" d="M215.9,325.2c-0.9,2.1-2.3,1.5-3.7,0.7c-0.8-0.5-1.5-1.1-2.1-1.8c-0.2-0.1-0.3-0.2-0.2-0.3s0.1-0.2,0.2-0.2
		c0.7-0.1,1.3,0.1,1.8,0.6C212.9,326,214.4,325.4,215.9,325.2z"/>
	<path class="st1" d="M79.5,380.2c-1.7,2.1-3.8,1.9-5.3-0.6c0.2-0.2,0.3-0.6,0.6-0.7C75.9,381.1,77.8,380.3,79.5,380.2z"/>
	<path class="st16" d="M278.9,157.5c0,1.7,0.5,2.6,2.3,1.5c0.3,0.2,0.4,0.4,0.1,0.7c-0.7,1-1.4,1.8-2.5,0.7
		c-1.5-1.3-0.8-2.5,0.1-3.8C279.1,156.9,279.1,157.2,278.9,157.5z"/>
	<path class="st1" d="M162.4,344.7c1.3-0.1,2.6,0.2,2.8,1.5c0.2,1.6-1.6,2-2.5,2.7c-0.2-0.1-0.3-0.3-0.2-0.4s0.1-0.2,0.2-0.2
		C162.7,347.2,164.9,345.7,162.4,344.7z"/>
	<path class="st1" d="M157.2,356.9c-1.7,1.6-3.9,1.8-5.7,3.1C152.4,357.3,154.7,356.9,157.2,356.9z"/>
	<path class="st16" d="M284.2,167.4c-0.2,1.6-0.1,3.3,0.5,4.8c-0.2,0.2-0.4,0.4-0.6,0.5c-0.9-1.7-1.6-3.4-0.5-5.3
		C283.9,167.1,284,167.1,284.2,167.4z"/>
	<path class="st1" d="M179.7,329.3c0.5,1.2,0.4,2.7-0.3,3.8c-0.1,0-0.2,0-0.3-0.1s-0.1-0.2-0.2-0.2c0.2-0.9-0.4-1.4-0.7-2
		c-0.3-1-0.2-2.1,1.4-2c0.1,0.1,0.2,0.2,0.2,0.4C179.8,329.3,179.8,329.3,179.7,329.3z"/>
	<path class="st1" d="M160.7,351.8c-0.7,1.3-0.5,3.3-2.8,2.9c0.7-1.5,1.5-2.8,2.1-4.3C160.7,350.7,160.3,351.6,160.7,351.8z"/>
	<path class="st1" d="M90.7,380.9c0.2-0.3,0.5-0.5,0.7-0.8c1.2,0,2.3,0.1,3.5,0.1C93.8,382.5,92.2,381.3,90.7,380.9z"/>
	<path class="st1" d="M144.8,369.1l-0.6-0.6c1.2-0.7,2.5-1,3.4-2.1C148,368.1,148,368.1,144.8,369.1z"/>
	<path class="st1" d="M118.1,372.1c-1.3,0.7-3,0.8-3.6,2.5C114,372.1,115.3,371.4,118.1,372.1z"/>
	<path class="st1" d="M99.1,378.5c-0.9,1.8-2.6,1.5-4.2,1.8C95.9,378.5,97.5,378.9,99.1,378.5z"/>
	<path class="st1" d="M126.4,370c-0.7,1.2,0.5,3.9-2.5,3.1C125.2,372.5,124.6,370.4,126.4,370z"/>
	<path class="st16" d="M267.4,140.7c-0.8,2,0.2,4,0.5,5.9c-1.9-1.8-1.9-3.8-1.1-6C267,140.4,267.2,140.4,267.4,140.7z"/>
	<path class="st16" d="M278.9,157.5c0-0.3,0-0.6-0.1-0.9c0-2,0.1-3.9,0.1-5.9c0.2-0.3,0.3-0.3,0.5,0
		C279.3,153,280.2,155.4,278.9,157.5z"/>
	<path class="st2" d="M241.1,280.9c1.6,0.8,0.3,1.7-0.2,1.7c-1.4,0.1-1.6,1.2-2.2,2c-0.2-0.1-0.3-0.4-0.2-0.6l0.1-0.1
		c0.1-0.8-0.1-1.9,1.3-1.7C240.6,282.1,241.1,281.5,241.1,280.9z"/>
	<path class="st1" d="M195.6,323.6c-1.2,1.5-2.5,0.4-3.9,0.1c-0.3-0.2-0.6-0.5-0.7-0.8c1.6-1.9,3,0.1,4.5,0.1
		C195.4,323.4,195.6,323.4,195.6,323.6z"/>
	<path class="st1" d="M170.9,344.2c0.2,0.7,0.2,1.7-0.8,0.9c-0.8-0.6-1.4-1.5-1.6-2.5C169.8,342.3,170.2,343.5,170.9,344.2z"/>
	<path class="st16" d="M274.1,147.7c1.4-1,2.4-0.4,3.6,0.5c0.2,0.2,0.2,0.6,0,0.8l0,0l-0.1,0.1c-1-1-2.2-0.7-3.5-0.7
		c-0.2-0.1-0.2-0.3-0.2-0.5L274.1,147.7z"/>
	<path class="st18" d="M263.4,218.5c-1,0.6-2,1-2.2,2.2c-0.1-0.9-0.1-1.6-0.2-2.5C261.9,217.2,262.6,218,263.4,218.5z"/>
	<path class="st16" d="M284.2,167.4h-0.7c-0.1-1.3-0.5-2.5,0.7-3.5C284.6,165,284.6,166.3,284.2,167.4z"/>
	<path class="st1" d="M207,324c-1.9,0-3.7,0.5-5.5-0.5c0.1-0.4,0.4-0.4,0.7-0.6h0.6c1.3,0.5,2.7,0,4,0.3
		C207.1,323.3,207.2,323.6,207,324L207,324z"/>
	<path class="st1" d="M167.6,343.7c-2.2-1.6-4.8-2.2-6.2-4.6C164.3,339.6,166.9,340.4,167.6,343.7z"/>
	<path class="st2" d="M252.6,250.7c-0.2,1.8-1,3-2.9,3.1C250.7,252.7,251.7,251.7,252.6,250.7z"/>
	<path class="st1" d="M111.6,376.3c-0.4-0.2-0.8-0.4-1.2-0.5c1.1-0.6,2.3-0.8,3.5-0.7C113.8,376.5,112.4,375.9,111.6,376.3z"/>
	<path class="st2" d="M217.3,281.8c1.4,1.4,0.6,2.7,0.2,4.2h-0.3c-0.1,0-0.1-0.1-0.2-0.2C217.1,284.5,217.2,283.3,217.3,281.8z"/>
	<path class="st2" d="M238.4,284.1c0,0.2,0.1,0.5,0.1,0.7l-2,1.5c-0.7-0.9-0.3-1.8-0.4-2.6C236.8,284.1,237.4,285.6,238.4,284.1z"/>
	<path class="st2" d="M278.9,174.5c-0.8,1.8-2.2,2-3.9,1.8C276.2,175.6,277.5,175,278.9,174.5z"/>
	<path class="st16" d="M283.7,159c1,0.3,2.1-0.3,2.8,0.8c-0.2,0.2-0.2,0.6-0.6,0.6c-0.8-0.2-1.5-0.4-2.2-0.7
		C283.4,159.3,283.4,159.1,283.7,159z"/>
	<path class="st16" d="M283.7,159v0.7c-0.7-0.6-1.7-0.5-2.4,0.1c0-0.2,0-0.5-0.1-0.7C282,158.5,282.8,156.9,283.7,159z"/>
	<path class="st16" d="M268.8,147.1c1.2,0.2,2.4-0.3,3.5,0.6c0.2,0.1,0.3,0.3,0.2,0.5l0,0l0,0c0,0.1-0.1,0.2-0.2,0.2
		C271.2,147.7,269.6,148.5,268.8,147.1z"/>
	<path class="st1" d="M179.7,329.3v-0.6c1.2-1.2,2.7-0.3,4.1-0.8c0.1,0.1,0.2,0.3,0.2,0.5c-0.1,0.2-0.1,0.2-0.2,0.2
		C182.5,329,181,328.6,179.7,329.3z"/>
	<path class="st1" d="M132.5,370.7c0.2-0.1,0.3-0.2,0.4-0.4c1-0.2,2-0.5,3-0.7v0.7C134.8,371,133.8,371.6,132.5,370.7z"/>
	<path class="st1" d="M103.9,376.5v0.8l-3.5,0.6C100.8,375.8,102.6,376.9,103.9,376.5z"/>
	<path class="st1" d="M191,322.8l0.6,0.6c-1.6,0.1-3.2,0.1-4.8,0.2C188,322.2,189.6,322.9,191,322.8z"/>
	<path class="st19" d="M207.6,323.9c-1.4-0.4-2.9,0.4-4.2-0.6c1.7,0,3.3-0.5,4.9,0.4C208.1,324.2,208,324.2,207.6,323.9z"/>
	<path class="st2" d="M212.2,312.2c3.2,2.7,0.7,3-2.3,3.2C207.8,313.6,211.9,313.6,212.2,312.2z"/>
	<path class="st1" d="M194.7,323.6c0-0.2,0-0.4-0.2-0.6c2,0,4.3-1.3,5.4,2.1C198.1,324.5,196.3,324.2,194.7,323.6z"/>
	<path class="st1" d="M181.6,340.7c-0.8,0.6-1.6,1.2-2.6,0.4c0.6-0.4,1.3-0.8,1.9-1.2C181.2,339.9,181.5,340.3,181.6,340.7z"/>
	<path class="st1" d="M202.3,323.1c-0.2,0.2-0.5,0.4-0.7,0.6c-0.9-0.1-1.8-0.1-2.6-0.2C199.9,322.3,201.1,322.8,202.3,323.1z"/>
	<path class="st1" d="M183.9,328.7v-0.6c0.6-0.7,1.5-1.1,2.4-1.1C186,328.1,184.8,328.3,183.9,328.7z"/>
	<path class="st1" d="M181.6,340.7l-0.8-0.8c-0.1-0.5-0.3-1-0.4-1.6C181.4,338.9,182.1,339.4,181.6,340.7z"/>
	<path class="st16" d="M277.6,149.2c0-0.3,0.1-0.6,0.1-0.9c1,0.5,1.6,1.4,1.7,2.5h-0.5C278.5,150.2,278.1,149.7,277.6,149.2z"/>
	<path class="st1" d="M160.7,351.8c-0.5-0.3-0.5-0.8-0.7-1.3c0-0.4,0.3-0.8,0.7-0.9c0.4,0.3,1,0,1.2,0.5
		C161.6,350.6,160.7,351,160.7,351.8z"/>
	<path class="st1" d="M207,323.5c0.3-0.2,0.5-0.2,0.8-0.3l2.8,0.5v0.9c-1.3,0-2.4-0.2-3.7-0.2C207,324.2,207,323.8,207,323.5z"/>
	<path class="st1" d="M123.2,373.1c-1.2,0-2.4,0.5-3.3-0.7C120.9,373,122.2,372.1,123.2,373.1z"/>
	<path class="st16" d="M285.9,160.2l0.6-0.6c0.8,1,0.1,1.5-0.6,2C285.1,161.2,285.9,160.7,285.9,160.2z"/>
	<path class="st1" d="M162.1,350.1c-0.4-0.2-0.8-0.3-1.2-0.5l1.8-1.2v0.6C162.6,349.4,162.4,349.8,162.1,350.1z"/>
	<path class="st16" d="M272.3,148.2v-0.7c0.6,0.1,1.2,0.1,1.8,0.2v0.7C273.4,149.2,272.9,148.7,272.3,148.2z"/>
	<path class="st16" d="M267.4,140.7c-0.2,0-0.4-0.1-0.6-0.1c0.3-0.7,0.3-1.5,0-2.2c0.3,0,0.5,0,0.8-0.1
		C268,139.1,267.9,140,267.4,140.7z"/>
	<path class="st1" d="M175.6,342.4c-0.7,0.6-1.5,1.2-2.4,0.5C173.8,341.9,174.7,342.4,175.6,342.4z"/>
	<path class="st2" d="M246.1,277.1c1.1,1,1.2,2-0.1,2.8C246.6,279,246.1,278,246.1,277.1z"/>
	<path class="st2" d="M218.9,276.9c0,1.1,0.5,2.2-0.5,3.2C218.7,279,217.7,277.8,218.9,276.9z"/>
	<path class="st1" d="M81.4,375.6l0.6,0.6c-0.1,0.9-0.6,1.6-1.4,2C80.3,377.2,81.2,376.4,81.4,375.6z"/>
	<path class="st18" d="M262.8,207.5c-0.2,0.9,0.7,1.8,0,2.6c-0.7-0.6-0.8-1.7-0.2-2.4l0,0C262.5,207.6,262.6,207.5,262.8,207.5
		L262.8,207.5z"/>
	<path class="st2" d="M314.9,182.8c-0.1,0.2-0.3,0.4-0.4,0.6c-1.1,0.9-0.1,2.1-0.8,3.1c-1.7,3.2-1.5,3.7,2,3.8c0.5,0,1,0.2,1.4,0.2
		c0.8,1.5-0.2,3.1,0.6,4.6c2.1,0.8,1.6,2.4,1.2,3.9s-1.7,1.3-2.8,1c-0.7-0.2-1.4-0.3-1.9,0.4c-1-1.9,0.6-1.8,1.5-1.8
		c2.1,0,2.3-0.9,1.5-2.5c-0.3-0.7-0.5-1.4-0.6-2.2c0-1.6-0.1-2.7-2.2-1.9c-1.1,0.4-3.5-2.8-2.9-3.7c1.3-1.7,1.5-3.5,1.9-5.4
		c0.1-0.6,0.9-0.8,1.5-0.8c0.2,0.1,0.3,0.3,0.2,0.5l0,0l0,0C315,182.6,314.9,182.8,314.9,182.8z"/>
	<path class="st2" d="M373.6,257.2c-3.9,5.3-8.3,4.6-12.6,0.9c-1.4-1.1-2.9-0.4-4.2-0.4c-0.3-0.2-0.4-0.7-0.3-1.1l0.2-0.2
		c3-2.7,7.2-0.9,9,0.7c3,3,4.4,0.5,6.3-0.9C373.3,254.9,373.7,254.9,373.6,257.2z"/>
	<path class="st1" d="M221.1,324.6h0.9c-0.1,0.7-2.6,1.8,0.5,2c1.3,0.1,1.3,1.3,1.3,2.1s-0.9,1.3-1.8,1.7c-2.6,1.3-6.2,0.7-8.6,2.5
		c-0.4-0.1-0.5-0.3-0.7-0.6c0.7-1.2,1.7-2.2,3-1.7c2.5,1.1,3.9-1.2,6.2-1.2c1.2,0,0.9-1.4-0.4-1.6
		C217.7,327.1,219.2,325.9,221.1,324.6z"/>
	<path class="st18" d="M309,199.9c0.4,0.2,0.7,0.7,0.7,1.2l0,0c-1,0.1-2.4,1.8-2.4-0.9c0-0.9-0.9-1.1-1.6-0.9c-2.9,1-2-1.7-2.4-2.7
		c-0.5-1.6,0.7-2.2,2.4-2c-0.4,0.4-0.9,0.8-1.3,1.2c0.7,0.7,0.4,2.3,2.3,1.9C308,197.3,308.6,198.9,309,199.9z"/>
	<path class="st2" d="M243.5,391c0-0.1-0.1-0.2-0.1-0.3c-0.7-1.1-1.3-2.5-0.5-3.2s2.4-0.3,3.5,0c3.6,1.2,3.6,1.2,4.3-3
		c1.7,1.5,0.3,2.9-0.3,4.1c-0.5,1-1.8,1.3-2.7,0.7l0,0h-0.1c-0.1-0.1-0.2-0.1-0.3-0.2C244.6,387.1,243.9,388.3,243.5,391z"/>
	<path class="st2" d="M422.5,288.2c1.9,0.6,3.6,1.6,5.7,1.3c0.8-0.1,2-0.5,2.4,0.5s-0.8,1.4-1.2,2l-0.3,0.9
		c-0.1,0.5-0.1,0.9-0.2,1.4c0.1-2.6-1.3-3.7-3.7-4C424,290.2,422.9,289.3,422.5,288.2z"/>
	<path class="st20" d="M309.4,201.1c-1.6-1.4-2.6-3.3-5.1-2.7c-1.7,0.5-0.8-2.6-0.9-3.8C308.7,194.9,310.4,196.5,309.4,201.1z"/>
	<path class="st2" d="M377.4,221c1.3-1.8,2.7-2,4.1-0.2c0.4,0.6,1.2,0.9,1.9,0.9c1.6,0.1,2.8,0.9,1.8,2.8
		C382.9,222.7,380.3,221.5,377.4,221z"/>
	<path class="st2" d="M360.8,258.8c0,0.2,0,0.5,0.1,0.7c-0.3,3.2-0.9,6.4,1.3,9.3c-0.2,0-0.4,0.1-0.6,0
		C358.5,266.8,358.1,261.1,360.8,258.8z"/>
	<path class="st2" d="M356.4,208.8c1.1,1.2-1.4,3.8,1.9,4c0.2,0.1,0.3,0.3,0.2,0.4l0,0c0,0.2-0.1,0.3-0.2,0.3
		c-0.4,0.4-0.9,0.7-1.4,1c-0.6,0.3-1.2,1-1.9,0.4s0.2-1.2,0.3-1.9c0.3-1.8,0.8-3.7-1.9-4.3c0.1-0.1,0.2-0.2,0.4-0.3
		C354.8,208.7,355.7,208.2,356.4,208.8z"/>
	<path class="st18" d="M338.6,208.2c0.5,0.5,0,1.5,1,1.6c1.3,0.3,1-0.9,1.5-1.4s0.9-1,1.4-1.5c1.4,1,0.5,2.3-0.1,2.9
		c-1,1-2.9,1.4-3.7,0.1c-0.9-1.5-2.1-1-3.4-1.5C336.3,208,337.5,208.5,338.6,208.2z"/>
	<path class="st18" d="M310.9,213.1c0.2,0.3,0.7,0.7,0.6,0.9c-0.2,0.5-0.9,0.2-0.9,0c-0.3-1.3-2.1-2.3-0.8-3.9
		c1-1.2,3.7-1.3,5.4,0.1h-2.7C311.1,210.7,311.7,212.1,310.9,213.1z"/>
	<path class="st2" d="M231,360.8c-0.4,0.5-0.8,0.9-1.3,1.3c-0.7,0.5-1.5,0.9-2.1,0.3s0.3-1.2,0.4-1.8c0.5-1.7,1.8-3.2,0.7-5.2h0.4
		c1.2,1.3,1.8,2.4,0.3,4c-0.5,0.5-0.9,1.9,0.9,1.4C230.5,360.4,230.7,360.4,231,360.8z"/>
	<path class="st18" d="M229,355.5h-0.4c-1-1.4-1.5-3-1.5-4.7c1.2-0.7,2.1,0.4,3.5,0.2C228.3,351.9,228.7,353.6,229,355.5z"/>
	<path class="st2" d="M241.3,369c2-2.4,2-2.7-1.4-3.6c-0.5-0.1-0.9-0.5-1-1c0.5,0,1,0,1.5-0.1c1.4-0.3,2.8,0.6,3.2,2
		c0.5,1.4-0.6,2.1-1.7,2.7c-0.1,0.2-0.3,0.3-0.4,0.2l0,0L241.3,369z"/>
	<path class="st2" d="M250.4,380.3c-1,2.1-2.2,2-4.1,0.9c-2.2-1.4-0.7-2.4-0.1-3.5C246.5,380.8,246.9,381.2,250.4,380.3z"/>
	<path class="st2" d="M371.9,218.9c0.8,1.4,2,2.4,3.5,3c0.3,0.2,0.6,0.8,0.2,0.9C374,223.2,371.6,220.8,371.9,218.9z"/>
	<path class="st18" d="M265.8,259.7c-1-0.5-2.4-0.4-2.1-2s1.3-1.3,2.1-0.3C264.6,258.3,266.5,258.9,265.8,259.7z"/>
	<path class="st2" d="M250.7,383.3c0.6-0.8,0.7-1.9,0.2-2.8c0.2-1.1,0.9-1.6,1.9-1.2s0.1,1.1-0.2,1.7
		C252,381.8,252.1,383.2,250.7,383.3z"/>
	<path class="st18" d="M261.8,233.2c-0.3,1.2,0,2.5,0.7,3.5c0.4,0.6,0.3,1.4-0.3,1.8l0,0l0,0l-0.1,0.1l-0.1,0.1
		c-0.5,0.2-0.9-0.3-1-0.8C262.4,236.5,259.7,234.6,261.8,233.2z"/>
	<path class="st2" d="M415.5,287.8c1.7-2.1,2.7,1,4.3,0.5c0.3,0.3,0.3,0.5,0,0.7C418.2,289.5,416.5,289,415.5,287.8z"/>
	<path class="st2" d="M239,364.3c-1-2.1-3-2.7-4.9-3.6C237.8,360.7,238.6,361.3,239,364.3z"/>
	<path class="st2" d="M253.4,399.4c-0.1-0.9-0.5-1.8,0.5-2.4c0.5,0.3,0.9-1.6,1.3,0c0.1,0.5,1.1,1.6-0.4,1.6
		C254,398.4,253.9,399.1,253.4,399.4z"/>
	<path class="st1" d="M226.8,343.6c-0.8-3.5-4.1-1.5-5.3-4.2C223.8,339.4,226.8,338,226.8,343.6z"/>
	<path class="st2" d="M386.6,231.9c-1.2,1.3,2,3.1-0.6,4.2c-0.2-1.1-0.5-2.2-0.6-3.3C385.4,232,385.3,230.9,386.6,231.9z"/>
	<path class="st2" d="M362.2,268.8c2.9,0.6,0.5,2.8,1.3,4.1c-0.9-0.8-1.1-0.9-1-1.3C362.8,270.7,362.7,269.7,362.2,268.8z"/>
	<path class="st2" d="M401,291.4c1.1-1.1,2.4-0.2,3.5-0.5c0.2,0.1,0.3,0.2,0.2,0.3s-0.1,0.2-0.2,0.2
		C403.5,292.3,402.3,292.1,401,291.4z"/>
	<path class="st2" d="M241.3,369h0.7c-1,1.4,1.8,2.7,0.1,4.1c-0.2-1-0.6-1.9-1.3-2.6C240,369.8,240.7,369.4,241.3,369z"/>
	<path class="st2" d="M314.2,201.5l-4.2,0.8c0-0.6,0-1.3-0.1-1.9l0,0C311.2,201.3,313,200.6,314.2,201.5z"/>
	<path class="st2" d="M252.7,377.4c-0.5,0-1-0.1-0.9-0.8c0.1-0.4,0.4-0.7,0.8-0.6h0.1c0.5,0.1,1,0.2,1,0.9
		C253.5,377.4,253.1,377.3,252.7,377.4z"/>
	<path class="st2" d="M358.3,213.6c0-0.2,0-0.5-0.1-0.7c0.8-1.7,2.2-1,3.5-1.2C360.9,212.9,359.2,212.4,358.3,213.6z"/>
	<path class="st2" d="M296.7,170.8c1-0.1,2-0.8,2.8,0.1c-1,0.9-2.2,0.6-3.3,0.4C295.7,171.2,296.5,171,296.7,170.8z"/>
	<path class="st21" d="M231,360.8c-0.3,0-0.5-0.1-0.8-0.1c1.2,0.2,2.1-3,3.5-0.3C232.7,359.8,232,360.9,231,360.8z"/>
	<path class="st2" d="M311.2,177c11.7-1.8,9.7,1.3,3.8,5.8C306.6,183.7,306.6,181.2,311.2,177z"/>
	<path class="st2" d="M305,173.9l2.2,0.6c0.2,0.1,0.5,0.3,0.7,0.4C306.7,175.3,305.5,175.4,305,173.9z"/>
	<path class="st2" d="M314.5,173.1c1.5-0.1,1.9,1.4,2.9,1.9C315.5,175.8,315.3,174.1,314.5,173.1z"/>
	<path class="st1" d="M215,330.9c0.4,0.3,0.7,0.7,1.1,1c-1.1,2,1.8,3.7,0.2,5.7C213.5,335.8,214.8,333.1,215,330.9z"/>
	<path class="st2" d="M366,212.7c0.9,0.5,1,1.4,1.2,2.2C365.7,215,365.5,214,366,212.7z"/>
	<path class="st2" d="M386.3,235.7c-0.3,0.1-0.5,0.3-0.8,0.4c-0.7-0.1-1.6,0.4-2.2-0.9C384.4,235.4,385.4,235.1,386.3,235.7z"/>
	<path class="st2" d="M383.9,249.3c0.1,1.3,0.8,2.5-0.5,3.6C383,251.7,383.2,250.4,383.9,249.3z"/>
	<path class="st2" d="M380.8,246.9c0.4-0.1,0.6,0,0.7,0.4c-0.8,1.1-1.9,0.7-3.3,0.6C379.2,247.1,380.3,247.7,380.8,246.9z"/>
	<path class="st2" d="M419.5,289v-0.7c1.2,0.5,2.4-1.4,3.6,0.1C421.9,288.8,420.7,289,419.5,289z"/>
	<path class="st2" d="M381.8,240.3c0.7,3.8-2.5,3.3-4.6,3.6c-1,0.3-2.1-0.3-2.4-1.3l0,0l0,0c-0.3-0.2-0.1-0.4,0.1-0.7
		c0.5-2.2,2.6-0.3,3.8-0.9C379.5,239.7,380.3,239.6,381.8,240.3z"/>
	<path class="st22" d="M263.6,235c-0.2-1.1-0.6-1.9-1.9-1.6c0.3-0.9,1-0.9,1.7-0.4c0.6,0.3,0.8,1.1,0.5,1.7L263.6,235z"/>
	<path class="st2" d="M404.6,291.4v-0.5c0.1-0.1,0.2-0.2,0.4-0.2c0.9,0.1,1.6,0.1,2.8,0.2C406.6,291.6,405.6,291.2,404.6,291.4z"/>
	<path class="st1" d="M224.3,346.2l1.7-5.3C230.9,344.4,229.4,346,224.3,346.2z"/>
	<path class="st2" d="M409.2,288.2c0.6-1,1.6-0.5,2.4-0.6C411.2,289.1,410,288,409.2,288.2z"/>
	<path class="st2" d="M380.7,256.5c-2.5,2.4-6.4,2.6-10.3,2.3C374.2,258.1,374.6,252.3,380.7,256.5z"/>
	<path class="st23" d="M258.9,241.9h1.5c0.4,1.4-0.7,0.6-1.1,0.7S258.2,242.7,258.9,241.9z"/>
	<path class="st2" d="M312.1,204.8c0.8-0.2,1.6-0.7,2.2,0c-0.5,0.6-1.4,0.7-2,0.2C312.2,205,312.1,204.9,312.1,204.8z"/>
	<path class="st2" d="M341.6,209.2c-0.3-1.5-0.8-3,1.6-2.9C342.7,207.3,343.7,209,341.6,209.2z"/>
	<path class="st2" d="M257.7,246.1c-0.9-1.3,1.5-4.9-2.8-3.6v-1.1c1.9,0.9,3.6-1.6,5.5,0.2c1.6-0.2,1.3-1.1,0.9-2.1
		c-0.3-1-1-2.1,0-3.1l-0.1,0.2c2-0.8,2.3,0.2,2.2,1.8c2.4,1.9,2.3,4.4-0.5,5.7c-1.2,0.5-2.3,1.3-3.3,2.2
		C258.9,246.9,258.3,247,257.7,246.1z"/>
	<path class="st2" d="M260.6,236.6c-0.9-1.3,1.5-4.9-2.8-3.6v-1.1c1.9,0.9,3.6-1.6,5.5,0.2c1.6-0.2,1.3-1.1,0.9-2.1
		c-0.3-1-1-2.1,0-3.1l-0.1,0.2c2-0.8,2.3,0.2,2.2,1.8c2.4,1.9,2.3,4.4-0.5,5.7c-1.2,0.5-2.3,1.3-3.3,2.2
		C261.8,237.4,261.2,237.5,260.6,236.6z"/>
	<path class="st2" d="M238.9,282.6c2.5,1,0.5,2.1-0.3,2.1c-2.2,0.1-2.5,1.5-3.4,2.5c-0.3-0.2-0.5-0.5-0.3-0.8l0.2-0.1
		c0.2-1-0.2-2.4,2-2.1C238,284.1,238.8,283.4,238.9,282.6z"/>
	<path class="st2" d="M228.9,280c1.6,0.8,0.3,1.7-0.2,1.7c-1.4,0.1-1.6,1.2-2.2,2c-0.2-0.1-0.3-0.4-0.2-0.6l0.1-0.1
		c0.1-0.8-0.1-1.9,1.3-1.7C228.3,281.2,228.8,280.7,228.9,280z"/>
	<path class="st2" d="M223.8,307.5c1,3.3-1.1,3.7-3.4,3.8c-1.3,0-2.6-0.2-3.9-0.6c-0.3,0-0.5,0-0.5-0.2s-0.1-0.3,0-0.4
		c0.6-0.7,1.6-1,2.5-0.7C221.3,310.9,222.4,309,223.8,307.5z"/>
	<path class="st1" d="M222.4,322.3c-1,1.7-2,0.5-3.1,0.2c-0.2-0.2-0.5-0.6-0.6-0.9c1.3-2.2,2.4,0.2,3.6,0.2
		C222.3,322.1,222.4,322.1,222.4,322.3z"/>
	<path class="st1" d="M224.5,325.8c-1.3,3.5-2.6,1-4,0.3c-0.3-0.5-0.6-1.1-0.8-1.9c1.7-4.5,3.1,0.3,4.6,0.3
		C224.3,325.5,224.5,325.5,224.5,325.8z"/>
	<path class="st1" d="M214.5,336.8l-1-1.4c3.6,1.3,7.2,2.8,10.8,4.2C220.9,340.5,217.7,338,214.5,336.8z"/>
	<path class="st2" d="M251.8,379.1c0.6,0,1,0.3,1.7,0.3c-2.5-0.6-4.8,5.2-7.4,0C248.1,380.7,249.7,378.8,251.8,379.1z"/>
	<path class="st18" d="M228.2,358.4h-0.4c-1-1.4-1.5-3-1.5-4.7c1.2-0.7,2.1,0.4,3.5,0.2C227.5,354.8,227.9,356.5,228.2,358.4z"/>
	<path class="st2" d="M225.5,349.2c4.6-0.4,3.6,2.5,3.8,5l-0.8,0.5c-0.3,0.2-0.3,0-0.7,0.1C227.1,352.9,226.4,351.2,225.5,349.2z"/>
	<path class="st2" d="M227.4,353.5c4.6-0.4,3.6,2.5,3.8,5l-0.8,0.5c-0.3,0.2-0.3,0-0.7,0.1C229,357.3,228.3,355.6,227.4,353.5z"/>
	<path class="st2" d="M227.4,361.8c0.9-5.3,4.1-3.6,7.2-3.3l0.3,0.9c0.1,0.3-0.1,0.4-0.1,0.8C232.4,360.7,230.2,361.1,227.4,361.8z"
		/>
	<path class="st2" d="M231.9,360c3.1-3.4,4.4-0.6,6.2,1.1l-0.2,0.9c-0.1,0.3-0.2,0.2-0.4,0.5C235.7,361.7,234,360.9,231.9,360z"/>
	<path class="st2" d="M236.8,357.7c8.7-1.9,6,2.9,5.7,6.9l-1.5,0.9c-0.5,0.3-0.6,0.1-1.2,0.3C238.8,363.2,237.9,360.7,236.8,357.7z"
		/>
	<path class="st2" d="M253.7,393.4c-4.8,4.1-5,0.1-6.3-2.5l0.6-1.1c0.2-0.4,0.3-0.3,0.7-0.6C250.3,390.7,251.8,391.9,253.7,393.4z"
		/>
	<path class="st2" d="M247.7,392.3c-5.1,1.8-4.1-1.5-4.4-4l0.8-0.7c0.3-0.2,0.4-0.1,0.7-0.3C245.7,389,246.6,390.5,247.7,392.3z"/>
	<path class="st2" d="M253.8,396.7c-0.1-0.9-0.5-1.8,0.5-2.4c0.5,0.3,0.9-1.6,1.3,0c0.1,0.5,1.1,1.6-0.4,1.6
		C254.4,395.7,254.3,396.4,253.8,396.7z"/>
</g>
<text transform="matrix(1 0 0 1 12.9499 179.7314)" class="st1 st3 st24">2,2% (-6,8 pp)</text>
<text transform="matrix(1 0 0 1 12.9496 204.2799)" class="st1 st3 st24">154 (-97,4%)</text>
<text transform="matrix(1 0 0 1 12.9493 231.5009)" class="st1 st3 st24">1.898 (-82,4%)</text>
<text transform="matrix(1 0 0 1 373.4981 100.488)" class="st1 st3 st24">3,7%    (-12,8 pp)</text>
<text transform="matrix(1 0 0 1 373.1003 112.198)" class="st1 st3 st24">2.033     (-88,5%)</text>
<text transform="matrix(1 0 0 1 373.5477 123.6838)" class="st1 st3 st24">5.775     (-82,7%)</text>
<text transform="matrix(1 0 0 1 440.3369 385.7023)" class="st1 st3 st24">0,8%  (-18,1 pp)</text>
<text transform="matrix(1 0 0 1 440.3372 397.4126)" class="st1 st3 st24">258      (-98,3%)</text>
<text transform="matrix(1 0 0 1 440.3865 408.8981)" class="st1 st3 st24">832      (-97,1%)</text>
<text transform="matrix(1 0 0 1 222.463 473.1624)" class="st1 st3 st24">2,1%    (-8,8 pp)</text>
<text transform="matrix(1 0 0 1 222.7999 484.8728)" class="st1 st3 st24">669      (-83,0%)</text>
<text transform="matrix(1 0 0 1 222.5126 496.3581)" class="st1 st3 st24">1.367   (-81,8%)</text>
<g>
	<g class="st0">
		<path class="st2" d="M128.8,15.7c0.6-0.1,1.3-0.2,2.3-0.2c1.2,0,2,0.3,2.6,0.8c0.5,0.4,0.8,1.1,0.8,1.9s-0.2,1.5-0.7,2
			c-0.6,0.7-1.7,1-2.8,1c-0.4,0-0.7,0-1-0.1v3.7h-1.2C128.8,24.8,128.8,15.7,128.8,15.7z M130,20.1c0.3,0.1,0.6,0.1,1,0.1
			c1.4,0,2.3-0.7,2.3-2c0-1.2-0.9-1.8-2.2-1.8c-0.5,0-0.9,0-1.1,0.1C130,16.5,130,20.1,130,20.1z"/>
		<path class="st2" d="M142.1,21.4c0,2.4-1.7,3.5-3.3,3.5c-1.8,0-3.2-1.3-3.2-3.4c0-2.2,1.4-3.5,3.3-3.5
			C140.8,18,142.1,19.4,142.1,21.4z M136.8,21.5c0,1.4,0.8,2.5,2,2.5c1.1,0,2-1.1,2-2.6c0-1.1-0.6-2.5-2-2.5
			C137.4,18.9,136.8,20.3,136.8,21.5z"/>
		<path class="st2" d="M143.4,23.6c0.4,0.2,1,0.5,1.6,0.5c0.9,0,1.3-0.4,1.3-1s-0.3-0.9-1.2-1.2c-1.2-0.4-1.7-1.1-1.7-1.9
			c0-1.1,0.9-1.9,2.3-1.9c0.7,0,1.3,0.2,1.6,0.4l-0.3,0.9c-0.3-0.2-0.7-0.4-1.4-0.4s-1.1,0.4-1.1,0.9s0.4,0.8,1.3,1.1
			c1.1,0.4,1.7,1,1.7,2c0,1.2-0.9,2-2.5,2c-0.7,0-1.4-0.2-1.9-0.5L143.4,23.6z"/>
		<path class="st2" d="M150.3,16.3c0,0.4-0.3,0.7-0.8,0.7c-0.4,0-0.7-0.3-0.7-0.7c0-0.4,0.3-0.8,0.8-0.8
			C150,15.6,150.3,15.9,150.3,16.3z M149,24.8v-6.6h1.2v6.6H149z"/>
		<path class="st2" d="M156.9,24.6c-0.3,0.2-1,0.4-1.9,0.4c-2,0-3.3-1.4-3.3-3.4s1.4-3.5,3.6-3.5c0.7,0,1.3,0.2,1.7,0.3l-0.3,0.9
			c-0.3-0.2-0.7-0.3-1.4-0.3c-1.5,0-2.3,1.1-2.3,2.5c0,1.5,1,2.5,2.3,2.5c0.7,0,1.1-0.2,1.5-0.3L156.9,24.6z"/>
		<path class="st2" d="M159.6,16.3c0,0.4-0.3,0.7-0.8,0.7c-0.4,0-0.7-0.3-0.7-0.7c0-0.4,0.3-0.8,0.8-0.8
			C159.4,15.6,159.6,15.9,159.6,16.3z M158.3,24.8v-6.6h1.2v6.6H158.3z"/>
		<path class="st2" d="M167.5,21.4c0,2.4-1.7,3.5-3.3,3.5c-1.8,0-3.2-1.3-3.2-3.4c0-2.2,1.4-3.5,3.3-3.5
			C166.2,18,167.5,19.4,167.5,21.4z M162.2,21.5c0,1.4,0.8,2.5,2,2.5c1.1,0,2-1.1,2-2.6c0-1.1-0.6-2.5-2-2.5S162.2,20.3,162.2,21.5z
			"/>
		<path class="st2" d="M169,20c0-0.7,0-1.2-0.1-1.8h1.1l0.1,1.1l0,0c0.3-0.6,1.1-1.2,2.2-1.2c0.9,0,2.3,0.5,2.3,2.8v3.9h-1.2V21
			c0-1.1-0.4-2-1.5-2c-0.8,0-1.4,0.6-1.6,1.2c-0.1,0.2-0.1,0.4-0.1,0.6v4H169V20z"/>
		<path class="st2" d="M180.2,24.8l-0.1-0.8l0,0c-0.4,0.5-1.1,1-2,1c-1.3,0-2-0.9-2-1.9c0-1.6,1.4-2.5,4-2.5v-0.1
			c0-0.5-0.2-1.5-1.5-1.5c-0.6,0-1.3,0.2-1.7,0.5l-0.3-0.8c0.5-0.4,1.3-0.6,2.2-0.6c2,0,2.5,1.4,2.5,2.7v2.5c0,0.6,0,1.1,0.1,1.6
			h-1.2V24.8z M180.1,21.4c-1.3,0-2.8,0.2-2.8,1.5c0,0.8,0.5,1.1,1.1,1.1c0.9,0,1.4-0.5,1.6-1.1c0-0.1,0.1-0.3,0.1-0.4L180.1,21.4
			L180.1,21.4z"/>
		<path class="st2" d="M183.2,20c0-0.7,0-1.2-0.1-1.8h1.1l0.1,1.1l0,0c0.4-0.6,1-1.2,2.1-1.2c0.9,0,1.6,0.5,1.9,1.3l0,0
			c0.2-0.4,0.5-0.7,0.7-0.9c0.4-0.3,0.8-0.5,1.5-0.5c0.9,0,2.2,0.6,2.2,2.9v3.9h-1.2v-3.7c0-1.3-0.5-2-1.4-2c-0.7,0-1.2,0.5-1.4,1.1
			c-0.1,0.2-0.1,0.4-0.1,0.6v4.1h-1.2v-4c0-1.1-0.5-1.8-1.4-1.8c-0.8,0-1.3,0.6-1.5,1.2c-0.1,0.2-0.1,0.4-0.1,0.6v4h-1.2L183.2,20
			L183.2,20z"/>
		<path class="st2" d="M195.2,21.7c0,1.6,1.1,2.3,2.3,2.3c0.9,0,1.4-0.2,1.8-0.3l0.2,0.9c-0.4,0.2-1.1,0.4-2.2,0.4
			c-2,0-3.3-1.3-3.3-3.3s1.2-3.6,3.1-3.6c2.2,0,2.7,1.9,2.7,3.1c0,0.2,0,0.4,0,0.6h-4.6V21.7z M198.7,20.9c0-0.8-0.3-2-1.7-2
			c-1.2,0-1.7,1.1-1.8,2H198.7z"/>
		<path class="st2" d="M201.4,20c0-0.7,0-1.2-0.1-1.8h1.1l0.1,1.1l0,0c0.3-0.6,1.1-1.2,2.2-1.2c0.9,0,2.3,0.5,2.3,2.8v3.9h-1.2V21
			c0-1.1-0.4-2-1.5-2c-0.8,0-1.4,0.6-1.6,1.2c-0.1,0.2-0.1,0.4-0.1,0.6v4h-1.2V20z"/>
		<path class="st2" d="M210.4,16.3v1.9h1.7v0.9h-1.7v3.6c0,0.8,0.2,1.3,0.9,1.3c0.3,0,0.5,0,0.7-0.1l0.1,0.9
			c-0.2,0.1-0.6,0.2-1.1,0.2c-0.6,0-1-0.2-1.3-0.5c-0.3-0.4-0.5-0.9-0.5-1.7v-3.6h-1v-0.9h1v-1.6L210.4,16.3z"/>
		<path class="st2" d="M221,21.7c0,1.6,1.1,2.3,2.3,2.3c0.9,0,1.4-0.2,1.8-0.3l0.2,0.9c-0.4,0.2-1.1,0.4-2.2,0.4
			c-2,0-3.3-1.3-3.3-3.3s1.2-3.6,3.1-3.6c2.2,0,2.7,1.9,2.7,3.1c0,0.2,0,0.4,0,0.6H221V21.7z M224.5,20.9c0-0.8-0.3-2-1.7-2
			c-1.2,0-1.7,1.1-1.8,2H224.5z"/>
		<path class="st2" d="M227.2,20c0-0.7,0-1.2-0.1-1.8h1.1l0.1,1.1l0,0c0.3-0.6,1.1-1.2,2.2-1.2c0.9,0,2.3,0.5,2.3,2.8v3.9h-1.2V21
			c0-1.1-0.4-2-1.5-2c-0.8,0-1.4,0.6-1.6,1.2c-0.1,0.2-0.1,0.4-0.1,0.6v4h-1.2V20z"/>
		<path class="st2" d="M243,16.3v1.9h1.7v0.9H243v3.6c0,0.8,0.2,1.3,0.9,1.3c0.3,0,0.5,0,0.7-0.1l0.1,0.9c-0.2,0.1-0.6,0.2-1.1,0.2
			c-0.6,0-1-0.2-1.3-0.5c-0.3-0.4-0.5-0.9-0.5-1.7v-3.6h-1v-0.9h1v-1.6L243,16.3z"/>
		<path class="st2" d="M251.6,23c0,0.7,0,1.3,0.1,1.8h-1.1l-0.1-1.1l0,0c-0.3,0.5-1,1.2-2.2,1.2c-1,0-2.3-0.6-2.3-2.9v-3.9h1.2v3.7
			c0,1.3,0.4,2.1,1.5,2.1c0.8,0,1.4-0.6,1.6-1.1c0.1-0.2,0.1-0.4,0.1-0.6v-4.1h1.2V23z"/>
		<path class="st2" d="M253.6,20.3c0-0.8,0-1.4-0.1-2.1h1.1v1.3h0.1c0.3-0.9,1-1.4,1.8-1.4c0.1,0,0.2,0,0.3,0v1.1
			c-0.1,0-0.2,0-0.4,0c-0.8,0-1.4,0.6-1.6,1.5c0,0.2-0.1,0.4-0.1,0.6v3.5h-1.2L253.6,20.3L253.6,20.3z"/>
		<path class="st2" d="M259.4,16.3c0,0.4-0.3,0.7-0.8,0.7c-0.4,0-0.7-0.3-0.7-0.7c0-0.4,0.3-0.8,0.8-0.8
			C259.1,15.6,259.4,15.9,259.4,16.3z M258.1,24.8v-6.6h1.2v6.6H258.1z"/>
		<path class="st2" d="M261.1,23.6c0.4,0.2,1,0.5,1.6,0.5c0.9,0,1.3-0.4,1.3-1s-0.3-0.9-1.2-1.2c-1.2-0.4-1.7-1.1-1.7-1.9
			c0-1.1,0.9-1.9,2.3-1.9c0.7,0,1.3,0.2,1.6,0.4l-0.3,0.9c-0.3-0.2-0.7-0.4-1.4-0.4c-0.7,0-1.1,0.4-1.1,0.9s0.4,0.8,1.3,1.1
			c1.1,0.4,1.7,1,1.7,2c0,1.2-0.9,2-2.5,2c-0.7,0-1.4-0.2-1.9-0.5L261.1,23.6z"/>
		<path class="st2" d="M266.7,20c0-0.7,0-1.2-0.1-1.8h1.1l0.1,1.1l0,0c0.4-0.6,1-1.2,2.1-1.2c0.9,0,1.6,0.5,1.9,1.3l0,0
			c0.2-0.4,0.5-0.7,0.7-0.9c0.4-0.3,0.8-0.5,1.5-0.5c0.9,0,2.2,0.6,2.2,2.9v3.9H275v-3.7c0-1.3-0.5-2-1.4-2c-0.7,0-1.2,0.5-1.4,1.1
			c-0.1,0.2-0.1,0.4-0.1,0.6v4.1h-1.2v-4c0-1.1-0.5-1.8-1.4-1.8c-0.8,0-1.3,0.6-1.5,1.2c-0.1,0.2-0.1,0.4-0.1,0.6v4h-1.2L266.7,20
			L266.7,20z"/>
		<path class="st2" d="M278.8,21.7c0,1.6,1.1,2.3,2.3,2.3c0.9,0,1.4-0.2,1.8-0.3l0.2,0.9c-0.4,0.2-1.1,0.4-2.2,0.4
			c-2,0-3.2-1.3-3.2-3.3s1.2-3.6,3.1-3.6c2.2,0,2.7,1.9,2.7,3.1c0,0.2,0,0.4,0,0.6h-4.7L278.8,21.7L278.8,21.7z M282.3,20.9
			c0-0.8-0.3-2-1.7-2c-1.2,0-1.7,1.1-1.8,2H282.3z"/>
		<path class="st2" d="M291.8,20.3c0-0.8,0-1.4-0.1-2.1h1.1v1.3h0.1c0.3-0.9,1-1.4,1.8-1.4c0.1,0,0.2,0,0.3,0v1.1
			c-0.1,0-0.2,0-0.4,0c-0.8,0-1.4,0.6-1.6,1.5c0,0.2-0.1,0.4-0.1,0.6v3.5h-1.2v-4.5C291.7,20.3,291.8,20.3,291.8,20.3z"/>
		<path class="st2" d="M301.8,23c0,0.7,0,1.3,0.1,1.8h-1.1l-0.1-1.1l0,0c-0.3,0.5-1,1.2-2.2,1.2c-1,0-2.3-0.6-2.3-2.9v-3.9h1.2v3.7
			c0,1.3,0.4,2.1,1.5,2.1c0.8,0,1.4-0.6,1.6-1.1c0.1-0.2,0.1-0.4,0.1-0.6v-4.1h1.2L301.8,23L301.8,23z"/>
		<path class="st2" d="M303.8,20.3c0-0.8,0-1.4-0.1-2.1h1.1v1.3h0.1c0.3-0.9,1-1.4,1.8-1.4c0.1,0,0.2,0,0.3,0v1.1
			c-0.1,0-0.2,0-0.4,0c-0.8,0-1.4,0.6-1.6,1.5c0,0.2-0.1,0.4-0.1,0.6v3.5h-1.2v-4.5C303.7,20.3,303.8,20.3,303.8,20.3z"/>
		<path class="st2" d="M311.9,24.8l-0.1-0.8l0,0c-0.4,0.5-1.1,1-2,1c-1.3,0-2-0.9-2-1.9c0-1.6,1.4-2.5,4-2.5v-0.1
			c0-0.5-0.2-1.5-1.5-1.5c-0.6,0-1.3,0.2-1.7,0.5l-0.3-0.8c0.5-0.4,1.3-0.6,2.2-0.6c2,0,2.5,1.4,2.5,2.7v2.5c0,0.6,0,1.1,0.1,1.6
			h-1.2V24.8z M311.7,21.4c-1.3,0-2.8,0.2-2.8,1.5c0,0.8,0.5,1.1,1.1,1.1c0.9,0,1.4-0.5,1.6-1.1c0-0.1,0.1-0.3,0.1-0.4L311.7,21.4
			L311.7,21.4z"/>
		<path class="st2" d="M314.8,15.1h1.2v9.7h-1.2V15.1z"/>
		<path class="st2" d="M324.9,20.3c0-0.8,0-1.5-0.1-2.2h1.1l0.1,1.1l0,0c0.5-0.8,1.3-1.3,2.3-1.3c1.6,0,2.8,1.4,2.8,3.4
			c0,2.4-1.4,3.6-3,3.6c-0.9,0-1.6-0.4-2-1l0,0v3.6h-1.2L324.9,20.3L324.9,20.3z M326.1,22.1c0,0.2,0,0.3,0.1,0.5
			c0.2,0.8,0.9,1.4,1.8,1.4c1.3,0,2-1,2-2.6c0-1.3-0.7-2.5-2-2.5c-0.8,0-1.6,0.6-1.8,1.5c0,0.2-0.1,0.3-0.1,0.5V22.1z"/>
		<path class="st2" d="M333.3,21.7c0,1.6,1.1,2.3,2.3,2.3c0.9,0,1.4-0.2,1.8-0.3l0.2,0.9c-0.4,0.2-1.1,0.4-2.2,0.4
			c-2,0-3.3-1.3-3.3-3.3s1.2-3.6,3.1-3.6c2.2,0,2.7,1.9,2.7,3.1c0,0.2,0,0.4,0,0.6h-4.6V21.7z M336.8,20.9c0-0.8-0.3-2-1.7-2
			c-1.2,0-1.7,1.1-1.8,2H336.8z"/>
		<path class="st2" d="M339.5,20.3c0-0.8,0-1.4-0.1-2.1h1.1v1.3h0.1c0.3-0.9,1-1.4,1.8-1.4c0.1,0,0.2,0,0.3,0v1.1
			c-0.1,0-0.2,0-0.4,0c-0.8,0-1.4,0.6-1.6,1.5c0,0.2-0.1,0.4-0.1,0.6v3.5h-1.2v-4.5C339.4,20.3,339.5,20.3,339.5,20.3z"/>
		<path class="st2" d="M350.8,20.3c0-0.8,0-1.5-0.1-2.2h1.1l0.1,1.1l0,0c0.5-0.8,1.3-1.3,2.3-1.3c1.6,0,2.8,1.4,2.8,3.4
			c0,2.4-1.4,3.6-3,3.6c-0.9,0-1.6-0.4-2-1l0,0v3.6h-1.2L350.8,20.3L350.8,20.3z M352,22.1c0,0.2,0,0.3,0.1,0.5
			c0.2,0.8,0.9,1.4,1.8,1.4c1.3,0,2-1,2-2.6c0-1.3-0.7-2.5-2-2.5c-0.8,0-1.6,0.6-1.8,1.5c0,0.2-0.1,0.3-0.1,0.5V22.1z"/>
		<path class="st2" d="M358.6,20.3c0-0.8,0-1.4-0.1-2.1h1.1v1.3h0.1c0.3-0.9,1-1.4,1.8-1.4c0.1,0,0.2,0,0.3,0v1.1
			c-0.1,0-0.2,0-0.4,0c-0.8,0-1.4,0.6-1.6,1.5c0,0.2-0.1,0.4-0.1,0.6v3.5h-1.2v-4.5C358.5,20.3,358.6,20.3,358.6,20.3z"/>
		<path class="st2" d="M369,21.4c0,2.4-1.7,3.5-3.3,3.5c-1.8,0-3.2-1.3-3.2-3.4c0-2.2,1.4-3.5,3.3-3.5C367.7,18,369,19.4,369,21.4z
			 M363.8,21.5c0,1.4,0.8,2.5,2,2.5c1.1,0,2-1.1,2-2.6c0-1.1-0.6-2.5-2-2.5S363.8,20.3,363.8,21.5z"/>
		<path class="st2" d="M371,18.2l1.3,3.7c0.2,0.6,0.4,1.1,0.5,1.7l0,0c0.2-0.5,0.3-1.1,0.6-1.7l1.3-3.7h1.3l-2.6,6.6h-1.1l-2.5-6.6
			H371z"/>
		<path class="st2" d="M379.5,15.3l-1.7,2H377l1.2-2C378.2,15.3,379.5,15.3,379.5,15.3z M377.1,24.8v-6.6h1.2v6.6H377.1z"/>
		<path class="st2" d="M380.3,20c0-0.7,0-1.2-0.1-1.8h1.1l0.1,1.1l0,0c0.3-0.6,1.1-1.2,2.2-1.2c0.9,0,2.3,0.5,2.3,2.8v3.9h-1.2V21
			c0-1.1-0.4-2-1.5-2c-0.8,0-1.4,0.6-1.6,1.2c-0.1,0.2-0.1,0.4-0.1,0.6v4h-1.2L380.3,20L380.3,20z"/>
		<path class="st2" d="M392.6,24.6c-0.3,0.2-1,0.4-1.9,0.4c-2,0-3.3-1.4-3.3-3.4s1.4-3.5,3.6-3.5c0.7,0,1.3,0.2,1.7,0.3l-0.3,0.9
			c-0.3-0.2-0.7-0.3-1.4-0.3c-1.5,0-2.3,1.1-2.3,2.5c0,1.5,1,2.5,2.3,2.5c0.7,0,1.1-0.2,1.5-0.3L392.6,24.6z"/>
		<path class="st2" d="M395.3,16.3c0,0.4-0.3,0.7-0.8,0.7c-0.4,0-0.7-0.3-0.7-0.7c0-0.4,0.3-0.8,0.8-0.8
			C395,15.6,395.3,15.9,395.3,16.3z M394,24.8v-6.6h1.2v6.6H394z"/>
		<path class="st2" d="M397.9,21.7c0,1.6,1.1,2.3,2.3,2.3c0.9,0,1.4-0.2,1.8-0.3l0.2,0.9c-0.4,0.2-1.1,0.4-2.2,0.4
			c-2,0-3.3-1.3-3.3-3.3s1.2-3.6,3.1-3.6c2.2,0,2.7,1.9,2.7,3.1c0,0.2,0,0.4,0,0.6h-4.6V21.7z M401.4,20.9c0-0.8-0.3-2-1.7-2
			c-1.2,0-1.7,1.1-1.8,2H401.4z"/>
		<path class="st2" d="M403.9,23.6c0.4,0.2,1,0.5,1.6,0.5c0.9,0,1.3-0.4,1.3-1s-0.3-0.9-1.2-1.2c-1.2-0.4-1.7-1.1-1.7-1.9
			c0-1.1,0.9-1.9,2.3-1.9c0.7,0,1.3,0.2,1.6,0.4l-0.3,0.9c-0.3-0.2-0.7-0.4-1.4-0.4c-0.7,0-1.1,0.4-1.1,0.9s0.4,0.8,1.3,1.1
			c1.1,0.4,1.7,1,1.7,2c0,1.2-0.9,2-2.5,2c-0.7,0-1.4-0.2-1.9-0.5L403.9,23.6z"/>
	</g>
</g>
</svg>
