<?xml version="1.0" encoding="utf-8"?>
<!-- Generator: Adobe Illustrator 24.0.1, SVG Export Plug-In . SVG Version: 6.00 Build 0)  -->
<svg version="1.1" id="Capa_1" xmlns="http://www.w3.org/2000/svg" xmlns:xlink="http://www.w3.org/1999/xlink" x="0px" y="0px"
	 viewBox="0 0 1366 1024.7" style="enable-background:new 0 0 1366 1024.7;" xml:space="preserve">
<style type="text/css">
	.st0{fill:none;}
	.st1{clip-path:url(#SVGID_2_);enable-background:new    ;}
	.st2{fill:#003366;}
	.st3{font-family:'Arial-BoldMT';}
	.st4{font-size:24.5186px;}
	.st5{clip-path:url(#SVGID_4_);enable-background:new    ;}
	.st6{font-size:23.8px;}
	.st7{enable-background:new    ;}
	.st8{fill:#8D8D8D;}
	.st9{fill:#012E68;}
	.st10{font-family:'OpenSans-Regular';}
	.st11{font-size:22px;}
	.st12{fill:#00CCCC;}
	.st13{fill:#FFFFFF;}
	.st14{font-family:'OpenSans-SemiBold';}
	.st15{font-size:35px;}
	.st16{opacity:0.67;fill:#003366;enable-background:new    ;}
	.st17{font-size:25px;}
	.st18{font-family:'ArialMT';}
	.st19{font-size:28.2391px;}
	.st20{font-size:28.3254px;}
	.st21{font-size:83px;}
</style>
<rect x="73" y="394.7" class="st0" width="1220" height="426.6"/>
<image style="overflow:visible;enable-background:new    ;" width="264" height="86" xlink:href="9D6843B5.png"  transform="matrix(0.7116 0 0 0.7116 424.0707 351.5261)">
</image>
<image style="overflow:visible;enable-background:new    ;" width="946" height="294" xlink:href="9D6843B7.jpg"  transform="matrix(1.2852 0 0 1.2852 69.0816 146.4812)">
</image>
<g transform="translate(10,45.7)">
	<g>
		<g>
			<defs>
				<rect id="SVGID_1_" x="125.9" y="469.8" width="460.6" height="303.9"/>
			</defs>
			<clipPath id="SVGID_2_">
				<use xlink:href="#SVGID_1_"  style="overflow:visible;"/>
			</clipPath>
			<g class="st1">
				<text transform="matrix(1 0 0 1 311.5922 543.7508)" class="st2 st3 st4">Viatgers</text>
			</g>
		</g>
	</g>
	<g>
		<g>
			<rect x="168.5" y="577.5" class="st0" width="229.8" height="151.7"/>
		</g>
	</g>
</g>
<g transform="translate(457.09942626953125, 45.70000076293945)">
	<g>
		<g>
			<defs>
				<rect id="SVGID_3_" x="342.7" y="473.9" width="447.1" height="294.9"/>
			</defs>
			<clipPath id="SVGID_4_">
				<use xlink:href="#SVGID_3_"  style="overflow:visible;"/>
			</clipPath>
			<g class="st5">
				<text transform="matrix(1 0 0 1 491.3199 545.6152)" class="st2 st3 st6">Pernoctacions</text>
			</g>
		</g>
	</g>
	<g>
		<g>
			<rect x="454.7" y="565.6" class="st0" width="223.1" height="147.2"/>
		</g>
	</g>
</g>
<g>
	<g class="st7">
		<path class="st8" d="M42,993.4h-5.1v4.7h5.7v1.4h-7.4v-13.1h7.1v1.4h-5.4v4.1H42V993.4z"/>
		<path class="st8" d="M44.7,985.8h1.7v13.8h-1.7V985.8z"/>
		<path class="st8" d="M54.5,999.6l-0.1-1.2h-0.1c-0.5,0.7-1.5,1.4-2.9,1.4c-1.9,0-2.9-1.3-2.9-2.7c0-2.3,2-3.5,5.6-3.5v-0.2
			c0-0.8-0.2-2.2-2.1-2.2c-0.9,0-1.8,0.3-2.4,0.7l-0.4-1.1c0.8-0.5,1.9-0.8,3.1-0.8c2.9,0,3.6,2,3.6,3.8v3.5c0,0.8,0,1.6,0.2,2.3
			H54.5z M54.3,994.8c-1.9,0-4,0.3-4,2.1c0,1.1,0.7,1.6,1.6,1.6c1.2,0,2-0.8,2.3-1.6c0.1-0.2,0.1-0.4,0.1-0.5
			C54.3,996.4,54.3,994.8,54.3,994.8z"/>
		<path class="st8" d="M58.6,999.6c0-0.6,0.1-1.6,0.1-2.4v-11.4h1.7v5.9l0,0c0.6-1,1.7-1.7,3.2-1.7c2.3,0,4,1.9,4,4.8
			c0,3.4-2.1,5-4.2,5c-1.4,0-2.4-0.5-3.1-1.8h-0.1l-0.1,1.6L58.6,999.6L58.6,999.6z M60.4,995.8c0,0.2,0,0.4,0.1,0.6
			c0.3,1.2,1.3,2,2.6,2c1.8,0,2.9-1.5,2.9-3.6c0-1.9-1-3.5-2.8-3.5c-1.2,0-2.3,0.8-2.6,2.1c0,0.2-0.1,0.4-0.1,0.7v1.7H60.4z"/>
		<path class="st8" d="M78.2,994.8c0,3.5-2.4,5-4.7,5c-2.5,0-4.5-1.9-4.5-4.8c0-3.1,2.1-5,4.7-5C76.4,990,78.2,991.9,78.2,994.8z
			 M70.8,994.9c0,2.1,1.2,3.6,2.9,3.6c1.6,0,2.9-1.5,2.9-3.6c0-1.6-0.8-3.6-2.8-3.6S70.8,993.1,70.8,994.9z"/>
		<path class="st8" d="M80.4,993.1c0-1.1,0-2.1-0.1-2.9h1.5l0.1,1.8H82c0.4-1.3,1.5-2.1,2.6-2.1c0.2,0,0.3,0,0.5,0.1v1.6
			c-0.2,0-0.3-0.1-0.6-0.1c-1.2,0-2.1,0.9-2.3,2.2c0,0.2-0.1,0.5-0.1,0.8v5h-1.7V993.1z"/>
		<path class="st8" d="M91.9,999.6l-0.1-1.2h-0.1c-0.5,0.7-1.5,1.4-2.9,1.4c-1.9,0-2.9-1.3-2.9-2.7c0-2.3,2-3.5,5.6-3.5v-0.2
			c0-0.8-0.2-2.2-2.1-2.2c-0.9,0-1.8,0.3-2.4,0.7l-0.4-1.1c0.8-0.5,1.9-0.8,3.1-0.8c2.9,0,3.6,2,3.6,3.8v3.5c0,0.8,0,1.6,0.2,2.3
			H91.9z M91.7,994.8c-1.9,0-4,0.3-4,2.1c0,1.1,0.7,1.6,1.6,1.6c1.2,0,2-0.8,2.3-1.6c0.1-0.2,0.1-0.4,0.1-0.5V994.8z"/>
		<path class="st8" d="M102.8,999.2c-0.4,0.2-1.4,0.5-2.7,0.5c-2.8,0-4.7-1.9-4.7-4.8c0-2.9,2-5,5-5c1,0,1.9,0.3,2.4,0.5l-0.4,1.3
			c-0.4-0.2-1-0.4-2-0.4c-2.2,0-3.3,1.6-3.3,3.6c0,2.2,1.4,3.5,3.3,3.5c1,0,1.6-0.3,2.1-0.5L102.8,999.2z"/>
		<path class="st8" d="M106.7,987.5c0,0.6-0.4,1-1.1,1c-0.6,0-1-0.5-1-1c0-0.6,0.4-1.1,1.1-1.1C106.3,986.5,106.7,986.9,106.7,987.5
			z M104.8,999.6v-9.4h1.7v9.4H104.8z"/>
		<path class="st8" d="M117.8,994.8c0,3.5-2.4,5-4.7,5c-2.5,0-4.5-1.9-4.5-4.8c0-3.1,2.1-5,4.7-5C116,990,117.8,991.9,117.8,994.8z
			 M110.3,994.9c0,2.1,1.2,3.6,2.9,3.6c1.6,0,2.9-1.5,2.9-3.6c0-1.6-0.8-3.6-2.8-3.6S110.3,993.1,110.3,994.9z M115.8,986.1
			l-2.4,2.8h-1.2l1.7-2.8H115.8z"/>
		<path class="st8" d="M129.7,993.3c0-1.2,0-2.2-0.1-3.1h1.5l0.1,1.6l0,0c0.7-1.1,1.8-1.8,3.3-1.8c2.3,0,4,1.9,4,4.8
			c0,3.4-2.1,5-4.3,5c-1.2,0-2.3-0.5-2.9-1.5l0,0v5.1h-1.7L129.7,993.3L129.7,993.3z M131.3,995.8c0,0.3,0,0.5,0.1,0.7
			c0.3,1.2,1.3,2,2.6,2c1.8,0,2.9-1.5,2.9-3.6c0-1.9-1-3.5-2.8-3.5c-1.2,0-2.3,0.8-2.6,2.1c-0.1,0.2-0.1,0.5-0.1,0.7L131.3,995.8
			L131.3,995.8z"/>
		<path class="st8" d="M140.7,993.1c0-1.1,0-2.1-0.1-2.9h1.5l0.1,1.8h0.1c0.4-1.3,1.5-2.1,2.6-2.1c0.2,0,0.3,0,0.5,0.1v1.6
			c-0.2,0-0.3-0.1-0.6-0.1c-1.2,0-2.1,0.9-2.3,2.2c0,0.2-0.1,0.5-0.1,0.8v5h-1.7V993.1z"/>
		<path class="st8" d="M155.5,994.8c0,3.5-2.4,5-4.7,5c-2.5,0-4.5-1.9-4.5-4.8c0-3.1,2.1-5,4.7-5C153.7,990,155.5,991.9,155.5,994.8
			z M148.1,994.9c0,2.1,1.2,3.6,2.9,3.6c1.6,0,2.9-1.5,2.9-3.6c0-1.6-0.8-3.6-2.8-3.6S148.1,993.1,148.1,994.9z M150.3,986.1
			l1.7,2.8h-1.2l-2.4-2.8H150.3z"/>
		<path class="st8" d="M157.7,993.3c0-1.2,0-2.2-0.1-3.1h1.5l0.1,1.6l0,0c0.7-1.1,1.8-1.8,3.3-1.8c2.3,0,4,1.9,4,4.8
			c0,3.4-2.1,5-4.3,5c-1.2,0-2.3-0.5-2.9-1.5l0,0v5.1h-1.7L157.7,993.3L157.7,993.3z M159.4,995.8c0,0.3,0,0.5,0.1,0.7
			c0.3,1.2,1.3,2,2.6,2c1.8,0,2.9-1.5,2.9-3.6c0-1.9-1-3.5-2.8-3.5c-1.2,0-2.3,0.8-2.6,2.1c-0.1,0.2-0.1,0.5-0.1,0.7L159.4,995.8
			L159.4,995.8z"/>
		<path class="st8" d="M170.6,987.5c0,0.6-0.4,1-1.1,1c-0.6,0-1-0.5-1-1c0-0.6,0.4-1.1,1.1-1.1C170.2,986.5,170.6,986.9,170.6,987.5
			z M168.7,999.6v-9.4h1.7v9.4H168.7z"/>
		<path class="st8" d="M178.5,999.6l-0.1-1.2h-0.1c-0.5,0.7-1.5,1.4-2.9,1.4c-1.9,0-2.9-1.3-2.9-2.7c0-2.3,2-3.5,5.6-3.5v-0.2
			c0-0.8-0.2-2.2-2.1-2.2c-0.9,0-1.8,0.3-2.4,0.7l-0.4-1.1c0.8-0.5,1.9-0.8,3.1-0.8c2.9,0,3.6,2,3.6,3.8v3.5c0,0.8,0,1.6,0.2,2.3
			H178.5z M178.2,994.8c-1.9,0-4,0.3-4,2.1c0,1.1,0.7,1.6,1.6,1.6c1.2,0,2-0.8,2.3-1.6c0.1-0.2,0.1-0.4,0.1-0.5L178.2,994.8
			L178.2,994.8z"/>
		<path class="st8" d="M200.4,985.8v11.4c0,0.8,0,1.8,0.1,2.4H199l-0.1-1.6l0,0c-0.5,1-1.7,1.8-3.2,1.8c-2.3,0-4-1.9-4-4.8
			c0-3.1,1.9-5,4.2-5c1.4,0,2.4,0.7,2.8,1.4l0,0v-5.6L200.4,985.8L200.4,985.8z M198.7,994c0-0.2,0-0.5-0.1-0.7
			c-0.3-1.1-1.2-2-2.5-2c-1.8,0-2.8,1.6-2.8,3.6c0,1.9,0.9,3.5,2.8,3.5c1.1,0,2.2-0.8,2.5-2c0.1-0.2,0.1-0.5,0.1-0.7V994z"/>
		<path class="st8" d="M204.2,995.2c0,2.3,1.5,3.3,3.2,3.3c1.2,0,2-0.2,2.6-0.5l0.3,1.2c-0.6,0.3-1.6,0.6-3.1,0.6
			c-2.9,0-4.6-1.9-4.6-4.7s1.7-5.1,4.4-5.1c3.1,0,3.9,2.7,3.9,4.4c0,0.3,0,0.6-0.1,0.8H204.2z M209.2,994c0-1.1-0.4-2.8-2.4-2.8
			c-1.7,0-2.5,1.6-2.6,2.8H209.2z"/>
		<path class="st8" d="M213,985.8h1.7v13.8H213V985.8z"/>
		<path class="st8" d="M227.3,986.5h1.7v11.7h5.6v1.4h-7.3V986.5z"/>
		<path class="st8" d="M238.6,995.5l-1.4,4.1h-1.7l4.4-13.1h2l4.5,13.1h-1.8l-1.4-4.1H238.6z M242.9,994.1l-1.3-3.8
			c-0.3-0.9-0.5-1.6-0.7-2.4l0,0c-0.2,0.8-0.4,1.6-0.7,2.4l-1.3,3.8H242.9z"/>
		<path class="st8" d="M248.4,986.7c0.7-0.2,1.9-0.3,3.1-0.3c1.7,0,2.8,0.3,3.6,1c0.7,0.5,1.1,1.3,1.1,2.3c0,1.3-0.8,2.4-2.2,2.9
			l0,0c1.2,0.3,2.7,1.3,2.7,3.3c0,1.1-0.4,2-1.1,2.6c-0.9,0.8-2.4,1.2-4.5,1.2c-1.2,0-2.1-0.1-2.6-0.2v-12.8H248.4z M250.1,992h1.5
			c1.8,0,2.8-0.9,2.8-2.2c0-1.5-1.2-2.1-2.9-2.1c-0.8,0-1.2,0.1-1.5,0.1L250.1,992L250.1,992z M250.1,998.3c0.3,0.1,0.8,0.1,1.4,0.1
			c1.7,0,3.4-0.6,3.4-2.5c0-1.8-1.5-2.5-3.4-2.5h-1.4V998.3z"/>
		<path class="st8" d="M260.9,987.5v2.7h2.4v1.3h-2.4v5.1c0,1.2,0.3,1.8,1.3,1.8c0.4,0,0.8-0.1,1-0.1l0.1,1.3
			c-0.3,0.1-0.9,0.2-1.5,0.2c-0.8,0-1.4-0.3-1.8-0.7c-0.5-0.5-0.7-1.3-0.7-2.4v-5.1h-1.5v-1.3h1.5V988L260.9,987.5z"/>
		<path class="st8" d="M273.1,997c0,1,0,1.8,0.1,2.6h-1.5l-0.1-1.5l0,0c-0.4,0.8-1.4,1.7-3.1,1.7c-1.5,0-3.2-0.8-3.2-4.1v-5.5h1.7
			v5.2c0,1.8,0.5,3,2.1,3c1.1,0,1.9-0.8,2.3-1.6c0.1-0.3,0.2-0.6,0.2-0.9v-5.8h1.7v6.9H273.1z"/>
		<path class="st8" d="M275.9,993.1c0-1.1,0-2.1-0.1-2.9h1.5l0.1,1.8h0.1c0.4-1.3,1.5-2.1,2.6-2.1c0.2,0,0.3,0,0.5,0.1v1.6
			c-0.2,0-0.3-0.1-0.6-0.1c-1.2,0-2.1,0.9-2.3,2.2c0,0.2-0.1,0.5-0.1,0.8v5h-1.7V993.1z"/>
		<path class="st8" d="M284.2,987.5c0,0.6-0.4,1-1.1,1c-0.6,0-1-0.5-1-1c0-0.6,0.4-1.1,1.1-1.1C283.8,986.5,284.2,986.9,284.2,987.5
			z M282.3,999.6v-9.4h1.7v9.4H282.3z"/>
		<path class="st8" d="M286.6,997.8c0.5,0.3,1.4,0.7,2.3,0.7c1.2,0,1.8-0.6,1.8-1.4c0-0.8-0.5-1.3-1.7-1.7c-1.7-0.6-2.5-1.5-2.5-2.7
			c0-1.5,1.2-2.8,3.2-2.8c1,0,1.8,0.3,2.3,0.6l-0.4,1.2c-0.4-0.2-1-0.5-1.9-0.5c-1,0-1.6,0.6-1.6,1.3c0,0.8,0.6,1.1,1.8,1.6
			c1.6,0.6,2.5,1.4,2.5,2.8c0,1.6-1.3,2.8-3.5,2.8c-1,0-2-0.3-2.6-0.6L286.6,997.8z"/>
		<path class="st8" d="M294.5,992.7c0-1,0-1.8-0.1-2.5h1.5l0.1,1.5h0.1c0.5-0.9,1.4-1.7,3-1.7c1.3,0,2.3,0.8,2.7,1.9l0,0
			c0.3-0.5,0.7-0.9,1-1.2c0.6-0.4,1.2-0.7,2.1-0.7c1.2,0,3.1,0.8,3.1,4.1v5.5h-1.7v-5.3c0-1.8-0.7-2.9-2-2.9c-1,0-1.7,0.7-2,1.6
			c-0.1,0.2-0.1,0.5-0.1,0.9v5.8h-1.7v-5.6c0-1.5-0.7-2.6-2-2.6c-1.1,0-1.8,0.9-2.1,1.7c-0.1,0.3-0.1,0.5-0.1,0.8v5.7h-1.7
			L294.5,992.7L294.5,992.7z"/>
		<path class="st8" d="M311.7,995.2c0,2.3,1.5,3.3,3.2,3.3c1.2,0,2-0.2,2.6-0.5l0.3,1.2c-0.6,0.3-1.6,0.6-3.1,0.6
			c-2.9,0-4.6-1.9-4.6-4.7s1.7-5.1,4.4-5.1c3.1,0,3.9,2.7,3.9,4.4c0,0.3,0,0.6-0.1,0.8H311.7z M316.7,994c0-1.1-0.4-2.8-2.4-2.8
			c-1.7,0-2.5,1.6-2.6,2.8H316.7z"/>
		<path class="st8" d="M320.1,1002.8v-0.4c0.6-0.2,1-0.5,1.4-0.9c0.4-0.5,0.6-1,0.6-1.5l-0.1-0.3l-0.1-0.1l-0.8,0.3
			c-0.7,0-1-0.4-1-1.1c0-0.3,0.1-0.6,0.4-0.8c0.2-0.2,0.5-0.3,0.9-0.3c0.5,0,0.9,0.2,1.2,0.7c0.3,0.4,0.4,0.8,0.4,1.3
			C322.9,1001.1,321.9,1002.2,320.1,1002.8z"/>
		<path class="st8" d="M335.9,995.2c0,2.3,1.5,3.3,3.2,3.3c1.2,0,2-0.2,2.6-0.5l0.3,1.2c-0.6,0.3-1.6,0.6-3.1,0.6
			c-2.9,0-4.6-1.9-4.6-4.7s1.7-5.1,4.4-5.1c3.1,0,3.9,2.7,3.9,4.4c0,0.3,0,0.6-0.1,0.8H335.9z M340.9,994c0-1.1-0.4-2.8-2.4-2.8
			c-1.7,0-2.5,1.6-2.6,2.8H340.9z"/>
		<path class="st8" d="M344.7,992.7c0-1,0-1.8-0.1-2.5h1.5l0.1,1.6l0,0c0.5-0.9,1.6-1.8,3.1-1.8c1.3,0,3.3,0.8,3.3,4v5.6H351v-5.4
			c0-1.5-0.6-2.8-2.2-2.8c-1.1,0-2,0.8-2.3,1.7c-0.1,0.2-0.1,0.5-0.1,0.8v5.6h-1.7L344.7,992.7L344.7,992.7z"/>
		<path class="st8" d="M365.1,999.6c0-0.6,0.1-1.6,0.1-2.4v-11.4h1.7v5.9l0,0c0.6-1,1.7-1.7,3.2-1.7c2.3,0,4,1.9,4,4.8
			c0,3.4-2.1,5-4.2,5c-1.4,0-2.4-0.5-3.1-1.8h-0.1l-0.1,1.6L365.1,999.6L365.1,999.6z M366.9,995.8c0,0.2,0,0.4,0.1,0.6
			c0.3,1.2,1.3,2,2.6,2c1.8,0,2.9-1.5,2.9-3.6c0-1.9-1-3.5-2.8-3.5c-1.2,0-2.3,0.8-2.6,2.1c0,0.2-0.1,0.4-0.1,0.7v1.7H366.9z"/>
		<path class="st8" d="M381.4,999.6l-0.1-1.2h-0.1c-0.5,0.7-1.5,1.4-2.9,1.4c-1.9,0-2.9-1.3-2.9-2.7c0-2.3,2-3.5,5.6-3.5v-0.2
			c0-0.8-0.2-2.2-2.1-2.2c-0.9,0-1.8,0.3-2.4,0.7l-0.4-1.1c0.8-0.5,1.9-0.8,3.1-0.8c2.9,0,3.6,2,3.6,3.8v3.5c0,0.8,0,1.6,0.2,2.3
			H381.4z M381.2,994.8c-1.9,0-4,0.3-4,2.1c0,1.1,0.7,1.6,1.6,1.6c1.2,0,2-0.8,2.3-1.6c0.1-0.2,0.1-0.4,0.1-0.5V994.8z"/>
		<path class="st8" d="M385.3,997.8c0.5,0.3,1.4,0.7,2.3,0.7c1.2,0,1.8-0.6,1.8-1.4c0-0.8-0.5-1.3-1.7-1.7c-1.7-0.6-2.5-1.5-2.5-2.7
			c0-1.5,1.2-2.8,3.2-2.8c1,0,1.8,0.3,2.3,0.6l-0.4,1.2c-0.4-0.2-1-0.5-1.9-0.5c-1,0-1.6,0.6-1.6,1.3c0,0.8,0.6,1.1,1.8,1.6
			c1.6,0.6,2.5,1.4,2.5,2.8c0,1.6-1.3,2.8-3.5,2.8c-1,0-2-0.3-2.6-0.6L385.3,997.8z"/>
		<path class="st8" d="M394.2,995.2c0,2.3,1.5,3.3,3.2,3.3c1.2,0,2-0.2,2.6-0.5l0.3,1.2c-0.6,0.3-1.6,0.6-3.1,0.6
			c-2.9,0-4.6-1.9-4.6-4.7s1.7-5.1,4.4-5.1c3.1,0,3.9,2.7,3.9,4.4c0,0.3,0,0.6-0.1,0.8H394.2z M399.2,994c0-1.1-0.4-2.8-2.4-2.8
			c-1.7,0-2.5,1.6-2.6,2.8H399.2z"/>
		<path class="st8" d="M417.9,999.6l-0.1-1.2h-0.1c-0.5,0.7-1.5,1.4-2.9,1.4c-1.9,0-2.9-1.3-2.9-2.7c0-2.3,2-3.5,5.6-3.5v-0.2
			c0-0.8-0.2-2.2-2.1-2.2c-0.9,0-1.8,0.3-2.4,0.7l-0.4-1.1c0.8-0.5,1.9-0.8,3.1-0.8c2.9,0,3.6,2,3.6,3.8v3.5c0,0.8,0,1.6,0.2,2.3
			H417.9z M417.6,994.8c-1.9,0-4,0.3-4,2.1c0,1.1,0.7,1.6,1.6,1.6c1.2,0,2-0.8,2.3-1.6c0.1-0.2,0.1-0.4,0.1-0.5V994.8z"/>
		<path class="st8" d="M439.8,985.8v11.4c0,0.8,0,1.8,0.1,2.4h-1.5l-0.1-1.6l0,0c-0.5,1-1.7,1.8-3.2,1.8c-2.3,0-4-1.9-4-4.8
			c0-3.1,1.9-5,4.2-5c1.4,0,2.4,0.7,2.8,1.4l0,0v-5.6L439.8,985.8L439.8,985.8z M438.1,994c0-0.2,0-0.5-0.1-0.7
			c-0.3-1.1-1.2-2-2.5-2c-1.8,0-2.8,1.6-2.8,3.6c0,1.9,0.9,3.5,2.8,3.5c1.1,0,2.2-0.8,2.5-2c0.1-0.2,0.1-0.5,0.1-0.7V994z"/>
		<path class="st8" d="M447.9,999.6l-0.1-1.2h-0.1c-0.5,0.7-1.5,1.4-2.9,1.4c-1.9,0-2.9-1.3-2.9-2.7c0-2.3,2-3.5,5.6-3.5v-0.2
			c0-0.8-0.2-2.2-2.1-2.2c-0.9,0-1.8,0.3-2.4,0.7l-0.4-1.1c0.8-0.5,1.9-0.8,3.1-0.8c2.9,0,3.6,2,3.6,3.8v3.5c0,0.8,0,1.6,0.2,2.3
			H447.9z M447.6,994.8c-1.9,0-4,0.3-4,2.1c0,1.1,0.7,1.6,1.6,1.6c1.2,0,2-0.8,2.3-1.6c0.1-0.2,0.1-0.4,0.1-0.5V994.8z"/>
		<path class="st8" d="M460.1,985.8v11.4c0,0.8,0,1.8,0.1,2.4h-1.5l-0.1-1.6l0,0c-0.5,1-1.7,1.8-3.2,1.8c-2.3,0-4-1.9-4-4.8
			c0-3.1,1.9-5,4.2-5c1.4,0,2.4,0.7,2.8,1.4l0,0v-5.6L460.1,985.8L460.1,985.8z M458.4,994c0-0.2,0-0.5-0.1-0.7
			c-0.3-1.1-1.2-2-2.5-2c-1.8,0-2.8,1.6-2.8,3.6c0,1.9,0.9,3.5,2.8,3.5c1.1,0,2.2-0.8,2.5-2c0.1-0.2,0.1-0.5,0.1-0.7V994z"/>
		<path class="st8" d="M463.9,995.2c0,2.3,1.5,3.3,3.2,3.3c1.2,0,2-0.2,2.6-0.5l0.3,1.2c-0.6,0.3-1.6,0.6-3.1,0.6
			c-2.9,0-4.6-1.9-4.6-4.7s1.7-5.1,4.4-5.1c3.1,0,3.9,2.7,3.9,4.4c0,0.3,0,0.6-0.1,0.8H463.9z M468.9,994c0-1.1-0.4-2.8-2.4-2.8
			c-1.7,0-2.5,1.6-2.6,2.8H468.9z"/>
		<path class="st8" d="M472.5,997.8c0.5,0.3,1.4,0.7,2.3,0.7c1.2,0,1.8-0.6,1.8-1.4c0-0.8-0.5-1.3-1.7-1.7c-1.7-0.6-2.5-1.5-2.5-2.7
			c0-1.5,1.2-2.8,3.2-2.8c1,0,1.8,0.3,2.3,0.6l-0.4,1.2c-0.4-0.2-1-0.5-1.9-0.5c-1,0-1.6,0.6-1.6,1.3c0,0.8,0.6,1.1,1.8,1.6
			c1.6,0.6,2.5,1.4,2.5,2.8c0,1.6-1.3,2.8-3.5,2.8c-1,0-2-0.3-2.6-0.6L472.5,997.8z"/>
		<path class="st8" d="M498.2,985.8v11.4c0,0.8,0,1.8,0.1,2.4h-1.5l-0.1-1.6l0,0c-0.5,1-1.7,1.8-3.2,1.8c-2.3,0-4-1.9-4-4.8
			c0-3.1,1.9-5,4.2-5c1.4,0,2.4,0.7,2.8,1.4l0,0v-5.6L498.2,985.8L498.2,985.8z M496.5,994c0-0.2,0-0.5-0.1-0.7
			c-0.3-1.1-1.2-2-2.5-2c-1.8,0-2.8,1.6-2.8,3.6c0,1.9,0.9,3.5,2.8,3.5c1.1,0,2.2-0.8,2.5-2c0.1-0.2,0.1-0.5,0.1-0.7V994z"/>
		<path class="st8" d="M502,995.2c0,2.3,1.5,3.3,3.2,3.3c1.2,0,2-0.2,2.6-0.5l0.3,1.2c-0.6,0.3-1.6,0.6-3.1,0.6
			c-2.9,0-4.6-1.9-4.6-4.7s1.7-5.1,4.4-5.1c3.1,0,3.9,2.7,3.9,4.4c0,0.3,0,0.6-0.1,0.8H502z M507,994c0-1.1-0.4-2.8-2.4-2.8
			c-1.7,0-2.5,1.6-2.6,2.8H507z"/>
		<path class="st8" d="M520.5,985.8h1.7v13.8h-1.7V985.8z"/>
		<path class="st8" d="M526.3,986.3L526,991h-1l-0.3-4.7H526.3z"/>
		<path class="st8" d="M535.5,993.4h-5.1v4.7h5.7v1.4h-7.4v-13.1h7.1v1.4h-5.4v4.1h5.1L535.5,993.4L535.5,993.4z"/>
		<path class="st8" d="M538.2,992.7c0-1,0-1.8-0.1-2.5h1.5l0.1,1.6l0,0c0.5-0.9,1.6-1.8,3.1-1.8c1.3,0,3.3,0.8,3.3,4v5.6h-1.7v-5.4
			c0-1.5-0.6-2.8-2.2-2.8c-1.1,0-2,0.8-2.3,1.7c-0.1,0.2-0.1,0.5-0.1,0.8v5.6h-1.7v-6.8H538.2z"/>
		<path class="st8" d="M555.4,998.1L555.4,998.1c-0.5,0.9-1.6,1.7-3.1,1.7c-2.2,0-4-1.9-4-4.8c0-3.5,2.3-5.1,4.3-5.1
			c1.5,0,2.4,0.7,2.9,1.6l0,0l0.1-1.4h1.6c0,0.8-0.1,1.6-0.1,2.6v10.7h-1.7V998.1z M555.4,994c0-0.2,0-0.5-0.1-0.7
			c-0.3-1-1.2-1.9-2.4-1.9c-1.8,0-2.8,1.5-2.8,3.6c0,1.9,0.9,3.5,2.8,3.5c1.1,0,2.1-0.7,2.4-1.9c0.1-0.2,0.1-0.6,0.1-0.8V994z"/>
		<path class="st8" d="M567.8,997c0,1,0,1.8,0.1,2.6h-1.5l-0.1-1.5l0,0c-0.4,0.8-1.4,1.7-3.1,1.7c-1.5,0-3.2-0.8-3.2-4.1v-5.5h1.7
			v5.2c0,1.8,0.5,3,2.1,3c1.1,0,1.9-0.8,2.3-1.6c0.1-0.3,0.2-0.6,0.2-0.9v-5.8h1.7v6.9H567.8z"/>
		<path class="st8" d="M571.6,995.2c0,2.3,1.5,3.3,3.2,3.3c1.2,0,2-0.2,2.6-0.5l0.3,1.2c-0.6,0.3-1.6,0.6-3.1,0.6
			c-2.9,0-4.6-1.9-4.6-4.7s1.7-5.1,4.4-5.1c3.1,0,3.9,2.7,3.9,4.4c0,0.3,0,0.6-0.1,0.8H571.6z M576.6,994c0-1.1-0.4-2.8-2.4-2.8
			c-1.7,0-2.5,1.6-2.6,2.8H576.6z"/>
		<path class="st8" d="M580.1,997.8c0.5,0.3,1.4,0.7,2.3,0.7c1.2,0,1.8-0.6,1.8-1.4c0-0.8-0.5-1.3-1.7-1.7c-1.7-0.6-2.5-1.5-2.5-2.7
			c0-1.5,1.2-2.8,3.2-2.8c1,0,1.8,0.3,2.3,0.6l-0.4,1.2c-0.4-0.2-1-0.5-1.9-0.5c-1,0-1.6,0.6-1.6,1.3c0,0.8,0.6,1.1,1.8,1.6
			c1.6,0.6,2.5,1.4,2.5,2.8c0,1.6-1.3,2.8-3.5,2.8c-1,0-2-0.3-2.6-0.6L580.1,997.8z"/>
		<path class="st8" d="M590.1,987.5v2.7h2.4v1.3h-2.4v5.1c0,1.2,0.3,1.8,1.3,1.8c0.4,0,0.8-0.1,1-0.1l0.1,1.3
			c-0.3,0.1-0.9,0.2-1.5,0.2c-0.8,0-1.4-0.3-1.8-0.7c-0.5-0.5-0.7-1.3-0.7-2.4v-5.1H587v-1.3h1.5V988L590.1,987.5z"/>
		<path class="st8" d="M599.6,999.6l-0.1-1.2h-0.1c-0.5,0.7-1.5,1.4-2.9,1.4c-1.9,0-2.9-1.3-2.9-2.7c0-2.3,2-3.5,5.6-3.5v-0.2
			c0-0.8-0.2-2.2-2.1-2.2c-0.9,0-1.8,0.3-2.4,0.7l-0.4-1.1c0.8-0.5,1.9-0.8,3.1-0.8c2.9,0,3.6,2,3.6,3.8v3.5c0,0.8,0,1.6,0.2,2.3
			H599.6z M599.4,994.8c-1.9,0-4,0.3-4,2.1c0,1.1,0.7,1.6,1.6,1.6c1.2,0,2-0.8,2.3-1.6c0.1-0.2,0.1-0.4,0.1-0.5L599.4,994.8
			L599.4,994.8z"/>
		<path class="st8" d="M621.6,985.8v11.4c0,0.8,0,1.8,0.1,2.4h-1.5l-0.1-1.6l0,0c-0.5,1-1.7,1.8-3.2,1.8c-2.3,0-4-1.9-4-4.8
			c0-3.1,1.9-5,4.2-5c1.4,0,2.4,0.7,2.8,1.4l0,0v-5.6L621.6,985.8L621.6,985.8z M619.9,994c0-0.2,0-0.5-0.1-0.7
			c-0.3-1.1-1.2-2-2.5-2c-1.8,0-2.8,1.6-2.8,3.6c0,1.9,0.9,3.5,2.8,3.5c1.1,0,2.2-0.8,2.5-2c0.1-0.2,0.1-0.5,0.1-0.7V994z"/>
		<path class="st8" d="M625.7,986.3l-0.3,4.7h-1l-0.3-4.7H625.7z"/>
		<path class="st8" d="M636.6,994.8c0,3.5-2.4,5-4.7,5c-2.5,0-4.5-1.9-4.5-4.8c0-3.1,2.1-5,4.7-5C634.8,990,636.6,991.9,636.6,994.8
			z M629.1,994.9c0,2.1,1.2,3.6,2.9,3.6c1.6,0,2.9-1.5,2.9-3.6c0-1.6-0.8-3.6-2.8-3.6S629.1,993.1,629.1,994.9z"/>
		<path class="st8" d="M645.4,999.2c-0.4,0.2-1.4,0.5-2.7,0.5c-2.8,0-4.7-1.9-4.7-4.8c0-2.9,2-5,5-5c1,0,1.9,0.3,2.4,0.5l-0.4,1.3
			c-0.4-0.2-1-0.4-2-0.4c-2.2,0-3.3,1.6-3.3,3.6c0,2.2,1.4,3.5,3.3,3.5c1,0,1.6-0.3,2.1-0.5L645.4,999.2z"/>
		<path class="st8" d="M655.3,997c0,1,0,1.8,0.1,2.6h-1.5l-0.1-1.5l0,0c-0.4,0.8-1.4,1.7-3.1,1.7c-1.5,0-3.2-0.8-3.2-4.1v-5.5h1.7
			v5.2c0,1.8,0.5,3,2.1,3c1.1,0,1.9-0.8,2.3-1.6c0.1-0.3,0.2-0.6,0.2-0.9v-5.8h1.7v6.9H655.3z"/>
		<path class="st8" d="M658.1,993.3c0-1.2,0-2.2-0.1-3.1h1.5l0.1,1.6l0,0c0.7-1.1,1.8-1.8,3.3-1.8c2.3,0,4,1.9,4,4.8
			c0,3.4-2.1,5-4.3,5c-1.2,0-2.3-0.5-2.9-1.5l0,0v5.1H658v-10.1H658.1z M659.8,995.8c0,0.3,0,0.5,0.1,0.7c0.3,1.2,1.3,2,2.6,2
			c1.8,0,2.9-1.5,2.9-3.6c0-1.9-1-3.5-2.8-3.5c-1.2,0-2.3,0.8-2.6,2.1c-0.1,0.2-0.1,0.5-0.1,0.7v1.6H659.8z"/>
		<path class="st8" d="M674.4,999.6l-0.1-1.2h-0.1c-0.5,0.7-1.5,1.4-2.9,1.4c-1.9,0-2.9-1.3-2.9-2.7c0-2.3,2-3.5,5.6-3.5v-0.2
			c0-0.8-0.2-2.2-2.1-2.2c-0.9,0-1.8,0.3-2.4,0.7l-0.4-1.1c0.8-0.5,1.9-0.8,3.1-0.8c2.9,0,3.6,2,3.6,3.8v3.5c0,0.8,0,1.6,0.2,2.3
			H674.4z M674.1,994.8c-1.9,0-4,0.3-4,2.1c0,1.1,0.7,1.6,1.6,1.6c1.2,0,2-0.8,2.3-1.6c0.1-0.2,0.1-0.4,0.1-0.5L674.1,994.8
			L674.1,994.8z"/>
		<path class="st8" d="M685.2,999.2c-0.4,0.2-1.4,0.5-2.7,0.5c-2.8,0-4.7-1.9-4.7-4.8c0-2.9,2-5,5-5c1,0,1.9,0.3,2.4,0.5l-0.4,1.3
			c-0.4-0.2-1-0.4-2-0.4c-2.2,0-3.3,1.6-3.3,3.6c0,2.2,1.4,3.5,3.3,3.5c1,0,1.6-0.3,2.1-0.5L685.2,999.2z"/>
		<path class="st8" d="M689.1,987.5c0,0.6-0.4,1-1.1,1c-0.6,0-1-0.5-1-1c0-0.6,0.4-1.1,1.1-1.1C688.7,986.5,689.1,986.9,689.1,987.5
			z M687.2,999.6v-9.4h1.7v9.4H687.2z"/>
		<path class="st8" d="M700.3,994.8c0,3.5-2.4,5-4.7,5c-2.5,0-4.5-1.9-4.5-4.8c0-3.1,2.1-5,4.7-5S700.3,991.9,700.3,994.8z
			 M692.8,994.9c0,2.1,1.2,3.6,2.9,3.6c1.6,0,2.9-1.5,2.9-3.6c0-1.6-0.8-3.6-2.8-3.6C693.7,991.3,692.8,993.1,692.8,994.9z
			 M698.2,986.1l-2.4,2.8h-1.2l1.7-2.8H698.2z"/>
		<path class="st8" d="M713.1,995.2c0,2.3,1.5,3.3,3.2,3.3c1.2,0,2-0.2,2.6-0.5l0.3,1.2c-0.6,0.3-1.6,0.6-3.1,0.6
			c-2.9,0-4.6-1.9-4.6-4.7s1.7-5.1,4.4-5.1c3.1,0,3.9,2.7,3.9,4.4c0,0.3,0,0.6-0.1,0.8H713.1z M718.1,994c0-1.1-0.4-2.8-2.4-2.8
			c-1.7,0-2.5,1.6-2.6,2.8H718.1z"/>
		<path class="st8" d="M721.8,992.7c0-1,0-1.8-0.1-2.5h1.5l0.1,1.6l0,0c0.5-0.9,1.6-1.8,3.1-1.8c1.3,0,3.3,0.8,3.3,4v5.6H728v-5.4
			c0-1.5-0.6-2.8-2.2-2.8c-1.1,0-2,0.8-2.3,1.7c-0.1,0.2-0.1,0.5-0.1,0.8v5.6h-1.7v-6.8H721.8z"/>
		<path class="st8" d="M747.5,999.6l-0.1-1.2h-0.1c-0.5,0.7-1.5,1.4-2.9,1.4c-1.9,0-2.9-1.3-2.9-2.7c0-2.3,2-3.5,5.6-3.5v-0.2
			c0-0.8-0.2-2.2-2.1-2.2c-0.9,0-1.8,0.3-2.4,0.7l-0.4-1.1c0.8-0.5,1.9-0.8,3.1-0.8c2.9,0,3.6,2,3.6,3.8v3.5c0,0.8,0,1.6,0.2,2.3
			H747.5z M747.3,994.8c-1.9,0-4,0.3-4,2.1c0,1.1,0.7,1.6,1.6,1.6c1.2,0,2-0.8,2.3-1.6c0.1-0.2,0.1-0.4,0.1-0.5L747.3,994.8
			L747.3,994.8z"/>
		<path class="st8" d="M751.7,985.8h1.7v13.8h-1.7V985.8z"/>
		<path class="st8" d="M756.2,985.8h1.7v13.8h-1.7V985.8z"/>
		<path class="st8" d="M769.3,994.8c0,3.5-2.4,5-4.7,5c-2.5,0-4.5-1.9-4.5-4.8c0-3.1,2.1-5,4.7-5C767.5,990,769.3,991.9,769.3,994.8
			z M761.9,994.9c0,2.1,1.2,3.6,2.9,3.6c1.6,0,2.9-1.5,2.9-3.6c0-1.6-0.8-3.6-2.8-3.6C762.8,991.3,761.9,993.1,761.9,994.9z"/>
		<path class="st8" d="M773.5,987.5v2.7h2.4v1.3h-2.4v5.1c0,1.2,0.3,1.8,1.3,1.8c0.4,0,0.8-0.1,1-0.1l0.1,1.3
			c-0.3,0.1-0.9,0.2-1.5,0.2c-0.8,0-1.4-0.3-1.8-0.7c-0.5-0.5-0.7-1.3-0.7-2.4v-5.1h-1.5v-1.3h1.5V988L773.5,987.5z"/>
		<path class="st8" d="M775.6,1002.3c0.8-0.1,1.5-0.3,1.9-0.7c0.5-0.5,0.6-1.3,0.6-3.5v-7.9h1.7v8.5c0,1.8-0.3,3-1.1,3.9
			c-0.8,0.8-2,1.1-2.9,1.1L775.6,1002.3z M780,987.5c0,0.6-0.4,1-1.1,1c-0.6,0-1-0.5-1-1c0-0.6,0.4-1.1,1.1-1.1
			C779.6,986.5,780,986.9,780,987.5z"/>
		<path class="st8" d="M787.8,999.6l-0.1-1.2h-0.1c-0.5,0.7-1.5,1.4-2.9,1.4c-1.9,0-2.9-1.3-2.9-2.7c0-2.3,2-3.5,5.6-3.5v-0.2
			c0-0.8-0.2-2.2-2.1-2.2c-0.9,0-1.8,0.3-2.4,0.7l-0.4-1.1c0.8-0.5,1.9-0.8,3.1-0.8c2.9,0,3.6,2,3.6,3.8v3.5c0,0.8,0,1.6,0.2,2.3
			H787.8z M787.6,994.8c-1.9,0-4,0.3-4,2.1c0,1.1,0.7,1.6,1.6,1.6c1.2,0,2-0.8,2.3-1.6c0.1-0.2,0.1-0.4,0.1-0.5L787.6,994.8
			L787.6,994.8z"/>
		<path class="st8" d="M792,992.7c0-1,0-1.8-0.1-2.5h1.5l0.1,1.5h0.1c0.5-0.9,1.4-1.7,3-1.7c1.3,0,2.3,0.8,2.7,1.9l0,0
			c0.3-0.5,0.7-0.9,1-1.2c0.6-0.4,1.2-0.7,2.1-0.7c1.2,0,3.1,0.8,3.1,4.1v5.5h-1.7v-5.3c0-1.8-0.7-2.9-2-2.9c-1,0-1.7,0.7-2,1.6
			c-0.1,0.2-0.1,0.5-0.1,0.9v5.8H798v-5.6c0-1.5-0.7-2.6-2-2.6c-1.1,0-1.8,0.9-2.1,1.7c-0.1,0.3-0.1,0.5-0.1,0.8v5.7H792V992.7z"/>
		<path class="st8" d="M809.1,995.2c0,2.3,1.5,3.3,3.2,3.3c1.2,0,2-0.2,2.6-0.5l0.3,1.2c-0.6,0.3-1.6,0.6-3.1,0.6
			c-2.9,0-4.6-1.9-4.6-4.7s1.7-5.1,4.4-5.1c3.1,0,3.9,2.7,3.9,4.4c0,0.3,0,0.6-0.1,0.8H809.1z M814.1,994c0-1.1-0.4-2.8-2.4-2.8
			c-1.7,0-2.5,1.6-2.6,2.8H814.1z"/>
		<path class="st8" d="M817.9,992.7c0-1,0-1.8-0.1-2.5h1.5l0.1,1.6l0,0c0.5-0.9,1.6-1.8,3.1-1.8c1.3,0,3.3,0.8,3.3,4v5.6h-1.7v-5.4
			c0-1.5-0.6-2.8-2.2-2.8c-1.1,0-2,0.8-2.3,1.7c-0.1,0.2-0.1,0.5-0.1,0.8v5.6h-1.7v-6.8H817.9z"/>
		<path class="st8" d="M830.7,987.5v2.7h2.4v1.3h-2.4v5.1c0,1.2,0.3,1.8,1.3,1.8c0.4,0,0.8-0.1,1-0.1l0.1,1.3
			c-0.3,0.1-0.9,0.2-1.5,0.2c-0.8,0-1.4-0.3-1.8-0.7c-0.5-0.5-0.7-1.3-0.7-2.4v-5.1h-1.5v-1.3h1.5V988L830.7,987.5z"/>
		<path class="st8" d="M834.8,997.8c0.5,0.3,1.4,0.7,2.3,0.7c1.2,0,1.8-0.6,1.8-1.4c0-0.8-0.5-1.3-1.7-1.7c-1.7-0.6-2.5-1.5-2.5-2.7
			c0-1.5,1.2-2.8,3.2-2.8c1,0,1.8,0.3,2.3,0.6l-0.4,1.2c-0.4-0.2-1-0.5-1.9-0.5c-1,0-1.6,0.6-1.6,1.3c0,0.8,0.6,1.1,1.8,1.6
			c1.6,0.6,2.5,1.4,2.5,2.8c0,1.6-1.3,2.8-3.5,2.8c-1,0-2-0.3-2.6-0.6L834.8,997.8z"/>
		<path class="st8" d="M860.6,985.8v11.4c0,0.8,0,1.8,0.1,2.4h-1.5l-0.1-1.6l0,0c-0.5,1-1.7,1.8-3.2,1.8c-2.3,0-4-1.9-4-4.8
			c0-3.1,1.9-5,4.2-5c1.4,0,2.4,0.7,2.8,1.4l0,0v-5.6L860.6,985.8L860.6,985.8z M858.9,994c0-0.2,0-0.5-0.1-0.7
			c-0.3-1.1-1.2-2-2.5-2c-1.8,0-2.8,1.6-2.8,3.6c0,1.9,0.9,3.5,2.8,3.5c1.1,0,2.2-0.8,2.5-2c0.1-0.2,0.1-0.5,0.1-0.7V994z"/>
		<path class="st8" d="M864.4,995.2c0,2.3,1.5,3.3,3.2,3.3c1.2,0,2-0.2,2.6-0.5l0.3,1.2c-0.6,0.3-1.6,0.6-3.1,0.6
			c-2.9,0-4.6-1.9-4.6-4.7s1.7-5.1,4.4-5.1c3.1,0,3.9,2.7,3.9,4.4c0,0.3,0,0.6-0.1,0.8H864.4z M869.4,994c0-1.1-0.4-2.8-2.4-2.8
			c-1.7,0-2.5,1.6-2.6,2.8H869.4z"/>
		<path class="st8" d="M882.8,985.8h1.7v13.8h-1.7V985.8z"/>
		<path class="st8" d="M888.7,986.3l-0.3,4.7h-1l-0.3-4.7H888.7z"/>
		<path class="st8" d="M892.8,986.5v13.1h-1.7v-13.1H892.8z"/>
		<path class="st8" d="M895.8,999.6v-13.1h1.8l4.2,6.6c1,1.5,1.7,2.9,2.3,4.3l0,0c-0.2-1.7-0.2-3.3-0.2-5.4v-5.5h1.6v13.1h-1.7
			l-4.2-6.6c-0.9-1.5-1.8-3-2.4-4.4h-0.1c0.1,1.6,0.1,3.2,0.1,5.4v5.6L895.8,999.6L895.8,999.6z"/>
		<path class="st8" d="M915.3,993.4h-5.1v4.7h5.7v1.4h-7.4v-13.1h7.1v1.4h-5.4v4.1h5.1L915.3,993.4L915.3,993.4z"/>
		<path class="st8" d="M918.3,998c0.2-0.2,0.5-0.3,0.7-0.3s0.5,0.1,0.7,0.3s0.3,0.5,0.3,0.7c0,0.3-0.1,0.5-0.3,0.8
			c-0.2,0.2-0.5,0.3-0.7,0.3c-0.3,0-0.5-0.1-0.7-0.3s-0.3-0.5-0.3-0.7C918,998.5,918.1,998.3,918.3,998z"/>
	</g>
</g>
<text transform="matrix(1 0 0 1 595.0679 593.2967)" class="st9 st10 st11">Estrangers</text>
<text transform="matrix(1 0 0 1 595.0679 629.5829)" class="st9 st10 st11">Domèstics</text>
<path class="st12" d="M736.4,612.8h32.3c5.8,0,10.4,4.7,10.4,10.4l0,0c0,5.8-4.7,10.4-10.4,10.4h-32.3c-5.8,0-10.4-4.7-10.4-10.4
	l0,0C726,617.5,730.7,612.8,736.4,612.8z"/>
<path class="st9" d="M735.6,578.2h32.3c5.8,0,10.4,4.7,10.4,10.4l0,0c0,5.8-4.7,10.4-10.4,10.4h-32.3c-5.8,0-10.4-4.7-10.4-10.4l0,0
	C725.2,582.9,729.8,578.2,735.6,578.2z"/>
<rect x="121" y="372.7" class="st13" width="1154" height="110"/>
<rect x="93" y="390.3" class="st0" width="184.9" height="129.6"/>
<text transform="matrix(1 0 0 1 130.1182 416.9676)" class="st2 st14 st15">-82,6%</text>
<text transform="matrix(1 0 0 1 136.4182 446.9676)" class="st16 st14 st17">Viatgers</text>
<text transform="matrix(1 0 0 1 130.7182 488.9676)" class="st2 st14 st15">44.945</text>
<rect x="529" y="390.6" class="st0" width="314" height="129.6"/>
<text transform="matrix(1 0 0 1 630.6458 417.2767)" class="st2 st14 st15">-78,9%</text>
<text transform="matrix(1 0 0 1 600.4458 447.2767)" class="st16 st14 st17">Pernoctacions</text>
<text transform="matrix(1 0 0 1 621.2458 489.2767)" class="st2 st14 st15">107.985</text>
<rect x="1023.1" y="390.6" class="st0" width="314" height="129.6"/>
<text transform="matrix(1 0 0 1 1124.7737 417.2768)" class="st2 st14 st15">-59,0%</text>
<text transform="matrix(1 0 0 1 1124.4736 447.2768)" class="st16 st14 st17">Empleats</text>
<text transform="matrix(1 0 0 1 1135.3737 489.2768)" class="st2 st14 st15">2.170</text>
<g transform="translate(10,45.7)">
	<path id="point-0-0" class="st12" d="M356,570c91.7,0,166,74.3,166,166s-74.3,166-166,166s-166-74.3-166-166
		c0-16.7,2.5-33.3,7.5-49.3l103,32c-9.5,30.6,7.6,63.2,38.2,72.7s63.2-7.6,72.7-38.2c9.5-30.6-7.6-63.2-38.2-72.7
		c-5.6-1.7-11.4-2.6-17.3-2.6L356,570L356,570z"/>
	<path id="point-0-1" class="st2" d="M197.5,686.7C219.1,617.3,283.3,570,356,570v107.9c-25.4,0-47.9,16.5-55.5,40.8L197.5,686.7z"
		/>
	<g pointer-events="none" transform="translate(180.13677978515625, 145.17396545410156)">
		<text transform="matrix(1 0 0 1 202.2549 681.1093)" class="st18 st19">79,8%</text>
		<text transform="matrix(1 0 0 1 202.2549 681.1093)" class="st13 st18 st19">79,8%</text>
	</g>
	<g pointer-events="none" transform="translate(104.86322784423828, 42.9260368347168)">
		<text transform="matrix(1 0 0 1 144.6749 602.8953)" class="st18 st19">20,2%</text>
		<text transform="matrix(1 0 0 1 144.6749 602.8953)" class="st13 st18 st19">20,2%</text>
	</g>
</g>
<g transform="translate(519, 45.70000076293945)">
	<path id="point-1-0" class="st12" d="M506.4,573c92,0,166.5,74.5,166.5,166.5S598.4,906,506.4,906s-166.5-74.5-166.5-166.5
		c0-10.8,1.1-21.6,3.1-32.2l106.2,20.9c-6.2,31.6,14.3,62.2,45.9,68.5c31.6,6.2,62.2-14.3,68.5-45.9c6.2-31.6-14.3-62.2-45.9-68.5
		c-3.7-0.7-7.5-1.1-11.3-1.1L506.4,573L506.4,573z"/>
	<path id="point-1-1" class="st2" d="M343.1,707.3c15.4-78,83.8-134.3,163.4-134.3v108.2c-27.8,0-51.8,19.7-57.2,47L343.1,707.3z"/>
	<g pointer-events="none" transform="translate(182.81219482421875, 143.09194946289062)">
		<text transform="matrix(1 0 0 1 354.8323 683.2723)" class="st18 st20">78,1%</text>
		<text transform="matrix(1 0 0 1 354.8323 683.2723)" class="st13 st18 st20">78,1%</text>
	</g>
	<g pointer-events="none" transform="translate(102.18780517578125, 45.0080451965332)">
		<text transform="matrix(1 0 0 1 292.7243 607.7156)" class="st18 st20">21,9%</text>
		<text transform="matrix(1 0 0 1 292.7243 607.7156)" class="st13 st18 st20">21,9%</text>
	</g>
</g>
<rect x="545.8" y="62.9" class="st0" width="324.9" height="107.1"/>
<text transform="matrix(1 0 0 1 545.7681 125.9994)" class="st2 st14 st21">Síntesi</text>
</svg>
