<?xml version="1.0" encoding="utf-8"?>
<!-- Generator: Adobe Illustrator 24.0.1, SVG Export Plug-In . SVG Version: 6.00 Build 0)  -->
<svg version="1.1" id="graphic" xmlns="http://www.w3.org/2000/svg" xmlns:xlink="http://www.w3.org/1999/xlink" x="0px" y="0px"
	 viewBox="0 0 538.4 567.5" style="enable-background:new 0 0 538.4 567.5;" xml:space="preserve">
<style type="text/css">
	.st0{enable-background:new    ;}
	.st1{fill:#6685A3;}
	.st2{fill:#003366;}
	.st3{font-family:'OpenSans-SemiBold';}
	.st4{font-size:9.76px;}
	.st5{fill:#44698E;}
	.st6{fill:#E3F1F3;}
	.st7{fill:#E0F3F4;}
	.st8{fill:#E5F8F8;}
	.st9{fill:#E9F9F9;}
	.st10{fill:#CBF4F4;}
	.st11{fill:#40668C;}
	.st12{fill:#FFFFFF;}
	.st13{font-family:'OpenSans-Light';}
	.st14{font-size:7.81px;}
	.st15{fill:#00CCCC;}
	.st16{fill:#66E0E0;}
	.st17{fill:#0DCECE;}
	.st18{fill:none;}
	.st19{fill:#6684A2;}
	.st20{fill:#11CECE;}
	.st21{fill:#E7EFF3;}
	.st22{fill:#ECF8F9;}
	.st23{fill:#E6F9F9;}
</style>
<g>
	<g class="st0">
		<path class="st1" d="M9.4,556.8h3.3v0.7h-2.5v2h2.3v0.6h-2.3v2.7H9.4V556.8z"/>
		<path class="st1" d="M17.7,560.6c0,1.6-1.1,2.3-2.2,2.3c-1.2,0-2.1-0.9-2.1-2.2c0-1.5,1-2.3,2.2-2.3
			C16.9,558.4,17.7,559.3,17.7,560.6z M14.3,560.7c0,1,0.5,1.7,1.3,1.7c0.8,0,1.3-0.7,1.3-1.7c0-0.7-0.4-1.7-1.3-1.7
			C14.7,559,14.3,559.8,14.3,560.7z"/>
		<path class="st1" d="M18.7,559.7c0-0.5,0-0.8,0-1.2h0.7v0.7l0,0c0.2-0.4,0.7-0.8,1.4-0.8c0.6,0,1.5,0.4,1.5,1.9v2.6h-0.8v-2.5
			c0-0.7-0.3-1.3-1-1.3c-0.5,0-0.9,0.4-1.1,0.8c0,0.1-0.1,0.2-0.1,0.4v2.6h-0.8v-3.2H18.7z"/>
		<path class="st1" d="M24.7,557.2v1.3h1.1v0.6h-1.1v2.3c0,0.5,0.2,0.8,0.6,0.8c0.2,0,0.4,0,0.5-0.1v0.6c-0.2,0.1-0.4,0.1-0.7,0.1
			c-0.4,0-0.7-0.1-0.9-0.3c-0.2-0.2-0.3-0.6-0.3-1.1V559h-0.7v-0.6h0.7v-1L24.7,557.2z"/>
		<path class="st1" d="M27,562.1c0.1-0.1,0.2-0.1,0.3-0.1s0.2,0,0.3,0.1c0.1,0.1,0.1,0.2,0.1,0.3s0,0.3-0.1,0.4
			c-0.1,0.1-0.2,0.1-0.3,0.1c-0.1,0-0.2,0-0.3-0.1c-0.1-0.1-0.1-0.2-0.1-0.3C26.8,562.3,26.9,562.2,27,562.1z M27.3,558.7
			c0.1,0,0.2,0,0.3,0.1c0.1,0.1,0.1,0.2,0.1,0.3s0,0.2-0.1,0.3s-0.2,0.1-0.3,0.1s-0.2,0-0.3-0.1s-0.1-0.2-0.1-0.3s0-0.2,0.1-0.3
			S27.2,558.7,27.3,558.7z"/>
		<path class="st1" d="M36.9,560h-2.4v2.2h2.6v0.7h-3.4v-6.1H37v0.7h-2.5v1.9h2.4V560z"/>
		<path class="st1" d="M38.1,556.4h0.8v6.4h-0.8V556.4z"/>
		<path class="st1" d="M42.7,562.8l-0.1-0.5l0,0c-0.2,0.3-0.7,0.6-1.3,0.6c-0.9,0-1.3-0.6-1.3-1.3c0-1.1,0.9-1.6,2.6-1.6l0,0
			c0-0.4-0.1-1-1-1c-0.4,0-0.8,0.1-1.1,0.3l-0.2-0.5c0.4-0.2,0.9-0.4,1.4-0.4c1.3,0,1.7,0.9,1.7,1.8v1.6c0,0.4,0,0.7,0.1,1
			L42.7,562.8L42.7,562.8z M42.6,560.6c-0.9,0-1.8,0.1-1.8,1c0,0.5,0.3,0.8,0.7,0.8c0.6,0,0.9-0.4,1.1-0.7c0-0.1,0-0.2,0-0.3V560.6z
			"/>
		<path class="st1" d="M44.6,562.8c0-0.3,0-0.7,0-1.1v-5.3h0.8v2.7l0,0c0.3-0.5,0.8-0.8,1.5-0.8c1.1,0,1.8,0.9,1.8,2.2
			c0,1.6-1,2.3-2,2.3c-0.6,0-1.1-0.2-1.5-0.8l0,0v0.7L44.6,562.8L44.6,562.8z M45.4,561.1c0,0.1,0,0.2,0,0.3
			c0.2,0.5,0.6,0.9,1.2,0.9c0.8,0,1.3-0.7,1.3-1.7c0-0.9-0.5-1.6-1.3-1.6c-0.5,0-1,0.4-1.2,1c0,0.1,0,0.2,0,0.3V561.1z"/>
		<path class="st1" d="M53.7,560.6c0,1.6-1.1,2.3-2.2,2.3c-1.2,0-2.1-0.9-2.1-2.2c0-1.5,1-2.3,2.2-2.3
			C52.8,558.4,53.7,559.3,53.7,560.6z M50.2,560.7c0,1,0.5,1.7,1.3,1.7s1.3-0.7,1.3-1.7c0-0.7-0.4-1.7-1.3-1.7
			S50.2,559.8,50.2,560.7z"/>
		<path class="st1" d="M54.7,559.8c0-0.5,0-1,0-1.4h0.7v0.9l0,0c0.2-0.6,0.7-1,1.2-1c0.1,0,0.2,0,0.2,0v0.7c-0.1,0-0.2,0-0.3,0
			c-0.6,0-1,0.4-1.1,1c0,0.1,0,0.2,0,0.4v2.3h-0.8L54.7,559.8L54.7,559.8z"/>
		<path class="st1" d="M60,562.8l-0.1-0.5l0,0c-0.2,0.3-0.7,0.6-1.3,0.6c-0.9,0-1.3-0.6-1.3-1.3c0-1.1,0.9-1.6,2.6-1.6l0,0
			c0-0.4-0.1-1-1-1c-0.4,0-0.8,0.1-1.1,0.3l-0.2-0.5c0.4-0.2,0.9-0.4,1.4-0.4c1.3,0,1.7,0.9,1.7,1.8v1.6c0,0.4,0,0.7,0.1,1L60,562.8
			L60,562.8z M59.9,560.6c-0.9,0-1.8,0.1-1.8,1c0,0.5,0.3,0.8,0.7,0.8c0.6,0,0.9-0.4,1.1-0.7c0-0.1,0-0.2,0-0.3V560.6z"/>
		<path class="st1" d="M65.1,562.7c-0.2,0.1-0.7,0.3-1.3,0.3c-1.3,0-2.2-0.9-2.2-2.2s0.9-2.3,2.3-2.3c0.5,0,0.9,0.1,1.1,0.2
			l-0.2,0.6c-0.2-0.1-0.5-0.2-0.9-0.2c-1,0-1.5,0.7-1.5,1.6c0,1,0.6,1.6,1.5,1.6c0.5,0,0.7-0.1,1-0.2L65.1,562.7z"/>
		<path class="st1" d="M66.9,557.2c0,0.3-0.2,0.5-0.5,0.5s-0.5-0.2-0.5-0.5s0.2-0.5,0.5-0.5C66.7,556.8,66.9,557,66.9,557.2z
			 M66,562.8v-4.4h0.8v4.4H66z"/>
		<path class="st1" d="M72,560.6c0,1.6-1.1,2.3-2.2,2.3c-1.2,0-2.1-0.9-2.1-2.2c0-1.5,1-2.3,2.2-2.3C71.2,558.4,72,559.3,72,560.6z
			 M68.6,560.7c0,1,0.5,1.7,1.3,1.7s1.3-0.7,1.3-1.7c0-0.7-0.4-1.7-1.3-1.7S68.6,559.8,68.6,560.7z M71.1,556.6l-1.1,1.3h-0.6
			l0.8-1.3H71.1z"/>
		<path class="st1" d="M77.5,559.9c0-0.6,0-1,0-1.4h0.7v0.7l0,0c0.3-0.5,0.8-0.8,1.5-0.8c1.1,0,1.8,0.9,1.8,2.2c0,1.6-1,2.3-2,2.3
			c-0.6,0-1.1-0.3-1.3-0.7l0,0v2.4h-0.8v-4.7H77.5z M78.3,561.1c0,0.1,0,0.2,0,0.3c0.1,0.5,0.6,0.9,1.2,0.9c0.8,0,1.3-0.7,1.3-1.7
			c0-0.9-0.5-1.6-1.3-1.6c-0.5,0-1,0.4-1.2,1c0,0.1-0.1,0.2-0.1,0.3L78.3,561.1L78.3,561.1z"/>
		<path class="st1" d="M82.6,559.8c0-0.5,0-1,0-1.4h0.7v0.9l0,0c0.2-0.6,0.7-1,1.2-1c0.1,0,0.2,0,0.2,0v0.7c-0.1,0-0.2,0-0.3,0
			c-0.6,0-1,0.4-1.1,1c0,0.1,0,0.2,0,0.4v2.3h-0.8v-2.9H82.6z"/>
		<path class="st1" d="M89.5,560.6c0,1.6-1.1,2.3-2.2,2.3c-1.2,0-2.1-0.9-2.1-2.2c0-1.5,1-2.3,2.2-2.3
			C88.7,558.4,89.5,559.3,89.5,560.6z M86.1,560.7c0,1,0.5,1.7,1.3,1.7s1.3-0.7,1.3-1.7c0-0.7-0.4-1.7-1.3-1.7
			S86.1,559.8,86.1,560.7z M87.1,556.6l0.8,1.3h-0.6l-1.1-1.3H87.1z"/>
		<path class="st1" d="M90.5,559.9c0-0.6,0-1,0-1.4h0.7v0.7l0,0c0.3-0.5,0.8-0.8,1.5-0.8c1.1,0,1.8,0.9,1.8,2.2c0,1.6-1,2.3-2,2.3
			c-0.6,0-1.1-0.3-1.3-0.7l0,0v2.4h-0.8v-4.7H90.5z M91.3,561.1c0,0.1,0,0.2,0,0.3c0.1,0.5,0.6,0.9,1.2,0.9c0.8,0,1.3-0.7,1.3-1.7
			c0-0.9-0.5-1.6-1.3-1.6c-0.5,0-1,0.4-1.2,1c0,0.1-0.1,0.2-0.1,0.3L91.3,561.1L91.3,561.1z"/>
		<path class="st1" d="M96.5,557.2c0,0.3-0.2,0.5-0.5,0.5s-0.5-0.2-0.5-0.5s0.2-0.5,0.5-0.5C96.3,556.8,96.5,557,96.5,557.2z
			 M95.7,562.8v-4.4h0.8v4.4H95.7z"/>
		<path class="st1" d="M100.2,562.8l-0.1-0.5l0,0c-0.2,0.3-0.7,0.6-1.3,0.6c-0.9,0-1.3-0.6-1.3-1.3c0-1.1,0.9-1.6,2.6-1.6l0,0
			c0-0.4-0.1-1-1-1c-0.4,0-0.8,0.1-1.1,0.3l-0.2-0.5c0.4-0.2,0.9-0.4,1.4-0.4c1.3,0,1.7,0.9,1.7,1.8v1.6c0,0.4,0,0.7,0.1,1
			L100.2,562.8L100.2,562.8z M100.1,560.6c-0.9,0-1.8,0.1-1.8,1c0,0.5,0.3,0.8,0.7,0.8c0.6,0,0.9-0.4,1.1-0.7c0-0.1,0-0.2,0-0.3
			C100.1,561.4,100.1,560.6,100.1,560.6z"/>
		<path class="st1" d="M110.4,556.4v5.3c0,0.4,0,0.8,0,1.1h-0.7V562l0,0c-0.2,0.5-0.8,0.9-1.5,0.9c-1.1,0-1.9-0.9-1.9-2.2
			c0-1.5,0.9-2.3,2-2.3c0.7,0,1.1,0.3,1.3,0.7l0,0v-2.6h0.8C110.4,556.5,110.4,556.4,110.4,556.4z M109.6,560.2c0-0.1,0-0.2,0-0.3
			c-0.1-0.5-0.5-0.9-1.1-0.9c-0.8,0-1.3,0.7-1.3,1.7c0,0.9,0.4,1.6,1.3,1.6c0.5,0,1-0.4,1.2-0.9c0-0.1,0-0.2,0-0.3L109.6,560.2
			L109.6,560.2z"/>
		<path class="st1" d="M112.1,560.8c0,1.1,0.7,1.5,1.5,1.5c0.6,0,0.9-0.1,1.2-0.2l0.1,0.6c-0.3,0.1-0.8,0.3-1.4,0.3
			c-1.3,0-2.1-0.9-2.1-2.2s0.8-2.3,2-2.3c1.4,0,1.8,1.3,1.8,2.1c0,0.2,0,0.3,0,0.4h-3.1V560.8z M114.4,560.2c0-0.5-0.2-1.3-1.1-1.3
			c-0.8,0-1.2,0.7-1.2,1.3H114.4z"/>
		<path class="st1" d="M116.2,556.4h0.8v6.4h-0.8V556.4z"/>
		<path class="st1" d="M122.8,556.8h0.8v5.4h2.6v0.7h-3.4V556.8z"/>
		<path class="st1" d="M128.1,560.9l-0.6,1.9h-0.8l2.1-6.1h0.9l2.1,6.1H131l-0.6-1.9H128.1z M130.1,560.3l-0.6-1.7
			c-0.1-0.4-0.2-0.8-0.3-1.1l0,0c-0.1,0.4-0.2,0.7-0.3,1.1l-0.6,1.8L130.1,560.3L130.1,560.3z"/>
		<path class="st1" d="M132.6,556.8c0.3-0.1,0.9-0.1,1.4-0.1c0.8,0,1.3,0.1,1.7,0.4c0.3,0.2,0.5,0.6,0.5,1.1c0,0.6-0.4,1.1-1,1.3
			l0,0c0.6,0.1,1.3,0.6,1.3,1.5c0,0.5-0.2,0.9-0.5,1.2c-0.4,0.4-1.1,0.6-2.1,0.6c-0.5,0-1,0-1.2-0.1L132.6,556.8L132.6,556.8z
			 M133.4,559.3h0.7c0.8,0,1.3-0.4,1.3-1c0-0.7-0.5-1-1.3-1c-0.4,0-0.6,0-0.7,0.1V559.3z M133.4,562.2c0.2,0,0.4,0,0.7,0
			c0.8,0,1.6-0.3,1.6-1.2c0-0.8-0.7-1.2-1.6-1.2h-0.6L133.4,562.2L133.4,562.2z"/>
		<path class="st1" d="M138.4,557.2v1.3h1.1v0.6h-1.1v2.3c0,0.5,0.2,0.8,0.6,0.8c0.2,0,0.4,0,0.5-0.1v0.6c-0.2,0.1-0.4,0.1-0.7,0.1
			c-0.4,0-0.7-0.1-0.9-0.3s-0.3-0.6-0.3-1.1V559h-0.7v-0.6h0.7v-1L138.4,557.2z"/>
		<path class="st1" d="M144.1,561.6c0,0.5,0,0.8,0,1.2h-0.7v-0.7l0,0c-0.2,0.4-0.7,0.8-1.4,0.8s-1.5-0.4-1.5-1.9v-2.5h0.8v2.4
			c0,0.8,0.3,1.4,1,1.4c0.5,0,0.9-0.4,1-0.7c0-0.1,0.1-0.3,0.1-0.4v-2.7h0.8v3.1L144.1,561.6L144.1,561.6z"/>
		<path class="st1" d="M145.4,559.8c0-0.5,0-1,0-1.4h0.7v0.9l0,0c0.2-0.6,0.7-1,1.2-1c0.1,0,0.2,0,0.2,0v0.7c-0.1,0-0.2,0-0.3,0
			c-0.6,0-1,0.4-1.1,1c0,0.1,0,0.2,0,0.4v2.3h-0.8v-2.9H145.4z"/>
		<path class="st1" d="M149.2,557.2c0,0.3-0.2,0.5-0.5,0.5s-0.5-0.2-0.5-0.5s0.2-0.5,0.5-0.5C149,556.8,149.2,557,149.2,557.2z
			 M148.3,562.8v-4.4h0.8v4.4H148.3z"/>
		<path class="st1" d="M150.3,562c0.2,0.2,0.6,0.3,1,0.3c0.6,0,0.8-0.3,0.8-0.6c0-0.4-0.2-0.6-0.8-0.8c-0.8-0.3-1.2-0.7-1.2-1.2
			c0-0.7,0.6-1.3,1.5-1.3c0.4,0,0.8,0.1,1.1,0.3l-0.2,0.6c-0.2-0.1-0.5-0.3-0.9-0.3c-0.5,0-0.7,0.3-0.7,0.6c0,0.4,0.3,0.5,0.8,0.7
			c0.8,0.3,1.1,0.7,1.1,1.3c0,0.8-0.6,1.3-1.6,1.3c-0.5,0-0.9-0.1-1.2-0.3L150.3,562z"/>
		<path class="st1" d="M154,559.7c0-0.5,0-0.8,0-1.2h0.7v0.7l0,0c0.2-0.4,0.6-0.8,1.4-0.8c0.6,0,1,0.4,1.2,0.9l0,0
			c0.1-0.2,0.3-0.4,0.5-0.6c0.3-0.2,0.5-0.3,1-0.3c0.6,0,1.4,0.4,1.4,1.9v2.6h-0.8v-2.5c0-0.8-0.3-1.3-0.9-1.3
			c-0.5,0-0.8,0.3-0.9,0.7c0,0.1-0.1,0.3-0.1,0.4v2.7h-0.8v-2.6c0-0.7-0.3-1.2-0.9-1.2c-0.5,0-0.9,0.4-1,0.8c0,0.1-0.1,0.3-0.1,0.4
			v2.6H154V559.7z"/>
		<path class="st1" d="M161.9,560.8c0,1.1,0.7,1.5,1.5,1.5c0.6,0,0.9-0.1,1.2-0.2l0.1,0.6c-0.3,0.1-0.8,0.3-1.4,0.3
			c-1.3,0-2.1-0.9-2.1-2.2s0.8-2.3,2-2.3c1.4,0,1.8,1.3,1.8,2.1c0,0.2,0,0.3,0,0.4h-3.1V560.8z M164.3,560.2c0-0.5-0.2-1.3-1.1-1.3
			c-0.8,0-1.2,0.7-1.2,1.3H164.3z"/>
		<path class="st1" d="M170.9,560.8c0,1.1,0.7,1.5,1.5,1.5c0.6,0,0.9-0.1,1.2-0.2l0.1,0.6c-0.3,0.1-0.8,0.3-1.4,0.3
			c-1.3,0-2.1-0.9-2.1-2.2s0.8-2.3,2-2.3c1.4,0,1.8,1.3,1.8,2.1c0,0.2,0,0.3,0,0.4h-3.1V560.8z M173.3,560.2c0-0.5-0.2-1.3-1.1-1.3
			c-0.8,0-1.2,0.7-1.2,1.3H173.3z"/>
		<path class="st1" d="M175,559.7c0-0.5,0-0.8,0-1.2h0.7v0.7l0,0c0.2-0.4,0.7-0.8,1.4-0.8c0.6,0,1.5,0.4,1.5,1.9v2.6h-0.8v-2.5
			c0-0.7-0.3-1.3-1-1.3c-0.5,0-0.9,0.4-1.1,0.8c0,0.1-0.1,0.2-0.1,0.4v2.6H175V559.7z"/>
		<path class="st1" d="M184.5,562.8c0-0.3,0-0.7,0-1.1v-5.3h0.8v2.7l0,0c0.3-0.5,0.8-0.8,1.5-0.8c1.1,0,1.8,0.9,1.8,2.2
			c0,1.6-1,2.3-2,2.3c-0.6,0-1.1-0.2-1.5-0.8l0,0v0.7L184.5,562.8L184.5,562.8z M185.3,561.1c0,0.1,0,0.2,0,0.3
			c0.2,0.5,0.6,0.9,1.2,0.9c0.8,0,1.3-0.7,1.3-1.7c0-0.9-0.5-1.6-1.3-1.6c-0.5,0-1,0.4-1.2,1c0,0.1,0,0.2,0,0.3V561.1z"/>
		<path class="st1" d="M192,562.8l-0.1-0.5l0,0c-0.2,0.3-0.7,0.6-1.3,0.6c-0.9,0-1.3-0.6-1.3-1.3c0-1.1,0.9-1.6,2.6-1.6l0,0
			c0-0.4-0.1-1-1-1c-0.4,0-0.8,0.1-1.1,0.3l-0.2-0.5c0.4-0.2,0.9-0.4,1.4-0.4c1.3,0,1.7,0.9,1.7,1.8v1.6c0,0.4,0,0.7,0.1,1
			L192,562.8L192,562.8z M191.9,560.6c-0.9,0-1.8,0.1-1.8,1c0,0.5,0.3,0.8,0.7,0.8c0.6,0,0.9-0.4,1.1-0.7c0-0.1,0-0.2,0-0.3V560.6z"
			/>
		<path class="st1" d="M193.9,562c0.2,0.2,0.6,0.3,1,0.3c0.6,0,0.8-0.3,0.8-0.6c0-0.4-0.2-0.6-0.8-0.8c-0.8-0.3-1.2-0.7-1.2-1.2
			c0-0.7,0.6-1.3,1.5-1.3c0.4,0,0.8,0.1,1.1,0.3l-0.2,0.6c-0.2-0.1-0.5-0.3-0.9-0.3c-0.5,0-0.7,0.3-0.7,0.6c0,0.4,0.3,0.5,0.8,0.7
			c0.8,0.3,1.1,0.7,1.1,1.3c0,0.8-0.6,1.3-1.6,1.3c-0.5,0-0.9-0.1-1.2-0.3L193.9,562z"/>
		<path class="st1" d="M198,560.8c0,1.1,0.7,1.5,1.5,1.5c0.6,0,0.9-0.1,1.2-0.2l0.1,0.6c-0.3,0.1-0.8,0.3-1.4,0.3
			c-1.3,0-2.1-0.9-2.1-2.2s0.8-2.3,2-2.3c1.4,0,1.8,1.3,1.8,2.1c0,0.2,0,0.3,0,0.4H198V560.8z M200.3,560.2c0-0.5-0.2-1.3-1.1-1.3
			c-0.8,0-1.2,0.7-1.2,1.3H200.3z"/>
		<path class="st1" d="M209,562.8l-0.1-0.5l0,0c-0.2,0.3-0.7,0.6-1.3,0.6c-0.9,0-1.3-0.6-1.3-1.3c0-1.1,0.9-1.6,2.6-1.6l0,0
			c0-0.4-0.1-1-1-1c-0.4,0-0.8,0.1-1.1,0.3l-0.2-0.5c0.4-0.2,0.9-0.4,1.4-0.4c1.3,0,1.7,0.9,1.7,1.8v1.6c0,0.4,0,0.7,0.1,1
			L209,562.8L209,562.8z M208.8,560.6c-0.9,0-1.8,0.1-1.8,1c0,0.5,0.3,0.8,0.7,0.8c0.6,0,0.9-0.4,1.1-0.7c0-0.1,0-0.2,0-0.3V560.6z"
			/>
		<path class="st1" d="M219.1,556.4v5.3c0,0.4,0,0.8,0,1.1h-0.7V562l0,0c-0.2,0.5-0.8,0.9-1.5,0.9c-1.1,0-1.9-0.9-1.9-2.2
			c0-1.5,0.9-2.3,2-2.3c0.7,0,1.1,0.3,1.3,0.7l0,0v-2.6h0.8L219.1,556.4L219.1,556.4z M218.3,560.2c0-0.1,0-0.2,0-0.3
			c-0.1-0.5-0.5-0.9-1.1-0.9c-0.8,0-1.3,0.7-1.3,1.7c0,0.9,0.4,1.6,1.3,1.6c0.5,0,1-0.4,1.2-0.9c0-0.1,0-0.2,0-0.3L218.3,560.2
			L218.3,560.2z"/>
		<path class="st1" d="M222.9,562.8l-0.1-0.5l0,0c-0.2,0.3-0.7,0.6-1.3,0.6c-0.9,0-1.3-0.6-1.3-1.3c0-1.1,0.9-1.6,2.6-1.6l0,0
			c0-0.4-0.1-1-1-1c-0.4,0-0.8,0.1-1.1,0.3l-0.2-0.5c0.4-0.2,0.9-0.4,1.4-0.4c1.3,0,1.7,0.9,1.7,1.8v1.6c0,0.4,0,0.7,0.1,1
			L222.9,562.8L222.9,562.8z M222.8,560.6c-0.9,0-1.8,0.1-1.8,1c0,0.5,0.3,0.8,0.7,0.8c0.6,0,0.9-0.4,1.1-0.7c0-0.1,0-0.2,0-0.3
			V560.6z"/>
		<path class="st1" d="M228.6,556.4v5.3c0,0.4,0,0.8,0,1.1h-0.7V562l0,0c-0.2,0.5-0.8,0.9-1.5,0.9c-1.1,0-1.9-0.9-1.9-2.2
			c0-1.5,0.9-2.3,2-2.3c0.7,0,1.1,0.3,1.3,0.7l0,0v-2.6h0.8L228.6,556.4L228.6,556.4z M227.8,560.2c0-0.1,0-0.2,0-0.3
			c-0.1-0.5-0.5-0.9-1.1-0.9c-0.8,0-1.3,0.7-1.3,1.7c0,0.9,0.4,1.6,1.3,1.6c0.5,0,1-0.4,1.2-0.9c0-0.1,0-0.2,0-0.3L227.8,560.2
			L227.8,560.2z"/>
		<path class="st1" d="M230.3,560.8c0,1.1,0.7,1.5,1.5,1.5c0.6,0,0.9-0.1,1.2-0.2l0.1,0.6c-0.3,0.1-0.8,0.3-1.4,0.3
			c-1.3,0-2.1-0.9-2.1-2.2s0.8-2.3,2-2.3c1.4,0,1.8,1.3,1.8,2.1c0,0.2,0,0.3,0,0.4h-3.1V560.8z M232.6,560.2c0-0.5-0.2-1.3-1.1-1.3
			c-0.8,0-1.2,0.7-1.2,1.3H232.6z"/>
		<path class="st1" d="M234.3,562c0.2,0.2,0.6,0.3,1,0.3c0.6,0,0.8-0.3,0.8-0.6c0-0.4-0.2-0.6-0.8-0.8c-0.8-0.3-1.2-0.7-1.2-1.2
			c0-0.7,0.6-1.3,1.5-1.3c0.4,0,0.8,0.1,1.1,0.3l-0.2,0.6c-0.2-0.1-0.5-0.3-0.9-0.3c-0.5,0-0.7,0.3-0.7,0.6c0,0.4,0.3,0.5,0.8,0.7
			c0.8,0.3,1.1,0.7,1.1,1.3c0,0.8-0.6,1.3-1.6,1.3c-0.5,0-0.9-0.1-1.2-0.3L234.3,562z"/>
		<path class="st1" d="M246.2,556.4v5.3c0,0.4,0,0.8,0,1.1h-0.7V562l0,0c-0.2,0.5-0.8,0.9-1.5,0.9c-1.1,0-1.9-0.9-1.9-2.2
			c0-1.5,0.9-2.3,2-2.3c0.7,0,1.1,0.3,1.3,0.7l0,0v-2.6h0.8L246.2,556.4L246.2,556.4z M245.4,560.2c0-0.1,0-0.2,0-0.3
			c-0.1-0.5-0.5-0.9-1.1-0.9c-0.8,0-1.3,0.7-1.3,1.7c0,0.9,0.4,1.6,1.3,1.6c0.5,0,1-0.4,1.2-0.9c0-0.1,0-0.2,0-0.3L245.4,560.2
			L245.4,560.2z"/>
		<path class="st1" d="M248,560.8c0,1.1,0.7,1.5,1.5,1.5c0.6,0,0.9-0.1,1.2-0.2l0.1,0.6c-0.3,0.1-0.8,0.3-1.4,0.3
			c-1.3,0-2.1-0.9-2.1-2.2s0.8-2.3,2-2.3c1.4,0,1.8,1.3,1.8,2.1c0,0.2,0,0.3,0,0.4H248V560.8z M250.3,560.2c0-0.5-0.2-1.3-1.1-1.3
			c-0.8,0-1.2,0.7-1.2,1.3H250.3z"/>
		<path class="st1" d="M256.5,556.4h0.8v6.4h-0.8V556.4z"/>
		<path class="st1" d="M259.2,556.7l-0.2,2.2h-0.5l-0.1-2.2H259.2z"/>
		<path class="st1" d="M263.5,560h-2.4v2.2h2.6v0.7h-3.4v-6.1h3.3v0.7h-2.5v1.9h2.4V560z"/>
		<path class="st1" d="M264.8,559.7c0-0.5,0-0.8,0-1.2h0.7v0.7l0,0c0.2-0.4,0.7-0.8,1.4-0.8c0.6,0,1.5,0.4,1.5,1.9v2.6h-0.8v-2.5
			c0-0.7-0.3-1.3-1-1.3c-0.5,0-0.9,0.4-1.1,0.8c0,0.1-0.1,0.2-0.1,0.4v2.6h-0.8v-3.2H264.8z"/>
		<path class="st1" d="M272.7,562.2L272.7,562.2c-0.3,0.4-0.7,0.8-1.4,0.8c-1,0-1.8-0.9-1.8-2.2c0-1.6,1.1-2.3,2-2.3
			c0.7,0,1.1,0.3,1.3,0.8l0,0v-0.7h0.7c0,0.4,0,0.7,0,1.2v4.9h-0.8L272.7,562.2L272.7,562.2z M272.7,560.2c0-0.1,0-0.2,0-0.3
			c-0.1-0.5-0.5-0.9-1.1-0.9c-0.8,0-1.3,0.7-1.3,1.7c0,0.9,0.4,1.6,1.3,1.6c0.5,0,1-0.3,1.1-0.9c0-0.1,0.1-0.3,0.1-0.4v-0.8
			L272.7,560.2L272.7,560.2z"/>
		<path class="st1" d="M278.5,561.6c0,0.5,0,0.8,0,1.2h-0.7v-0.7l0,0c-0.2,0.4-0.7,0.8-1.4,0.8c-0.7,0-1.5-0.4-1.5-1.9v-2.5h0.8v2.4
			c0,0.8,0.3,1.4,1,1.4c0.5,0,0.9-0.4,1-0.7c0-0.1,0.1-0.3,0.1-0.4v-2.7h0.8L278.5,561.6L278.5,561.6z"/>
		<path class="st1" d="M280.2,560.8c0,1.1,0.7,1.5,1.5,1.5c0.6,0,0.9-0.1,1.2-0.2l0.1,0.6c-0.3,0.1-0.8,0.3-1.4,0.3
			c-1.3,0-2.1-0.9-2.1-2.2s0.8-2.3,2-2.3c1.4,0,1.8,1.3,1.8,2.1c0,0.2,0,0.3,0,0.4h-3.1V560.8z M282.6,560.2c0-0.5-0.2-1.3-1.1-1.3
			c-0.8,0-1.2,0.7-1.2,1.3H282.6z"/>
		<path class="st1" d="M284.2,562c0.2,0.2,0.6,0.3,1,0.3c0.6,0,0.8-0.3,0.8-0.6c0-0.4-0.2-0.6-0.8-0.8c-0.8-0.3-1.2-0.7-1.2-1.2
			c0-0.7,0.6-1.3,1.5-1.3c0.4,0,0.8,0.1,1.1,0.3l-0.2,0.6c-0.2-0.1-0.5-0.3-0.9-0.3c-0.5,0-0.7,0.3-0.7,0.6c0,0.4,0.3,0.5,0.8,0.7
			c0.8,0.3,1.1,0.7,1.1,1.3c0,0.8-0.6,1.3-1.6,1.3c-0.5,0-0.9-0.1-1.2-0.3L284.2,562z"/>
		<path class="st1" d="M288.8,557.2v1.3h1.1v0.6h-1.1v2.3c0,0.5,0.2,0.8,0.6,0.8c0.2,0,0.4,0,0.5-0.1v0.6c-0.2,0.1-0.4,0.1-0.7,0.1
			c-0.4,0-0.7-0.1-0.9-0.3c-0.2-0.2-0.3-0.6-0.3-1.1V559h-0.7v-0.6h0.7v-1L288.8,557.2z"/>
		<path class="st1" d="M293.3,562.8l-0.1-0.5l0,0c-0.2,0.3-0.7,0.6-1.3,0.6c-0.9,0-1.3-0.6-1.3-1.3c0-1.1,0.9-1.6,2.6-1.6l0,0
			c0-0.4-0.1-1-1-1c-0.4,0-0.8,0.1-1.1,0.3l-0.2-0.5c0.4-0.2,0.9-0.4,1.4-0.4c1.3,0,1.7,0.9,1.7,1.8v1.6c0,0.4,0,0.7,0.1,1
			L293.3,562.8L293.3,562.8z M293.1,560.6c-0.9,0-1.8,0.1-1.8,1c0,0.5,0.3,0.8,0.7,0.8c0.6,0,0.9-0.4,1.1-0.7c0-0.1,0-0.2,0-0.3
			L293.1,560.6L293.1,560.6z"/>
		<path class="st1" d="M303.4,556.4v5.3c0,0.4,0,0.8,0,1.1h-0.7V562l0,0c-0.2,0.5-0.8,0.9-1.5,0.9c-1.1,0-1.9-0.9-1.9-2.2
			c0-1.5,0.9-2.3,2-2.3c0.7,0,1.1,0.3,1.3,0.7l0,0v-2.6h0.8L303.4,556.4L303.4,556.4z M302.7,560.2c0-0.1,0-0.2,0-0.3
			c-0.1-0.5-0.5-0.9-1.1-0.9c-0.8,0-1.3,0.7-1.3,1.7c0,0.9,0.4,1.6,1.3,1.6c0.5,0,1-0.4,1.2-0.9c0-0.1,0-0.2,0-0.3v-0.9L302.7,560.2
			L302.7,560.2z"/>
		<path class="st1" d="M305.3,556.7l-0.2,2.2h-0.5l-0.1-2.2H305.3z"/>
		<path class="st1" d="M310.4,560.6c0,1.6-1.1,2.3-2.2,2.3c-1.2,0-2.1-0.9-2.1-2.2c0-1.5,1-2.3,2.2-2.3
			C309.5,558.4,310.4,559.3,310.4,560.6z M306.9,560.7c0,1,0.5,1.7,1.3,1.7s1.3-0.7,1.3-1.7c0-0.7-0.4-1.7-1.3-1.7
			S306.9,559.8,306.9,560.7z"/>
		<path class="st1" d="M314.5,562.7c-0.2,0.1-0.7,0.3-1.3,0.3c-1.3,0-2.2-0.9-2.2-2.2s0.9-2.3,2.3-2.3c0.5,0,0.9,0.1,1.1,0.2
			l-0.2,0.6c-0.2-0.1-0.5-0.2-0.9-0.2c-1,0-1.5,0.7-1.5,1.6c0,1,0.6,1.6,1.5,1.6c0.5,0,0.7-0.1,1-0.2L314.5,562.7z"/>
		<path class="st1" d="M319.1,561.6c0,0.5,0,0.8,0,1.2h-0.7v-0.7l0,0c-0.2,0.4-0.7,0.8-1.4,0.8c-0.7,0-1.5-0.4-1.5-1.9v-2.5h0.8v2.4
			c0,0.8,0.3,1.4,1,1.4c0.5,0,0.9-0.4,1-0.7c0-0.1,0.1-0.3,0.1-0.4v-2.7h0.8L319.1,561.6L319.1,561.6z"/>
		<path class="st1" d="M320.4,559.9c0-0.6,0-1,0-1.4h0.7v0.7l0,0c0.3-0.5,0.8-0.8,1.5-0.8c1.1,0,1.8,0.9,1.8,2.2c0,1.6-1,2.3-2,2.3
			c-0.6,0-1.1-0.3-1.3-0.7l0,0v2.4h-0.8L320.4,559.9L320.4,559.9z M321.2,561.1c0,0.1,0,0.2,0,0.3c0.1,0.5,0.6,0.9,1.2,0.9
			c0.8,0,1.3-0.7,1.3-1.7c0-0.9-0.5-1.6-1.3-1.6c-0.5,0-1,0.4-1.2,1c0,0.1-0.1,0.2-0.1,0.3v0.8H321.2z"/>
		<path class="st1" d="M327.9,562.8l-0.1-0.5l0,0c-0.2,0.3-0.7,0.6-1.3,0.6c-0.9,0-1.3-0.6-1.3-1.3c0-1.1,0.9-1.6,2.6-1.6l0,0
			c0-0.4-0.1-1-1-1c-0.4,0-0.8,0.1-1.1,0.3l-0.2-0.5c0.4-0.2,0.9-0.4,1.4-0.4c1.3,0,1.7,0.9,1.7,1.8v1.6c0,0.4,0,0.7,0.1,1
			L327.9,562.8L327.9,562.8z M327.8,560.6c-0.9,0-1.8,0.1-1.8,1c0,0.5,0.3,0.8,0.7,0.8c0.6,0,0.9-0.4,1.1-0.7c0-0.1,0-0.2,0-0.3
			L327.8,560.6L327.8,560.6z"/>
		<path class="st1" d="M332.9,562.7c-0.2,0.1-0.7,0.3-1.3,0.3c-1.3,0-2.2-0.9-2.2-2.2s0.9-2.3,2.3-2.3c0.5,0,0.9,0.1,1.1,0.2
			l-0.2,0.6c-0.2-0.1-0.5-0.2-0.9-0.2c-1,0-1.5,0.7-1.5,1.6c0,1,0.6,1.6,1.5,1.6c0.5,0,0.7-0.1,1-0.2L332.9,562.7z"/>
		<path class="st1" d="M334.8,557.2c0,0.3-0.2,0.5-0.5,0.5s-0.5-0.2-0.5-0.5s0.2-0.5,0.5-0.5C334.6,556.8,334.8,557,334.8,557.2z
			 M333.9,562.8v-4.4h0.8v4.4H333.9z"/>
		<path class="st1" d="M339.9,560.6c0,1.6-1.1,2.3-2.2,2.3c-1.2,0-2.1-0.9-2.1-2.2c0-1.5,1-2.3,2.2-2.3
			C339.1,558.4,339.9,559.3,339.9,560.6z M336.5,560.7c0,1,0.5,1.7,1.3,1.7s1.3-0.7,1.3-1.7c0-0.7-0.4-1.7-1.3-1.7
			S336.5,559.8,336.5,560.7z M339,556.6l-1.1,1.3h-0.6l0.8-1.3H339z"/>
		<path class="st1" d="M345.9,560.8c0,1.1,0.7,1.5,1.5,1.5c0.6,0,0.9-0.1,1.2-0.2l0.1,0.6c-0.3,0.1-0.8,0.3-1.4,0.3
			c-1.3,0-2.1-0.9-2.1-2.2s0.8-2.3,2-2.3c1.4,0,1.8,1.3,1.8,2.1c0,0.2,0,0.3,0,0.4h-3.1V560.8z M348.2,560.2c0-0.5-0.2-1.3-1.1-1.3
			c-0.8,0-1.2,0.7-1.2,1.3H348.2z"/>
		<path class="st1" d="M349.9,559.7c0-0.5,0-0.8,0-1.2h0.7v0.7l0,0c0.2-0.4,0.7-0.8,1.4-0.8c0.6,0,1.5,0.4,1.5,1.9v2.6h-0.8v-2.5
			c0-0.7-0.3-1.3-1-1.3c-0.5,0-0.9,0.4-1.1,0.8c0,0.1-0.1,0.2-0.1,0.4v2.6h-0.8v-3.2H349.9z"/>
		<path class="st1" d="M361.8,562.8l-0.1-0.5l0,0c-0.2,0.3-0.7,0.6-1.3,0.6c-0.9,0-1.3-0.6-1.3-1.3c0-1.1,0.9-1.6,2.6-1.6l0,0
			c0-0.4-0.1-1-1-1c-0.4,0-0.8,0.1-1.1,0.3l-0.2-0.5c0.4-0.2,0.9-0.4,1.4-0.4c1.3,0,1.7,0.9,1.7,1.8v1.6c0,0.4,0,0.7,0.1,1
			L361.8,562.8L361.8,562.8z M361.7,560.6c-0.9,0-1.8,0.1-1.8,1c0,0.5,0.3,0.8,0.7,0.8c0.6,0,0.9-0.4,1.1-0.7c0-0.1,0-0.2,0-0.3
			L361.7,560.6L361.7,560.6z"/>
		<path class="st1" d="M363.8,556.4h0.8v6.4h-0.8V556.4z"/>
		<path class="st1" d="M365.9,556.4h0.8v6.4h-0.8V556.4z"/>
		<path class="st1" d="M372,560.6c0,1.6-1.1,2.3-2.2,2.3c-1.2,0-2.1-0.9-2.1-2.2c0-1.5,1-2.3,2.2-2.3
			C371.1,558.4,372,559.3,372,560.6z M368.5,560.7c0,1,0.5,1.7,1.3,1.7s1.3-0.7,1.3-1.7c0-0.7-0.4-1.7-1.3-1.7
			S368.5,559.8,368.5,560.7z"/>
		<path class="st1" d="M373.9,557.2v1.3h1.1v0.6h-1.1v2.3c0,0.5,0.2,0.8,0.6,0.8c0.2,0,0.4,0,0.5-0.1v0.6c-0.2,0.1-0.4,0.1-0.7,0.1
			c-0.4,0-0.7-0.1-0.9-0.3c-0.2-0.2-0.3-0.6-0.3-1.1V559h-0.7v-0.6h0.7v-1L373.9,557.2z"/>
		<path class="st1" d="M374.9,564.1c0.4,0,0.7-0.1,0.9-0.3c0.2-0.3,0.3-0.6,0.3-1.6v-3.6h0.8v4c0,0.8-0.1,1.4-0.5,1.8
			c-0.4,0.4-0.9,0.5-1.4,0.5L374.9,564.1z M376.9,557.2c0,0.3-0.2,0.5-0.5,0.5s-0.5-0.2-0.5-0.5s0.2-0.5,0.5-0.5
			C376.7,556.8,376.9,557,376.9,557.2z"/>
		<path class="st1" d="M380.5,562.8l-0.1-0.5l0,0c-0.2,0.3-0.7,0.6-1.3,0.6c-0.9,0-1.3-0.6-1.3-1.3c0-1.1,0.9-1.6,2.6-1.6l0,0
			c0-0.4-0.1-1-1-1c-0.4,0-0.8,0.1-1.1,0.3l-0.2-0.5c0.4-0.2,0.9-0.4,1.4-0.4c1.3,0,1.7,0.9,1.7,1.8v1.6c0,0.4,0,0.7,0.1,1
			L380.5,562.8L380.5,562.8z M380.4,560.6c-0.9,0-1.8,0.1-1.8,1c0,0.5,0.3,0.8,0.7,0.8c0.6,0,0.9-0.4,1.1-0.7c0-0.1,0-0.2,0-0.3
			L380.4,560.6L380.4,560.6z"/>
		<path class="st1" d="M382.5,559.7c0-0.5,0-0.8,0-1.2h0.7v0.7l0,0c0.2-0.4,0.6-0.8,1.4-0.8c0.6,0,1,0.4,1.2,0.9l0,0
			c0.1-0.2,0.3-0.4,0.5-0.6c0.3-0.2,0.5-0.3,1-0.3c0.6,0,1.4,0.4,1.4,1.9v2.6h-0.8v-2.5c0-0.8-0.3-1.3-0.9-1.3
			c-0.5,0-0.8,0.3-0.9,0.7c0,0.1-0.1,0.3-0.1,0.4v2.7h-0.8v-2.6c0-0.7-0.3-1.2-0.9-1.2c-0.5,0-0.9,0.4-1,0.8c0,0.1-0.1,0.3-0.1,0.4
			v2.6h-0.8L382.5,559.7L382.5,559.7z"/>
		<path class="st1" d="M390.4,560.8c0,1.1,0.7,1.5,1.5,1.5c0.6,0,0.9-0.1,1.2-0.2l0.1,0.6c-0.3,0.1-0.8,0.3-1.4,0.3
			c-1.3,0-2.1-0.9-2.1-2.2s0.8-2.3,2-2.3c1.4,0,1.8,1.3,1.8,2.1c0,0.2,0,0.3,0,0.4h-3.1V560.8z M392.7,560.2c0-0.5-0.2-1.3-1.1-1.3
			c-0.8,0-1.2,0.7-1.2,1.3H392.7z"/>
		<path class="st1" d="M394.5,559.7c0-0.5,0-0.8,0-1.2h0.7v0.7l0,0c0.2-0.4,0.7-0.8,1.4-0.8c0.6,0,1.5,0.4,1.5,1.9v2.6h-0.8v-2.5
			c0-0.7-0.3-1.3-1-1.3c-0.5,0-0.9,0.4-1.1,0.8c0,0.1-0.1,0.2-0.1,0.4v2.6h-0.8v-3.2H394.5z"/>
		<path class="st1" d="M400.4,557.2v1.3h1.1v0.6h-1.1v2.3c0,0.5,0.2,0.8,0.6,0.8c0.2,0,0.4,0,0.5-0.1v0.6c-0.2,0.1-0.4,0.1-0.7,0.1
			c-0.4,0-0.7-0.1-0.9-0.3c-0.2-0.2-0.3-0.6-0.3-1.1V559H399v-0.6h0.7v-1L400.4,557.2z"/>
		<path class="st1" d="M402.3,562c0.2,0.2,0.6,0.3,1,0.3c0.6,0,0.8-0.3,0.8-0.6c0-0.4-0.2-0.6-0.8-0.8c-0.8-0.3-1.2-0.7-1.2-1.2
			c0-0.7,0.6-1.3,1.5-1.3c0.4,0,0.8,0.1,1.1,0.3l-0.2,0.6c-0.2-0.1-0.5-0.3-0.9-0.3c-0.5,0-0.7,0.3-0.7,0.6c0,0.4,0.3,0.5,0.8,0.7
			c0.8,0.3,1.1,0.7,1.1,1.3c0,0.8-0.6,1.3-1.6,1.3c-0.5,0-0.9-0.1-1.2-0.3L402.3,562z"/>
		<path class="st1" d="M414.3,556.4v5.3c0,0.4,0,0.8,0,1.1h-0.7V562l0,0c-0.2,0.5-0.8,0.9-1.5,0.9c-1.1,0-1.9-0.9-1.9-2.2
			c0-1.5,0.9-2.3,2-2.3c0.7,0,1.1,0.3,1.3,0.7l0,0v-2.6h0.8L414.3,556.4L414.3,556.4z M413.5,560.2c0-0.1,0-0.2,0-0.3
			c-0.1-0.5-0.5-0.9-1.1-0.9c-0.8,0-1.3,0.7-1.3,1.7c0,0.9,0.4,1.6,1.3,1.6c0.5,0,1-0.4,1.2-0.9c0-0.1,0-0.2,0-0.3v-0.9L413.5,560.2
			L413.5,560.2z"/>
		<path class="st1" d="M416,560.8c0,1.1,0.7,1.5,1.5,1.5c0.6,0,0.9-0.1,1.2-0.2l0.1,0.6c-0.3,0.1-0.8,0.3-1.4,0.3
			c-1.3,0-2.1-0.9-2.1-2.2s0.8-2.3,2-2.3c1.4,0,1.8,1.3,1.8,2.1c0,0.2,0,0.3,0,0.4H416V560.8z M418.3,560.2c0-0.5-0.2-1.3-1.1-1.3
			c-0.8,0-1.2,0.7-1.2,1.3H418.3z"/>
		<path class="st1" d="M424.6,556.4h0.8v6.4h-0.8V556.4z"/>
		<path class="st1" d="M427.3,556.7l-0.2,2.2h-0.5l-0.1-2.2H427.3z"/>
		<path class="st1" d="M429.2,556.8v6.1h-0.8v-6.1H429.2z"/>
		<path class="st1" d="M430.6,562.8v-6.1h0.9l1.9,3.1c0.5,0.7,0.8,1.4,1.1,2l0,0c-0.1-0.8-0.1-1.5-0.1-2.5v-2.5h0.7v6.1h-0.8
			l-1.9-3.1c-0.4-0.7-0.8-1.4-1.1-2l0,0c0,0.8,0.1,1.5,0.1,2.5v2.6L430.6,562.8L430.6,562.8z"/>
		<path class="st1" d="M439.6,560h-2.4v2.2h2.6v0.7h-3.4v-6.1h3.3v0.7h-2.5v1.9h2.4V560z"/>
	</g>
</g>
<text transform="matrix(1 0 0 1 291.8278 89.918)" class="st2 st3 st4">GIRONA</text>
<text transform="matrix(1 0 0 1 291.8278 100.488)" class="st1 st3 st4">Ocupaci贸</text>
<text transform="matrix(1 0 0 1 291.8278 112.198)" class="st1 st3 st4">Viatgers</text>
<text transform="matrix(1 0 0 1 291.8278 123.908)" class="st1 st3 st4">Pernoctacions</text>
<text transform="matrix(1 0 0 1 360 374.67)" class="st2 st3 st4">BARCELONA</text>
<text transform="matrix(1 0 0 1 360 385.24)" class="st1 st3 st4">Ocupaci贸</text>
<text transform="matrix(1 0 0 1 360 396.95)" class="st1 st3 st4">Viatgers</text>
<text transform="matrix(1 0 0 1 360 408.66)" class="st1 st3 st4">Pernoctacions</text>
<text transform="matrix(1 0 0 1 139.04 458.58)" class="st2 st3 st4">TARRAGONA</text>
<text transform="matrix(1 0 0 1 139.04 473.05)" class="st1 st3 st4">Ocupaci贸</text>
<text transform="matrix(1 0 0 1 139.04 484.76)" class="st1 st3 st4">Viatgers</text>
<text transform="matrix(1 0 0 1 139.04 496.46)" class="st1 st3 st4">Pernoctacions</text>
<text transform="matrix(1 0 0 1 12.95 156.21)" class="st2 st3 st4">LLEIDA</text>
<text transform="matrix(1 0 0 1 12.9501 168.6625)" class="st1 st3 st4">Ocupaci贸</text>
<text transform="matrix(1 0 0 1 12.9494 194.6)" class="st1 st3 st4">Viatgers</text>
<text transform="matrix(1 0 0 1 12.9494 222.4998)" class="st1 st3 st4">Pernoctacions</text>
<path class="st5" d="M132.9,42.1c-0.5-0.8,0.5-1.1,0.9-1.6c0.2-0.3,0.5-0.2,0.7,0"/>
<path class="st6" d="M208.3,311.1c1.4,1.6,0.3,1.8-1,1.9C206.4,311.9,208.2,311.9,208.3,311.1z"/>
<path class="st7" d="M250.9,397.3c-0.1-0.9-0.5-1.8,0.5-2.4c0.5,0.3,0.9-1.6,1.3,0c0.1,0.5,1.1,1.6-0.4,1.6
	C251.5,396.3,251.4,397,250.9,397.3z"/>
<path class="st8" d="M355.8,211.5c0-0.2,0-0.5-0.1-0.7c0.8-1.7,2.2-1,3.5-1.2C358.4,210.8,356.7,210.3,355.8,211.5z"/>
<path class="st9" d="M364.9,209.5c0.9,0.5,1,1.4,1.2,2.2C364.6,211.8,364.4,210.8,364.9,209.5z"/>
<path class="st10" d="M351.1,206.7V206c0.9,0.4,2.1-0.5,2.8,0.7H351.1z"/>
<g>
	<g class="st0">
		<path class="st2" d="M142.8,18.5c0.6-0.1,1.3-0.2,2.3-0.2c1.2,0,2,0.3,2.6,0.8c0.5,0.4,0.8,1.1,0.8,1.9s-0.2,1.5-0.7,2
			c-0.6,0.7-1.7,1-2.8,1c-0.4,0-0.7,0-1-0.1v3.7h-1.2C142.8,27.5,142.8,18.5,142.8,18.5z M144,22.9c0.3,0.1,0.6,0.1,1,0.1
			c1.4,0,2.3-0.7,2.3-2c0-1.2-0.9-1.8-2.2-1.8c-0.5,0-0.9,0-1.1,0.1C144,19.3,144,22.9,144,22.9z"/>
		<path class="st2" d="M156.1,24.1c0,2.4-1.7,3.5-3.3,3.5c-1.8,0-3.2-1.3-3.2-3.4c0-2.2,1.4-3.5,3.3-3.5S156.1,22.1,156.1,24.1z
			 M150.8,24.3c0,1.4,0.8,2.5,2,2.5c1.1,0,2-1.1,2-2.6c0-1.1-0.6-2.5-2-2.5S150.8,23,150.8,24.3z"/>
		<path class="st2" d="M157.4,26.4c0.4,0.2,1,0.5,1.6,0.5c0.9,0,1.3-0.4,1.3-1s-0.3-0.9-1.2-1.2c-1.2-0.4-1.7-1.1-1.7-1.9
			c0-1.1,0.9-1.9,2.3-1.9c0.7,0,1.3,0.2,1.6,0.4l-0.3,0.9c-0.3-0.2-0.7-0.4-1.4-0.4c-0.7,0-1.1,0.4-1.1,0.9s0.4,0.8,1.3,1.1
			c1.1,0.4,1.7,1,1.7,2c0,1.2-0.9,2-2.5,2c-0.7,0-1.4-0.2-1.9-0.5L157.4,26.4z"/>
		<path class="st2" d="M164.3,19c0,0.4-0.3,0.7-0.8,0.7c-0.4,0-0.7-0.3-0.7-0.7c0-0.4,0.3-0.8,0.8-0.8C164,18.4,164.3,18.6,164.3,19
			z M163,27.5v-6.6h1.2v6.6H163z"/>
		<path class="st2" d="M170.9,27.4c-0.3,0.2-1,0.4-1.9,0.4c-2,0-3.3-1.4-3.3-3.4s1.4-3.5,3.6-3.5c0.7,0,1.3,0.2,1.7,0.3l-0.3,0.9
			c-0.3-0.2-0.7-0.3-1.4-0.3c-1.5,0-2.3,1.1-2.3,2.5c0,1.5,1,2.5,2.3,2.5c0.7,0,1.1-0.2,1.5-0.3L170.9,27.4z"/>
		<path class="st2" d="M173.6,19c0,0.4-0.3,0.7-0.8,0.7c-0.4,0-0.7-0.3-0.7-0.7c0-0.4,0.3-0.8,0.8-0.8
			C173.4,18.4,173.6,18.6,173.6,19z M172.3,27.5v-6.6h1.2v6.6H172.3z"/>
		<path class="st2" d="M181.5,24.1c0,2.4-1.7,3.5-3.3,3.5c-1.8,0-3.2-1.3-3.2-3.4c0-2.2,1.4-3.5,3.3-3.5S181.5,22.1,181.5,24.1z
			 M176.2,24.3c0,1.4,0.8,2.5,2,2.5c1.1,0,2-1.1,2-2.6c0-1.1-0.6-2.5-2-2.5S176.2,23,176.2,24.3z"/>
		<path class="st2" d="M183,22.8c0-0.7,0-1.2-0.1-1.8h1.1l0.1,1.1l0,0c0.3-0.6,1.1-1.2,2.2-1.2c0.9,0,2.3,0.5,2.3,2.8v3.9h-1.2v-3.8
			c0-1.1-0.4-2-1.5-2c-0.8,0-1.4,0.6-1.6,1.2c-0.1,0.2-0.1,0.4-0.1,0.6v4H183V22.8z"/>
		<path class="st2" d="M194.2,27.5l-0.1-0.8l0,0c-0.4,0.5-1.1,1-2,1c-1.3,0-2-0.9-2-1.9c0-1.6,1.4-2.5,4-2.5v-0.1
			c0-0.5-0.2-1.5-1.5-1.5c-0.6,0-1.3,0.2-1.7,0.5l-0.3-0.8c0.5-0.4,1.3-0.6,2.2-0.6c2,0,2.5,1.4,2.5,2.7v2.5c0,0.6,0,1.1,0.1,1.6
			h-1.2V27.5z M194.1,24.1c-1.3,0-2.8,0.2-2.8,1.5c0,0.8,0.5,1.1,1.1,1.1c0.9,0,1.4-0.5,1.6-1.1c0-0.1,0.1-0.3,0.1-0.4V24.1
			L194.1,24.1z"/>
		<path class="st2" d="M197.2,22.8c0-0.7,0-1.2-0.1-1.8h1.1l0.1,1.1l0,0c0.4-0.6,1-1.2,2.1-1.2c0.9,0,1.6,0.5,1.9,1.3l0,0
			c0.2-0.4,0.5-0.7,0.7-0.9c0.4-0.3,0.8-0.5,1.5-0.5c0.9,0,2.2,0.6,2.2,2.9v3.9h-1.2v-3.7c0-1.3-0.5-2-1.4-2c-0.7,0-1.2,0.5-1.4,1.1
			c-0.1,0.2-0.1,0.4-0.1,0.6v4.1h-1.2v-4c0-1.1-0.5-1.8-1.4-1.8c-0.8,0-1.3,0.6-1.5,1.2c-0.1,0.2-0.1,0.4-0.1,0.6v4h-1.2L197.2,22.8
			L197.2,22.8z"/>
		<path class="st2" d="M209.2,24.5c0,1.6,1.1,2.3,2.3,2.3c0.9,0,1.4-0.2,1.8-0.3l0.2,0.9c-0.4,0.2-1.1,0.4-2.2,0.4
			c-2,0-3.3-1.3-3.3-3.3s1.2-3.6,3.1-3.6c2.2,0,2.7,1.9,2.7,3.1c0,0.2,0,0.4,0,0.6h-4.6V24.5z M212.7,23.6c0-0.8-0.3-2-1.7-2
			c-1.2,0-1.7,1.1-1.8,2H212.7z"/>
		<path class="st2" d="M215.4,22.8c0-0.7,0-1.2-0.1-1.8h1.1l0.1,1.1l0,0c0.3-0.6,1.1-1.2,2.2-1.2c0.9,0,2.3,0.5,2.3,2.8v3.9h-1.2
			v-3.8c0-1.1-0.4-2-1.5-2c-0.8,0-1.4,0.6-1.6,1.2c-0.1,0.2-0.1,0.4-0.1,0.6v4h-1.2V22.8z"/>
		<path class="st2" d="M224.4,19v1.9h1.7v0.9h-1.7v3.6c0,0.8,0.2,1.3,0.9,1.3c0.3,0,0.5,0,0.7-0.1l0.1,0.9c-0.2,0.1-0.6,0.2-1.1,0.2
			c-0.6,0-1-0.2-1.3-0.5c-0.3-0.4-0.5-0.9-0.5-1.7v-3.6h-1V21h1v-1.6L224.4,19z"/>
		<path class="st2" d="M235,24.5c0,1.6,1.1,2.3,2.3,2.3c0.9,0,1.4-0.2,1.8-0.3l0.2,0.9c-0.4,0.2-1.1,0.4-2.2,0.4
			c-2,0-3.3-1.3-3.3-3.3s1.2-3.6,3.1-3.6c2.2,0,2.7,1.9,2.7,3.1c0,0.2,0,0.4,0,0.6H235V24.5z M238.5,23.6c0-0.8-0.3-2-1.7-2
			c-1.2,0-1.7,1.1-1.8,2H238.5z"/>
		<path class="st2" d="M241.2,22.8c0-0.7,0-1.2-0.1-1.8h1.1l0.1,1.1l0,0c0.3-0.6,1.1-1.2,2.2-1.2c0.9,0,2.3,0.5,2.3,2.8v3.9h-1.2
			v-3.8c0-1.1-0.4-2-1.5-2c-0.8,0-1.4,0.6-1.6,1.2c-0.1,0.2-0.1,0.4-0.1,0.6v4h-1.2V22.8z"/>
		<path class="st2" d="M255.6,17.9h1.2V22l0,0c0.2-0.3,0.5-0.6,0.9-0.8c0.4-0.2,0.8-0.3,1.2-0.3c0.9,0,2.3,0.5,2.3,2.8v3.9H260v-3.8
			c0-1.1-0.4-2-1.5-2c-0.8,0-1.4,0.5-1.6,1.2c-0.1,0.2-0.1,0.3-0.1,0.6v4h-1.2L255.6,17.9L255.6,17.9z"/>
		<path class="st2" d="M269.1,24.1c0,2.4-1.7,3.5-3.3,3.5c-1.8,0-3.2-1.3-3.2-3.4c0-2.2,1.4-3.5,3.3-3.5
			C267.9,20.8,269.1,22.1,269.1,24.1z M263.9,24.3c0,1.4,0.8,2.5,2,2.5c1.1,0,2-1.1,2-2.6c0-1.1-0.6-2.5-2-2.5S263.9,23,263.9,24.3z
			"/>
		<path class="st2" d="M272.1,19v1.9h1.7v0.9h-1.7v3.6c0,0.8,0.2,1.3,0.9,1.3c0.3,0,0.5,0,0.7-0.1l0.1,0.9c-0.2,0.1-0.6,0.2-1.1,0.2
			c-0.6,0-1-0.2-1.3-0.5c-0.3-0.4-0.5-0.9-0.5-1.7v-3.6h-1V21h1v-1.6L272.1,19z"/>
		<path class="st2" d="M275.9,24.5c0,1.6,1.1,2.3,2.3,2.3c0.9,0,1.4-0.2,1.8-0.3l0.2,0.9c-0.4,0.2-1.1,0.4-2.2,0.4
			c-2,0-3.3-1.3-3.3-3.3s1.2-3.6,3.1-3.6c2.2,0,2.7,1.9,2.7,3.1c0,0.2,0,0.4,0,0.6h-4.6L275.9,24.5L275.9,24.5z M279.4,23.6
			c0-0.8-0.3-2-1.7-2c-1.2,0-1.7,1.1-1.8,2H279.4z"/>
		<path class="st2" d="M282,17.9h1.2v9.7H282V17.9z"/>
		<path class="st2" d="M285.1,26.4c0.4,0.2,1,0.5,1.6,0.5c0.9,0,1.3-0.4,1.3-1s-0.3-0.9-1.2-1.2c-1.2-0.4-1.7-1.1-1.7-1.9
			c0-1.1,0.9-1.9,2.3-1.9c0.7,0,1.3,0.2,1.6,0.4l-0.3,0.9c-0.3-0.2-0.7-0.4-1.4-0.4c-0.7,0-1.1,0.4-1.1,0.9s0.4,0.8,1.3,1.1
			c1.1,0.4,1.7,1,1.7,2c0,1.2-0.9,2-2.5,2c-0.7,0-1.4-0.2-1.9-0.5L285.1,26.4z"/>
		<path class="st2" d="M297.5,23c0-0.8,0-1.5-0.1-2.2h1.1l0.1,1.1l0,0c0.5-0.8,1.3-1.3,2.3-1.3c1.6,0,2.8,1.4,2.8,3.4
			c0,2.4-1.4,3.6-3,3.6c-0.9,0-1.6-0.4-2-1l0,0v3.6h-1.2L297.5,23L297.5,23z M298.7,24.9c0,0.2,0,0.3,0.1,0.5
			c0.2,0.8,0.9,1.4,1.8,1.4c1.3,0,2-1,2-2.6c0-1.3-0.7-2.5-2-2.5c-0.8,0-1.6,0.6-1.8,1.5c0,0.2-0.1,0.3-0.1,0.5V24.9z"/>
		<path class="st2" d="M305.9,24.5c0,1.6,1.1,2.3,2.3,2.3c0.9,0,1.4-0.2,1.8-0.3l0.2,0.9c-0.4,0.2-1.1,0.4-2.2,0.4
			c-2,0-3.3-1.3-3.3-3.3s1.2-3.6,3.1-3.6c2.2,0,2.7,1.9,2.7,3.1c0,0.2,0,0.4,0,0.6h-4.6V24.5z M309.5,23.6c0-0.8-0.3-2-1.7-2
			c-1.2,0-1.7,1.1-1.8,2H309.5z"/>
		<path class="st2" d="M312.1,23c0-0.8,0-1.4-0.1-2.1h1.1v1.3h0.1c0.3-0.9,1-1.4,1.8-1.4c0.1,0,0.2,0,0.3,0V22c-0.1,0-0.2,0-0.4,0
			c-0.8,0-1.4,0.6-1.6,1.5c0,0.2-0.1,0.4-0.1,0.6v3.5H312v-4.5C312,23,312.1,23,312.1,23z"/>
		<path class="st2" d="M323.4,23c0-0.8,0-1.5-0.1-2.2h1.1l0.1,1.1l0,0c0.5-0.8,1.3-1.3,2.3-1.3c1.6,0,2.8,1.4,2.8,3.4
			c0,2.4-1.4,3.6-3,3.6c-0.9,0-1.6-0.4-2-1l0,0v3.6h-1.2L323.4,23L323.4,23z M324.6,24.9c0,0.2,0,0.3,0.1,0.5
			c0.2,0.8,0.9,1.4,1.8,1.4c1.3,0,2-1,2-2.6c0-1.3-0.7-2.5-2-2.5c-0.8,0-1.6,0.6-1.8,1.5c0,0.2-0.1,0.3-0.1,0.5V24.9z"/>
		<path class="st2" d="M331.2,23c0-0.8,0-1.4-0.1-2.1h1.1v1.3h0.1c0.3-0.9,1-1.4,1.8-1.4c0.1,0,0.2,0,0.3,0V22c-0.1,0-0.2,0-0.4,0
			c-0.8,0-1.4,0.6-1.6,1.5c0,0.2-0.1,0.4-0.1,0.6v3.5h-1.2v-4.5C331.1,23,331.2,23,331.2,23z"/>
		<path class="st2" d="M341.6,24.1c0,2.4-1.7,3.5-3.3,3.5c-1.8,0-3.2-1.3-3.2-3.4c0-2.2,1.4-3.5,3.3-3.5S341.6,22.1,341.6,24.1z
			 M336.4,24.3c0,1.4,0.8,2.5,2,2.5c1.1,0,2-1.1,2-2.6c0-1.1-0.6-2.5-2-2.5S336.4,23,336.4,24.3z"/>
		<path class="st2" d="M343.6,21l1.3,3.7c0.2,0.6,0.4,1.1,0.5,1.7l0,0c0.2-0.5,0.3-1.1,0.6-1.7l1.3-3.7h1.3l-2.6,6.6h-1.1l-2.5-6.6
			H343.6z"/>
		<path class="st2" d="M352.2,18l-1.7,2h-0.9l1.2-2H352.2z M349.7,27.5v-6.6h1.2v6.6H349.7z"/>
		<path class="st2" d="M352.9,22.8c0-0.7,0-1.2-0.1-1.8h1.1l0.1,1.1l0,0c0.3-0.6,1.1-1.2,2.2-1.2c0.9,0,2.3,0.5,2.3,2.8v3.9h-1.2
			v-3.8c0-1.1-0.4-2-1.5-2c-0.8,0-1.4,0.6-1.6,1.2c-0.1,0.2-0.1,0.4-0.1,0.6v4h-1.2L352.9,22.8L352.9,22.8z"/>
		<path class="st2" d="M365.2,27.4c-0.3,0.2-1,0.4-1.9,0.4c-2,0-3.3-1.4-3.3-3.4s1.4-3.5,3.6-3.5c0.7,0,1.3,0.2,1.7,0.3L365,22
			c-0.3-0.2-0.7-0.3-1.4-0.3c-1.5,0-2.3,1.1-2.3,2.5c0,1.5,1,2.5,2.3,2.5c0.7,0,1.1-0.2,1.5-0.3L365.2,27.4z"/>
		<path class="st2" d="M367.9,19c0,0.4-0.3,0.7-0.8,0.7c-0.4,0-0.7-0.3-0.7-0.7c0-0.4,0.3-0.8,0.8-0.8
			C367.7,18.4,367.9,18.6,367.9,19z M366.6,27.5v-6.6h1.2v6.6H366.6z"/>
		<path class="st2" d="M370.5,24.5c0,1.6,1.1,2.3,2.3,2.3c0.9,0,1.4-0.2,1.8-0.3l0.2,0.9c-0.4,0.2-1.1,0.4-2.2,0.4
			c-2,0-3.3-1.3-3.3-3.3s1.2-3.6,3.1-3.6c2.2,0,2.7,1.9,2.7,3.1c0,0.2,0,0.4,0,0.6h-4.6V24.5z M374,23.6c0-0.8-0.3-2-1.7-2
			c-1.2,0-1.7,1.1-1.8,2H374z"/>
		<path class="st2" d="M376.5,26.4c0.4,0.2,1,0.5,1.6,0.5c0.9,0,1.3-0.4,1.3-1s-0.3-0.9-1.2-1.2c-1.2-0.4-1.7-1.1-1.7-1.9
			c0-1.1,0.9-1.9,2.3-1.9c0.7,0,1.3,0.2,1.6,0.4l-0.3,0.9c-0.3-0.2-0.7-0.4-1.4-0.4c-0.7,0-1.1,0.4-1.1,0.9s0.4,0.8,1.3,1.1
			c1.1,0.4,1.7,1,1.7,2c0,1.2-0.9,2-2.5,2c-0.7,0-1.4-0.2-1.9-0.5L376.5,26.4z"/>
	</g>
</g>
<g>
	<g class="st0">
		<path class="st11" d="M91.3,42.4v-7.2h1l2.3,3.7c0.5,0.8,1,1.6,1.3,2.3l0,0c-0.1-1-0.1-1.8-0.1-3v-3h0.9v7.2h-0.9l-2.3-3.7
			c-0.5-0.8-1-1.6-1.4-2.4l0,0c0.1,0.9,0.1,1.8,0.1,3v3.1C92.2,42.4,91.3,42.4,91.3,42.4z"/>
		<path class="st11" d="M103.1,39.8c0,1.9-1.3,2.8-2.6,2.8c-1.4,0-2.5-1-2.5-2.7s1.1-2.8,2.6-2.8S103.1,38.2,103.1,39.8z M99,39.8
			c0,1.1,0.7,2,1.6,2s1.6-0.8,1.6-2c0-0.9-0.4-2-1.6-2S99,38.8,99,39.8z"/>
		<path class="st11" d="M104.6,37.2l1,2.9c0.2,0.5,0.3,0.9,0.4,1.3l0,0c0.1-0.4,0.3-0.9,0.4-1.3l1-2.9h1l-2,5.2h-0.9l-2-5.2H104.6z"
			/>
		<path class="st11" d="M110,40c0,1.3,0.8,1.8,1.8,1.8c0.7,0,1.1-0.1,1.4-0.3l0.2,0.7c-0.3,0.2-0.9,0.3-1.7,0.3
			c-1.6,0-2.6-1.1-2.6-2.6c0-1.6,0.9-2.8,2.4-2.8c1.7,0,2.1,1.5,2.1,2.4c0,0.2,0,0.3,0,0.4L110,40L110,40z M112.7,39.3
			c0-0.6-0.2-1.5-1.3-1.5c-1,0-1.4,0.9-1.4,1.5H112.7z"/>
		<path class="st11" d="M114.8,38.6c0-0.5,0-1,0-1.4h0.8V38l0,0c0.3-0.5,0.8-1,1.6-1c0.7,0,1.2,0.4,1.5,1l0,0
			c0.2-0.3,0.4-0.5,0.6-0.7c0.3-0.2,0.7-0.4,1.1-0.4c0.7,0,1.7,0.5,1.7,2.3v3.1h-0.9v-2.9c0-1-0.4-1.6-1.1-1.6c-0.5,0-1,0.4-1.1,0.9
			c0,0.1-0.1,0.3-0.1,0.5v3.2H118v-3.1c0-0.8-0.4-1.4-1.1-1.4c-0.6,0-1,0.5-1.2,0.9c-0.1,0.1-0.1,0.3-0.1,0.5v3.1h-0.9L114.8,38.6
			L114.8,38.6z"/>
		<path class="st11" d="M123.7,42.4c0-0.4,0-0.9,0-1.3v-6.3h0.9v3.3l0,0c0.3-0.6,0.9-1,1.8-1c1.3,0,2.2,1.1,2.2,2.6
			c0,1.9-1.2,2.8-2.3,2.8c-0.8,0-1.4-0.3-1.7-1l0,0v0.9H123.7z M124.7,40.3c0,0.1,0,0.2,0,0.3c0.2,0.7,0.7,1.1,1.4,1.1
			c1,0,1.6-0.8,1.6-2c0-1-0.5-1.9-1.5-1.9c-0.6,0-1.2,0.4-1.4,1.2c0,0.1-0.1,0.2-0.1,0.4V40.3z"/>
		<path class="st11" d="M129.9,38.8c0-0.6,0-1.1,0-1.6h0.8v1l0,0c0.2-0.7,0.8-1.1,1.4-1.1c0.1,0,0.2,0,0.3,0V38c-0.1,0-0.2,0-0.3,0
			c-0.7,0-1.1,0.5-1.3,1.2c0,0.1,0,0.3,0,0.4v2.8h-0.9V38.8z"/>
		<path class="st11" d="M133.9,40c0,1.3,0.8,1.8,1.8,1.8c0.7,0,1.1-0.1,1.4-0.3l0.2,0.7c-0.3,0.2-0.9,0.3-1.7,0.3
			c-1.6,0-2.6-1.1-2.6-2.6c0-1.6,0.9-2.8,2.4-2.8c1.7,0,2.1,1.5,2.1,2.4c0,0.2,0,0.3,0,0.4L133.9,40L133.9,40z M136.7,39.3
			c0-0.6-0.2-1.5-1.3-1.5c-1,0-1.4,0.9-1.4,1.5H136.7z"/>
		<path class="st11" d="M148.1,42.4h-4.3v-0.8l1-0.9c0.6-0.5,1.1-1,1.4-1.3c0.3-0.3,0.5-0.7,0.6-1c0.1-0.4,0.2-0.8,0.2-1.2
			c0-0.5-0.1-0.8-0.3-1s-0.5-0.4-1-0.4c-0.2,0-0.4,0-0.6,0.1c-0.2,0-0.4,0.1-0.5,0.2l-0.2,0.9H144v-1.4c0.6-0.2,1.2-0.2,1.6-0.2
			c0.8,0,1.3,0.2,1.7,0.5s0.6,0.8,0.6,1.4c0,0.4-0.1,0.8-0.2,1.1c-0.2,0.3-0.4,0.7-0.7,1s-0.8,0.8-1.6,1.4c-0.3,0.3-0.6,0.6-1,0.9
			h3.6L148.1,42.4L148.1,42.4z"/>
		<path class="st11" d="M153.6,38.9c0,2.4-0.8,3.6-2.3,3.6c-0.7,0-1.3-0.3-1.7-0.9c-0.4-0.6-0.6-1.5-0.6-2.7s0.2-2.1,0.6-2.7
			s1-0.9,1.7-0.9s1.3,0.3,1.7,0.9C153.5,36.8,153.6,37.7,153.6,38.9z M152.7,38.9c0-1.1-0.1-1.9-0.3-2.4s-0.6-0.7-1-0.7
			c-0.5,0-0.8,0.2-1,0.7s-0.3,1.3-0.3,2.5s0.1,2,0.3,2.5s0.5,0.7,1,0.7s0.8-0.3,1-0.8C152.6,40.8,152.7,40,152.7,38.9z"/>
		<path class="st11" d="M158.8,42.4h-4.3v-0.8l1-0.9c0.6-0.5,1.1-1,1.4-1.3s0.5-0.7,0.6-1c0.1-0.4,0.2-0.8,0.2-1.2
			c0-0.5-0.1-0.8-0.3-1s-0.5-0.4-1-0.4c-0.2,0-0.4,0-0.6,0.1c-0.2,0-0.4,0.1-0.5,0.2l-0.2,0.9h-0.3v-1.4c0.6-0.2,1.2-0.2,1.6-0.2
			c0.8,0,1.3,0.2,1.7,0.5s0.6,0.8,0.6,1.4c0,0.4-0.1,0.8-0.2,1.1c-0.2,0.3-0.4,0.7-0.7,1s-0.8,0.8-1.6,1.4c-0.3,0.3-0.6,0.6-1,0.9
			h3.6V42.4z"/>
		<path class="st11" d="M164.4,38.9c0,2.4-0.8,3.6-2.3,3.6c-0.7,0-1.3-0.3-1.7-0.9c-0.4-0.6-0.6-1.5-0.6-2.7s0.2-2.1,0.6-2.7
			c0.4-0.6,0.9-0.9,1.7-0.9c0.7,0,1.3,0.3,1.7,0.9C164.2,36.8,164.4,37.7,164.4,38.9z M163.4,38.9c0-1.1-0.1-1.9-0.3-2.4
			s-0.6-0.7-1-0.7c-0.5,0-0.8,0.2-1,0.7s-0.3,1.3-0.3,2.5s0.1,2,0.3,2.5s0.5,0.7,1,0.7s0.8-0.3,1-0.8
			C163.3,40.8,163.4,40,163.4,38.9z"/>
		<path class="st11" d="M165.7,41.6c0.1-0.1,0.3-0.2,0.4-0.2s0.3,0.1,0.4,0.2s0.2,0.3,0.2,0.4c0,0.2-0.1,0.3-0.2,0.4
			c-0.1,0.1-0.3,0.2-0.4,0.2c-0.2,0-0.3-0.1-0.4-0.2c-0.1-0.1-0.2-0.3-0.2-0.4C165.5,41.8,165.6,41.7,165.7,41.6z"/>
		<path class="st11" d="M177.4,39h-2.8v2.6h3.1v0.8h-4.1v-7.2h3.9V36h-3v2.3h2.8V39H177.4z"/>
		<path class="st11" d="M178.9,38.6c0-0.5,0-1,0-1.4h0.8l0.1,0.9l0,0c0.3-0.5,0.9-1,1.7-1c0.7,0,1.8,0.4,1.8,2.2v3.1h-0.9v-3
			c0-0.8-0.3-1.5-1.2-1.5c-0.6,0-1.1,0.4-1.3,1c0,0.1-0.1,0.3-0.1,0.4v3.1h-0.9L178.9,38.6L178.9,38.6z"/>
		<path class="st11" d="M186,35.7v1.5h1.4v0.7H186v2.8c0,0.6,0.2,1,0.7,1c0.2,0,0.4,0,0.5-0.1v0.7c-0.2,0.1-0.5,0.1-0.8,0.1
			c-0.4,0-0.8-0.1-1-0.4c-0.3-0.3-0.4-0.7-0.4-1.4v-2.8h-0.8v-0.7h0.8V36L186,35.7z"/>
		<path class="st11" d="M188.4,38.8c0-0.6,0-1.1,0-1.6h0.8v1l0,0c0.2-0.7,0.8-1.1,1.4-1.1c0.1,0,0.2,0,0.3,0V38c-0.1,0-0.2,0-0.3,0
			c-0.7,0-1.1,0.5-1.3,1.2c0,0.1,0,0.3,0,0.4v2.8h-0.9V38.8z"/>
		<path class="st11" d="M192.4,40c0,1.3,0.8,1.8,1.8,1.8c0.7,0,1.1-0.1,1.4-0.3l0.2,0.7c-0.3,0.2-0.9,0.3-1.7,0.3
			c-1.6,0-2.6-1.1-2.6-2.6c0-1.6,0.9-2.8,2.4-2.8c1.7,0,2.1,1.5,2.1,2.4c0,0.2,0,0.3,0,0.4L192.4,40L192.4,40z M195.2,39.3
			c0-0.6-0.2-1.5-1.3-1.5c-1,0-1.4,0.9-1.4,1.5H195.2z"/>
		<path class="st11" d="M202.6,38.9c0-0.7,0-1.2,0-1.7h0.8v0.9l0,0c0.4-0.6,1-1,1.8-1c1.3,0,2.2,1.1,2.2,2.6c0,1.9-1.1,2.8-2.4,2.8
			c-0.7,0-1.3-0.3-1.6-0.8l0,0v2.8h-0.9L202.6,38.9L202.6,38.9z M203.6,40.3c0,0.1,0,0.3,0,0.4c0.2,0.7,0.7,1.1,1.4,1.1
			c1,0,1.6-0.8,1.6-2c0-1-0.5-1.9-1.5-1.9c-0.6,0-1.2,0.5-1.4,1.2c0,0.1-0.1,0.3-0.1,0.4V40.3z"/>
		<path class="st11" d="M211.6,42.4l-0.1-0.7l0,0c-0.3,0.4-0.8,0.8-1.6,0.8c-1.1,0-1.6-0.7-1.6-1.5c0-1.3,1.1-1.9,3.1-1.9V39
			c0-0.4-0.1-1.2-1.2-1.2c-0.5,0-1,0.1-1.4,0.4l-0.2-0.6c0.4-0.3,1.1-0.5,1.7-0.5c1.6,0,2,1.1,2,2.1v1.9c0,0.5,0,0.9,0.1,1.2
			L211.6,42.4L211.6,42.4z M211.5,39.8c-1,0-2.2,0.2-2.2,1.2c0,0.6,0.4,0.9,0.9,0.9c0.7,0,1.1-0.4,1.3-0.9c0-0.1,0.1-0.2,0.1-0.3
			v-0.9H211.5z"/>
		<path class="st11" d="M213.9,38.8c0-0.6,0-1.1,0-1.6h0.8v1l0,0c0.2-0.7,0.8-1.1,1.4-1.1c0.1,0,0.2,0,0.3,0V38c-0.1,0-0.2,0-0.3,0
			c-0.7,0-1.1,0.5-1.3,1.2c0,0.1,0,0.3,0,0.4v2.8h-0.9V38.8z"/>
		<path class="st11" d="M218,40c0,1.3,0.8,1.8,1.8,1.8c0.7,0,1.1-0.1,1.4-0.3l0.2,0.7c-0.3,0.2-0.9,0.3-1.7,0.3
			c-1.6,0-2.6-1.1-2.6-2.6c0-1.6,0.9-2.8,2.4-2.8c1.7,0,2.1,1.5,2.1,2.4c0,0.2,0,0.3,0,0.4L218,40L218,40z M220.7,39.3
			c0-0.6-0.2-1.5-1.3-1.5c-1,0-1.4,0.9-1.4,1.5H220.7z M219.1,35l0.9,1.5h-0.7L218,35H219.1z"/>
		<path class="st11" d="M222.8,38.6c0-0.5,0-1,0-1.4h0.8l0.1,0.9l0,0c0.3-0.5,0.9-1,1.7-1c0.7,0,1.8,0.4,1.8,2.2v3.1h-0.9v-3
			c0-0.8-0.3-1.5-1.2-1.5c-0.6,0-1.1,0.4-1.3,1c0,0.1-0.1,0.3-0.1,0.4v3.1h-0.9L222.8,38.6L222.8,38.6z"/>
		<path class="st11" d="M229.9,35.7v1.5h1.4v0.7h-1.4v2.8c0,0.6,0.2,1,0.7,1c0.2,0,0.4,0,0.5-0.1v0.7c-0.2,0.1-0.5,0.1-0.8,0.1
			c-0.4,0-0.8-0.1-1-0.4c-0.3-0.3-0.4-0.7-0.4-1.4v-2.8h-0.8v-0.7h0.8V36L229.9,35.7z"/>
		<path class="st11" d="M232.8,40c0,1.3,0.8,1.8,1.8,1.8c0.7,0,1.1-0.1,1.4-0.3l0.2,0.7c-0.3,0.2-0.9,0.3-1.7,0.3
			c-1.6,0-2.6-1.1-2.6-2.6c0-1.6,0.9-2.8,2.4-2.8c1.7,0,2.1,1.5,2.1,2.4c0,0.2,0,0.3,0,0.4L232.8,40L232.8,40z M235.6,39.3
			c0-0.6-0.2-1.5-1.3-1.5c-1,0-1.4,0.9-1.4,1.5H235.6z"/>
		<path class="st11" d="M237.6,41.5c0.3,0.2,0.8,0.4,1.2,0.4c0.7,0,1-0.3,1-0.8s-0.3-0.7-1-1c-0.9-0.3-1.4-0.8-1.4-1.5
			c0-0.8,0.7-1.5,1.8-1.5c0.5,0,1,0.2,1.3,0.3l-0.2,0.7c-0.2-0.1-0.6-0.3-1.1-0.3c-0.6,0-0.9,0.3-0.9,0.7s0.3,0.6,1,0.9
			c0.9,0.3,1.4,0.8,1.4,1.6c0,0.9-0.7,1.6-1.9,1.6c-0.6,0-1.1-0.1-1.5-0.4L237.6,41.5z"/>
		<path class="st11" d="M243,35.8c0,0.3-0.2,0.6-0.6,0.6c-0.3,0-0.6-0.3-0.6-0.6s0.2-0.6,0.6-0.6S243,35.4,243,35.8z M241.9,42.4
			v-5.2h0.9v5.2H241.9z"/>
		<path class="st11" d="M244.2,44.2V44c0.3-0.1,0.6-0.3,0.8-0.5c0.2-0.3,0.3-0.5,0.3-0.8v-0.2h-0.1l-0.5,0.2c-0.4,0-0.6-0.2-0.6-0.6
			c0-0.2,0.1-0.3,0.2-0.4c0.1-0.1,0.3-0.2,0.5-0.2c0.3,0,0.5,0.1,0.7,0.4c0.2,0.2,0.2,0.5,0.2,0.7C245.8,43.3,245.3,43.9,244.2,44.2
			z"/>
		<path class="st11" d="M252.9,37.2l1,2.9c0.2,0.5,0.3,0.9,0.4,1.3l0,0c0.1-0.4,0.3-0.9,0.4-1.3l1-2.9h1l-2,5.2h-0.9l-2-5.2H252.9z"
			/>
		<path class="st11" d="M260.5,42.4l-0.1-0.7l0,0c-0.3,0.4-0.8,0.8-1.6,0.8c-1.1,0-1.6-0.7-1.6-1.5c0-1.3,1.1-1.9,3.1-1.9V39
			c0-0.4-0.1-1.2-1.2-1.2c-0.5,0-1,0.1-1.4,0.4l-0.2-0.6c0.4-0.3,1.1-0.5,1.7-0.5c1.6,0,2,1.1,2,2.1v1.9c0,0.5,0,0.9,0.1,1.2
			L260.5,42.4L260.5,42.4z M260.4,39.8c-1,0-2.2,0.2-2.2,1.2c0,0.6,0.4,0.9,0.9,0.9c0.7,0,1.1-0.4,1.3-0.9c0-0.1,0.1-0.2,0.1-0.3
			L260.4,39.8L260.4,39.8z"/>
		<path class="st11" d="M262.8,38.8c0-0.6,0-1.1,0-1.6h0.8v1l0,0c0.2-0.7,0.8-1.1,1.4-1.1c0.1,0,0.2,0,0.3,0V38c-0.1,0-0.2,0-0.3,0
			c-0.7,0-1.1,0.5-1.3,1.2c0,0.1,0,0.3,0,0.4v2.8h-0.9V38.8z"/>
		<path class="st11" d="M267.4,35.8c0,0.3-0.2,0.6-0.6,0.6c-0.3,0-0.6-0.3-0.6-0.6s0.2-0.6,0.6-0.6
			C267.2,35.2,267.4,35.4,267.4,35.8z M266.3,42.4v-5.2h0.9v5.2H266.3z"/>
		<path class="st11" d="M271.7,42.4l-0.1-0.7l0,0c-0.3,0.4-0.8,0.8-1.6,0.8c-1.1,0-1.6-0.7-1.6-1.5c0-1.3,1.1-1.9,3.1-1.9V39
			c0-0.4-0.1-1.2-1.2-1.2c-0.5,0-1,0.1-1.4,0.4l-0.2-0.6c0.4-0.3,1.1-0.5,1.7-0.5c1.6,0,2,1.1,2,2.1v1.9c0,0.5,0,0.9,0.1,1.2
			L271.7,42.4L271.7,42.4z M271.6,39.8c-1,0-2.2,0.2-2.2,1.2c0,0.6,0.4,0.9,0.9,0.9c0.7,0,1.1-0.4,1.3-0.9c0-0.1,0.1-0.2,0.1-0.3
			L271.6,39.8L271.6,39.8z"/>
		<path class="st11" d="M277.7,42.2c-0.2,0.1-0.8,0.3-1.5,0.3c-1.6,0-2.6-1.1-2.6-2.6c0-1.6,1.1-2.8,2.8-2.8c0.6,0,1.1,0.1,1.3,0.3
			l-0.2,0.7c-0.2-0.1-0.6-0.2-1.1-0.2c-1.2,0-1.8,0.9-1.8,2c0,1.2,0.8,1.9,1.8,1.9c0.5,0,0.9-0.1,1.2-0.3L277.7,42.2z"/>
		<path class="st11" d="M279.9,35.8c0,0.3-0.2,0.6-0.6,0.6c-0.3,0-0.6-0.3-0.6-0.6s0.2-0.6,0.6-0.6
			C279.7,35.2,279.9,35.4,279.9,35.8z M278.8,42.4v-5.2h0.9v5.2H278.8z"/>
		<path class="st11" d="M286,39.8c0,1.9-1.3,2.8-2.6,2.8c-1.4,0-2.5-1-2.5-2.7s1.1-2.8,2.6-2.8S286,38.2,286,39.8z M281.9,39.8
			c0,1.1,0.7,2,1.6,2s1.6-0.8,1.6-2c0-0.9-0.4-2-1.6-2S281.9,38.8,281.9,39.8z M284.9,35l-1.3,1.5h-0.7l0.9-1.5H284.9z"/>
		<path class="st11" d="M293.6,35.8c0,0.3-0.2,0.6-0.6,0.6c-0.3,0-0.6-0.3-0.6-0.6s0.2-0.6,0.6-0.6S293.6,35.4,293.6,35.8z
			 M292.6,42.4v-5.2h0.9v5.2H292.6z"/>
		<path class="st11" d="M295.1,38.6c0-0.5,0-1,0-1.4h0.8l0.1,0.9l0,0c0.3-0.5,0.9-1,1.7-1c0.7,0,1.8,0.4,1.8,2.2v3.1h-0.9v-3
			c0-0.8-0.3-1.5-1.2-1.5c-0.6,0-1.1,0.4-1.3,1c0,0.1-0.1,0.3-0.1,0.4v3.1h-0.9V38.6z"/>
		<path class="st11" d="M302.2,35.7v1.5h1.4v0.7h-1.4v2.8c0,0.6,0.2,1,0.7,1c0.2,0,0.4,0,0.5-0.1v0.7c-0.2,0.1-0.5,0.1-0.8,0.1
			c-0.4,0-0.8-0.1-1-0.4c-0.3-0.3-0.4-0.7-0.4-1.4v-2.8h-0.8v-0.7h0.8V36L302.2,35.7z"/>
		<path class="st11" d="M305.1,40c0,1.3,0.8,1.8,1.8,1.8c0.7,0,1.1-0.1,1.4-0.3l0.2,0.7c-0.3,0.2-0.9,0.3-1.7,0.3
			c-1.6,0-2.6-1.1-2.6-2.6c0-1.6,0.9-2.8,2.4-2.8c1.7,0,2.1,1.5,2.1,2.4c0,0.2,0,0.3,0,0.4L305.1,40L305.1,40z M307.9,39.3
			c0-0.6-0.2-1.5-1.3-1.5c-1,0-1.4,0.9-1.4,1.5H307.9z"/>
		<path class="st11" d="M310,38.8c0-0.6,0-1.1,0-1.6h0.8v1l0,0c0.2-0.7,0.8-1.1,1.4-1.1c0.1,0,0.2,0,0.3,0V38c-0.1,0-0.2,0-0.3,0
			c-0.7,0-1.1,0.5-1.3,1.2c0,0.1,0,0.3,0,0.4v2.8H310V38.8z"/>
		<path class="st11" d="M316.4,42.4l-0.1-0.7l0,0c-0.3,0.4-0.8,0.8-1.6,0.8c-1.1,0-1.6-0.7-1.6-1.5c0-1.3,1.1-1.9,3.1-1.9V39
			c0-0.4-0.1-1.2-1.2-1.2c-0.5,0-1,0.1-1.4,0.4l-0.2-0.6c0.4-0.3,1.1-0.5,1.7-0.5c1.6,0,2,1.1,2,2.1v1.9c0,0.5,0,0.9,0.1,1.2
			L316.4,42.4L316.4,42.4z M316.2,39.8c-1,0-2.2,0.2-2.2,1.2c0,0.6,0.4,0.9,0.9,0.9c0.7,0,1.1-0.4,1.3-0.9c0-0.1,0.1-0.2,0.1-0.3
			L316.2,39.8L316.2,39.8z"/>
		<path class="st11" d="M318.7,38.6c0-0.5,0-1,0-1.4h0.8l0.1,0.9l0,0c0.3-0.5,0.9-1,1.7-1c0.7,0,1.8,0.4,1.8,2.2v3.1h-0.9v-3
			c0-0.8-0.3-1.5-1.2-1.5c-0.6,0-1.1,0.4-1.3,1c0,0.1-0.1,0.3-0.1,0.4v3.1h-0.9V38.6z"/>
		<path class="st11" d="M329,41c0,0.5,0,1,0,1.4h-0.8l-0.1-0.8l0,0c-0.2,0.4-0.8,1-1.7,1c-0.8,0-1.8-0.5-1.8-2.3v-3h0.9v2.9
			c0,1,0.3,1.7,1.2,1.7c0.6,0,1.1-0.4,1.2-0.9c0.1-0.1,0.1-0.3,0.1-0.5v-3.2h0.9L329,41L329,41z"/>
		<path class="st11" d="M333.4,42.4l-0.1-0.7l0,0c-0.3,0.4-0.8,0.8-1.6,0.8c-1.1,0-1.6-0.7-1.6-1.5c0-1.3,1.1-1.9,3.1-1.9V39
			c0-0.4-0.1-1.2-1.2-1.2c-0.5,0-1,0.1-1.4,0.4l-0.2-0.6c0.4-0.3,1.1-0.5,1.7-0.5c1.6,0,2,1.1,2,2.1v1.9c0,0.5,0,0.9,0.1,1.2
			L333.4,42.4L333.4,42.4z M333.3,39.8c-1,0-2.2,0.2-2.2,1.2c0,0.6,0.4,0.9,0.9,0.9c0.7,0,1.1-0.4,1.3-0.9c0-0.1,0.1-0.2,0.1-0.3
			L333.3,39.8L333.3,39.8z"/>
		<path class="st11" d="M335.7,34.8h0.9v7.6h-0.9V34.8z"/>
		<path class="st11" d="M343.6,38.8c0-0.6,0-1.1,0-1.6h0.8v1l0,0c0.2-0.7,0.8-1.1,1.4-1.1c0.1,0,0.2,0,0.3,0V38c-0.1,0-0.2,0-0.3,0
			c-0.7,0-1.1,0.5-1.3,1.2c0,0.1,0,0.3,0,0.4v2.8h-0.9V38.8z"/>
		<path class="st11" d="M347.6,40c0,1.3,0.8,1.8,1.8,1.8c0.7,0,1.1-0.1,1.4-0.3l0.2,0.7c-0.3,0.2-0.9,0.3-1.7,0.3
			c-1.6,0-2.6-1.1-2.6-2.6c0-1.6,0.9-2.8,2.4-2.8c1.7,0,2.1,1.5,2.1,2.4c0,0.2,0,0.3,0,0.4L347.6,40L347.6,40z M350.4,39.3
			c0-0.6-0.2-1.5-1.3-1.5c-1,0-1.4,0.9-1.4,1.5H350.4z"/>
		<path class="st11" d="M352.4,41.5c0.3,0.2,0.8,0.4,1.2,0.4c0.7,0,1-0.3,1-0.8s-0.3-0.7-1-1c-0.9-0.3-1.4-0.8-1.4-1.5
			c0-0.8,0.7-1.5,1.8-1.5c0.5,0,1,0.2,1.3,0.3l-0.2,0.7c-0.2-0.1-0.6-0.3-1.1-0.3c-0.6,0-0.9,0.3-0.9,0.7s0.3,0.6,1,0.9
			c0.9,0.3,1.4,0.8,1.4,1.6c0,0.9-0.7,1.6-1.9,1.6c-0.6,0-1.1-0.1-1.5-0.4L352.4,41.5z"/>
		<path class="st11" d="M356.7,38.9c0-0.7,0-1.2,0-1.7h0.8v0.9l0,0c0.4-0.6,1-1,1.8-1c1.3,0,2.2,1.1,2.2,2.6c0,1.9-1.1,2.8-2.4,2.8
			c-0.7,0-1.3-0.3-1.6-0.8l0,0v2.8h-0.9v-5.6H356.7z M357.7,40.3c0,0.1,0,0.3,0,0.4c0.2,0.7,0.7,1.1,1.4,1.1c1,0,1.6-0.8,1.6-2
			c0-1-0.5-1.9-1.5-1.9c-0.6,0-1.2,0.5-1.4,1.2c0,0.1-0.1,0.3-0.1,0.4V40.3z"/>
		<path class="st11" d="M363.4,40c0,1.3,0.8,1.8,1.8,1.8c0.7,0,1.1-0.1,1.4-0.3l0.2,0.7c-0.3,0.2-0.9,0.3-1.7,0.3
			c-1.6,0-2.6-1.1-2.6-2.6c0-1.6,0.9-2.8,2.4-2.8c1.7,0,2.1,1.5,2.1,2.4c0,0.2,0,0.3,0,0.4L363.4,40L363.4,40z M366.1,39.3
			c0-0.6-0.2-1.5-1.3-1.5c-1,0-1.4,0.9-1.4,1.5H366.1z"/>
		<path class="st11" d="M371.9,42.2c-0.2,0.1-0.8,0.3-1.5,0.3c-1.6,0-2.6-1.1-2.6-2.6c0-1.6,1.1-2.8,2.8-2.8c0.6,0,1.1,0.1,1.3,0.3
			l-0.2,0.7c-0.2-0.1-0.6-0.2-1.1-0.2c-1.2,0-1.8,0.9-1.8,2c0,1.2,0.8,1.9,1.8,1.9c0.5,0,0.9-0.1,1.2-0.3L371.9,42.2z"/>
		<path class="st11" d="M374.2,35.7v1.5h1.4v0.7h-1.4v2.8c0,0.6,0.2,1,0.7,1c0.2,0,0.4,0,0.5-0.1v0.7c-0.2,0.1-0.5,0.1-0.8,0.1
			c-0.4,0-0.8-0.1-1-0.4c-0.3-0.3-0.4-0.7-0.4-1.4v-2.8h-0.8v-0.7h0.8V36L374.2,35.7z"/>
		<path class="st11" d="M377.1,40c0,1.3,0.8,1.8,1.8,1.8c0.7,0,1.1-0.1,1.4-0.3l0.2,0.7c-0.3,0.2-0.9,0.3-1.7,0.3
			c-1.6,0-2.6-1.1-2.6-2.6c0-1.6,0.9-2.8,2.4-2.8c1.7,0,2.1,1.5,2.1,2.4c0,0.2,0,0.3,0,0.4L377.1,40L377.1,40z M379.9,39.3
			c0-0.6-0.2-1.5-1.3-1.5c-1,0-1.4,0.9-1.4,1.5H379.9z"/>
		<path class="st11" d="M387.8,40c0,1.3,0.8,1.8,1.8,1.8c0.7,0,1.1-0.1,1.4-0.3l0.2,0.7c-0.3,0.2-0.9,0.3-1.7,0.3
			c-1.6,0-2.6-1.1-2.6-2.6c0-1.6,0.9-2.8,2.4-2.8c1.7,0,2.1,1.5,2.1,2.4c0,0.2,0,0.3,0,0.4L387.8,40L387.8,40z M390.6,39.3
			c0-0.6-0.2-1.5-1.3-1.5c-1,0-1.4,0.9-1.4,1.5H390.6z"/>
		<path class="st11" d="M392.7,34.8h0.9v7.6h-0.9V34.8z"/>
		<path class="st11" d="M404.6,42.4h-4.3v-0.8l1-0.9c0.6-0.5,1.1-1,1.4-1.3s0.5-0.7,0.6-1c0.1-0.4,0.2-0.8,0.2-1.2
			c0-0.5-0.1-0.8-0.3-1c-0.2-0.2-0.5-0.4-1-0.4c-0.2,0-0.4,0-0.6,0.1c-0.2,0-0.4,0.1-0.5,0.2l-0.2,0.9h-0.3v-1.4
			c0.6-0.2,1.2-0.2,1.6-0.2c0.8,0,1.3,0.2,1.7,0.5s0.6,0.8,0.6,1.4c0,0.4-0.1,0.8-0.2,1.1c-0.2,0.3-0.4,0.7-0.7,1s-0.8,0.8-1.6,1.4
			c-0.3,0.3-0.6,0.6-1,0.9h3.6L404.6,42.4L404.6,42.4z"/>
		<path class="st11" d="M410.1,38.9c0,2.4-0.8,3.6-2.3,3.6c-0.7,0-1.3-0.3-1.7-0.9c-0.4-0.6-0.6-1.5-0.6-2.7s0.2-2.1,0.6-2.7
			s1-0.9,1.7-0.9s1.3,0.3,1.7,0.9C409.9,36.8,410.1,37.7,410.1,38.9z M409.2,38.9c0-1.1-0.1-1.9-0.3-2.4s-0.6-0.7-1-0.7
			c-0.5,0-0.8,0.2-1,0.7s-0.3,1.3-0.3,2.5s0.1,2,0.3,2.5c0.2,0.5,0.5,0.7,1,0.7s0.8-0.3,1-0.8C409.1,40.8,409.2,40,409.2,38.9z"/>
		<path class="st11" d="M413.8,42l1.4,0.1v0.3h-3.8v-0.3l1.4-0.1v-5.7l-1.4,0.5v-0.3l2-1.2h0.3V42H413.8z"/>
		<path class="st11" d="M416.2,37.5c0-0.7,0.2-1.3,0.6-1.6s1-0.6,1.7-0.6c0.8,0,1.4,0.3,1.8,0.9c0.4,0.6,0.6,1.5,0.6,2.7
			s-0.2,2.1-0.7,2.7c-0.5,0.6-1.2,0.9-2,0.9c-0.6,0-1.1-0.1-1.6-0.2v-1.2h0.3l0.2,0.8c0.1,0.1,0.3,0.1,0.5,0.1s0.4,0.1,0.6,0.1
			c0.6,0,1-0.2,1.3-0.7s0.5-1.2,0.5-2.2c-0.5,0.3-1.1,0.4-1.6,0.4c-0.6,0-1.1-0.2-1.5-0.6S416.2,38.2,416.2,37.5z M418.5,35.7
			c-0.9,0-1.3,0.6-1.3,1.8c0,0.5,0.1,0.9,0.3,1.2c0.2,0.3,0.5,0.4,1,0.4s0.9-0.1,1.4-0.3c0-1.1-0.1-1.9-0.3-2.4S419,35.7,418.5,35.7
			z"/>
	</g>
</g>
<rect x="174.7" y="51.3" class="st12" width="28.5" height="8.8"/>
<text transform="matrix(1 0 0 1 174.74 57.96)" class="st13 st14">BARCELONA</text>
<text transform="matrix(1 0 0 1 242.74 57.96)" class="st13 st14">LLEIDA</text>
<text transform="matrix(1 0 0 1 293.53 57.96)" class="st13 st14">GIRONA</text>
<text transform="matrix(1 0 0 1 351.36 57.96)" class="st13 st14">TARRAGONA</text>
<rect x="154.4" y="51.7" class="st2" width="16.7" height="8"/>
<rect x="272.9" y="51.7" class="st15" width="16.7" height="8"/>
<rect x="329.8" y="51.7" class="st1" width="16.7" height="8"/>
<rect x="224.3" y="51.7" class="st16" width="16.7" height="8"/>
<g>
	<path class="st16" d="M57,381.1c-1.6-2-3.4-3.9-2.4-6.8c0.2-0.8-0.3-1.7-1.1-1.9l0,0h-0.2c-2.5-0.7-1.6-2-0.4-3.1
		c0.9-0.9,2.6-1.2,2.3-2.7c-0.4-1.8-1.4-3.5-2.8-4.7c-0.3-0.3-0.7-0.4-1-0.7c-3.9-2.9-4-2.9-1.4-6.8c1.8-2.6,1-6,2.3-8.8
		c0.3-0.6-1.2-2.9-1.7-4.7s0.3-2.3,1.8-2c4.7,1.2,7.4-1,9.4-5.1c0.9-2,2.2-3.7,3.8-5.2c1.7-1.5,1.2-2.7,0.3-4.1
		c-1.3-1.6-1.6-3.9-0.8-5.8c0.4-1.2,0.1-2.6-0.9-3.5c-0.9-1-1.8,0.2-2.6,0.6c-3.2,1.4-6.2,0-9.2-0.8c-1.5-0.4-1.4-3.2-0.3-4.7
		c0.9-1.3,0.7-1.9-0.3-2.8c-1.4-1.5-2.1-3.5-3.3-5.3c-1-1.5-0.2-3.2,0.9-4.7c2.4-3,6-5.3,7.1-9.2c0.6-1.9,2.6,1.2,2.7-1.2
		c0.1-1.2,0.4-2.3,0.9-3.4c0.1-0.3,0.8-0.6,1.2-0.7c2.4-0.5,4.8-0.8,7.3-1c1.7,0,2.6-0.6,2.5-2c-0.4-4.6,3.7-6.2,5.8-9.2
		c0.7-1,2-0.8,3.1-0.6c2.9,0.6,3.9-1.3,3.8-3.5c-0.2-2.5,1-2.3,2.9-2.9c2.2-0.6,3.9-3,5.8-4.8c0.1-0.1-0.2-0.7-0.4-1
		c-1.6-2-1.7-4.9-0.2-7.7c0.6-1-0.3-1.2-0.9-1.5c-1.3-0.6-2.6-1.1-3.9-1.5c-2.1-0.5-1.8-1.7-0.9-2.9s1.8-2.2,2.7-3.4
		c0.3-0.4,0.7-0.9,1.2-0.4c2.2,2,2.1-0.6,2.7-1.4c0.5-0.7,0.9-1.5,1.1-2.4c0.1-1,1.1-1.8,2.1-1.7l0,0c1.4,0,0.9,1.3,1.5,2.1
		c0.6-1.7,1.5-3.3,2.6-4.7c0.6-0.6,1.4-1.8,0-2.8s-0.6-3.3,0-3.8c2.9-2.5,1.6-6.6,3.8-9.4c0.7-1,1.3-2.1,1.8-3.2
		c1.3-1.6,1.7-3.8,1-5.8c-0.8-2.4-1.5-5.1,1.5-6.8c0.6-0.4,0.9-1,0.2-1.4c-2.2-1.1-1.4-2.9-0.9-4.3c1.7-4.3,1.9-9.2,4.8-13.1
		c0.5-0.7,0.7-1.6,0.6-2.5c0.3-3.8,1-7.5,3.4-10.6c0.8-1.1,0.7-1.9-0.8-2.1c-0.8-0.1-1.8,0-1.9-1.1c-0.2-1.3,1-1.8,1.8-2.4
		s2.4-0.2,2.2-1.5s-1.7-1.4-2.9-1.4c-1.5,0-2.4-1.1-3.9-1.6c1-1.2,2.6-1.8,2.9-3.2s-0.6-2.8-1.6-3.9c-0.3-0.2-0.4-0.6-0.3-0.9v-0.1
		l0.1-0.1v-0.1c1.2-2-0.4-3.1-1.6-4.2c-0.9-0.8-2-1.5-2-2.7c0-2.6-0.8-5.2-2.2-7.4c-0.8-1.2,0.8-2.4,1.1-2.2
		c3.3,1.2,3.7-2.3,6.2-3.2c-1.6-1.5-3.7-2.4-2.5-4.8c0.8-1.7,2.2-1.6,4.6-0.7c-2.8-2.5-1-4.4-0.2-5.8c1.8-2.9,0.9-6.2,2.2-9.1
		c0.6-1.2-0.5-1.4-1.5-1.6c-2.4-0.3-4.8-0.8-7.1-1.7c-0.9-0.4-1.9-0.8-1.7-1.8c0.9-5.3-3.4-7.9-5.8-11.8c3.2,0.5,1.3-2.8,2.9-3.7
		c-1.7-1.4,0.5-3.6-1.4-5c-1.7-1.3-0.6-4.7-3.8-4.8c0-0.9,0.4-1.8,1.2-2.4c1.3-0.9,2.4-1.4-0.1-2.5c-2.2-1-0.2-2.6,0.5-3.2
		c2.6-2.2,1.7-4.6,0.7-6.9c-0.6-1.4-0.5-2,0.8-2.8c2.6-1.8,5.4-4.4,8.7-2.3c1.9,1.2,3.9,1.8,5.7,3c1.5,1.1,3.4,1.3,5.1,0.6
		c0.5-0.4,1.1-0.4,1.7-0.2c5,2.6,10.6,3.6,14.9,7.5c0.9,0.8,1.8,1.4,2.8,2c1.1,0.7,1.9,0.8,2.9-0.5c2.1-2.5,3.8-2.3,5.6,0.3
		c0.4,0.6,0.8,1.4,1.5,1.2c4.3-1.3,8.3,1.4,12.5,0.9c3.5-0.4,9.5,4.2,9.7,7.8c0.3,3.8,3.4,5.2,5.8,7.1c0.3,0.2,1,0.3,1.1,0.1
		c2.1-2.2,5.4-1.7,7.8-3c0.7-0.5,1.6-0.6,2.4-0.2c5.4,2.1,7,2.1,13.3,0.3c1.6-0.5,2.7,1.5,4.9,0.2c-1.5,3.5-0.7,5.2,2.6,5.5
		c0.9,0.1,2.1,0.7,2,1.5c-0.8,3.3,2,4.5,3.5,6.2c0.6,0.8,0.9,1.7,0.9,2.7c0.3,2.9,1.8,5.4,3.4,7.7c0.8,1.3,0.8,1.8-0.2,2.4
		c-2.2,1.6-1.5,2.9,0.4,4c1.5,0.8,1,1.4-0.1,1.8c-2.7,1-2.6,3.6-3.8,5.6c0.5,0.2,0.7,0.4,0.8,0.3c4.7-1.6,6.3-0.8,7.1,4.1
		c0.4,2.3-2.2,2.8-3.7,3.8c-0.7,0.4-1.6,0.3-2.2,0.7c-0.5,0.4-0.8,0.9-0.9,1.5c-0.2,0.9,0.7,0.7,1.2,0.8c2.9,0.7,2,3.3,2.1,5.1
		c0.2,2.9,0.9,4.6,4.2,4.6s6.5,1.3,10.1,0.9c3-0.3,4.1-1.6,4.4-3.9c0.2-1.9,0.6-1.9,1.8-0.7c1,1.1,1.7,0.7,2-0.6s1.5-2.1,2.8-1.9
		c0.1,0,0.3,0.1,0.4,0.1c1.1,0.2,2.1,0.2,3.2,0.2c4.7-0.1,5.2-0.5,5.8-5.1c0.2-1.4,0.2-2.5,2.4-1.4c2.2,1.1,5,1.9,7-0.9
		c0.8,1.3,0,3,1.1,4.2c0.2,0.7,0.2,1.3,0.1,2c-0.5,1.8-0.7,3.6,0.6,5.2c0.4,0.4,0.8,0.7,1.2,1c1,0.5,2,0.9,3.1,1.2
		c0.7,0.3,1.5,0.3,2.2,0.1c1.1-0.2,2.3,0,3.3,0.7c0.7,0.5,1.3,1.3,1.5,2.2c0.1,1.9,0.1,3.7,0,5.6c-0.1,0.6-0.4,1.1-0.5,1.7
		c-0.3,2,0.6,2.2,2,1.2c0.8-0.6,1.8-0.7,2.7-0.2c0.7,0.3,1.4,0.6,2.1,1c0.5,0.5,0.1,1.2,0.3,1.8c-0.4,0.9-0.9,1.8-1.5,2.6
		c-0.6,1-0.4,2-0.7,3c-0.7,1.9,0.2,3.5,0.4,5.3c-1,2.5-2.8,3.1-5.3,2.4c-1.7-0.1-2.7,1.7-4.4,1.6c-2.1-0.2-4.3,0-6.3,0.8
		c-2.7,1-5.7,0.2-8.8,1c1.6,0.8,2.3,2.7,1.6,4.3c-0.2,1,0.2,2,0.9,2.7c1.2,1.5,1.4,2.9-0.4,4c-1.4,0.8-1.8,2.5-1.1,3.9
		c0.5,1.6,2,2.6,3.6,2.5c2,0,3.9-0.3,4.4,2.2s-0.8,5.5-2.8,6.4c-1.2,0.5-2,1.6-2.4,2.8c-0.5,0.8-0.5,1.8,0.1,2.5
		c1.4,1.9,1.1,4.2,2.4,6.1c0.8,1.1-0.4,2.5-2.1,2.7c-0.8,0.1-1.7-0.7-2.4,0.2c-0.4,2.1-1.6,3.9-2.2,5.9c0,0.6-0.8,1.2,0.5,1.6
		c3,0.8,3.2,1.7,1.3,4.1c-0.8,0.8-1.7,1.3-2.8,1.6c-1.1-0.1-2.1-0.4-2.6,1.1c-0.7,1.7,0,2.8,1.3,3.8c0.1,0.3,0.2,0.5,0.3,0.8v0.9
		c-1.9,2-2.7,4.8-2,7.5c0.3,1.9,0.2,3.8-1.7,5c-1.2,0.9-2.2,2-3.1,3.2c-1.7,1.4-3.5,2.6-5.4,3.6c-0.7,0.4-1.6,0.7-1.2,1.7
		c0.3,0.5,0.9,0.8,1.5,0.6c0.1,0,0.2-0.1,0.3-0.2c2.3-1.4,4.1-1,5.6,1.3c1.4,2.1,1.2,4.9-0.6,6.7c-0.6,0.6-1,1.4-1,2.3
		c0.2,1.4-0.6,2.8-1.9,3.4c-1.5,0.7-1.2,1.9-0.8,3c0.3,0.8,0.3,1.7,0,2.5c-0.6,1.2-1.4,1.9-2.7,1.6c-0.8-0.3-1.8-0.1-2.4,0.6
		c-0.8,1.1-2.2,1.3-2.8,2.5c-1.1,1.1-2,0.5-3-0.1c-2-1-3.6-2.8-4.3-4.9c-1.4-0.9-1.7,0-1.9,1.1c-0.1,0.9-0.9,1.6-1.8,1.6h-0.1
		c-1.5-0.2-1-1.4-0.9-2.3s0.6-2.1-0.8-2.7c-2,0.5-4.1-1.2-6,0.3c-0.7,0.7-0.5,1.8-0.8,2.5c-0.4,0.7-0.7,1.5-0.9,2.3
		c0,1.1-0.2,2.2-0.4,3.3c-0.4,0.9-0.9,1.8,0.2,2.5c1.9,1.4,1.1,2.5-0.1,3.8c-1,0.9-1.9,1.9-2.7,2.9c0.9,1.9,1.6,3.7,3.5,5.1
		c1.4,1,1.4,3.6,2.2,5.5c0.4,0.6,0.9,1.3,1.5,1.8c1.7,1.8,1.4,2.8-1,3.4c-0.4,0.1-0.8,0.2-1.2,0.1c-3.4-1-6,0.8-8.6,2.6
		c-1.2,1.1-1.2,1.1-0.7,1.4c1.7,0.6,2.9,1.9,4.6,2.4s2,1.7,1,3.1c-2,1.5-1.4,2.9,0,4.3c0.3,0.3,0.4,0.8,0.1,1.2
		c-1.1,1-2.8,1-3.9-0.1c-0.6-0.6-1.4-1-2.2-1.1l-2.1-0.3c-1.4-0.4-2.9-0.5-4.3-0.3h-0.8c-1.1-0.2-2.2,0-3.2,0.4
		c-0.4,0.2-0.8,0.3-1.2,0.2c-1.1-0.5-2.3-0.7-3.5-0.7c-1.2-0.2-2.3-0.7-3.5-0.2s-2.3-0.1-3.3,0.8s-1,2-1.4,3.1
		c-0.7,0.7-1.6,1.2-2.5,1.5c-1.2,0.4-2.4,0.1-3.6,0.6c-2,0.9,0,2.5-0.7,3.6c-1.3,1.8-0.1,3.1,0.7,4.5c0.3,0.6,0.4,1.3,0.3,2
		c-0.4,0.7-1.2,1.1-1.7,1.7c-1.1,1.1-2.5,1.2-3.9,1.5c-0.7,0-1.4,0.2-2.1,0.5c-0.8,0.4-1.6,0.7-2.5,0.9c-1,0-1.4-1.1-2.3-1.1
		c-0.6,0.2-1.3,0.1-1.9-0.1c-1-1.2-2.3-2.1-3.7-2.6l-1-0.7c-0.5-0.3-0.8-0.8-1.8-0.8c0.8,1.3-0.7,2.6,0.4,3.9
		c0.7,0.6,1.5,1.1,2.2,1.6c2.3,1.2,1.5,2.6,0.2,4.1c-0.4,0.7-1,1.2-1.7,1.6c-0.4,0.3-0.7,0.7-0.9,1.1c-0.4,1.6-1.6,2.6-2,4.2
		c-0.1,0.8-0.5,1.6-1.2,2.1c-2,0.5-4.2,0.6-5.2,2.8c-2.4,1.6-3.4,4-4.2,6.6c-1,1.2-2.4,2-4,2.2c-2.6,0.2-5.3,0.1-7.7,1.2
		c-1,0.4-2,0.6-3,0.6c-1.8-0.1-2.8-1.2-3.8-2.5c-0.4-0.5-0.7-1.7-1.8-0.7c-0.6,0.8-1,1.8-1.2,2.8c-0.8,1.1-1.2,2.4-2.4,3.1
		c-0.4,0.1-0.8,0.2-1.2,0.1c-0.9-0.2-1.9-0.3-2.8-0.5l-1.9-0.6c-2.1-0.7-2.9,0.5-3.4,2.2c-0.2,0.4-0.6,0.7-1,0.8
		c-1.1,0.3-2.2,0.5-3.3,0.7c-2.2,0.3-4.4,0.1-6.5,0.9c-1.1,0.4-2.4,0.1-3.3,1.1c-0.4,0.4-0.9,0.7-1.4,0.8c-1.4,0.3-2.8,0.8-4.1,1.6
		c-0.3,0.1-0.5,0.2-0.8,0.3c-2.8,0.7-5.7-1-6.4-3.8c-0.7-1.8-2.1-2.1-3.6-2.6s-2,0.1-2.3,1.4c-0.2,0.8-0.5,1.6-0.8,2.4
		c-0.4,0.9-1,1.8-1.8,2.5c-1.8,0.6-3.3,0.7-4.7-0.9c-0.5-1-1.2-1.9-2-2.7c-0.2-0.2-0.4-0.4-0.5-0.7c-1.1-1.3-1.5-3.4-3.7-3.4
		c-0.3,0.2-0.7,0.4-1.1,0.5c-1.1,0.1-2.1,0.8-2.5,1.9c-0.4,2.7,0.4,5.7-0.6,8.3c-1.1,1.1-2.3,0.9-3.6,0.8c-0.3,0-0.6-0.1-0.9-0.2
		C58.9,381.7,57.7,382.1,57,381.1z"/>
	<path class="st2" d="M215.7,318.2c1-1.4,1.3-2.1-1-2.5c-1.8-0.3-3.3-1.7-5.1-2.5c0.4-0.6,1.4-0.9,1-1.9c2.6-2.2,5.3-4.5,9.3-3
		c0.7,0.3,2.4,0,2.8-1c0.5-1.3-1.3-1.2-1.8-2c-0.4-0.5-1-1-1-1.8c0-1.7-1.2-3.1-1-4.8c0-0.3-0.1-0.8-0.3-0.8c-3.5-0.2-2.8-4-4.7-5.6
		c0.7-0.9,1.6-1.7,2.5-2.4c1.7-1.3,3-2.2,0.1-3.8c-1.6-0.8-0.3-1.8,0.4-2.5c1-1.3,0.6-2.6,0.3-4c0.4-0.6,0.7-1.2,1.1-1.8
		c0.7-1,0-2.1,0.5-3.2c0.9-1.5,2.2-1.2,3.4-0.8c1.2,0.3,2.5,0.5,3.8,0.5c1.4,1,1.1,2.4,0.6,3.6c-0.4,0.8-0.8,1.6,0.2,1.9
		s2.5,0.2,2.5-1.3c0-2.2,1.3-2,2.7-2c0.7,2.1,1.8,4,4.1,4.8c0.4,1.2,0.9,2.3,2.3,0.9c0.6-0.8,0.4-2,2-2c0.8,0.1,1.1-0.7,0.6-1.5
		c1-0.6,1.8-1.8,3.1-0.6c0.9,0.8,1.4-0.1,1.9-0.7c0.8-0.6,0.9-1.8,0.3-2.6l0,0l0,0l-0.2-0.2c-1.6-1.7-1.3-2.9,1-3.6
		c0.1,0,0.2-0.1,0.3-0.1c0.8-0.3,1.7-0.8,1.4-1.7c-1.1-3.5,5.3-5.9,1.5-10c-1.4-1.6-2.4-2.5-4.3-0.8c-1,1-1.8,0.8-2.8,0.1
		c-0.6-0.4-1.2-0.8-0.7-1.6c0.5-0.8,0.6-1.8,1.9-2.2c2-0.7,3.6-2.2,5.5-3.4c1.4-0.6,2.4-1.7,2.9-3.1c2.1-1.4,1.8-3.7,1.4-5.5
		c-0.7-2.9-0.2-5,2.3-6.5c2.9-0.8,3.2-0.5,2.7,2.8c0,0.5,0.4,0.6,0.8,0.6s0.3-0.4,0.4-0.6c0.3-0.8,0.9-1.4,1.7-1.7
		c2.6-1,2.6-2.5,1.3-4.6c-0.2-0.6,0.2-1.5-0.9-1.6c-0.2,0.1-0.3,0.3-0.4,0.5c-0.4,1.4,1,3.1-1.1,4c-1.5,0-3,0.4-4.5-0.4v-0.5
		c0-1.9,0.6-3.8,1.7-5.4l2.3-1.8c1.9-0.5,1.9-1.9,1.2-3.1c-0.9-1.7-1.9-0.5-2.7,0.3c-0.9-1-0.5-1.9-0.3-2.8c0.3-2.3,2.4-3.9,2.3-6.3
		c0.5,0.5,0.6,1.3,0.3,1.9c-0.3-1.3,0.8-1.6,2.1-1.6c1.1,0.1,2.1-0.7,2.3-1.8c0.3-1.4-1.1-1.1-1.7-1.6s-1-1-0.5-1.8
		c1-1.5,0-2.3-0.8-3.3c-0.2-0.9-0.2-1.7,0-2.6c0.6-1.7,0.8-3.3,3.2-3.4c1.8-0.1,2.9-5.5,1.6-6.8c-0.5-0.5-1.2-0.8-1.9-0.7
		c-4.2,0.6-6.2-1.4-6.1-5.5c0-1.2,0.4-1.6,1.3-1.9c2.2-0.8,2.1-1.9,0.6-3.3c-1.1-1-1.8-2.2-0.9-3.6c1.3-1.9,0.2-2.4-1.2-3
		c-0.6-0.3-1.6-0.3-1.3-1.3c0.2-0.6,0.9-1,1.5-0.8h0.2c2.1,0.4,4.4-0.8,6.6,0.2c1.2,0.6,1.8-1.1,2.8-1.3c2-0.4,3.8-1,5.8-0.1
		c1.5-0.1,2.9-0.7,3.9-1.8c2.1,0.5,4,0.2,5.3-1.8c-0.1-0.6,0.2-0.8,0.7-1c2.6-1,5.6-1,8.1-2.3c1.3-0.8,3.1-0.3,3.9,1v0.1
		c0.1,0.3-0.1,0.5-0.3,0.7s0.2,0.1,0.2,0c0.9-0.3,1.8-0.5,2.8-0.6c2.3-0.3,4.5,0.8,5.7,2.8c0.3,0.9,1.2,1,1.9,1.1s-0.2-0.5,0.2-0.7
		c2.2-1.9,4.5-3.2,7.4-1.4c0.9,0.9,1.5,2.2,3,2c0.8-0.1,1.6,0.5,1.8,1.3c-0.1,0.8,0.1,1.7,0.5,2.4c-0.9,1.2-2,2.2-3.4,2.9
		c-1.2-0.2-0.7,1.4-1.6,1.6c-1.6,1.7-1.4,4-2.2,6c-0.5,0.9,0.6,2.5,2.1,2.5c2-0.1,2.5,1,2.6,2.7c0,0.5,0,1,0.2,1.5
		c1.1,2.3,1,4-2,4.4c-0.6,0.1-0.6,0.7-0.8,1.2c-0.2,0.9-0.6,1.7-1.7,1.8c-1.3-0.2-2.7,0.1-3.5-1.3c-0.4-0.4-0.8-0.9-1-1.4
		c0-3.1-2.9-2.9-4.6-4.2c0-0.9,0.5-1.1,1.2-0.7c-0.1-0.1-0.1-0.2-0.2-0.2h-0.3c-0.9,0.4-1.4,1.5-1,2.4v0.1c0.1,0.3,0.4,0.6,0.7,0.8
		c2,0.4,3.1,2.3,5,2.9c0.3,0.4,0.6,0.9,0.8,1.4c0.2,0.9,0.9,1.6,1.8,1.9c0.9,0.4,1.8,0.1,2.7,0.2c2.4,1.1,4.7,2,7.4,1.3
		c2-0.5,3.5,0.2,4.1,2.6c0.6,2.7,2,3,4.1,1c2.6-2.6,6.4-3.1,8.5-1.2c-0.7,0.7-1.6,0.3-2,0.3c5.4,1,5.6,1,5.4-1.8
		c1.3-1.6,3-1.5,4.7-1.1c1.1,0.2,2.3,0.4,3.4,0.4c1.5,0.2,2.2,1.6,3.5,2.2c2,0.5,2.9,1.6,2.4,3.7s0.4,2.1,1.8,1
		c0.9-1.5,2.9-0.5,3.8-2c1.8-1.8,3.6-1.7,5.5-0.1c0.2,1,0.6,1.9,1.1,2.8c0.4,0.6,0.4-0.3,0.7-0.2c2.2-0.5,3.6,0.1,3.4,2.7
		c0,0.8,0.2,1.7,0.4,2.5c0.2,1.9,0.7,3.3,3,2.9c0.5-0.9,1.5-1.5,2.6-1.6c3.2-0.2,7,1.8,7.9,4c-0.2,1.4,0.4,2.8,1.6,3.6
		c1.4,1.3,1.8,2.6-0.1,3.8c-1.7,1,0.1,2.5-0.7,3.6c-0.2,0.2-0.4,0.4-0.6,0.5c-0.4,0.1-0.9-0.1-1.3,0c0.2,0.2,0.5,0.3,0.5,0.6
		c-0.1,1.7,0.3,3.3-1,4.9c-1.6,1.9-3.1,2.8-5.6,2c-0.6-0.4-1.1-1.1-1.9-0.5c-0.2,0-0.4,0-0.4,0.2s0.3,0.1,0.5,0.1
		c0.3-0.1,0.5-0.1,0.8-0.1c0.3,0.1,0.5,0.2,0.6,0.5c0.1,1.3,0.9,2.5,2,3.2c0.1,1.6-1.1,0.8-1.7,1c0.8,0.2,1.6,0.1,2.2-0.4
		c1.5-0.1,2.8,0.9,3.2,2.3c0,1.4-0.5,2.7-0.4,4.1c-0.7,2.3-2.6,4.1-5,4.6c-0.3,0.2-0.6-1.4-1,0c-0.1,0.4-0.8,0.6-1.3,0.6
		c-1.5-0.7-3.2-0.5-4.5,0.5l-0.2-0.2c-2.9,2.2-5.8,0.3-8.7-0.2c-0.7-0.2-1.4-0.1-2,0.2c-2,2.1-1.8,6.2,0.6,9l0.6,0.6
		c1,1.1,0.5,2.3,0.5,3.5c0,0.7,0.4,0.5,0.8,0.5c3.1,2,6.7,1.6,10.1,1.9c2,0.2,4,0.2,4.9,2.4c0.2,0.5,0.6,1.1,1,1
		c2.8-0.6,3.9,1.3,4.9,3.3c0.2,0.5,0.7,0.8,1.2,0.9c4.6,0.7,5.7,4.7,7.5,7.8c0.8,1.3,1.6,1.7,2.8,1.2c1.4-0.6,2.9-0.7,4.4-0.4
		c1.2,0.4,2.5,0.4,3.7,0.1c0.8,0.2,1.5,0.2,2.3,0.1c-0.7,0.1-1.4,0-2-0.2c0.4-2,2.8-1.4,3.8-2.8c0.8-0.7,2.1,0.2,2.8-0.9
		c1.2-1,2.4-0.4,3.6,0c1.1,0.8,2.5,1.2,3.9,1.1c1.2,0.1,2.2-0.3,3.3-0.3c0.3,0,0.6,0.1,0.8,0.3c1.1,0.8,2.3,1.4,3.6,1.8
		c1.8,0.3,2.8,1.2,2.1,3.1h0.3c0.1,0,0.2-0.1,0.3-0.1c1.9,1.7,2.2,4.5,0.9,6.7c-1.3,2.3-1,3.9,1.2,5.2c-0.4,1.7-1.9,3-3.7,3
		c-3.4,0.2-5.7,2.9-8.7,4.2c-7.5,2.9-15,6-22.3,9.2c-3,1.4-5.9,3.4-8.9,4.6c-6,2.2-10.4,6.4-15.3,10.3c-4,3.2-8.9,4.5-13.6,6
		c-5.6,1.9-10.1,4.6-12.6,10.2c-1.9,4.2-4.4,8-8.7,10.2c-0.6,0.5-1,1.2-1,2c-0.2,1.9-1.4,3.6-3.1,4.4c-1,0.6-1.6,1.7-1.5,2.9
		c1.3,4.9-2.4,7.1-5.4,8.8c-6,3.2-12.6,5.6-19.6,5.2c-7.2-0.5-13.5,2-19.5,5.6c-2,1.3-4.2,0.1-6.3,0.4c-1.6,0.2-3.2,0.8-4.6,1.6
		c-3.4,2-7.5,2-11.2,3.1c-4.1,1.3-7.9,3.3-12.3,3.6c-0.3-0.3-0.5-0.7-0.4-1.1c0.2-0.6,0.5-1,1-1.4c1.2-0.8,0-0.9-0.3-1.2
		c-0.6-0.6-0.6-1.3-2-1.5c-3.4-0.2-6.5-1.8-8.7-4.3c0.5-3.9,0.7-4,4.4-2.8c2.3,0.7,3-0.1,2.9-3.3c-0.3-0.7-0.2-1.4,0.2-2
		c0.6-0.5,1.1-1.3,1.3-2.1c0.1-0.7-0.4-0.3-0.7-0.2s-0.5,0.2-0.8,0.3c-3.4,1-3.9,0.7-5-2.5c-1.2-1.7-4.1-2-3.6-4.9
		c0.7-1.6-1.1-3.1,0-4.7c1.9-2.7,1.6-3.2-2.2-4c-0.3-0.1-0.5-0.3-0.7-0.5c-0.7-1.8-2.4-3-4.3-3c-0.4-0.1-0.8-0.3-1.1-0.6
		c-1.3-0.8-2.1,0.3-3.2,0.6c-2.1,0.4-1.9-1.2-1.4-2.1c0.6-1.1,0.5-2.5-0.1-3.6c0.3-1.4-2-2.7,0.1-4c-0.5-0.6-1.3-0.4-1.9-0.6
		c-1.5-0.7-1.5-1.7-0.6-2.8c0.6-0.8,1.3-1.6,2.1-2.2c1-0.6,0.7-1.3,0.1-2c-0.8-0.1-1.4-0.6-1.6-1.4c-0.5-2-2.3-1.7-3.7-2.1
		c-2.6-1-5.6-1.2-7.5-3.6c-0.2-1.3-0.6-2.5-0.1-3.8c0.6-1.2,1.8-1.9,3.1-1.9c1.1-0.2,2.1-0.5,3-1.1c1.3-0.6,1.9-1.4,0.5-2.2
		c-1.6-1.1-0.9-1.9,0-2.8c1.1-0.7,1.8-1.4,0-2.1c-1.5-0.7-2.8-1.5-4.7-0.8C216.4,320.2,214.9,320.3,215.7,318.2z"/>
	<path class="st1" d="M233.7,358.3c0,0.2,0.2,0.3,0.4,0.4c2.2,0.3,4.4,0.9,4.9,3.6l0,0c0.5,0.3,1.1,0.5,1.7,0.5
		c1.1,0,2.2,0.7,2.5,1.8c0.5,1.2-0.9,1.6-1.4,2.3c-0.5,0.4-0.7,1-0.4,1.6l0.3,0.3c0.7,0.6,0.8,1.6,0.4,2.4c-0.1,2.8,2.5,3.1,4,4.5
		c-0.1,1.1-1.1,2,0.4,3s2.6,0.5,3.8-0.4c0.2,0,0.3,0.1,0.5,0.1c1.3,1,1,2-0.2,2.8c-0.4,0.4-0.6,0.9,0,1.3c1,1.7,0,2.9-1,3.9
		c-0.7,0.8-1.7,0.6-2.6,0c-3.2-1.6-3.8-1.2-3.5,2.4c0.2,1.6,1.6,1.7,2.6,1.9c0.9,0.1,1.7,0.3,2.4,0.8c2.5,2,2.5,2,5.1-0.1
		c0.1,1.2,0.2,2.2,0.3,3.4c0,0.8-0.1,1.7-0.5,2.4v1.2c-5.9,1.4-11.9,1.6-17.8,2.9c-6.5,1.5-12.8,4.2-18.4,7.8
		c-3.9,2.2-8.4,3.2-12.8,2.7c-2.6-0.3-5.3,0.3-7.5,1.7c-2.9,1.6-6,2.7-9.3,3.3c-3.7,0.9-5.7,4-6.6,7.3c-0.8,2.6-1.4,3.2-3.4,1.1
		c-2.3-2.4-5.3-2.8-8.4-1.4c-1.8,1-3.9,1.4-6,1.1c-1.6-0.1-3.2,0.3-4.5,1.2c-5.4,2.9-11.2,5.2-14.9,10.5c-3.3,4.9-8.7,7.9-12.2,12.6
		c-2,2.5-4,5.3-5.9,8c-3.2,4.8-7.1,9.2-11.5,13c-2.8,2.5-4.6,6.2-8.3,8.2c-0.9,0.5-0.5,1.6-0.1,2.4c1.8,3.6,4.4,6.3,8.5,6.9
		c2,0.3,4.1,0.1,4.2-2.7l0,0c2.2,2,3.8,4.5,5.6,6.8c1.5,1.9,2.8,2.9,5.6,2.2c3.4-0.9,4.8,1,3.7,4.3c-1.3,4.2-4.6,6.2-8.1,8.2
		c-3.8,2-8,3.5-11.3,6.4c-0.7,0.6-1.2,0.3-1.9,0.2c-3.7-0.5-7.3-0.5-10.8,1.4c-2.7,1.4-5.8,2.1-8.9,1.8c-1.5-0.3-3,0.3-3.9,1.6
		c-2.6,3.2-5.6,6.2-8,9.5c-1.5,2.3-2.7,4.7-3.6,7.3c-0.6,1.5-1.2,2-2.7,1.4c-2-0.8-4.1-1.4-6.1-2.2c-4.3-2-4.7-3.4-2.9-8
		c-2.4-0.9-4.5-2.5-6-4.6c-1-1.3-2.6-1.9-4.2-1.6c-4.2,0.5-8.4-0.7-11.7-3.2c-1.3-1-3-0.5-4.1-2.4c-1.6-3-1.7-5,0.6-7.4
		c1-1.1,2.6-2.6,1.5-3.6c-1.6-1.4-2.5-4-5.4-3.6c-3.1,0.4-4.4-0.5-4.5-3.6c-0.1-2.4-1-2.5-2.6-1.5c-2.1,1.4-3.7-0.1-5.6-0.4
		c-0.5-0.1-0.9-1.1-0.6-1.2c1.3-0.5,0.5-2.8,1.8-2.5c1.5,0.3,1.8-0.8,2.6-1.2c1.3-0.6,2-2.1,3.8-1.9c1.3,0.2,1.9-1.6,1.8-2.3
		c-0.2-1.3,0.5-2.6,1.8-3.1c2.2-1.3,2.6-4.1,4.7-5.6c0.9-0.6,0.2-1.2-0.2-1.8c-2.1-2.4-3.1-5.6-2.8-8.8c0-0.3,0.1-0.7,0-0.9
		c-2.9-3.1,0.5-6.1,0.1-9.2c0-0.6,0.2-1.2,0.7-1.6c3.3-2,2.9-6,4.8-9c0.5-0.8-1-2.9-1.9-4.3c-0.6-1-1.6-1.5-0.8-3s-2-0.8-2-2.1
		c0.5-1.7,2.7,0.6,2.7-1.1c0-1.5-1.8-1.2-2.7-1.8c-0.4-0.3-0.8-0.6-1.1-1c-0.8-1.9-1.8-1.6-3-0.3c-0.6-2-0.2-4-2-5.3
		c-0.7-0.5-0.3-1.3-0.3-2c-0.1-1.3,0.6-2.8-2-3.1c-1.7-0.2-1-2.3-0.7-3.5c0.4-1.3,0.6-2.6,0.5-3.9c-0.2-1.9,2.2-2.2,3.4-1.9
		c2.4,0.9,3.7,0.4,4.3-2.1c0.2-0.9,0.9-1.1,1.8-1.3c4.4-1,5.5-2.4,6.2-6.6c0.4-2.6,1.2-5.2,2.2-7.6c0.8-1.6,2.6-2.4,4.3-2
		c1.4,0.4,2.5,0.8,2.6-1.3c0.1-1.4,1.6-0.1,2.1-0.9c-0.7-2.7-0.4-5.6,1-8.1c1-0.4,2-0.4,3,0h-0.1c1.3,0.7,2.6,0.2,3.9,0.3
		c1.3-2,0.9-4.1,0.8-6.1c-0.1-0.9,0-1.9,0.2-2.8c0.6-1.3,1.8-1.5,2.8-2c0.1-0.2,0.2-0.3,0.3-0.5c1.5-0.8,2.2,0.4,2.9,1.2
		s1,1.9,2,2.3c0.1,0.2,0.2,0.3,0.1,0.5c0.4,1.1,1.4,1.8,1.7,2.8c1.3,2.3,3,1.8,4.9,0.8c-0.3-1.1,0.5-1.5,1.1-2
		c0.6-0.6,1.1-1.4,1.3-2.3c0.3-1,0.5-2.2,1.8-2c1.6,0.4,3.2,0.8,4.2,2.4s1.4,3.2,3.1,4.1c1.4,0.6,2.8,0.9,4.1-0.2l0,0
		c1.3-0.9,2.9-0.8,4.2-1.8c0.4-0.2,0.8-0.4,1.3-0.6c1-1.1,2.3-0.8,3.5-1c2.3-1.1,4.9-0.6,7.3-1c0.9-0.6,2-0.2,2.7-1.1
		c0.2-0.2,0.4-0.3,0.6-0.5c0.2-2.3,1.8-2.6,3.6-2.5c0.7,0,1.4-0.4,1.8,0.5c1,0.9,2.2,0,3.3,0.7c0.2,0,0.5-0.1,0.7-0.1
		c2,0,1.6-2.1,2.5-3.1c-1.4-1.3,0.8-1.8,0.7-2.7c1.1-0.7,1.8-0.2,2.4,0.8c0.6,1,1.4,2.4,2.9,2.6c1.4,0.2,2.8-0.1,4-0.8
		c2.5-1.1,5.3-0.7,7.9-1c1.1-0.9,3.4-0.2,3.3-2.5c0.4-2.6,1.1-5.2,4-6.2c1.4-2,3.6-2.3,5.7-3.1c0.2-0.8,0.5-1.5,0.7-2.2
		c1.2-0.6,2-1.8,2.2-3.1c0.1-0.8,0.7-1.5,1.5-1.8c0.6-0.2,0.6-0.8,0.9-1.3l0.6-0.6c1.9-2,1.9-2-0.8-3.3c-1.1,0.2-1.5-1-2.2-1.3
		c-0.3-2,0.2-3.5,2.2-4.1c0.3,0.2,0.5,0.5,0.8,0.7c1.2,1.1,2.8,1.4,3.7,2.9c0.6-0.2,1.1-0.3,1.7-0.5c1,0.3,1.1,1.9,2.3,1.6
		c0.5-0.9,1.6-0.8,2.2-1.3c0.8-0.1,1.6-0.2,2.4-0.5c1.2-0.5,2.3-0.9,3.4-1.4c0.8,0.1,1.4-0.5,2-0.7c0.6-0.9-0.3-1.4-0.6-2
		c-1-1.6-3.6-2.8-0.8-5c0.9-0.8,0.4-1.8,0.1-2.5c-0.2-0.4,0-0.9,0.4-1.2c0.1,0,0.2-0.1,0.3-0.1c1.1-0.9,2.4-0.4,3.6-0.5
		c1.1-0.3,2-0.8,2.8-1.6c-0.8-1.3,0.2-2.2,0.5-3.3c1.4-1,2.8-0.2,4.3-0.5c1.3-0.6,2.4,0.5,3.7,0.1c1.2-0.2,2.5,0.1,3.4,0.9
		c0.3-0.2,0.6-0.5,0.8-0.8c0.9-0.3,1.9-0.3,2.8,0c1.7,0.4,3.4,0.1,5.2,0.3c0.9,0.2,1.8,0.3,2.7,0.3c0.9,0.1,1.7,0.6,2.2,1.3
		c1.4,1.5,2.6,1.3,4,0.1c-0.2-0.2-0.4-0.4-0.7-0.6c-0.3-0.8-1.5-1.8-0.5-2.2c1.3-0.7,2.6-1.7,4.3-1.5c1.3,0.3,2.5,0.9,3.5,1.8
		c1.7,1.3-0.3,1.6-0.9,2.1c-0.9,1-2.1,1.9,0.3,2.5c0.5,0,1,0.5,0.9,1.1l0,0v0.1l0,0v0.4c-0.1,0.7-0.6,0.8-1.3,1
		c-1.6,0.4-2.8,1.6-4.6,1c-0.8-0.2-1.3,0.8-1.7,1.4c-0.5,1.3,0,2.5,0.3,3.7c1.3,1.3,2.9,2.1,4.7,2.3c1,0.2,2,0.7,2.7,1.4
		c1.3,0.7,3.4,0,3.8,2.2c0.3,0.8,1,1,1.6,1.4c0.6,0.6,0.6,1.6,0,2.2c-0.6,0.9-1.3,1.7-2,2.5c-1,1-0.8,1.7,0.3,2.4
		c0.4,1.5,1,2.9,1.6,4.3c0.3,1.3,1.8,2.4,0.3,4c-0.5,0.5-1,1.9-0.3,2.4c1.1,1,1.6-0.8,2.4-1C232,358.7,232.8,356.9,233.7,358.3z"/>
	<path class="st15" d="M408.5,286.2c-0.4,2.5-2.8,1.4-4.2,2.3c-0.2,0.2-0.4,0.4-0.7,0.5c-1.1,0.4-2.2,0.1-3.3,0.2
		c-1.7-0.2-3.4,0.1-4.9,0.8c-0.8,0.4-2,0.5-2.1-0.1c-0.7-2.2-3-3.7-3.2-5.9c-0.2-1.9-1.1-2-2.3-2.3c-2.3-0.8-5-1.1-5-4.6
		c0-1.1-1.1-0.5-1.6-0.3c-1.5,0.6-2.9,0.2-3.1-1.2c-0.4-2.8-2.3-2.8-4.1-2.4c-2.7,0.6-5.3-1.5-8-0.5c-1.6,0.5-1.8-1.5-2.8-2.1
		c-1.3-1.1,0.7-3.2-1.3-4.1h0.1c-1.7-1-2.7-2.2-1.9-4.3c0.2-0.7,0.1-1.4-0.3-2c-0.7-1.4-0.1-2.4,0.8-3.4c1.9-1.1,3.5,0.1,5,0.8
		c1.9,0.9,3.4,1.3,4.9-0.5c0.3-0.4,1-0.5,1.4-0.2c1.4-2.5,3-1.6,4.8-0.5c0.6-0.2,1.2-0.4,1.9-0.4c1.7-1.6,4-2.4,4.7-4.9
		c0.5-1.2,0-2.4,0.5-3.6c-0.4-1.6-1.8-1.9-2.8-2.5c-0.3,0-0.6-0.1-0.7-0.4c-3.3,0.5-2-2.2-2.4-3.6c-0.1-0.6,0-0.9,0.7-0.7
		c2.9,0.6,5.9-1.1,6.3-3.6c0.1-0.4-0.1-0.8-0.4-1c-2.1-1.3,0.3-1.3,0.5-1.9c0.2-0.3,0.4-0.5,0.8-0.4c0.2,0,0.3,0,0.5-0.1
		c0.5-0.7,0.5-1.6,0-2.3c-0.4-0.5-0.4-1.2,0.1-1.7c0.1-0.1,0.3-0.2,0.5-0.2c1.9-1.2,1.4-2.2-0.1-3.2s-2.5-2-1.2-3.9
		c-0.1-1.4-0.4-2.5-2.1-2.2c-0.6,0.2-1.3-0.1-1.5-0.7c-1.1-1.9-2.5-1.3-4-0.7c-0.9,0.4-1.8,1-2.4,1.8c-1.8,0.1-3.4-1.2-3.5-3
		c-0.8-1.2-1.1-2.6-1-4c0.4-2.5-2-0.9-3.1-1.5c-0.6-0.6-1-1.4-1.2-2.2c-1.9-1.7-3.7-1.6-5.6,0c-1.2,0.6-2.7,0.4-3.6,1.6
		c-2.7-0.1-1.9-2.1-2-3.6c-0.5-1.2-1.7-0.6-2.4-1.1c-1.1-0.7-1.7-2-3.1-2c-1.4,0.4-2.9,0.3-4.2-0.3c-1.4-0.5-3-0.2-4.1,0.8
		c-0.2,0.9-0.6,1.7-1.1,2.4c-0.4,0.7-1.2,1.1-2,0.8c-1.1-0.3-0.8-1.2-0.6-2c-3.5-1.2-6-0.5-8.1,2.2c-0.6,0.7-1.2,1.5-2.1,1.2
		c-1.3-0.4-2.8-1-2.7-2.2c0.2-4.1-2.5-3.5-4.6-2.8c-2.8,0.9-4.6-0.6-6.5-1.8c-0.8-0.1-1.6,0.3-2.2,0c-1.4,0.3-1.8-0.9-2.3-1.7
		c0.9-1,2.3-1.4,3.5-0.9c0.9-0.2,1.2-0.9,1.2-1.8c-0.2-1.3,0.8-1.1,1.5-1.1c3-0.2,3.5-1.1,2-3.8c-0.1-0.2-0.2-0.3-0.3-0.5
		c-0.6-1.3,0.5-2.8-0.9-3.9c-0.3-0.1-0.6-0.1-0.9-0.1c-3.5-0.1-4.2-1.4-2.4-4.6c0.7-0.9,0.4-2,0.6-2.8c0.1-0.4,0.4-0.7,0.7-1
		c0.8-0.4,1-1.2,1.6-1.7l3.5-3c0-0.7-0.1-1.4-0.3-2c-0.4-0.7-1.2-1.1-2-1c-1.5,0.1-1.9-1.4-2.9-1.9c-2.8-2-5-0.1-7.2,1.2
		c-1,0.7-1.6-0.1-2.2-0.6c-1.4-1.6-3.4-2.7-5.5-2.8c-1-0.2-2,0.5-2.8-0.1c-1.7-1.4-3.1-1.4-5.1-0.2s-4.6,1.4-6.9,1.5
		c-1.4-1.1-1.2-2.6-1.1-4.1c0.9-1.3,0-2.8,0.7-4.2c0.7-0.6,0.1-2.1,1.7-2.1c-0.1-0.6,0.7-1.2,0.1-1.8c-0.8-0.5-1.7-0.3-2.4-0.7
		c-1.1-1.2-1.9-0.3-2.7,0.3c-2.5,1-2.4-0.7-2.1-2.3c1-1.9,0.1-3.9,0.4-5.9c0.2-1.3-0.8-2-1.6-2.8c-1.1-0.9-2.5-1.1-3.8-0.5
		c-0.6,0.1-1.2,0.1-1.7-0.2c-1-0.7-2.3-0.1-3.3-0.9c-0.3-0.2-0.6-0.3-1-0.4c-1-1.8-1.7-3.6-0.9-5.7c0.5-0.9,0.5-2.1,0-3
		c-0.3-2.4,0-2.5,3.4-2.1c2.4,1.3,4.8,1.1,7.4,1.1c2.4,0,5.8-0.3,7.1,3.1c0.1,0.2,0.2,0.5,0.3,0.5c4,0.6,6.6,5.9,10.8,4.5
		c3.8-1.3,4.4-0.7,3.7,2.8c3.8,2.4,1.9,7,3.6,10.1s4.7,5.2,7.8,6.9c0.1,0,0.2,0.1,0.3,0.1c3.3-2.3,8-1.1,10.7-3.2
		c2.4-1.8,5.8-3.7,6.4-7.7c0.5-2.9,5-4.9,7.7-3.7c2.3,0.9,4.5,1.2,6.6-0.3c1.9-1.2,4.3-1,6.1-2.7c0.7-0.7,2.7,0.6,3.9,1.6
		s2.1,1.6,3.4,0.5c0.4-0.3,1.2-0.6,1.3-0.3c0.9,2.4,4.1,1.7,5.3,3.7c0.4,0.5,0.9,0.9,1.5,1c3.6,0.4,6.7,2.8,10.4,2.3
		c1.1-0.1,1.9,0.1,1.6,1.4c-0.3,1.9,0.7,2.7,2.1,3.4c1.8,0.7,3.3,2.2,4,4c0.6,1.5,1.4,2.3,3.1,1.7c1-0.4,1.9,0.2,2.7,0.7
		c3.4,2,5.4,1.4,7.1-2.1c0.6-1.5,2.4-2.3,3.9-1.7l0.6,0.3c3.5,2.3,7.6,1.9,11.3,2.9c0.9,0.4,2,0.2,2.7-0.5c0.7-0.8,0.7-2,0.1-2.8
		c-1.6-1.6-1.7-3.9-2.9-5.7c0.7-0.6,2.1,0.3,2.4-1c0.8-5,5.8-4.5,8.7-6.5c1.7-1.2,3.8-1,5.4,1.2c1.1,1.4,5.2,0.2,6.1-1.7
		c0.8-1.3,1.9-2.4,3.2-3.1c2-1.3,2.4-4.7,5.9-3.3c1.7-4,4-0.3,5.9-0.3s3.6,0.7,4.7-2c1.1-2.9,2.7-3,4.8-0.7c1.3,1.4,2.2,1.3,3.5,0.3
		c0.6-0.5,1.2-1.1,1.9-0.7c2,1.4,3.7,0.9,5.7-0.1c1.1-0.6,1.5,0.7,1.8,1.6c1,3.3,3.8,5.2,6,7.5c1.2,1.3,2.7,1.2,4.1-0.3
		c1.8-1.9,7.7-1,8.8,1c0.5,0.6,0.4,1.5-0.1,2.1c-2.6,4.2-1.6,9.7,2.3,12.7c0.5,0.5,0.8,1,1.1,1.6c0.9,1.3,1.8,3.5,3.5,0.6
		c0.6-1,1.9-1,2.9-1.4c1.9-0.6,1.4,1.1,1.9,1.9c0.8,1.3,1.7,2.1,3.2,1.1c0.8-0.8,2.1-0.9,2.9-0.1l0,0l0,0c0.2,0.2,0.4,0.4,0.5,0.7
		c0.4,0.7,1.3,1.1,2.1,0.9c0.9-0.1,1.8,0.5,2,1.4c0.1,0.8-0.5,1.5-1.3,1.7l0,0c-2.5,0.3-1.9,2.2-2,3.8c0.2,0.6,0.1,0.8-0.6,0.6
		c-2.4,0.5-1.1,1.9-0.6,2.8c1.2,2.8,1,3.4-2.1,4.1c-0.9,0.2-2,0-2,1.5c-0.1,1.1-0.4,0.2-0.7,0c-1.5-1.2-2.9-1.9-3.5,0.9
		c-0.3,1.2-1,1.8-2,0.7c-1.6-1.5-4.1-1.6-5.1-4.1c-0.7-1.9-2.6-1.4-4.1-0.4c-3.9,2.8-6.3,7.3-6.5,12.1c-0.3,3.5,0.3,7.1,0.6,10.6
		c0.3,3,2.7,4.6,3.9,7c0.2,0.5,0.9,0.4,1.4,0.2c0.7-0.4,1.6-0.2,2.2,0.3c3.2,2.6,5.7,6,7.3,9.9c0.3,0.5,0.2,1.2-0.1,1.7
		c-2.5,4.1-2.3,13.1,0.3,16.7c0.2,0.3,0.5,0.5,0.9,0.6c2.8,0.2,2.7,3.4,2.1,3.8c-2.4,1.9-1.5,5.1-3,7.1c-0.5,0.7-0.1,1.4-0.3,2
		c-1.3,3.4-4.6,5.4-6.1,8.7c-0.5,1-3.6,1.1-4.5,3.2c-0.4,0.5-1,0.7-1.6,0.5c-2.8-1.1-4.3,0.6-6,2.5c-1.9,2.1-3.4,4.5-4.4,7.1
		c-0.8,2.5-3.4,4-5.6,4.8s-4,2.4-6.2,3.1s-3.4,2.7-4.5,4.6c-3.2,5.3-8.6,6.6-14,7.7c-3.3,0.7-6.4,1.4-8.8,4.1
		c-1.3,1.5-4,1.6-4.1,4.2c-2,1.3-1.9-1.1-2.6-1.6c-0.7-0.3-1-1.1-0.6-1.8l0,0l0,0v-0.2l0,0c0.1-0.1,0.2-0.3,0.3-0.4
		c2.6-2.5,1.9-5.3,0.6-8c0.2-2-0.3-3.1-2.6-2.8c-1.5,0.1-2.8-0.9-3.9-1.8v0.1c-1.2-0.7-2.2,0.8-3.4,0.3c-1.6,0.3-2.8-1.3-4.4-0.9
		c-1.2-0.1-2.3-1.7-3.5,0C410.3,286.4,409.2,285.6,408.5,286.2z"/>
	<path class="st17" d="M311.4,141.5c-3.1,1.7-5.5,0.5-7.8-0.6c-1.5-0.7-0.4-1.9-0.3-2.8c0.1-2.2,2.6-2.6,3.3-4.6
		c0.2-0.6,1.8,0.4,1.4,1.1C305.8,138.3,308.1,140,311.4,141.5z"/>
	<path class="st16" d="M270.5,133.7c-1.4,0.4-4.1-0.9-2.9,2.4c-0.2,0.4-0.5,0.4-0.8,0.1c-1.9-1.2,0.2-2.8-0.4-4.1
		C267.2,133.9,269.4,132.5,270.5,133.7z"/>
	<path class="st2" d="M258.3,239.7c-0.9-1.3,1.5-4.9-2.8-3.6V235c1.9,0.9,3.6-1.6,5.5,0.2c1.6-0.2,1.3-1.1,0.9-2.1
		c-0.3-1-1-2.1,0-3.1l-0.1,0.2c2-0.8,2.3,0.2,2.2,1.8c2.4,1.9,2.3,4.4-0.5,5.7c-1.2,0.5-2.3,1.3-3.3,2.2
		C259.5,240.5,258.9,240.6,258.3,239.7z"/>
	<path class="st2" d="M258.1,229.9c0.4,2.1-0.8,3.6-1.6,5.4c-1-0.1-2.1,0-2-1.5c0.1-1.8,0-3.5,1.4-4.8
		C256.9,228,257.2,229.8,258.1,229.9z"/>
	<path class="st1" d="M222,325.8c4.3-2.9,0.7-3.5,0.1-5.2c-1.5-3.5-3.9,0.2-6,0c-0.9,0-0.2,2.4-0.7,3.5c-1.4-4.8-1.1-6.6,1.9-8.5
		c-0.2,2,0,3.4,1.7,2.3c3.8-2.4,5.1,2.3,6.2,5c1.1,2.7-1.2,2.7-2.6,3.1C222.3,326.6,222.2,326.2,222,325.8z"/>
	<path class="st18" d="M253.3,210.4c2.4-0.6,4.9-0.7,7.3-0.2c0.7,0.1,1.1,0.5,0.8,1.2s-0.7,1.4-1.7,1.4
		C257.4,212.8,255.1,211.9,253.3,210.4z"/>
	<path class="st1" d="M90.7,378.8c-1.4,0-1.7-1.3-2.2-2.1c-0.9-1.4-1.6-2.8-3.2-3.7s-2.6-0.7-3.3,1.1c-0.4,0-0.4-0.4-0.6-0.6
		c0.2-2.2,1.4-2.8,3.4-1.9c1.8,0.8,3.7,1.4,4.2,3.7c0.3,1.3,1.2,2.3,2.4,2.7C91.6,378.7,91.5,379,90.7,378.8z"/>
	<path class="st2" d="M232,276.8c-1,0.7-2.5,0.7-2.3,2.6c0.1,0.9-0.8,1.3-1.9,1.2c-0.9,0-1.6,0.1-2.2-0.7c-0.9-1.1,0.2-1.3,0.6-1.8
		c0.9-1.2,0.6-2.3-0.1-3.5c0.5-0.3,1.2-0.7,1.2,0.4c-0.1,1.6,0.7,3.2-0.9,4.9c3-0.2,2.6-1.8,2.2-3.4
		C229.8,276.4,231,275.9,232,276.8z"/>
	<path class="st2" d="M214.1,292.5c1,0.9,2.1,1.7,2.2,3.2c0.1,0.5,0.3,1,0.7,1.3c3.5,1.1,2.8,4.1,3,6.6c-0.2-1.7-2-2.7-1.6-4.9
		c0.1-0.7-2.1-0.4-2.6-2c-0.3-0.9-0.2-3-2.5-2.9C212.7,293.8,213.6,292.9,214.1,292.5z"/>
	<path class="st1" d="M162.5,337.3c-1.5,1-1.9,2.5-2.2,4.1c-1-0.5-1.7-1.1-0.7-2.1c0.5-0.5,0.7-0.9,0.1-1.5s-1.3-1.3-0.5-2
		c0.9-0.9,1.6,0.2,2.2,0.6C161.8,336.7,162.1,337,162.5,337.3z"/>
	<path class="st1" d="M144.8,367c-2.8,1.2-6,0-8.9,1.4c-0.2-0.1-0.2-0.3-0.2-0.5s0.1-0.2,0.2-0.2c2.6-1.6,5.5-1.4,8.3-1.3
		C144.4,366.5,144.7,366.5,144.8,367z"/>
	<path class="st2" d="M258.6,222.5c0.1,0.7,0.1,1.4,0.2,2.1c0.7-0.4,1-1.7,2.1-1c0.9,0.6,1.4,1.6,1.4,2.7c0,1.3-0.6,1.8-1.8,1.8
		c1-0.5,1.5-1.7,1.1-2.7c-0.2-0.6-0.8-1.4-1.6-0.8c-0.5,0.4-0.7,1.9-1.7,1S257.8,223.5,258.6,222.5z"/>
	<path class="st1" d="M132.5,368.6c-1.1,0.6-1.6,0.2-2.2-0.8c-0.9-1.2-1.3-2.9-3.2-2.7c0.8-1.6,1.6-1.7,2.6-0.2
		c0.9,1.3,1.3,3.1,3.2,3.3C132.9,368.5,132.8,368.6,132.5,368.6z"/>
	<path class="st1" d="M111.6,374.2c-2.4,1.3-5.3,0-7.8,1.1c-0.3-0.2-0.3-0.5,0-0.8c2-1.6,4.4-0.4,6.6-0.9
		C110.8,373.8,111.4,373.5,111.6,374.2z"/>
	<path class="st1" d="M215.9,323.1c-0.9,2.1-2.3,1.5-3.7,0.7c-0.8-0.5-1.5-1.1-2.1-1.8c-0.2-0.1-0.3-0.2-0.2-0.3s0.1-0.2,0.2-0.2
		c0.7-0.1,1.3,0.1,1.8,0.6C212.9,323.9,214.4,323.3,215.9,323.1z"/>
	<path class="st1" d="M79.5,378.1c-1.7,2.1-3.8,1.9-5.3-0.6c0.2-0.2,0.3-0.6,0.6-0.7C75.9,379,77.8,378.2,79.5,378.1z"/>
	<path class="st16" d="M278.9,155.4c0,1.7,0.5,2.6,2.3,1.5c0.3,0.2,0.4,0.4,0.1,0.7c-0.7,1-1.4,1.8-2.5,0.7
		c-1.5-1.3-0.8-2.5,0.1-3.8C279.1,154.8,279.1,155.1,278.9,155.4z"/>
	<path class="st1" d="M162.4,342.6c1.3-0.1,2.6,0.2,2.8,1.5c0.2,1.6-1.6,2-2.5,2.7c-0.2-0.1-0.3-0.3-0.2-0.4s0.1-0.2,0.2-0.2
		C162.7,345.1,164.9,343.6,162.4,342.6z"/>
	<path class="st1" d="M157.2,354.8c-1.7,1.6-3.9,1.8-5.7,3.1C152.4,355.2,154.7,354.8,157.2,354.8z"/>
	<path class="st16" d="M284.2,165.3c-0.2,1.6-0.1,3.3,0.5,4.8c-0.2,0.2-0.4,0.4-0.6,0.5c-0.9-1.7-1.6-3.4-0.5-5.3
		C283.9,165,284,165,284.2,165.3z"/>
	<path class="st1" d="M179.7,327.2c0.5,1.2,0.4,2.7-0.3,3.8c-0.1,0-0.2,0-0.3-0.1s-0.1-0.2-0.2-0.2c0.2-0.9-0.4-1.4-0.7-2
		c-0.3-1-0.2-2.1,1.4-2c0.1,0.1,0.2,0.2,0.2,0.4C179.8,327.2,179.8,327.2,179.7,327.2z"/>
	<path class="st1" d="M160.7,349.7c-0.7,1.3-0.5,3.3-2.8,2.9c0.7-1.5,1.5-2.8,2.1-4.3C160.7,348.6,160.3,349.5,160.7,349.7z"/>
	<path class="st1" d="M90.7,378.8c0.2-0.3,0.5-0.5,0.7-0.8c1.2,0,2.3,0.1,3.5,0.1C93.8,380.4,92.2,379.2,90.7,378.8z"/>
	<path class="st1" d="M144.8,367l-0.6-0.6c1.2-0.7,2.5-1,3.4-2.1C148,366,148,366,144.8,367z"/>
	<path class="st1" d="M118.1,370c-1.3,0.7-3,0.8-3.6,2.5C114,370,115.3,369.3,118.1,370z"/>
	<path class="st1" d="M99.1,376.4c-0.9,1.8-2.6,1.5-4.2,1.8C95.9,376.4,97.5,376.8,99.1,376.4z"/>
	<path class="st1" d="M126.4,367.9c-0.7,1.2,0.5,3.9-2.5,3.1C125.2,370.4,124.6,368.3,126.4,367.9z"/>
	<path class="st16" d="M267.4,138.6c-0.8,2,0.2,4,0.5,5.9c-1.9-1.8-1.9-3.8-1.1-6C267,138.3,267.2,138.3,267.4,138.6z"/>
	<path class="st16" d="M278.9,155.4c0-0.3,0-0.6-0.1-0.9c0-2,0.1-3.9,0.1-5.9c0.2-0.3,0.3-0.3,0.5,0
		C279.3,150.9,280.2,153.3,278.9,155.4z"/>
	<path class="st2" d="M241.1,278.8c1.6,0.8,0.3,1.7-0.2,1.7c-1.4,0.1-1.6,1.2-2.2,2c-0.2-0.1-0.3-0.4-0.2-0.6l0.1-0.1
		c0.1-0.8-0.1-1.9,1.3-1.7C240.6,280,241.1,279.4,241.1,278.8z"/>
	<path class="st1" d="M195.6,321.5c-1.2,1.5-2.5,0.4-3.9,0.1c-0.3-0.2-0.6-0.5-0.7-0.8c1.6-1.9,3,0.1,4.5,0.1
		C195.4,321.3,195.6,321.3,195.6,321.5z"/>
	<path class="st1" d="M170.9,342.1c0.2,0.7,0.2,1.7-0.8,0.9c-0.8-0.6-1.4-1.5-1.6-2.5C169.8,340.2,170.2,341.4,170.9,342.1z"/>
	<path class="st16" d="M274.1,145.6c1.4-1,2.4-0.4,3.6,0.5c0.2,0.2,0.2,0.6,0,0.8l0,0l-0.1,0.1c-1-1-2.2-0.7-3.5-0.7
		c-0.2-0.1-0.2-0.3-0.2-0.5L274.1,145.6z"/>
	<path class="st18" d="M263.4,216.4c-1,0.6-2,1-2.2,2.2c-0.1-0.9-0.1-1.6-0.2-2.5C261.9,215.1,262.6,215.9,263.4,216.4z"/>
	<path class="st16" d="M284.2,165.3h-0.7c-0.1-1.3-0.5-2.5,0.7-3.5C284.6,162.9,284.6,164.2,284.2,165.3z"/>
	<path class="st1" d="M207,321.9c-1.9,0-3.7,0.5-5.5-0.5c0.1-0.4,0.4-0.4,0.7-0.6h0.6c1.3,0.5,2.7,0,4,0.3
		C207.1,321.2,207.2,321.5,207,321.9L207,321.9z"/>
	<path class="st1" d="M167.6,341.6c-2.2-1.6-4.8-2.2-6.2-4.6C164.3,337.5,166.9,338.3,167.6,341.6z"/>
	<path class="st2" d="M252.6,248.6c-0.2,1.8-1,3-2.9,3.1C250.7,250.6,251.7,249.6,252.6,248.6z"/>
	<path class="st1" d="M111.6,374.2c-0.4-0.2-0.8-0.4-1.2-0.5c1.1-0.6,2.3-0.8,3.5-0.7C113.8,374.4,112.4,373.8,111.6,374.2z"/>
	<path class="st2" d="M217.3,279.7c1.4,1.4,0.6,2.7,0.2,4.2h-0.3c-0.1,0-0.1-0.1-0.2-0.2C217.1,282.4,217.2,281.2,217.3,279.7z"/>
	<path class="st2" d="M238.4,282c0,0.2,0.1,0.5,0.1,0.7l-2,1.5c-0.7-0.9-0.3-1.8-0.4-2.6C236.8,282,237.4,283.5,238.4,282z"/>
	<path class="st2" d="M278.9,172.4c-0.8,1.8-2.2,2-3.9,1.8C276.2,173.5,277.5,172.9,278.9,172.4z"/>
	<path class="st16" d="M283.7,156.9c1,0.3,2.1-0.3,2.8,0.8c-0.2,0.2-0.2,0.6-0.6,0.6c-0.8-0.2-1.5-0.4-2.2-0.7
		C283.4,157.2,283.4,157,283.7,156.9z"/>
	<path class="st16" d="M283.7,156.9v0.7c-0.7-0.6-1.7-0.5-2.4,0.1c0-0.2,0-0.5-0.1-0.7C282,156.4,282.8,154.8,283.7,156.9z"/>
	<path class="st16" d="M268.8,145c1.2,0.2,2.4-0.3,3.5,0.6c0.2,0.1,0.3,0.3,0.2,0.5l0,0l0,0c0,0.1-0.1,0.2-0.2,0.2
		C271.2,145.6,269.6,146.4,268.8,145z"/>
	<path class="st1" d="M179.7,327.2v-0.6c1.2-1.2,2.7-0.3,4.1-0.8c0.1,0.1,0.2,0.3,0.2,0.5c-0.1,0.2-0.1,0.2-0.2,0.2
		C182.5,326.9,181,326.5,179.7,327.2z"/>
	<path class="st1" d="M132.5,368.6c0.2-0.1,0.3-0.2,0.4-0.4c1-0.2,2-0.5,3-0.7v0.7C134.8,368.9,133.8,369.5,132.5,368.6z"/>
	<path class="st1" d="M103.9,374.4v0.8l-3.5,0.6C100.8,373.7,102.6,374.8,103.9,374.4z"/>
	<path class="st1" d="M191,320.7l0.6,0.6c-1.6,0.1-3.2,0.1-4.8,0.2C188,320.1,189.6,320.8,191,320.7z"/>
	<path class="st19" d="M207.6,321.8c-1.4-0.4-2.9,0.4-4.2-0.6c1.7,0,3.3-0.5,4.9,0.4C208.1,322.1,208,322.1,207.6,321.8z"/>
	<path class="st2" d="M212.2,310.1c3.2,2.7,0.7,3-2.3,3.2C207.8,311.5,211.9,311.5,212.2,310.1z"/>
	<path class="st1" d="M194.7,321.5c0-0.2,0-0.4-0.2-0.6c2,0,4.3-1.3,5.4,2.1C198.1,322.4,196.3,322.1,194.7,321.5z"/>
	<path class="st1" d="M181.6,338.6c-0.8,0.6-1.6,1.2-2.6,0.4c0.6-0.4,1.3-0.8,1.9-1.2C181.2,337.8,181.5,338.2,181.6,338.6z"/>
	<path class="st1" d="M202.3,321c-0.2,0.2-0.5,0.4-0.7,0.6c-0.9-0.1-1.8-0.1-2.6-0.2C199.9,320.2,201.1,320.7,202.3,321z"/>
	<path class="st1" d="M183.9,326.6V326c0.6-0.7,1.5-1.1,2.4-1.1C186,326,184.8,326.2,183.9,326.6z"/>
	<path class="st1" d="M181.6,338.6l-0.8-0.8c-0.1-0.5-0.3-1-0.4-1.6C181.4,336.8,182.1,337.3,181.6,338.6z"/>
	<path class="st16" d="M277.6,147.1c0-0.3,0.1-0.6,0.1-0.9c1,0.5,1.6,1.4,1.7,2.5h-0.5C278.5,148.1,278.1,147.6,277.6,147.1z"/>
	<path class="st1" d="M160.7,349.7c-0.5-0.3-0.5-0.8-0.7-1.3c0-0.4,0.3-0.8,0.7-0.9c0.4,0.3,1,0,1.2,0.5
		C161.6,348.5,160.7,348.9,160.7,349.7z"/>
	<path class="st1" d="M207,321.4c0.3-0.2,0.5-0.2,0.8-0.3l2.8,0.5v0.9c-1.3,0-2.4-0.2-3.7-0.2C207,322.1,207,321.7,207,321.4z"/>
	<path class="st1" d="M123.2,371c-1.2,0-2.4,0.5-3.3-0.7C120.9,370.9,122.2,370,123.2,371z"/>
	<path class="st16" d="M285.9,158.1l0.6-0.6c0.8,1,0.1,1.5-0.6,2C285.1,159.1,285.9,158.6,285.9,158.1z"/>
	<path class="st1" d="M162.1,348c-0.4-0.2-0.8-0.3-1.2-0.5l1.8-1.2v0.6C162.6,347.3,162.4,347.7,162.1,348z"/>
	<path class="st16" d="M272.3,146.1v-0.7c0.6,0.1,1.2,0.1,1.8,0.2v0.7C273.4,147.1,272.9,146.6,272.3,146.1z"/>
	<path class="st16" d="M267.4,138.6c-0.2,0-0.4-0.1-0.6-0.1c0.3-0.7,0.3-1.5,0-2.2c0.3,0,0.5,0,0.8-0.1
		C268,137,267.9,137.9,267.4,138.6z"/>
	<path class="st1" d="M175.6,340.3c-0.7,0.6-1.5,1.2-2.4,0.5C173.8,339.8,174.7,340.3,175.6,340.3z"/>
	<path class="st2" d="M246.1,275c1.1,1,1.2,2-0.1,2.8C246.6,276.9,246.1,275.9,246.1,275z"/>
	<path class="st2" d="M218.9,274.8c0,1.1,0.5,2.2-0.5,3.2C218.7,276.9,217.7,275.7,218.9,274.8z"/>
	<path class="st1" d="M81.4,373.5l0.6,0.6c-0.1,0.9-0.6,1.6-1.4,2C80.3,375.1,81.2,374.3,81.4,373.5z"/>
	<path class="st18" d="M262.8,205.4c-0.2,0.9,0.7,1.8,0,2.6c-0.7-0.6-0.8-1.7-0.2-2.4l0,0C262.5,205.5,262.6,205.4,262.8,205.4
		L262.8,205.4z"/>
	<path class="st2" d="M314.9,180.7c-0.1,0.2-0.3,0.4-0.4,0.6c-1.1,0.9-0.1,2.1-0.8,3.1c-1.7,3.2-1.5,3.7,2,3.8c0.5,0,1,0.2,1.4,0.2
		c0.8,1.5-0.2,3.1,0.6,4.6c2.1,0.8,1.6,2.4,1.2,3.9s-1.7,1.3-2.8,1c-0.7-0.2-1.4-0.3-1.9,0.4c-1-1.9,0.6-1.8,1.5-1.8
		c2.1,0,2.3-0.9,1.5-2.5c-0.3-0.7-0.5-1.4-0.6-2.2c0-1.6-0.1-2.7-2.2-1.9c-1.1,0.4-3.5-2.8-2.9-3.7c1.3-1.7,1.5-3.5,1.9-5.4
		c0.1-0.6,0.9-0.8,1.5-0.8c0.2,0.1,0.3,0.3,0.2,0.5l0,0l0,0C315,180.5,314.9,180.7,314.9,180.7z"/>
	<path class="st2" d="M373.6,255.1c-3.9,5.3-8.3,4.6-12.6,0.9c-1.4-1.1-2.9-0.4-4.2-0.4c-0.3-0.2-0.4-0.7-0.3-1.1l0.2-0.2
		c3-2.7,7.2-0.9,9,0.7c3,3,4.4,0.5,6.3-0.9C373.3,252.8,373.7,252.8,373.6,255.1z"/>
	<path class="st1" d="M221.1,322.5h0.9c-0.1,0.7-2.6,1.8,0.5,2c1.3,0.1,1.3,1.3,1.3,2.1s-0.9,1.3-1.8,1.7c-2.6,1.3-6.2,0.7-8.6,2.5
		c-0.4-0.1-0.5-0.3-0.7-0.6c0.7-1.2,1.7-2.2,3-1.7c2.5,1.1,3.9-1.2,6.2-1.2c1.2,0,0.9-1.4-0.4-1.6
		C217.7,325,219.2,323.8,221.1,322.5z"/>
	<path class="st18" d="M309,197.8c0.4,0.2,0.7,0.7,0.7,1.2l0,0c-1,0.1-2.4,1.8-2.4-0.9c0-0.9-0.9-1.1-1.6-0.9c-2.9,1-2-1.7-2.4-2.7
		c-0.5-1.6,0.7-2.2,2.4-2c-0.4,0.4-0.9,0.8-1.3,1.2c0.7,0.7,0.4,2.3,2.3,1.9C308,195.2,308.6,196.8,309,197.8z"/>
	<path class="st2" d="M243.5,388.9c0-0.1-0.1-0.2-0.1-0.3c-0.7-1.1-1.3-2.5-0.5-3.2s2.4-0.3,3.5,0c3.6,1.2,3.6,1.2,4.3-3
		c1.7,1.5,0.3,2.9-0.3,4.1c-0.5,1-1.8,1.3-2.7,0.7l0,0h-0.1c-0.1-0.1-0.2-0.1-0.3-0.2C244.6,385,243.9,386.2,243.5,388.9z"/>
	<path class="st2" d="M422.5,286.1c1.9,0.6,3.6,1.6,5.7,1.3c0.8-0.1,2-0.5,2.4,0.5s-0.8,1.4-1.2,2l-0.3,0.9
		c-0.1,0.5-0.1,0.9-0.2,1.4c0.1-2.6-1.3-3.7-3.7-4C424,288.1,422.9,287.2,422.5,286.1z"/>
	<path class="st20" d="M309.4,199c-1.6-1.4-2.6-3.3-5.1-2.7c-1.7,0.5-0.8-2.6-0.9-3.8C308.7,192.8,310.4,194.4,309.4,199z"/>
	<path class="st2" d="M377.4,218.9c1.3-1.8,2.7-2,4.1-0.2c0.4,0.6,1.2,0.9,1.9,0.9c1.6,0.1,2.8,0.9,1.8,2.8
		C382.9,220.6,380.3,219.4,377.4,218.9z"/>
	<path class="st2" d="M360.8,256.7c0,0.2,0,0.5,0.1,0.7c-0.3,3.2-0.9,6.4,1.3,9.3c-0.2,0-0.4,0.1-0.6,0
		C358.5,264.7,358.1,259,360.8,256.7z"/>
	<path class="st2" d="M356.4,206.7c1.1,1.2-1.4,3.8,1.9,4c0.2,0.1,0.3,0.3,0.2,0.4l0,0c0,0.2-0.1,0.3-0.2,0.3
		c-0.4,0.4-0.9,0.7-1.4,1c-0.6,0.3-1.2,1-1.9,0.4s0.2-1.2,0.3-1.9c0.3-1.8,0.8-3.7-1.9-4.3c0.1-0.1,0.2-0.2,0.4-0.3
		C354.8,206.6,355.7,206.1,356.4,206.7z"/>
	<path class="st18" d="M338.6,206.1c0.5,0.5,0,1.5,1,1.6c1.3,0.3,1-0.9,1.5-1.4s0.9-1,1.4-1.5c1.4,1,0.5,2.3-0.1,2.9
		c-1,1-2.9,1.4-3.7,0.1c-0.9-1.5-2.1-1-3.4-1.5C336.3,205.9,337.5,206.4,338.6,206.1z"/>
	<path class="st18" d="M310.9,211c0.2,0.3,0.7,0.7,0.6,0.9c-0.2,0.5-0.9,0.2-0.9,0c-0.3-1.3-2.1-2.3-0.8-3.9c1-1.2,3.7-1.3,5.4,0.1
		h-2.7C311.1,208.6,311.7,210,310.9,211z"/>
	<path class="st2" d="M231,358.7c-0.4,0.5-0.8,0.9-1.3,1.3c-0.7,0.5-1.5,0.9-2.1,0.3s0.3-1.2,0.4-1.8c0.5-1.7,1.8-3.2,0.7-5.2h0.4
		c1.2,1.3,1.8,2.4,0.3,4c-0.5,0.5-0.9,1.9,0.9,1.4C230.5,358.3,230.7,358.3,231,358.7z"/>
	<path class="st18" d="M229,353.4h-0.4c-1-1.4-1.5-3-1.5-4.7c1.2-0.7,2.1,0.4,3.5,0.2C228.3,349.8,228.7,351.5,229,353.4z"/>
	<path class="st2" d="M241.3,366.9c2-2.4,2-2.7-1.4-3.6c-0.5-0.1-0.9-0.5-1-1c0.5,0,1,0,1.5-0.1c1.4-0.3,2.8,0.6,3.2,2
		c0.5,1.4-0.6,2.1-1.7,2.7c-0.1,0.2-0.3,0.3-0.4,0.2l0,0L241.3,366.9z"/>
	<path class="st2" d="M250.4,378.2c-1,2.1-2.2,2-4.1,0.9c-2.2-1.4-0.7-2.4-0.1-3.5C246.5,378.7,246.9,379.1,250.4,378.2z"/>
	<path class="st2" d="M371.9,216.8c0.8,1.4,2,2.4,3.5,3c0.3,0.2,0.6,0.8,0.2,0.9C374,221.1,371.6,218.7,371.9,216.8z"/>
	<path class="st18" d="M265.8,257.6c-1-0.5-2.4-0.4-2.1-2c0.3-1.6,1.3-1.3,2.1-0.3C264.6,256.2,266.5,256.8,265.8,257.6z"/>
	<path class="st2" d="M250.7,381.2c0.6-0.8,0.7-1.9,0.2-2.8c0.2-1.1,0.9-1.6,1.9-1.2s0.1,1.1-0.2,1.7
		C252,379.7,252.1,381.1,250.7,381.2z"/>
	<path class="st18" d="M261.8,231.1c-0.3,1.2,0,2.5,0.7,3.5c0.4,0.6,0.3,1.4-0.3,1.8l0,0l0,0l-0.1,0.1l-0.1,0.1
		c-0.5,0.2-0.9-0.3-1-0.8C262.4,234.4,259.7,232.5,261.8,231.1z"/>
	<path class="st2" d="M415.5,285.7c1.7-2.1,2.7,1,4.3,0.5c0.3,0.3,0.3,0.5,0,0.7C418.2,287.4,416.5,286.9,415.5,285.7z"/>
	<path class="st2" d="M239,362.2c-1-2.1-3-2.7-4.9-3.6C237.8,358.6,238.6,359.2,239,362.2z"/>
	<path class="st2" d="M253.4,397.3c-0.1-0.9-0.5-1.8,0.5-2.4c0.5,0.3,0.9-1.6,1.3,0c0.1,0.5,1.1,1.6-0.4,1.6
		C254,396.3,253.9,397,253.4,397.3z"/>
	<path class="st1" d="M226.8,341.5c-0.8-3.5-4.1-1.5-5.3-4.2C223.8,337.3,226.8,335.9,226.8,341.5z"/>
	<path class="st2" d="M386.6,229.8c-1.2,1.3,2,3.1-0.6,4.2c-0.2-1.1-0.5-2.2-0.6-3.3C385.4,229.9,385.3,228.8,386.6,229.8z"/>
	<path class="st2" d="M362.2,266.7c2.9,0.6,0.5,2.8,1.3,4.1c-0.9-0.8-1.1-0.9-1-1.3C362.8,268.6,362.7,267.6,362.2,266.7z"/>
	<path class="st2" d="M401,289.3c1.1-1.1,2.4-0.2,3.5-0.5c0.2,0.1,0.3,0.2,0.2,0.3s-0.1,0.2-0.2,0.2
		C403.5,290.2,402.3,290,401,289.3z"/>
	<path class="st2" d="M241.3,366.9h0.7c-1,1.4,1.8,2.7,0.1,4.1c-0.2-1-0.6-1.9-1.3-2.6C240,367.7,240.7,367.3,241.3,366.9z"/>
	<path class="st2" d="M314.2,199.4l-4.2,0.8c0-0.6,0-1.3-0.1-1.9l0,0C311.2,199.2,313,198.5,314.2,199.4z"/>
	<path class="st2" d="M252.7,375.3c-0.5,0-1-0.1-0.9-0.8c0.1-0.4,0.4-0.7,0.8-0.6h0.1c0.5,0.1,1,0.2,1,0.9
		C253.5,375.3,253.1,375.2,252.7,375.3z"/>
	<path class="st2" d="M358.3,211.5c0-0.2,0-0.5-0.1-0.7c0.8-1.7,2.2-1,3.5-1.2C360.9,210.8,359.2,210.3,358.3,211.5z"/>
	<path class="st2" d="M296.7,168.7c1-0.1,2-0.8,2.8,0.1c-1,0.9-2.2,0.6-3.3,0.4C295.7,169.1,296.5,168.9,296.7,168.7z"/>
	<path class="st21" d="M231,358.7c-0.3,0-0.5-0.1-0.8-0.1c1.2,0.2,2.1-3,3.5-0.3C232.7,357.7,232,358.8,231,358.7z"/>
	<path class="st2" d="M311.2,174.9c11.7-1.8,9.7,1.3,3.8,5.8C306.6,181.6,306.6,179.1,311.2,174.9z"/>
	<path class="st2" d="M305,171.8l2.2,0.6c0.2,0.1,0.5,0.3,0.7,0.4C306.7,173.2,305.5,173.3,305,171.8z"/>
	<path class="st2" d="M314.5,171c1.5-0.1,1.9,1.4,2.9,1.9C315.5,173.7,315.3,172,314.5,171z"/>
	<path class="st1" d="M215,328.8c0.4,0.3,0.7,0.7,1.1,1c-1.1,2,1.8,3.7,0.2,5.7C213.5,333.7,214.8,331,215,328.8z"/>
	<path class="st2" d="M366,210.6c0.9,0.5,1,1.4,1.2,2.2C365.7,212.9,365.5,211.9,366,210.6z"/>
	<path class="st2" d="M386.3,233.6c-0.3,0.1-0.5,0.3-0.8,0.4c-0.7-0.1-1.6,0.4-2.2-0.9C384.4,233.3,385.4,233,386.3,233.6z"/>
	<path class="st2" d="M383.9,247.2c0.1,1.3,0.8,2.5-0.5,3.6C383,249.6,383.2,248.3,383.9,247.2z"/>
	<path class="st2" d="M380.8,244.8c0.4-0.1,0.6,0,0.7,0.4c-0.8,1.1-1.9,0.7-3.3,0.6C379.2,245,380.3,245.6,380.8,244.8z"/>
	<path class="st2" d="M419.5,286.9v-0.7c1.2,0.5,2.4-1.4,3.6,0.1C421.9,286.7,420.7,286.9,419.5,286.9z"/>
	<path class="st2" d="M381.8,238.2c0.7,3.8-2.5,3.3-4.6,3.6c-1,0.3-2.1-0.3-2.4-1.3l0,0l0,0c-0.3-0.2-0.1-0.4,0.1-0.7
		c0.5-2.2,2.6-0.3,3.8-0.9C379.5,237.6,380.3,237.5,381.8,238.2z"/>
	<path class="st22" d="M263.6,232.9c-0.2-1.1-0.6-1.9-1.9-1.6c0.3-0.9,1-0.9,1.7-0.4c0.6,0.3,0.8,1.1,0.5,1.7L263.6,232.9z"/>
	<path class="st2" d="M404.6,289.3v-0.5c0.1-0.1,0.2-0.2,0.4-0.2c0.9,0.1,1.6,0.1,2.8,0.2C406.6,289.5,405.6,289.1,404.6,289.3z"/>
	<path class="st1" d="M224.3,344.1l1.7-5.3C230.9,342.3,229.4,343.9,224.3,344.1z"/>
	<path class="st2" d="M409.2,286.1c0.6-1,1.6-0.5,2.4-0.6C411.2,287,410,285.9,409.2,286.1z"/>
	<path class="st2" d="M380.7,254.4c-2.5,2.4-6.4,2.6-10.3,2.3C374.2,256,374.6,250.2,380.7,254.4z"/>
	<path class="st23" d="M258.9,239.8h1.5c0.4,1.4-0.7,0.6-1.1,0.7S258.2,240.6,258.9,239.8z"/>
	<path class="st2" d="M312.1,202.7c0.8-0.2,1.6-0.7,2.2,0c-0.5,0.6-1.4,0.7-2,0.2C312.2,202.9,312.1,202.8,312.1,202.7z"/>
	<path class="st2" d="M341.6,207.1c-0.3-1.5-0.8-3,1.6-2.9C342.7,205.2,343.7,206.9,341.6,207.1z"/>
	<path class="st2" d="M257.7,244c-0.9-1.3,1.5-4.9-2.8-3.6v-1.1c1.9,0.9,3.6-1.6,5.5,0.2c1.6-0.2,1.3-1.1,0.9-2.1
		c-0.3-1-1-2.1,0-3.1l-0.1,0.2c2-0.8,2.3,0.2,2.2,1.8c2.4,1.9,2.3,4.4-0.5,5.7c-1.2,0.5-2.3,1.3-3.3,2.2
		C258.9,244.8,258.3,244.9,257.7,244z"/>
	<path class="st2" d="M260.6,234.5c-0.9-1.3,1.5-4.9-2.8-3.6v-1.1c1.9,0.9,3.6-1.6,5.5,0.2c1.6-0.2,1.3-1.1,0.9-2.1
		c-0.3-1-1-2.1,0-3.1l-0.1,0.2c2-0.8,2.3,0.2,2.2,1.8c2.4,1.9,2.3,4.4-0.5,5.7c-1.2,0.5-2.3,1.3-3.3,2.2
		C261.8,235.3,261.2,235.4,260.6,234.5z"/>
	<path class="st2" d="M238.9,280.5c2.5,1,0.5,2.1-0.3,2.1c-2.2,0.1-2.5,1.5-3.4,2.5c-0.3-0.2-0.5-0.5-0.3-0.8l0.2-0.1
		c0.2-1-0.2-2.4,2-2.1C238,282,238.8,281.3,238.9,280.5z"/>
	<path class="st2" d="M228.9,277.9c1.6,0.8,0.3,1.7-0.2,1.7c-1.4,0.1-1.6,1.2-2.2,2c-0.2-0.1-0.3-0.4-0.2-0.6l0.1-0.1
		c0.1-0.8-0.1-1.9,1.3-1.7C228.3,279.1,228.8,278.6,228.9,277.9z"/>
	<path class="st2" d="M223.8,305.4c1,3.3-1.1,3.7-3.4,3.8c-1.3,0-2.6-0.2-3.9-0.6c-0.3,0-0.5,0-0.5-0.2s-0.1-0.3,0-0.4
		c0.6-0.7,1.6-1,2.5-0.7C221.3,308.8,222.4,306.9,223.8,305.4z"/>
	<path class="st1" d="M222.4,320.2c-1,1.7-2,0.5-3.1,0.2c-0.2-0.2-0.5-0.6-0.6-0.9c1.3-2.2,2.4,0.2,3.6,0.2
		C222.3,320,222.4,320,222.4,320.2z"/>
	<path class="st1" d="M224.5,323.7c-1.3,3.5-2.6,1-4,0.3c-0.3-0.5-0.6-1.1-0.8-1.9c1.7-4.5,3.1,0.3,4.6,0.3
		C224.3,323.4,224.5,323.4,224.5,323.7z"/>
	<path class="st1" d="M214.5,334.7l-1-1.4c3.6,1.3,7.2,2.8,10.8,4.2C220.9,338.4,217.7,335.9,214.5,334.7z"/>
	<path class="st2" d="M251.8,377c0.6,0,1,0.3,1.7,0.3c-2.5-0.6-4.8,5.2-7.4,0C248.1,378.6,249.7,376.7,251.8,377z"/>
	<path class="st18" d="M228.2,356.3h-0.4c-1-1.4-1.5-3-1.5-4.7c1.2-0.7,2.1,0.4,3.5,0.2C227.5,352.7,227.9,354.4,228.2,356.3z"/>
	<path class="st2" d="M225.5,347.1c4.6-0.4,3.6,2.5,3.8,5l-0.8,0.5c-0.3,0.2-0.3,0-0.7,0.1C227.1,350.8,226.4,349.1,225.5,347.1z"/>
	<path class="st2" d="M227.4,351.4c4.6-0.4,3.6,2.5,3.8,5l-0.8,0.5c-0.3,0.2-0.3,0-0.7,0.1C229,355.2,228.3,353.5,227.4,351.4z"/>
	<path class="st2" d="M227.4,359.7c0.9-5.3,4.1-3.6,7.2-3.3l0.3,0.9c0.1,0.3-0.1,0.4-0.1,0.8C232.4,358.6,230.2,359,227.4,359.7z"/>
	<path class="st2" d="M231.9,357.9c3.1-3.4,4.4-0.6,6.2,1.1l-0.2,0.9c-0.1,0.3-0.2,0.2-0.4,0.5C235.7,359.6,234,358.8,231.9,357.9z"
		/>
	<path class="st2" d="M236.8,355.6c8.7-1.9,6,2.9,5.7,6.9l-1.5,0.9c-0.5,0.3-0.6,0.1-1.2,0.3C238.8,361.1,237.9,358.6,236.8,355.6z"
		/>
	<path class="st2" d="M253.7,391.3c-4.8,4.1-5,0.1-6.3-2.5l0.6-1.1c0.2-0.4,0.3-0.3,0.7-0.6C250.3,388.6,251.8,389.8,253.7,391.3z"
		/>
	<path class="st2" d="M247.7,390.2c-5.1,1.8-4.1-1.5-4.4-4l0.8-0.7c0.3-0.2,0.4-0.1,0.7-0.3C245.7,386.9,246.6,388.4,247.7,390.2z"
		/>
	<path class="st2" d="M253.8,394.6c-0.1-0.9-0.5-1.8,0.5-2.4c0.5,0.3,0.9-1.6,1.3,0c0.1,0.5,1.1,1.6-0.4,1.6
		C254.4,393.6,254.3,394.3,253.8,394.6z"/>
</g>
<text transform="matrix(1 0 0 1 12.9498 181.1707)" class="st1 st3 st4">10,7% (-15 pp)</text>
<text transform="matrix(1 0 0 1 12.95 207.4357)" class="st1 st3 st4">8.781 (-80,4%)</text>
<text transform="matrix(1 0 0 1 12.9496 234.619)" class="st1 st3 st4">19.075 (-75,2%)</text>
<text transform="matrix(1 0 0 1 373.4981 100.488)" class="st1 st3 st4">10,2%   (-22,2 pp)</text>
<text transform="matrix(1 0 0 1 374 112.1978)" class="st1 st3 st4">20.923   (-87,4%)</text>
<text transform="matrix(1 0 0 1 373.5477 123.6838)" class="st1 st3 st4">37.631   (-88,5%)</text>
<text transform="matrix(1 0 0 1 440.3369 385.7023)" class="st1 st3 st4">12,8%     (-42,8 pp)</text>
<text transform="matrix(1 0 0 1 440.3372 397.4126)" class="st1 st3 st4">100.066   (-88,9%)</text>
<text transform="matrix(1 0 0 1 440.3865 408.8981)" class="st1 st3 st4">195.387   (-90,3%)</text>
<text transform="matrix(1 0 0 1 222.463 473.1624)" class="st1 st3 st4">14,2%    (-16,1 pp)</text>
<text transform="matrix(1 0 0 1 222.1026 484.8728)" class="st1 st3 st4">13.451    (-85,0%)</text>
<text transform="matrix(1 0 0 1 222.5126 496.3581)" class="st1 st3 st4">25.514    (-84,6%)</text>
</svg>
